G04 #@! TF.GenerationSoftware,KiCad,Pcbnew,5.0.2+dfsg1-1*
G04 #@! TF.CreationDate,2019-10-16T13:58:15+02:00*
G04 #@! TF.ProjectId,BEE,4245452e-6b69-4636-9164-5f7063625858,rev?*
G04 #@! TF.SameCoordinates,Original*
G04 #@! TF.FileFunction,Soldermask,Bot*
G04 #@! TF.FilePolarity,Negative*
%FSLAX46Y46*%
G04 Gerber Fmt 4.6, Leading zero omitted, Abs format (unit mm)*
G04 Created by KiCad (PCBNEW 5.0.2+dfsg1-1) date Wed 16 Oct 2019 01:58:15 PM CEST*
%MOMM*%
%LPD*%
G01*
G04 APERTURE LIST*
%ADD10C,0.100000*%
G04 APERTURE END LIST*
D10*
G36*
X165784588Y-116714234D02*
X165954389Y-116765743D01*
X166110879Y-116849389D01*
X166248043Y-116961957D01*
X166360611Y-117099121D01*
X166444257Y-117255611D01*
X166495766Y-117425412D01*
X166513158Y-117602000D01*
X166495766Y-117778588D01*
X166444257Y-117948389D01*
X166360611Y-118104879D01*
X166248043Y-118242043D01*
X166110879Y-118354611D01*
X165954389Y-118438257D01*
X165784588Y-118489766D01*
X165652249Y-118502800D01*
X165563751Y-118502800D01*
X165431412Y-118489766D01*
X165261611Y-118438257D01*
X165105121Y-118354611D01*
X164967957Y-118242043D01*
X164855389Y-118104879D01*
X164771743Y-117948389D01*
X164720234Y-117778588D01*
X164702842Y-117602000D01*
X164720234Y-117425412D01*
X164771743Y-117255611D01*
X164855389Y-117099121D01*
X164967957Y-116961957D01*
X165105121Y-116849389D01*
X165261611Y-116765743D01*
X165431412Y-116714234D01*
X165563751Y-116701200D01*
X165652249Y-116701200D01*
X165784588Y-116714234D01*
X165784588Y-116714234D01*
G37*
G36*
X163244588Y-116714234D02*
X163414389Y-116765743D01*
X163570879Y-116849389D01*
X163708043Y-116961957D01*
X163820611Y-117099121D01*
X163904257Y-117255611D01*
X163955766Y-117425412D01*
X163973158Y-117602000D01*
X163955766Y-117778588D01*
X163904257Y-117948389D01*
X163820611Y-118104879D01*
X163708043Y-118242043D01*
X163570879Y-118354611D01*
X163414389Y-118438257D01*
X163244588Y-118489766D01*
X163112249Y-118502800D01*
X163023751Y-118502800D01*
X162891412Y-118489766D01*
X162721611Y-118438257D01*
X162565121Y-118354611D01*
X162427957Y-118242043D01*
X162315389Y-118104879D01*
X162231743Y-117948389D01*
X162180234Y-117778588D01*
X162162842Y-117602000D01*
X162180234Y-117425412D01*
X162231743Y-117255611D01*
X162315389Y-117099121D01*
X162427957Y-116961957D01*
X162565121Y-116849389D01*
X162721611Y-116765743D01*
X162891412Y-116714234D01*
X163023751Y-116701200D01*
X163112249Y-116701200D01*
X163244588Y-116714234D01*
X163244588Y-116714234D01*
G37*
G36*
X142124800Y-118502800D02*
X140323200Y-118502800D01*
X140323200Y-116701200D01*
X142124800Y-116701200D01*
X142124800Y-118502800D01*
X142124800Y-118502800D01*
G37*
G36*
X143940588Y-116714234D02*
X144110389Y-116765743D01*
X144266879Y-116849389D01*
X144404043Y-116961957D01*
X144516611Y-117099121D01*
X144600257Y-117255611D01*
X144651766Y-117425412D01*
X144669158Y-117602000D01*
X144651766Y-117778588D01*
X144600257Y-117948389D01*
X144516611Y-118104879D01*
X144404043Y-118242043D01*
X144266879Y-118354611D01*
X144110389Y-118438257D01*
X143940588Y-118489766D01*
X143808249Y-118502800D01*
X143719751Y-118502800D01*
X143587412Y-118489766D01*
X143417611Y-118438257D01*
X143261121Y-118354611D01*
X143123957Y-118242043D01*
X143011389Y-118104879D01*
X142927743Y-117948389D01*
X142876234Y-117778588D01*
X142858842Y-117602000D01*
X142876234Y-117425412D01*
X142927743Y-117255611D01*
X143011389Y-117099121D01*
X143123957Y-116961957D01*
X143261121Y-116849389D01*
X143417611Y-116765743D01*
X143587412Y-116714234D01*
X143719751Y-116701200D01*
X143808249Y-116701200D01*
X143940588Y-116714234D01*
X143940588Y-116714234D01*
G37*
G36*
X148728800Y-118502800D02*
X146927200Y-118502800D01*
X146927200Y-116701200D01*
X148728800Y-116701200D01*
X148728800Y-118502800D01*
X148728800Y-118502800D01*
G37*
G36*
X150544588Y-116714234D02*
X150714389Y-116765743D01*
X150870879Y-116849389D01*
X151008043Y-116961957D01*
X151120611Y-117099121D01*
X151204257Y-117255611D01*
X151255766Y-117425412D01*
X151273158Y-117602000D01*
X151255766Y-117778588D01*
X151204257Y-117948389D01*
X151120611Y-118104879D01*
X151008043Y-118242043D01*
X150870879Y-118354611D01*
X150714389Y-118438257D01*
X150544588Y-118489766D01*
X150412249Y-118502800D01*
X150323751Y-118502800D01*
X150191412Y-118489766D01*
X150021611Y-118438257D01*
X149865121Y-118354611D01*
X149727957Y-118242043D01*
X149615389Y-118104879D01*
X149531743Y-117948389D01*
X149480234Y-117778588D01*
X149462842Y-117602000D01*
X149480234Y-117425412D01*
X149531743Y-117255611D01*
X149615389Y-117099121D01*
X149727957Y-116961957D01*
X149865121Y-116849389D01*
X150021611Y-116765743D01*
X150191412Y-116714234D01*
X150323751Y-116701200D01*
X150412249Y-116701200D01*
X150544588Y-116714234D01*
X150544588Y-116714234D01*
G37*
G36*
X153084588Y-116714234D02*
X153254389Y-116765743D01*
X153410879Y-116849389D01*
X153548043Y-116961957D01*
X153660611Y-117099121D01*
X153744257Y-117255611D01*
X153795766Y-117425412D01*
X153813158Y-117602000D01*
X153795766Y-117778588D01*
X153744257Y-117948389D01*
X153660611Y-118104879D01*
X153548043Y-118242043D01*
X153410879Y-118354611D01*
X153254389Y-118438257D01*
X153084588Y-118489766D01*
X152952249Y-118502800D01*
X152863751Y-118502800D01*
X152731412Y-118489766D01*
X152561611Y-118438257D01*
X152405121Y-118354611D01*
X152267957Y-118242043D01*
X152155389Y-118104879D01*
X152071743Y-117948389D01*
X152020234Y-117778588D01*
X152002842Y-117602000D01*
X152020234Y-117425412D01*
X152071743Y-117255611D01*
X152155389Y-117099121D01*
X152267957Y-116961957D01*
X152405121Y-116849389D01*
X152561611Y-116765743D01*
X152731412Y-116714234D01*
X152863751Y-116701200D01*
X152952249Y-116701200D01*
X153084588Y-116714234D01*
X153084588Y-116714234D01*
G37*
G36*
X155624588Y-116714234D02*
X155794389Y-116765743D01*
X155950879Y-116849389D01*
X156088043Y-116961957D01*
X156200611Y-117099121D01*
X156284257Y-117255611D01*
X156335766Y-117425412D01*
X156353158Y-117602000D01*
X156335766Y-117778588D01*
X156284257Y-117948389D01*
X156200611Y-118104879D01*
X156088043Y-118242043D01*
X155950879Y-118354611D01*
X155794389Y-118438257D01*
X155624588Y-118489766D01*
X155492249Y-118502800D01*
X155403751Y-118502800D01*
X155271412Y-118489766D01*
X155101611Y-118438257D01*
X154945121Y-118354611D01*
X154807957Y-118242043D01*
X154695389Y-118104879D01*
X154611743Y-117948389D01*
X154560234Y-117778588D01*
X154542842Y-117602000D01*
X154560234Y-117425412D01*
X154611743Y-117255611D01*
X154695389Y-117099121D01*
X154807957Y-116961957D01*
X154945121Y-116849389D01*
X155101611Y-116765743D01*
X155271412Y-116714234D01*
X155403751Y-116701200D01*
X155492249Y-116701200D01*
X155624588Y-116714234D01*
X155624588Y-116714234D01*
G37*
G36*
X158164588Y-116714234D02*
X158334389Y-116765743D01*
X158490879Y-116849389D01*
X158628043Y-116961957D01*
X158740611Y-117099121D01*
X158824257Y-117255611D01*
X158875766Y-117425412D01*
X158893158Y-117602000D01*
X158875766Y-117778588D01*
X158824257Y-117948389D01*
X158740611Y-118104879D01*
X158628043Y-118242043D01*
X158490879Y-118354611D01*
X158334389Y-118438257D01*
X158164588Y-118489766D01*
X158032249Y-118502800D01*
X157943751Y-118502800D01*
X157811412Y-118489766D01*
X157641611Y-118438257D01*
X157485121Y-118354611D01*
X157347957Y-118242043D01*
X157235389Y-118104879D01*
X157151743Y-117948389D01*
X157100234Y-117778588D01*
X157082842Y-117602000D01*
X157100234Y-117425412D01*
X157151743Y-117255611D01*
X157235389Y-117099121D01*
X157347957Y-116961957D01*
X157485121Y-116849389D01*
X157641611Y-116765743D01*
X157811412Y-116714234D01*
X157943751Y-116701200D01*
X158032249Y-116701200D01*
X158164588Y-116714234D01*
X158164588Y-116714234D01*
G37*
G36*
X160704588Y-116714234D02*
X160874389Y-116765743D01*
X161030879Y-116849389D01*
X161168043Y-116961957D01*
X161280611Y-117099121D01*
X161364257Y-117255611D01*
X161415766Y-117425412D01*
X161433158Y-117602000D01*
X161415766Y-117778588D01*
X161364257Y-117948389D01*
X161280611Y-118104879D01*
X161168043Y-118242043D01*
X161030879Y-118354611D01*
X160874389Y-118438257D01*
X160704588Y-118489766D01*
X160572249Y-118502800D01*
X160483751Y-118502800D01*
X160351412Y-118489766D01*
X160181611Y-118438257D01*
X160025121Y-118354611D01*
X159887957Y-118242043D01*
X159775389Y-118104879D01*
X159691743Y-117948389D01*
X159640234Y-117778588D01*
X159622842Y-117602000D01*
X159640234Y-117425412D01*
X159691743Y-117255611D01*
X159775389Y-117099121D01*
X159887957Y-116961957D01*
X160025121Y-116849389D01*
X160181611Y-116765743D01*
X160351412Y-116714234D01*
X160483751Y-116701200D01*
X160572249Y-116701200D01*
X160704588Y-116714234D01*
X160704588Y-116714234D01*
G37*
G36*
X99976598Y-115493032D02*
X100231528Y-115598627D01*
X100460958Y-115751927D01*
X100656073Y-115947042D01*
X100809373Y-116176472D01*
X100914968Y-116431402D01*
X100968800Y-116702033D01*
X100968800Y-116977967D01*
X100914968Y-117248598D01*
X100809373Y-117503528D01*
X100656073Y-117732958D01*
X100460958Y-117928073D01*
X100231528Y-118081373D01*
X99976598Y-118186968D01*
X99705967Y-118240800D01*
X99430033Y-118240800D01*
X99159402Y-118186968D01*
X98904472Y-118081373D01*
X98675042Y-117928073D01*
X98479927Y-117732958D01*
X98326627Y-117503528D01*
X98221032Y-117248598D01*
X98167200Y-116977967D01*
X98167200Y-116702033D01*
X98221032Y-116431402D01*
X98326627Y-116176472D01*
X98479927Y-115947042D01*
X98675042Y-115751927D01*
X98904472Y-115598627D01*
X99159402Y-115493032D01*
X99430033Y-115439200D01*
X99705967Y-115439200D01*
X99976598Y-115493032D01*
X99976598Y-115493032D01*
G37*
G36*
X171350598Y-115493032D02*
X171605528Y-115598627D01*
X171834958Y-115751927D01*
X172030073Y-115947042D01*
X172183373Y-116176472D01*
X172288968Y-116431402D01*
X172342800Y-116702033D01*
X172342800Y-116977967D01*
X172288968Y-117248598D01*
X172183373Y-117503528D01*
X172030073Y-117732958D01*
X171834958Y-117928073D01*
X171605528Y-118081373D01*
X171350598Y-118186968D01*
X171079967Y-118240800D01*
X170804033Y-118240800D01*
X170533402Y-118186968D01*
X170278472Y-118081373D01*
X170049042Y-117928073D01*
X169853927Y-117732958D01*
X169700627Y-117503528D01*
X169595032Y-117248598D01*
X169541200Y-116977967D01*
X169541200Y-116702033D01*
X169595032Y-116431402D01*
X169700627Y-116176472D01*
X169853927Y-115947042D01*
X170049042Y-115751927D01*
X170278472Y-115598627D01*
X170533402Y-115493032D01*
X170804033Y-115439200D01*
X171079967Y-115439200D01*
X171350598Y-115493032D01*
X171350598Y-115493032D01*
G37*
G36*
X152030800Y-113422800D02*
X150229200Y-113422800D01*
X150229200Y-111621200D01*
X152030800Y-111621200D01*
X152030800Y-113422800D01*
X152030800Y-113422800D01*
G37*
G36*
X171626588Y-110872234D02*
X171796389Y-110923743D01*
X171952879Y-111007389D01*
X172090043Y-111119957D01*
X172202611Y-111257121D01*
X172286257Y-111413611D01*
X172337766Y-111583412D01*
X172355158Y-111760000D01*
X172337766Y-111936588D01*
X172286257Y-112106389D01*
X172202611Y-112262879D01*
X172090043Y-112400043D01*
X171952879Y-112512611D01*
X171796389Y-112596257D01*
X171626588Y-112647766D01*
X171494249Y-112660800D01*
X171405751Y-112660800D01*
X171273412Y-112647766D01*
X171103611Y-112596257D01*
X170947121Y-112512611D01*
X170809957Y-112400043D01*
X170697389Y-112262879D01*
X170613743Y-112106389D01*
X170562234Y-111936588D01*
X170544842Y-111760000D01*
X170562234Y-111583412D01*
X170613743Y-111413611D01*
X170697389Y-111257121D01*
X170809957Y-111119957D01*
X170947121Y-111007389D01*
X171103611Y-110923743D01*
X171273412Y-110872234D01*
X171405751Y-110859200D01*
X171494249Y-110859200D01*
X171626588Y-110872234D01*
X171626588Y-110872234D01*
G37*
G36*
X169086588Y-110872234D02*
X169256389Y-110923743D01*
X169412879Y-111007389D01*
X169550043Y-111119957D01*
X169662611Y-111257121D01*
X169746257Y-111413611D01*
X169797766Y-111583412D01*
X169815158Y-111760000D01*
X169797766Y-111936588D01*
X169746257Y-112106389D01*
X169662611Y-112262879D01*
X169550043Y-112400043D01*
X169412879Y-112512611D01*
X169256389Y-112596257D01*
X169086588Y-112647766D01*
X168954249Y-112660800D01*
X168865751Y-112660800D01*
X168733412Y-112647766D01*
X168563611Y-112596257D01*
X168407121Y-112512611D01*
X168269957Y-112400043D01*
X168157389Y-112262879D01*
X168073743Y-112106389D01*
X168022234Y-111936588D01*
X168004842Y-111760000D01*
X168022234Y-111583412D01*
X168073743Y-111413611D01*
X168157389Y-111257121D01*
X168269957Y-111119957D01*
X168407121Y-111007389D01*
X168563611Y-110923743D01*
X168733412Y-110872234D01*
X168865751Y-110859200D01*
X168954249Y-110859200D01*
X169086588Y-110872234D01*
X169086588Y-110872234D01*
G37*
G36*
X141146588Y-110110234D02*
X141316389Y-110161743D01*
X141472879Y-110245389D01*
X141610043Y-110357957D01*
X141722611Y-110495121D01*
X141806257Y-110651611D01*
X141857766Y-110821412D01*
X141875158Y-110998000D01*
X141857766Y-111174588D01*
X141806257Y-111344389D01*
X141722611Y-111500879D01*
X141610043Y-111638043D01*
X141472879Y-111750611D01*
X141316389Y-111834257D01*
X141146588Y-111885766D01*
X141014249Y-111898800D01*
X140925751Y-111898800D01*
X140793412Y-111885766D01*
X140623611Y-111834257D01*
X140467121Y-111750611D01*
X140329957Y-111638043D01*
X140217389Y-111500879D01*
X140133743Y-111344389D01*
X140082234Y-111174588D01*
X140064842Y-110998000D01*
X140082234Y-110821412D01*
X140133743Y-110651611D01*
X140217389Y-110495121D01*
X140329957Y-110357957D01*
X140467121Y-110245389D01*
X140623611Y-110161743D01*
X140793412Y-110110234D01*
X140925751Y-110097200D01*
X141014249Y-110097200D01*
X141146588Y-110110234D01*
X141146588Y-110110234D01*
G37*
G36*
X151306588Y-109094234D02*
X151476389Y-109145743D01*
X151632879Y-109229389D01*
X151770043Y-109341957D01*
X151882611Y-109479121D01*
X151966257Y-109635611D01*
X152017766Y-109805412D01*
X152035158Y-109982000D01*
X152017766Y-110158588D01*
X151966257Y-110328389D01*
X151882611Y-110484879D01*
X151770043Y-110622043D01*
X151632879Y-110734611D01*
X151476389Y-110818257D01*
X151306588Y-110869766D01*
X151174249Y-110882800D01*
X151085751Y-110882800D01*
X150953412Y-110869766D01*
X150783611Y-110818257D01*
X150627121Y-110734611D01*
X150489957Y-110622043D01*
X150377389Y-110484879D01*
X150293743Y-110328389D01*
X150242234Y-110158588D01*
X150224842Y-109982000D01*
X150242234Y-109805412D01*
X150293743Y-109635611D01*
X150377389Y-109479121D01*
X150489957Y-109341957D01*
X150627121Y-109229389D01*
X150783611Y-109145743D01*
X150953412Y-109094234D01*
X151085751Y-109081200D01*
X151174249Y-109081200D01*
X151306588Y-109094234D01*
X151306588Y-109094234D01*
G37*
G36*
X171626588Y-108332234D02*
X171796389Y-108383743D01*
X171952879Y-108467389D01*
X172090043Y-108579957D01*
X172202611Y-108717121D01*
X172286257Y-108873611D01*
X172337766Y-109043412D01*
X172355158Y-109220000D01*
X172337766Y-109396588D01*
X172286257Y-109566389D01*
X172202611Y-109722879D01*
X172090043Y-109860043D01*
X171952879Y-109972611D01*
X171796389Y-110056257D01*
X171626588Y-110107766D01*
X171494249Y-110120800D01*
X171405751Y-110120800D01*
X171273412Y-110107766D01*
X171103611Y-110056257D01*
X170947121Y-109972611D01*
X170809957Y-109860043D01*
X170697389Y-109722879D01*
X170613743Y-109566389D01*
X170562234Y-109396588D01*
X170544842Y-109220000D01*
X170562234Y-109043412D01*
X170613743Y-108873611D01*
X170697389Y-108717121D01*
X170809957Y-108579957D01*
X170947121Y-108467389D01*
X171103611Y-108383743D01*
X171273412Y-108332234D01*
X171405751Y-108319200D01*
X171494249Y-108319200D01*
X171626588Y-108332234D01*
X171626588Y-108332234D01*
G37*
G36*
X169086588Y-108332234D02*
X169256389Y-108383743D01*
X169412879Y-108467389D01*
X169550043Y-108579957D01*
X169662611Y-108717121D01*
X169746257Y-108873611D01*
X169797766Y-109043412D01*
X169815158Y-109220000D01*
X169797766Y-109396588D01*
X169746257Y-109566389D01*
X169662611Y-109722879D01*
X169550043Y-109860043D01*
X169412879Y-109972611D01*
X169256389Y-110056257D01*
X169086588Y-110107766D01*
X168954249Y-110120800D01*
X168865751Y-110120800D01*
X168733412Y-110107766D01*
X168563611Y-110056257D01*
X168407121Y-109972611D01*
X168269957Y-109860043D01*
X168157389Y-109722879D01*
X168073743Y-109566389D01*
X168022234Y-109396588D01*
X168004842Y-109220000D01*
X168022234Y-109043412D01*
X168073743Y-108873611D01*
X168157389Y-108717121D01*
X168269957Y-108579957D01*
X168407121Y-108467389D01*
X168563611Y-108383743D01*
X168733412Y-108332234D01*
X168865751Y-108319200D01*
X168954249Y-108319200D01*
X169086588Y-108332234D01*
X169086588Y-108332234D01*
G37*
G36*
X141870800Y-109358800D02*
X140069200Y-109358800D01*
X140069200Y-107557200D01*
X141870800Y-107557200D01*
X141870800Y-109358800D01*
X141870800Y-109358800D01*
G37*
G36*
X105458247Y-107038288D02*
X105567586Y-107083578D01*
X105665988Y-107149328D01*
X105749672Y-107233012D01*
X105815422Y-107331414D01*
X105860712Y-107440753D01*
X105883800Y-107556826D01*
X105883800Y-107675174D01*
X105860712Y-107791247D01*
X105815422Y-107900586D01*
X105749672Y-107998988D01*
X105665988Y-108082672D01*
X105567586Y-108148422D01*
X105458247Y-108193712D01*
X105342174Y-108216800D01*
X105223826Y-108216800D01*
X105107753Y-108193712D01*
X104998414Y-108148422D01*
X104900012Y-108082672D01*
X104816328Y-107998988D01*
X104750578Y-107900586D01*
X104705288Y-107791247D01*
X104682200Y-107675174D01*
X104682200Y-107556826D01*
X104705288Y-107440753D01*
X104750578Y-107331414D01*
X104816328Y-107233012D01*
X104900012Y-107149328D01*
X104998414Y-107083578D01*
X105107753Y-107038288D01*
X105223826Y-107015200D01*
X105342174Y-107015200D01*
X105458247Y-107038288D01*
X105458247Y-107038288D01*
G37*
G36*
X169086588Y-105792234D02*
X169256389Y-105843743D01*
X169412879Y-105927389D01*
X169550043Y-106039957D01*
X169662611Y-106177121D01*
X169746257Y-106333611D01*
X169797766Y-106503412D01*
X169815158Y-106680000D01*
X169797766Y-106856588D01*
X169746257Y-107026389D01*
X169662611Y-107182879D01*
X169550043Y-107320043D01*
X169412879Y-107432611D01*
X169256389Y-107516257D01*
X169086588Y-107567766D01*
X168954249Y-107580800D01*
X168865751Y-107580800D01*
X168733412Y-107567766D01*
X168563611Y-107516257D01*
X168407121Y-107432611D01*
X168269957Y-107320043D01*
X168157389Y-107182879D01*
X168073743Y-107026389D01*
X168022234Y-106856588D01*
X168004842Y-106680000D01*
X168022234Y-106503412D01*
X168073743Y-106333611D01*
X168157389Y-106177121D01*
X168269957Y-106039957D01*
X168407121Y-105927389D01*
X168563611Y-105843743D01*
X168733412Y-105792234D01*
X168865751Y-105779200D01*
X168954249Y-105779200D01*
X169086588Y-105792234D01*
X169086588Y-105792234D01*
G37*
G36*
X171626588Y-105792234D02*
X171796389Y-105843743D01*
X171952879Y-105927389D01*
X172090043Y-106039957D01*
X172202611Y-106177121D01*
X172286257Y-106333611D01*
X172337766Y-106503412D01*
X172355158Y-106680000D01*
X172337766Y-106856588D01*
X172286257Y-107026389D01*
X172202611Y-107182879D01*
X172090043Y-107320043D01*
X171952879Y-107432611D01*
X171796389Y-107516257D01*
X171626588Y-107567766D01*
X171494249Y-107580800D01*
X171405751Y-107580800D01*
X171273412Y-107567766D01*
X171103611Y-107516257D01*
X170947121Y-107432611D01*
X170809957Y-107320043D01*
X170697389Y-107182879D01*
X170613743Y-107026389D01*
X170562234Y-106856588D01*
X170544842Y-106680000D01*
X170562234Y-106503412D01*
X170613743Y-106333611D01*
X170697389Y-106177121D01*
X170809957Y-106039957D01*
X170947121Y-105927389D01*
X171103611Y-105843743D01*
X171273412Y-105792234D01*
X171405751Y-105779200D01*
X171494249Y-105779200D01*
X171626588Y-105792234D01*
X171626588Y-105792234D01*
G37*
G36*
X119048588Y-104522234D02*
X119218389Y-104573743D01*
X119374879Y-104657389D01*
X119512043Y-104769957D01*
X119624611Y-104907121D01*
X119708257Y-105063611D01*
X119759766Y-105233412D01*
X119777158Y-105410000D01*
X119759766Y-105586588D01*
X119708257Y-105756389D01*
X119624611Y-105912879D01*
X119512043Y-106050043D01*
X119374879Y-106162611D01*
X119218389Y-106246257D01*
X119048588Y-106297766D01*
X118916249Y-106310800D01*
X118827751Y-106310800D01*
X118695412Y-106297766D01*
X118525611Y-106246257D01*
X118369121Y-106162611D01*
X118231957Y-106050043D01*
X118119389Y-105912879D01*
X118035743Y-105756389D01*
X117984234Y-105586588D01*
X117966842Y-105410000D01*
X117984234Y-105233412D01*
X118035743Y-105063611D01*
X118119389Y-104907121D01*
X118231957Y-104769957D01*
X118369121Y-104657389D01*
X118525611Y-104573743D01*
X118695412Y-104522234D01*
X118827751Y-104509200D01*
X118916249Y-104509200D01*
X119048588Y-104522234D01*
X119048588Y-104522234D01*
G37*
G36*
X121588588Y-104522234D02*
X121758389Y-104573743D01*
X121914879Y-104657389D01*
X122052043Y-104769957D01*
X122164611Y-104907121D01*
X122248257Y-105063611D01*
X122299766Y-105233412D01*
X122317158Y-105410000D01*
X122299766Y-105586588D01*
X122248257Y-105756389D01*
X122164611Y-105912879D01*
X122052043Y-106050043D01*
X121914879Y-106162611D01*
X121758389Y-106246257D01*
X121588588Y-106297766D01*
X121456249Y-106310800D01*
X121367751Y-106310800D01*
X121235412Y-106297766D01*
X121065611Y-106246257D01*
X120909121Y-106162611D01*
X120771957Y-106050043D01*
X120659389Y-105912879D01*
X120575743Y-105756389D01*
X120524234Y-105586588D01*
X120506842Y-105410000D01*
X120524234Y-105233412D01*
X120575743Y-105063611D01*
X120659389Y-104907121D01*
X120771957Y-104769957D01*
X120909121Y-104657389D01*
X121065611Y-104573743D01*
X121235412Y-104522234D01*
X121367751Y-104509200D01*
X121456249Y-104509200D01*
X121588588Y-104522234D01*
X121588588Y-104522234D01*
G37*
G36*
X124128588Y-104522234D02*
X124298389Y-104573743D01*
X124454879Y-104657389D01*
X124592043Y-104769957D01*
X124704611Y-104907121D01*
X124788257Y-105063611D01*
X124839766Y-105233412D01*
X124857158Y-105410000D01*
X124839766Y-105586588D01*
X124788257Y-105756389D01*
X124704611Y-105912879D01*
X124592043Y-106050043D01*
X124454879Y-106162611D01*
X124298389Y-106246257D01*
X124128588Y-106297766D01*
X123996249Y-106310800D01*
X123907751Y-106310800D01*
X123775412Y-106297766D01*
X123605611Y-106246257D01*
X123449121Y-106162611D01*
X123311957Y-106050043D01*
X123199389Y-105912879D01*
X123115743Y-105756389D01*
X123064234Y-105586588D01*
X123046842Y-105410000D01*
X123064234Y-105233412D01*
X123115743Y-105063611D01*
X123199389Y-104907121D01*
X123311957Y-104769957D01*
X123449121Y-104657389D01*
X123605611Y-104573743D01*
X123775412Y-104522234D01*
X123907751Y-104509200D01*
X123996249Y-104509200D01*
X124128588Y-104522234D01*
X124128588Y-104522234D01*
G37*
G36*
X126668588Y-104522234D02*
X126838389Y-104573743D01*
X126994879Y-104657389D01*
X127132043Y-104769957D01*
X127244611Y-104907121D01*
X127328257Y-105063611D01*
X127379766Y-105233412D01*
X127397158Y-105410000D01*
X127379766Y-105586588D01*
X127328257Y-105756389D01*
X127244611Y-105912879D01*
X127132043Y-106050043D01*
X126994879Y-106162611D01*
X126838389Y-106246257D01*
X126668588Y-106297766D01*
X126536249Y-106310800D01*
X126447751Y-106310800D01*
X126315412Y-106297766D01*
X126145611Y-106246257D01*
X125989121Y-106162611D01*
X125851957Y-106050043D01*
X125739389Y-105912879D01*
X125655743Y-105756389D01*
X125604234Y-105586588D01*
X125586842Y-105410000D01*
X125604234Y-105233412D01*
X125655743Y-105063611D01*
X125739389Y-104907121D01*
X125851957Y-104769957D01*
X125989121Y-104657389D01*
X126145611Y-104573743D01*
X126315412Y-104522234D01*
X126447751Y-104509200D01*
X126536249Y-104509200D01*
X126668588Y-104522234D01*
X126668588Y-104522234D01*
G37*
G36*
X129208588Y-104522234D02*
X129378389Y-104573743D01*
X129534879Y-104657389D01*
X129672043Y-104769957D01*
X129784611Y-104907121D01*
X129868257Y-105063611D01*
X129919766Y-105233412D01*
X129937158Y-105410000D01*
X129919766Y-105586588D01*
X129868257Y-105756389D01*
X129784611Y-105912879D01*
X129672043Y-106050043D01*
X129534879Y-106162611D01*
X129378389Y-106246257D01*
X129208588Y-106297766D01*
X129076249Y-106310800D01*
X128987751Y-106310800D01*
X128855412Y-106297766D01*
X128685611Y-106246257D01*
X128529121Y-106162611D01*
X128391957Y-106050043D01*
X128279389Y-105912879D01*
X128195743Y-105756389D01*
X128144234Y-105586588D01*
X128126842Y-105410000D01*
X128144234Y-105233412D01*
X128195743Y-105063611D01*
X128279389Y-104907121D01*
X128391957Y-104769957D01*
X128529121Y-104657389D01*
X128685611Y-104573743D01*
X128855412Y-104522234D01*
X128987751Y-104509200D01*
X129076249Y-104509200D01*
X129208588Y-104522234D01*
X129208588Y-104522234D01*
G37*
G36*
X117232800Y-106310800D02*
X115431200Y-106310800D01*
X115431200Y-104509200D01*
X117232800Y-104509200D01*
X117232800Y-106310800D01*
X117232800Y-106310800D01*
G37*
G36*
X158634800Y-106056800D02*
X156833200Y-106056800D01*
X156833200Y-104255200D01*
X158634800Y-104255200D01*
X158634800Y-106056800D01*
X158634800Y-106056800D01*
G37*
G36*
X155370588Y-104268234D02*
X155540389Y-104319743D01*
X155696879Y-104403389D01*
X155834043Y-104515957D01*
X155946611Y-104653121D01*
X156030257Y-104809611D01*
X156081766Y-104979412D01*
X156099158Y-105156000D01*
X156081766Y-105332588D01*
X156030257Y-105502389D01*
X155946611Y-105658879D01*
X155834043Y-105796043D01*
X155696879Y-105908611D01*
X155540389Y-105992257D01*
X155370588Y-106043766D01*
X155238249Y-106056800D01*
X155149751Y-106056800D01*
X155017412Y-106043766D01*
X154847611Y-105992257D01*
X154691121Y-105908611D01*
X154553957Y-105796043D01*
X154441389Y-105658879D01*
X154357743Y-105502389D01*
X154306234Y-105332588D01*
X154288842Y-105156000D01*
X154306234Y-104979412D01*
X154357743Y-104809611D01*
X154441389Y-104653121D01*
X154553957Y-104515957D01*
X154691121Y-104403389D01*
X154847611Y-104319743D01*
X155017412Y-104268234D01*
X155149751Y-104255200D01*
X155238249Y-104255200D01*
X155370588Y-104268234D01*
X155370588Y-104268234D01*
G37*
G36*
X171626588Y-103252234D02*
X171796389Y-103303743D01*
X171952879Y-103387389D01*
X172090043Y-103499957D01*
X172202611Y-103637121D01*
X172286257Y-103793611D01*
X172337766Y-103963412D01*
X172355158Y-104140000D01*
X172337766Y-104316588D01*
X172286257Y-104486389D01*
X172202611Y-104642879D01*
X172090043Y-104780043D01*
X171952879Y-104892611D01*
X171796389Y-104976257D01*
X171626588Y-105027766D01*
X171494249Y-105040800D01*
X171405751Y-105040800D01*
X171273412Y-105027766D01*
X171103611Y-104976257D01*
X170947121Y-104892611D01*
X170809957Y-104780043D01*
X170697389Y-104642879D01*
X170613743Y-104486389D01*
X170562234Y-104316588D01*
X170544842Y-104140000D01*
X170562234Y-103963412D01*
X170613743Y-103793611D01*
X170697389Y-103637121D01*
X170809957Y-103499957D01*
X170947121Y-103387389D01*
X171103611Y-103303743D01*
X171273412Y-103252234D01*
X171405751Y-103239200D01*
X171494249Y-103239200D01*
X171626588Y-103252234D01*
X171626588Y-103252234D01*
G37*
G36*
X169086588Y-103252234D02*
X169256389Y-103303743D01*
X169412879Y-103387389D01*
X169550043Y-103499957D01*
X169662611Y-103637121D01*
X169746257Y-103793611D01*
X169797766Y-103963412D01*
X169815158Y-104140000D01*
X169797766Y-104316588D01*
X169746257Y-104486389D01*
X169662611Y-104642879D01*
X169550043Y-104780043D01*
X169412879Y-104892611D01*
X169256389Y-104976257D01*
X169086588Y-105027766D01*
X168954249Y-105040800D01*
X168865751Y-105040800D01*
X168733412Y-105027766D01*
X168563611Y-104976257D01*
X168407121Y-104892611D01*
X168269957Y-104780043D01*
X168157389Y-104642879D01*
X168073743Y-104486389D01*
X168022234Y-104316588D01*
X168004842Y-104140000D01*
X168022234Y-103963412D01*
X168073743Y-103793611D01*
X168157389Y-103637121D01*
X168269957Y-103499957D01*
X168407121Y-103387389D01*
X168563611Y-103303743D01*
X168733412Y-103252234D01*
X168865751Y-103239200D01*
X168954249Y-103239200D01*
X169086588Y-103252234D01*
X169086588Y-103252234D01*
G37*
G36*
X171626588Y-100712234D02*
X171796389Y-100763743D01*
X171952879Y-100847389D01*
X172090043Y-100959957D01*
X172202611Y-101097121D01*
X172286257Y-101253611D01*
X172337766Y-101423412D01*
X172355158Y-101600000D01*
X172337766Y-101776588D01*
X172286257Y-101946389D01*
X172202611Y-102102879D01*
X172090043Y-102240043D01*
X171952879Y-102352611D01*
X171796389Y-102436257D01*
X171626588Y-102487766D01*
X171494249Y-102500800D01*
X171405751Y-102500800D01*
X171273412Y-102487766D01*
X171103611Y-102436257D01*
X170947121Y-102352611D01*
X170809957Y-102240043D01*
X170697389Y-102102879D01*
X170613743Y-101946389D01*
X170562234Y-101776588D01*
X170544842Y-101600000D01*
X170562234Y-101423412D01*
X170613743Y-101253611D01*
X170697389Y-101097121D01*
X170809957Y-100959957D01*
X170947121Y-100847389D01*
X171103611Y-100763743D01*
X171273412Y-100712234D01*
X171405751Y-100699200D01*
X171494249Y-100699200D01*
X171626588Y-100712234D01*
X171626588Y-100712234D01*
G37*
G36*
X169086588Y-100712234D02*
X169256389Y-100763743D01*
X169412879Y-100847389D01*
X169550043Y-100959957D01*
X169662611Y-101097121D01*
X169746257Y-101253611D01*
X169797766Y-101423412D01*
X169815158Y-101600000D01*
X169797766Y-101776588D01*
X169746257Y-101946389D01*
X169662611Y-102102879D01*
X169550043Y-102240043D01*
X169412879Y-102352611D01*
X169256389Y-102436257D01*
X169086588Y-102487766D01*
X168954249Y-102500800D01*
X168865751Y-102500800D01*
X168733412Y-102487766D01*
X168563611Y-102436257D01*
X168407121Y-102352611D01*
X168269957Y-102240043D01*
X168157389Y-102102879D01*
X168073743Y-101946389D01*
X168022234Y-101776588D01*
X168004842Y-101600000D01*
X168022234Y-101423412D01*
X168073743Y-101253611D01*
X168157389Y-101097121D01*
X168269957Y-100959957D01*
X168407121Y-100847389D01*
X168563611Y-100763743D01*
X168733412Y-100712234D01*
X168865751Y-100699200D01*
X168954249Y-100699200D01*
X169086588Y-100712234D01*
X169086588Y-100712234D01*
G37*
G36*
X132256588Y-99442234D02*
X132426389Y-99493743D01*
X132582879Y-99577389D01*
X132720043Y-99689957D01*
X132832611Y-99827121D01*
X132916257Y-99983611D01*
X132967766Y-100153412D01*
X132985158Y-100330000D01*
X132967766Y-100506588D01*
X132916257Y-100676389D01*
X132832611Y-100832879D01*
X132720043Y-100970043D01*
X132582879Y-101082611D01*
X132426389Y-101166257D01*
X132256588Y-101217766D01*
X132124249Y-101230800D01*
X132035751Y-101230800D01*
X131903412Y-101217766D01*
X131733611Y-101166257D01*
X131577121Y-101082611D01*
X131439957Y-100970043D01*
X131327389Y-100832879D01*
X131243743Y-100676389D01*
X131192234Y-100506588D01*
X131174842Y-100330000D01*
X131192234Y-100153412D01*
X131243743Y-99983611D01*
X131327389Y-99827121D01*
X131439957Y-99689957D01*
X131577121Y-99577389D01*
X131733611Y-99493743D01*
X131903412Y-99442234D01*
X132035751Y-99429200D01*
X132124249Y-99429200D01*
X132256588Y-99442234D01*
X132256588Y-99442234D01*
G37*
G36*
X119048588Y-99442234D02*
X119218389Y-99493743D01*
X119374879Y-99577389D01*
X119512043Y-99689957D01*
X119624611Y-99827121D01*
X119708257Y-99983611D01*
X119759766Y-100153412D01*
X119777158Y-100330000D01*
X119759766Y-100506588D01*
X119708257Y-100676389D01*
X119624611Y-100832879D01*
X119512043Y-100970043D01*
X119374879Y-101082611D01*
X119218389Y-101166257D01*
X119048588Y-101217766D01*
X118916249Y-101230800D01*
X118827751Y-101230800D01*
X118695412Y-101217766D01*
X118525611Y-101166257D01*
X118369121Y-101082611D01*
X118231957Y-100970043D01*
X118119389Y-100832879D01*
X118035743Y-100676389D01*
X117984234Y-100506588D01*
X117966842Y-100330000D01*
X117984234Y-100153412D01*
X118035743Y-99983611D01*
X118119389Y-99827121D01*
X118231957Y-99689957D01*
X118369121Y-99577389D01*
X118525611Y-99493743D01*
X118695412Y-99442234D01*
X118827751Y-99429200D01*
X118916249Y-99429200D01*
X119048588Y-99442234D01*
X119048588Y-99442234D01*
G37*
G36*
X116508588Y-99442234D02*
X116678389Y-99493743D01*
X116834879Y-99577389D01*
X116972043Y-99689957D01*
X117084611Y-99827121D01*
X117168257Y-99983611D01*
X117219766Y-100153412D01*
X117237158Y-100330000D01*
X117219766Y-100506588D01*
X117168257Y-100676389D01*
X117084611Y-100832879D01*
X116972043Y-100970043D01*
X116834879Y-101082611D01*
X116678389Y-101166257D01*
X116508588Y-101217766D01*
X116376249Y-101230800D01*
X116287751Y-101230800D01*
X116155412Y-101217766D01*
X115985611Y-101166257D01*
X115829121Y-101082611D01*
X115691957Y-100970043D01*
X115579389Y-100832879D01*
X115495743Y-100676389D01*
X115444234Y-100506588D01*
X115426842Y-100330000D01*
X115444234Y-100153412D01*
X115495743Y-99983611D01*
X115579389Y-99827121D01*
X115691957Y-99689957D01*
X115829121Y-99577389D01*
X115985611Y-99493743D01*
X116155412Y-99442234D01*
X116287751Y-99429200D01*
X116376249Y-99429200D01*
X116508588Y-99442234D01*
X116508588Y-99442234D01*
G37*
G36*
X137336588Y-99442234D02*
X137506389Y-99493743D01*
X137662879Y-99577389D01*
X137800043Y-99689957D01*
X137912611Y-99827121D01*
X137996257Y-99983611D01*
X138047766Y-100153412D01*
X138065158Y-100330000D01*
X138047766Y-100506588D01*
X137996257Y-100676389D01*
X137912611Y-100832879D01*
X137800043Y-100970043D01*
X137662879Y-101082611D01*
X137506389Y-101166257D01*
X137336588Y-101217766D01*
X137204249Y-101230800D01*
X137115751Y-101230800D01*
X136983412Y-101217766D01*
X136813611Y-101166257D01*
X136657121Y-101082611D01*
X136519957Y-100970043D01*
X136407389Y-100832879D01*
X136323743Y-100676389D01*
X136272234Y-100506588D01*
X136254842Y-100330000D01*
X136272234Y-100153412D01*
X136323743Y-99983611D01*
X136407389Y-99827121D01*
X136519957Y-99689957D01*
X136657121Y-99577389D01*
X136813611Y-99493743D01*
X136983412Y-99442234D01*
X137115751Y-99429200D01*
X137204249Y-99429200D01*
X137336588Y-99442234D01*
X137336588Y-99442234D01*
G37*
G36*
X129716588Y-99442234D02*
X129886389Y-99493743D01*
X130042879Y-99577389D01*
X130180043Y-99689957D01*
X130292611Y-99827121D01*
X130376257Y-99983611D01*
X130427766Y-100153412D01*
X130445158Y-100330000D01*
X130427766Y-100506588D01*
X130376257Y-100676389D01*
X130292611Y-100832879D01*
X130180043Y-100970043D01*
X130042879Y-101082611D01*
X129886389Y-101166257D01*
X129716588Y-101217766D01*
X129584249Y-101230800D01*
X129495751Y-101230800D01*
X129363412Y-101217766D01*
X129193611Y-101166257D01*
X129037121Y-101082611D01*
X128899957Y-100970043D01*
X128787389Y-100832879D01*
X128703743Y-100676389D01*
X128652234Y-100506588D01*
X128634842Y-100330000D01*
X128652234Y-100153412D01*
X128703743Y-99983611D01*
X128787389Y-99827121D01*
X128899957Y-99689957D01*
X129037121Y-99577389D01*
X129193611Y-99493743D01*
X129363412Y-99442234D01*
X129495751Y-99429200D01*
X129584249Y-99429200D01*
X129716588Y-99442234D01*
X129716588Y-99442234D01*
G37*
G36*
X127176588Y-99442234D02*
X127346389Y-99493743D01*
X127502879Y-99577389D01*
X127640043Y-99689957D01*
X127752611Y-99827121D01*
X127836257Y-99983611D01*
X127887766Y-100153412D01*
X127905158Y-100330000D01*
X127887766Y-100506588D01*
X127836257Y-100676389D01*
X127752611Y-100832879D01*
X127640043Y-100970043D01*
X127502879Y-101082611D01*
X127346389Y-101166257D01*
X127176588Y-101217766D01*
X127044249Y-101230800D01*
X126955751Y-101230800D01*
X126823412Y-101217766D01*
X126653611Y-101166257D01*
X126497121Y-101082611D01*
X126359957Y-100970043D01*
X126247389Y-100832879D01*
X126163743Y-100676389D01*
X126112234Y-100506588D01*
X126094842Y-100330000D01*
X126112234Y-100153412D01*
X126163743Y-99983611D01*
X126247389Y-99827121D01*
X126359957Y-99689957D01*
X126497121Y-99577389D01*
X126653611Y-99493743D01*
X126823412Y-99442234D01*
X126955751Y-99429200D01*
X127044249Y-99429200D01*
X127176588Y-99442234D01*
X127176588Y-99442234D01*
G37*
G36*
X121588588Y-99442234D02*
X121758389Y-99493743D01*
X121914879Y-99577389D01*
X122052043Y-99689957D01*
X122164611Y-99827121D01*
X122248257Y-99983611D01*
X122299766Y-100153412D01*
X122317158Y-100330000D01*
X122299766Y-100506588D01*
X122248257Y-100676389D01*
X122164611Y-100832879D01*
X122052043Y-100970043D01*
X121914879Y-101082611D01*
X121758389Y-101166257D01*
X121588588Y-101217766D01*
X121456249Y-101230800D01*
X121367751Y-101230800D01*
X121235412Y-101217766D01*
X121065611Y-101166257D01*
X120909121Y-101082611D01*
X120771957Y-100970043D01*
X120659389Y-100832879D01*
X120575743Y-100676389D01*
X120524234Y-100506588D01*
X120506842Y-100330000D01*
X120524234Y-100153412D01*
X120575743Y-99983611D01*
X120659389Y-99827121D01*
X120771957Y-99689957D01*
X120909121Y-99577389D01*
X121065611Y-99493743D01*
X121235412Y-99442234D01*
X121367751Y-99429200D01*
X121456249Y-99429200D01*
X121588588Y-99442234D01*
X121588588Y-99442234D01*
G37*
G36*
X134796588Y-99442234D02*
X134966389Y-99493743D01*
X135122879Y-99577389D01*
X135260043Y-99689957D01*
X135372611Y-99827121D01*
X135456257Y-99983611D01*
X135507766Y-100153412D01*
X135525158Y-100330000D01*
X135507766Y-100506588D01*
X135456257Y-100676389D01*
X135372611Y-100832879D01*
X135260043Y-100970043D01*
X135122879Y-101082611D01*
X134966389Y-101166257D01*
X134796588Y-101217766D01*
X134664249Y-101230800D01*
X134575751Y-101230800D01*
X134443412Y-101217766D01*
X134273611Y-101166257D01*
X134117121Y-101082611D01*
X133979957Y-100970043D01*
X133867389Y-100832879D01*
X133783743Y-100676389D01*
X133732234Y-100506588D01*
X133714842Y-100330000D01*
X133732234Y-100153412D01*
X133783743Y-99983611D01*
X133867389Y-99827121D01*
X133979957Y-99689957D01*
X134117121Y-99577389D01*
X134273611Y-99493743D01*
X134443412Y-99442234D01*
X134575751Y-99429200D01*
X134664249Y-99429200D01*
X134796588Y-99442234D01*
X134796588Y-99442234D01*
G37*
G36*
X169086588Y-98172234D02*
X169256389Y-98223743D01*
X169412879Y-98307389D01*
X169550043Y-98419957D01*
X169662611Y-98557121D01*
X169746257Y-98713611D01*
X169797766Y-98883412D01*
X169815158Y-99060000D01*
X169797766Y-99236588D01*
X169746257Y-99406389D01*
X169662611Y-99562879D01*
X169550043Y-99700043D01*
X169412879Y-99812611D01*
X169256389Y-99896257D01*
X169086588Y-99947766D01*
X168954249Y-99960800D01*
X168865751Y-99960800D01*
X168733412Y-99947766D01*
X168563611Y-99896257D01*
X168407121Y-99812611D01*
X168269957Y-99700043D01*
X168157389Y-99562879D01*
X168073743Y-99406389D01*
X168022234Y-99236588D01*
X168004842Y-99060000D01*
X168022234Y-98883412D01*
X168073743Y-98713611D01*
X168157389Y-98557121D01*
X168269957Y-98419957D01*
X168407121Y-98307389D01*
X168563611Y-98223743D01*
X168733412Y-98172234D01*
X168865751Y-98159200D01*
X168954249Y-98159200D01*
X169086588Y-98172234D01*
X169086588Y-98172234D01*
G37*
G36*
X171626588Y-98172234D02*
X171796389Y-98223743D01*
X171952879Y-98307389D01*
X172090043Y-98419957D01*
X172202611Y-98557121D01*
X172286257Y-98713611D01*
X172337766Y-98883412D01*
X172355158Y-99060000D01*
X172337766Y-99236588D01*
X172286257Y-99406389D01*
X172202611Y-99562879D01*
X172090043Y-99700043D01*
X171952879Y-99812611D01*
X171796389Y-99896257D01*
X171626588Y-99947766D01*
X171494249Y-99960800D01*
X171405751Y-99960800D01*
X171273412Y-99947766D01*
X171103611Y-99896257D01*
X170947121Y-99812611D01*
X170809957Y-99700043D01*
X170697389Y-99562879D01*
X170613743Y-99406389D01*
X170562234Y-99236588D01*
X170544842Y-99060000D01*
X170562234Y-98883412D01*
X170613743Y-98713611D01*
X170697389Y-98557121D01*
X170809957Y-98419957D01*
X170947121Y-98307389D01*
X171103611Y-98223743D01*
X171273412Y-98172234D01*
X171405751Y-98159200D01*
X171494249Y-98159200D01*
X171626588Y-98172234D01*
X171626588Y-98172234D01*
G37*
G36*
X127176588Y-96902234D02*
X127346389Y-96953743D01*
X127502879Y-97037389D01*
X127640043Y-97149957D01*
X127752611Y-97287121D01*
X127836257Y-97443611D01*
X127887766Y-97613412D01*
X127905158Y-97790000D01*
X127887766Y-97966588D01*
X127836257Y-98136389D01*
X127752611Y-98292879D01*
X127640043Y-98430043D01*
X127502879Y-98542611D01*
X127346389Y-98626257D01*
X127176588Y-98677766D01*
X127044249Y-98690800D01*
X126955751Y-98690800D01*
X126823412Y-98677766D01*
X126653611Y-98626257D01*
X126497121Y-98542611D01*
X126359957Y-98430043D01*
X126247389Y-98292879D01*
X126163743Y-98136389D01*
X126112234Y-97966588D01*
X126094842Y-97790000D01*
X126112234Y-97613412D01*
X126163743Y-97443611D01*
X126247389Y-97287121D01*
X126359957Y-97149957D01*
X126497121Y-97037389D01*
X126653611Y-96953743D01*
X126823412Y-96902234D01*
X126955751Y-96889200D01*
X127044249Y-96889200D01*
X127176588Y-96902234D01*
X127176588Y-96902234D01*
G37*
G36*
X138060800Y-98690800D02*
X136259200Y-98690800D01*
X136259200Y-96889200D01*
X138060800Y-96889200D01*
X138060800Y-98690800D01*
X138060800Y-98690800D01*
G37*
G36*
X134796588Y-96902234D02*
X134966389Y-96953743D01*
X135122879Y-97037389D01*
X135260043Y-97149957D01*
X135372611Y-97287121D01*
X135456257Y-97443611D01*
X135507766Y-97613412D01*
X135525158Y-97790000D01*
X135507766Y-97966588D01*
X135456257Y-98136389D01*
X135372611Y-98292879D01*
X135260043Y-98430043D01*
X135122879Y-98542611D01*
X134966389Y-98626257D01*
X134796588Y-98677766D01*
X134664249Y-98690800D01*
X134575751Y-98690800D01*
X134443412Y-98677766D01*
X134273611Y-98626257D01*
X134117121Y-98542611D01*
X133979957Y-98430043D01*
X133867389Y-98292879D01*
X133783743Y-98136389D01*
X133732234Y-97966588D01*
X133714842Y-97790000D01*
X133732234Y-97613412D01*
X133783743Y-97443611D01*
X133867389Y-97287121D01*
X133979957Y-97149957D01*
X134117121Y-97037389D01*
X134273611Y-96953743D01*
X134443412Y-96902234D01*
X134575751Y-96889200D01*
X134664249Y-96889200D01*
X134796588Y-96902234D01*
X134796588Y-96902234D01*
G37*
G36*
X132256588Y-96902234D02*
X132426389Y-96953743D01*
X132582879Y-97037389D01*
X132720043Y-97149957D01*
X132832611Y-97287121D01*
X132916257Y-97443611D01*
X132967766Y-97613412D01*
X132985158Y-97790000D01*
X132967766Y-97966588D01*
X132916257Y-98136389D01*
X132832611Y-98292879D01*
X132720043Y-98430043D01*
X132582879Y-98542611D01*
X132426389Y-98626257D01*
X132256588Y-98677766D01*
X132124249Y-98690800D01*
X132035751Y-98690800D01*
X131903412Y-98677766D01*
X131733611Y-98626257D01*
X131577121Y-98542611D01*
X131439957Y-98430043D01*
X131327389Y-98292879D01*
X131243743Y-98136389D01*
X131192234Y-97966588D01*
X131174842Y-97790000D01*
X131192234Y-97613412D01*
X131243743Y-97443611D01*
X131327389Y-97287121D01*
X131439957Y-97149957D01*
X131577121Y-97037389D01*
X131733611Y-96953743D01*
X131903412Y-96902234D01*
X132035751Y-96889200D01*
X132124249Y-96889200D01*
X132256588Y-96902234D01*
X132256588Y-96902234D01*
G37*
G36*
X129716588Y-96902234D02*
X129886389Y-96953743D01*
X130042879Y-97037389D01*
X130180043Y-97149957D01*
X130292611Y-97287121D01*
X130376257Y-97443611D01*
X130427766Y-97613412D01*
X130445158Y-97790000D01*
X130427766Y-97966588D01*
X130376257Y-98136389D01*
X130292611Y-98292879D01*
X130180043Y-98430043D01*
X130042879Y-98542611D01*
X129886389Y-98626257D01*
X129716588Y-98677766D01*
X129584249Y-98690800D01*
X129495751Y-98690800D01*
X129363412Y-98677766D01*
X129193611Y-98626257D01*
X129037121Y-98542611D01*
X128899957Y-98430043D01*
X128787389Y-98292879D01*
X128703743Y-98136389D01*
X128652234Y-97966588D01*
X128634842Y-97790000D01*
X128652234Y-97613412D01*
X128703743Y-97443611D01*
X128787389Y-97287121D01*
X128899957Y-97149957D01*
X129037121Y-97037389D01*
X129193611Y-96953743D01*
X129363412Y-96902234D01*
X129495751Y-96889200D01*
X129584249Y-96889200D01*
X129716588Y-96902234D01*
X129716588Y-96902234D01*
G37*
G36*
X116508588Y-96902234D02*
X116678389Y-96953743D01*
X116834879Y-97037389D01*
X116972043Y-97149957D01*
X117084611Y-97287121D01*
X117168257Y-97443611D01*
X117219766Y-97613412D01*
X117237158Y-97790000D01*
X117219766Y-97966588D01*
X117168257Y-98136389D01*
X117084611Y-98292879D01*
X116972043Y-98430043D01*
X116834879Y-98542611D01*
X116678389Y-98626257D01*
X116508588Y-98677766D01*
X116376249Y-98690800D01*
X116287751Y-98690800D01*
X116155412Y-98677766D01*
X115985611Y-98626257D01*
X115829121Y-98542611D01*
X115691957Y-98430043D01*
X115579389Y-98292879D01*
X115495743Y-98136389D01*
X115444234Y-97966588D01*
X115426842Y-97790000D01*
X115444234Y-97613412D01*
X115495743Y-97443611D01*
X115579389Y-97287121D01*
X115691957Y-97149957D01*
X115829121Y-97037389D01*
X115985611Y-96953743D01*
X116155412Y-96902234D01*
X116287751Y-96889200D01*
X116376249Y-96889200D01*
X116508588Y-96902234D01*
X116508588Y-96902234D01*
G37*
G36*
X119048588Y-96902234D02*
X119218389Y-96953743D01*
X119374879Y-97037389D01*
X119512043Y-97149957D01*
X119624611Y-97287121D01*
X119708257Y-97443611D01*
X119759766Y-97613412D01*
X119777158Y-97790000D01*
X119759766Y-97966588D01*
X119708257Y-98136389D01*
X119624611Y-98292879D01*
X119512043Y-98430043D01*
X119374879Y-98542611D01*
X119218389Y-98626257D01*
X119048588Y-98677766D01*
X118916249Y-98690800D01*
X118827751Y-98690800D01*
X118695412Y-98677766D01*
X118525611Y-98626257D01*
X118369121Y-98542611D01*
X118231957Y-98430043D01*
X118119389Y-98292879D01*
X118035743Y-98136389D01*
X117984234Y-97966588D01*
X117966842Y-97790000D01*
X117984234Y-97613412D01*
X118035743Y-97443611D01*
X118119389Y-97287121D01*
X118231957Y-97149957D01*
X118369121Y-97037389D01*
X118525611Y-96953743D01*
X118695412Y-96902234D01*
X118827751Y-96889200D01*
X118916249Y-96889200D01*
X119048588Y-96902234D01*
X119048588Y-96902234D01*
G37*
G36*
X122312800Y-98690800D02*
X120511200Y-98690800D01*
X120511200Y-96889200D01*
X122312800Y-96889200D01*
X122312800Y-98690800D01*
X122312800Y-98690800D01*
G37*
G36*
X105458247Y-97038288D02*
X105567586Y-97083578D01*
X105665988Y-97149328D01*
X105749672Y-97233012D01*
X105815422Y-97331414D01*
X105860712Y-97440753D01*
X105883800Y-97556826D01*
X105883800Y-97675174D01*
X105860712Y-97791247D01*
X105815422Y-97900586D01*
X105749672Y-97998988D01*
X105665988Y-98082672D01*
X105567586Y-98148422D01*
X105458247Y-98193712D01*
X105342174Y-98216800D01*
X105223826Y-98216800D01*
X105107753Y-98193712D01*
X104998414Y-98148422D01*
X104900012Y-98082672D01*
X104816328Y-97998988D01*
X104750578Y-97900586D01*
X104705288Y-97791247D01*
X104682200Y-97675174D01*
X104682200Y-97556826D01*
X104705288Y-97440753D01*
X104750578Y-97331414D01*
X104816328Y-97233012D01*
X104900012Y-97149328D01*
X104998414Y-97083578D01*
X105107753Y-97038288D01*
X105223826Y-97015200D01*
X105342174Y-97015200D01*
X105458247Y-97038288D01*
X105458247Y-97038288D01*
G37*
G36*
X171626588Y-95632234D02*
X171796389Y-95683743D01*
X171952879Y-95767389D01*
X172090043Y-95879957D01*
X172202611Y-96017121D01*
X172286257Y-96173611D01*
X172337766Y-96343412D01*
X172355158Y-96520000D01*
X172337766Y-96696588D01*
X172286257Y-96866389D01*
X172202611Y-97022879D01*
X172090043Y-97160043D01*
X171952879Y-97272611D01*
X171796389Y-97356257D01*
X171626588Y-97407766D01*
X171494249Y-97420800D01*
X171405751Y-97420800D01*
X171273412Y-97407766D01*
X171103611Y-97356257D01*
X170947121Y-97272611D01*
X170809957Y-97160043D01*
X170697389Y-97022879D01*
X170613743Y-96866389D01*
X170562234Y-96696588D01*
X170544842Y-96520000D01*
X170562234Y-96343412D01*
X170613743Y-96173611D01*
X170697389Y-96017121D01*
X170809957Y-95879957D01*
X170947121Y-95767389D01*
X171103611Y-95683743D01*
X171273412Y-95632234D01*
X171405751Y-95619200D01*
X171494249Y-95619200D01*
X171626588Y-95632234D01*
X171626588Y-95632234D01*
G37*
G36*
X169086588Y-95632234D02*
X169256389Y-95683743D01*
X169412879Y-95767389D01*
X169550043Y-95879957D01*
X169662611Y-96017121D01*
X169746257Y-96173611D01*
X169797766Y-96343412D01*
X169815158Y-96520000D01*
X169797766Y-96696588D01*
X169746257Y-96866389D01*
X169662611Y-97022879D01*
X169550043Y-97160043D01*
X169412879Y-97272611D01*
X169256389Y-97356257D01*
X169086588Y-97407766D01*
X168954249Y-97420800D01*
X168865751Y-97420800D01*
X168733412Y-97407766D01*
X168563611Y-97356257D01*
X168407121Y-97272611D01*
X168269957Y-97160043D01*
X168157389Y-97022879D01*
X168073743Y-96866389D01*
X168022234Y-96696588D01*
X168004842Y-96520000D01*
X168022234Y-96343412D01*
X168073743Y-96173611D01*
X168157389Y-96017121D01*
X168269957Y-95879957D01*
X168407121Y-95767389D01*
X168563611Y-95683743D01*
X168733412Y-95632234D01*
X168865751Y-95619200D01*
X168954249Y-95619200D01*
X169086588Y-95632234D01*
X169086588Y-95632234D01*
G37*
G36*
X159180588Y-93727234D02*
X159350389Y-93778743D01*
X159506879Y-93862389D01*
X159644043Y-93974957D01*
X159756611Y-94112121D01*
X159840257Y-94268611D01*
X159891766Y-94438412D01*
X159909158Y-94615000D01*
X159891766Y-94791588D01*
X159840257Y-94961389D01*
X159756611Y-95117879D01*
X159644043Y-95255043D01*
X159506879Y-95367611D01*
X159350389Y-95451257D01*
X159180588Y-95502766D01*
X159048249Y-95515800D01*
X158959751Y-95515800D01*
X158827412Y-95502766D01*
X158657611Y-95451257D01*
X158501121Y-95367611D01*
X158363957Y-95255043D01*
X158251389Y-95117879D01*
X158167743Y-94961389D01*
X158116234Y-94791588D01*
X158098842Y-94615000D01*
X158116234Y-94438412D01*
X158167743Y-94268611D01*
X158251389Y-94112121D01*
X158363957Y-93974957D01*
X158501121Y-93862389D01*
X158657611Y-93778743D01*
X158827412Y-93727234D01*
X158959751Y-93714200D01*
X159048249Y-93714200D01*
X159180588Y-93727234D01*
X159180588Y-93727234D01*
G37*
G36*
X161720588Y-93727234D02*
X161890389Y-93778743D01*
X162046879Y-93862389D01*
X162184043Y-93974957D01*
X162296611Y-94112121D01*
X162380257Y-94268611D01*
X162431766Y-94438412D01*
X162449158Y-94615000D01*
X162431766Y-94791588D01*
X162380257Y-94961389D01*
X162296611Y-95117879D01*
X162184043Y-95255043D01*
X162046879Y-95367611D01*
X161890389Y-95451257D01*
X161720588Y-95502766D01*
X161588249Y-95515800D01*
X161499751Y-95515800D01*
X161367412Y-95502766D01*
X161197611Y-95451257D01*
X161041121Y-95367611D01*
X160903957Y-95255043D01*
X160791389Y-95117879D01*
X160707743Y-94961389D01*
X160656234Y-94791588D01*
X160638842Y-94615000D01*
X160656234Y-94438412D01*
X160707743Y-94268611D01*
X160791389Y-94112121D01*
X160903957Y-93974957D01*
X161041121Y-93862389D01*
X161197611Y-93778743D01*
X161367412Y-93727234D01*
X161499751Y-93714200D01*
X161588249Y-93714200D01*
X161720588Y-93727234D01*
X161720588Y-93727234D01*
G37*
G36*
X164984800Y-95515800D02*
X163183200Y-95515800D01*
X163183200Y-93714200D01*
X164984800Y-93714200D01*
X164984800Y-95515800D01*
X164984800Y-95515800D01*
G37*
G36*
X169086588Y-93092234D02*
X169256389Y-93143743D01*
X169412879Y-93227389D01*
X169550043Y-93339957D01*
X169662611Y-93477121D01*
X169746257Y-93633611D01*
X169797766Y-93803412D01*
X169815158Y-93980000D01*
X169797766Y-94156588D01*
X169746257Y-94326389D01*
X169662611Y-94482879D01*
X169550043Y-94620043D01*
X169412879Y-94732611D01*
X169256389Y-94816257D01*
X169086588Y-94867766D01*
X168954249Y-94880800D01*
X168865751Y-94880800D01*
X168733412Y-94867766D01*
X168563611Y-94816257D01*
X168407121Y-94732611D01*
X168269957Y-94620043D01*
X168157389Y-94482879D01*
X168073743Y-94326389D01*
X168022234Y-94156588D01*
X168004842Y-93980000D01*
X168022234Y-93803412D01*
X168073743Y-93633611D01*
X168157389Y-93477121D01*
X168269957Y-93339957D01*
X168407121Y-93227389D01*
X168563611Y-93143743D01*
X168733412Y-93092234D01*
X168865751Y-93079200D01*
X168954249Y-93079200D01*
X169086588Y-93092234D01*
X169086588Y-93092234D01*
G37*
G36*
X171626588Y-93092234D02*
X171796389Y-93143743D01*
X171952879Y-93227389D01*
X172090043Y-93339957D01*
X172202611Y-93477121D01*
X172286257Y-93633611D01*
X172337766Y-93803412D01*
X172355158Y-93980000D01*
X172337766Y-94156588D01*
X172286257Y-94326389D01*
X172202611Y-94482879D01*
X172090043Y-94620043D01*
X171952879Y-94732611D01*
X171796389Y-94816257D01*
X171626588Y-94867766D01*
X171494249Y-94880800D01*
X171405751Y-94880800D01*
X171273412Y-94867766D01*
X171103611Y-94816257D01*
X170947121Y-94732611D01*
X170809957Y-94620043D01*
X170697389Y-94482879D01*
X170613743Y-94326389D01*
X170562234Y-94156588D01*
X170544842Y-93980000D01*
X170562234Y-93803412D01*
X170613743Y-93633611D01*
X170697389Y-93477121D01*
X170809957Y-93339957D01*
X170947121Y-93227389D01*
X171103611Y-93143743D01*
X171273412Y-93092234D01*
X171405751Y-93079200D01*
X171494249Y-93079200D01*
X171626588Y-93092234D01*
X171626588Y-93092234D01*
G37*
G36*
X169086588Y-90552234D02*
X169256389Y-90603743D01*
X169412879Y-90687389D01*
X169550043Y-90799957D01*
X169662611Y-90937121D01*
X169746257Y-91093611D01*
X169797766Y-91263412D01*
X169815158Y-91440000D01*
X169797766Y-91616588D01*
X169746257Y-91786389D01*
X169662611Y-91942879D01*
X169550043Y-92080043D01*
X169412879Y-92192611D01*
X169256389Y-92276257D01*
X169086588Y-92327766D01*
X168954249Y-92340800D01*
X168865751Y-92340800D01*
X168733412Y-92327766D01*
X168563611Y-92276257D01*
X168407121Y-92192611D01*
X168269957Y-92080043D01*
X168157389Y-91942879D01*
X168073743Y-91786389D01*
X168022234Y-91616588D01*
X168004842Y-91440000D01*
X168022234Y-91263412D01*
X168073743Y-91093611D01*
X168157389Y-90937121D01*
X168269957Y-90799957D01*
X168407121Y-90687389D01*
X168563611Y-90603743D01*
X168733412Y-90552234D01*
X168865751Y-90539200D01*
X168954249Y-90539200D01*
X169086588Y-90552234D01*
X169086588Y-90552234D01*
G37*
G36*
X171626588Y-90552234D02*
X171796389Y-90603743D01*
X171952879Y-90687389D01*
X172090043Y-90799957D01*
X172202611Y-90937121D01*
X172286257Y-91093611D01*
X172337766Y-91263412D01*
X172355158Y-91440000D01*
X172337766Y-91616588D01*
X172286257Y-91786389D01*
X172202611Y-91942879D01*
X172090043Y-92080043D01*
X171952879Y-92192611D01*
X171796389Y-92276257D01*
X171626588Y-92327766D01*
X171494249Y-92340800D01*
X171405751Y-92340800D01*
X171273412Y-92327766D01*
X171103611Y-92276257D01*
X170947121Y-92192611D01*
X170809957Y-92080043D01*
X170697389Y-91942879D01*
X170613743Y-91786389D01*
X170562234Y-91616588D01*
X170544842Y-91440000D01*
X170562234Y-91263412D01*
X170613743Y-91093611D01*
X170697389Y-90937121D01*
X170809957Y-90799957D01*
X170947121Y-90687389D01*
X171103611Y-90603743D01*
X171273412Y-90552234D01*
X171405751Y-90539200D01*
X171494249Y-90539200D01*
X171626588Y-90552234D01*
X171626588Y-90552234D01*
G37*
G36*
X118502800Y-91578800D02*
X116701200Y-91578800D01*
X116701200Y-89777200D01*
X118502800Y-89777200D01*
X118502800Y-91578800D01*
X118502800Y-91578800D01*
G37*
G36*
X164984800Y-91578800D02*
X163183200Y-91578800D01*
X163183200Y-89777200D01*
X164984800Y-89777200D01*
X164984800Y-91578800D01*
X164984800Y-91578800D01*
G37*
G36*
X161720588Y-89790234D02*
X161890389Y-89841743D01*
X162046879Y-89925389D01*
X162184043Y-90037957D01*
X162296611Y-90175121D01*
X162380257Y-90331611D01*
X162431766Y-90501412D01*
X162449158Y-90678000D01*
X162431766Y-90854588D01*
X162380257Y-91024389D01*
X162296611Y-91180879D01*
X162184043Y-91318043D01*
X162046879Y-91430611D01*
X161890389Y-91514257D01*
X161720588Y-91565766D01*
X161588249Y-91578800D01*
X161499751Y-91578800D01*
X161367412Y-91565766D01*
X161197611Y-91514257D01*
X161041121Y-91430611D01*
X160903957Y-91318043D01*
X160791389Y-91180879D01*
X160707743Y-91024389D01*
X160656234Y-90854588D01*
X160638842Y-90678000D01*
X160656234Y-90501412D01*
X160707743Y-90331611D01*
X160791389Y-90175121D01*
X160903957Y-90037957D01*
X161041121Y-89925389D01*
X161197611Y-89841743D01*
X161367412Y-89790234D01*
X161499751Y-89777200D01*
X161588249Y-89777200D01*
X161720588Y-89790234D01*
X161720588Y-89790234D01*
G37*
G36*
X159180588Y-89790234D02*
X159350389Y-89841743D01*
X159506879Y-89925389D01*
X159644043Y-90037957D01*
X159756611Y-90175121D01*
X159840257Y-90331611D01*
X159891766Y-90501412D01*
X159909158Y-90678000D01*
X159891766Y-90854588D01*
X159840257Y-91024389D01*
X159756611Y-91180879D01*
X159644043Y-91318043D01*
X159506879Y-91430611D01*
X159350389Y-91514257D01*
X159180588Y-91565766D01*
X159048249Y-91578800D01*
X158959751Y-91578800D01*
X158827412Y-91565766D01*
X158657611Y-91514257D01*
X158501121Y-91430611D01*
X158363957Y-91318043D01*
X158251389Y-91180879D01*
X158167743Y-91024389D01*
X158116234Y-90854588D01*
X158098842Y-90678000D01*
X158116234Y-90501412D01*
X158167743Y-90331611D01*
X158251389Y-90175121D01*
X158363957Y-90037957D01*
X158501121Y-89925389D01*
X158657611Y-89841743D01*
X158827412Y-89790234D01*
X158959751Y-89777200D01*
X159048249Y-89777200D01*
X159180588Y-89790234D01*
X159180588Y-89790234D01*
G37*
G36*
X99998588Y-89790234D02*
X100168389Y-89841743D01*
X100324879Y-89925389D01*
X100462043Y-90037957D01*
X100574611Y-90175121D01*
X100658257Y-90331611D01*
X100709766Y-90501412D01*
X100727158Y-90678000D01*
X100709766Y-90854588D01*
X100658257Y-91024389D01*
X100574611Y-91180879D01*
X100462043Y-91318043D01*
X100324879Y-91430611D01*
X100168389Y-91514257D01*
X99998588Y-91565766D01*
X99866249Y-91578800D01*
X99777751Y-91578800D01*
X99645412Y-91565766D01*
X99475611Y-91514257D01*
X99319121Y-91430611D01*
X99181957Y-91318043D01*
X99069389Y-91180879D01*
X98985743Y-91024389D01*
X98934234Y-90854588D01*
X98916842Y-90678000D01*
X98934234Y-90501412D01*
X98985743Y-90331611D01*
X99069389Y-90175121D01*
X99181957Y-90037957D01*
X99319121Y-89925389D01*
X99475611Y-89841743D01*
X99645412Y-89790234D01*
X99777751Y-89777200D01*
X99866249Y-89777200D01*
X99998588Y-89790234D01*
X99998588Y-89790234D01*
G37*
G36*
X146480588Y-89790234D02*
X146650389Y-89841743D01*
X146806879Y-89925389D01*
X146944043Y-90037957D01*
X147056611Y-90175121D01*
X147140257Y-90331611D01*
X147191766Y-90501412D01*
X147209158Y-90678000D01*
X147191766Y-90854588D01*
X147140257Y-91024389D01*
X147056611Y-91180879D01*
X146944043Y-91318043D01*
X146806879Y-91430611D01*
X146650389Y-91514257D01*
X146480588Y-91565766D01*
X146348249Y-91578800D01*
X146259751Y-91578800D01*
X146127412Y-91565766D01*
X145957611Y-91514257D01*
X145801121Y-91430611D01*
X145663957Y-91318043D01*
X145551389Y-91180879D01*
X145467743Y-91024389D01*
X145416234Y-90854588D01*
X145398842Y-90678000D01*
X145416234Y-90501412D01*
X145467743Y-90331611D01*
X145551389Y-90175121D01*
X145663957Y-90037957D01*
X145801121Y-89925389D01*
X145957611Y-89841743D01*
X146127412Y-89790234D01*
X146259751Y-89777200D01*
X146348249Y-89777200D01*
X146480588Y-89790234D01*
X146480588Y-89790234D01*
G37*
G36*
X143940588Y-89790234D02*
X144110389Y-89841743D01*
X144266879Y-89925389D01*
X144404043Y-90037957D01*
X144516611Y-90175121D01*
X144600257Y-90331611D01*
X144651766Y-90501412D01*
X144669158Y-90678000D01*
X144651766Y-90854588D01*
X144600257Y-91024389D01*
X144516611Y-91180879D01*
X144404043Y-91318043D01*
X144266879Y-91430611D01*
X144110389Y-91514257D01*
X143940588Y-91565766D01*
X143808249Y-91578800D01*
X143719751Y-91578800D01*
X143587412Y-91565766D01*
X143417611Y-91514257D01*
X143261121Y-91430611D01*
X143123957Y-91318043D01*
X143011389Y-91180879D01*
X142927743Y-91024389D01*
X142876234Y-90854588D01*
X142858842Y-90678000D01*
X142876234Y-90501412D01*
X142927743Y-90331611D01*
X143011389Y-90175121D01*
X143123957Y-90037957D01*
X143261121Y-89925389D01*
X143417611Y-89841743D01*
X143587412Y-89790234D01*
X143719751Y-89777200D01*
X143808249Y-89777200D01*
X143940588Y-89790234D01*
X143940588Y-89790234D01*
G37*
G36*
X141400588Y-89790234D02*
X141570389Y-89841743D01*
X141726879Y-89925389D01*
X141864043Y-90037957D01*
X141976611Y-90175121D01*
X142060257Y-90331611D01*
X142111766Y-90501412D01*
X142129158Y-90678000D01*
X142111766Y-90854588D01*
X142060257Y-91024389D01*
X141976611Y-91180879D01*
X141864043Y-91318043D01*
X141726879Y-91430611D01*
X141570389Y-91514257D01*
X141400588Y-91565766D01*
X141268249Y-91578800D01*
X141179751Y-91578800D01*
X141047412Y-91565766D01*
X140877611Y-91514257D01*
X140721121Y-91430611D01*
X140583957Y-91318043D01*
X140471389Y-91180879D01*
X140387743Y-91024389D01*
X140336234Y-90854588D01*
X140318842Y-90678000D01*
X140336234Y-90501412D01*
X140387743Y-90331611D01*
X140471389Y-90175121D01*
X140583957Y-90037957D01*
X140721121Y-89925389D01*
X140877611Y-89841743D01*
X141047412Y-89790234D01*
X141179751Y-89777200D01*
X141268249Y-89777200D01*
X141400588Y-89790234D01*
X141400588Y-89790234D01*
G37*
G36*
X138860588Y-89790234D02*
X139030389Y-89841743D01*
X139186879Y-89925389D01*
X139324043Y-90037957D01*
X139436611Y-90175121D01*
X139520257Y-90331611D01*
X139571766Y-90501412D01*
X139589158Y-90678000D01*
X139571766Y-90854588D01*
X139520257Y-91024389D01*
X139436611Y-91180879D01*
X139324043Y-91318043D01*
X139186879Y-91430611D01*
X139030389Y-91514257D01*
X138860588Y-91565766D01*
X138728249Y-91578800D01*
X138639751Y-91578800D01*
X138507412Y-91565766D01*
X138337611Y-91514257D01*
X138181121Y-91430611D01*
X138043957Y-91318043D01*
X137931389Y-91180879D01*
X137847743Y-91024389D01*
X137796234Y-90854588D01*
X137778842Y-90678000D01*
X137796234Y-90501412D01*
X137847743Y-90331611D01*
X137931389Y-90175121D01*
X138043957Y-90037957D01*
X138181121Y-89925389D01*
X138337611Y-89841743D01*
X138507412Y-89790234D01*
X138639751Y-89777200D01*
X138728249Y-89777200D01*
X138860588Y-89790234D01*
X138860588Y-89790234D01*
G37*
G36*
X134504800Y-91578800D02*
X132703200Y-91578800D01*
X132703200Y-89777200D01*
X134504800Y-89777200D01*
X134504800Y-91578800D01*
X134504800Y-91578800D01*
G37*
G36*
X136320588Y-89790234D02*
X136490389Y-89841743D01*
X136646879Y-89925389D01*
X136784043Y-90037957D01*
X136896611Y-90175121D01*
X136980257Y-90331611D01*
X137031766Y-90501412D01*
X137049158Y-90678000D01*
X137031766Y-90854588D01*
X136980257Y-91024389D01*
X136896611Y-91180879D01*
X136784043Y-91318043D01*
X136646879Y-91430611D01*
X136490389Y-91514257D01*
X136320588Y-91565766D01*
X136188249Y-91578800D01*
X136099751Y-91578800D01*
X135967412Y-91565766D01*
X135797611Y-91514257D01*
X135641121Y-91430611D01*
X135503957Y-91318043D01*
X135391389Y-91180879D01*
X135307743Y-91024389D01*
X135256234Y-90854588D01*
X135238842Y-90678000D01*
X135256234Y-90501412D01*
X135307743Y-90331611D01*
X135391389Y-90175121D01*
X135503957Y-90037957D01*
X135641121Y-89925389D01*
X135797611Y-89841743D01*
X135967412Y-89790234D01*
X136099751Y-89777200D01*
X136188249Y-89777200D01*
X136320588Y-89790234D01*
X136320588Y-89790234D01*
G37*
G36*
X152830588Y-89790234D02*
X153000389Y-89841743D01*
X153156879Y-89925389D01*
X153294043Y-90037957D01*
X153406611Y-90175121D01*
X153490257Y-90331611D01*
X153541766Y-90501412D01*
X153559158Y-90678000D01*
X153541766Y-90854588D01*
X153490257Y-91024389D01*
X153406611Y-91180879D01*
X153294043Y-91318043D01*
X153156879Y-91430611D01*
X153000389Y-91514257D01*
X152830588Y-91565766D01*
X152698249Y-91578800D01*
X152609751Y-91578800D01*
X152477412Y-91565766D01*
X152307611Y-91514257D01*
X152151121Y-91430611D01*
X152013957Y-91318043D01*
X151901389Y-91180879D01*
X151817743Y-91024389D01*
X151766234Y-90854588D01*
X151748842Y-90678000D01*
X151766234Y-90501412D01*
X151817743Y-90331611D01*
X151901389Y-90175121D01*
X152013957Y-90037957D01*
X152151121Y-89925389D01*
X152307611Y-89841743D01*
X152477412Y-89790234D01*
X152609751Y-89777200D01*
X152698249Y-89777200D01*
X152830588Y-89790234D01*
X152830588Y-89790234D01*
G37*
G36*
X155370588Y-89790234D02*
X155540389Y-89841743D01*
X155696879Y-89925389D01*
X155834043Y-90037957D01*
X155946611Y-90175121D01*
X156030257Y-90331611D01*
X156081766Y-90501412D01*
X156099158Y-90678000D01*
X156081766Y-90854588D01*
X156030257Y-91024389D01*
X155946611Y-91180879D01*
X155834043Y-91318043D01*
X155696879Y-91430611D01*
X155540389Y-91514257D01*
X155370588Y-91565766D01*
X155238249Y-91578800D01*
X155149751Y-91578800D01*
X155017412Y-91565766D01*
X154847611Y-91514257D01*
X154691121Y-91430611D01*
X154553957Y-91318043D01*
X154441389Y-91180879D01*
X154357743Y-91024389D01*
X154306234Y-90854588D01*
X154288842Y-90678000D01*
X154306234Y-90501412D01*
X154357743Y-90331611D01*
X154441389Y-90175121D01*
X154553957Y-90037957D01*
X154691121Y-89925389D01*
X154847611Y-89841743D01*
X155017412Y-89790234D01*
X155149751Y-89777200D01*
X155238249Y-89777200D01*
X155370588Y-89790234D01*
X155370588Y-89790234D01*
G37*
G36*
X107618588Y-89790234D02*
X107788389Y-89841743D01*
X107944879Y-89925389D01*
X108082043Y-90037957D01*
X108194611Y-90175121D01*
X108278257Y-90331611D01*
X108329766Y-90501412D01*
X108347158Y-90678000D01*
X108329766Y-90854588D01*
X108278257Y-91024389D01*
X108194611Y-91180879D01*
X108082043Y-91318043D01*
X107944879Y-91430611D01*
X107788389Y-91514257D01*
X107618588Y-91565766D01*
X107486249Y-91578800D01*
X107397751Y-91578800D01*
X107265412Y-91565766D01*
X107095611Y-91514257D01*
X106939121Y-91430611D01*
X106801957Y-91318043D01*
X106689389Y-91180879D01*
X106605743Y-91024389D01*
X106554234Y-90854588D01*
X106536842Y-90678000D01*
X106554234Y-90501412D01*
X106605743Y-90331611D01*
X106689389Y-90175121D01*
X106801957Y-90037957D01*
X106939121Y-89925389D01*
X107095611Y-89841743D01*
X107265412Y-89790234D01*
X107397751Y-89777200D01*
X107486249Y-89777200D01*
X107618588Y-89790234D01*
X107618588Y-89790234D01*
G37*
G36*
X115238588Y-89790234D02*
X115408389Y-89841743D01*
X115564879Y-89925389D01*
X115702043Y-90037957D01*
X115814611Y-90175121D01*
X115898257Y-90331611D01*
X115949766Y-90501412D01*
X115967158Y-90678000D01*
X115949766Y-90854588D01*
X115898257Y-91024389D01*
X115814611Y-91180879D01*
X115702043Y-91318043D01*
X115564879Y-91430611D01*
X115408389Y-91514257D01*
X115238588Y-91565766D01*
X115106249Y-91578800D01*
X115017751Y-91578800D01*
X114885412Y-91565766D01*
X114715611Y-91514257D01*
X114559121Y-91430611D01*
X114421957Y-91318043D01*
X114309389Y-91180879D01*
X114225743Y-91024389D01*
X114174234Y-90854588D01*
X114156842Y-90678000D01*
X114174234Y-90501412D01*
X114225743Y-90331611D01*
X114309389Y-90175121D01*
X114421957Y-90037957D01*
X114559121Y-89925389D01*
X114715611Y-89841743D01*
X114885412Y-89790234D01*
X115017751Y-89777200D01*
X115106249Y-89777200D01*
X115238588Y-89790234D01*
X115238588Y-89790234D01*
G37*
G36*
X112698588Y-89790234D02*
X112868389Y-89841743D01*
X113024879Y-89925389D01*
X113162043Y-90037957D01*
X113274611Y-90175121D01*
X113358257Y-90331611D01*
X113409766Y-90501412D01*
X113427158Y-90678000D01*
X113409766Y-90854588D01*
X113358257Y-91024389D01*
X113274611Y-91180879D01*
X113162043Y-91318043D01*
X113024879Y-91430611D01*
X112868389Y-91514257D01*
X112698588Y-91565766D01*
X112566249Y-91578800D01*
X112477751Y-91578800D01*
X112345412Y-91565766D01*
X112175611Y-91514257D01*
X112019121Y-91430611D01*
X111881957Y-91318043D01*
X111769389Y-91180879D01*
X111685743Y-91024389D01*
X111634234Y-90854588D01*
X111616842Y-90678000D01*
X111634234Y-90501412D01*
X111685743Y-90331611D01*
X111769389Y-90175121D01*
X111881957Y-90037957D01*
X112019121Y-89925389D01*
X112175611Y-89841743D01*
X112345412Y-89790234D01*
X112477751Y-89777200D01*
X112566249Y-89777200D01*
X112698588Y-89790234D01*
X112698588Y-89790234D01*
G37*
G36*
X105078588Y-89790234D02*
X105248389Y-89841743D01*
X105404879Y-89925389D01*
X105542043Y-90037957D01*
X105654611Y-90175121D01*
X105738257Y-90331611D01*
X105789766Y-90501412D01*
X105807158Y-90678000D01*
X105789766Y-90854588D01*
X105738257Y-91024389D01*
X105654611Y-91180879D01*
X105542043Y-91318043D01*
X105404879Y-91430611D01*
X105248389Y-91514257D01*
X105078588Y-91565766D01*
X104946249Y-91578800D01*
X104857751Y-91578800D01*
X104725412Y-91565766D01*
X104555611Y-91514257D01*
X104399121Y-91430611D01*
X104261957Y-91318043D01*
X104149389Y-91180879D01*
X104065743Y-91024389D01*
X104014234Y-90854588D01*
X103996842Y-90678000D01*
X104014234Y-90501412D01*
X104065743Y-90331611D01*
X104149389Y-90175121D01*
X104261957Y-90037957D01*
X104399121Y-89925389D01*
X104555611Y-89841743D01*
X104725412Y-89790234D01*
X104857751Y-89777200D01*
X104946249Y-89777200D01*
X105078588Y-89790234D01*
X105078588Y-89790234D01*
G37*
G36*
X110158588Y-89790234D02*
X110328389Y-89841743D01*
X110484879Y-89925389D01*
X110622043Y-90037957D01*
X110734611Y-90175121D01*
X110818257Y-90331611D01*
X110869766Y-90501412D01*
X110887158Y-90678000D01*
X110869766Y-90854588D01*
X110818257Y-91024389D01*
X110734611Y-91180879D01*
X110622043Y-91318043D01*
X110484879Y-91430611D01*
X110328389Y-91514257D01*
X110158588Y-91565766D01*
X110026249Y-91578800D01*
X109937751Y-91578800D01*
X109805412Y-91565766D01*
X109635611Y-91514257D01*
X109479121Y-91430611D01*
X109341957Y-91318043D01*
X109229389Y-91180879D01*
X109145743Y-91024389D01*
X109094234Y-90854588D01*
X109076842Y-90678000D01*
X109094234Y-90501412D01*
X109145743Y-90331611D01*
X109229389Y-90175121D01*
X109341957Y-90037957D01*
X109479121Y-89925389D01*
X109635611Y-89841743D01*
X109805412Y-89790234D01*
X109937751Y-89777200D01*
X110026249Y-89777200D01*
X110158588Y-89790234D01*
X110158588Y-89790234D01*
G37*
G36*
X102538588Y-89790234D02*
X102708389Y-89841743D01*
X102864879Y-89925389D01*
X103002043Y-90037957D01*
X103114611Y-90175121D01*
X103198257Y-90331611D01*
X103249766Y-90501412D01*
X103267158Y-90678000D01*
X103249766Y-90854588D01*
X103198257Y-91024389D01*
X103114611Y-91180879D01*
X103002043Y-91318043D01*
X102864879Y-91430611D01*
X102708389Y-91514257D01*
X102538588Y-91565766D01*
X102406249Y-91578800D01*
X102317751Y-91578800D01*
X102185412Y-91565766D01*
X102015611Y-91514257D01*
X101859121Y-91430611D01*
X101721957Y-91318043D01*
X101609389Y-91180879D01*
X101525743Y-91024389D01*
X101474234Y-90854588D01*
X101456842Y-90678000D01*
X101474234Y-90501412D01*
X101525743Y-90331611D01*
X101609389Y-90175121D01*
X101721957Y-90037957D01*
X101859121Y-89925389D01*
X102015611Y-89841743D01*
X102185412Y-89790234D01*
X102317751Y-89777200D01*
X102406249Y-89777200D01*
X102538588Y-89790234D01*
X102538588Y-89790234D01*
G37*
G36*
X151014800Y-91578800D02*
X149213200Y-91578800D01*
X149213200Y-89777200D01*
X151014800Y-89777200D01*
X151014800Y-91578800D01*
X151014800Y-91578800D01*
G37*
G36*
X171626588Y-88012234D02*
X171796389Y-88063743D01*
X171952879Y-88147389D01*
X172090043Y-88259957D01*
X172202611Y-88397121D01*
X172286257Y-88553611D01*
X172337766Y-88723412D01*
X172355158Y-88900000D01*
X172337766Y-89076588D01*
X172286257Y-89246389D01*
X172202611Y-89402879D01*
X172090043Y-89540043D01*
X171952879Y-89652611D01*
X171796389Y-89736257D01*
X171626588Y-89787766D01*
X171494249Y-89800800D01*
X171405751Y-89800800D01*
X171273412Y-89787766D01*
X171103611Y-89736257D01*
X170947121Y-89652611D01*
X170809957Y-89540043D01*
X170697389Y-89402879D01*
X170613743Y-89246389D01*
X170562234Y-89076588D01*
X170544842Y-88900000D01*
X170562234Y-88723412D01*
X170613743Y-88553611D01*
X170697389Y-88397121D01*
X170809957Y-88259957D01*
X170947121Y-88147389D01*
X171103611Y-88063743D01*
X171273412Y-88012234D01*
X171405751Y-87999200D01*
X171494249Y-87999200D01*
X171626588Y-88012234D01*
X171626588Y-88012234D01*
G37*
G36*
X169810800Y-89800800D02*
X168009200Y-89800800D01*
X168009200Y-87999200D01*
X169810800Y-87999200D01*
X169810800Y-89800800D01*
X169810800Y-89800800D01*
G37*
G36*
X117270588Y-84710234D02*
X117440389Y-84761743D01*
X117596879Y-84845389D01*
X117734043Y-84957957D01*
X117846611Y-85095121D01*
X117930257Y-85251611D01*
X117981766Y-85421412D01*
X117999158Y-85598000D01*
X117981766Y-85774588D01*
X117930257Y-85944389D01*
X117846611Y-86100879D01*
X117734043Y-86238043D01*
X117596879Y-86350611D01*
X117440389Y-86434257D01*
X117270588Y-86485766D01*
X117138249Y-86498800D01*
X117049751Y-86498800D01*
X116917412Y-86485766D01*
X116747611Y-86434257D01*
X116591121Y-86350611D01*
X116453957Y-86238043D01*
X116341389Y-86100879D01*
X116257743Y-85944389D01*
X116206234Y-85774588D01*
X116188842Y-85598000D01*
X116206234Y-85421412D01*
X116257743Y-85251611D01*
X116341389Y-85095121D01*
X116453957Y-84957957D01*
X116591121Y-84845389D01*
X116747611Y-84761743D01*
X116917412Y-84710234D01*
X117049751Y-84697200D01*
X117138249Y-84697200D01*
X117270588Y-84710234D01*
X117270588Y-84710234D01*
G37*
G36*
X127430588Y-84710234D02*
X127600389Y-84761743D01*
X127756879Y-84845389D01*
X127894043Y-84957957D01*
X128006611Y-85095121D01*
X128090257Y-85251611D01*
X128141766Y-85421412D01*
X128159158Y-85598000D01*
X128141766Y-85774588D01*
X128090257Y-85944389D01*
X128006611Y-86100879D01*
X127894043Y-86238043D01*
X127756879Y-86350611D01*
X127600389Y-86434257D01*
X127430588Y-86485766D01*
X127298249Y-86498800D01*
X127209751Y-86498800D01*
X127077412Y-86485766D01*
X126907611Y-86434257D01*
X126751121Y-86350611D01*
X126613957Y-86238043D01*
X126501389Y-86100879D01*
X126417743Y-85944389D01*
X126366234Y-85774588D01*
X126348842Y-85598000D01*
X126366234Y-85421412D01*
X126417743Y-85251611D01*
X126501389Y-85095121D01*
X126613957Y-84957957D01*
X126751121Y-84845389D01*
X126907611Y-84761743D01*
X127077412Y-84710234D01*
X127209751Y-84697200D01*
X127298249Y-84697200D01*
X127430588Y-84710234D01*
X127430588Y-84710234D01*
G37*
G36*
X124890588Y-84710234D02*
X125060389Y-84761743D01*
X125216879Y-84845389D01*
X125354043Y-84957957D01*
X125466611Y-85095121D01*
X125550257Y-85251611D01*
X125601766Y-85421412D01*
X125619158Y-85598000D01*
X125601766Y-85774588D01*
X125550257Y-85944389D01*
X125466611Y-86100879D01*
X125354043Y-86238043D01*
X125216879Y-86350611D01*
X125060389Y-86434257D01*
X124890588Y-86485766D01*
X124758249Y-86498800D01*
X124669751Y-86498800D01*
X124537412Y-86485766D01*
X124367611Y-86434257D01*
X124211121Y-86350611D01*
X124073957Y-86238043D01*
X123961389Y-86100879D01*
X123877743Y-85944389D01*
X123826234Y-85774588D01*
X123808842Y-85598000D01*
X123826234Y-85421412D01*
X123877743Y-85251611D01*
X123961389Y-85095121D01*
X124073957Y-84957957D01*
X124211121Y-84845389D01*
X124367611Y-84761743D01*
X124537412Y-84710234D01*
X124669751Y-84697200D01*
X124758249Y-84697200D01*
X124890588Y-84710234D01*
X124890588Y-84710234D01*
G37*
G36*
X122350588Y-84710234D02*
X122520389Y-84761743D01*
X122676879Y-84845389D01*
X122814043Y-84957957D01*
X122926611Y-85095121D01*
X123010257Y-85251611D01*
X123061766Y-85421412D01*
X123079158Y-85598000D01*
X123061766Y-85774588D01*
X123010257Y-85944389D01*
X122926611Y-86100879D01*
X122814043Y-86238043D01*
X122676879Y-86350611D01*
X122520389Y-86434257D01*
X122350588Y-86485766D01*
X122218249Y-86498800D01*
X122129751Y-86498800D01*
X121997412Y-86485766D01*
X121827611Y-86434257D01*
X121671121Y-86350611D01*
X121533957Y-86238043D01*
X121421389Y-86100879D01*
X121337743Y-85944389D01*
X121286234Y-85774588D01*
X121268842Y-85598000D01*
X121286234Y-85421412D01*
X121337743Y-85251611D01*
X121421389Y-85095121D01*
X121533957Y-84957957D01*
X121671121Y-84845389D01*
X121827611Y-84761743D01*
X121997412Y-84710234D01*
X122129751Y-84697200D01*
X122218249Y-84697200D01*
X122350588Y-84710234D01*
X122350588Y-84710234D01*
G37*
G36*
X129970588Y-84710234D02*
X130140389Y-84761743D01*
X130296879Y-84845389D01*
X130434043Y-84957957D01*
X130546611Y-85095121D01*
X130630257Y-85251611D01*
X130681766Y-85421412D01*
X130699158Y-85598000D01*
X130681766Y-85774588D01*
X130630257Y-85944389D01*
X130546611Y-86100879D01*
X130434043Y-86238043D01*
X130296879Y-86350611D01*
X130140389Y-86434257D01*
X129970588Y-86485766D01*
X129838249Y-86498800D01*
X129749751Y-86498800D01*
X129617412Y-86485766D01*
X129447611Y-86434257D01*
X129291121Y-86350611D01*
X129153957Y-86238043D01*
X129041389Y-86100879D01*
X128957743Y-85944389D01*
X128906234Y-85774588D01*
X128888842Y-85598000D01*
X128906234Y-85421412D01*
X128957743Y-85251611D01*
X129041389Y-85095121D01*
X129153957Y-84957957D01*
X129291121Y-84845389D01*
X129447611Y-84761743D01*
X129617412Y-84710234D01*
X129749751Y-84697200D01*
X129838249Y-84697200D01*
X129970588Y-84710234D01*
X129970588Y-84710234D01*
G37*
G36*
X114730588Y-84710234D02*
X114900389Y-84761743D01*
X115056879Y-84845389D01*
X115194043Y-84957957D01*
X115306611Y-85095121D01*
X115390257Y-85251611D01*
X115441766Y-85421412D01*
X115459158Y-85598000D01*
X115441766Y-85774588D01*
X115390257Y-85944389D01*
X115306611Y-86100879D01*
X115194043Y-86238043D01*
X115056879Y-86350611D01*
X114900389Y-86434257D01*
X114730588Y-86485766D01*
X114598249Y-86498800D01*
X114509751Y-86498800D01*
X114377412Y-86485766D01*
X114207611Y-86434257D01*
X114051121Y-86350611D01*
X113913957Y-86238043D01*
X113801389Y-86100879D01*
X113717743Y-85944389D01*
X113666234Y-85774588D01*
X113648842Y-85598000D01*
X113666234Y-85421412D01*
X113717743Y-85251611D01*
X113801389Y-85095121D01*
X113913957Y-84957957D01*
X114051121Y-84845389D01*
X114207611Y-84761743D01*
X114377412Y-84710234D01*
X114509751Y-84697200D01*
X114598249Y-84697200D01*
X114730588Y-84710234D01*
X114730588Y-84710234D01*
G37*
G36*
X104570588Y-84710234D02*
X104740389Y-84761743D01*
X104896879Y-84845389D01*
X105034043Y-84957957D01*
X105146611Y-85095121D01*
X105230257Y-85251611D01*
X105281766Y-85421412D01*
X105299158Y-85598000D01*
X105281766Y-85774588D01*
X105230257Y-85944389D01*
X105146611Y-86100879D01*
X105034043Y-86238043D01*
X104896879Y-86350611D01*
X104740389Y-86434257D01*
X104570588Y-86485766D01*
X104438249Y-86498800D01*
X104349751Y-86498800D01*
X104217412Y-86485766D01*
X104047611Y-86434257D01*
X103891121Y-86350611D01*
X103753957Y-86238043D01*
X103641389Y-86100879D01*
X103557743Y-85944389D01*
X103506234Y-85774588D01*
X103488842Y-85598000D01*
X103506234Y-85421412D01*
X103557743Y-85251611D01*
X103641389Y-85095121D01*
X103753957Y-84957957D01*
X103891121Y-84845389D01*
X104047611Y-84761743D01*
X104217412Y-84710234D01*
X104349751Y-84697200D01*
X104438249Y-84697200D01*
X104570588Y-84710234D01*
X104570588Y-84710234D01*
G37*
G36*
X107110588Y-84710234D02*
X107280389Y-84761743D01*
X107436879Y-84845389D01*
X107574043Y-84957957D01*
X107686611Y-85095121D01*
X107770257Y-85251611D01*
X107821766Y-85421412D01*
X107839158Y-85598000D01*
X107821766Y-85774588D01*
X107770257Y-85944389D01*
X107686611Y-86100879D01*
X107574043Y-86238043D01*
X107436879Y-86350611D01*
X107280389Y-86434257D01*
X107110588Y-86485766D01*
X106978249Y-86498800D01*
X106889751Y-86498800D01*
X106757412Y-86485766D01*
X106587611Y-86434257D01*
X106431121Y-86350611D01*
X106293957Y-86238043D01*
X106181389Y-86100879D01*
X106097743Y-85944389D01*
X106046234Y-85774588D01*
X106028842Y-85598000D01*
X106046234Y-85421412D01*
X106097743Y-85251611D01*
X106181389Y-85095121D01*
X106293957Y-84957957D01*
X106431121Y-84845389D01*
X106587611Y-84761743D01*
X106757412Y-84710234D01*
X106889751Y-84697200D01*
X106978249Y-84697200D01*
X107110588Y-84710234D01*
X107110588Y-84710234D01*
G37*
G36*
X109650588Y-84710234D02*
X109820389Y-84761743D01*
X109976879Y-84845389D01*
X110114043Y-84957957D01*
X110226611Y-85095121D01*
X110310257Y-85251611D01*
X110361766Y-85421412D01*
X110379158Y-85598000D01*
X110361766Y-85774588D01*
X110310257Y-85944389D01*
X110226611Y-86100879D01*
X110114043Y-86238043D01*
X109976879Y-86350611D01*
X109820389Y-86434257D01*
X109650588Y-86485766D01*
X109518249Y-86498800D01*
X109429751Y-86498800D01*
X109297412Y-86485766D01*
X109127611Y-86434257D01*
X108971121Y-86350611D01*
X108833957Y-86238043D01*
X108721389Y-86100879D01*
X108637743Y-85944389D01*
X108586234Y-85774588D01*
X108568842Y-85598000D01*
X108586234Y-85421412D01*
X108637743Y-85251611D01*
X108721389Y-85095121D01*
X108833957Y-84957957D01*
X108971121Y-84845389D01*
X109127611Y-84761743D01*
X109297412Y-84710234D01*
X109429751Y-84697200D01*
X109518249Y-84697200D01*
X109650588Y-84710234D01*
X109650588Y-84710234D01*
G37*
G36*
X112190588Y-84710234D02*
X112360389Y-84761743D01*
X112516879Y-84845389D01*
X112654043Y-84957957D01*
X112766611Y-85095121D01*
X112850257Y-85251611D01*
X112901766Y-85421412D01*
X112919158Y-85598000D01*
X112901766Y-85774588D01*
X112850257Y-85944389D01*
X112766611Y-86100879D01*
X112654043Y-86238043D01*
X112516879Y-86350611D01*
X112360389Y-86434257D01*
X112190588Y-86485766D01*
X112058249Y-86498800D01*
X111969751Y-86498800D01*
X111837412Y-86485766D01*
X111667611Y-86434257D01*
X111511121Y-86350611D01*
X111373957Y-86238043D01*
X111261389Y-86100879D01*
X111177743Y-85944389D01*
X111126234Y-85774588D01*
X111108842Y-85598000D01*
X111126234Y-85421412D01*
X111177743Y-85251611D01*
X111261389Y-85095121D01*
X111373957Y-84957957D01*
X111511121Y-84845389D01*
X111667611Y-84761743D01*
X111837412Y-84710234D01*
X111969751Y-84697200D01*
X112058249Y-84697200D01*
X112190588Y-84710234D01*
X112190588Y-84710234D01*
G37*
G36*
X132510588Y-84710234D02*
X132680389Y-84761743D01*
X132836879Y-84845389D01*
X132974043Y-84957957D01*
X133086611Y-85095121D01*
X133170257Y-85251611D01*
X133221766Y-85421412D01*
X133239158Y-85598000D01*
X133221766Y-85774588D01*
X133170257Y-85944389D01*
X133086611Y-86100879D01*
X132974043Y-86238043D01*
X132836879Y-86350611D01*
X132680389Y-86434257D01*
X132510588Y-86485766D01*
X132378249Y-86498800D01*
X132289751Y-86498800D01*
X132157412Y-86485766D01*
X131987611Y-86434257D01*
X131831121Y-86350611D01*
X131693957Y-86238043D01*
X131581389Y-86100879D01*
X131497743Y-85944389D01*
X131446234Y-85774588D01*
X131428842Y-85598000D01*
X131446234Y-85421412D01*
X131497743Y-85251611D01*
X131581389Y-85095121D01*
X131693957Y-84957957D01*
X131831121Y-84845389D01*
X131987611Y-84761743D01*
X132157412Y-84710234D01*
X132289751Y-84697200D01*
X132378249Y-84697200D01*
X132510588Y-84710234D01*
X132510588Y-84710234D01*
G37*
G36*
X135050588Y-84710234D02*
X135220389Y-84761743D01*
X135376879Y-84845389D01*
X135514043Y-84957957D01*
X135626611Y-85095121D01*
X135710257Y-85251611D01*
X135761766Y-85421412D01*
X135779158Y-85598000D01*
X135761766Y-85774588D01*
X135710257Y-85944389D01*
X135626611Y-86100879D01*
X135514043Y-86238043D01*
X135376879Y-86350611D01*
X135220389Y-86434257D01*
X135050588Y-86485766D01*
X134918249Y-86498800D01*
X134829751Y-86498800D01*
X134697412Y-86485766D01*
X134527611Y-86434257D01*
X134371121Y-86350611D01*
X134233957Y-86238043D01*
X134121389Y-86100879D01*
X134037743Y-85944389D01*
X133986234Y-85774588D01*
X133968842Y-85598000D01*
X133986234Y-85421412D01*
X134037743Y-85251611D01*
X134121389Y-85095121D01*
X134233957Y-84957957D01*
X134371121Y-84845389D01*
X134527611Y-84761743D01*
X134697412Y-84710234D01*
X134829751Y-84697200D01*
X134918249Y-84697200D01*
X135050588Y-84710234D01*
X135050588Y-84710234D01*
G37*
G36*
X137590588Y-84710234D02*
X137760389Y-84761743D01*
X137916879Y-84845389D01*
X138054043Y-84957957D01*
X138166611Y-85095121D01*
X138250257Y-85251611D01*
X138301766Y-85421412D01*
X138319158Y-85598000D01*
X138301766Y-85774588D01*
X138250257Y-85944389D01*
X138166611Y-86100879D01*
X138054043Y-86238043D01*
X137916879Y-86350611D01*
X137760389Y-86434257D01*
X137590588Y-86485766D01*
X137458249Y-86498800D01*
X137369751Y-86498800D01*
X137237412Y-86485766D01*
X137067611Y-86434257D01*
X136911121Y-86350611D01*
X136773957Y-86238043D01*
X136661389Y-86100879D01*
X136577743Y-85944389D01*
X136526234Y-85774588D01*
X136508842Y-85598000D01*
X136526234Y-85421412D01*
X136577743Y-85251611D01*
X136661389Y-85095121D01*
X136773957Y-84957957D01*
X136911121Y-84845389D01*
X137067611Y-84761743D01*
X137237412Y-84710234D01*
X137369751Y-84697200D01*
X137458249Y-84697200D01*
X137590588Y-84710234D01*
X137590588Y-84710234D01*
G37*
G36*
X140130588Y-84710234D02*
X140300389Y-84761743D01*
X140456879Y-84845389D01*
X140594043Y-84957957D01*
X140706611Y-85095121D01*
X140790257Y-85251611D01*
X140841766Y-85421412D01*
X140859158Y-85598000D01*
X140841766Y-85774588D01*
X140790257Y-85944389D01*
X140706611Y-86100879D01*
X140594043Y-86238043D01*
X140456879Y-86350611D01*
X140300389Y-86434257D01*
X140130588Y-86485766D01*
X139998249Y-86498800D01*
X139909751Y-86498800D01*
X139777412Y-86485766D01*
X139607611Y-86434257D01*
X139451121Y-86350611D01*
X139313957Y-86238043D01*
X139201389Y-86100879D01*
X139117743Y-85944389D01*
X139066234Y-85774588D01*
X139048842Y-85598000D01*
X139066234Y-85421412D01*
X139117743Y-85251611D01*
X139201389Y-85095121D01*
X139313957Y-84957957D01*
X139451121Y-84845389D01*
X139607611Y-84761743D01*
X139777412Y-84710234D01*
X139909751Y-84697200D01*
X139998249Y-84697200D01*
X140130588Y-84710234D01*
X140130588Y-84710234D01*
G37*
G36*
X142670588Y-84710234D02*
X142840389Y-84761743D01*
X142996879Y-84845389D01*
X143134043Y-84957957D01*
X143246611Y-85095121D01*
X143330257Y-85251611D01*
X143381766Y-85421412D01*
X143399158Y-85598000D01*
X143381766Y-85774588D01*
X143330257Y-85944389D01*
X143246611Y-86100879D01*
X143134043Y-86238043D01*
X142996879Y-86350611D01*
X142840389Y-86434257D01*
X142670588Y-86485766D01*
X142538249Y-86498800D01*
X142449751Y-86498800D01*
X142317412Y-86485766D01*
X142147611Y-86434257D01*
X141991121Y-86350611D01*
X141853957Y-86238043D01*
X141741389Y-86100879D01*
X141657743Y-85944389D01*
X141606234Y-85774588D01*
X141588842Y-85598000D01*
X141606234Y-85421412D01*
X141657743Y-85251611D01*
X141741389Y-85095121D01*
X141853957Y-84957957D01*
X141991121Y-84845389D01*
X142147611Y-84761743D01*
X142317412Y-84710234D01*
X142449751Y-84697200D01*
X142538249Y-84697200D01*
X142670588Y-84710234D01*
X142670588Y-84710234D01*
G37*
G36*
X145210588Y-84710234D02*
X145380389Y-84761743D01*
X145536879Y-84845389D01*
X145674043Y-84957957D01*
X145786611Y-85095121D01*
X145870257Y-85251611D01*
X145921766Y-85421412D01*
X145939158Y-85598000D01*
X145921766Y-85774588D01*
X145870257Y-85944389D01*
X145786611Y-86100879D01*
X145674043Y-86238043D01*
X145536879Y-86350611D01*
X145380389Y-86434257D01*
X145210588Y-86485766D01*
X145078249Y-86498800D01*
X144989751Y-86498800D01*
X144857412Y-86485766D01*
X144687611Y-86434257D01*
X144531121Y-86350611D01*
X144393957Y-86238043D01*
X144281389Y-86100879D01*
X144197743Y-85944389D01*
X144146234Y-85774588D01*
X144128842Y-85598000D01*
X144146234Y-85421412D01*
X144197743Y-85251611D01*
X144281389Y-85095121D01*
X144393957Y-84957957D01*
X144531121Y-84845389D01*
X144687611Y-84761743D01*
X144857412Y-84710234D01*
X144989751Y-84697200D01*
X145078249Y-84697200D01*
X145210588Y-84710234D01*
X145210588Y-84710234D01*
G37*
G36*
X150290588Y-84710234D02*
X150460389Y-84761743D01*
X150616879Y-84845389D01*
X150754043Y-84957957D01*
X150866611Y-85095121D01*
X150950257Y-85251611D01*
X151001766Y-85421412D01*
X151019158Y-85598000D01*
X151001766Y-85774588D01*
X150950257Y-85944389D01*
X150866611Y-86100879D01*
X150754043Y-86238043D01*
X150616879Y-86350611D01*
X150460389Y-86434257D01*
X150290588Y-86485766D01*
X150158249Y-86498800D01*
X150069751Y-86498800D01*
X149937412Y-86485766D01*
X149767611Y-86434257D01*
X149611121Y-86350611D01*
X149473957Y-86238043D01*
X149361389Y-86100879D01*
X149277743Y-85944389D01*
X149226234Y-85774588D01*
X149208842Y-85598000D01*
X149226234Y-85421412D01*
X149277743Y-85251611D01*
X149361389Y-85095121D01*
X149473957Y-84957957D01*
X149611121Y-84845389D01*
X149767611Y-84761743D01*
X149937412Y-84710234D01*
X150069751Y-84697200D01*
X150158249Y-84697200D01*
X150290588Y-84710234D01*
X150290588Y-84710234D01*
G37*
G36*
X152830588Y-84710234D02*
X153000389Y-84761743D01*
X153156879Y-84845389D01*
X153294043Y-84957957D01*
X153406611Y-85095121D01*
X153490257Y-85251611D01*
X153541766Y-85421412D01*
X153559158Y-85598000D01*
X153541766Y-85774588D01*
X153490257Y-85944389D01*
X153406611Y-86100879D01*
X153294043Y-86238043D01*
X153156879Y-86350611D01*
X153000389Y-86434257D01*
X152830588Y-86485766D01*
X152698249Y-86498800D01*
X152609751Y-86498800D01*
X152477412Y-86485766D01*
X152307611Y-86434257D01*
X152151121Y-86350611D01*
X152013957Y-86238043D01*
X151901389Y-86100879D01*
X151817743Y-85944389D01*
X151766234Y-85774588D01*
X151748842Y-85598000D01*
X151766234Y-85421412D01*
X151817743Y-85251611D01*
X151901389Y-85095121D01*
X152013957Y-84957957D01*
X152151121Y-84845389D01*
X152307611Y-84761743D01*
X152477412Y-84710234D01*
X152609751Y-84697200D01*
X152698249Y-84697200D01*
X152830588Y-84710234D01*
X152830588Y-84710234D01*
G37*
G36*
X147750588Y-84710234D02*
X147920389Y-84761743D01*
X148076879Y-84845389D01*
X148214043Y-84957957D01*
X148326611Y-85095121D01*
X148410257Y-85251611D01*
X148461766Y-85421412D01*
X148479158Y-85598000D01*
X148461766Y-85774588D01*
X148410257Y-85944389D01*
X148326611Y-86100879D01*
X148214043Y-86238043D01*
X148076879Y-86350611D01*
X147920389Y-86434257D01*
X147750588Y-86485766D01*
X147618249Y-86498800D01*
X147529751Y-86498800D01*
X147397412Y-86485766D01*
X147227611Y-86434257D01*
X147071121Y-86350611D01*
X146933957Y-86238043D01*
X146821389Y-86100879D01*
X146737743Y-85944389D01*
X146686234Y-85774588D01*
X146668842Y-85598000D01*
X146686234Y-85421412D01*
X146737743Y-85251611D01*
X146821389Y-85095121D01*
X146933957Y-84957957D01*
X147071121Y-84845389D01*
X147227611Y-84761743D01*
X147397412Y-84710234D01*
X147529751Y-84697200D01*
X147618249Y-84697200D01*
X147750588Y-84710234D01*
X147750588Y-84710234D01*
G37*
G36*
X119810588Y-84710234D02*
X119980389Y-84761743D01*
X120136879Y-84845389D01*
X120274043Y-84957957D01*
X120386611Y-85095121D01*
X120470257Y-85251611D01*
X120521766Y-85421412D01*
X120539158Y-85598000D01*
X120521766Y-85774588D01*
X120470257Y-85944389D01*
X120386611Y-86100879D01*
X120274043Y-86238043D01*
X120136879Y-86350611D01*
X119980389Y-86434257D01*
X119810588Y-86485766D01*
X119678249Y-86498800D01*
X119589751Y-86498800D01*
X119457412Y-86485766D01*
X119287611Y-86434257D01*
X119131121Y-86350611D01*
X118993957Y-86238043D01*
X118881389Y-86100879D01*
X118797743Y-85944389D01*
X118746234Y-85774588D01*
X118728842Y-85598000D01*
X118746234Y-85421412D01*
X118797743Y-85251611D01*
X118881389Y-85095121D01*
X118993957Y-84957957D01*
X119131121Y-84845389D01*
X119287611Y-84761743D01*
X119457412Y-84710234D01*
X119589751Y-84697200D01*
X119678249Y-84697200D01*
X119810588Y-84710234D01*
X119810588Y-84710234D01*
G37*
G36*
X99976598Y-81711032D02*
X100231528Y-81816627D01*
X100460958Y-81969927D01*
X100656073Y-82165042D01*
X100809373Y-82394472D01*
X100914968Y-82649402D01*
X100968800Y-82920033D01*
X100968800Y-83195967D01*
X100914968Y-83466598D01*
X100809373Y-83721528D01*
X100656073Y-83950958D01*
X100460958Y-84146073D01*
X100231528Y-84299373D01*
X99976598Y-84404968D01*
X99705967Y-84458800D01*
X99430033Y-84458800D01*
X99159402Y-84404968D01*
X98904472Y-84299373D01*
X98675042Y-84146073D01*
X98479927Y-83950958D01*
X98326627Y-83721528D01*
X98221032Y-83466598D01*
X98167200Y-83195967D01*
X98167200Y-82920033D01*
X98221032Y-82649402D01*
X98326627Y-82394472D01*
X98479927Y-82165042D01*
X98675042Y-81969927D01*
X98904472Y-81816627D01*
X99159402Y-81711032D01*
X99430033Y-81657200D01*
X99705967Y-81657200D01*
X99976598Y-81711032D01*
X99976598Y-81711032D01*
G37*
G36*
X171350598Y-81711032D02*
X171605528Y-81816627D01*
X171834958Y-81969927D01*
X172030073Y-82165042D01*
X172183373Y-82394472D01*
X172288968Y-82649402D01*
X172342800Y-82920033D01*
X172342800Y-83195967D01*
X172288968Y-83466598D01*
X172183373Y-83721528D01*
X172030073Y-83950958D01*
X171834958Y-84146073D01*
X171605528Y-84299373D01*
X171350598Y-84404968D01*
X171079967Y-84458800D01*
X170804033Y-84458800D01*
X170533402Y-84404968D01*
X170278472Y-84299373D01*
X170049042Y-84146073D01*
X169853927Y-83950958D01*
X169700627Y-83721528D01*
X169595032Y-83466598D01*
X169541200Y-83195967D01*
X169541200Y-82920033D01*
X169595032Y-82649402D01*
X169700627Y-82394472D01*
X169853927Y-82165042D01*
X170049042Y-81969927D01*
X170278472Y-81816627D01*
X170533402Y-81711032D01*
X170804033Y-81657200D01*
X171079967Y-81657200D01*
X171350598Y-81711032D01*
X171350598Y-81711032D01*
G37*
G36*
X112190588Y-82170234D02*
X112360389Y-82221743D01*
X112516879Y-82305389D01*
X112654043Y-82417957D01*
X112766611Y-82555121D01*
X112850257Y-82711611D01*
X112901766Y-82881412D01*
X112919158Y-83058000D01*
X112901766Y-83234588D01*
X112850257Y-83404389D01*
X112766611Y-83560879D01*
X112654043Y-83698043D01*
X112516879Y-83810611D01*
X112360389Y-83894257D01*
X112190588Y-83945766D01*
X112058249Y-83958800D01*
X111969751Y-83958800D01*
X111837412Y-83945766D01*
X111667611Y-83894257D01*
X111511121Y-83810611D01*
X111373957Y-83698043D01*
X111261389Y-83560879D01*
X111177743Y-83404389D01*
X111126234Y-83234588D01*
X111108842Y-83058000D01*
X111126234Y-82881412D01*
X111177743Y-82711611D01*
X111261389Y-82555121D01*
X111373957Y-82417957D01*
X111511121Y-82305389D01*
X111667611Y-82221743D01*
X111837412Y-82170234D01*
X111969751Y-82157200D01*
X112058249Y-82157200D01*
X112190588Y-82170234D01*
X112190588Y-82170234D01*
G37*
G36*
X117270588Y-82170234D02*
X117440389Y-82221743D01*
X117596879Y-82305389D01*
X117734043Y-82417957D01*
X117846611Y-82555121D01*
X117930257Y-82711611D01*
X117981766Y-82881412D01*
X117999158Y-83058000D01*
X117981766Y-83234588D01*
X117930257Y-83404389D01*
X117846611Y-83560879D01*
X117734043Y-83698043D01*
X117596879Y-83810611D01*
X117440389Y-83894257D01*
X117270588Y-83945766D01*
X117138249Y-83958800D01*
X117049751Y-83958800D01*
X116917412Y-83945766D01*
X116747611Y-83894257D01*
X116591121Y-83810611D01*
X116453957Y-83698043D01*
X116341389Y-83560879D01*
X116257743Y-83404389D01*
X116206234Y-83234588D01*
X116188842Y-83058000D01*
X116206234Y-82881412D01*
X116257743Y-82711611D01*
X116341389Y-82555121D01*
X116453957Y-82417957D01*
X116591121Y-82305389D01*
X116747611Y-82221743D01*
X116917412Y-82170234D01*
X117049751Y-82157200D01*
X117138249Y-82157200D01*
X117270588Y-82170234D01*
X117270588Y-82170234D01*
G37*
G36*
X104570588Y-82170234D02*
X104740389Y-82221743D01*
X104896879Y-82305389D01*
X105034043Y-82417957D01*
X105146611Y-82555121D01*
X105230257Y-82711611D01*
X105281766Y-82881412D01*
X105299158Y-83058000D01*
X105281766Y-83234588D01*
X105230257Y-83404389D01*
X105146611Y-83560879D01*
X105034043Y-83698043D01*
X104896879Y-83810611D01*
X104740389Y-83894257D01*
X104570588Y-83945766D01*
X104438249Y-83958800D01*
X104349751Y-83958800D01*
X104217412Y-83945766D01*
X104047611Y-83894257D01*
X103891121Y-83810611D01*
X103753957Y-83698043D01*
X103641389Y-83560879D01*
X103557743Y-83404389D01*
X103506234Y-83234588D01*
X103488842Y-83058000D01*
X103506234Y-82881412D01*
X103557743Y-82711611D01*
X103641389Y-82555121D01*
X103753957Y-82417957D01*
X103891121Y-82305389D01*
X104047611Y-82221743D01*
X104217412Y-82170234D01*
X104349751Y-82157200D01*
X104438249Y-82157200D01*
X104570588Y-82170234D01*
X104570588Y-82170234D01*
G37*
G36*
X114730588Y-82170234D02*
X114900389Y-82221743D01*
X115056879Y-82305389D01*
X115194043Y-82417957D01*
X115306611Y-82555121D01*
X115390257Y-82711611D01*
X115441766Y-82881412D01*
X115459158Y-83058000D01*
X115441766Y-83234588D01*
X115390257Y-83404389D01*
X115306611Y-83560879D01*
X115194043Y-83698043D01*
X115056879Y-83810611D01*
X114900389Y-83894257D01*
X114730588Y-83945766D01*
X114598249Y-83958800D01*
X114509751Y-83958800D01*
X114377412Y-83945766D01*
X114207611Y-83894257D01*
X114051121Y-83810611D01*
X113913957Y-83698043D01*
X113801389Y-83560879D01*
X113717743Y-83404389D01*
X113666234Y-83234588D01*
X113648842Y-83058000D01*
X113666234Y-82881412D01*
X113717743Y-82711611D01*
X113801389Y-82555121D01*
X113913957Y-82417957D01*
X114051121Y-82305389D01*
X114207611Y-82221743D01*
X114377412Y-82170234D01*
X114509751Y-82157200D01*
X114598249Y-82157200D01*
X114730588Y-82170234D01*
X114730588Y-82170234D01*
G37*
G36*
X107110588Y-82170234D02*
X107280389Y-82221743D01*
X107436879Y-82305389D01*
X107574043Y-82417957D01*
X107686611Y-82555121D01*
X107770257Y-82711611D01*
X107821766Y-82881412D01*
X107839158Y-83058000D01*
X107821766Y-83234588D01*
X107770257Y-83404389D01*
X107686611Y-83560879D01*
X107574043Y-83698043D01*
X107436879Y-83810611D01*
X107280389Y-83894257D01*
X107110588Y-83945766D01*
X106978249Y-83958800D01*
X106889751Y-83958800D01*
X106757412Y-83945766D01*
X106587611Y-83894257D01*
X106431121Y-83810611D01*
X106293957Y-83698043D01*
X106181389Y-83560879D01*
X106097743Y-83404389D01*
X106046234Y-83234588D01*
X106028842Y-83058000D01*
X106046234Y-82881412D01*
X106097743Y-82711611D01*
X106181389Y-82555121D01*
X106293957Y-82417957D01*
X106431121Y-82305389D01*
X106587611Y-82221743D01*
X106757412Y-82170234D01*
X106889751Y-82157200D01*
X106978249Y-82157200D01*
X107110588Y-82170234D01*
X107110588Y-82170234D01*
G37*
G36*
X109650588Y-82170234D02*
X109820389Y-82221743D01*
X109976879Y-82305389D01*
X110114043Y-82417957D01*
X110226611Y-82555121D01*
X110310257Y-82711611D01*
X110361766Y-82881412D01*
X110379158Y-83058000D01*
X110361766Y-83234588D01*
X110310257Y-83404389D01*
X110226611Y-83560879D01*
X110114043Y-83698043D01*
X109976879Y-83810611D01*
X109820389Y-83894257D01*
X109650588Y-83945766D01*
X109518249Y-83958800D01*
X109429751Y-83958800D01*
X109297412Y-83945766D01*
X109127611Y-83894257D01*
X108971121Y-83810611D01*
X108833957Y-83698043D01*
X108721389Y-83560879D01*
X108637743Y-83404389D01*
X108586234Y-83234588D01*
X108568842Y-83058000D01*
X108586234Y-82881412D01*
X108637743Y-82711611D01*
X108721389Y-82555121D01*
X108833957Y-82417957D01*
X108971121Y-82305389D01*
X109127611Y-82221743D01*
X109297412Y-82170234D01*
X109429751Y-82157200D01*
X109518249Y-82157200D01*
X109650588Y-82170234D01*
X109650588Y-82170234D01*
G37*
G36*
X129970588Y-82170234D02*
X130140389Y-82221743D01*
X130296879Y-82305389D01*
X130434043Y-82417957D01*
X130546611Y-82555121D01*
X130630257Y-82711611D01*
X130681766Y-82881412D01*
X130699158Y-83058000D01*
X130681766Y-83234588D01*
X130630257Y-83404389D01*
X130546611Y-83560879D01*
X130434043Y-83698043D01*
X130296879Y-83810611D01*
X130140389Y-83894257D01*
X129970588Y-83945766D01*
X129838249Y-83958800D01*
X129749751Y-83958800D01*
X129617412Y-83945766D01*
X129447611Y-83894257D01*
X129291121Y-83810611D01*
X129153957Y-83698043D01*
X129041389Y-83560879D01*
X128957743Y-83404389D01*
X128906234Y-83234588D01*
X128888842Y-83058000D01*
X128906234Y-82881412D01*
X128957743Y-82711611D01*
X129041389Y-82555121D01*
X129153957Y-82417957D01*
X129291121Y-82305389D01*
X129447611Y-82221743D01*
X129617412Y-82170234D01*
X129749751Y-82157200D01*
X129838249Y-82157200D01*
X129970588Y-82170234D01*
X129970588Y-82170234D01*
G37*
G36*
X132510588Y-82170234D02*
X132680389Y-82221743D01*
X132836879Y-82305389D01*
X132974043Y-82417957D01*
X133086611Y-82555121D01*
X133170257Y-82711611D01*
X133221766Y-82881412D01*
X133239158Y-83058000D01*
X133221766Y-83234588D01*
X133170257Y-83404389D01*
X133086611Y-83560879D01*
X132974043Y-83698043D01*
X132836879Y-83810611D01*
X132680389Y-83894257D01*
X132510588Y-83945766D01*
X132378249Y-83958800D01*
X132289751Y-83958800D01*
X132157412Y-83945766D01*
X131987611Y-83894257D01*
X131831121Y-83810611D01*
X131693957Y-83698043D01*
X131581389Y-83560879D01*
X131497743Y-83404389D01*
X131446234Y-83234588D01*
X131428842Y-83058000D01*
X131446234Y-82881412D01*
X131497743Y-82711611D01*
X131581389Y-82555121D01*
X131693957Y-82417957D01*
X131831121Y-82305389D01*
X131987611Y-82221743D01*
X132157412Y-82170234D01*
X132289751Y-82157200D01*
X132378249Y-82157200D01*
X132510588Y-82170234D01*
X132510588Y-82170234D01*
G37*
G36*
X127430588Y-82170234D02*
X127600389Y-82221743D01*
X127756879Y-82305389D01*
X127894043Y-82417957D01*
X128006611Y-82555121D01*
X128090257Y-82711611D01*
X128141766Y-82881412D01*
X128159158Y-83058000D01*
X128141766Y-83234588D01*
X128090257Y-83404389D01*
X128006611Y-83560879D01*
X127894043Y-83698043D01*
X127756879Y-83810611D01*
X127600389Y-83894257D01*
X127430588Y-83945766D01*
X127298249Y-83958800D01*
X127209751Y-83958800D01*
X127077412Y-83945766D01*
X126907611Y-83894257D01*
X126751121Y-83810611D01*
X126613957Y-83698043D01*
X126501389Y-83560879D01*
X126417743Y-83404389D01*
X126366234Y-83234588D01*
X126348842Y-83058000D01*
X126366234Y-82881412D01*
X126417743Y-82711611D01*
X126501389Y-82555121D01*
X126613957Y-82417957D01*
X126751121Y-82305389D01*
X126907611Y-82221743D01*
X127077412Y-82170234D01*
X127209751Y-82157200D01*
X127298249Y-82157200D01*
X127430588Y-82170234D01*
X127430588Y-82170234D01*
G37*
G36*
X135050588Y-82170234D02*
X135220389Y-82221743D01*
X135376879Y-82305389D01*
X135514043Y-82417957D01*
X135626611Y-82555121D01*
X135710257Y-82711611D01*
X135761766Y-82881412D01*
X135779158Y-83058000D01*
X135761766Y-83234588D01*
X135710257Y-83404389D01*
X135626611Y-83560879D01*
X135514043Y-83698043D01*
X135376879Y-83810611D01*
X135220389Y-83894257D01*
X135050588Y-83945766D01*
X134918249Y-83958800D01*
X134829751Y-83958800D01*
X134697412Y-83945766D01*
X134527611Y-83894257D01*
X134371121Y-83810611D01*
X134233957Y-83698043D01*
X134121389Y-83560879D01*
X134037743Y-83404389D01*
X133986234Y-83234588D01*
X133968842Y-83058000D01*
X133986234Y-82881412D01*
X134037743Y-82711611D01*
X134121389Y-82555121D01*
X134233957Y-82417957D01*
X134371121Y-82305389D01*
X134527611Y-82221743D01*
X134697412Y-82170234D01*
X134829751Y-82157200D01*
X134918249Y-82157200D01*
X135050588Y-82170234D01*
X135050588Y-82170234D01*
G37*
G36*
X137590588Y-82170234D02*
X137760389Y-82221743D01*
X137916879Y-82305389D01*
X138054043Y-82417957D01*
X138166611Y-82555121D01*
X138250257Y-82711611D01*
X138301766Y-82881412D01*
X138319158Y-83058000D01*
X138301766Y-83234588D01*
X138250257Y-83404389D01*
X138166611Y-83560879D01*
X138054043Y-83698043D01*
X137916879Y-83810611D01*
X137760389Y-83894257D01*
X137590588Y-83945766D01*
X137458249Y-83958800D01*
X137369751Y-83958800D01*
X137237412Y-83945766D01*
X137067611Y-83894257D01*
X136911121Y-83810611D01*
X136773957Y-83698043D01*
X136661389Y-83560879D01*
X136577743Y-83404389D01*
X136526234Y-83234588D01*
X136508842Y-83058000D01*
X136526234Y-82881412D01*
X136577743Y-82711611D01*
X136661389Y-82555121D01*
X136773957Y-82417957D01*
X136911121Y-82305389D01*
X137067611Y-82221743D01*
X137237412Y-82170234D01*
X137369751Y-82157200D01*
X137458249Y-82157200D01*
X137590588Y-82170234D01*
X137590588Y-82170234D01*
G37*
G36*
X124890588Y-82170234D02*
X125060389Y-82221743D01*
X125216879Y-82305389D01*
X125354043Y-82417957D01*
X125466611Y-82555121D01*
X125550257Y-82711611D01*
X125601766Y-82881412D01*
X125619158Y-83058000D01*
X125601766Y-83234588D01*
X125550257Y-83404389D01*
X125466611Y-83560879D01*
X125354043Y-83698043D01*
X125216879Y-83810611D01*
X125060389Y-83894257D01*
X124890588Y-83945766D01*
X124758249Y-83958800D01*
X124669751Y-83958800D01*
X124537412Y-83945766D01*
X124367611Y-83894257D01*
X124211121Y-83810611D01*
X124073957Y-83698043D01*
X123961389Y-83560879D01*
X123877743Y-83404389D01*
X123826234Y-83234588D01*
X123808842Y-83058000D01*
X123826234Y-82881412D01*
X123877743Y-82711611D01*
X123961389Y-82555121D01*
X124073957Y-82417957D01*
X124211121Y-82305389D01*
X124367611Y-82221743D01*
X124537412Y-82170234D01*
X124669751Y-82157200D01*
X124758249Y-82157200D01*
X124890588Y-82170234D01*
X124890588Y-82170234D01*
G37*
G36*
X140130588Y-82170234D02*
X140300389Y-82221743D01*
X140456879Y-82305389D01*
X140594043Y-82417957D01*
X140706611Y-82555121D01*
X140790257Y-82711611D01*
X140841766Y-82881412D01*
X140859158Y-83058000D01*
X140841766Y-83234588D01*
X140790257Y-83404389D01*
X140706611Y-83560879D01*
X140594043Y-83698043D01*
X140456879Y-83810611D01*
X140300389Y-83894257D01*
X140130588Y-83945766D01*
X139998249Y-83958800D01*
X139909751Y-83958800D01*
X139777412Y-83945766D01*
X139607611Y-83894257D01*
X139451121Y-83810611D01*
X139313957Y-83698043D01*
X139201389Y-83560879D01*
X139117743Y-83404389D01*
X139066234Y-83234588D01*
X139048842Y-83058000D01*
X139066234Y-82881412D01*
X139117743Y-82711611D01*
X139201389Y-82555121D01*
X139313957Y-82417957D01*
X139451121Y-82305389D01*
X139607611Y-82221743D01*
X139777412Y-82170234D01*
X139909751Y-82157200D01*
X139998249Y-82157200D01*
X140130588Y-82170234D01*
X140130588Y-82170234D01*
G37*
G36*
X142670588Y-82170234D02*
X142840389Y-82221743D01*
X142996879Y-82305389D01*
X143134043Y-82417957D01*
X143246611Y-82555121D01*
X143330257Y-82711611D01*
X143381766Y-82881412D01*
X143399158Y-83058000D01*
X143381766Y-83234588D01*
X143330257Y-83404389D01*
X143246611Y-83560879D01*
X143134043Y-83698043D01*
X142996879Y-83810611D01*
X142840389Y-83894257D01*
X142670588Y-83945766D01*
X142538249Y-83958800D01*
X142449751Y-83958800D01*
X142317412Y-83945766D01*
X142147611Y-83894257D01*
X141991121Y-83810611D01*
X141853957Y-83698043D01*
X141741389Y-83560879D01*
X141657743Y-83404389D01*
X141606234Y-83234588D01*
X141588842Y-83058000D01*
X141606234Y-82881412D01*
X141657743Y-82711611D01*
X141741389Y-82555121D01*
X141853957Y-82417957D01*
X141991121Y-82305389D01*
X142147611Y-82221743D01*
X142317412Y-82170234D01*
X142449751Y-82157200D01*
X142538249Y-82157200D01*
X142670588Y-82170234D01*
X142670588Y-82170234D01*
G37*
G36*
X122350588Y-82170234D02*
X122520389Y-82221743D01*
X122676879Y-82305389D01*
X122814043Y-82417957D01*
X122926611Y-82555121D01*
X123010257Y-82711611D01*
X123061766Y-82881412D01*
X123079158Y-83058000D01*
X123061766Y-83234588D01*
X123010257Y-83404389D01*
X122926611Y-83560879D01*
X122814043Y-83698043D01*
X122676879Y-83810611D01*
X122520389Y-83894257D01*
X122350588Y-83945766D01*
X122218249Y-83958800D01*
X122129751Y-83958800D01*
X121997412Y-83945766D01*
X121827611Y-83894257D01*
X121671121Y-83810611D01*
X121533957Y-83698043D01*
X121421389Y-83560879D01*
X121337743Y-83404389D01*
X121286234Y-83234588D01*
X121268842Y-83058000D01*
X121286234Y-82881412D01*
X121337743Y-82711611D01*
X121421389Y-82555121D01*
X121533957Y-82417957D01*
X121671121Y-82305389D01*
X121827611Y-82221743D01*
X121997412Y-82170234D01*
X122129751Y-82157200D01*
X122218249Y-82157200D01*
X122350588Y-82170234D01*
X122350588Y-82170234D01*
G37*
G36*
X145210588Y-82170234D02*
X145380389Y-82221743D01*
X145536879Y-82305389D01*
X145674043Y-82417957D01*
X145786611Y-82555121D01*
X145870257Y-82711611D01*
X145921766Y-82881412D01*
X145939158Y-83058000D01*
X145921766Y-83234588D01*
X145870257Y-83404389D01*
X145786611Y-83560879D01*
X145674043Y-83698043D01*
X145536879Y-83810611D01*
X145380389Y-83894257D01*
X145210588Y-83945766D01*
X145078249Y-83958800D01*
X144989751Y-83958800D01*
X144857412Y-83945766D01*
X144687611Y-83894257D01*
X144531121Y-83810611D01*
X144393957Y-83698043D01*
X144281389Y-83560879D01*
X144197743Y-83404389D01*
X144146234Y-83234588D01*
X144128842Y-83058000D01*
X144146234Y-82881412D01*
X144197743Y-82711611D01*
X144281389Y-82555121D01*
X144393957Y-82417957D01*
X144531121Y-82305389D01*
X144687611Y-82221743D01*
X144857412Y-82170234D01*
X144989751Y-82157200D01*
X145078249Y-82157200D01*
X145210588Y-82170234D01*
X145210588Y-82170234D01*
G37*
G36*
X119810588Y-82170234D02*
X119980389Y-82221743D01*
X120136879Y-82305389D01*
X120274043Y-82417957D01*
X120386611Y-82555121D01*
X120470257Y-82711611D01*
X120521766Y-82881412D01*
X120539158Y-83058000D01*
X120521766Y-83234588D01*
X120470257Y-83404389D01*
X120386611Y-83560879D01*
X120274043Y-83698043D01*
X120136879Y-83810611D01*
X119980389Y-83894257D01*
X119810588Y-83945766D01*
X119678249Y-83958800D01*
X119589751Y-83958800D01*
X119457412Y-83945766D01*
X119287611Y-83894257D01*
X119131121Y-83810611D01*
X118993957Y-83698043D01*
X118881389Y-83560879D01*
X118797743Y-83404389D01*
X118746234Y-83234588D01*
X118728842Y-83058000D01*
X118746234Y-82881412D01*
X118797743Y-82711611D01*
X118881389Y-82555121D01*
X118993957Y-82417957D01*
X119131121Y-82305389D01*
X119287611Y-82221743D01*
X119457412Y-82170234D01*
X119589751Y-82157200D01*
X119678249Y-82157200D01*
X119810588Y-82170234D01*
X119810588Y-82170234D01*
G37*
G36*
X150290588Y-82170234D02*
X150460389Y-82221743D01*
X150616879Y-82305389D01*
X150754043Y-82417957D01*
X150866611Y-82555121D01*
X150950257Y-82711611D01*
X151001766Y-82881412D01*
X151019158Y-83058000D01*
X151001766Y-83234588D01*
X150950257Y-83404389D01*
X150866611Y-83560879D01*
X150754043Y-83698043D01*
X150616879Y-83810611D01*
X150460389Y-83894257D01*
X150290588Y-83945766D01*
X150158249Y-83958800D01*
X150069751Y-83958800D01*
X149937412Y-83945766D01*
X149767611Y-83894257D01*
X149611121Y-83810611D01*
X149473957Y-83698043D01*
X149361389Y-83560879D01*
X149277743Y-83404389D01*
X149226234Y-83234588D01*
X149208842Y-83058000D01*
X149226234Y-82881412D01*
X149277743Y-82711611D01*
X149361389Y-82555121D01*
X149473957Y-82417957D01*
X149611121Y-82305389D01*
X149767611Y-82221743D01*
X149937412Y-82170234D01*
X150069751Y-82157200D01*
X150158249Y-82157200D01*
X150290588Y-82170234D01*
X150290588Y-82170234D01*
G37*
G36*
X147750588Y-82170234D02*
X147920389Y-82221743D01*
X148076879Y-82305389D01*
X148214043Y-82417957D01*
X148326611Y-82555121D01*
X148410257Y-82711611D01*
X148461766Y-82881412D01*
X148479158Y-83058000D01*
X148461766Y-83234588D01*
X148410257Y-83404389D01*
X148326611Y-83560879D01*
X148214043Y-83698043D01*
X148076879Y-83810611D01*
X147920389Y-83894257D01*
X147750588Y-83945766D01*
X147618249Y-83958800D01*
X147529751Y-83958800D01*
X147397412Y-83945766D01*
X147227611Y-83894257D01*
X147071121Y-83810611D01*
X146933957Y-83698043D01*
X146821389Y-83560879D01*
X146737743Y-83404389D01*
X146686234Y-83234588D01*
X146668842Y-83058000D01*
X146686234Y-82881412D01*
X146737743Y-82711611D01*
X146821389Y-82555121D01*
X146933957Y-82417957D01*
X147071121Y-82305389D01*
X147227611Y-82221743D01*
X147397412Y-82170234D01*
X147529751Y-82157200D01*
X147618249Y-82157200D01*
X147750588Y-82170234D01*
X147750588Y-82170234D01*
G37*
G36*
X153554800Y-83958800D02*
X151753200Y-83958800D01*
X151753200Y-82157200D01*
X153554800Y-82157200D01*
X153554800Y-83958800D01*
X153554800Y-83958800D01*
G37*
M02*
