G04 #@! TF.GenerationSoftware,KiCad,Pcbnew,5.0.2+dfsg1-1*
G04 #@! TF.CreationDate,2020-03-15T11:59:51+01:00*
G04 #@! TF.ProjectId,BEE,4245452e-6b69-4636-9164-5f7063625858,1.0*
G04 #@! TF.SameCoordinates,Original*
G04 #@! TF.FileFunction,Paste,Top*
G04 #@! TF.FilePolarity,Positive*
%FSLAX46Y46*%
G04 Gerber Fmt 4.6, Leading zero omitted, Abs format (unit mm)*
G04 Created by KiCad (PCBNEW 5.0.2+dfsg1-1) date Sun 15 Mar 2020 11:59:51 AM CET*
%MOMM*%
%LPD*%
G01*
G04 APERTURE LIST*
%ADD10C,0.100000*%
%ADD11C,1.150000*%
%ADD12R,0.600000X1.500000*%
%ADD13R,2.100000X1.400000*%
%ADD14R,0.600000X1.550000*%
G04 APERTURE END LIST*
D10*
G04 #@! TO.C,R7*
G36*
X168174705Y-116928604D02*
X168198973Y-116932204D01*
X168222772Y-116938165D01*
X168245871Y-116946430D01*
X168268050Y-116956920D01*
X168289093Y-116969532D01*
X168308799Y-116984147D01*
X168326977Y-117000623D01*
X168343453Y-117018801D01*
X168358068Y-117038507D01*
X168370680Y-117059550D01*
X168381170Y-117081729D01*
X168389435Y-117104828D01*
X168395396Y-117128627D01*
X168398996Y-117152895D01*
X168400200Y-117177399D01*
X168400200Y-118077401D01*
X168398996Y-118101905D01*
X168395396Y-118126173D01*
X168389435Y-118149972D01*
X168381170Y-118173071D01*
X168370680Y-118195250D01*
X168358068Y-118216293D01*
X168343453Y-118235999D01*
X168326977Y-118254177D01*
X168308799Y-118270653D01*
X168289093Y-118285268D01*
X168268050Y-118297880D01*
X168245871Y-118308370D01*
X168222772Y-118316635D01*
X168198973Y-118322596D01*
X168174705Y-118326196D01*
X168150201Y-118327400D01*
X167500199Y-118327400D01*
X167475695Y-118326196D01*
X167451427Y-118322596D01*
X167427628Y-118316635D01*
X167404529Y-118308370D01*
X167382350Y-118297880D01*
X167361307Y-118285268D01*
X167341601Y-118270653D01*
X167323423Y-118254177D01*
X167306947Y-118235999D01*
X167292332Y-118216293D01*
X167279720Y-118195250D01*
X167269230Y-118173071D01*
X167260965Y-118149972D01*
X167255004Y-118126173D01*
X167251404Y-118101905D01*
X167250200Y-118077401D01*
X167250200Y-117177399D01*
X167251404Y-117152895D01*
X167255004Y-117128627D01*
X167260965Y-117104828D01*
X167269230Y-117081729D01*
X167279720Y-117059550D01*
X167292332Y-117038507D01*
X167306947Y-117018801D01*
X167323423Y-117000623D01*
X167341601Y-116984147D01*
X167361307Y-116969532D01*
X167382350Y-116956920D01*
X167404529Y-116946430D01*
X167427628Y-116938165D01*
X167451427Y-116932204D01*
X167475695Y-116928604D01*
X167500199Y-116927400D01*
X168150201Y-116927400D01*
X168174705Y-116928604D01*
X168174705Y-116928604D01*
G37*
D11*
X167825200Y-117627400D03*
D10*
G36*
X170224705Y-116928604D02*
X170248973Y-116932204D01*
X170272772Y-116938165D01*
X170295871Y-116946430D01*
X170318050Y-116956920D01*
X170339093Y-116969532D01*
X170358799Y-116984147D01*
X170376977Y-117000623D01*
X170393453Y-117018801D01*
X170408068Y-117038507D01*
X170420680Y-117059550D01*
X170431170Y-117081729D01*
X170439435Y-117104828D01*
X170445396Y-117128627D01*
X170448996Y-117152895D01*
X170450200Y-117177399D01*
X170450200Y-118077401D01*
X170448996Y-118101905D01*
X170445396Y-118126173D01*
X170439435Y-118149972D01*
X170431170Y-118173071D01*
X170420680Y-118195250D01*
X170408068Y-118216293D01*
X170393453Y-118235999D01*
X170376977Y-118254177D01*
X170358799Y-118270653D01*
X170339093Y-118285268D01*
X170318050Y-118297880D01*
X170295871Y-118308370D01*
X170272772Y-118316635D01*
X170248973Y-118322596D01*
X170224705Y-118326196D01*
X170200201Y-118327400D01*
X169550199Y-118327400D01*
X169525695Y-118326196D01*
X169501427Y-118322596D01*
X169477628Y-118316635D01*
X169454529Y-118308370D01*
X169432350Y-118297880D01*
X169411307Y-118285268D01*
X169391601Y-118270653D01*
X169373423Y-118254177D01*
X169356947Y-118235999D01*
X169342332Y-118216293D01*
X169329720Y-118195250D01*
X169319230Y-118173071D01*
X169310965Y-118149972D01*
X169305004Y-118126173D01*
X169301404Y-118101905D01*
X169300200Y-118077401D01*
X169300200Y-117177399D01*
X169301404Y-117152895D01*
X169305004Y-117128627D01*
X169310965Y-117104828D01*
X169319230Y-117081729D01*
X169329720Y-117059550D01*
X169342332Y-117038507D01*
X169356947Y-117018801D01*
X169373423Y-117000623D01*
X169391601Y-116984147D01*
X169411307Y-116969532D01*
X169432350Y-116956920D01*
X169454529Y-116946430D01*
X169477628Y-116938165D01*
X169501427Y-116932204D01*
X169525695Y-116928604D01*
X169550199Y-116927400D01*
X170200201Y-116927400D01*
X170224705Y-116928604D01*
X170224705Y-116928604D01*
G37*
D11*
X169875200Y-117627400D03*
G04 #@! TD*
D10*
G04 #@! TO.C,R15*
G36*
X158116305Y-117563604D02*
X158140573Y-117567204D01*
X158164372Y-117573165D01*
X158187471Y-117581430D01*
X158209650Y-117591920D01*
X158230693Y-117604532D01*
X158250399Y-117619147D01*
X158268577Y-117635623D01*
X158285053Y-117653801D01*
X158299668Y-117673507D01*
X158312280Y-117694550D01*
X158322770Y-117716729D01*
X158331035Y-117739828D01*
X158336996Y-117763627D01*
X158340596Y-117787895D01*
X158341800Y-117812399D01*
X158341800Y-118712401D01*
X158340596Y-118736905D01*
X158336996Y-118761173D01*
X158331035Y-118784972D01*
X158322770Y-118808071D01*
X158312280Y-118830250D01*
X158299668Y-118851293D01*
X158285053Y-118870999D01*
X158268577Y-118889177D01*
X158250399Y-118905653D01*
X158230693Y-118920268D01*
X158209650Y-118932880D01*
X158187471Y-118943370D01*
X158164372Y-118951635D01*
X158140573Y-118957596D01*
X158116305Y-118961196D01*
X158091801Y-118962400D01*
X157441799Y-118962400D01*
X157417295Y-118961196D01*
X157393027Y-118957596D01*
X157369228Y-118951635D01*
X157346129Y-118943370D01*
X157323950Y-118932880D01*
X157302907Y-118920268D01*
X157283201Y-118905653D01*
X157265023Y-118889177D01*
X157248547Y-118870999D01*
X157233932Y-118851293D01*
X157221320Y-118830250D01*
X157210830Y-118808071D01*
X157202565Y-118784972D01*
X157196604Y-118761173D01*
X157193004Y-118736905D01*
X157191800Y-118712401D01*
X157191800Y-117812399D01*
X157193004Y-117787895D01*
X157196604Y-117763627D01*
X157202565Y-117739828D01*
X157210830Y-117716729D01*
X157221320Y-117694550D01*
X157233932Y-117673507D01*
X157248547Y-117653801D01*
X157265023Y-117635623D01*
X157283201Y-117619147D01*
X157302907Y-117604532D01*
X157323950Y-117591920D01*
X157346129Y-117581430D01*
X157369228Y-117573165D01*
X157393027Y-117567204D01*
X157417295Y-117563604D01*
X157441799Y-117562400D01*
X158091801Y-117562400D01*
X158116305Y-117563604D01*
X158116305Y-117563604D01*
G37*
D11*
X157766800Y-118262400D03*
D10*
G36*
X160166305Y-117563604D02*
X160190573Y-117567204D01*
X160214372Y-117573165D01*
X160237471Y-117581430D01*
X160259650Y-117591920D01*
X160280693Y-117604532D01*
X160300399Y-117619147D01*
X160318577Y-117635623D01*
X160335053Y-117653801D01*
X160349668Y-117673507D01*
X160362280Y-117694550D01*
X160372770Y-117716729D01*
X160381035Y-117739828D01*
X160386996Y-117763627D01*
X160390596Y-117787895D01*
X160391800Y-117812399D01*
X160391800Y-118712401D01*
X160390596Y-118736905D01*
X160386996Y-118761173D01*
X160381035Y-118784972D01*
X160372770Y-118808071D01*
X160362280Y-118830250D01*
X160349668Y-118851293D01*
X160335053Y-118870999D01*
X160318577Y-118889177D01*
X160300399Y-118905653D01*
X160280693Y-118920268D01*
X160259650Y-118932880D01*
X160237471Y-118943370D01*
X160214372Y-118951635D01*
X160190573Y-118957596D01*
X160166305Y-118961196D01*
X160141801Y-118962400D01*
X159491799Y-118962400D01*
X159467295Y-118961196D01*
X159443027Y-118957596D01*
X159419228Y-118951635D01*
X159396129Y-118943370D01*
X159373950Y-118932880D01*
X159352907Y-118920268D01*
X159333201Y-118905653D01*
X159315023Y-118889177D01*
X159298547Y-118870999D01*
X159283932Y-118851293D01*
X159271320Y-118830250D01*
X159260830Y-118808071D01*
X159252565Y-118784972D01*
X159246604Y-118761173D01*
X159243004Y-118736905D01*
X159241800Y-118712401D01*
X159241800Y-117812399D01*
X159243004Y-117787895D01*
X159246604Y-117763627D01*
X159252565Y-117739828D01*
X159260830Y-117716729D01*
X159271320Y-117694550D01*
X159283932Y-117673507D01*
X159298547Y-117653801D01*
X159315023Y-117635623D01*
X159333201Y-117619147D01*
X159352907Y-117604532D01*
X159373950Y-117591920D01*
X159396129Y-117581430D01*
X159419228Y-117573165D01*
X159443027Y-117567204D01*
X159467295Y-117563604D01*
X159491799Y-117562400D01*
X160141801Y-117562400D01*
X160166305Y-117563604D01*
X160166305Y-117563604D01*
G37*
D11*
X159816800Y-118262400D03*
G04 #@! TD*
D10*
G04 #@! TO.C,C2*
G36*
X147863705Y-101802904D02*
X147887973Y-101806504D01*
X147911772Y-101812465D01*
X147934871Y-101820730D01*
X147957050Y-101831220D01*
X147978093Y-101843832D01*
X147997799Y-101858447D01*
X148015977Y-101874923D01*
X148032453Y-101893101D01*
X148047068Y-101912807D01*
X148059680Y-101933850D01*
X148070170Y-101956029D01*
X148078435Y-101979128D01*
X148084396Y-102002927D01*
X148087996Y-102027195D01*
X148089200Y-102051699D01*
X148089200Y-102951701D01*
X148087996Y-102976205D01*
X148084396Y-103000473D01*
X148078435Y-103024272D01*
X148070170Y-103047371D01*
X148059680Y-103069550D01*
X148047068Y-103090593D01*
X148032453Y-103110299D01*
X148015977Y-103128477D01*
X147997799Y-103144953D01*
X147978093Y-103159568D01*
X147957050Y-103172180D01*
X147934871Y-103182670D01*
X147911772Y-103190935D01*
X147887973Y-103196896D01*
X147863705Y-103200496D01*
X147839201Y-103201700D01*
X147189199Y-103201700D01*
X147164695Y-103200496D01*
X147140427Y-103196896D01*
X147116628Y-103190935D01*
X147093529Y-103182670D01*
X147071350Y-103172180D01*
X147050307Y-103159568D01*
X147030601Y-103144953D01*
X147012423Y-103128477D01*
X146995947Y-103110299D01*
X146981332Y-103090593D01*
X146968720Y-103069550D01*
X146958230Y-103047371D01*
X146949965Y-103024272D01*
X146944004Y-103000473D01*
X146940404Y-102976205D01*
X146939200Y-102951701D01*
X146939200Y-102051699D01*
X146940404Y-102027195D01*
X146944004Y-102002927D01*
X146949965Y-101979128D01*
X146958230Y-101956029D01*
X146968720Y-101933850D01*
X146981332Y-101912807D01*
X146995947Y-101893101D01*
X147012423Y-101874923D01*
X147030601Y-101858447D01*
X147050307Y-101843832D01*
X147071350Y-101831220D01*
X147093529Y-101820730D01*
X147116628Y-101812465D01*
X147140427Y-101806504D01*
X147164695Y-101802904D01*
X147189199Y-101801700D01*
X147839201Y-101801700D01*
X147863705Y-101802904D01*
X147863705Y-101802904D01*
G37*
D11*
X147514200Y-102501700D03*
D10*
G36*
X149913705Y-101802904D02*
X149937973Y-101806504D01*
X149961772Y-101812465D01*
X149984871Y-101820730D01*
X150007050Y-101831220D01*
X150028093Y-101843832D01*
X150047799Y-101858447D01*
X150065977Y-101874923D01*
X150082453Y-101893101D01*
X150097068Y-101912807D01*
X150109680Y-101933850D01*
X150120170Y-101956029D01*
X150128435Y-101979128D01*
X150134396Y-102002927D01*
X150137996Y-102027195D01*
X150139200Y-102051699D01*
X150139200Y-102951701D01*
X150137996Y-102976205D01*
X150134396Y-103000473D01*
X150128435Y-103024272D01*
X150120170Y-103047371D01*
X150109680Y-103069550D01*
X150097068Y-103090593D01*
X150082453Y-103110299D01*
X150065977Y-103128477D01*
X150047799Y-103144953D01*
X150028093Y-103159568D01*
X150007050Y-103172180D01*
X149984871Y-103182670D01*
X149961772Y-103190935D01*
X149937973Y-103196896D01*
X149913705Y-103200496D01*
X149889201Y-103201700D01*
X149239199Y-103201700D01*
X149214695Y-103200496D01*
X149190427Y-103196896D01*
X149166628Y-103190935D01*
X149143529Y-103182670D01*
X149121350Y-103172180D01*
X149100307Y-103159568D01*
X149080601Y-103144953D01*
X149062423Y-103128477D01*
X149045947Y-103110299D01*
X149031332Y-103090593D01*
X149018720Y-103069550D01*
X149008230Y-103047371D01*
X148999965Y-103024272D01*
X148994004Y-103000473D01*
X148990404Y-102976205D01*
X148989200Y-102951701D01*
X148989200Y-102051699D01*
X148990404Y-102027195D01*
X148994004Y-102002927D01*
X148999965Y-101979128D01*
X149008230Y-101956029D01*
X149018720Y-101933850D01*
X149031332Y-101912807D01*
X149045947Y-101893101D01*
X149062423Y-101874923D01*
X149080601Y-101858447D01*
X149100307Y-101843832D01*
X149121350Y-101831220D01*
X149143529Y-101820730D01*
X149166628Y-101812465D01*
X149190427Y-101806504D01*
X149214695Y-101802904D01*
X149239199Y-101801700D01*
X149889201Y-101801700D01*
X149913705Y-101802904D01*
X149913705Y-101802904D01*
G37*
D11*
X149564200Y-102501700D03*
G04 #@! TD*
D10*
G04 #@! TO.C,D2*
G36*
X122693905Y-115252204D02*
X122718173Y-115255804D01*
X122741972Y-115261765D01*
X122765071Y-115270030D01*
X122787250Y-115280520D01*
X122808293Y-115293132D01*
X122827999Y-115307747D01*
X122846177Y-115324223D01*
X122862653Y-115342401D01*
X122877268Y-115362107D01*
X122889880Y-115383150D01*
X122900370Y-115405329D01*
X122908635Y-115428428D01*
X122914596Y-115452227D01*
X122918196Y-115476495D01*
X122919400Y-115500999D01*
X122919400Y-116401001D01*
X122918196Y-116425505D01*
X122914596Y-116449773D01*
X122908635Y-116473572D01*
X122900370Y-116496671D01*
X122889880Y-116518850D01*
X122877268Y-116539893D01*
X122862653Y-116559599D01*
X122846177Y-116577777D01*
X122827999Y-116594253D01*
X122808293Y-116608868D01*
X122787250Y-116621480D01*
X122765071Y-116631970D01*
X122741972Y-116640235D01*
X122718173Y-116646196D01*
X122693905Y-116649796D01*
X122669401Y-116651000D01*
X122019399Y-116651000D01*
X121994895Y-116649796D01*
X121970627Y-116646196D01*
X121946828Y-116640235D01*
X121923729Y-116631970D01*
X121901550Y-116621480D01*
X121880507Y-116608868D01*
X121860801Y-116594253D01*
X121842623Y-116577777D01*
X121826147Y-116559599D01*
X121811532Y-116539893D01*
X121798920Y-116518850D01*
X121788430Y-116496671D01*
X121780165Y-116473572D01*
X121774204Y-116449773D01*
X121770604Y-116425505D01*
X121769400Y-116401001D01*
X121769400Y-115500999D01*
X121770604Y-115476495D01*
X121774204Y-115452227D01*
X121780165Y-115428428D01*
X121788430Y-115405329D01*
X121798920Y-115383150D01*
X121811532Y-115362107D01*
X121826147Y-115342401D01*
X121842623Y-115324223D01*
X121860801Y-115307747D01*
X121880507Y-115293132D01*
X121901550Y-115280520D01*
X121923729Y-115270030D01*
X121946828Y-115261765D01*
X121970627Y-115255804D01*
X121994895Y-115252204D01*
X122019399Y-115251000D01*
X122669401Y-115251000D01*
X122693905Y-115252204D01*
X122693905Y-115252204D01*
G37*
D11*
X122344400Y-115951000D03*
D10*
G36*
X120643905Y-115252204D02*
X120668173Y-115255804D01*
X120691972Y-115261765D01*
X120715071Y-115270030D01*
X120737250Y-115280520D01*
X120758293Y-115293132D01*
X120777999Y-115307747D01*
X120796177Y-115324223D01*
X120812653Y-115342401D01*
X120827268Y-115362107D01*
X120839880Y-115383150D01*
X120850370Y-115405329D01*
X120858635Y-115428428D01*
X120864596Y-115452227D01*
X120868196Y-115476495D01*
X120869400Y-115500999D01*
X120869400Y-116401001D01*
X120868196Y-116425505D01*
X120864596Y-116449773D01*
X120858635Y-116473572D01*
X120850370Y-116496671D01*
X120839880Y-116518850D01*
X120827268Y-116539893D01*
X120812653Y-116559599D01*
X120796177Y-116577777D01*
X120777999Y-116594253D01*
X120758293Y-116608868D01*
X120737250Y-116621480D01*
X120715071Y-116631970D01*
X120691972Y-116640235D01*
X120668173Y-116646196D01*
X120643905Y-116649796D01*
X120619401Y-116651000D01*
X119969399Y-116651000D01*
X119944895Y-116649796D01*
X119920627Y-116646196D01*
X119896828Y-116640235D01*
X119873729Y-116631970D01*
X119851550Y-116621480D01*
X119830507Y-116608868D01*
X119810801Y-116594253D01*
X119792623Y-116577777D01*
X119776147Y-116559599D01*
X119761532Y-116539893D01*
X119748920Y-116518850D01*
X119738430Y-116496671D01*
X119730165Y-116473572D01*
X119724204Y-116449773D01*
X119720604Y-116425505D01*
X119719400Y-116401001D01*
X119719400Y-115500999D01*
X119720604Y-115476495D01*
X119724204Y-115452227D01*
X119730165Y-115428428D01*
X119738430Y-115405329D01*
X119748920Y-115383150D01*
X119761532Y-115362107D01*
X119776147Y-115342401D01*
X119792623Y-115324223D01*
X119810801Y-115307747D01*
X119830507Y-115293132D01*
X119851550Y-115280520D01*
X119873729Y-115270030D01*
X119896828Y-115261765D01*
X119920627Y-115255804D01*
X119944895Y-115252204D01*
X119969399Y-115251000D01*
X120619401Y-115251000D01*
X120643905Y-115252204D01*
X120643905Y-115252204D01*
G37*
D11*
X120294400Y-115951000D03*
G04 #@! TD*
D12*
G04 #@! TO.C,U1*
X154711400Y-108986300D03*
X155981400Y-108986300D03*
X157251400Y-108986300D03*
X158521400Y-108986300D03*
X159791400Y-108986300D03*
X161061400Y-108986300D03*
X162331400Y-108986300D03*
X163601400Y-108986300D03*
X163601400Y-103586300D03*
X162331400Y-103586300D03*
X161061400Y-103586300D03*
X159791400Y-103586300D03*
X158521400Y-103586300D03*
X157251400Y-103586300D03*
X155981400Y-103586300D03*
X154711400Y-103586300D03*
G04 #@! TD*
D10*
G04 #@! TO.C,R2*
G36*
X122693905Y-113220204D02*
X122718173Y-113223804D01*
X122741972Y-113229765D01*
X122765071Y-113238030D01*
X122787250Y-113248520D01*
X122808293Y-113261132D01*
X122827999Y-113275747D01*
X122846177Y-113292223D01*
X122862653Y-113310401D01*
X122877268Y-113330107D01*
X122889880Y-113351150D01*
X122900370Y-113373329D01*
X122908635Y-113396428D01*
X122914596Y-113420227D01*
X122918196Y-113444495D01*
X122919400Y-113468999D01*
X122919400Y-114369001D01*
X122918196Y-114393505D01*
X122914596Y-114417773D01*
X122908635Y-114441572D01*
X122900370Y-114464671D01*
X122889880Y-114486850D01*
X122877268Y-114507893D01*
X122862653Y-114527599D01*
X122846177Y-114545777D01*
X122827999Y-114562253D01*
X122808293Y-114576868D01*
X122787250Y-114589480D01*
X122765071Y-114599970D01*
X122741972Y-114608235D01*
X122718173Y-114614196D01*
X122693905Y-114617796D01*
X122669401Y-114619000D01*
X122019399Y-114619000D01*
X121994895Y-114617796D01*
X121970627Y-114614196D01*
X121946828Y-114608235D01*
X121923729Y-114599970D01*
X121901550Y-114589480D01*
X121880507Y-114576868D01*
X121860801Y-114562253D01*
X121842623Y-114545777D01*
X121826147Y-114527599D01*
X121811532Y-114507893D01*
X121798920Y-114486850D01*
X121788430Y-114464671D01*
X121780165Y-114441572D01*
X121774204Y-114417773D01*
X121770604Y-114393505D01*
X121769400Y-114369001D01*
X121769400Y-113468999D01*
X121770604Y-113444495D01*
X121774204Y-113420227D01*
X121780165Y-113396428D01*
X121788430Y-113373329D01*
X121798920Y-113351150D01*
X121811532Y-113330107D01*
X121826147Y-113310401D01*
X121842623Y-113292223D01*
X121860801Y-113275747D01*
X121880507Y-113261132D01*
X121901550Y-113248520D01*
X121923729Y-113238030D01*
X121946828Y-113229765D01*
X121970627Y-113223804D01*
X121994895Y-113220204D01*
X122019399Y-113219000D01*
X122669401Y-113219000D01*
X122693905Y-113220204D01*
X122693905Y-113220204D01*
G37*
D11*
X122344400Y-113919000D03*
D10*
G36*
X120643905Y-113220204D02*
X120668173Y-113223804D01*
X120691972Y-113229765D01*
X120715071Y-113238030D01*
X120737250Y-113248520D01*
X120758293Y-113261132D01*
X120777999Y-113275747D01*
X120796177Y-113292223D01*
X120812653Y-113310401D01*
X120827268Y-113330107D01*
X120839880Y-113351150D01*
X120850370Y-113373329D01*
X120858635Y-113396428D01*
X120864596Y-113420227D01*
X120868196Y-113444495D01*
X120869400Y-113468999D01*
X120869400Y-114369001D01*
X120868196Y-114393505D01*
X120864596Y-114417773D01*
X120858635Y-114441572D01*
X120850370Y-114464671D01*
X120839880Y-114486850D01*
X120827268Y-114507893D01*
X120812653Y-114527599D01*
X120796177Y-114545777D01*
X120777999Y-114562253D01*
X120758293Y-114576868D01*
X120737250Y-114589480D01*
X120715071Y-114599970D01*
X120691972Y-114608235D01*
X120668173Y-114614196D01*
X120643905Y-114617796D01*
X120619401Y-114619000D01*
X119969399Y-114619000D01*
X119944895Y-114617796D01*
X119920627Y-114614196D01*
X119896828Y-114608235D01*
X119873729Y-114599970D01*
X119851550Y-114589480D01*
X119830507Y-114576868D01*
X119810801Y-114562253D01*
X119792623Y-114545777D01*
X119776147Y-114527599D01*
X119761532Y-114507893D01*
X119748920Y-114486850D01*
X119738430Y-114464671D01*
X119730165Y-114441572D01*
X119724204Y-114417773D01*
X119720604Y-114393505D01*
X119719400Y-114369001D01*
X119719400Y-113468999D01*
X119720604Y-113444495D01*
X119724204Y-113420227D01*
X119730165Y-113396428D01*
X119738430Y-113373329D01*
X119748920Y-113351150D01*
X119761532Y-113330107D01*
X119776147Y-113310401D01*
X119792623Y-113292223D01*
X119810801Y-113275747D01*
X119830507Y-113261132D01*
X119851550Y-113248520D01*
X119873729Y-113238030D01*
X119896828Y-113229765D01*
X119920627Y-113223804D01*
X119944895Y-113220204D01*
X119969399Y-113219000D01*
X120619401Y-113219000D01*
X120643905Y-113220204D01*
X120643905Y-113220204D01*
G37*
D11*
X120294400Y-113919000D03*
G04 #@! TD*
D10*
G04 #@! TO.C,R3*
G36*
X116842905Y-113220204D02*
X116867173Y-113223804D01*
X116890972Y-113229765D01*
X116914071Y-113238030D01*
X116936250Y-113248520D01*
X116957293Y-113261132D01*
X116976999Y-113275747D01*
X116995177Y-113292223D01*
X117011653Y-113310401D01*
X117026268Y-113330107D01*
X117038880Y-113351150D01*
X117049370Y-113373329D01*
X117057635Y-113396428D01*
X117063596Y-113420227D01*
X117067196Y-113444495D01*
X117068400Y-113468999D01*
X117068400Y-114369001D01*
X117067196Y-114393505D01*
X117063596Y-114417773D01*
X117057635Y-114441572D01*
X117049370Y-114464671D01*
X117038880Y-114486850D01*
X117026268Y-114507893D01*
X117011653Y-114527599D01*
X116995177Y-114545777D01*
X116976999Y-114562253D01*
X116957293Y-114576868D01*
X116936250Y-114589480D01*
X116914071Y-114599970D01*
X116890972Y-114608235D01*
X116867173Y-114614196D01*
X116842905Y-114617796D01*
X116818401Y-114619000D01*
X116168399Y-114619000D01*
X116143895Y-114617796D01*
X116119627Y-114614196D01*
X116095828Y-114608235D01*
X116072729Y-114599970D01*
X116050550Y-114589480D01*
X116029507Y-114576868D01*
X116009801Y-114562253D01*
X115991623Y-114545777D01*
X115975147Y-114527599D01*
X115960532Y-114507893D01*
X115947920Y-114486850D01*
X115937430Y-114464671D01*
X115929165Y-114441572D01*
X115923204Y-114417773D01*
X115919604Y-114393505D01*
X115918400Y-114369001D01*
X115918400Y-113468999D01*
X115919604Y-113444495D01*
X115923204Y-113420227D01*
X115929165Y-113396428D01*
X115937430Y-113373329D01*
X115947920Y-113351150D01*
X115960532Y-113330107D01*
X115975147Y-113310401D01*
X115991623Y-113292223D01*
X116009801Y-113275747D01*
X116029507Y-113261132D01*
X116050550Y-113248520D01*
X116072729Y-113238030D01*
X116095828Y-113229765D01*
X116119627Y-113223804D01*
X116143895Y-113220204D01*
X116168399Y-113219000D01*
X116818401Y-113219000D01*
X116842905Y-113220204D01*
X116842905Y-113220204D01*
G37*
D11*
X116493400Y-113919000D03*
D10*
G36*
X114792905Y-113220204D02*
X114817173Y-113223804D01*
X114840972Y-113229765D01*
X114864071Y-113238030D01*
X114886250Y-113248520D01*
X114907293Y-113261132D01*
X114926999Y-113275747D01*
X114945177Y-113292223D01*
X114961653Y-113310401D01*
X114976268Y-113330107D01*
X114988880Y-113351150D01*
X114999370Y-113373329D01*
X115007635Y-113396428D01*
X115013596Y-113420227D01*
X115017196Y-113444495D01*
X115018400Y-113468999D01*
X115018400Y-114369001D01*
X115017196Y-114393505D01*
X115013596Y-114417773D01*
X115007635Y-114441572D01*
X114999370Y-114464671D01*
X114988880Y-114486850D01*
X114976268Y-114507893D01*
X114961653Y-114527599D01*
X114945177Y-114545777D01*
X114926999Y-114562253D01*
X114907293Y-114576868D01*
X114886250Y-114589480D01*
X114864071Y-114599970D01*
X114840972Y-114608235D01*
X114817173Y-114614196D01*
X114792905Y-114617796D01*
X114768401Y-114619000D01*
X114118399Y-114619000D01*
X114093895Y-114617796D01*
X114069627Y-114614196D01*
X114045828Y-114608235D01*
X114022729Y-114599970D01*
X114000550Y-114589480D01*
X113979507Y-114576868D01*
X113959801Y-114562253D01*
X113941623Y-114545777D01*
X113925147Y-114527599D01*
X113910532Y-114507893D01*
X113897920Y-114486850D01*
X113887430Y-114464671D01*
X113879165Y-114441572D01*
X113873204Y-114417773D01*
X113869604Y-114393505D01*
X113868400Y-114369001D01*
X113868400Y-113468999D01*
X113869604Y-113444495D01*
X113873204Y-113420227D01*
X113879165Y-113396428D01*
X113887430Y-113373329D01*
X113897920Y-113351150D01*
X113910532Y-113330107D01*
X113925147Y-113310401D01*
X113941623Y-113292223D01*
X113959801Y-113275747D01*
X113979507Y-113261132D01*
X114000550Y-113248520D01*
X114022729Y-113238030D01*
X114045828Y-113229765D01*
X114069627Y-113223804D01*
X114093895Y-113220204D01*
X114118399Y-113219000D01*
X114768401Y-113219000D01*
X114792905Y-113220204D01*
X114792905Y-113220204D01*
G37*
D11*
X114443400Y-113919000D03*
G04 #@! TD*
D10*
G04 #@! TO.C,D1*
G36*
X128526905Y-115252204D02*
X128551173Y-115255804D01*
X128574972Y-115261765D01*
X128598071Y-115270030D01*
X128620250Y-115280520D01*
X128641293Y-115293132D01*
X128660999Y-115307747D01*
X128679177Y-115324223D01*
X128695653Y-115342401D01*
X128710268Y-115362107D01*
X128722880Y-115383150D01*
X128733370Y-115405329D01*
X128741635Y-115428428D01*
X128747596Y-115452227D01*
X128751196Y-115476495D01*
X128752400Y-115500999D01*
X128752400Y-116401001D01*
X128751196Y-116425505D01*
X128747596Y-116449773D01*
X128741635Y-116473572D01*
X128733370Y-116496671D01*
X128722880Y-116518850D01*
X128710268Y-116539893D01*
X128695653Y-116559599D01*
X128679177Y-116577777D01*
X128660999Y-116594253D01*
X128641293Y-116608868D01*
X128620250Y-116621480D01*
X128598071Y-116631970D01*
X128574972Y-116640235D01*
X128551173Y-116646196D01*
X128526905Y-116649796D01*
X128502401Y-116651000D01*
X127852399Y-116651000D01*
X127827895Y-116649796D01*
X127803627Y-116646196D01*
X127779828Y-116640235D01*
X127756729Y-116631970D01*
X127734550Y-116621480D01*
X127713507Y-116608868D01*
X127693801Y-116594253D01*
X127675623Y-116577777D01*
X127659147Y-116559599D01*
X127644532Y-116539893D01*
X127631920Y-116518850D01*
X127621430Y-116496671D01*
X127613165Y-116473572D01*
X127607204Y-116449773D01*
X127603604Y-116425505D01*
X127602400Y-116401001D01*
X127602400Y-115500999D01*
X127603604Y-115476495D01*
X127607204Y-115452227D01*
X127613165Y-115428428D01*
X127621430Y-115405329D01*
X127631920Y-115383150D01*
X127644532Y-115362107D01*
X127659147Y-115342401D01*
X127675623Y-115324223D01*
X127693801Y-115307747D01*
X127713507Y-115293132D01*
X127734550Y-115280520D01*
X127756729Y-115270030D01*
X127779828Y-115261765D01*
X127803627Y-115255804D01*
X127827895Y-115252204D01*
X127852399Y-115251000D01*
X128502401Y-115251000D01*
X128526905Y-115252204D01*
X128526905Y-115252204D01*
G37*
D11*
X128177400Y-115951000D03*
D10*
G36*
X126476905Y-115252204D02*
X126501173Y-115255804D01*
X126524972Y-115261765D01*
X126548071Y-115270030D01*
X126570250Y-115280520D01*
X126591293Y-115293132D01*
X126610999Y-115307747D01*
X126629177Y-115324223D01*
X126645653Y-115342401D01*
X126660268Y-115362107D01*
X126672880Y-115383150D01*
X126683370Y-115405329D01*
X126691635Y-115428428D01*
X126697596Y-115452227D01*
X126701196Y-115476495D01*
X126702400Y-115500999D01*
X126702400Y-116401001D01*
X126701196Y-116425505D01*
X126697596Y-116449773D01*
X126691635Y-116473572D01*
X126683370Y-116496671D01*
X126672880Y-116518850D01*
X126660268Y-116539893D01*
X126645653Y-116559599D01*
X126629177Y-116577777D01*
X126610999Y-116594253D01*
X126591293Y-116608868D01*
X126570250Y-116621480D01*
X126548071Y-116631970D01*
X126524972Y-116640235D01*
X126501173Y-116646196D01*
X126476905Y-116649796D01*
X126452401Y-116651000D01*
X125802399Y-116651000D01*
X125777895Y-116649796D01*
X125753627Y-116646196D01*
X125729828Y-116640235D01*
X125706729Y-116631970D01*
X125684550Y-116621480D01*
X125663507Y-116608868D01*
X125643801Y-116594253D01*
X125625623Y-116577777D01*
X125609147Y-116559599D01*
X125594532Y-116539893D01*
X125581920Y-116518850D01*
X125571430Y-116496671D01*
X125563165Y-116473572D01*
X125557204Y-116449773D01*
X125553604Y-116425505D01*
X125552400Y-116401001D01*
X125552400Y-115500999D01*
X125553604Y-115476495D01*
X125557204Y-115452227D01*
X125563165Y-115428428D01*
X125571430Y-115405329D01*
X125581920Y-115383150D01*
X125594532Y-115362107D01*
X125609147Y-115342401D01*
X125625623Y-115324223D01*
X125643801Y-115307747D01*
X125663507Y-115293132D01*
X125684550Y-115280520D01*
X125706729Y-115270030D01*
X125729828Y-115261765D01*
X125753627Y-115255804D01*
X125777895Y-115252204D01*
X125802399Y-115251000D01*
X126452401Y-115251000D01*
X126476905Y-115252204D01*
X126476905Y-115252204D01*
G37*
D11*
X126127400Y-115951000D03*
G04 #@! TD*
D10*
G04 #@! TO.C,R1*
G36*
X128517905Y-113220204D02*
X128542173Y-113223804D01*
X128565972Y-113229765D01*
X128589071Y-113238030D01*
X128611250Y-113248520D01*
X128632293Y-113261132D01*
X128651999Y-113275747D01*
X128670177Y-113292223D01*
X128686653Y-113310401D01*
X128701268Y-113330107D01*
X128713880Y-113351150D01*
X128724370Y-113373329D01*
X128732635Y-113396428D01*
X128738596Y-113420227D01*
X128742196Y-113444495D01*
X128743400Y-113468999D01*
X128743400Y-114369001D01*
X128742196Y-114393505D01*
X128738596Y-114417773D01*
X128732635Y-114441572D01*
X128724370Y-114464671D01*
X128713880Y-114486850D01*
X128701268Y-114507893D01*
X128686653Y-114527599D01*
X128670177Y-114545777D01*
X128651999Y-114562253D01*
X128632293Y-114576868D01*
X128611250Y-114589480D01*
X128589071Y-114599970D01*
X128565972Y-114608235D01*
X128542173Y-114614196D01*
X128517905Y-114617796D01*
X128493401Y-114619000D01*
X127843399Y-114619000D01*
X127818895Y-114617796D01*
X127794627Y-114614196D01*
X127770828Y-114608235D01*
X127747729Y-114599970D01*
X127725550Y-114589480D01*
X127704507Y-114576868D01*
X127684801Y-114562253D01*
X127666623Y-114545777D01*
X127650147Y-114527599D01*
X127635532Y-114507893D01*
X127622920Y-114486850D01*
X127612430Y-114464671D01*
X127604165Y-114441572D01*
X127598204Y-114417773D01*
X127594604Y-114393505D01*
X127593400Y-114369001D01*
X127593400Y-113468999D01*
X127594604Y-113444495D01*
X127598204Y-113420227D01*
X127604165Y-113396428D01*
X127612430Y-113373329D01*
X127622920Y-113351150D01*
X127635532Y-113330107D01*
X127650147Y-113310401D01*
X127666623Y-113292223D01*
X127684801Y-113275747D01*
X127704507Y-113261132D01*
X127725550Y-113248520D01*
X127747729Y-113238030D01*
X127770828Y-113229765D01*
X127794627Y-113223804D01*
X127818895Y-113220204D01*
X127843399Y-113219000D01*
X128493401Y-113219000D01*
X128517905Y-113220204D01*
X128517905Y-113220204D01*
G37*
D11*
X128168400Y-113919000D03*
D10*
G36*
X126467905Y-113220204D02*
X126492173Y-113223804D01*
X126515972Y-113229765D01*
X126539071Y-113238030D01*
X126561250Y-113248520D01*
X126582293Y-113261132D01*
X126601999Y-113275747D01*
X126620177Y-113292223D01*
X126636653Y-113310401D01*
X126651268Y-113330107D01*
X126663880Y-113351150D01*
X126674370Y-113373329D01*
X126682635Y-113396428D01*
X126688596Y-113420227D01*
X126692196Y-113444495D01*
X126693400Y-113468999D01*
X126693400Y-114369001D01*
X126692196Y-114393505D01*
X126688596Y-114417773D01*
X126682635Y-114441572D01*
X126674370Y-114464671D01*
X126663880Y-114486850D01*
X126651268Y-114507893D01*
X126636653Y-114527599D01*
X126620177Y-114545777D01*
X126601999Y-114562253D01*
X126582293Y-114576868D01*
X126561250Y-114589480D01*
X126539071Y-114599970D01*
X126515972Y-114608235D01*
X126492173Y-114614196D01*
X126467905Y-114617796D01*
X126443401Y-114619000D01*
X125793399Y-114619000D01*
X125768895Y-114617796D01*
X125744627Y-114614196D01*
X125720828Y-114608235D01*
X125697729Y-114599970D01*
X125675550Y-114589480D01*
X125654507Y-114576868D01*
X125634801Y-114562253D01*
X125616623Y-114545777D01*
X125600147Y-114527599D01*
X125585532Y-114507893D01*
X125572920Y-114486850D01*
X125562430Y-114464671D01*
X125554165Y-114441572D01*
X125548204Y-114417773D01*
X125544604Y-114393505D01*
X125543400Y-114369001D01*
X125543400Y-113468999D01*
X125544604Y-113444495D01*
X125548204Y-113420227D01*
X125554165Y-113396428D01*
X125562430Y-113373329D01*
X125572920Y-113351150D01*
X125585532Y-113330107D01*
X125600147Y-113310401D01*
X125616623Y-113292223D01*
X125634801Y-113275747D01*
X125654507Y-113261132D01*
X125675550Y-113248520D01*
X125697729Y-113238030D01*
X125720828Y-113229765D01*
X125744627Y-113223804D01*
X125768895Y-113220204D01*
X125793399Y-113219000D01*
X126443401Y-113219000D01*
X126467905Y-113220204D01*
X126467905Y-113220204D01*
G37*
D11*
X126118400Y-113919000D03*
G04 #@! TD*
D10*
G04 #@! TO.C,D3*
G36*
X116842905Y-115252204D02*
X116867173Y-115255804D01*
X116890972Y-115261765D01*
X116914071Y-115270030D01*
X116936250Y-115280520D01*
X116957293Y-115293132D01*
X116976999Y-115307747D01*
X116995177Y-115324223D01*
X117011653Y-115342401D01*
X117026268Y-115362107D01*
X117038880Y-115383150D01*
X117049370Y-115405329D01*
X117057635Y-115428428D01*
X117063596Y-115452227D01*
X117067196Y-115476495D01*
X117068400Y-115500999D01*
X117068400Y-116401001D01*
X117067196Y-116425505D01*
X117063596Y-116449773D01*
X117057635Y-116473572D01*
X117049370Y-116496671D01*
X117038880Y-116518850D01*
X117026268Y-116539893D01*
X117011653Y-116559599D01*
X116995177Y-116577777D01*
X116976999Y-116594253D01*
X116957293Y-116608868D01*
X116936250Y-116621480D01*
X116914071Y-116631970D01*
X116890972Y-116640235D01*
X116867173Y-116646196D01*
X116842905Y-116649796D01*
X116818401Y-116651000D01*
X116168399Y-116651000D01*
X116143895Y-116649796D01*
X116119627Y-116646196D01*
X116095828Y-116640235D01*
X116072729Y-116631970D01*
X116050550Y-116621480D01*
X116029507Y-116608868D01*
X116009801Y-116594253D01*
X115991623Y-116577777D01*
X115975147Y-116559599D01*
X115960532Y-116539893D01*
X115947920Y-116518850D01*
X115937430Y-116496671D01*
X115929165Y-116473572D01*
X115923204Y-116449773D01*
X115919604Y-116425505D01*
X115918400Y-116401001D01*
X115918400Y-115500999D01*
X115919604Y-115476495D01*
X115923204Y-115452227D01*
X115929165Y-115428428D01*
X115937430Y-115405329D01*
X115947920Y-115383150D01*
X115960532Y-115362107D01*
X115975147Y-115342401D01*
X115991623Y-115324223D01*
X116009801Y-115307747D01*
X116029507Y-115293132D01*
X116050550Y-115280520D01*
X116072729Y-115270030D01*
X116095828Y-115261765D01*
X116119627Y-115255804D01*
X116143895Y-115252204D01*
X116168399Y-115251000D01*
X116818401Y-115251000D01*
X116842905Y-115252204D01*
X116842905Y-115252204D01*
G37*
D11*
X116493400Y-115951000D03*
D10*
G36*
X114792905Y-115252204D02*
X114817173Y-115255804D01*
X114840972Y-115261765D01*
X114864071Y-115270030D01*
X114886250Y-115280520D01*
X114907293Y-115293132D01*
X114926999Y-115307747D01*
X114945177Y-115324223D01*
X114961653Y-115342401D01*
X114976268Y-115362107D01*
X114988880Y-115383150D01*
X114999370Y-115405329D01*
X115007635Y-115428428D01*
X115013596Y-115452227D01*
X115017196Y-115476495D01*
X115018400Y-115500999D01*
X115018400Y-116401001D01*
X115017196Y-116425505D01*
X115013596Y-116449773D01*
X115007635Y-116473572D01*
X114999370Y-116496671D01*
X114988880Y-116518850D01*
X114976268Y-116539893D01*
X114961653Y-116559599D01*
X114945177Y-116577777D01*
X114926999Y-116594253D01*
X114907293Y-116608868D01*
X114886250Y-116621480D01*
X114864071Y-116631970D01*
X114840972Y-116640235D01*
X114817173Y-116646196D01*
X114792905Y-116649796D01*
X114768401Y-116651000D01*
X114118399Y-116651000D01*
X114093895Y-116649796D01*
X114069627Y-116646196D01*
X114045828Y-116640235D01*
X114022729Y-116631970D01*
X114000550Y-116621480D01*
X113979507Y-116608868D01*
X113959801Y-116594253D01*
X113941623Y-116577777D01*
X113925147Y-116559599D01*
X113910532Y-116539893D01*
X113897920Y-116518850D01*
X113887430Y-116496671D01*
X113879165Y-116473572D01*
X113873204Y-116449773D01*
X113869604Y-116425505D01*
X113868400Y-116401001D01*
X113868400Y-115500999D01*
X113869604Y-115476495D01*
X113873204Y-115452227D01*
X113879165Y-115428428D01*
X113887430Y-115405329D01*
X113897920Y-115383150D01*
X113910532Y-115362107D01*
X113925147Y-115342401D01*
X113941623Y-115324223D01*
X113959801Y-115307747D01*
X113979507Y-115293132D01*
X114000550Y-115280520D01*
X114022729Y-115270030D01*
X114045828Y-115261765D01*
X114069627Y-115255804D01*
X114093895Y-115252204D01*
X114118399Y-115251000D01*
X114768401Y-115251000D01*
X114792905Y-115252204D01*
X114792905Y-115252204D01*
G37*
D11*
X114443400Y-115951000D03*
G04 #@! TD*
D10*
G04 #@! TO.C,R4*
G36*
X132665505Y-114934704D02*
X132689773Y-114938304D01*
X132713572Y-114944265D01*
X132736671Y-114952530D01*
X132758850Y-114963020D01*
X132779893Y-114975632D01*
X132799599Y-114990247D01*
X132817777Y-115006723D01*
X132834253Y-115024901D01*
X132848868Y-115044607D01*
X132861480Y-115065650D01*
X132871970Y-115087829D01*
X132880235Y-115110928D01*
X132886196Y-115134727D01*
X132889796Y-115158995D01*
X132891000Y-115183499D01*
X132891000Y-116083501D01*
X132889796Y-116108005D01*
X132886196Y-116132273D01*
X132880235Y-116156072D01*
X132871970Y-116179171D01*
X132861480Y-116201350D01*
X132848868Y-116222393D01*
X132834253Y-116242099D01*
X132817777Y-116260277D01*
X132799599Y-116276753D01*
X132779893Y-116291368D01*
X132758850Y-116303980D01*
X132736671Y-116314470D01*
X132713572Y-116322735D01*
X132689773Y-116328696D01*
X132665505Y-116332296D01*
X132641001Y-116333500D01*
X131990999Y-116333500D01*
X131966495Y-116332296D01*
X131942227Y-116328696D01*
X131918428Y-116322735D01*
X131895329Y-116314470D01*
X131873150Y-116303980D01*
X131852107Y-116291368D01*
X131832401Y-116276753D01*
X131814223Y-116260277D01*
X131797747Y-116242099D01*
X131783132Y-116222393D01*
X131770520Y-116201350D01*
X131760030Y-116179171D01*
X131751765Y-116156072D01*
X131745804Y-116132273D01*
X131742204Y-116108005D01*
X131741000Y-116083501D01*
X131741000Y-115183499D01*
X131742204Y-115158995D01*
X131745804Y-115134727D01*
X131751765Y-115110928D01*
X131760030Y-115087829D01*
X131770520Y-115065650D01*
X131783132Y-115044607D01*
X131797747Y-115024901D01*
X131814223Y-115006723D01*
X131832401Y-114990247D01*
X131852107Y-114975632D01*
X131873150Y-114963020D01*
X131895329Y-114952530D01*
X131918428Y-114944265D01*
X131942227Y-114938304D01*
X131966495Y-114934704D01*
X131990999Y-114933500D01*
X132641001Y-114933500D01*
X132665505Y-114934704D01*
X132665505Y-114934704D01*
G37*
D11*
X132316000Y-115633500D03*
D10*
G36*
X134715505Y-114934704D02*
X134739773Y-114938304D01*
X134763572Y-114944265D01*
X134786671Y-114952530D01*
X134808850Y-114963020D01*
X134829893Y-114975632D01*
X134849599Y-114990247D01*
X134867777Y-115006723D01*
X134884253Y-115024901D01*
X134898868Y-115044607D01*
X134911480Y-115065650D01*
X134921970Y-115087829D01*
X134930235Y-115110928D01*
X134936196Y-115134727D01*
X134939796Y-115158995D01*
X134941000Y-115183499D01*
X134941000Y-116083501D01*
X134939796Y-116108005D01*
X134936196Y-116132273D01*
X134930235Y-116156072D01*
X134921970Y-116179171D01*
X134911480Y-116201350D01*
X134898868Y-116222393D01*
X134884253Y-116242099D01*
X134867777Y-116260277D01*
X134849599Y-116276753D01*
X134829893Y-116291368D01*
X134808850Y-116303980D01*
X134786671Y-116314470D01*
X134763572Y-116322735D01*
X134739773Y-116328696D01*
X134715505Y-116332296D01*
X134691001Y-116333500D01*
X134040999Y-116333500D01*
X134016495Y-116332296D01*
X133992227Y-116328696D01*
X133968428Y-116322735D01*
X133945329Y-116314470D01*
X133923150Y-116303980D01*
X133902107Y-116291368D01*
X133882401Y-116276753D01*
X133864223Y-116260277D01*
X133847747Y-116242099D01*
X133833132Y-116222393D01*
X133820520Y-116201350D01*
X133810030Y-116179171D01*
X133801765Y-116156072D01*
X133795804Y-116132273D01*
X133792204Y-116108005D01*
X133791000Y-116083501D01*
X133791000Y-115183499D01*
X133792204Y-115158995D01*
X133795804Y-115134727D01*
X133801765Y-115110928D01*
X133810030Y-115087829D01*
X133820520Y-115065650D01*
X133833132Y-115044607D01*
X133847747Y-115024901D01*
X133864223Y-115006723D01*
X133882401Y-114990247D01*
X133902107Y-114975632D01*
X133923150Y-114963020D01*
X133945329Y-114952530D01*
X133968428Y-114944265D01*
X133992227Y-114938304D01*
X134016495Y-114934704D01*
X134040999Y-114933500D01*
X134691001Y-114933500D01*
X134715505Y-114934704D01*
X134715505Y-114934704D01*
G37*
D11*
X134366000Y-115633500D03*
G04 #@! TD*
D10*
G04 #@! TO.C,R5*
G36*
X132665505Y-117030204D02*
X132689773Y-117033804D01*
X132713572Y-117039765D01*
X132736671Y-117048030D01*
X132758850Y-117058520D01*
X132779893Y-117071132D01*
X132799599Y-117085747D01*
X132817777Y-117102223D01*
X132834253Y-117120401D01*
X132848868Y-117140107D01*
X132861480Y-117161150D01*
X132871970Y-117183329D01*
X132880235Y-117206428D01*
X132886196Y-117230227D01*
X132889796Y-117254495D01*
X132891000Y-117278999D01*
X132891000Y-118179001D01*
X132889796Y-118203505D01*
X132886196Y-118227773D01*
X132880235Y-118251572D01*
X132871970Y-118274671D01*
X132861480Y-118296850D01*
X132848868Y-118317893D01*
X132834253Y-118337599D01*
X132817777Y-118355777D01*
X132799599Y-118372253D01*
X132779893Y-118386868D01*
X132758850Y-118399480D01*
X132736671Y-118409970D01*
X132713572Y-118418235D01*
X132689773Y-118424196D01*
X132665505Y-118427796D01*
X132641001Y-118429000D01*
X131990999Y-118429000D01*
X131966495Y-118427796D01*
X131942227Y-118424196D01*
X131918428Y-118418235D01*
X131895329Y-118409970D01*
X131873150Y-118399480D01*
X131852107Y-118386868D01*
X131832401Y-118372253D01*
X131814223Y-118355777D01*
X131797747Y-118337599D01*
X131783132Y-118317893D01*
X131770520Y-118296850D01*
X131760030Y-118274671D01*
X131751765Y-118251572D01*
X131745804Y-118227773D01*
X131742204Y-118203505D01*
X131741000Y-118179001D01*
X131741000Y-117278999D01*
X131742204Y-117254495D01*
X131745804Y-117230227D01*
X131751765Y-117206428D01*
X131760030Y-117183329D01*
X131770520Y-117161150D01*
X131783132Y-117140107D01*
X131797747Y-117120401D01*
X131814223Y-117102223D01*
X131832401Y-117085747D01*
X131852107Y-117071132D01*
X131873150Y-117058520D01*
X131895329Y-117048030D01*
X131918428Y-117039765D01*
X131942227Y-117033804D01*
X131966495Y-117030204D01*
X131990999Y-117029000D01*
X132641001Y-117029000D01*
X132665505Y-117030204D01*
X132665505Y-117030204D01*
G37*
D11*
X132316000Y-117729000D03*
D10*
G36*
X134715505Y-117030204D02*
X134739773Y-117033804D01*
X134763572Y-117039765D01*
X134786671Y-117048030D01*
X134808850Y-117058520D01*
X134829893Y-117071132D01*
X134849599Y-117085747D01*
X134867777Y-117102223D01*
X134884253Y-117120401D01*
X134898868Y-117140107D01*
X134911480Y-117161150D01*
X134921970Y-117183329D01*
X134930235Y-117206428D01*
X134936196Y-117230227D01*
X134939796Y-117254495D01*
X134941000Y-117278999D01*
X134941000Y-118179001D01*
X134939796Y-118203505D01*
X134936196Y-118227773D01*
X134930235Y-118251572D01*
X134921970Y-118274671D01*
X134911480Y-118296850D01*
X134898868Y-118317893D01*
X134884253Y-118337599D01*
X134867777Y-118355777D01*
X134849599Y-118372253D01*
X134829893Y-118386868D01*
X134808850Y-118399480D01*
X134786671Y-118409970D01*
X134763572Y-118418235D01*
X134739773Y-118424196D01*
X134715505Y-118427796D01*
X134691001Y-118429000D01*
X134040999Y-118429000D01*
X134016495Y-118427796D01*
X133992227Y-118424196D01*
X133968428Y-118418235D01*
X133945329Y-118409970D01*
X133923150Y-118399480D01*
X133902107Y-118386868D01*
X133882401Y-118372253D01*
X133864223Y-118355777D01*
X133847747Y-118337599D01*
X133833132Y-118317893D01*
X133820520Y-118296850D01*
X133810030Y-118274671D01*
X133801765Y-118251572D01*
X133795804Y-118227773D01*
X133792204Y-118203505D01*
X133791000Y-118179001D01*
X133791000Y-117278999D01*
X133792204Y-117254495D01*
X133795804Y-117230227D01*
X133801765Y-117206428D01*
X133810030Y-117183329D01*
X133820520Y-117161150D01*
X133833132Y-117140107D01*
X133847747Y-117120401D01*
X133864223Y-117102223D01*
X133882401Y-117085747D01*
X133902107Y-117071132D01*
X133923150Y-117058520D01*
X133945329Y-117048030D01*
X133968428Y-117039765D01*
X133992227Y-117033804D01*
X134016495Y-117030204D01*
X134040999Y-117029000D01*
X134691001Y-117029000D01*
X134715505Y-117030204D01*
X134715505Y-117030204D01*
G37*
D11*
X134366000Y-117729000D03*
G04 #@! TD*
D10*
G04 #@! TO.C,R6*
G36*
X132674505Y-112839204D02*
X132698773Y-112842804D01*
X132722572Y-112848765D01*
X132745671Y-112857030D01*
X132767850Y-112867520D01*
X132788893Y-112880132D01*
X132808599Y-112894747D01*
X132826777Y-112911223D01*
X132843253Y-112929401D01*
X132857868Y-112949107D01*
X132870480Y-112970150D01*
X132880970Y-112992329D01*
X132889235Y-113015428D01*
X132895196Y-113039227D01*
X132898796Y-113063495D01*
X132900000Y-113087999D01*
X132900000Y-113988001D01*
X132898796Y-114012505D01*
X132895196Y-114036773D01*
X132889235Y-114060572D01*
X132880970Y-114083671D01*
X132870480Y-114105850D01*
X132857868Y-114126893D01*
X132843253Y-114146599D01*
X132826777Y-114164777D01*
X132808599Y-114181253D01*
X132788893Y-114195868D01*
X132767850Y-114208480D01*
X132745671Y-114218970D01*
X132722572Y-114227235D01*
X132698773Y-114233196D01*
X132674505Y-114236796D01*
X132650001Y-114238000D01*
X131999999Y-114238000D01*
X131975495Y-114236796D01*
X131951227Y-114233196D01*
X131927428Y-114227235D01*
X131904329Y-114218970D01*
X131882150Y-114208480D01*
X131861107Y-114195868D01*
X131841401Y-114181253D01*
X131823223Y-114164777D01*
X131806747Y-114146599D01*
X131792132Y-114126893D01*
X131779520Y-114105850D01*
X131769030Y-114083671D01*
X131760765Y-114060572D01*
X131754804Y-114036773D01*
X131751204Y-114012505D01*
X131750000Y-113988001D01*
X131750000Y-113087999D01*
X131751204Y-113063495D01*
X131754804Y-113039227D01*
X131760765Y-113015428D01*
X131769030Y-112992329D01*
X131779520Y-112970150D01*
X131792132Y-112949107D01*
X131806747Y-112929401D01*
X131823223Y-112911223D01*
X131841401Y-112894747D01*
X131861107Y-112880132D01*
X131882150Y-112867520D01*
X131904329Y-112857030D01*
X131927428Y-112848765D01*
X131951227Y-112842804D01*
X131975495Y-112839204D01*
X131999999Y-112838000D01*
X132650001Y-112838000D01*
X132674505Y-112839204D01*
X132674505Y-112839204D01*
G37*
D11*
X132325000Y-113538000D03*
D10*
G36*
X134724505Y-112839204D02*
X134748773Y-112842804D01*
X134772572Y-112848765D01*
X134795671Y-112857030D01*
X134817850Y-112867520D01*
X134838893Y-112880132D01*
X134858599Y-112894747D01*
X134876777Y-112911223D01*
X134893253Y-112929401D01*
X134907868Y-112949107D01*
X134920480Y-112970150D01*
X134930970Y-112992329D01*
X134939235Y-113015428D01*
X134945196Y-113039227D01*
X134948796Y-113063495D01*
X134950000Y-113087999D01*
X134950000Y-113988001D01*
X134948796Y-114012505D01*
X134945196Y-114036773D01*
X134939235Y-114060572D01*
X134930970Y-114083671D01*
X134920480Y-114105850D01*
X134907868Y-114126893D01*
X134893253Y-114146599D01*
X134876777Y-114164777D01*
X134858599Y-114181253D01*
X134838893Y-114195868D01*
X134817850Y-114208480D01*
X134795671Y-114218970D01*
X134772572Y-114227235D01*
X134748773Y-114233196D01*
X134724505Y-114236796D01*
X134700001Y-114238000D01*
X134049999Y-114238000D01*
X134025495Y-114236796D01*
X134001227Y-114233196D01*
X133977428Y-114227235D01*
X133954329Y-114218970D01*
X133932150Y-114208480D01*
X133911107Y-114195868D01*
X133891401Y-114181253D01*
X133873223Y-114164777D01*
X133856747Y-114146599D01*
X133842132Y-114126893D01*
X133829520Y-114105850D01*
X133819030Y-114083671D01*
X133810765Y-114060572D01*
X133804804Y-114036773D01*
X133801204Y-114012505D01*
X133800000Y-113988001D01*
X133800000Y-113087999D01*
X133801204Y-113063495D01*
X133804804Y-113039227D01*
X133810765Y-113015428D01*
X133819030Y-112992329D01*
X133829520Y-112970150D01*
X133842132Y-112949107D01*
X133856747Y-112929401D01*
X133873223Y-112911223D01*
X133891401Y-112894747D01*
X133911107Y-112880132D01*
X133932150Y-112867520D01*
X133954329Y-112857030D01*
X133977428Y-112848765D01*
X134001227Y-112842804D01*
X134025495Y-112839204D01*
X134049999Y-112838000D01*
X134700001Y-112838000D01*
X134724505Y-112839204D01*
X134724505Y-112839204D01*
G37*
D11*
X134375000Y-113538000D03*
G04 #@! TD*
D13*
G04 #@! TO.C,SW1*
X137582500Y-124360500D03*
X128482500Y-124360500D03*
X137582500Y-119860500D03*
X128482500Y-119860500D03*
G04 #@! TD*
G04 #@! TO.C,SW2*
X125581000Y-124360500D03*
X116481000Y-124360500D03*
X125581000Y-119860500D03*
X116481000Y-119860500D03*
G04 #@! TD*
G04 #@! TO.C,SW3*
X113325500Y-124360500D03*
X104225500Y-124360500D03*
X113325500Y-119860500D03*
X104225500Y-119860500D03*
G04 #@! TD*
D14*
G04 #@! TO.C,U2*
X145745200Y-103268800D03*
X144475200Y-103268800D03*
X143205200Y-103268800D03*
X141935200Y-103268800D03*
X141935200Y-108668800D03*
X143205200Y-108668800D03*
X144475200Y-108668800D03*
X145745200Y-108668800D03*
G04 #@! TD*
D10*
G04 #@! TO.C,C1*
G36*
X153280905Y-102900504D02*
X153305173Y-102904104D01*
X153328972Y-102910065D01*
X153352071Y-102918330D01*
X153374250Y-102928820D01*
X153395293Y-102941432D01*
X153414999Y-102956047D01*
X153433177Y-102972523D01*
X153449653Y-102990701D01*
X153464268Y-103010407D01*
X153476880Y-103031450D01*
X153487370Y-103053629D01*
X153495635Y-103076728D01*
X153501596Y-103100527D01*
X153505196Y-103124795D01*
X153506400Y-103149299D01*
X153506400Y-103799301D01*
X153505196Y-103823805D01*
X153501596Y-103848073D01*
X153495635Y-103871872D01*
X153487370Y-103894971D01*
X153476880Y-103917150D01*
X153464268Y-103938193D01*
X153449653Y-103957899D01*
X153433177Y-103976077D01*
X153414999Y-103992553D01*
X153395293Y-104007168D01*
X153374250Y-104019780D01*
X153352071Y-104030270D01*
X153328972Y-104038535D01*
X153305173Y-104044496D01*
X153280905Y-104048096D01*
X153256401Y-104049300D01*
X152356399Y-104049300D01*
X152331895Y-104048096D01*
X152307627Y-104044496D01*
X152283828Y-104038535D01*
X152260729Y-104030270D01*
X152238550Y-104019780D01*
X152217507Y-104007168D01*
X152197801Y-103992553D01*
X152179623Y-103976077D01*
X152163147Y-103957899D01*
X152148532Y-103938193D01*
X152135920Y-103917150D01*
X152125430Y-103894971D01*
X152117165Y-103871872D01*
X152111204Y-103848073D01*
X152107604Y-103823805D01*
X152106400Y-103799301D01*
X152106400Y-103149299D01*
X152107604Y-103124795D01*
X152111204Y-103100527D01*
X152117165Y-103076728D01*
X152125430Y-103053629D01*
X152135920Y-103031450D01*
X152148532Y-103010407D01*
X152163147Y-102990701D01*
X152179623Y-102972523D01*
X152197801Y-102956047D01*
X152217507Y-102941432D01*
X152238550Y-102928820D01*
X152260729Y-102918330D01*
X152283828Y-102910065D01*
X152307627Y-102904104D01*
X152331895Y-102900504D01*
X152356399Y-102899300D01*
X153256401Y-102899300D01*
X153280905Y-102900504D01*
X153280905Y-102900504D01*
G37*
D11*
X152806400Y-103474300D03*
D10*
G36*
X153280905Y-104950504D02*
X153305173Y-104954104D01*
X153328972Y-104960065D01*
X153352071Y-104968330D01*
X153374250Y-104978820D01*
X153395293Y-104991432D01*
X153414999Y-105006047D01*
X153433177Y-105022523D01*
X153449653Y-105040701D01*
X153464268Y-105060407D01*
X153476880Y-105081450D01*
X153487370Y-105103629D01*
X153495635Y-105126728D01*
X153501596Y-105150527D01*
X153505196Y-105174795D01*
X153506400Y-105199299D01*
X153506400Y-105849301D01*
X153505196Y-105873805D01*
X153501596Y-105898073D01*
X153495635Y-105921872D01*
X153487370Y-105944971D01*
X153476880Y-105967150D01*
X153464268Y-105988193D01*
X153449653Y-106007899D01*
X153433177Y-106026077D01*
X153414999Y-106042553D01*
X153395293Y-106057168D01*
X153374250Y-106069780D01*
X153352071Y-106080270D01*
X153328972Y-106088535D01*
X153305173Y-106094496D01*
X153280905Y-106098096D01*
X153256401Y-106099300D01*
X152356399Y-106099300D01*
X152331895Y-106098096D01*
X152307627Y-106094496D01*
X152283828Y-106088535D01*
X152260729Y-106080270D01*
X152238550Y-106069780D01*
X152217507Y-106057168D01*
X152197801Y-106042553D01*
X152179623Y-106026077D01*
X152163147Y-106007899D01*
X152148532Y-105988193D01*
X152135920Y-105967150D01*
X152125430Y-105944971D01*
X152117165Y-105921872D01*
X152111204Y-105898073D01*
X152107604Y-105873805D01*
X152106400Y-105849301D01*
X152106400Y-105199299D01*
X152107604Y-105174795D01*
X152111204Y-105150527D01*
X152117165Y-105126728D01*
X152125430Y-105103629D01*
X152135920Y-105081450D01*
X152148532Y-105060407D01*
X152163147Y-105040701D01*
X152179623Y-105022523D01*
X152197801Y-105006047D01*
X152217507Y-104991432D01*
X152238550Y-104978820D01*
X152260729Y-104968330D01*
X152283828Y-104960065D01*
X152307627Y-104954104D01*
X152331895Y-104950504D01*
X152356399Y-104949300D01*
X153256401Y-104949300D01*
X153280905Y-104950504D01*
X153280905Y-104950504D01*
G37*
D11*
X152806400Y-105524300D03*
G04 #@! TD*
D10*
G04 #@! TO.C,C3*
G36*
X147863705Y-99770904D02*
X147887973Y-99774504D01*
X147911772Y-99780465D01*
X147934871Y-99788730D01*
X147957050Y-99799220D01*
X147978093Y-99811832D01*
X147997799Y-99826447D01*
X148015977Y-99842923D01*
X148032453Y-99861101D01*
X148047068Y-99880807D01*
X148059680Y-99901850D01*
X148070170Y-99924029D01*
X148078435Y-99947128D01*
X148084396Y-99970927D01*
X148087996Y-99995195D01*
X148089200Y-100019699D01*
X148089200Y-100919701D01*
X148087996Y-100944205D01*
X148084396Y-100968473D01*
X148078435Y-100992272D01*
X148070170Y-101015371D01*
X148059680Y-101037550D01*
X148047068Y-101058593D01*
X148032453Y-101078299D01*
X148015977Y-101096477D01*
X147997799Y-101112953D01*
X147978093Y-101127568D01*
X147957050Y-101140180D01*
X147934871Y-101150670D01*
X147911772Y-101158935D01*
X147887973Y-101164896D01*
X147863705Y-101168496D01*
X147839201Y-101169700D01*
X147189199Y-101169700D01*
X147164695Y-101168496D01*
X147140427Y-101164896D01*
X147116628Y-101158935D01*
X147093529Y-101150670D01*
X147071350Y-101140180D01*
X147050307Y-101127568D01*
X147030601Y-101112953D01*
X147012423Y-101096477D01*
X146995947Y-101078299D01*
X146981332Y-101058593D01*
X146968720Y-101037550D01*
X146958230Y-101015371D01*
X146949965Y-100992272D01*
X146944004Y-100968473D01*
X146940404Y-100944205D01*
X146939200Y-100919701D01*
X146939200Y-100019699D01*
X146940404Y-99995195D01*
X146944004Y-99970927D01*
X146949965Y-99947128D01*
X146958230Y-99924029D01*
X146968720Y-99901850D01*
X146981332Y-99880807D01*
X146995947Y-99861101D01*
X147012423Y-99842923D01*
X147030601Y-99826447D01*
X147050307Y-99811832D01*
X147071350Y-99799220D01*
X147093529Y-99788730D01*
X147116628Y-99780465D01*
X147140427Y-99774504D01*
X147164695Y-99770904D01*
X147189199Y-99769700D01*
X147839201Y-99769700D01*
X147863705Y-99770904D01*
X147863705Y-99770904D01*
G37*
D11*
X147514200Y-100469700D03*
D10*
G36*
X149913705Y-99770904D02*
X149937973Y-99774504D01*
X149961772Y-99780465D01*
X149984871Y-99788730D01*
X150007050Y-99799220D01*
X150028093Y-99811832D01*
X150047799Y-99826447D01*
X150065977Y-99842923D01*
X150082453Y-99861101D01*
X150097068Y-99880807D01*
X150109680Y-99901850D01*
X150120170Y-99924029D01*
X150128435Y-99947128D01*
X150134396Y-99970927D01*
X150137996Y-99995195D01*
X150139200Y-100019699D01*
X150139200Y-100919701D01*
X150137996Y-100944205D01*
X150134396Y-100968473D01*
X150128435Y-100992272D01*
X150120170Y-101015371D01*
X150109680Y-101037550D01*
X150097068Y-101058593D01*
X150082453Y-101078299D01*
X150065977Y-101096477D01*
X150047799Y-101112953D01*
X150028093Y-101127568D01*
X150007050Y-101140180D01*
X149984871Y-101150670D01*
X149961772Y-101158935D01*
X149937973Y-101164896D01*
X149913705Y-101168496D01*
X149889201Y-101169700D01*
X149239199Y-101169700D01*
X149214695Y-101168496D01*
X149190427Y-101164896D01*
X149166628Y-101158935D01*
X149143529Y-101150670D01*
X149121350Y-101140180D01*
X149100307Y-101127568D01*
X149080601Y-101112953D01*
X149062423Y-101096477D01*
X149045947Y-101078299D01*
X149031332Y-101058593D01*
X149018720Y-101037550D01*
X149008230Y-101015371D01*
X148999965Y-100992272D01*
X148994004Y-100968473D01*
X148990404Y-100944205D01*
X148989200Y-100919701D01*
X148989200Y-100019699D01*
X148990404Y-99995195D01*
X148994004Y-99970927D01*
X148999965Y-99947128D01*
X149008230Y-99924029D01*
X149018720Y-99901850D01*
X149031332Y-99880807D01*
X149045947Y-99861101D01*
X149062423Y-99842923D01*
X149080601Y-99826447D01*
X149100307Y-99811832D01*
X149121350Y-99799220D01*
X149143529Y-99788730D01*
X149166628Y-99780465D01*
X149190427Y-99774504D01*
X149214695Y-99770904D01*
X149239199Y-99769700D01*
X149889201Y-99769700D01*
X149913705Y-99770904D01*
X149913705Y-99770904D01*
G37*
D11*
X149564200Y-100469700D03*
G04 #@! TD*
D10*
G04 #@! TO.C,R8*
G36*
X142511305Y-111320604D02*
X142535573Y-111324204D01*
X142559372Y-111330165D01*
X142582471Y-111338430D01*
X142604650Y-111348920D01*
X142625693Y-111361532D01*
X142645399Y-111376147D01*
X142663577Y-111392623D01*
X142680053Y-111410801D01*
X142694668Y-111430507D01*
X142707280Y-111451550D01*
X142717770Y-111473729D01*
X142726035Y-111496828D01*
X142731996Y-111520627D01*
X142735596Y-111544895D01*
X142736800Y-111569399D01*
X142736800Y-112219401D01*
X142735596Y-112243905D01*
X142731996Y-112268173D01*
X142726035Y-112291972D01*
X142717770Y-112315071D01*
X142707280Y-112337250D01*
X142694668Y-112358293D01*
X142680053Y-112377999D01*
X142663577Y-112396177D01*
X142645399Y-112412653D01*
X142625693Y-112427268D01*
X142604650Y-112439880D01*
X142582471Y-112450370D01*
X142559372Y-112458635D01*
X142535573Y-112464596D01*
X142511305Y-112468196D01*
X142486801Y-112469400D01*
X141586799Y-112469400D01*
X141562295Y-112468196D01*
X141538027Y-112464596D01*
X141514228Y-112458635D01*
X141491129Y-112450370D01*
X141468950Y-112439880D01*
X141447907Y-112427268D01*
X141428201Y-112412653D01*
X141410023Y-112396177D01*
X141393547Y-112377999D01*
X141378932Y-112358293D01*
X141366320Y-112337250D01*
X141355830Y-112315071D01*
X141347565Y-112291972D01*
X141341604Y-112268173D01*
X141338004Y-112243905D01*
X141336800Y-112219401D01*
X141336800Y-111569399D01*
X141338004Y-111544895D01*
X141341604Y-111520627D01*
X141347565Y-111496828D01*
X141355830Y-111473729D01*
X141366320Y-111451550D01*
X141378932Y-111430507D01*
X141393547Y-111410801D01*
X141410023Y-111392623D01*
X141428201Y-111376147D01*
X141447907Y-111361532D01*
X141468950Y-111348920D01*
X141491129Y-111338430D01*
X141514228Y-111330165D01*
X141538027Y-111324204D01*
X141562295Y-111320604D01*
X141586799Y-111319400D01*
X142486801Y-111319400D01*
X142511305Y-111320604D01*
X142511305Y-111320604D01*
G37*
D11*
X142036800Y-111894400D03*
D10*
G36*
X142511305Y-113370604D02*
X142535573Y-113374204D01*
X142559372Y-113380165D01*
X142582471Y-113388430D01*
X142604650Y-113398920D01*
X142625693Y-113411532D01*
X142645399Y-113426147D01*
X142663577Y-113442623D01*
X142680053Y-113460801D01*
X142694668Y-113480507D01*
X142707280Y-113501550D01*
X142717770Y-113523729D01*
X142726035Y-113546828D01*
X142731996Y-113570627D01*
X142735596Y-113594895D01*
X142736800Y-113619399D01*
X142736800Y-114269401D01*
X142735596Y-114293905D01*
X142731996Y-114318173D01*
X142726035Y-114341972D01*
X142717770Y-114365071D01*
X142707280Y-114387250D01*
X142694668Y-114408293D01*
X142680053Y-114427999D01*
X142663577Y-114446177D01*
X142645399Y-114462653D01*
X142625693Y-114477268D01*
X142604650Y-114489880D01*
X142582471Y-114500370D01*
X142559372Y-114508635D01*
X142535573Y-114514596D01*
X142511305Y-114518196D01*
X142486801Y-114519400D01*
X141586799Y-114519400D01*
X141562295Y-114518196D01*
X141538027Y-114514596D01*
X141514228Y-114508635D01*
X141491129Y-114500370D01*
X141468950Y-114489880D01*
X141447907Y-114477268D01*
X141428201Y-114462653D01*
X141410023Y-114446177D01*
X141393547Y-114427999D01*
X141378932Y-114408293D01*
X141366320Y-114387250D01*
X141355830Y-114365071D01*
X141347565Y-114341972D01*
X141341604Y-114318173D01*
X141338004Y-114293905D01*
X141336800Y-114269401D01*
X141336800Y-113619399D01*
X141338004Y-113594895D01*
X141341604Y-113570627D01*
X141347565Y-113546828D01*
X141355830Y-113523729D01*
X141366320Y-113501550D01*
X141378932Y-113480507D01*
X141393547Y-113460801D01*
X141410023Y-113442623D01*
X141428201Y-113426147D01*
X141447907Y-113411532D01*
X141468950Y-113398920D01*
X141491129Y-113388430D01*
X141514228Y-113380165D01*
X141538027Y-113374204D01*
X141562295Y-113370604D01*
X141586799Y-113369400D01*
X142486801Y-113369400D01*
X142511305Y-113370604D01*
X142511305Y-113370604D01*
G37*
D11*
X142036800Y-113944400D03*
G04 #@! TD*
D10*
G04 #@! TO.C,R9*
G36*
X152546305Y-117563604D02*
X152570573Y-117567204D01*
X152594372Y-117573165D01*
X152617471Y-117581430D01*
X152639650Y-117591920D01*
X152660693Y-117604532D01*
X152680399Y-117619147D01*
X152698577Y-117635623D01*
X152715053Y-117653801D01*
X152729668Y-117673507D01*
X152742280Y-117694550D01*
X152752770Y-117716729D01*
X152761035Y-117739828D01*
X152766996Y-117763627D01*
X152770596Y-117787895D01*
X152771800Y-117812399D01*
X152771800Y-118712401D01*
X152770596Y-118736905D01*
X152766996Y-118761173D01*
X152761035Y-118784972D01*
X152752770Y-118808071D01*
X152742280Y-118830250D01*
X152729668Y-118851293D01*
X152715053Y-118870999D01*
X152698577Y-118889177D01*
X152680399Y-118905653D01*
X152660693Y-118920268D01*
X152639650Y-118932880D01*
X152617471Y-118943370D01*
X152594372Y-118951635D01*
X152570573Y-118957596D01*
X152546305Y-118961196D01*
X152521801Y-118962400D01*
X151871799Y-118962400D01*
X151847295Y-118961196D01*
X151823027Y-118957596D01*
X151799228Y-118951635D01*
X151776129Y-118943370D01*
X151753950Y-118932880D01*
X151732907Y-118920268D01*
X151713201Y-118905653D01*
X151695023Y-118889177D01*
X151678547Y-118870999D01*
X151663932Y-118851293D01*
X151651320Y-118830250D01*
X151640830Y-118808071D01*
X151632565Y-118784972D01*
X151626604Y-118761173D01*
X151623004Y-118736905D01*
X151621800Y-118712401D01*
X151621800Y-117812399D01*
X151623004Y-117787895D01*
X151626604Y-117763627D01*
X151632565Y-117739828D01*
X151640830Y-117716729D01*
X151651320Y-117694550D01*
X151663932Y-117673507D01*
X151678547Y-117653801D01*
X151695023Y-117635623D01*
X151713201Y-117619147D01*
X151732907Y-117604532D01*
X151753950Y-117591920D01*
X151776129Y-117581430D01*
X151799228Y-117573165D01*
X151823027Y-117567204D01*
X151847295Y-117563604D01*
X151871799Y-117562400D01*
X152521801Y-117562400D01*
X152546305Y-117563604D01*
X152546305Y-117563604D01*
G37*
D11*
X152196800Y-118262400D03*
D10*
G36*
X150496305Y-117563604D02*
X150520573Y-117567204D01*
X150544372Y-117573165D01*
X150567471Y-117581430D01*
X150589650Y-117591920D01*
X150610693Y-117604532D01*
X150630399Y-117619147D01*
X150648577Y-117635623D01*
X150665053Y-117653801D01*
X150679668Y-117673507D01*
X150692280Y-117694550D01*
X150702770Y-117716729D01*
X150711035Y-117739828D01*
X150716996Y-117763627D01*
X150720596Y-117787895D01*
X150721800Y-117812399D01*
X150721800Y-118712401D01*
X150720596Y-118736905D01*
X150716996Y-118761173D01*
X150711035Y-118784972D01*
X150702770Y-118808071D01*
X150692280Y-118830250D01*
X150679668Y-118851293D01*
X150665053Y-118870999D01*
X150648577Y-118889177D01*
X150630399Y-118905653D01*
X150610693Y-118920268D01*
X150589650Y-118932880D01*
X150567471Y-118943370D01*
X150544372Y-118951635D01*
X150520573Y-118957596D01*
X150496305Y-118961196D01*
X150471801Y-118962400D01*
X149821799Y-118962400D01*
X149797295Y-118961196D01*
X149773027Y-118957596D01*
X149749228Y-118951635D01*
X149726129Y-118943370D01*
X149703950Y-118932880D01*
X149682907Y-118920268D01*
X149663201Y-118905653D01*
X149645023Y-118889177D01*
X149628547Y-118870999D01*
X149613932Y-118851293D01*
X149601320Y-118830250D01*
X149590830Y-118808071D01*
X149582565Y-118784972D01*
X149576604Y-118761173D01*
X149573004Y-118736905D01*
X149571800Y-118712401D01*
X149571800Y-117812399D01*
X149573004Y-117787895D01*
X149576604Y-117763627D01*
X149582565Y-117739828D01*
X149590830Y-117716729D01*
X149601320Y-117694550D01*
X149613932Y-117673507D01*
X149628547Y-117653801D01*
X149645023Y-117635623D01*
X149663201Y-117619147D01*
X149682907Y-117604532D01*
X149703950Y-117591920D01*
X149726129Y-117581430D01*
X149749228Y-117573165D01*
X149773027Y-117567204D01*
X149797295Y-117563604D01*
X149821799Y-117562400D01*
X150471801Y-117562400D01*
X150496305Y-117563604D01*
X150496305Y-117563604D01*
G37*
D11*
X150146800Y-118262400D03*
G04 #@! TD*
D10*
G04 #@! TO.C,R10*
G36*
X142511305Y-119060204D02*
X142535573Y-119063804D01*
X142559372Y-119069765D01*
X142582471Y-119078030D01*
X142604650Y-119088520D01*
X142625693Y-119101132D01*
X142645399Y-119115747D01*
X142663577Y-119132223D01*
X142680053Y-119150401D01*
X142694668Y-119170107D01*
X142707280Y-119191150D01*
X142717770Y-119213329D01*
X142726035Y-119236428D01*
X142731996Y-119260227D01*
X142735596Y-119284495D01*
X142736800Y-119308999D01*
X142736800Y-119959001D01*
X142735596Y-119983505D01*
X142731996Y-120007773D01*
X142726035Y-120031572D01*
X142717770Y-120054671D01*
X142707280Y-120076850D01*
X142694668Y-120097893D01*
X142680053Y-120117599D01*
X142663577Y-120135777D01*
X142645399Y-120152253D01*
X142625693Y-120166868D01*
X142604650Y-120179480D01*
X142582471Y-120189970D01*
X142559372Y-120198235D01*
X142535573Y-120204196D01*
X142511305Y-120207796D01*
X142486801Y-120209000D01*
X141586799Y-120209000D01*
X141562295Y-120207796D01*
X141538027Y-120204196D01*
X141514228Y-120198235D01*
X141491129Y-120189970D01*
X141468950Y-120179480D01*
X141447907Y-120166868D01*
X141428201Y-120152253D01*
X141410023Y-120135777D01*
X141393547Y-120117599D01*
X141378932Y-120097893D01*
X141366320Y-120076850D01*
X141355830Y-120054671D01*
X141347565Y-120031572D01*
X141341604Y-120007773D01*
X141338004Y-119983505D01*
X141336800Y-119959001D01*
X141336800Y-119308999D01*
X141338004Y-119284495D01*
X141341604Y-119260227D01*
X141347565Y-119236428D01*
X141355830Y-119213329D01*
X141366320Y-119191150D01*
X141378932Y-119170107D01*
X141393547Y-119150401D01*
X141410023Y-119132223D01*
X141428201Y-119115747D01*
X141447907Y-119101132D01*
X141468950Y-119088520D01*
X141491129Y-119078030D01*
X141514228Y-119069765D01*
X141538027Y-119063804D01*
X141562295Y-119060204D01*
X141586799Y-119059000D01*
X142486801Y-119059000D01*
X142511305Y-119060204D01*
X142511305Y-119060204D01*
G37*
D11*
X142036800Y-119634000D03*
D10*
G36*
X142511305Y-121110204D02*
X142535573Y-121113804D01*
X142559372Y-121119765D01*
X142582471Y-121128030D01*
X142604650Y-121138520D01*
X142625693Y-121151132D01*
X142645399Y-121165747D01*
X142663577Y-121182223D01*
X142680053Y-121200401D01*
X142694668Y-121220107D01*
X142707280Y-121241150D01*
X142717770Y-121263329D01*
X142726035Y-121286428D01*
X142731996Y-121310227D01*
X142735596Y-121334495D01*
X142736800Y-121358999D01*
X142736800Y-122009001D01*
X142735596Y-122033505D01*
X142731996Y-122057773D01*
X142726035Y-122081572D01*
X142717770Y-122104671D01*
X142707280Y-122126850D01*
X142694668Y-122147893D01*
X142680053Y-122167599D01*
X142663577Y-122185777D01*
X142645399Y-122202253D01*
X142625693Y-122216868D01*
X142604650Y-122229480D01*
X142582471Y-122239970D01*
X142559372Y-122248235D01*
X142535573Y-122254196D01*
X142511305Y-122257796D01*
X142486801Y-122259000D01*
X141586799Y-122259000D01*
X141562295Y-122257796D01*
X141538027Y-122254196D01*
X141514228Y-122248235D01*
X141491129Y-122239970D01*
X141468950Y-122229480D01*
X141447907Y-122216868D01*
X141428201Y-122202253D01*
X141410023Y-122185777D01*
X141393547Y-122167599D01*
X141378932Y-122147893D01*
X141366320Y-122126850D01*
X141355830Y-122104671D01*
X141347565Y-122081572D01*
X141341604Y-122057773D01*
X141338004Y-122033505D01*
X141336800Y-122009001D01*
X141336800Y-121358999D01*
X141338004Y-121334495D01*
X141341604Y-121310227D01*
X141347565Y-121286428D01*
X141355830Y-121263329D01*
X141366320Y-121241150D01*
X141378932Y-121220107D01*
X141393547Y-121200401D01*
X141410023Y-121182223D01*
X141428201Y-121165747D01*
X141447907Y-121151132D01*
X141468950Y-121138520D01*
X141491129Y-121128030D01*
X141514228Y-121119765D01*
X141538027Y-121113804D01*
X141562295Y-121110204D01*
X141586799Y-121109000D01*
X142486801Y-121109000D01*
X142511305Y-121110204D01*
X142511305Y-121110204D01*
G37*
D11*
X142036800Y-121684000D03*
G04 #@! TD*
D10*
G04 #@! TO.C,R11*
G36*
X163943505Y-117563604D02*
X163967773Y-117567204D01*
X163991572Y-117573165D01*
X164014671Y-117581430D01*
X164036850Y-117591920D01*
X164057893Y-117604532D01*
X164077599Y-117619147D01*
X164095777Y-117635623D01*
X164112253Y-117653801D01*
X164126868Y-117673507D01*
X164139480Y-117694550D01*
X164149970Y-117716729D01*
X164158235Y-117739828D01*
X164164196Y-117763627D01*
X164167796Y-117787895D01*
X164169000Y-117812399D01*
X164169000Y-118712401D01*
X164167796Y-118736905D01*
X164164196Y-118761173D01*
X164158235Y-118784972D01*
X164149970Y-118808071D01*
X164139480Y-118830250D01*
X164126868Y-118851293D01*
X164112253Y-118870999D01*
X164095777Y-118889177D01*
X164077599Y-118905653D01*
X164057893Y-118920268D01*
X164036850Y-118932880D01*
X164014671Y-118943370D01*
X163991572Y-118951635D01*
X163967773Y-118957596D01*
X163943505Y-118961196D01*
X163919001Y-118962400D01*
X163268999Y-118962400D01*
X163244495Y-118961196D01*
X163220227Y-118957596D01*
X163196428Y-118951635D01*
X163173329Y-118943370D01*
X163151150Y-118932880D01*
X163130107Y-118920268D01*
X163110401Y-118905653D01*
X163092223Y-118889177D01*
X163075747Y-118870999D01*
X163061132Y-118851293D01*
X163048520Y-118830250D01*
X163038030Y-118808071D01*
X163029765Y-118784972D01*
X163023804Y-118761173D01*
X163020204Y-118736905D01*
X163019000Y-118712401D01*
X163019000Y-117812399D01*
X163020204Y-117787895D01*
X163023804Y-117763627D01*
X163029765Y-117739828D01*
X163038030Y-117716729D01*
X163048520Y-117694550D01*
X163061132Y-117673507D01*
X163075747Y-117653801D01*
X163092223Y-117635623D01*
X163110401Y-117619147D01*
X163130107Y-117604532D01*
X163151150Y-117591920D01*
X163173329Y-117581430D01*
X163196428Y-117573165D01*
X163220227Y-117567204D01*
X163244495Y-117563604D01*
X163268999Y-117562400D01*
X163919001Y-117562400D01*
X163943505Y-117563604D01*
X163943505Y-117563604D01*
G37*
D11*
X163594000Y-118262400D03*
D10*
G36*
X161893505Y-117563604D02*
X161917773Y-117567204D01*
X161941572Y-117573165D01*
X161964671Y-117581430D01*
X161986850Y-117591920D01*
X162007893Y-117604532D01*
X162027599Y-117619147D01*
X162045777Y-117635623D01*
X162062253Y-117653801D01*
X162076868Y-117673507D01*
X162089480Y-117694550D01*
X162099970Y-117716729D01*
X162108235Y-117739828D01*
X162114196Y-117763627D01*
X162117796Y-117787895D01*
X162119000Y-117812399D01*
X162119000Y-118712401D01*
X162117796Y-118736905D01*
X162114196Y-118761173D01*
X162108235Y-118784972D01*
X162099970Y-118808071D01*
X162089480Y-118830250D01*
X162076868Y-118851293D01*
X162062253Y-118870999D01*
X162045777Y-118889177D01*
X162027599Y-118905653D01*
X162007893Y-118920268D01*
X161986850Y-118932880D01*
X161964671Y-118943370D01*
X161941572Y-118951635D01*
X161917773Y-118957596D01*
X161893505Y-118961196D01*
X161869001Y-118962400D01*
X161218999Y-118962400D01*
X161194495Y-118961196D01*
X161170227Y-118957596D01*
X161146428Y-118951635D01*
X161123329Y-118943370D01*
X161101150Y-118932880D01*
X161080107Y-118920268D01*
X161060401Y-118905653D01*
X161042223Y-118889177D01*
X161025747Y-118870999D01*
X161011132Y-118851293D01*
X160998520Y-118830250D01*
X160988030Y-118808071D01*
X160979765Y-118784972D01*
X160973804Y-118761173D01*
X160970204Y-118736905D01*
X160969000Y-118712401D01*
X160969000Y-117812399D01*
X160970204Y-117787895D01*
X160973804Y-117763627D01*
X160979765Y-117739828D01*
X160988030Y-117716729D01*
X160998520Y-117694550D01*
X161011132Y-117673507D01*
X161025747Y-117653801D01*
X161042223Y-117635623D01*
X161060401Y-117619147D01*
X161080107Y-117604532D01*
X161101150Y-117591920D01*
X161123329Y-117581430D01*
X161146428Y-117573165D01*
X161170227Y-117567204D01*
X161194495Y-117563604D01*
X161218999Y-117562400D01*
X161869001Y-117562400D01*
X161893505Y-117563604D01*
X161893505Y-117563604D01*
G37*
D11*
X161544000Y-118262400D03*
G04 #@! TD*
D10*
G04 #@! TO.C,R12*
G36*
X142511305Y-115199404D02*
X142535573Y-115203004D01*
X142559372Y-115208965D01*
X142582471Y-115217230D01*
X142604650Y-115227720D01*
X142625693Y-115240332D01*
X142645399Y-115254947D01*
X142663577Y-115271423D01*
X142680053Y-115289601D01*
X142694668Y-115309307D01*
X142707280Y-115330350D01*
X142717770Y-115352529D01*
X142726035Y-115375628D01*
X142731996Y-115399427D01*
X142735596Y-115423695D01*
X142736800Y-115448199D01*
X142736800Y-116098201D01*
X142735596Y-116122705D01*
X142731996Y-116146973D01*
X142726035Y-116170772D01*
X142717770Y-116193871D01*
X142707280Y-116216050D01*
X142694668Y-116237093D01*
X142680053Y-116256799D01*
X142663577Y-116274977D01*
X142645399Y-116291453D01*
X142625693Y-116306068D01*
X142604650Y-116318680D01*
X142582471Y-116329170D01*
X142559372Y-116337435D01*
X142535573Y-116343396D01*
X142511305Y-116346996D01*
X142486801Y-116348200D01*
X141586799Y-116348200D01*
X141562295Y-116346996D01*
X141538027Y-116343396D01*
X141514228Y-116337435D01*
X141491129Y-116329170D01*
X141468950Y-116318680D01*
X141447907Y-116306068D01*
X141428201Y-116291453D01*
X141410023Y-116274977D01*
X141393547Y-116256799D01*
X141378932Y-116237093D01*
X141366320Y-116216050D01*
X141355830Y-116193871D01*
X141347565Y-116170772D01*
X141341604Y-116146973D01*
X141338004Y-116122705D01*
X141336800Y-116098201D01*
X141336800Y-115448199D01*
X141338004Y-115423695D01*
X141341604Y-115399427D01*
X141347565Y-115375628D01*
X141355830Y-115352529D01*
X141366320Y-115330350D01*
X141378932Y-115309307D01*
X141393547Y-115289601D01*
X141410023Y-115271423D01*
X141428201Y-115254947D01*
X141447907Y-115240332D01*
X141468950Y-115227720D01*
X141491129Y-115217230D01*
X141514228Y-115208965D01*
X141538027Y-115203004D01*
X141562295Y-115199404D01*
X141586799Y-115198200D01*
X142486801Y-115198200D01*
X142511305Y-115199404D01*
X142511305Y-115199404D01*
G37*
D11*
X142036800Y-115773200D03*
D10*
G36*
X142511305Y-117249404D02*
X142535573Y-117253004D01*
X142559372Y-117258965D01*
X142582471Y-117267230D01*
X142604650Y-117277720D01*
X142625693Y-117290332D01*
X142645399Y-117304947D01*
X142663577Y-117321423D01*
X142680053Y-117339601D01*
X142694668Y-117359307D01*
X142707280Y-117380350D01*
X142717770Y-117402529D01*
X142726035Y-117425628D01*
X142731996Y-117449427D01*
X142735596Y-117473695D01*
X142736800Y-117498199D01*
X142736800Y-118148201D01*
X142735596Y-118172705D01*
X142731996Y-118196973D01*
X142726035Y-118220772D01*
X142717770Y-118243871D01*
X142707280Y-118266050D01*
X142694668Y-118287093D01*
X142680053Y-118306799D01*
X142663577Y-118324977D01*
X142645399Y-118341453D01*
X142625693Y-118356068D01*
X142604650Y-118368680D01*
X142582471Y-118379170D01*
X142559372Y-118387435D01*
X142535573Y-118393396D01*
X142511305Y-118396996D01*
X142486801Y-118398200D01*
X141586799Y-118398200D01*
X141562295Y-118396996D01*
X141538027Y-118393396D01*
X141514228Y-118387435D01*
X141491129Y-118379170D01*
X141468950Y-118368680D01*
X141447907Y-118356068D01*
X141428201Y-118341453D01*
X141410023Y-118324977D01*
X141393547Y-118306799D01*
X141378932Y-118287093D01*
X141366320Y-118266050D01*
X141355830Y-118243871D01*
X141347565Y-118220772D01*
X141341604Y-118196973D01*
X141338004Y-118172705D01*
X141336800Y-118148201D01*
X141336800Y-117498199D01*
X141338004Y-117473695D01*
X141341604Y-117449427D01*
X141347565Y-117425628D01*
X141355830Y-117402529D01*
X141366320Y-117380350D01*
X141378932Y-117359307D01*
X141393547Y-117339601D01*
X141410023Y-117321423D01*
X141428201Y-117304947D01*
X141447907Y-117290332D01*
X141468950Y-117277720D01*
X141491129Y-117267230D01*
X141514228Y-117258965D01*
X141538027Y-117253004D01*
X141562295Y-117249404D01*
X141586799Y-117248200D01*
X142486801Y-117248200D01*
X142511305Y-117249404D01*
X142511305Y-117249404D01*
G37*
D11*
X142036800Y-117823200D03*
G04 #@! TD*
D10*
G04 #@! TO.C,R13*
G36*
X146686305Y-117563604D02*
X146710573Y-117567204D01*
X146734372Y-117573165D01*
X146757471Y-117581430D01*
X146779650Y-117591920D01*
X146800693Y-117604532D01*
X146820399Y-117619147D01*
X146838577Y-117635623D01*
X146855053Y-117653801D01*
X146869668Y-117673507D01*
X146882280Y-117694550D01*
X146892770Y-117716729D01*
X146901035Y-117739828D01*
X146906996Y-117763627D01*
X146910596Y-117787895D01*
X146911800Y-117812399D01*
X146911800Y-118712401D01*
X146910596Y-118736905D01*
X146906996Y-118761173D01*
X146901035Y-118784972D01*
X146892770Y-118808071D01*
X146882280Y-118830250D01*
X146869668Y-118851293D01*
X146855053Y-118870999D01*
X146838577Y-118889177D01*
X146820399Y-118905653D01*
X146800693Y-118920268D01*
X146779650Y-118932880D01*
X146757471Y-118943370D01*
X146734372Y-118951635D01*
X146710573Y-118957596D01*
X146686305Y-118961196D01*
X146661801Y-118962400D01*
X146011799Y-118962400D01*
X145987295Y-118961196D01*
X145963027Y-118957596D01*
X145939228Y-118951635D01*
X145916129Y-118943370D01*
X145893950Y-118932880D01*
X145872907Y-118920268D01*
X145853201Y-118905653D01*
X145835023Y-118889177D01*
X145818547Y-118870999D01*
X145803932Y-118851293D01*
X145791320Y-118830250D01*
X145780830Y-118808071D01*
X145772565Y-118784972D01*
X145766604Y-118761173D01*
X145763004Y-118736905D01*
X145761800Y-118712401D01*
X145761800Y-117812399D01*
X145763004Y-117787895D01*
X145766604Y-117763627D01*
X145772565Y-117739828D01*
X145780830Y-117716729D01*
X145791320Y-117694550D01*
X145803932Y-117673507D01*
X145818547Y-117653801D01*
X145835023Y-117635623D01*
X145853201Y-117619147D01*
X145872907Y-117604532D01*
X145893950Y-117591920D01*
X145916129Y-117581430D01*
X145939228Y-117573165D01*
X145963027Y-117567204D01*
X145987295Y-117563604D01*
X146011799Y-117562400D01*
X146661801Y-117562400D01*
X146686305Y-117563604D01*
X146686305Y-117563604D01*
G37*
D11*
X146336800Y-118262400D03*
D10*
G36*
X148736305Y-117563604D02*
X148760573Y-117567204D01*
X148784372Y-117573165D01*
X148807471Y-117581430D01*
X148829650Y-117591920D01*
X148850693Y-117604532D01*
X148870399Y-117619147D01*
X148888577Y-117635623D01*
X148905053Y-117653801D01*
X148919668Y-117673507D01*
X148932280Y-117694550D01*
X148942770Y-117716729D01*
X148951035Y-117739828D01*
X148956996Y-117763627D01*
X148960596Y-117787895D01*
X148961800Y-117812399D01*
X148961800Y-118712401D01*
X148960596Y-118736905D01*
X148956996Y-118761173D01*
X148951035Y-118784972D01*
X148942770Y-118808071D01*
X148932280Y-118830250D01*
X148919668Y-118851293D01*
X148905053Y-118870999D01*
X148888577Y-118889177D01*
X148870399Y-118905653D01*
X148850693Y-118920268D01*
X148829650Y-118932880D01*
X148807471Y-118943370D01*
X148784372Y-118951635D01*
X148760573Y-118957596D01*
X148736305Y-118961196D01*
X148711801Y-118962400D01*
X148061799Y-118962400D01*
X148037295Y-118961196D01*
X148013027Y-118957596D01*
X147989228Y-118951635D01*
X147966129Y-118943370D01*
X147943950Y-118932880D01*
X147922907Y-118920268D01*
X147903201Y-118905653D01*
X147885023Y-118889177D01*
X147868547Y-118870999D01*
X147853932Y-118851293D01*
X147841320Y-118830250D01*
X147830830Y-118808071D01*
X147822565Y-118784972D01*
X147816604Y-118761173D01*
X147813004Y-118736905D01*
X147811800Y-118712401D01*
X147811800Y-117812399D01*
X147813004Y-117787895D01*
X147816604Y-117763627D01*
X147822565Y-117739828D01*
X147830830Y-117716729D01*
X147841320Y-117694550D01*
X147853932Y-117673507D01*
X147868547Y-117653801D01*
X147885023Y-117635623D01*
X147903201Y-117619147D01*
X147922907Y-117604532D01*
X147943950Y-117591920D01*
X147966129Y-117581430D01*
X147989228Y-117573165D01*
X148013027Y-117567204D01*
X148037295Y-117563604D01*
X148061799Y-117562400D01*
X148711801Y-117562400D01*
X148736305Y-117563604D01*
X148736305Y-117563604D01*
G37*
D11*
X148386800Y-118262400D03*
G04 #@! TD*
D10*
G04 #@! TO.C,R14*
G36*
X156356305Y-117563604D02*
X156380573Y-117567204D01*
X156404372Y-117573165D01*
X156427471Y-117581430D01*
X156449650Y-117591920D01*
X156470693Y-117604532D01*
X156490399Y-117619147D01*
X156508577Y-117635623D01*
X156525053Y-117653801D01*
X156539668Y-117673507D01*
X156552280Y-117694550D01*
X156562770Y-117716729D01*
X156571035Y-117739828D01*
X156576996Y-117763627D01*
X156580596Y-117787895D01*
X156581800Y-117812399D01*
X156581800Y-118712401D01*
X156580596Y-118736905D01*
X156576996Y-118761173D01*
X156571035Y-118784972D01*
X156562770Y-118808071D01*
X156552280Y-118830250D01*
X156539668Y-118851293D01*
X156525053Y-118870999D01*
X156508577Y-118889177D01*
X156490399Y-118905653D01*
X156470693Y-118920268D01*
X156449650Y-118932880D01*
X156427471Y-118943370D01*
X156404372Y-118951635D01*
X156380573Y-118957596D01*
X156356305Y-118961196D01*
X156331801Y-118962400D01*
X155681799Y-118962400D01*
X155657295Y-118961196D01*
X155633027Y-118957596D01*
X155609228Y-118951635D01*
X155586129Y-118943370D01*
X155563950Y-118932880D01*
X155542907Y-118920268D01*
X155523201Y-118905653D01*
X155505023Y-118889177D01*
X155488547Y-118870999D01*
X155473932Y-118851293D01*
X155461320Y-118830250D01*
X155450830Y-118808071D01*
X155442565Y-118784972D01*
X155436604Y-118761173D01*
X155433004Y-118736905D01*
X155431800Y-118712401D01*
X155431800Y-117812399D01*
X155433004Y-117787895D01*
X155436604Y-117763627D01*
X155442565Y-117739828D01*
X155450830Y-117716729D01*
X155461320Y-117694550D01*
X155473932Y-117673507D01*
X155488547Y-117653801D01*
X155505023Y-117635623D01*
X155523201Y-117619147D01*
X155542907Y-117604532D01*
X155563950Y-117591920D01*
X155586129Y-117581430D01*
X155609228Y-117573165D01*
X155633027Y-117567204D01*
X155657295Y-117563604D01*
X155681799Y-117562400D01*
X156331801Y-117562400D01*
X156356305Y-117563604D01*
X156356305Y-117563604D01*
G37*
D11*
X156006800Y-118262400D03*
D10*
G36*
X154306305Y-117563604D02*
X154330573Y-117567204D01*
X154354372Y-117573165D01*
X154377471Y-117581430D01*
X154399650Y-117591920D01*
X154420693Y-117604532D01*
X154440399Y-117619147D01*
X154458577Y-117635623D01*
X154475053Y-117653801D01*
X154489668Y-117673507D01*
X154502280Y-117694550D01*
X154512770Y-117716729D01*
X154521035Y-117739828D01*
X154526996Y-117763627D01*
X154530596Y-117787895D01*
X154531800Y-117812399D01*
X154531800Y-118712401D01*
X154530596Y-118736905D01*
X154526996Y-118761173D01*
X154521035Y-118784972D01*
X154512770Y-118808071D01*
X154502280Y-118830250D01*
X154489668Y-118851293D01*
X154475053Y-118870999D01*
X154458577Y-118889177D01*
X154440399Y-118905653D01*
X154420693Y-118920268D01*
X154399650Y-118932880D01*
X154377471Y-118943370D01*
X154354372Y-118951635D01*
X154330573Y-118957596D01*
X154306305Y-118961196D01*
X154281801Y-118962400D01*
X153631799Y-118962400D01*
X153607295Y-118961196D01*
X153583027Y-118957596D01*
X153559228Y-118951635D01*
X153536129Y-118943370D01*
X153513950Y-118932880D01*
X153492907Y-118920268D01*
X153473201Y-118905653D01*
X153455023Y-118889177D01*
X153438547Y-118870999D01*
X153423932Y-118851293D01*
X153411320Y-118830250D01*
X153400830Y-118808071D01*
X153392565Y-118784972D01*
X153386604Y-118761173D01*
X153383004Y-118736905D01*
X153381800Y-118712401D01*
X153381800Y-117812399D01*
X153383004Y-117787895D01*
X153386604Y-117763627D01*
X153392565Y-117739828D01*
X153400830Y-117716729D01*
X153411320Y-117694550D01*
X153423932Y-117673507D01*
X153438547Y-117653801D01*
X153455023Y-117635623D01*
X153473201Y-117619147D01*
X153492907Y-117604532D01*
X153513950Y-117591920D01*
X153536129Y-117581430D01*
X153559228Y-117573165D01*
X153583027Y-117567204D01*
X153607295Y-117563604D01*
X153631799Y-117562400D01*
X154281801Y-117562400D01*
X154306305Y-117563604D01*
X154306305Y-117563604D01*
G37*
D11*
X153956800Y-118262400D03*
G04 #@! TD*
M02*
