G04 #@! TF.GenerationSoftware,KiCad,Pcbnew,5.0.2+dfsg1-1*
G04 #@! TF.CreationDate,2019-10-16T13:58:15+02:00*
G04 #@! TF.ProjectId,BEE,4245452e-6b69-4636-9164-5f7063625858,rev?*
G04 #@! TF.SameCoordinates,Original*
G04 #@! TF.FileFunction,Legend,Top*
G04 #@! TF.FilePolarity,Positive*
%FSLAX46Y46*%
G04 Gerber Fmt 4.6, Leading zero omitted, Abs format (unit mm)*
G04 Created by KiCad (PCBNEW 5.0.2+dfsg1-1) date Wed 16 Oct 2019 01:58:15 PM CEST*
%MOMM*%
%LPD*%
G01*
G04 APERTURE LIST*
%ADD10C,0.300000*%
%ADD11C,0.150000*%
%ADD12C,0.120000*%
%ADD13C,0.010000*%
G04 APERTURE END LIST*
D10*
X160702857Y-104517000D02*
X161417142Y-104517000D01*
X160560000Y-104945571D02*
X161060000Y-103445571D01*
X161560000Y-104945571D01*
X162060000Y-104945571D02*
X162060000Y-103445571D01*
X162417142Y-103445571D01*
X162631428Y-103517000D01*
X162774285Y-103659857D01*
X162845714Y-103802714D01*
X162917142Y-104088428D01*
X162917142Y-104302714D01*
X162845714Y-104588428D01*
X162774285Y-104731285D01*
X162631428Y-104874142D01*
X162417142Y-104945571D01*
X162060000Y-104945571D01*
X164417142Y-104802714D02*
X164345714Y-104874142D01*
X164131428Y-104945571D01*
X163988571Y-104945571D01*
X163774285Y-104874142D01*
X163631428Y-104731285D01*
X163560000Y-104588428D01*
X163488571Y-104302714D01*
X163488571Y-104088428D01*
X163560000Y-103802714D01*
X163631428Y-103659857D01*
X163774285Y-103517000D01*
X163988571Y-103445571D01*
X164131428Y-103445571D01*
X164345714Y-103517000D01*
X164417142Y-103588428D01*
X142613285Y-104691571D02*
X142613285Y-103191571D01*
X142970428Y-103191571D01*
X143184714Y-103263000D01*
X143327571Y-103405857D01*
X143399000Y-103548714D01*
X143470428Y-103834428D01*
X143470428Y-104048714D01*
X143399000Y-104334428D01*
X143327571Y-104477285D01*
X143184714Y-104620142D01*
X142970428Y-104691571D01*
X142613285Y-104691571D01*
X144041857Y-104263000D02*
X144756142Y-104263000D01*
X143899000Y-104691571D02*
X144399000Y-103191571D01*
X144899000Y-104691571D01*
X146256142Y-104548714D02*
X146184714Y-104620142D01*
X145970428Y-104691571D01*
X145827571Y-104691571D01*
X145613285Y-104620142D01*
X145470428Y-104477285D01*
X145399000Y-104334428D01*
X145327571Y-104048714D01*
X145327571Y-103834428D01*
X145399000Y-103548714D01*
X145470428Y-103405857D01*
X145613285Y-103263000D01*
X145827571Y-103191571D01*
X145970428Y-103191571D01*
X146184714Y-103263000D01*
X146256142Y-103334428D01*
D11*
X136519571Y-94782047D02*
X136519571Y-94132047D01*
X136736238Y-94596333D01*
X136952904Y-94132047D01*
X136952904Y-94782047D01*
X137386238Y-94132047D02*
X137510047Y-94132047D01*
X137571952Y-94163000D01*
X137633857Y-94224904D01*
X137664809Y-94348714D01*
X137664809Y-94565380D01*
X137633857Y-94689190D01*
X137571952Y-94751095D01*
X137510047Y-94782047D01*
X137386238Y-94782047D01*
X137324333Y-94751095D01*
X137262428Y-94689190D01*
X137231476Y-94565380D01*
X137231476Y-94348714D01*
X137262428Y-94224904D01*
X137324333Y-94163000D01*
X137386238Y-94132047D01*
X137912428Y-94751095D02*
X138005285Y-94782047D01*
X138160047Y-94782047D01*
X138221952Y-94751095D01*
X138252904Y-94720142D01*
X138283857Y-94658238D01*
X138283857Y-94596333D01*
X138252904Y-94534428D01*
X138221952Y-94503476D01*
X138160047Y-94472523D01*
X138036238Y-94441571D01*
X137974333Y-94410619D01*
X137943380Y-94379666D01*
X137912428Y-94317761D01*
X137912428Y-94255857D01*
X137943380Y-94193952D01*
X137974333Y-94163000D01*
X138036238Y-94132047D01*
X138191000Y-94132047D01*
X138283857Y-94163000D01*
X138562428Y-94782047D02*
X138562428Y-94132047D01*
X133852571Y-94782047D02*
X133852571Y-94132047D01*
X134069238Y-94596333D01*
X134285904Y-94132047D01*
X134285904Y-94782047D01*
X134595428Y-94782047D02*
X134595428Y-94132047D01*
X134874000Y-94751095D02*
X134966857Y-94782047D01*
X135121619Y-94782047D01*
X135183523Y-94751095D01*
X135214476Y-94720142D01*
X135245428Y-94658238D01*
X135245428Y-94596333D01*
X135214476Y-94534428D01*
X135183523Y-94503476D01*
X135121619Y-94472523D01*
X134997809Y-94441571D01*
X134935904Y-94410619D01*
X134904952Y-94379666D01*
X134874000Y-94317761D01*
X134874000Y-94255857D01*
X134904952Y-94193952D01*
X134935904Y-94163000D01*
X134997809Y-94132047D01*
X135152571Y-94132047D01*
X135245428Y-94163000D01*
X135647809Y-94132047D02*
X135771619Y-94132047D01*
X135833523Y-94163000D01*
X135895428Y-94224904D01*
X135926380Y-94348714D01*
X135926380Y-94565380D01*
X135895428Y-94689190D01*
X135833523Y-94751095D01*
X135771619Y-94782047D01*
X135647809Y-94782047D01*
X135585904Y-94751095D01*
X135524000Y-94689190D01*
X135493047Y-94565380D01*
X135493047Y-94348714D01*
X135524000Y-94224904D01*
X135585904Y-94163000D01*
X135647809Y-94132047D01*
X130981190Y-94751095D02*
X131074047Y-94782047D01*
X131228809Y-94782047D01*
X131290714Y-94751095D01*
X131321666Y-94720142D01*
X131352619Y-94658238D01*
X131352619Y-94596333D01*
X131321666Y-94534428D01*
X131290714Y-94503476D01*
X131228809Y-94472523D01*
X131105000Y-94441571D01*
X131043095Y-94410619D01*
X131012142Y-94379666D01*
X130981190Y-94317761D01*
X130981190Y-94255857D01*
X131012142Y-94193952D01*
X131043095Y-94163000D01*
X131105000Y-94132047D01*
X131259761Y-94132047D01*
X131352619Y-94163000D01*
X132002619Y-94720142D02*
X131971666Y-94751095D01*
X131878809Y-94782047D01*
X131816904Y-94782047D01*
X131724047Y-94751095D01*
X131662142Y-94689190D01*
X131631190Y-94627285D01*
X131600238Y-94503476D01*
X131600238Y-94410619D01*
X131631190Y-94286809D01*
X131662142Y-94224904D01*
X131724047Y-94163000D01*
X131816904Y-94132047D01*
X131878809Y-94132047D01*
X131971666Y-94163000D01*
X132002619Y-94193952D01*
X132590714Y-94782047D02*
X132281190Y-94782047D01*
X132281190Y-94132047D01*
X132807380Y-94782047D02*
X132807380Y-94132047D01*
X133178809Y-94782047D02*
X132900238Y-94410619D01*
X133178809Y-94132047D02*
X132807380Y-94503476D01*
X129010619Y-94720142D02*
X128979666Y-94751095D01*
X128886809Y-94782047D01*
X128824904Y-94782047D01*
X128732047Y-94751095D01*
X128670142Y-94689190D01*
X128639190Y-94627285D01*
X128608238Y-94503476D01*
X128608238Y-94410619D01*
X128639190Y-94286809D01*
X128670142Y-94224904D01*
X128732047Y-94163000D01*
X128824904Y-94132047D01*
X128886809Y-94132047D01*
X128979666Y-94163000D01*
X129010619Y-94193952D01*
X129289190Y-94441571D02*
X129505857Y-94441571D01*
X129598714Y-94782047D02*
X129289190Y-94782047D01*
X129289190Y-94132047D01*
X129598714Y-94132047D01*
X130001095Y-94132047D02*
X130063000Y-94132047D01*
X130124904Y-94163000D01*
X130155857Y-94193952D01*
X130186809Y-94255857D01*
X130217761Y-94379666D01*
X130217761Y-94534428D01*
X130186809Y-94658238D01*
X130155857Y-94720142D01*
X130124904Y-94751095D01*
X130063000Y-94782047D01*
X130001095Y-94782047D01*
X129939190Y-94751095D01*
X129908238Y-94720142D01*
X129877285Y-94658238D01*
X129846333Y-94534428D01*
X129846333Y-94379666D01*
X129877285Y-94255857D01*
X129908238Y-94193952D01*
X129939190Y-94163000D01*
X130001095Y-94132047D01*
X126597619Y-94720142D02*
X126566666Y-94751095D01*
X126473809Y-94782047D01*
X126411904Y-94782047D01*
X126319047Y-94751095D01*
X126257142Y-94689190D01*
X126226190Y-94627285D01*
X126195238Y-94503476D01*
X126195238Y-94410619D01*
X126226190Y-94286809D01*
X126257142Y-94224904D01*
X126319047Y-94163000D01*
X126411904Y-94132047D01*
X126473809Y-94132047D01*
X126566666Y-94163000D01*
X126597619Y-94193952D01*
X126876190Y-94441571D02*
X127092857Y-94441571D01*
X127185714Y-94782047D02*
X126876190Y-94782047D01*
X126876190Y-94132047D01*
X127185714Y-94132047D01*
X127804761Y-94782047D02*
X127433333Y-94782047D01*
X127619047Y-94782047D02*
X127619047Y-94132047D01*
X127557142Y-94224904D01*
X127495238Y-94286809D01*
X127433333Y-94317761D01*
X135733285Y-93430285D02*
X135483285Y-93073142D01*
X135304714Y-93430285D02*
X135304714Y-92680285D01*
X135590428Y-92680285D01*
X135661857Y-92716000D01*
X135697571Y-92751714D01*
X135733285Y-92823142D01*
X135733285Y-92930285D01*
X135697571Y-93001714D01*
X135661857Y-93037428D01*
X135590428Y-93073142D01*
X135304714Y-93073142D01*
X135947571Y-92680285D02*
X136376142Y-92680285D01*
X136161857Y-93430285D02*
X136161857Y-92680285D01*
X136590428Y-93394571D02*
X136697571Y-93430285D01*
X136876142Y-93430285D01*
X136947571Y-93394571D01*
X136983285Y-93358857D01*
X137019000Y-93287428D01*
X137019000Y-93216000D01*
X136983285Y-93144571D01*
X136947571Y-93108857D01*
X136876142Y-93073142D01*
X136733285Y-93037428D01*
X136661857Y-93001714D01*
X136626142Y-92966000D01*
X136590428Y-92894571D01*
X136590428Y-92823142D01*
X136626142Y-92751714D01*
X136661857Y-92716000D01*
X136733285Y-92680285D01*
X136911857Y-92680285D01*
X137019000Y-92716000D01*
X141226000Y-93430285D02*
X140976000Y-93073142D01*
X140797428Y-93430285D02*
X140797428Y-92680285D01*
X141083142Y-92680285D01*
X141154571Y-92716000D01*
X141190285Y-92751714D01*
X141226000Y-92823142D01*
X141226000Y-92930285D01*
X141190285Y-93001714D01*
X141154571Y-93037428D01*
X141083142Y-93073142D01*
X140797428Y-93073142D01*
X141476000Y-92680285D02*
X141976000Y-93430285D01*
X141976000Y-92680285D02*
X141476000Y-93430285D01*
X143192571Y-92680285D02*
X143621142Y-92680285D01*
X143406857Y-93430285D02*
X143406857Y-92680285D01*
X143799714Y-92680285D02*
X144299714Y-93430285D01*
X144299714Y-92680285D02*
X143799714Y-93430285D01*
X146020285Y-93358857D02*
X145984571Y-93394571D01*
X145877428Y-93430285D01*
X145806000Y-93430285D01*
X145698857Y-93394571D01*
X145627428Y-93323142D01*
X145591714Y-93251714D01*
X145556000Y-93108857D01*
X145556000Y-93001714D01*
X145591714Y-92858857D01*
X145627428Y-92787428D01*
X145698857Y-92716000D01*
X145806000Y-92680285D01*
X145877428Y-92680285D01*
X145984571Y-92716000D01*
X146020285Y-92751714D01*
X146234571Y-92680285D02*
X146663142Y-92680285D01*
X146448857Y-93430285D02*
X146448857Y-92680285D01*
X146877428Y-93394571D02*
X146984571Y-93430285D01*
X147163142Y-93430285D01*
X147234571Y-93394571D01*
X147270285Y-93358857D01*
X147306000Y-93287428D01*
X147306000Y-93216000D01*
X147270285Y-93144571D01*
X147234571Y-93108857D01*
X147163142Y-93073142D01*
X147020285Y-93037428D01*
X146948857Y-93001714D01*
X146913142Y-92966000D01*
X146877428Y-92894571D01*
X146877428Y-92823142D01*
X146913142Y-92751714D01*
X146948857Y-92716000D01*
X147020285Y-92680285D01*
X147198857Y-92680285D01*
X147306000Y-92716000D01*
X133032571Y-88017000D02*
X132961142Y-87981285D01*
X132854000Y-87981285D01*
X132746857Y-88017000D01*
X132675428Y-88088428D01*
X132639714Y-88159857D01*
X132604000Y-88302714D01*
X132604000Y-88409857D01*
X132639714Y-88552714D01*
X132675428Y-88624142D01*
X132746857Y-88695571D01*
X132854000Y-88731285D01*
X132925428Y-88731285D01*
X133032571Y-88695571D01*
X133068285Y-88659857D01*
X133068285Y-88409857D01*
X132925428Y-88409857D01*
X133389714Y-88731285D02*
X133389714Y-87981285D01*
X133818285Y-88731285D01*
X133818285Y-87981285D01*
X134175428Y-88731285D02*
X134175428Y-87981285D01*
X134354000Y-87981285D01*
X134461142Y-88017000D01*
X134532571Y-88088428D01*
X134568285Y-88159857D01*
X134604000Y-88302714D01*
X134604000Y-88409857D01*
X134568285Y-88552714D01*
X134532571Y-88624142D01*
X134461142Y-88695571D01*
X134354000Y-88731285D01*
X134175428Y-88731285D01*
X151743285Y-93394571D02*
X151850428Y-93430285D01*
X152029000Y-93430285D01*
X152100428Y-93394571D01*
X152136142Y-93358857D01*
X152171857Y-93287428D01*
X152171857Y-93216000D01*
X152136142Y-93144571D01*
X152100428Y-93108857D01*
X152029000Y-93073142D01*
X151886142Y-93037428D01*
X151814714Y-93001714D01*
X151779000Y-92966000D01*
X151743285Y-92894571D01*
X151743285Y-92823142D01*
X151779000Y-92751714D01*
X151814714Y-92716000D01*
X151886142Y-92680285D01*
X152064714Y-92680285D01*
X152171857Y-92716000D01*
X152493285Y-93430285D02*
X152493285Y-92680285D01*
X152671857Y-92680285D01*
X152779000Y-92716000D01*
X152850428Y-92787428D01*
X152886142Y-92858857D01*
X152921857Y-93001714D01*
X152921857Y-93108857D01*
X152886142Y-93251714D01*
X152850428Y-93323142D01*
X152779000Y-93394571D01*
X152671857Y-93430285D01*
X152493285Y-93430285D01*
X153207571Y-93216000D02*
X153564714Y-93216000D01*
X153136142Y-93430285D02*
X153386142Y-92680285D01*
X153636142Y-93430285D01*
X149221142Y-93394571D02*
X149328285Y-93430285D01*
X149506857Y-93430285D01*
X149578285Y-93394571D01*
X149614000Y-93358857D01*
X149649714Y-93287428D01*
X149649714Y-93216000D01*
X149614000Y-93144571D01*
X149578285Y-93108857D01*
X149506857Y-93073142D01*
X149364000Y-93037428D01*
X149292571Y-93001714D01*
X149256857Y-92966000D01*
X149221142Y-92894571D01*
X149221142Y-92823142D01*
X149256857Y-92751714D01*
X149292571Y-92716000D01*
X149364000Y-92680285D01*
X149542571Y-92680285D01*
X149649714Y-92716000D01*
X150399714Y-93358857D02*
X150364000Y-93394571D01*
X150256857Y-93430285D01*
X150185428Y-93430285D01*
X150078285Y-93394571D01*
X150006857Y-93323142D01*
X149971142Y-93251714D01*
X149935428Y-93108857D01*
X149935428Y-93001714D01*
X149971142Y-92858857D01*
X150006857Y-92787428D01*
X150078285Y-92716000D01*
X150185428Y-92680285D01*
X150256857Y-92680285D01*
X150364000Y-92716000D01*
X150399714Y-92751714D01*
X151078285Y-93430285D02*
X150721142Y-93430285D01*
X150721142Y-92680285D01*
X114921285Y-94827285D02*
X114921285Y-94077285D01*
X115207000Y-94077285D01*
X115278428Y-94113000D01*
X115314142Y-94148714D01*
X115349857Y-94220142D01*
X115349857Y-94327285D01*
X115314142Y-94398714D01*
X115278428Y-94434428D01*
X115207000Y-94470142D01*
X114921285Y-94470142D01*
X115599857Y-94077285D02*
X115778428Y-94827285D01*
X115921285Y-94291571D01*
X116064142Y-94827285D01*
X116242714Y-94077285D01*
X116528428Y-94827285D02*
X116528428Y-94077285D01*
X116778428Y-94613000D01*
X117028428Y-94077285D01*
X117028428Y-94827285D01*
X117778428Y-94827285D02*
X117349857Y-94827285D01*
X117564142Y-94827285D02*
X117564142Y-94077285D01*
X117492714Y-94184428D01*
X117421285Y-94255857D01*
X117349857Y-94291571D01*
X118310714Y-94541571D02*
X118882142Y-94541571D01*
X119239285Y-94827285D02*
X119239285Y-94077285D01*
X119525000Y-94077285D01*
X119596428Y-94113000D01*
X119632142Y-94148714D01*
X119667857Y-94220142D01*
X119667857Y-94327285D01*
X119632142Y-94398714D01*
X119596428Y-94434428D01*
X119525000Y-94470142D01*
X119239285Y-94470142D01*
X119917857Y-94077285D02*
X120096428Y-94827285D01*
X120239285Y-94291571D01*
X120382142Y-94827285D01*
X120560714Y-94077285D01*
X120846428Y-94827285D02*
X120846428Y-94077285D01*
X121096428Y-94613000D01*
X121346428Y-94077285D01*
X121346428Y-94827285D01*
X121846428Y-94077285D02*
X121917857Y-94077285D01*
X121989285Y-94113000D01*
X122025000Y-94148714D01*
X122060714Y-94220142D01*
X122096428Y-94363000D01*
X122096428Y-94541571D01*
X122060714Y-94684428D01*
X122025000Y-94755857D01*
X121989285Y-94791571D01*
X121917857Y-94827285D01*
X121846428Y-94827285D01*
X121775000Y-94791571D01*
X121739285Y-94755857D01*
X121703571Y-94684428D01*
X121667857Y-94541571D01*
X121667857Y-94363000D01*
X121703571Y-94220142D01*
X121739285Y-94148714D01*
X121775000Y-94113000D01*
X121846428Y-94077285D01*
X122417857Y-94541571D02*
X122989285Y-94541571D01*
X171083000Y-85949285D02*
X171083000Y-86485000D01*
X171047285Y-86592142D01*
X170975857Y-86663571D01*
X170868714Y-86699285D01*
X170797285Y-86699285D01*
X171333000Y-85949285D02*
X171761571Y-85949285D01*
X171547285Y-86699285D02*
X171547285Y-85949285D01*
X171975857Y-86485000D02*
X172333000Y-86485000D01*
X171904428Y-86699285D02*
X172154428Y-85949285D01*
X172404428Y-86699285D01*
X173047285Y-85985000D02*
X172975857Y-85949285D01*
X172868714Y-85949285D01*
X172761571Y-85985000D01*
X172690142Y-86056428D01*
X172654428Y-86127857D01*
X172618714Y-86270714D01*
X172618714Y-86377857D01*
X172654428Y-86520714D01*
X172690142Y-86592142D01*
X172761571Y-86663571D01*
X172868714Y-86699285D01*
X172940142Y-86699285D01*
X173047285Y-86663571D01*
X173083000Y-86627857D01*
X173083000Y-86377857D01*
X172940142Y-86377857D01*
X166570428Y-104800714D02*
X166606142Y-104693571D01*
X166641857Y-104657857D01*
X166713285Y-104622142D01*
X166820428Y-104622142D01*
X166891857Y-104657857D01*
X166927571Y-104693571D01*
X166963285Y-104765000D01*
X166963285Y-105050714D01*
X166213285Y-105050714D01*
X166213285Y-104800714D01*
X166249000Y-104729285D01*
X166284714Y-104693571D01*
X166356142Y-104657857D01*
X166427571Y-104657857D01*
X166499000Y-104693571D01*
X166534714Y-104729285D01*
X166570428Y-104800714D01*
X166570428Y-105050714D01*
X166284714Y-104336428D02*
X166249000Y-104300714D01*
X166213285Y-104229285D01*
X166213285Y-104050714D01*
X166249000Y-103979285D01*
X166284714Y-103943571D01*
X166356142Y-103907857D01*
X166427571Y-103907857D01*
X166534714Y-103943571D01*
X166963285Y-104372142D01*
X166963285Y-103907857D01*
X166463285Y-103265000D02*
X166963285Y-103265000D01*
X166177571Y-103443571D02*
X166713285Y-103622142D01*
X166713285Y-103157857D01*
X166570428Y-102260714D02*
X166606142Y-102153571D01*
X166641857Y-102117857D01*
X166713285Y-102082142D01*
X166820428Y-102082142D01*
X166891857Y-102117857D01*
X166927571Y-102153571D01*
X166963285Y-102225000D01*
X166963285Y-102510714D01*
X166213285Y-102510714D01*
X166213285Y-102260714D01*
X166249000Y-102189285D01*
X166284714Y-102153571D01*
X166356142Y-102117857D01*
X166427571Y-102117857D01*
X166499000Y-102153571D01*
X166534714Y-102189285D01*
X166570428Y-102260714D01*
X166570428Y-102510714D01*
X166284714Y-101796428D02*
X166249000Y-101760714D01*
X166213285Y-101689285D01*
X166213285Y-101510714D01*
X166249000Y-101439285D01*
X166284714Y-101403571D01*
X166356142Y-101367857D01*
X166427571Y-101367857D01*
X166534714Y-101403571D01*
X166963285Y-101832142D01*
X166963285Y-101367857D01*
X166213285Y-101117857D02*
X166213285Y-100653571D01*
X166499000Y-100903571D01*
X166499000Y-100796428D01*
X166534714Y-100725000D01*
X166570428Y-100689285D01*
X166641857Y-100653571D01*
X166820428Y-100653571D01*
X166891857Y-100689285D01*
X166927571Y-100725000D01*
X166963285Y-100796428D01*
X166963285Y-101010714D01*
X166927571Y-101082142D01*
X166891857Y-101117857D01*
X166570428Y-99720714D02*
X166606142Y-99613571D01*
X166641857Y-99577857D01*
X166713285Y-99542142D01*
X166820428Y-99542142D01*
X166891857Y-99577857D01*
X166927571Y-99613571D01*
X166963285Y-99685000D01*
X166963285Y-99970714D01*
X166213285Y-99970714D01*
X166213285Y-99720714D01*
X166249000Y-99649285D01*
X166284714Y-99613571D01*
X166356142Y-99577857D01*
X166427571Y-99577857D01*
X166499000Y-99613571D01*
X166534714Y-99649285D01*
X166570428Y-99720714D01*
X166570428Y-99970714D01*
X166284714Y-99256428D02*
X166249000Y-99220714D01*
X166213285Y-99149285D01*
X166213285Y-98970714D01*
X166249000Y-98899285D01*
X166284714Y-98863571D01*
X166356142Y-98827857D01*
X166427571Y-98827857D01*
X166534714Y-98863571D01*
X166963285Y-99292142D01*
X166963285Y-98827857D01*
X166213285Y-98149285D02*
X166213285Y-98506428D01*
X166570428Y-98542142D01*
X166534714Y-98506428D01*
X166499000Y-98435000D01*
X166499000Y-98256428D01*
X166534714Y-98185000D01*
X166570428Y-98149285D01*
X166641857Y-98113571D01*
X166820428Y-98113571D01*
X166891857Y-98149285D01*
X166927571Y-98185000D01*
X166963285Y-98256428D01*
X166963285Y-98435000D01*
X166927571Y-98506428D01*
X166891857Y-98542142D01*
X166570428Y-97053714D02*
X166606142Y-96946571D01*
X166641857Y-96910857D01*
X166713285Y-96875142D01*
X166820428Y-96875142D01*
X166891857Y-96910857D01*
X166927571Y-96946571D01*
X166963285Y-97018000D01*
X166963285Y-97303714D01*
X166213285Y-97303714D01*
X166213285Y-97053714D01*
X166249000Y-96982285D01*
X166284714Y-96946571D01*
X166356142Y-96910857D01*
X166427571Y-96910857D01*
X166499000Y-96946571D01*
X166534714Y-96982285D01*
X166570428Y-97053714D01*
X166570428Y-97303714D01*
X166284714Y-96589428D02*
X166249000Y-96553714D01*
X166213285Y-96482285D01*
X166213285Y-96303714D01*
X166249000Y-96232285D01*
X166284714Y-96196571D01*
X166356142Y-96160857D01*
X166427571Y-96160857D01*
X166534714Y-96196571D01*
X166963285Y-96625142D01*
X166963285Y-96160857D01*
X166213285Y-95910857D02*
X166213285Y-95410857D01*
X166963285Y-95732285D01*
X166570428Y-92100714D02*
X166606142Y-91993571D01*
X166641857Y-91957857D01*
X166713285Y-91922142D01*
X166820428Y-91922142D01*
X166891857Y-91957857D01*
X166927571Y-91993571D01*
X166963285Y-92065000D01*
X166963285Y-92350714D01*
X166213285Y-92350714D01*
X166213285Y-92100714D01*
X166249000Y-92029285D01*
X166284714Y-91993571D01*
X166356142Y-91957857D01*
X166427571Y-91957857D01*
X166499000Y-91993571D01*
X166534714Y-92029285D01*
X166570428Y-92100714D01*
X166570428Y-92350714D01*
X166284714Y-91636428D02*
X166249000Y-91600714D01*
X166213285Y-91529285D01*
X166213285Y-91350714D01*
X166249000Y-91279285D01*
X166284714Y-91243571D01*
X166356142Y-91207857D01*
X166427571Y-91207857D01*
X166534714Y-91243571D01*
X166963285Y-91672142D01*
X166963285Y-91207857D01*
X166284714Y-90922142D02*
X166249000Y-90886428D01*
X166213285Y-90815000D01*
X166213285Y-90636428D01*
X166249000Y-90565000D01*
X166284714Y-90529285D01*
X166356142Y-90493571D01*
X166427571Y-90493571D01*
X166534714Y-90529285D01*
X166963285Y-90957857D01*
X166963285Y-90493571D01*
X166570428Y-94283571D02*
X166606142Y-94176428D01*
X166641857Y-94140714D01*
X166713285Y-94105000D01*
X166820428Y-94105000D01*
X166891857Y-94140714D01*
X166927571Y-94176428D01*
X166963285Y-94247857D01*
X166963285Y-94533571D01*
X166213285Y-94533571D01*
X166213285Y-94283571D01*
X166249000Y-94212142D01*
X166284714Y-94176428D01*
X166356142Y-94140714D01*
X166427571Y-94140714D01*
X166499000Y-94176428D01*
X166534714Y-94212142D01*
X166570428Y-94283571D01*
X166570428Y-94533571D01*
X166463285Y-93462142D02*
X166963285Y-93462142D01*
X166177571Y-93640714D02*
X166713285Y-93819285D01*
X166713285Y-93355000D01*
X139434285Y-113377285D02*
X139434285Y-113877285D01*
X139434285Y-113448714D02*
X139470000Y-113413000D01*
X139541428Y-113377285D01*
X139648571Y-113377285D01*
X139720000Y-113413000D01*
X139755714Y-113484428D01*
X139755714Y-113877285D01*
X140470000Y-113877285D02*
X140112857Y-113877285D01*
X140112857Y-113127285D01*
X140720000Y-113877285D02*
X140720000Y-113127285D01*
X140898571Y-113127285D01*
X141005714Y-113163000D01*
X141077142Y-113234428D01*
X141112857Y-113305857D01*
X141148571Y-113448714D01*
X141148571Y-113555857D01*
X141112857Y-113698714D01*
X141077142Y-113770142D01*
X141005714Y-113841571D01*
X140898571Y-113877285D01*
X140720000Y-113877285D01*
X141434285Y-113663000D02*
X141791428Y-113663000D01*
X141362857Y-113877285D02*
X141612857Y-113127285D01*
X141862857Y-113877285D01*
X142541428Y-113805857D02*
X142505714Y-113841571D01*
X142398571Y-113877285D01*
X142327142Y-113877285D01*
X142220000Y-113841571D01*
X142148571Y-113770142D01*
X142112857Y-113698714D01*
X142077142Y-113555857D01*
X142077142Y-113448714D01*
X142112857Y-113305857D01*
X142148571Y-113234428D01*
X142220000Y-113163000D01*
X142327142Y-113127285D01*
X142398571Y-113127285D01*
X142505714Y-113163000D01*
X142541428Y-113198714D01*
X159637142Y-105507285D02*
X159887142Y-106257285D01*
X160137142Y-105507285D01*
X160387142Y-106257285D02*
X160387142Y-105757285D01*
X160387142Y-105900142D02*
X160422857Y-105828714D01*
X160458571Y-105793000D01*
X160530000Y-105757285D01*
X160601428Y-105757285D01*
X161137142Y-106221571D02*
X161065714Y-106257285D01*
X160922857Y-106257285D01*
X160851428Y-106221571D01*
X160815714Y-106150142D01*
X160815714Y-105864428D01*
X160851428Y-105793000D01*
X160922857Y-105757285D01*
X161065714Y-105757285D01*
X161137142Y-105793000D01*
X161172857Y-105864428D01*
X161172857Y-105935857D01*
X160815714Y-106007285D01*
X161387142Y-105757285D02*
X161672857Y-105757285D01*
X161494285Y-106257285D02*
X161494285Y-105614428D01*
X161530000Y-105543000D01*
X161601428Y-105507285D01*
X161672857Y-105507285D01*
X153160142Y-112111285D02*
X153410142Y-112861285D01*
X153660142Y-112111285D01*
X153910142Y-112861285D02*
X153910142Y-112361285D01*
X153910142Y-112504142D02*
X153945857Y-112432714D01*
X153981571Y-112397000D01*
X154053000Y-112361285D01*
X154124428Y-112361285D01*
X154660142Y-112825571D02*
X154588714Y-112861285D01*
X154445857Y-112861285D01*
X154374428Y-112825571D01*
X154338714Y-112754142D01*
X154338714Y-112468428D01*
X154374428Y-112397000D01*
X154445857Y-112361285D01*
X154588714Y-112361285D01*
X154660142Y-112397000D01*
X154695857Y-112468428D01*
X154695857Y-112539857D01*
X154338714Y-112611285D01*
X154910142Y-112361285D02*
X155195857Y-112361285D01*
X155017285Y-112861285D02*
X155017285Y-112218428D01*
X155053000Y-112147000D01*
X155124428Y-112111285D01*
X155195857Y-112111285D01*
X165326285Y-115441000D02*
X165683428Y-115441000D01*
X165254857Y-115655285D02*
X165504857Y-114905285D01*
X165754857Y-115655285D01*
X165933428Y-114905285D02*
X166433428Y-114905285D01*
X166112000Y-115655285D01*
X162532285Y-115441000D02*
X162889428Y-115441000D01*
X162460857Y-115655285D02*
X162710857Y-114905285D01*
X162960857Y-115655285D01*
X163532285Y-114905285D02*
X163389428Y-114905285D01*
X163318000Y-114941000D01*
X163282285Y-114976714D01*
X163210857Y-115083857D01*
X163175142Y-115226714D01*
X163175142Y-115512428D01*
X163210857Y-115583857D01*
X163246571Y-115619571D01*
X163318000Y-115655285D01*
X163460857Y-115655285D01*
X163532285Y-115619571D01*
X163568000Y-115583857D01*
X163603714Y-115512428D01*
X163603714Y-115333857D01*
X163568000Y-115262428D01*
X163532285Y-115226714D01*
X163460857Y-115191000D01*
X163318000Y-115191000D01*
X163246571Y-115226714D01*
X163210857Y-115262428D01*
X163175142Y-115333857D01*
X159992285Y-115441000D02*
X160349428Y-115441000D01*
X159920857Y-115655285D02*
X160170857Y-114905285D01*
X160420857Y-115655285D01*
X161028000Y-114905285D02*
X160670857Y-114905285D01*
X160635142Y-115262428D01*
X160670857Y-115226714D01*
X160742285Y-115191000D01*
X160920857Y-115191000D01*
X160992285Y-115226714D01*
X161028000Y-115262428D01*
X161063714Y-115333857D01*
X161063714Y-115512428D01*
X161028000Y-115583857D01*
X160992285Y-115619571D01*
X160920857Y-115655285D01*
X160742285Y-115655285D01*
X160670857Y-115619571D01*
X160635142Y-115583857D01*
X157452285Y-115441000D02*
X157809428Y-115441000D01*
X157380857Y-115655285D02*
X157630857Y-114905285D01*
X157880857Y-115655285D01*
X158452285Y-115155285D02*
X158452285Y-115655285D01*
X158273714Y-114869571D02*
X158095142Y-115405285D01*
X158559428Y-115405285D01*
X155166285Y-115441000D02*
X155523428Y-115441000D01*
X155094857Y-115655285D02*
X155344857Y-114905285D01*
X155594857Y-115655285D01*
X155773428Y-114905285D02*
X156237714Y-114905285D01*
X155987714Y-115191000D01*
X156094857Y-115191000D01*
X156166285Y-115226714D01*
X156202000Y-115262428D01*
X156237714Y-115333857D01*
X156237714Y-115512428D01*
X156202000Y-115583857D01*
X156166285Y-115619571D01*
X156094857Y-115655285D01*
X155880571Y-115655285D01*
X155809142Y-115619571D01*
X155773428Y-115583857D01*
X152372285Y-115441000D02*
X152729428Y-115441000D01*
X152300857Y-115655285D02*
X152550857Y-114905285D01*
X152800857Y-115655285D01*
X153015142Y-114976714D02*
X153050857Y-114941000D01*
X153122285Y-114905285D01*
X153300857Y-114905285D01*
X153372285Y-114941000D01*
X153408000Y-114976714D01*
X153443714Y-115048142D01*
X153443714Y-115119571D01*
X153408000Y-115226714D01*
X152979428Y-115655285D01*
X153443714Y-115655285D01*
X149832285Y-115441000D02*
X150189428Y-115441000D01*
X149760857Y-115655285D02*
X150010857Y-114905285D01*
X150260857Y-115655285D01*
X150903714Y-115655285D02*
X150475142Y-115655285D01*
X150689428Y-115655285D02*
X150689428Y-114905285D01*
X150618000Y-115012428D01*
X150546571Y-115083857D01*
X150475142Y-115119571D01*
X147546285Y-115441000D02*
X147903428Y-115441000D01*
X147474857Y-115655285D02*
X147724857Y-114905285D01*
X147974857Y-115655285D01*
X148367714Y-114905285D02*
X148439142Y-114905285D01*
X148510571Y-114941000D01*
X148546285Y-114976714D01*
X148582000Y-115048142D01*
X148617714Y-115191000D01*
X148617714Y-115369571D01*
X148582000Y-115512428D01*
X148546285Y-115583857D01*
X148510571Y-115619571D01*
X148439142Y-115655285D01*
X148367714Y-115655285D01*
X148296285Y-115619571D01*
X148260571Y-115583857D01*
X148224857Y-115512428D01*
X148189142Y-115369571D01*
X148189142Y-115191000D01*
X148224857Y-115048142D01*
X148260571Y-114976714D01*
X148296285Y-114941000D01*
X148367714Y-114905285D01*
X140487857Y-114941000D02*
X140416428Y-114905285D01*
X140309285Y-114905285D01*
X140202142Y-114941000D01*
X140130714Y-115012428D01*
X140095000Y-115083857D01*
X140059285Y-115226714D01*
X140059285Y-115333857D01*
X140095000Y-115476714D01*
X140130714Y-115548142D01*
X140202142Y-115619571D01*
X140309285Y-115655285D01*
X140380714Y-115655285D01*
X140487857Y-115619571D01*
X140523571Y-115583857D01*
X140523571Y-115333857D01*
X140380714Y-115333857D01*
X140845000Y-115155285D02*
X140845000Y-115655285D01*
X140845000Y-115226714D02*
X140880714Y-115191000D01*
X140952142Y-115155285D01*
X141059285Y-115155285D01*
X141130714Y-115191000D01*
X141166428Y-115262428D01*
X141166428Y-115655285D01*
X141845000Y-115655285D02*
X141845000Y-114905285D01*
X141845000Y-115619571D02*
X141773571Y-115655285D01*
X141630714Y-115655285D01*
X141559285Y-115619571D01*
X141523571Y-115583857D01*
X141487857Y-115512428D01*
X141487857Y-115298142D01*
X141523571Y-115226714D01*
X141559285Y-115191000D01*
X141630714Y-115155285D01*
X141773571Y-115155285D01*
X141845000Y-115191000D01*
X142621142Y-114905285D02*
X142871142Y-115655285D01*
X143121142Y-114905285D01*
X143478285Y-115655285D02*
X143406857Y-115619571D01*
X143371142Y-115583857D01*
X143335428Y-115512428D01*
X143335428Y-115298142D01*
X143371142Y-115226714D01*
X143406857Y-115191000D01*
X143478285Y-115155285D01*
X143585428Y-115155285D01*
X143656857Y-115191000D01*
X143692571Y-115226714D01*
X143728285Y-115298142D01*
X143728285Y-115512428D01*
X143692571Y-115583857D01*
X143656857Y-115619571D01*
X143585428Y-115655285D01*
X143478285Y-115655285D01*
X144371142Y-115155285D02*
X144371142Y-115655285D01*
X144049714Y-115155285D02*
X144049714Y-115548142D01*
X144085428Y-115619571D01*
X144156857Y-115655285D01*
X144264000Y-115655285D01*
X144335428Y-115619571D01*
X144371142Y-115583857D01*
X144621142Y-115155285D02*
X144906857Y-115155285D01*
X144728285Y-114905285D02*
X144728285Y-115548142D01*
X144764000Y-115619571D01*
X144835428Y-115655285D01*
X144906857Y-115655285D01*
X160544000Y-98141285D02*
X160794000Y-98891285D01*
X161044000Y-98141285D01*
X161294000Y-98891285D02*
X161294000Y-98141285D01*
X161472571Y-98141285D01*
X161579714Y-98177000D01*
X161651142Y-98248428D01*
X161686857Y-98319857D01*
X161722571Y-98462714D01*
X161722571Y-98569857D01*
X161686857Y-98712714D01*
X161651142Y-98784142D01*
X161579714Y-98855571D01*
X161472571Y-98891285D01*
X161294000Y-98891285D01*
X162044000Y-98891285D02*
X162044000Y-98141285D01*
X162222571Y-98141285D01*
X162329714Y-98177000D01*
X162401142Y-98248428D01*
X162436857Y-98319857D01*
X162472571Y-98462714D01*
X162472571Y-98569857D01*
X162436857Y-98712714D01*
X162401142Y-98784142D01*
X162329714Y-98855571D01*
X162222571Y-98891285D01*
X162044000Y-98891285D01*
X158861142Y-97887285D02*
X158504000Y-97887285D01*
X158468285Y-98244428D01*
X158504000Y-98208714D01*
X158575428Y-98173000D01*
X158754000Y-98173000D01*
X158825428Y-98208714D01*
X158861142Y-98244428D01*
X158896857Y-98315857D01*
X158896857Y-98494428D01*
X158861142Y-98565857D01*
X158825428Y-98601571D01*
X158754000Y-98637285D01*
X158575428Y-98637285D01*
X158504000Y-98601571D01*
X158468285Y-98565857D01*
X159111142Y-97887285D02*
X159361142Y-98637285D01*
X159611142Y-97887285D01*
X163230857Y-98141285D02*
X163695142Y-98141285D01*
X163445142Y-98427000D01*
X163552285Y-98427000D01*
X163623714Y-98462714D01*
X163659428Y-98498428D01*
X163695142Y-98569857D01*
X163695142Y-98748428D01*
X163659428Y-98819857D01*
X163623714Y-98855571D01*
X163552285Y-98891285D01*
X163338000Y-98891285D01*
X163266571Y-98855571D01*
X163230857Y-98819857D01*
X164016571Y-98819857D02*
X164052285Y-98855571D01*
X164016571Y-98891285D01*
X163980857Y-98855571D01*
X164016571Y-98819857D01*
X164016571Y-98891285D01*
X164302285Y-98141285D02*
X164766571Y-98141285D01*
X164516571Y-98427000D01*
X164623714Y-98427000D01*
X164695142Y-98462714D01*
X164730857Y-98498428D01*
X164766571Y-98569857D01*
X164766571Y-98748428D01*
X164730857Y-98819857D01*
X164695142Y-98855571D01*
X164623714Y-98891285D01*
X164409428Y-98891285D01*
X164338000Y-98855571D01*
X164302285Y-98819857D01*
X164980857Y-98141285D02*
X165230857Y-98891285D01*
X165480857Y-98141285D01*
X141160571Y-100717000D02*
X141089142Y-100681285D01*
X140982000Y-100681285D01*
X140874857Y-100717000D01*
X140803428Y-100788428D01*
X140767714Y-100859857D01*
X140732000Y-101002714D01*
X140732000Y-101109857D01*
X140767714Y-101252714D01*
X140803428Y-101324142D01*
X140874857Y-101395571D01*
X140982000Y-101431285D01*
X141053428Y-101431285D01*
X141160571Y-101395571D01*
X141196285Y-101359857D01*
X141196285Y-101109857D01*
X141053428Y-101109857D01*
X141517714Y-101431285D02*
X141517714Y-100681285D01*
X141946285Y-101431285D01*
X141946285Y-100681285D01*
X142303428Y-101431285D02*
X142303428Y-100681285D01*
X142482000Y-100681285D01*
X142589142Y-100717000D01*
X142660571Y-100788428D01*
X142696285Y-100859857D01*
X142732000Y-101002714D01*
X142732000Y-101109857D01*
X142696285Y-101252714D01*
X142660571Y-101324142D01*
X142589142Y-101395571D01*
X142482000Y-101431285D01*
X142303428Y-101431285D01*
X163103857Y-87981285D02*
X163568142Y-87981285D01*
X163318142Y-88267000D01*
X163425285Y-88267000D01*
X163496714Y-88302714D01*
X163532428Y-88338428D01*
X163568142Y-88409857D01*
X163568142Y-88588428D01*
X163532428Y-88659857D01*
X163496714Y-88695571D01*
X163425285Y-88731285D01*
X163211000Y-88731285D01*
X163139571Y-88695571D01*
X163103857Y-88659857D01*
X163889571Y-88659857D02*
X163925285Y-88695571D01*
X163889571Y-88731285D01*
X163853857Y-88695571D01*
X163889571Y-88659857D01*
X163889571Y-88731285D01*
X164175285Y-87981285D02*
X164639571Y-87981285D01*
X164389571Y-88267000D01*
X164496714Y-88267000D01*
X164568142Y-88302714D01*
X164603857Y-88338428D01*
X164639571Y-88409857D01*
X164639571Y-88588428D01*
X164603857Y-88659857D01*
X164568142Y-88695571D01*
X164496714Y-88731285D01*
X164282428Y-88731285D01*
X164211000Y-88695571D01*
X164175285Y-88659857D01*
X164853857Y-87981285D02*
X165103857Y-88731285D01*
X165353857Y-87981285D01*
X161401142Y-87981285D02*
X161044000Y-87981285D01*
X161008285Y-88338428D01*
X161044000Y-88302714D01*
X161115428Y-88267000D01*
X161294000Y-88267000D01*
X161365428Y-88302714D01*
X161401142Y-88338428D01*
X161436857Y-88409857D01*
X161436857Y-88588428D01*
X161401142Y-88659857D01*
X161365428Y-88695571D01*
X161294000Y-88731285D01*
X161115428Y-88731285D01*
X161044000Y-88695571D01*
X161008285Y-88659857D01*
X161651142Y-87981285D02*
X161901142Y-88731285D01*
X162151142Y-87981285D01*
X158178571Y-88017000D02*
X158107142Y-87981285D01*
X158000000Y-87981285D01*
X157892857Y-88017000D01*
X157821428Y-88088428D01*
X157785714Y-88159857D01*
X157750000Y-88302714D01*
X157750000Y-88409857D01*
X157785714Y-88552714D01*
X157821428Y-88624142D01*
X157892857Y-88695571D01*
X158000000Y-88731285D01*
X158071428Y-88731285D01*
X158178571Y-88695571D01*
X158214285Y-88659857D01*
X158214285Y-88409857D01*
X158071428Y-88409857D01*
X158535714Y-88731285D02*
X158535714Y-87981285D01*
X158964285Y-88731285D01*
X158964285Y-87981285D01*
X159321428Y-88731285D02*
X159321428Y-87981285D01*
X159500000Y-87981285D01*
X159607142Y-88017000D01*
X159678571Y-88088428D01*
X159714285Y-88159857D01*
X159750000Y-88302714D01*
X159750000Y-88409857D01*
X159714285Y-88552714D01*
X159678571Y-88624142D01*
X159607142Y-88695571D01*
X159500000Y-88731285D01*
X159321428Y-88731285D01*
X152350428Y-88338428D02*
X152457571Y-88374142D01*
X152493285Y-88409857D01*
X152529000Y-88481285D01*
X152529000Y-88588428D01*
X152493285Y-88659857D01*
X152457571Y-88695571D01*
X152386142Y-88731285D01*
X152100428Y-88731285D01*
X152100428Y-87981285D01*
X152350428Y-87981285D01*
X152421857Y-88017000D01*
X152457571Y-88052714D01*
X152493285Y-88124142D01*
X152493285Y-88195571D01*
X152457571Y-88267000D01*
X152421857Y-88302714D01*
X152350428Y-88338428D01*
X152100428Y-88338428D01*
X152814714Y-88052714D02*
X152850428Y-88017000D01*
X152921857Y-87981285D01*
X153100428Y-87981285D01*
X153171857Y-88017000D01*
X153207571Y-88052714D01*
X153243285Y-88124142D01*
X153243285Y-88195571D01*
X153207571Y-88302714D01*
X152779000Y-88731285D01*
X153243285Y-88731285D01*
X149810428Y-88338428D02*
X149917571Y-88374142D01*
X149953285Y-88409857D01*
X149989000Y-88481285D01*
X149989000Y-88588428D01*
X149953285Y-88659857D01*
X149917571Y-88695571D01*
X149846142Y-88731285D01*
X149560428Y-88731285D01*
X149560428Y-87981285D01*
X149810428Y-87981285D01*
X149881857Y-88017000D01*
X149917571Y-88052714D01*
X149953285Y-88124142D01*
X149953285Y-88195571D01*
X149917571Y-88267000D01*
X149881857Y-88302714D01*
X149810428Y-88338428D01*
X149560428Y-88338428D01*
X150239000Y-87981285D02*
X150703285Y-87981285D01*
X150453285Y-88267000D01*
X150560428Y-88267000D01*
X150631857Y-88302714D01*
X150667571Y-88338428D01*
X150703285Y-88409857D01*
X150703285Y-88588428D01*
X150667571Y-88659857D01*
X150631857Y-88695571D01*
X150560428Y-88731285D01*
X150346142Y-88731285D01*
X150274714Y-88695571D01*
X150239000Y-88659857D01*
X154622571Y-88017000D02*
X154551142Y-87981285D01*
X154444000Y-87981285D01*
X154336857Y-88017000D01*
X154265428Y-88088428D01*
X154229714Y-88159857D01*
X154194000Y-88302714D01*
X154194000Y-88409857D01*
X154229714Y-88552714D01*
X154265428Y-88624142D01*
X154336857Y-88695571D01*
X154444000Y-88731285D01*
X154515428Y-88731285D01*
X154622571Y-88695571D01*
X154658285Y-88659857D01*
X154658285Y-88409857D01*
X154515428Y-88409857D01*
X154979714Y-88731285D02*
X154979714Y-87981285D01*
X155408285Y-88731285D01*
X155408285Y-87981285D01*
X155765428Y-88731285D02*
X155765428Y-87981285D01*
X155944000Y-87981285D01*
X156051142Y-88017000D01*
X156122571Y-88088428D01*
X156158285Y-88159857D01*
X156194000Y-88302714D01*
X156194000Y-88409857D01*
X156158285Y-88552714D01*
X156122571Y-88624142D01*
X156051142Y-88695571D01*
X155944000Y-88731285D01*
X155765428Y-88731285D01*
X135610285Y-88338428D02*
X135717428Y-88374142D01*
X135753142Y-88409857D01*
X135788857Y-88481285D01*
X135788857Y-88588428D01*
X135753142Y-88659857D01*
X135717428Y-88695571D01*
X135646000Y-88731285D01*
X135360285Y-88731285D01*
X135360285Y-87981285D01*
X135610285Y-87981285D01*
X135681714Y-88017000D01*
X135717428Y-88052714D01*
X135753142Y-88124142D01*
X135753142Y-88195571D01*
X135717428Y-88267000D01*
X135681714Y-88302714D01*
X135610285Y-88338428D01*
X135360285Y-88338428D01*
X136503142Y-88731285D02*
X136074571Y-88731285D01*
X136288857Y-88731285D02*
X136288857Y-87981285D01*
X136217428Y-88088428D01*
X136146000Y-88159857D01*
X136074571Y-88195571D01*
X136753142Y-87981285D02*
X137253142Y-87981285D01*
X136931714Y-88731285D01*
X140563285Y-88338428D02*
X140670428Y-88374142D01*
X140706142Y-88409857D01*
X140741857Y-88481285D01*
X140741857Y-88588428D01*
X140706142Y-88659857D01*
X140670428Y-88695571D01*
X140599000Y-88731285D01*
X140313285Y-88731285D01*
X140313285Y-87981285D01*
X140563285Y-87981285D01*
X140634714Y-88017000D01*
X140670428Y-88052714D01*
X140706142Y-88124142D01*
X140706142Y-88195571D01*
X140670428Y-88267000D01*
X140634714Y-88302714D01*
X140563285Y-88338428D01*
X140313285Y-88338428D01*
X141456142Y-88731285D02*
X141027571Y-88731285D01*
X141241857Y-88731285D02*
X141241857Y-87981285D01*
X141170428Y-88088428D01*
X141099000Y-88159857D01*
X141027571Y-88195571D01*
X142134714Y-87981285D02*
X141777571Y-87981285D01*
X141741857Y-88338428D01*
X141777571Y-88302714D01*
X141849000Y-88267000D01*
X142027571Y-88267000D01*
X142099000Y-88302714D01*
X142134714Y-88338428D01*
X142170428Y-88409857D01*
X142170428Y-88588428D01*
X142134714Y-88659857D01*
X142099000Y-88695571D01*
X142027571Y-88731285D01*
X141849000Y-88731285D01*
X141777571Y-88695571D01*
X141741857Y-88659857D01*
X145770285Y-88338428D02*
X145877428Y-88374142D01*
X145913142Y-88409857D01*
X145948857Y-88481285D01*
X145948857Y-88588428D01*
X145913142Y-88659857D01*
X145877428Y-88695571D01*
X145806000Y-88731285D01*
X145520285Y-88731285D01*
X145520285Y-87981285D01*
X145770285Y-87981285D01*
X145841714Y-88017000D01*
X145877428Y-88052714D01*
X145913142Y-88124142D01*
X145913142Y-88195571D01*
X145877428Y-88267000D01*
X145841714Y-88302714D01*
X145770285Y-88338428D01*
X145520285Y-88338428D01*
X146663142Y-88731285D02*
X146234571Y-88731285D01*
X146448857Y-88731285D02*
X146448857Y-87981285D01*
X146377428Y-88088428D01*
X146306000Y-88159857D01*
X146234571Y-88195571D01*
X147306000Y-87981285D02*
X147163142Y-87981285D01*
X147091714Y-88017000D01*
X147056000Y-88052714D01*
X146984571Y-88159857D01*
X146948857Y-88302714D01*
X146948857Y-88588428D01*
X146984571Y-88659857D01*
X147020285Y-88695571D01*
X147091714Y-88731285D01*
X147234571Y-88731285D01*
X147306000Y-88695571D01*
X147341714Y-88659857D01*
X147377428Y-88588428D01*
X147377428Y-88409857D01*
X147341714Y-88338428D01*
X147306000Y-88302714D01*
X147234571Y-88267000D01*
X147091714Y-88267000D01*
X147020285Y-88302714D01*
X146984571Y-88338428D01*
X146948857Y-88409857D01*
X143103285Y-88338428D02*
X143210428Y-88374142D01*
X143246142Y-88409857D01*
X143281857Y-88481285D01*
X143281857Y-88588428D01*
X143246142Y-88659857D01*
X143210428Y-88695571D01*
X143139000Y-88731285D01*
X142853285Y-88731285D01*
X142853285Y-87981285D01*
X143103285Y-87981285D01*
X143174714Y-88017000D01*
X143210428Y-88052714D01*
X143246142Y-88124142D01*
X143246142Y-88195571D01*
X143210428Y-88267000D01*
X143174714Y-88302714D01*
X143103285Y-88338428D01*
X142853285Y-88338428D01*
X143996142Y-88731285D02*
X143567571Y-88731285D01*
X143781857Y-88731285D02*
X143781857Y-87981285D01*
X143710428Y-88088428D01*
X143639000Y-88159857D01*
X143567571Y-88195571D01*
X144639000Y-88231285D02*
X144639000Y-88731285D01*
X144460428Y-87945571D02*
X144281857Y-88481285D01*
X144746142Y-88481285D01*
X128159000Y-103427571D02*
X128266142Y-103463285D01*
X128444714Y-103463285D01*
X128516142Y-103427571D01*
X128551857Y-103391857D01*
X128587571Y-103320428D01*
X128587571Y-103249000D01*
X128551857Y-103177571D01*
X128516142Y-103141857D01*
X128444714Y-103106142D01*
X128301857Y-103070428D01*
X128230428Y-103034714D01*
X128194714Y-102999000D01*
X128159000Y-102927571D01*
X128159000Y-102856142D01*
X128194714Y-102784714D01*
X128230428Y-102749000D01*
X128301857Y-102713285D01*
X128480428Y-102713285D01*
X128587571Y-102749000D01*
X128837571Y-102713285D02*
X129016142Y-103463285D01*
X129159000Y-102927571D01*
X129301857Y-103463285D01*
X129480428Y-102713285D01*
X130159000Y-103463285D02*
X129730428Y-103463285D01*
X129944714Y-103463285D02*
X129944714Y-102713285D01*
X129873285Y-102820428D01*
X129801857Y-102891857D01*
X129730428Y-102927571D01*
X125492000Y-103427571D02*
X125599142Y-103463285D01*
X125777714Y-103463285D01*
X125849142Y-103427571D01*
X125884857Y-103391857D01*
X125920571Y-103320428D01*
X125920571Y-103249000D01*
X125884857Y-103177571D01*
X125849142Y-103141857D01*
X125777714Y-103106142D01*
X125634857Y-103070428D01*
X125563428Y-103034714D01*
X125527714Y-102999000D01*
X125492000Y-102927571D01*
X125492000Y-102856142D01*
X125527714Y-102784714D01*
X125563428Y-102749000D01*
X125634857Y-102713285D01*
X125813428Y-102713285D01*
X125920571Y-102749000D01*
X126170571Y-102713285D02*
X126349142Y-103463285D01*
X126492000Y-102927571D01*
X126634857Y-103463285D01*
X126813428Y-102713285D01*
X127063428Y-102784714D02*
X127099142Y-102749000D01*
X127170571Y-102713285D01*
X127349142Y-102713285D01*
X127420571Y-102749000D01*
X127456285Y-102784714D01*
X127492000Y-102856142D01*
X127492000Y-102927571D01*
X127456285Y-103034714D01*
X127027714Y-103463285D01*
X127492000Y-103463285D01*
X122825000Y-103427571D02*
X122932142Y-103463285D01*
X123110714Y-103463285D01*
X123182142Y-103427571D01*
X123217857Y-103391857D01*
X123253571Y-103320428D01*
X123253571Y-103249000D01*
X123217857Y-103177571D01*
X123182142Y-103141857D01*
X123110714Y-103106142D01*
X122967857Y-103070428D01*
X122896428Y-103034714D01*
X122860714Y-102999000D01*
X122825000Y-102927571D01*
X122825000Y-102856142D01*
X122860714Y-102784714D01*
X122896428Y-102749000D01*
X122967857Y-102713285D01*
X123146428Y-102713285D01*
X123253571Y-102749000D01*
X123503571Y-102713285D02*
X123682142Y-103463285D01*
X123825000Y-102927571D01*
X123967857Y-103463285D01*
X124146428Y-102713285D01*
X124360714Y-102713285D02*
X124825000Y-102713285D01*
X124575000Y-102999000D01*
X124682142Y-102999000D01*
X124753571Y-103034714D01*
X124789285Y-103070428D01*
X124825000Y-103141857D01*
X124825000Y-103320428D01*
X124789285Y-103391857D01*
X124753571Y-103427571D01*
X124682142Y-103463285D01*
X124467857Y-103463285D01*
X124396428Y-103427571D01*
X124360714Y-103391857D01*
X121287000Y-103463285D02*
X120929857Y-103463285D01*
X120929857Y-102713285D01*
X121929857Y-103463285D02*
X121501285Y-103463285D01*
X121715571Y-103463285D02*
X121715571Y-102713285D01*
X121644142Y-102820428D01*
X121572714Y-102891857D01*
X121501285Y-102927571D01*
X118747000Y-103463285D02*
X118389857Y-103463285D01*
X118389857Y-102713285D01*
X118961285Y-102784714D02*
X118997000Y-102749000D01*
X119068428Y-102713285D01*
X119247000Y-102713285D01*
X119318428Y-102749000D01*
X119354142Y-102784714D01*
X119389857Y-102856142D01*
X119389857Y-102927571D01*
X119354142Y-103034714D01*
X118925571Y-103463285D01*
X119389857Y-103463285D01*
X116207000Y-103463285D02*
X115849857Y-103463285D01*
X115849857Y-102713285D01*
X116385571Y-102713285D02*
X116849857Y-102713285D01*
X116599857Y-102999000D01*
X116707000Y-102999000D01*
X116778428Y-103034714D01*
X116814142Y-103070428D01*
X116849857Y-103141857D01*
X116849857Y-103320428D01*
X116814142Y-103391857D01*
X116778428Y-103427571D01*
X116707000Y-103463285D01*
X116492714Y-103463285D01*
X116421285Y-103427571D01*
X116385571Y-103391857D01*
X136753285Y-95450428D02*
X136860428Y-95486142D01*
X136896142Y-95521857D01*
X136931857Y-95593285D01*
X136931857Y-95700428D01*
X136896142Y-95771857D01*
X136860428Y-95807571D01*
X136789000Y-95843285D01*
X136503285Y-95843285D01*
X136503285Y-95093285D01*
X136753285Y-95093285D01*
X136824714Y-95129000D01*
X136860428Y-95164714D01*
X136896142Y-95236142D01*
X136896142Y-95307571D01*
X136860428Y-95379000D01*
X136824714Y-95414714D01*
X136753285Y-95450428D01*
X136503285Y-95450428D01*
X137646142Y-95843285D02*
X137217571Y-95843285D01*
X137431857Y-95843285D02*
X137431857Y-95093285D01*
X137360428Y-95200428D01*
X137289000Y-95271857D01*
X137217571Y-95307571D01*
X138110428Y-95093285D02*
X138181857Y-95093285D01*
X138253285Y-95129000D01*
X138289000Y-95164714D01*
X138324714Y-95236142D01*
X138360428Y-95379000D01*
X138360428Y-95557571D01*
X138324714Y-95700428D01*
X138289000Y-95771857D01*
X138253285Y-95807571D01*
X138181857Y-95843285D01*
X138110428Y-95843285D01*
X138039000Y-95807571D01*
X138003285Y-95771857D01*
X137967571Y-95700428D01*
X137931857Y-95557571D01*
X137931857Y-95379000D01*
X137967571Y-95236142D01*
X138003285Y-95164714D01*
X138039000Y-95129000D01*
X138110428Y-95093285D01*
X134443428Y-95450428D02*
X134550571Y-95486142D01*
X134586285Y-95521857D01*
X134622000Y-95593285D01*
X134622000Y-95700428D01*
X134586285Y-95771857D01*
X134550571Y-95807571D01*
X134479142Y-95843285D01*
X134193428Y-95843285D01*
X134193428Y-95093285D01*
X134443428Y-95093285D01*
X134514857Y-95129000D01*
X134550571Y-95164714D01*
X134586285Y-95236142D01*
X134586285Y-95307571D01*
X134550571Y-95379000D01*
X134514857Y-95414714D01*
X134443428Y-95450428D01*
X134193428Y-95450428D01*
X134979142Y-95843285D02*
X135122000Y-95843285D01*
X135193428Y-95807571D01*
X135229142Y-95771857D01*
X135300571Y-95664714D01*
X135336285Y-95521857D01*
X135336285Y-95236142D01*
X135300571Y-95164714D01*
X135264857Y-95129000D01*
X135193428Y-95093285D01*
X135050571Y-95093285D01*
X134979142Y-95129000D01*
X134943428Y-95164714D01*
X134907714Y-95236142D01*
X134907714Y-95414714D01*
X134943428Y-95486142D01*
X134979142Y-95521857D01*
X135050571Y-95557571D01*
X135193428Y-95557571D01*
X135264857Y-95521857D01*
X135300571Y-95486142D01*
X135336285Y-95414714D01*
X131546285Y-95450428D02*
X131653428Y-95486142D01*
X131689142Y-95521857D01*
X131724857Y-95593285D01*
X131724857Y-95700428D01*
X131689142Y-95771857D01*
X131653428Y-95807571D01*
X131582000Y-95843285D01*
X131296285Y-95843285D01*
X131296285Y-95093285D01*
X131546285Y-95093285D01*
X131617714Y-95129000D01*
X131653428Y-95164714D01*
X131689142Y-95236142D01*
X131689142Y-95307571D01*
X131653428Y-95379000D01*
X131617714Y-95414714D01*
X131546285Y-95450428D01*
X131296285Y-95450428D01*
X132439142Y-95843285D02*
X132010571Y-95843285D01*
X132224857Y-95843285D02*
X132224857Y-95093285D01*
X132153428Y-95200428D01*
X132082000Y-95271857D01*
X132010571Y-95307571D01*
X133153428Y-95843285D02*
X132724857Y-95843285D01*
X132939142Y-95843285D02*
X132939142Y-95093285D01*
X132867714Y-95200428D01*
X132796285Y-95271857D01*
X132724857Y-95307571D01*
X129236428Y-95450428D02*
X129343571Y-95486142D01*
X129379285Y-95521857D01*
X129415000Y-95593285D01*
X129415000Y-95700428D01*
X129379285Y-95771857D01*
X129343571Y-95807571D01*
X129272142Y-95843285D01*
X128986428Y-95843285D01*
X128986428Y-95093285D01*
X129236428Y-95093285D01*
X129307857Y-95129000D01*
X129343571Y-95164714D01*
X129379285Y-95236142D01*
X129379285Y-95307571D01*
X129343571Y-95379000D01*
X129307857Y-95414714D01*
X129236428Y-95450428D01*
X128986428Y-95450428D01*
X129843571Y-95414714D02*
X129772142Y-95379000D01*
X129736428Y-95343285D01*
X129700714Y-95271857D01*
X129700714Y-95236142D01*
X129736428Y-95164714D01*
X129772142Y-95129000D01*
X129843571Y-95093285D01*
X129986428Y-95093285D01*
X130057857Y-95129000D01*
X130093571Y-95164714D01*
X130129285Y-95236142D01*
X130129285Y-95271857D01*
X130093571Y-95343285D01*
X130057857Y-95379000D01*
X129986428Y-95414714D01*
X129843571Y-95414714D01*
X129772142Y-95450428D01*
X129736428Y-95486142D01*
X129700714Y-95557571D01*
X129700714Y-95700428D01*
X129736428Y-95771857D01*
X129772142Y-95807571D01*
X129843571Y-95843285D01*
X129986428Y-95843285D01*
X130057857Y-95807571D01*
X130093571Y-95771857D01*
X130129285Y-95700428D01*
X130129285Y-95557571D01*
X130093571Y-95486142D01*
X130057857Y-95450428D01*
X129986428Y-95414714D01*
X126696428Y-95450428D02*
X126803571Y-95486142D01*
X126839285Y-95521857D01*
X126875000Y-95593285D01*
X126875000Y-95700428D01*
X126839285Y-95771857D01*
X126803571Y-95807571D01*
X126732142Y-95843285D01*
X126446428Y-95843285D01*
X126446428Y-95093285D01*
X126696428Y-95093285D01*
X126767857Y-95129000D01*
X126803571Y-95164714D01*
X126839285Y-95236142D01*
X126839285Y-95307571D01*
X126803571Y-95379000D01*
X126767857Y-95414714D01*
X126696428Y-95450428D01*
X126446428Y-95450428D01*
X127125000Y-95093285D02*
X127625000Y-95093285D01*
X127303571Y-95843285D01*
X121005285Y-95450428D02*
X121112428Y-95486142D01*
X121148142Y-95521857D01*
X121183857Y-95593285D01*
X121183857Y-95700428D01*
X121148142Y-95771857D01*
X121112428Y-95807571D01*
X121041000Y-95843285D01*
X120755285Y-95843285D01*
X120755285Y-95093285D01*
X121005285Y-95093285D01*
X121076714Y-95129000D01*
X121112428Y-95164714D01*
X121148142Y-95236142D01*
X121148142Y-95307571D01*
X121112428Y-95379000D01*
X121076714Y-95414714D01*
X121005285Y-95450428D01*
X120755285Y-95450428D01*
X121898142Y-95843285D02*
X121469571Y-95843285D01*
X121683857Y-95843285D02*
X121683857Y-95093285D01*
X121612428Y-95200428D01*
X121541000Y-95271857D01*
X121469571Y-95307571D01*
X122326714Y-95414714D02*
X122255285Y-95379000D01*
X122219571Y-95343285D01*
X122183857Y-95271857D01*
X122183857Y-95236142D01*
X122219571Y-95164714D01*
X122255285Y-95129000D01*
X122326714Y-95093285D01*
X122469571Y-95093285D01*
X122541000Y-95129000D01*
X122576714Y-95164714D01*
X122612428Y-95236142D01*
X122612428Y-95271857D01*
X122576714Y-95343285D01*
X122541000Y-95379000D01*
X122469571Y-95414714D01*
X122326714Y-95414714D01*
X122255285Y-95450428D01*
X122219571Y-95486142D01*
X122183857Y-95557571D01*
X122183857Y-95700428D01*
X122219571Y-95771857D01*
X122255285Y-95807571D01*
X122326714Y-95843285D01*
X122469571Y-95843285D01*
X122541000Y-95807571D01*
X122576714Y-95771857D01*
X122612428Y-95700428D01*
X122612428Y-95557571D01*
X122576714Y-95486142D01*
X122541000Y-95450428D01*
X122469571Y-95414714D01*
X118211285Y-95450428D02*
X118318428Y-95486142D01*
X118354142Y-95521857D01*
X118389857Y-95593285D01*
X118389857Y-95700428D01*
X118354142Y-95771857D01*
X118318428Y-95807571D01*
X118247000Y-95843285D01*
X117961285Y-95843285D01*
X117961285Y-95093285D01*
X118211285Y-95093285D01*
X118282714Y-95129000D01*
X118318428Y-95164714D01*
X118354142Y-95236142D01*
X118354142Y-95307571D01*
X118318428Y-95379000D01*
X118282714Y-95414714D01*
X118211285Y-95450428D01*
X117961285Y-95450428D01*
X119104142Y-95843285D02*
X118675571Y-95843285D01*
X118889857Y-95843285D02*
X118889857Y-95093285D01*
X118818428Y-95200428D01*
X118747000Y-95271857D01*
X118675571Y-95307571D01*
X119389857Y-95164714D02*
X119425571Y-95129000D01*
X119497000Y-95093285D01*
X119675571Y-95093285D01*
X119747000Y-95129000D01*
X119782714Y-95164714D01*
X119818428Y-95236142D01*
X119818428Y-95307571D01*
X119782714Y-95414714D01*
X119354142Y-95843285D01*
X119818428Y-95843285D01*
X115671285Y-95450428D02*
X115778428Y-95486142D01*
X115814142Y-95521857D01*
X115849857Y-95593285D01*
X115849857Y-95700428D01*
X115814142Y-95771857D01*
X115778428Y-95807571D01*
X115707000Y-95843285D01*
X115421285Y-95843285D01*
X115421285Y-95093285D01*
X115671285Y-95093285D01*
X115742714Y-95129000D01*
X115778428Y-95164714D01*
X115814142Y-95236142D01*
X115814142Y-95307571D01*
X115778428Y-95379000D01*
X115742714Y-95414714D01*
X115671285Y-95450428D01*
X115421285Y-95450428D01*
X116564142Y-95843285D02*
X116135571Y-95843285D01*
X116349857Y-95843285D02*
X116349857Y-95093285D01*
X116278428Y-95200428D01*
X116207000Y-95271857D01*
X116135571Y-95307571D01*
X116814142Y-95093285D02*
X117278428Y-95093285D01*
X117028428Y-95379000D01*
X117135571Y-95379000D01*
X117207000Y-95414714D01*
X117242714Y-95450428D01*
X117278428Y-95521857D01*
X117278428Y-95700428D01*
X117242714Y-95771857D01*
X117207000Y-95807571D01*
X117135571Y-95843285D01*
X116921285Y-95843285D01*
X116849857Y-95807571D01*
X116814142Y-95771857D01*
X117298428Y-88338428D02*
X117405571Y-88374142D01*
X117441285Y-88409857D01*
X117477000Y-88481285D01*
X117477000Y-88588428D01*
X117441285Y-88659857D01*
X117405571Y-88695571D01*
X117334142Y-88731285D01*
X117048428Y-88731285D01*
X117048428Y-87981285D01*
X117298428Y-87981285D01*
X117369857Y-88017000D01*
X117405571Y-88052714D01*
X117441285Y-88124142D01*
X117441285Y-88195571D01*
X117405571Y-88267000D01*
X117369857Y-88302714D01*
X117298428Y-88338428D01*
X117048428Y-88338428D01*
X117941285Y-87981285D02*
X118012714Y-87981285D01*
X118084142Y-88017000D01*
X118119857Y-88052714D01*
X118155571Y-88124142D01*
X118191285Y-88267000D01*
X118191285Y-88445571D01*
X118155571Y-88588428D01*
X118119857Y-88659857D01*
X118084142Y-88695571D01*
X118012714Y-88731285D01*
X117941285Y-88731285D01*
X117869857Y-88695571D01*
X117834142Y-88659857D01*
X117798428Y-88588428D01*
X117762714Y-88445571D01*
X117762714Y-88267000D01*
X117798428Y-88124142D01*
X117834142Y-88052714D01*
X117869857Y-88017000D01*
X117941285Y-87981285D01*
X114758428Y-88338428D02*
X114865571Y-88374142D01*
X114901285Y-88409857D01*
X114937000Y-88481285D01*
X114937000Y-88588428D01*
X114901285Y-88659857D01*
X114865571Y-88695571D01*
X114794142Y-88731285D01*
X114508428Y-88731285D01*
X114508428Y-87981285D01*
X114758428Y-87981285D01*
X114829857Y-88017000D01*
X114865571Y-88052714D01*
X114901285Y-88124142D01*
X114901285Y-88195571D01*
X114865571Y-88267000D01*
X114829857Y-88302714D01*
X114758428Y-88338428D01*
X114508428Y-88338428D01*
X115651285Y-88731285D02*
X115222714Y-88731285D01*
X115437000Y-88731285D02*
X115437000Y-87981285D01*
X115365571Y-88088428D01*
X115294142Y-88159857D01*
X115222714Y-88195571D01*
X112218428Y-88338428D02*
X112325571Y-88374142D01*
X112361285Y-88409857D01*
X112397000Y-88481285D01*
X112397000Y-88588428D01*
X112361285Y-88659857D01*
X112325571Y-88695571D01*
X112254142Y-88731285D01*
X111968428Y-88731285D01*
X111968428Y-87981285D01*
X112218428Y-87981285D01*
X112289857Y-88017000D01*
X112325571Y-88052714D01*
X112361285Y-88124142D01*
X112361285Y-88195571D01*
X112325571Y-88267000D01*
X112289857Y-88302714D01*
X112218428Y-88338428D01*
X111968428Y-88338428D01*
X113075571Y-87981285D02*
X112718428Y-87981285D01*
X112682714Y-88338428D01*
X112718428Y-88302714D01*
X112789857Y-88267000D01*
X112968428Y-88267000D01*
X113039857Y-88302714D01*
X113075571Y-88338428D01*
X113111285Y-88409857D01*
X113111285Y-88588428D01*
X113075571Y-88659857D01*
X113039857Y-88695571D01*
X112968428Y-88731285D01*
X112789857Y-88731285D01*
X112718428Y-88695571D01*
X112682714Y-88659857D01*
X109678428Y-88338428D02*
X109785571Y-88374142D01*
X109821285Y-88409857D01*
X109857000Y-88481285D01*
X109857000Y-88588428D01*
X109821285Y-88659857D01*
X109785571Y-88695571D01*
X109714142Y-88731285D01*
X109428428Y-88731285D01*
X109428428Y-87981285D01*
X109678428Y-87981285D01*
X109749857Y-88017000D01*
X109785571Y-88052714D01*
X109821285Y-88124142D01*
X109821285Y-88195571D01*
X109785571Y-88267000D01*
X109749857Y-88302714D01*
X109678428Y-88338428D01*
X109428428Y-88338428D01*
X110499857Y-87981285D02*
X110357000Y-87981285D01*
X110285571Y-88017000D01*
X110249857Y-88052714D01*
X110178428Y-88159857D01*
X110142714Y-88302714D01*
X110142714Y-88588428D01*
X110178428Y-88659857D01*
X110214142Y-88695571D01*
X110285571Y-88731285D01*
X110428428Y-88731285D01*
X110499857Y-88695571D01*
X110535571Y-88659857D01*
X110571285Y-88588428D01*
X110571285Y-88409857D01*
X110535571Y-88338428D01*
X110499857Y-88302714D01*
X110428428Y-88267000D01*
X110285571Y-88267000D01*
X110214142Y-88302714D01*
X110178428Y-88338428D01*
X110142714Y-88409857D01*
X106781285Y-88338428D02*
X106888428Y-88374142D01*
X106924142Y-88409857D01*
X106959857Y-88481285D01*
X106959857Y-88588428D01*
X106924142Y-88659857D01*
X106888428Y-88695571D01*
X106817000Y-88731285D01*
X106531285Y-88731285D01*
X106531285Y-87981285D01*
X106781285Y-87981285D01*
X106852714Y-88017000D01*
X106888428Y-88052714D01*
X106924142Y-88124142D01*
X106924142Y-88195571D01*
X106888428Y-88267000D01*
X106852714Y-88302714D01*
X106781285Y-88338428D01*
X106531285Y-88338428D01*
X107674142Y-88731285D02*
X107245571Y-88731285D01*
X107459857Y-88731285D02*
X107459857Y-87981285D01*
X107388428Y-88088428D01*
X107317000Y-88159857D01*
X107245571Y-88195571D01*
X108031285Y-88731285D02*
X108174142Y-88731285D01*
X108245571Y-88695571D01*
X108281285Y-88659857D01*
X108352714Y-88552714D01*
X108388428Y-88409857D01*
X108388428Y-88124142D01*
X108352714Y-88052714D01*
X108317000Y-88017000D01*
X108245571Y-87981285D01*
X108102714Y-87981285D01*
X108031285Y-88017000D01*
X107995571Y-88052714D01*
X107959857Y-88124142D01*
X107959857Y-88302714D01*
X107995571Y-88374142D01*
X108031285Y-88409857D01*
X108102714Y-88445571D01*
X108245571Y-88445571D01*
X108317000Y-88409857D01*
X108352714Y-88374142D01*
X108388428Y-88302714D01*
X104241285Y-88338428D02*
X104348428Y-88374142D01*
X104384142Y-88409857D01*
X104419857Y-88481285D01*
X104419857Y-88588428D01*
X104384142Y-88659857D01*
X104348428Y-88695571D01*
X104277000Y-88731285D01*
X103991285Y-88731285D01*
X103991285Y-87981285D01*
X104241285Y-87981285D01*
X104312714Y-88017000D01*
X104348428Y-88052714D01*
X104384142Y-88124142D01*
X104384142Y-88195571D01*
X104348428Y-88267000D01*
X104312714Y-88302714D01*
X104241285Y-88338428D01*
X103991285Y-88338428D01*
X104705571Y-88052714D02*
X104741285Y-88017000D01*
X104812714Y-87981285D01*
X104991285Y-87981285D01*
X105062714Y-88017000D01*
X105098428Y-88052714D01*
X105134142Y-88124142D01*
X105134142Y-88195571D01*
X105098428Y-88302714D01*
X104669857Y-88731285D01*
X105134142Y-88731285D01*
X105598428Y-87981285D02*
X105669857Y-87981285D01*
X105741285Y-88017000D01*
X105777000Y-88052714D01*
X105812714Y-88124142D01*
X105848428Y-88267000D01*
X105848428Y-88445571D01*
X105812714Y-88588428D01*
X105777000Y-88659857D01*
X105741285Y-88695571D01*
X105669857Y-88731285D01*
X105598428Y-88731285D01*
X105527000Y-88695571D01*
X105491285Y-88659857D01*
X105455571Y-88588428D01*
X105419857Y-88445571D01*
X105419857Y-88267000D01*
X105455571Y-88124142D01*
X105491285Y-88052714D01*
X105527000Y-88017000D01*
X105598428Y-87981285D01*
X101701285Y-88338428D02*
X101808428Y-88374142D01*
X101844142Y-88409857D01*
X101879857Y-88481285D01*
X101879857Y-88588428D01*
X101844142Y-88659857D01*
X101808428Y-88695571D01*
X101737000Y-88731285D01*
X101451285Y-88731285D01*
X101451285Y-87981285D01*
X101701285Y-87981285D01*
X101772714Y-88017000D01*
X101808428Y-88052714D01*
X101844142Y-88124142D01*
X101844142Y-88195571D01*
X101808428Y-88267000D01*
X101772714Y-88302714D01*
X101701285Y-88338428D01*
X101451285Y-88338428D01*
X102165571Y-88052714D02*
X102201285Y-88017000D01*
X102272714Y-87981285D01*
X102451285Y-87981285D01*
X102522714Y-88017000D01*
X102558428Y-88052714D01*
X102594142Y-88124142D01*
X102594142Y-88195571D01*
X102558428Y-88302714D01*
X102129857Y-88731285D01*
X102594142Y-88731285D01*
X103308428Y-88731285D02*
X102879857Y-88731285D01*
X103094142Y-88731285D02*
X103094142Y-87981285D01*
X103022714Y-88088428D01*
X102951285Y-88159857D01*
X102879857Y-88195571D01*
X99034285Y-88338428D02*
X99141428Y-88374142D01*
X99177142Y-88409857D01*
X99212857Y-88481285D01*
X99212857Y-88588428D01*
X99177142Y-88659857D01*
X99141428Y-88695571D01*
X99070000Y-88731285D01*
X98784285Y-88731285D01*
X98784285Y-87981285D01*
X99034285Y-87981285D01*
X99105714Y-88017000D01*
X99141428Y-88052714D01*
X99177142Y-88124142D01*
X99177142Y-88195571D01*
X99141428Y-88267000D01*
X99105714Y-88302714D01*
X99034285Y-88338428D01*
X98784285Y-88338428D01*
X99498571Y-88052714D02*
X99534285Y-88017000D01*
X99605714Y-87981285D01*
X99784285Y-87981285D01*
X99855714Y-88017000D01*
X99891428Y-88052714D01*
X99927142Y-88124142D01*
X99927142Y-88195571D01*
X99891428Y-88302714D01*
X99462857Y-88731285D01*
X99927142Y-88731285D01*
X100570000Y-87981285D02*
X100427142Y-87981285D01*
X100355714Y-88017000D01*
X100320000Y-88052714D01*
X100248571Y-88159857D01*
X100212857Y-88302714D01*
X100212857Y-88588428D01*
X100248571Y-88659857D01*
X100284285Y-88695571D01*
X100355714Y-88731285D01*
X100498571Y-88731285D01*
X100570000Y-88695571D01*
X100605714Y-88659857D01*
X100641428Y-88588428D01*
X100641428Y-88409857D01*
X100605714Y-88338428D01*
X100570000Y-88302714D01*
X100498571Y-88267000D01*
X100355714Y-88267000D01*
X100284285Y-88302714D01*
X100248571Y-88338428D01*
X100212857Y-88409857D01*
D12*
G04 #@! TO.C,D2*
X120323000Y-111450000D02*
X123183000Y-111450000D01*
X120323000Y-109530000D02*
X120323000Y-111450000D01*
X123183000Y-109530000D02*
X120323000Y-109530000D01*
D11*
G04 #@! TO.C,BZ1*
X113783000Y-102616000D02*
G75*
G03X113783000Y-102616000I-8500000J0D01*
G01*
D12*
G04 #@! TO.C,J5*
X167580000Y-87570000D02*
X168910000Y-87570000D01*
X167580000Y-88900000D02*
X167580000Y-87570000D01*
X170180000Y-87570000D02*
X172780000Y-87570000D01*
X170180000Y-90170000D02*
X170180000Y-87570000D01*
X167580000Y-90170000D02*
X170180000Y-90170000D01*
X172780000Y-87570000D02*
X172780000Y-113090000D01*
X167580000Y-90170000D02*
X167580000Y-113090000D01*
X167580000Y-113090000D02*
X172780000Y-113090000D01*
G04 #@! TO.C,J2*
X138490000Y-96460000D02*
X138490000Y-97790000D01*
X137160000Y-96460000D02*
X138490000Y-96460000D01*
X138490000Y-99060000D02*
X138490000Y-101660000D01*
X135890000Y-99060000D02*
X138490000Y-99060000D01*
X135890000Y-96460000D02*
X135890000Y-99060000D01*
X138490000Y-101660000D02*
X125670000Y-101660000D01*
X135890000Y-96460000D02*
X125670000Y-96460000D01*
X125670000Y-96460000D02*
X125670000Y-101660000D01*
G04 #@! TO.C,J1*
X153984000Y-81728000D02*
X153984000Y-83058000D01*
X152654000Y-81728000D02*
X153984000Y-81728000D01*
X153984000Y-84328000D02*
X153984000Y-86928000D01*
X151384000Y-84328000D02*
X153984000Y-84328000D01*
X151384000Y-81728000D02*
X151384000Y-84328000D01*
X153984000Y-86928000D02*
X103064000Y-86928000D01*
X151384000Y-81728000D02*
X103064000Y-81728000D01*
X103064000Y-81728000D02*
X103064000Y-86928000D01*
G04 #@! TO.C,J13*
X132274000Y-92008000D02*
X132274000Y-90678000D01*
X133604000Y-92008000D02*
X132274000Y-92008000D01*
X134874000Y-92008000D02*
X134874000Y-89348000D01*
X134874000Y-89348000D02*
X147634000Y-89348000D01*
X134874000Y-92008000D02*
X147634000Y-92008000D01*
X147634000Y-92008000D02*
X147634000Y-89348000D01*
D11*
G04 #@! TO.C,U1*
X155732000Y-112819000D02*
X155732000Y-114194000D01*
X165857000Y-112819000D02*
X165857000Y-108669000D01*
X155707000Y-112819000D02*
X155707000Y-108669000D01*
X165857000Y-112819000D02*
X165752000Y-112819000D01*
X165857000Y-108669000D02*
X165752000Y-108669000D01*
X155707000Y-108669000D02*
X155812000Y-108669000D01*
X155707000Y-112819000D02*
X155732000Y-112819000D01*
D12*
G04 #@! TO.C,R2*
X121921748Y-109168000D02*
X122444252Y-109168000D01*
X121921748Y-107748000D02*
X122444252Y-107748000D01*
G04 #@! TO.C,R3*
X127754748Y-109168000D02*
X128277252Y-109168000D01*
X127754748Y-107748000D02*
X128277252Y-107748000D01*
G04 #@! TO.C,D1*
X114472000Y-111450000D02*
X117332000Y-111450000D01*
X114472000Y-109530000D02*
X114472000Y-111450000D01*
X117332000Y-109530000D02*
X114472000Y-109530000D01*
G04 #@! TO.C,R1*
X116061748Y-109168000D02*
X116584252Y-109168000D01*
X116061748Y-107748000D02*
X116584252Y-107748000D01*
G04 #@! TO.C,D3*
X126156000Y-111450000D02*
X129016000Y-111450000D01*
X126156000Y-109530000D02*
X126156000Y-111450000D01*
X129016000Y-109530000D02*
X126156000Y-109530000D01*
G04 #@! TO.C,J4*
X115002000Y-106740000D02*
X115002000Y-105410000D01*
X116332000Y-106740000D02*
X115002000Y-106740000D01*
X117602000Y-106740000D02*
X117602000Y-104080000D01*
X117602000Y-104080000D02*
X130362000Y-104080000D01*
X117602000Y-106740000D02*
X130362000Y-106740000D01*
X130362000Y-106740000D02*
X130362000Y-104080000D01*
G04 #@! TO.C,J8*
X146498000Y-118932000D02*
X146498000Y-117602000D01*
X147828000Y-118932000D02*
X146498000Y-118932000D01*
X149098000Y-118932000D02*
X149098000Y-116272000D01*
X149098000Y-116272000D02*
X166938000Y-116272000D01*
X149098000Y-118932000D02*
X166938000Y-118932000D01*
X166938000Y-118932000D02*
X166938000Y-116272000D01*
G04 #@! TO.C,R4*
X135652252Y-108764000D02*
X135129748Y-108764000D01*
X135652252Y-110184000D02*
X135129748Y-110184000D01*
G04 #@! TO.C,R5*
X135652252Y-110796000D02*
X135129748Y-110796000D01*
X135652252Y-112216000D02*
X135129748Y-112216000D01*
G04 #@! TO.C,R6*
X135643252Y-106732000D02*
X135120748Y-106732000D01*
X135643252Y-108152000D02*
X135120748Y-108152000D01*
D11*
G04 #@! TO.C,U2*
X148575000Y-108415000D02*
X148575000Y-107015000D01*
X143475000Y-108415000D02*
X143475000Y-112565000D01*
X148625000Y-108415000D02*
X148625000Y-112565000D01*
X143475000Y-108415000D02*
X143620000Y-108415000D01*
X143475000Y-112565000D02*
X143620000Y-112565000D01*
X148625000Y-112565000D02*
X148480000Y-112565000D01*
X148625000Y-108415000D02*
X148575000Y-108415000D01*
D12*
G04 #@! TO.C,C1*
X153722000Y-108695748D02*
X153722000Y-109218252D01*
X155142000Y-108695748D02*
X155142000Y-109218252D01*
G04 #@! TO.C,C2*
X148718748Y-106374000D02*
X149241252Y-106374000D01*
X148718748Y-104954000D02*
X149241252Y-104954000D01*
G04 #@! TO.C,C3*
X148718748Y-104088000D02*
X149241252Y-104088000D01*
X148718748Y-102668000D02*
X149241252Y-102668000D01*
G04 #@! TO.C,J3*
X122742000Y-96460000D02*
X122742000Y-97790000D01*
X121412000Y-96460000D02*
X122742000Y-96460000D01*
X122742000Y-99060000D02*
X122742000Y-101660000D01*
X120142000Y-99060000D02*
X122742000Y-99060000D01*
X120142000Y-96460000D02*
X120142000Y-99060000D01*
X122742000Y-101660000D02*
X115002000Y-101660000D01*
X120142000Y-96460000D02*
X115002000Y-96460000D01*
X115002000Y-96460000D02*
X115002000Y-101660000D01*
G04 #@! TO.C,R7*
X164330748Y-85800000D02*
X164853252Y-85800000D01*
X164330748Y-84380000D02*
X164853252Y-84380000D01*
G04 #@! TO.C,J9*
X139640000Y-107128000D02*
X140970000Y-107128000D01*
X139640000Y-108458000D02*
X139640000Y-107128000D01*
X139640000Y-109728000D02*
X142300000Y-109728000D01*
X142300000Y-109728000D02*
X142300000Y-112328000D01*
X139640000Y-109728000D02*
X139640000Y-112328000D01*
X139640000Y-112328000D02*
X142300000Y-112328000D01*
G04 #@! TO.C,J10*
X152460000Y-113852000D02*
X151130000Y-113852000D01*
X152460000Y-112522000D02*
X152460000Y-113852000D01*
X152460000Y-111252000D02*
X149800000Y-111252000D01*
X149800000Y-111252000D02*
X149800000Y-108652000D01*
X152460000Y-111252000D02*
X152460000Y-108652000D01*
X152460000Y-108652000D02*
X149800000Y-108652000D01*
G04 #@! TO.C,J11*
X159064000Y-103826000D02*
X159064000Y-105156000D01*
X157734000Y-103826000D02*
X159064000Y-103826000D01*
X156464000Y-103826000D02*
X156464000Y-106486000D01*
X156464000Y-106486000D02*
X153864000Y-106486000D01*
X156464000Y-103826000D02*
X153864000Y-103826000D01*
X153864000Y-103826000D02*
X153864000Y-106486000D01*
G04 #@! TO.C,J12*
X139894000Y-118932000D02*
X139894000Y-117602000D01*
X141224000Y-118932000D02*
X139894000Y-118932000D01*
X142494000Y-118932000D02*
X142494000Y-116272000D01*
X142494000Y-116272000D02*
X145094000Y-116272000D01*
X142494000Y-118932000D02*
X145094000Y-118932000D01*
X145094000Y-118932000D02*
X145094000Y-116272000D01*
G04 #@! TO.C,J14*
X165414000Y-93285000D02*
X165414000Y-94615000D01*
X164084000Y-93285000D02*
X165414000Y-93285000D01*
X162814000Y-93285000D02*
X162814000Y-95945000D01*
X162814000Y-95945000D02*
X157674000Y-95945000D01*
X162814000Y-93285000D02*
X157674000Y-93285000D01*
X157674000Y-93285000D02*
X157674000Y-95945000D01*
G04 #@! TO.C,J15*
X165414000Y-89348000D02*
X165414000Y-90678000D01*
X164084000Y-89348000D02*
X165414000Y-89348000D01*
X162814000Y-89348000D02*
X162814000Y-92008000D01*
X162814000Y-92008000D02*
X157674000Y-92008000D01*
X162814000Y-89348000D02*
X157674000Y-89348000D01*
X157674000Y-89348000D02*
X157674000Y-92008000D01*
G04 #@! TO.C,J16*
X118932000Y-89348000D02*
X118932000Y-90678000D01*
X117602000Y-89348000D02*
X118932000Y-89348000D01*
X116332000Y-89348000D02*
X116332000Y-92008000D01*
X116332000Y-92008000D02*
X98492000Y-92008000D01*
X116332000Y-89348000D02*
X98492000Y-89348000D01*
X98492000Y-89348000D02*
X98492000Y-92008000D01*
G04 #@! TO.C,J17*
X148784000Y-92008000D02*
X148784000Y-90678000D01*
X150114000Y-92008000D02*
X148784000Y-92008000D01*
X151384000Y-92008000D02*
X151384000Y-89348000D01*
X151384000Y-89348000D02*
X156524000Y-89348000D01*
X151384000Y-92008000D02*
X156524000Y-92008000D01*
X156524000Y-92008000D02*
X156524000Y-89348000D01*
D13*
G04 #@! TO.C,LOGO1*
G36*
X155170910Y-97572348D02*
X155249454Y-97572778D01*
X155306298Y-97573942D01*
X155345105Y-97576207D01*
X155369538Y-97579940D01*
X155383262Y-97585506D01*
X155389940Y-97593273D01*
X155393236Y-97603605D01*
X155393556Y-97604943D01*
X155398562Y-97629079D01*
X155407829Y-97676701D01*
X155420392Y-97742741D01*
X155435287Y-97822128D01*
X155451551Y-97909796D01*
X155452119Y-97912875D01*
X155468410Y-97998789D01*
X155483652Y-98074696D01*
X155496861Y-98136045D01*
X155507054Y-98178282D01*
X155513248Y-98196855D01*
X155513543Y-98197184D01*
X155531788Y-98206253D01*
X155569405Y-98221367D01*
X155618271Y-98239262D01*
X155618543Y-98239358D01*
X155680093Y-98262493D01*
X155752657Y-98291965D01*
X155821057Y-98321597D01*
X155824294Y-98323062D01*
X155935702Y-98373626D01*
X156182399Y-98205160D01*
X156258077Y-98153803D01*
X156326631Y-98107889D01*
X156384088Y-98070030D01*
X156426476Y-98042837D01*
X156449825Y-98028921D01*
X156452042Y-98027889D01*
X156469010Y-98032484D01*
X156500701Y-98054655D01*
X156548352Y-98095447D01*
X156613198Y-98155905D01*
X156679397Y-98220227D01*
X156743214Y-98283612D01*
X156800329Y-98341451D01*
X156847305Y-98390175D01*
X156880703Y-98426210D01*
X156897085Y-98445984D01*
X156897694Y-98447002D01*
X156899505Y-98460572D01*
X156892683Y-98482733D01*
X156875540Y-98516478D01*
X156846393Y-98564800D01*
X156803555Y-98630692D01*
X156746448Y-98715517D01*
X156695766Y-98790177D01*
X156650461Y-98857140D01*
X156613150Y-98912516D01*
X156586452Y-98952420D01*
X156572985Y-98972962D01*
X156572137Y-98974356D01*
X156573781Y-98994038D01*
X156586245Y-99032293D01*
X156607048Y-99081889D01*
X156614462Y-99097728D01*
X156646814Y-99168290D01*
X156681328Y-99248353D01*
X156709365Y-99317629D01*
X156729568Y-99369045D01*
X156745615Y-99408119D01*
X156754888Y-99428541D01*
X156756041Y-99430114D01*
X156773096Y-99432721D01*
X156813298Y-99439863D01*
X156871302Y-99450523D01*
X156941763Y-99463685D01*
X157019335Y-99478333D01*
X157098672Y-99493449D01*
X157174431Y-99508018D01*
X157241264Y-99521022D01*
X157293828Y-99531445D01*
X157326776Y-99538270D01*
X157334857Y-99540199D01*
X157343205Y-99544962D01*
X157349506Y-99555718D01*
X157354045Y-99576098D01*
X157357104Y-99609734D01*
X157358967Y-99660255D01*
X157359918Y-99731292D01*
X157360240Y-99826476D01*
X157360257Y-99865492D01*
X157360257Y-100182799D01*
X157284057Y-100197839D01*
X157241663Y-100205995D01*
X157178400Y-100217899D01*
X157101962Y-100232116D01*
X157020043Y-100247210D01*
X156997400Y-100251355D01*
X156921806Y-100266053D01*
X156855953Y-100280505D01*
X156805366Y-100293375D01*
X156775574Y-100303322D01*
X156770612Y-100306287D01*
X156758426Y-100327283D01*
X156740953Y-100367967D01*
X156721577Y-100420322D01*
X156717734Y-100431600D01*
X156692339Y-100501523D01*
X156660817Y-100580418D01*
X156629969Y-100651266D01*
X156629817Y-100651595D01*
X156578447Y-100762733D01*
X156747399Y-101011253D01*
X156916352Y-101259772D01*
X156699429Y-101477058D01*
X156633819Y-101541726D01*
X156573979Y-101598733D01*
X156523267Y-101645033D01*
X156485046Y-101677584D01*
X156462675Y-101693343D01*
X156459466Y-101694343D01*
X156440626Y-101686469D01*
X156402180Y-101664578D01*
X156348330Y-101631267D01*
X156283276Y-101589131D01*
X156212940Y-101541943D01*
X156141555Y-101493810D01*
X156077908Y-101451928D01*
X156026041Y-101418871D01*
X155989995Y-101397218D01*
X155973867Y-101389543D01*
X155954189Y-101396037D01*
X155916875Y-101413150D01*
X155869621Y-101437326D01*
X155864612Y-101440013D01*
X155800977Y-101471927D01*
X155757341Y-101487579D01*
X155730202Y-101487745D01*
X155716057Y-101473204D01*
X155715975Y-101473000D01*
X155708905Y-101455779D01*
X155692042Y-101414899D01*
X155666695Y-101353525D01*
X155634171Y-101274819D01*
X155595778Y-101181947D01*
X155552822Y-101078072D01*
X155511222Y-100977502D01*
X155465504Y-100866516D01*
X155423526Y-100763703D01*
X155386548Y-100672215D01*
X155355827Y-100595201D01*
X155332622Y-100535815D01*
X155318190Y-100497209D01*
X155313743Y-100482800D01*
X155324896Y-100466272D01*
X155354069Y-100439930D01*
X155392971Y-100410887D01*
X155503757Y-100319039D01*
X155590351Y-100213759D01*
X155651716Y-100097266D01*
X155686815Y-99971776D01*
X155694608Y-99839507D01*
X155688943Y-99778457D01*
X155658078Y-99651795D01*
X155604920Y-99539941D01*
X155532767Y-99444001D01*
X155444917Y-99365076D01*
X155344665Y-99304270D01*
X155235310Y-99262687D01*
X155120147Y-99241428D01*
X155002475Y-99241599D01*
X154885590Y-99264301D01*
X154772789Y-99310638D01*
X154667369Y-99381713D01*
X154623368Y-99421911D01*
X154538979Y-99525129D01*
X154480222Y-99637925D01*
X154446704Y-99757010D01*
X154438035Y-99879095D01*
X154453823Y-100000893D01*
X154493678Y-100119116D01*
X154557207Y-100230475D01*
X154644021Y-100331684D01*
X154741029Y-100410887D01*
X154781437Y-100441162D01*
X154809982Y-100467219D01*
X154820257Y-100482825D01*
X154814877Y-100499843D01*
X154799575Y-100540500D01*
X154775612Y-100601642D01*
X154744244Y-100680119D01*
X154706732Y-100772780D01*
X154664333Y-100876472D01*
X154622663Y-100977526D01*
X154576690Y-101088607D01*
X154534107Y-101191541D01*
X154496221Y-101283165D01*
X154464340Y-101360316D01*
X154439771Y-101419831D01*
X154423820Y-101458544D01*
X154417910Y-101473000D01*
X154403948Y-101487685D01*
X154376940Y-101487642D01*
X154333413Y-101472099D01*
X154269890Y-101440284D01*
X154269388Y-101440013D01*
X154221560Y-101415323D01*
X154182897Y-101397338D01*
X154161095Y-101389614D01*
X154160133Y-101389543D01*
X154143721Y-101397378D01*
X154107487Y-101419165D01*
X154055474Y-101452328D01*
X153991725Y-101494291D01*
X153921060Y-101541943D01*
X153849116Y-101590191D01*
X153784274Y-101632151D01*
X153730735Y-101665227D01*
X153692697Y-101686821D01*
X153674533Y-101694343D01*
X153657808Y-101684457D01*
X153624180Y-101656826D01*
X153577010Y-101614495D01*
X153519658Y-101560505D01*
X153455484Y-101497899D01*
X153434497Y-101476983D01*
X153217499Y-101259623D01*
X153382668Y-101017220D01*
X153432864Y-100942781D01*
X153476919Y-100875972D01*
X153512362Y-100820665D01*
X153536719Y-100780729D01*
X153547522Y-100760036D01*
X153547838Y-100758563D01*
X153542143Y-100739058D01*
X153526826Y-100699822D01*
X153504537Y-100647430D01*
X153488893Y-100612355D01*
X153459641Y-100545201D01*
X153432094Y-100477358D01*
X153410737Y-100420034D01*
X153404935Y-100402572D01*
X153388452Y-100355938D01*
X153372340Y-100319905D01*
X153363490Y-100306287D01*
X153343960Y-100297952D01*
X153301334Y-100286137D01*
X153241145Y-100272181D01*
X153168922Y-100257422D01*
X153136600Y-100251355D01*
X153054522Y-100236273D01*
X152975795Y-100221669D01*
X152908109Y-100208980D01*
X152859160Y-100199642D01*
X152849943Y-100197839D01*
X152773743Y-100182799D01*
X152773743Y-99865492D01*
X152773914Y-99761154D01*
X152774616Y-99682213D01*
X152776134Y-99625038D01*
X152778749Y-99585999D01*
X152782746Y-99561465D01*
X152788409Y-99547805D01*
X152796020Y-99541389D01*
X152799143Y-99540199D01*
X152817978Y-99535980D01*
X152859588Y-99527562D01*
X152918630Y-99515961D01*
X152989757Y-99502195D01*
X153067625Y-99487280D01*
X153146887Y-99472232D01*
X153222198Y-99458069D01*
X153288213Y-99445806D01*
X153339587Y-99436461D01*
X153370975Y-99431050D01*
X153377959Y-99430114D01*
X153384285Y-99417596D01*
X153398290Y-99384246D01*
X153417355Y-99336377D01*
X153424634Y-99317629D01*
X153453996Y-99245195D01*
X153488571Y-99165170D01*
X153519537Y-99097728D01*
X153542323Y-99046159D01*
X153557482Y-99003785D01*
X153562542Y-98977834D01*
X153561736Y-98974356D01*
X153551041Y-98957936D01*
X153526620Y-98921417D01*
X153491095Y-98868687D01*
X153447087Y-98803635D01*
X153397217Y-98730151D01*
X153387356Y-98715645D01*
X153329492Y-98629704D01*
X153286956Y-98564261D01*
X153258054Y-98516304D01*
X153241090Y-98482820D01*
X153234367Y-98460795D01*
X153236190Y-98447217D01*
X153236236Y-98447131D01*
X153250586Y-98429297D01*
X153282323Y-98394817D01*
X153328010Y-98347268D01*
X153384204Y-98290222D01*
X153447468Y-98227255D01*
X153454602Y-98220227D01*
X153534330Y-98143020D01*
X153595857Y-98086330D01*
X153640421Y-98049110D01*
X153669257Y-98030315D01*
X153681958Y-98027889D01*
X153700494Y-98038471D01*
X153738961Y-98062916D01*
X153793386Y-98098612D01*
X153859798Y-98142947D01*
X153934225Y-98193311D01*
X153951601Y-98205160D01*
X154198297Y-98373626D01*
X154309706Y-98323062D01*
X154377457Y-98293595D01*
X154450183Y-98263959D01*
X154512703Y-98240330D01*
X154515457Y-98239358D01*
X154564360Y-98221457D01*
X154602057Y-98206320D01*
X154620425Y-98197210D01*
X154620456Y-98197184D01*
X154626285Y-98180717D01*
X154636192Y-98140219D01*
X154649195Y-98080242D01*
X154664309Y-98005340D01*
X154680552Y-97920064D01*
X154681881Y-97912875D01*
X154698175Y-97825014D01*
X154713133Y-97745260D01*
X154725791Y-97678681D01*
X154735186Y-97630347D01*
X154740354Y-97605325D01*
X154740444Y-97604943D01*
X154743589Y-97594299D01*
X154749704Y-97586262D01*
X154762453Y-97580467D01*
X154785500Y-97576547D01*
X154822509Y-97574135D01*
X154877144Y-97572865D01*
X154953067Y-97572371D01*
X155053944Y-97572286D01*
X155067000Y-97572286D01*
X155170910Y-97572348D01*
X155170910Y-97572348D01*
G37*
X155170910Y-97572348D02*
X155249454Y-97572778D01*
X155306298Y-97573942D01*
X155345105Y-97576207D01*
X155369538Y-97579940D01*
X155383262Y-97585506D01*
X155389940Y-97593273D01*
X155393236Y-97603605D01*
X155393556Y-97604943D01*
X155398562Y-97629079D01*
X155407829Y-97676701D01*
X155420392Y-97742741D01*
X155435287Y-97822128D01*
X155451551Y-97909796D01*
X155452119Y-97912875D01*
X155468410Y-97998789D01*
X155483652Y-98074696D01*
X155496861Y-98136045D01*
X155507054Y-98178282D01*
X155513248Y-98196855D01*
X155513543Y-98197184D01*
X155531788Y-98206253D01*
X155569405Y-98221367D01*
X155618271Y-98239262D01*
X155618543Y-98239358D01*
X155680093Y-98262493D01*
X155752657Y-98291965D01*
X155821057Y-98321597D01*
X155824294Y-98323062D01*
X155935702Y-98373626D01*
X156182399Y-98205160D01*
X156258077Y-98153803D01*
X156326631Y-98107889D01*
X156384088Y-98070030D01*
X156426476Y-98042837D01*
X156449825Y-98028921D01*
X156452042Y-98027889D01*
X156469010Y-98032484D01*
X156500701Y-98054655D01*
X156548352Y-98095447D01*
X156613198Y-98155905D01*
X156679397Y-98220227D01*
X156743214Y-98283612D01*
X156800329Y-98341451D01*
X156847305Y-98390175D01*
X156880703Y-98426210D01*
X156897085Y-98445984D01*
X156897694Y-98447002D01*
X156899505Y-98460572D01*
X156892683Y-98482733D01*
X156875540Y-98516478D01*
X156846393Y-98564800D01*
X156803555Y-98630692D01*
X156746448Y-98715517D01*
X156695766Y-98790177D01*
X156650461Y-98857140D01*
X156613150Y-98912516D01*
X156586452Y-98952420D01*
X156572985Y-98972962D01*
X156572137Y-98974356D01*
X156573781Y-98994038D01*
X156586245Y-99032293D01*
X156607048Y-99081889D01*
X156614462Y-99097728D01*
X156646814Y-99168290D01*
X156681328Y-99248353D01*
X156709365Y-99317629D01*
X156729568Y-99369045D01*
X156745615Y-99408119D01*
X156754888Y-99428541D01*
X156756041Y-99430114D01*
X156773096Y-99432721D01*
X156813298Y-99439863D01*
X156871302Y-99450523D01*
X156941763Y-99463685D01*
X157019335Y-99478333D01*
X157098672Y-99493449D01*
X157174431Y-99508018D01*
X157241264Y-99521022D01*
X157293828Y-99531445D01*
X157326776Y-99538270D01*
X157334857Y-99540199D01*
X157343205Y-99544962D01*
X157349506Y-99555718D01*
X157354045Y-99576098D01*
X157357104Y-99609734D01*
X157358967Y-99660255D01*
X157359918Y-99731292D01*
X157360240Y-99826476D01*
X157360257Y-99865492D01*
X157360257Y-100182799D01*
X157284057Y-100197839D01*
X157241663Y-100205995D01*
X157178400Y-100217899D01*
X157101962Y-100232116D01*
X157020043Y-100247210D01*
X156997400Y-100251355D01*
X156921806Y-100266053D01*
X156855953Y-100280505D01*
X156805366Y-100293375D01*
X156775574Y-100303322D01*
X156770612Y-100306287D01*
X156758426Y-100327283D01*
X156740953Y-100367967D01*
X156721577Y-100420322D01*
X156717734Y-100431600D01*
X156692339Y-100501523D01*
X156660817Y-100580418D01*
X156629969Y-100651266D01*
X156629817Y-100651595D01*
X156578447Y-100762733D01*
X156747399Y-101011253D01*
X156916352Y-101259772D01*
X156699429Y-101477058D01*
X156633819Y-101541726D01*
X156573979Y-101598733D01*
X156523267Y-101645033D01*
X156485046Y-101677584D01*
X156462675Y-101693343D01*
X156459466Y-101694343D01*
X156440626Y-101686469D01*
X156402180Y-101664578D01*
X156348330Y-101631267D01*
X156283276Y-101589131D01*
X156212940Y-101541943D01*
X156141555Y-101493810D01*
X156077908Y-101451928D01*
X156026041Y-101418871D01*
X155989995Y-101397218D01*
X155973867Y-101389543D01*
X155954189Y-101396037D01*
X155916875Y-101413150D01*
X155869621Y-101437326D01*
X155864612Y-101440013D01*
X155800977Y-101471927D01*
X155757341Y-101487579D01*
X155730202Y-101487745D01*
X155716057Y-101473204D01*
X155715975Y-101473000D01*
X155708905Y-101455779D01*
X155692042Y-101414899D01*
X155666695Y-101353525D01*
X155634171Y-101274819D01*
X155595778Y-101181947D01*
X155552822Y-101078072D01*
X155511222Y-100977502D01*
X155465504Y-100866516D01*
X155423526Y-100763703D01*
X155386548Y-100672215D01*
X155355827Y-100595201D01*
X155332622Y-100535815D01*
X155318190Y-100497209D01*
X155313743Y-100482800D01*
X155324896Y-100466272D01*
X155354069Y-100439930D01*
X155392971Y-100410887D01*
X155503757Y-100319039D01*
X155590351Y-100213759D01*
X155651716Y-100097266D01*
X155686815Y-99971776D01*
X155694608Y-99839507D01*
X155688943Y-99778457D01*
X155658078Y-99651795D01*
X155604920Y-99539941D01*
X155532767Y-99444001D01*
X155444917Y-99365076D01*
X155344665Y-99304270D01*
X155235310Y-99262687D01*
X155120147Y-99241428D01*
X155002475Y-99241599D01*
X154885590Y-99264301D01*
X154772789Y-99310638D01*
X154667369Y-99381713D01*
X154623368Y-99421911D01*
X154538979Y-99525129D01*
X154480222Y-99637925D01*
X154446704Y-99757010D01*
X154438035Y-99879095D01*
X154453823Y-100000893D01*
X154493678Y-100119116D01*
X154557207Y-100230475D01*
X154644021Y-100331684D01*
X154741029Y-100410887D01*
X154781437Y-100441162D01*
X154809982Y-100467219D01*
X154820257Y-100482825D01*
X154814877Y-100499843D01*
X154799575Y-100540500D01*
X154775612Y-100601642D01*
X154744244Y-100680119D01*
X154706732Y-100772780D01*
X154664333Y-100876472D01*
X154622663Y-100977526D01*
X154576690Y-101088607D01*
X154534107Y-101191541D01*
X154496221Y-101283165D01*
X154464340Y-101360316D01*
X154439771Y-101419831D01*
X154423820Y-101458544D01*
X154417910Y-101473000D01*
X154403948Y-101487685D01*
X154376940Y-101487642D01*
X154333413Y-101472099D01*
X154269890Y-101440284D01*
X154269388Y-101440013D01*
X154221560Y-101415323D01*
X154182897Y-101397338D01*
X154161095Y-101389614D01*
X154160133Y-101389543D01*
X154143721Y-101397378D01*
X154107487Y-101419165D01*
X154055474Y-101452328D01*
X153991725Y-101494291D01*
X153921060Y-101541943D01*
X153849116Y-101590191D01*
X153784274Y-101632151D01*
X153730735Y-101665227D01*
X153692697Y-101686821D01*
X153674533Y-101694343D01*
X153657808Y-101684457D01*
X153624180Y-101656826D01*
X153577010Y-101614495D01*
X153519658Y-101560505D01*
X153455484Y-101497899D01*
X153434497Y-101476983D01*
X153217499Y-101259623D01*
X153382668Y-101017220D01*
X153432864Y-100942781D01*
X153476919Y-100875972D01*
X153512362Y-100820665D01*
X153536719Y-100780729D01*
X153547522Y-100760036D01*
X153547838Y-100758563D01*
X153542143Y-100739058D01*
X153526826Y-100699822D01*
X153504537Y-100647430D01*
X153488893Y-100612355D01*
X153459641Y-100545201D01*
X153432094Y-100477358D01*
X153410737Y-100420034D01*
X153404935Y-100402572D01*
X153388452Y-100355938D01*
X153372340Y-100319905D01*
X153363490Y-100306287D01*
X153343960Y-100297952D01*
X153301334Y-100286137D01*
X153241145Y-100272181D01*
X153168922Y-100257422D01*
X153136600Y-100251355D01*
X153054522Y-100236273D01*
X152975795Y-100221669D01*
X152908109Y-100208980D01*
X152859160Y-100199642D01*
X152849943Y-100197839D01*
X152773743Y-100182799D01*
X152773743Y-99865492D01*
X152773914Y-99761154D01*
X152774616Y-99682213D01*
X152776134Y-99625038D01*
X152778749Y-99585999D01*
X152782746Y-99561465D01*
X152788409Y-99547805D01*
X152796020Y-99541389D01*
X152799143Y-99540199D01*
X152817978Y-99535980D01*
X152859588Y-99527562D01*
X152918630Y-99515961D01*
X152989757Y-99502195D01*
X153067625Y-99487280D01*
X153146887Y-99472232D01*
X153222198Y-99458069D01*
X153288213Y-99445806D01*
X153339587Y-99436461D01*
X153370975Y-99431050D01*
X153377959Y-99430114D01*
X153384285Y-99417596D01*
X153398290Y-99384246D01*
X153417355Y-99336377D01*
X153424634Y-99317629D01*
X153453996Y-99245195D01*
X153488571Y-99165170D01*
X153519537Y-99097728D01*
X153542323Y-99046159D01*
X153557482Y-99003785D01*
X153562542Y-98977834D01*
X153561736Y-98974356D01*
X153551041Y-98957936D01*
X153526620Y-98921417D01*
X153491095Y-98868687D01*
X153447087Y-98803635D01*
X153397217Y-98730151D01*
X153387356Y-98715645D01*
X153329492Y-98629704D01*
X153286956Y-98564261D01*
X153258054Y-98516304D01*
X153241090Y-98482820D01*
X153234367Y-98460795D01*
X153236190Y-98447217D01*
X153236236Y-98447131D01*
X153250586Y-98429297D01*
X153282323Y-98394817D01*
X153328010Y-98347268D01*
X153384204Y-98290222D01*
X153447468Y-98227255D01*
X153454602Y-98220227D01*
X153534330Y-98143020D01*
X153595857Y-98086330D01*
X153640421Y-98049110D01*
X153669257Y-98030315D01*
X153681958Y-98027889D01*
X153700494Y-98038471D01*
X153738961Y-98062916D01*
X153793386Y-98098612D01*
X153859798Y-98142947D01*
X153934225Y-98193311D01*
X153951601Y-98205160D01*
X154198297Y-98373626D01*
X154309706Y-98323062D01*
X154377457Y-98293595D01*
X154450183Y-98263959D01*
X154512703Y-98240330D01*
X154515457Y-98239358D01*
X154564360Y-98221457D01*
X154602057Y-98206320D01*
X154620425Y-98197210D01*
X154620456Y-98197184D01*
X154626285Y-98180717D01*
X154636192Y-98140219D01*
X154649195Y-98080242D01*
X154664309Y-98005340D01*
X154680552Y-97920064D01*
X154681881Y-97912875D01*
X154698175Y-97825014D01*
X154713133Y-97745260D01*
X154725791Y-97678681D01*
X154735186Y-97630347D01*
X154740354Y-97605325D01*
X154740444Y-97604943D01*
X154743589Y-97594299D01*
X154749704Y-97586262D01*
X154762453Y-97580467D01*
X154785500Y-97576547D01*
X154822509Y-97574135D01*
X154877144Y-97572865D01*
X154953067Y-97572371D01*
X155053944Y-97572286D01*
X155067000Y-97572286D01*
X155170910Y-97572348D01*
G36*
X158220595Y-102296966D02*
X158278021Y-102334497D01*
X158305719Y-102368096D01*
X158327662Y-102429064D01*
X158329405Y-102477308D01*
X158325457Y-102541816D01*
X158176686Y-102606934D01*
X158104349Y-102640202D01*
X158057084Y-102666964D01*
X158032507Y-102690144D01*
X158028237Y-102712667D01*
X158041889Y-102737455D01*
X158056943Y-102753886D01*
X158100746Y-102780235D01*
X158148389Y-102782081D01*
X158192145Y-102761546D01*
X158224289Y-102720752D01*
X158230038Y-102706347D01*
X158257576Y-102661356D01*
X158289258Y-102642182D01*
X158332714Y-102625779D01*
X158332714Y-102687966D01*
X158328872Y-102730283D01*
X158313823Y-102765969D01*
X158282280Y-102806943D01*
X158277592Y-102812267D01*
X158242506Y-102848720D01*
X158212347Y-102868283D01*
X158174615Y-102877283D01*
X158143335Y-102880230D01*
X158087385Y-102880965D01*
X158047555Y-102871660D01*
X158022708Y-102857846D01*
X157983656Y-102827467D01*
X157956625Y-102794613D01*
X157939517Y-102753294D01*
X157930238Y-102697521D01*
X157926693Y-102621305D01*
X157926410Y-102582622D01*
X157927372Y-102536247D01*
X158015007Y-102536247D01*
X158016023Y-102561126D01*
X158018556Y-102565200D01*
X158035274Y-102559665D01*
X158071249Y-102545017D01*
X158119331Y-102524190D01*
X158129386Y-102519714D01*
X158190152Y-102488814D01*
X158223632Y-102461657D01*
X158230990Y-102436220D01*
X158213391Y-102410481D01*
X158198856Y-102399109D01*
X158146410Y-102376364D01*
X158097322Y-102380122D01*
X158056227Y-102407884D01*
X158027758Y-102457152D01*
X158018631Y-102496257D01*
X158015007Y-102536247D01*
X157927372Y-102536247D01*
X157928285Y-102492249D01*
X157935196Y-102425384D01*
X157948884Y-102376695D01*
X157971096Y-102340849D01*
X158003574Y-102312513D01*
X158017733Y-102303355D01*
X158082053Y-102279507D01*
X158152473Y-102278006D01*
X158220595Y-102296966D01*
X158220595Y-102296966D01*
G37*
X158220595Y-102296966D02*
X158278021Y-102334497D01*
X158305719Y-102368096D01*
X158327662Y-102429064D01*
X158329405Y-102477308D01*
X158325457Y-102541816D01*
X158176686Y-102606934D01*
X158104349Y-102640202D01*
X158057084Y-102666964D01*
X158032507Y-102690144D01*
X158028237Y-102712667D01*
X158041889Y-102737455D01*
X158056943Y-102753886D01*
X158100746Y-102780235D01*
X158148389Y-102782081D01*
X158192145Y-102761546D01*
X158224289Y-102720752D01*
X158230038Y-102706347D01*
X158257576Y-102661356D01*
X158289258Y-102642182D01*
X158332714Y-102625779D01*
X158332714Y-102687966D01*
X158328872Y-102730283D01*
X158313823Y-102765969D01*
X158282280Y-102806943D01*
X158277592Y-102812267D01*
X158242506Y-102848720D01*
X158212347Y-102868283D01*
X158174615Y-102877283D01*
X158143335Y-102880230D01*
X158087385Y-102880965D01*
X158047555Y-102871660D01*
X158022708Y-102857846D01*
X157983656Y-102827467D01*
X157956625Y-102794613D01*
X157939517Y-102753294D01*
X157930238Y-102697521D01*
X157926693Y-102621305D01*
X157926410Y-102582622D01*
X157927372Y-102536247D01*
X158015007Y-102536247D01*
X158016023Y-102561126D01*
X158018556Y-102565200D01*
X158035274Y-102559665D01*
X158071249Y-102545017D01*
X158119331Y-102524190D01*
X158129386Y-102519714D01*
X158190152Y-102488814D01*
X158223632Y-102461657D01*
X158230990Y-102436220D01*
X158213391Y-102410481D01*
X158198856Y-102399109D01*
X158146410Y-102376364D01*
X158097322Y-102380122D01*
X158056227Y-102407884D01*
X158027758Y-102457152D01*
X158018631Y-102496257D01*
X158015007Y-102536247D01*
X157927372Y-102536247D01*
X157928285Y-102492249D01*
X157935196Y-102425384D01*
X157948884Y-102376695D01*
X157971096Y-102340849D01*
X158003574Y-102312513D01*
X158017733Y-102303355D01*
X158082053Y-102279507D01*
X158152473Y-102278006D01*
X158220595Y-102296966D01*
G36*
X157719600Y-102288752D02*
X157736948Y-102296334D01*
X157778356Y-102329128D01*
X157813765Y-102376547D01*
X157835664Y-102427151D01*
X157839229Y-102452098D01*
X157827279Y-102486927D01*
X157801067Y-102505357D01*
X157772964Y-102516516D01*
X157760095Y-102518572D01*
X157753829Y-102503649D01*
X157741456Y-102471175D01*
X157736028Y-102456502D01*
X157705590Y-102405744D01*
X157661520Y-102380427D01*
X157605010Y-102381206D01*
X157600825Y-102382203D01*
X157570655Y-102396507D01*
X157548476Y-102424393D01*
X157533327Y-102469287D01*
X157524250Y-102534615D01*
X157520286Y-102623804D01*
X157519914Y-102671261D01*
X157519730Y-102746071D01*
X157518522Y-102797069D01*
X157515309Y-102829471D01*
X157509109Y-102848495D01*
X157498940Y-102859356D01*
X157483819Y-102867272D01*
X157482946Y-102867670D01*
X157453828Y-102879981D01*
X157439403Y-102884514D01*
X157437186Y-102870809D01*
X157435289Y-102832925D01*
X157433847Y-102775715D01*
X157432998Y-102704027D01*
X157432829Y-102651565D01*
X157433692Y-102550047D01*
X157437070Y-102473032D01*
X157444142Y-102416023D01*
X157456088Y-102374526D01*
X157474090Y-102344043D01*
X157499327Y-102320080D01*
X157524247Y-102303355D01*
X157584171Y-102281097D01*
X157653911Y-102276076D01*
X157719600Y-102288752D01*
X157719600Y-102288752D01*
G37*
X157719600Y-102288752D02*
X157736948Y-102296334D01*
X157778356Y-102329128D01*
X157813765Y-102376547D01*
X157835664Y-102427151D01*
X157839229Y-102452098D01*
X157827279Y-102486927D01*
X157801067Y-102505357D01*
X157772964Y-102516516D01*
X157760095Y-102518572D01*
X157753829Y-102503649D01*
X157741456Y-102471175D01*
X157736028Y-102456502D01*
X157705590Y-102405744D01*
X157661520Y-102380427D01*
X157605010Y-102381206D01*
X157600825Y-102382203D01*
X157570655Y-102396507D01*
X157548476Y-102424393D01*
X157533327Y-102469287D01*
X157524250Y-102534615D01*
X157520286Y-102623804D01*
X157519914Y-102671261D01*
X157519730Y-102746071D01*
X157518522Y-102797069D01*
X157515309Y-102829471D01*
X157509109Y-102848495D01*
X157498940Y-102859356D01*
X157483819Y-102867272D01*
X157482946Y-102867670D01*
X157453828Y-102879981D01*
X157439403Y-102884514D01*
X157437186Y-102870809D01*
X157435289Y-102832925D01*
X157433847Y-102775715D01*
X157432998Y-102704027D01*
X157432829Y-102651565D01*
X157433692Y-102550047D01*
X157437070Y-102473032D01*
X157444142Y-102416023D01*
X157456088Y-102374526D01*
X157474090Y-102344043D01*
X157499327Y-102320080D01*
X157524247Y-102303355D01*
X157584171Y-102281097D01*
X157653911Y-102276076D01*
X157719600Y-102288752D01*
G36*
X157211876Y-102286335D02*
X157253667Y-102305344D01*
X157286469Y-102328378D01*
X157310503Y-102354133D01*
X157327097Y-102387358D01*
X157337577Y-102432800D01*
X157343271Y-102495207D01*
X157345507Y-102579327D01*
X157345743Y-102634721D01*
X157345743Y-102850826D01*
X157308774Y-102867670D01*
X157279656Y-102879981D01*
X157265231Y-102884514D01*
X157262472Y-102871025D01*
X157260282Y-102834653D01*
X157258942Y-102781542D01*
X157258657Y-102739372D01*
X157257434Y-102678447D01*
X157254136Y-102630115D01*
X157249321Y-102600518D01*
X157245496Y-102594229D01*
X157219783Y-102600652D01*
X157179418Y-102617125D01*
X157132679Y-102639458D01*
X157087845Y-102663457D01*
X157053193Y-102684930D01*
X157037002Y-102699685D01*
X157036938Y-102699845D01*
X157038330Y-102727152D01*
X157050818Y-102753219D01*
X157072743Y-102774392D01*
X157104743Y-102781474D01*
X157132092Y-102780649D01*
X157170826Y-102780042D01*
X157191158Y-102789116D01*
X157203369Y-102813092D01*
X157204909Y-102817613D01*
X157210203Y-102851806D01*
X157196047Y-102872568D01*
X157159148Y-102882462D01*
X157119289Y-102884292D01*
X157047562Y-102870727D01*
X157010432Y-102851355D01*
X156964576Y-102805845D01*
X156940256Y-102749983D01*
X156938073Y-102690957D01*
X156958629Y-102635953D01*
X156989549Y-102601486D01*
X157020420Y-102582189D01*
X157068942Y-102557759D01*
X157125485Y-102532985D01*
X157134910Y-102529199D01*
X157197019Y-102501791D01*
X157232822Y-102477634D01*
X157244337Y-102453619D01*
X157233580Y-102426635D01*
X157215114Y-102405543D01*
X157171469Y-102379572D01*
X157123446Y-102377624D01*
X157079406Y-102397637D01*
X157047709Y-102437551D01*
X157043549Y-102447848D01*
X157019327Y-102485724D01*
X156983965Y-102513842D01*
X156939343Y-102536917D01*
X156939343Y-102471485D01*
X156941969Y-102431506D01*
X156953230Y-102399997D01*
X156978199Y-102366378D01*
X157002169Y-102340484D01*
X157039441Y-102303817D01*
X157068401Y-102284121D01*
X157099505Y-102276220D01*
X157134713Y-102274914D01*
X157211876Y-102286335D01*
X157211876Y-102286335D01*
G37*
X157211876Y-102286335D02*
X157253667Y-102305344D01*
X157286469Y-102328378D01*
X157310503Y-102354133D01*
X157327097Y-102387358D01*
X157337577Y-102432800D01*
X157343271Y-102495207D01*
X157345507Y-102579327D01*
X157345743Y-102634721D01*
X157345743Y-102850826D01*
X157308774Y-102867670D01*
X157279656Y-102879981D01*
X157265231Y-102884514D01*
X157262472Y-102871025D01*
X157260282Y-102834653D01*
X157258942Y-102781542D01*
X157258657Y-102739372D01*
X157257434Y-102678447D01*
X157254136Y-102630115D01*
X157249321Y-102600518D01*
X157245496Y-102594229D01*
X157219783Y-102600652D01*
X157179418Y-102617125D01*
X157132679Y-102639458D01*
X157087845Y-102663457D01*
X157053193Y-102684930D01*
X157037002Y-102699685D01*
X157036938Y-102699845D01*
X157038330Y-102727152D01*
X157050818Y-102753219D01*
X157072743Y-102774392D01*
X157104743Y-102781474D01*
X157132092Y-102780649D01*
X157170826Y-102780042D01*
X157191158Y-102789116D01*
X157203369Y-102813092D01*
X157204909Y-102817613D01*
X157210203Y-102851806D01*
X157196047Y-102872568D01*
X157159148Y-102882462D01*
X157119289Y-102884292D01*
X157047562Y-102870727D01*
X157010432Y-102851355D01*
X156964576Y-102805845D01*
X156940256Y-102749983D01*
X156938073Y-102690957D01*
X156958629Y-102635953D01*
X156989549Y-102601486D01*
X157020420Y-102582189D01*
X157068942Y-102557759D01*
X157125485Y-102532985D01*
X157134910Y-102529199D01*
X157197019Y-102501791D01*
X157232822Y-102477634D01*
X157244337Y-102453619D01*
X157233580Y-102426635D01*
X157215114Y-102405543D01*
X157171469Y-102379572D01*
X157123446Y-102377624D01*
X157079406Y-102397637D01*
X157047709Y-102437551D01*
X157043549Y-102447848D01*
X157019327Y-102485724D01*
X156983965Y-102513842D01*
X156939343Y-102536917D01*
X156939343Y-102471485D01*
X156941969Y-102431506D01*
X156953230Y-102399997D01*
X156978199Y-102366378D01*
X157002169Y-102340484D01*
X157039441Y-102303817D01*
X157068401Y-102284121D01*
X157099505Y-102276220D01*
X157134713Y-102274914D01*
X157211876Y-102286335D01*
G36*
X156846833Y-102288663D02*
X156849048Y-102326850D01*
X156850784Y-102384886D01*
X156851899Y-102458180D01*
X156852257Y-102535055D01*
X156852257Y-102795196D01*
X156806326Y-102841127D01*
X156774675Y-102869429D01*
X156746890Y-102880893D01*
X156708915Y-102880168D01*
X156693840Y-102878321D01*
X156646726Y-102872948D01*
X156607756Y-102869869D01*
X156598257Y-102869585D01*
X156566233Y-102871445D01*
X156520432Y-102876114D01*
X156502674Y-102878321D01*
X156459057Y-102881735D01*
X156429745Y-102874320D01*
X156400680Y-102851427D01*
X156390188Y-102841127D01*
X156344257Y-102795196D01*
X156344257Y-102308602D01*
X156381226Y-102291758D01*
X156413059Y-102279282D01*
X156431683Y-102274914D01*
X156436458Y-102288718D01*
X156440921Y-102327286D01*
X156444775Y-102386356D01*
X156447722Y-102461663D01*
X156449143Y-102525286D01*
X156453114Y-102775657D01*
X156487759Y-102780556D01*
X156519268Y-102777131D01*
X156534708Y-102766041D01*
X156539023Y-102745308D01*
X156542708Y-102701145D01*
X156545469Y-102639146D01*
X156547012Y-102564909D01*
X156547235Y-102526706D01*
X156547457Y-102306783D01*
X156593166Y-102290849D01*
X156625518Y-102280015D01*
X156643115Y-102274962D01*
X156643623Y-102274914D01*
X156645388Y-102288648D01*
X156647329Y-102326730D01*
X156649282Y-102384482D01*
X156651084Y-102457227D01*
X156652343Y-102525286D01*
X156656314Y-102775657D01*
X156743400Y-102775657D01*
X156747396Y-102547240D01*
X156751392Y-102318822D01*
X156793847Y-102296868D01*
X156825192Y-102281793D01*
X156843744Y-102274951D01*
X156844279Y-102274914D01*
X156846833Y-102288663D01*
X156846833Y-102288663D01*
G37*
X156846833Y-102288663D02*
X156849048Y-102326850D01*
X156850784Y-102384886D01*
X156851899Y-102458180D01*
X156852257Y-102535055D01*
X156852257Y-102795196D01*
X156806326Y-102841127D01*
X156774675Y-102869429D01*
X156746890Y-102880893D01*
X156708915Y-102880168D01*
X156693840Y-102878321D01*
X156646726Y-102872948D01*
X156607756Y-102869869D01*
X156598257Y-102869585D01*
X156566233Y-102871445D01*
X156520432Y-102876114D01*
X156502674Y-102878321D01*
X156459057Y-102881735D01*
X156429745Y-102874320D01*
X156400680Y-102851427D01*
X156390188Y-102841127D01*
X156344257Y-102795196D01*
X156344257Y-102308602D01*
X156381226Y-102291758D01*
X156413059Y-102279282D01*
X156431683Y-102274914D01*
X156436458Y-102288718D01*
X156440921Y-102327286D01*
X156444775Y-102386356D01*
X156447722Y-102461663D01*
X156449143Y-102525286D01*
X156453114Y-102775657D01*
X156487759Y-102780556D01*
X156519268Y-102777131D01*
X156534708Y-102766041D01*
X156539023Y-102745308D01*
X156542708Y-102701145D01*
X156545469Y-102639146D01*
X156547012Y-102564909D01*
X156547235Y-102526706D01*
X156547457Y-102306783D01*
X156593166Y-102290849D01*
X156625518Y-102280015D01*
X156643115Y-102274962D01*
X156643623Y-102274914D01*
X156645388Y-102288648D01*
X156647329Y-102326730D01*
X156649282Y-102384482D01*
X156651084Y-102457227D01*
X156652343Y-102525286D01*
X156656314Y-102775657D01*
X156743400Y-102775657D01*
X156747396Y-102547240D01*
X156751392Y-102318822D01*
X156793847Y-102296868D01*
X156825192Y-102281793D01*
X156843744Y-102274951D01*
X156844279Y-102274914D01*
X156846833Y-102288663D01*
G36*
X156257117Y-102395358D02*
X156256933Y-102503837D01*
X156256219Y-102587287D01*
X156254675Y-102649704D01*
X156252001Y-102695085D01*
X156247894Y-102727429D01*
X156242055Y-102750733D01*
X156234182Y-102768995D01*
X156228221Y-102779418D01*
X156178855Y-102835945D01*
X156116264Y-102871377D01*
X156047013Y-102884090D01*
X155977668Y-102872463D01*
X155936375Y-102851568D01*
X155893025Y-102815422D01*
X155863481Y-102771276D01*
X155845655Y-102713462D01*
X155837463Y-102636313D01*
X155836302Y-102579714D01*
X155836458Y-102575647D01*
X155937857Y-102575647D01*
X155938476Y-102640550D01*
X155941314Y-102683514D01*
X155947840Y-102711622D01*
X155959523Y-102731953D01*
X155973483Y-102747288D01*
X156020365Y-102776890D01*
X156070701Y-102779419D01*
X156118276Y-102754705D01*
X156121979Y-102751356D01*
X156137783Y-102733935D01*
X156147693Y-102713209D01*
X156153058Y-102682362D01*
X156155228Y-102634577D01*
X156155571Y-102581748D01*
X156154827Y-102515381D01*
X156151748Y-102471106D01*
X156145061Y-102442009D01*
X156133496Y-102421173D01*
X156124013Y-102410107D01*
X156079960Y-102382198D01*
X156029224Y-102378843D01*
X155980796Y-102400159D01*
X155971450Y-102408073D01*
X155955540Y-102425647D01*
X155945610Y-102446587D01*
X155940278Y-102477782D01*
X155938163Y-102526122D01*
X155937857Y-102575647D01*
X155836458Y-102575647D01*
X155839810Y-102488568D01*
X155851726Y-102420086D01*
X155874135Y-102368600D01*
X155909124Y-102328443D01*
X155936375Y-102307861D01*
X155985907Y-102285625D01*
X156043316Y-102275304D01*
X156096682Y-102278067D01*
X156126543Y-102289212D01*
X156138261Y-102292383D01*
X156146037Y-102280557D01*
X156151465Y-102248866D01*
X156155571Y-102200593D01*
X156160067Y-102146829D01*
X156166313Y-102114482D01*
X156177676Y-102095985D01*
X156197528Y-102083770D01*
X156210000Y-102078362D01*
X156257171Y-102058601D01*
X156257117Y-102395358D01*
X156257117Y-102395358D01*
G37*
X156257117Y-102395358D02*
X156256933Y-102503837D01*
X156256219Y-102587287D01*
X156254675Y-102649704D01*
X156252001Y-102695085D01*
X156247894Y-102727429D01*
X156242055Y-102750733D01*
X156234182Y-102768995D01*
X156228221Y-102779418D01*
X156178855Y-102835945D01*
X156116264Y-102871377D01*
X156047013Y-102884090D01*
X155977668Y-102872463D01*
X155936375Y-102851568D01*
X155893025Y-102815422D01*
X155863481Y-102771276D01*
X155845655Y-102713462D01*
X155837463Y-102636313D01*
X155836302Y-102579714D01*
X155836458Y-102575647D01*
X155937857Y-102575647D01*
X155938476Y-102640550D01*
X155941314Y-102683514D01*
X155947840Y-102711622D01*
X155959523Y-102731953D01*
X155973483Y-102747288D01*
X156020365Y-102776890D01*
X156070701Y-102779419D01*
X156118276Y-102754705D01*
X156121979Y-102751356D01*
X156137783Y-102733935D01*
X156147693Y-102713209D01*
X156153058Y-102682362D01*
X156155228Y-102634577D01*
X156155571Y-102581748D01*
X156154827Y-102515381D01*
X156151748Y-102471106D01*
X156145061Y-102442009D01*
X156133496Y-102421173D01*
X156124013Y-102410107D01*
X156079960Y-102382198D01*
X156029224Y-102378843D01*
X155980796Y-102400159D01*
X155971450Y-102408073D01*
X155955540Y-102425647D01*
X155945610Y-102446587D01*
X155940278Y-102477782D01*
X155938163Y-102526122D01*
X155937857Y-102575647D01*
X155836458Y-102575647D01*
X155839810Y-102488568D01*
X155851726Y-102420086D01*
X155874135Y-102368600D01*
X155909124Y-102328443D01*
X155936375Y-102307861D01*
X155985907Y-102285625D01*
X156043316Y-102275304D01*
X156096682Y-102278067D01*
X156126543Y-102289212D01*
X156138261Y-102292383D01*
X156146037Y-102280557D01*
X156151465Y-102248866D01*
X156155571Y-102200593D01*
X156160067Y-102146829D01*
X156166313Y-102114482D01*
X156177676Y-102095985D01*
X156197528Y-102083770D01*
X156210000Y-102078362D01*
X156257171Y-102058601D01*
X156257117Y-102395358D01*
G36*
X155596926Y-102279755D02*
X155662858Y-102304084D01*
X155716273Y-102347117D01*
X155737164Y-102377409D01*
X155759939Y-102432994D01*
X155759466Y-102473186D01*
X155735562Y-102500217D01*
X155726717Y-102504813D01*
X155688530Y-102519144D01*
X155669028Y-102515472D01*
X155662422Y-102491407D01*
X155662086Y-102478114D01*
X155649992Y-102429210D01*
X155618471Y-102394999D01*
X155574659Y-102378476D01*
X155525695Y-102382634D01*
X155485894Y-102404227D01*
X155472450Y-102416544D01*
X155462921Y-102431487D01*
X155456485Y-102454075D01*
X155452317Y-102489328D01*
X155449597Y-102542266D01*
X155447502Y-102617907D01*
X155446960Y-102641857D01*
X155444981Y-102723790D01*
X155442731Y-102781455D01*
X155439357Y-102819608D01*
X155434006Y-102843004D01*
X155425824Y-102856398D01*
X155413959Y-102864545D01*
X155406362Y-102868144D01*
X155374102Y-102880452D01*
X155355111Y-102884514D01*
X155348836Y-102870948D01*
X155345006Y-102829934D01*
X155343600Y-102760999D01*
X155344598Y-102663669D01*
X155344908Y-102648657D01*
X155347101Y-102559859D01*
X155349693Y-102495019D01*
X155353382Y-102449067D01*
X155358864Y-102416935D01*
X155366835Y-102393553D01*
X155377993Y-102373852D01*
X155383830Y-102365410D01*
X155417296Y-102328057D01*
X155454727Y-102299003D01*
X155459309Y-102296467D01*
X155526426Y-102276443D01*
X155596926Y-102279755D01*
X155596926Y-102279755D01*
G37*
X155596926Y-102279755D02*
X155662858Y-102304084D01*
X155716273Y-102347117D01*
X155737164Y-102377409D01*
X155759939Y-102432994D01*
X155759466Y-102473186D01*
X155735562Y-102500217D01*
X155726717Y-102504813D01*
X155688530Y-102519144D01*
X155669028Y-102515472D01*
X155662422Y-102491407D01*
X155662086Y-102478114D01*
X155649992Y-102429210D01*
X155618471Y-102394999D01*
X155574659Y-102378476D01*
X155525695Y-102382634D01*
X155485894Y-102404227D01*
X155472450Y-102416544D01*
X155462921Y-102431487D01*
X155456485Y-102454075D01*
X155452317Y-102489328D01*
X155449597Y-102542266D01*
X155447502Y-102617907D01*
X155446960Y-102641857D01*
X155444981Y-102723790D01*
X155442731Y-102781455D01*
X155439357Y-102819608D01*
X155434006Y-102843004D01*
X155425824Y-102856398D01*
X155413959Y-102864545D01*
X155406362Y-102868144D01*
X155374102Y-102880452D01*
X155355111Y-102884514D01*
X155348836Y-102870948D01*
X155345006Y-102829934D01*
X155343600Y-102760999D01*
X155344598Y-102663669D01*
X155344908Y-102648657D01*
X155347101Y-102559859D01*
X155349693Y-102495019D01*
X155353382Y-102449067D01*
X155358864Y-102416935D01*
X155366835Y-102393553D01*
X155377993Y-102373852D01*
X155383830Y-102365410D01*
X155417296Y-102328057D01*
X155454727Y-102299003D01*
X155459309Y-102296467D01*
X155526426Y-102276443D01*
X155596926Y-102279755D01*
G36*
X155106744Y-102280968D02*
X155163616Y-102302087D01*
X155164267Y-102302493D01*
X155199440Y-102328380D01*
X155225407Y-102358633D01*
X155243670Y-102398058D01*
X155255732Y-102451462D01*
X155263096Y-102523651D01*
X155267264Y-102619432D01*
X155267629Y-102633078D01*
X155272876Y-102838842D01*
X155228716Y-102861678D01*
X155196763Y-102877110D01*
X155177470Y-102884423D01*
X155176578Y-102884514D01*
X155173239Y-102871022D01*
X155170587Y-102834626D01*
X155168956Y-102781452D01*
X155168600Y-102738393D01*
X155168592Y-102668641D01*
X155165403Y-102624837D01*
X155154288Y-102603944D01*
X155130501Y-102602925D01*
X155089296Y-102618741D01*
X155027086Y-102647815D01*
X154981341Y-102671963D01*
X154957813Y-102692913D01*
X154950896Y-102715747D01*
X154950886Y-102716877D01*
X154962299Y-102756212D01*
X154996092Y-102777462D01*
X155047809Y-102780539D01*
X155085061Y-102780006D01*
X155104703Y-102790735D01*
X155116952Y-102816505D01*
X155124002Y-102849337D01*
X155113842Y-102867966D01*
X155110017Y-102870632D01*
X155074001Y-102881340D01*
X155023566Y-102882856D01*
X154971626Y-102875759D01*
X154934822Y-102862788D01*
X154883938Y-102819585D01*
X154855014Y-102759446D01*
X154849286Y-102712462D01*
X154853657Y-102670082D01*
X154869475Y-102635488D01*
X154900797Y-102604763D01*
X154951678Y-102573990D01*
X155026176Y-102539252D01*
X155030714Y-102537288D01*
X155097821Y-102506287D01*
X155139232Y-102480862D01*
X155156981Y-102458014D01*
X155153107Y-102434745D01*
X155129643Y-102408056D01*
X155122627Y-102401914D01*
X155075630Y-102378100D01*
X155026933Y-102379103D01*
X154984522Y-102402451D01*
X154956384Y-102445675D01*
X154953769Y-102454160D01*
X154928308Y-102495308D01*
X154896001Y-102515128D01*
X154849286Y-102534770D01*
X154849286Y-102483950D01*
X154863496Y-102410082D01*
X154905675Y-102342327D01*
X154927624Y-102319661D01*
X154977517Y-102290569D01*
X155040967Y-102277400D01*
X155106744Y-102280968D01*
X155106744Y-102280968D01*
G37*
X155106744Y-102280968D02*
X155163616Y-102302087D01*
X155164267Y-102302493D01*
X155199440Y-102328380D01*
X155225407Y-102358633D01*
X155243670Y-102398058D01*
X155255732Y-102451462D01*
X155263096Y-102523651D01*
X155267264Y-102619432D01*
X155267629Y-102633078D01*
X155272876Y-102838842D01*
X155228716Y-102861678D01*
X155196763Y-102877110D01*
X155177470Y-102884423D01*
X155176578Y-102884514D01*
X155173239Y-102871022D01*
X155170587Y-102834626D01*
X155168956Y-102781452D01*
X155168600Y-102738393D01*
X155168592Y-102668641D01*
X155165403Y-102624837D01*
X155154288Y-102603944D01*
X155130501Y-102602925D01*
X155089296Y-102618741D01*
X155027086Y-102647815D01*
X154981341Y-102671963D01*
X154957813Y-102692913D01*
X154950896Y-102715747D01*
X154950886Y-102716877D01*
X154962299Y-102756212D01*
X154996092Y-102777462D01*
X155047809Y-102780539D01*
X155085061Y-102780006D01*
X155104703Y-102790735D01*
X155116952Y-102816505D01*
X155124002Y-102849337D01*
X155113842Y-102867966D01*
X155110017Y-102870632D01*
X155074001Y-102881340D01*
X155023566Y-102882856D01*
X154971626Y-102875759D01*
X154934822Y-102862788D01*
X154883938Y-102819585D01*
X154855014Y-102759446D01*
X154849286Y-102712462D01*
X154853657Y-102670082D01*
X154869475Y-102635488D01*
X154900797Y-102604763D01*
X154951678Y-102573990D01*
X155026176Y-102539252D01*
X155030714Y-102537288D01*
X155097821Y-102506287D01*
X155139232Y-102480862D01*
X155156981Y-102458014D01*
X155153107Y-102434745D01*
X155129643Y-102408056D01*
X155122627Y-102401914D01*
X155075630Y-102378100D01*
X155026933Y-102379103D01*
X154984522Y-102402451D01*
X154956384Y-102445675D01*
X154953769Y-102454160D01*
X154928308Y-102495308D01*
X154896001Y-102515128D01*
X154849286Y-102534770D01*
X154849286Y-102483950D01*
X154863496Y-102410082D01*
X154905675Y-102342327D01*
X154927624Y-102319661D01*
X154977517Y-102290569D01*
X155040967Y-102277400D01*
X155106744Y-102280968D01*
G36*
X154442886Y-102181289D02*
X154447139Y-102240613D01*
X154452025Y-102275572D01*
X154458795Y-102290820D01*
X154468702Y-102291015D01*
X154471914Y-102289195D01*
X154514644Y-102276015D01*
X154570227Y-102276785D01*
X154626737Y-102290333D01*
X154662082Y-102307861D01*
X154698321Y-102335861D01*
X154724813Y-102367549D01*
X154742999Y-102407813D01*
X154754322Y-102461543D01*
X154760222Y-102533626D01*
X154762143Y-102628951D01*
X154762177Y-102647237D01*
X154762200Y-102852646D01*
X154716491Y-102868580D01*
X154684027Y-102879420D01*
X154666215Y-102884468D01*
X154665691Y-102884514D01*
X154663937Y-102870828D01*
X154662444Y-102833076D01*
X154661326Y-102776224D01*
X154660697Y-102705234D01*
X154660600Y-102662073D01*
X154660398Y-102576973D01*
X154659358Y-102515981D01*
X154656831Y-102474177D01*
X154652164Y-102446642D01*
X154644707Y-102428456D01*
X154633811Y-102414698D01*
X154627007Y-102408073D01*
X154580272Y-102381375D01*
X154529272Y-102379375D01*
X154483001Y-102401955D01*
X154474444Y-102410107D01*
X154461893Y-102425436D01*
X154453188Y-102443618D01*
X154447631Y-102469909D01*
X154444526Y-102509562D01*
X154443176Y-102567832D01*
X154442886Y-102648173D01*
X154442886Y-102852646D01*
X154397177Y-102868580D01*
X154364713Y-102879420D01*
X154346901Y-102884468D01*
X154346377Y-102884514D01*
X154345037Y-102870623D01*
X154343828Y-102831439D01*
X154342801Y-102770700D01*
X154342002Y-102692141D01*
X154341481Y-102599498D01*
X154341286Y-102496509D01*
X154341286Y-102099342D01*
X154388457Y-102079444D01*
X154435629Y-102059547D01*
X154442886Y-102181289D01*
X154442886Y-102181289D01*
G37*
X154442886Y-102181289D02*
X154447139Y-102240613D01*
X154452025Y-102275572D01*
X154458795Y-102290820D01*
X154468702Y-102291015D01*
X154471914Y-102289195D01*
X154514644Y-102276015D01*
X154570227Y-102276785D01*
X154626737Y-102290333D01*
X154662082Y-102307861D01*
X154698321Y-102335861D01*
X154724813Y-102367549D01*
X154742999Y-102407813D01*
X154754322Y-102461543D01*
X154760222Y-102533626D01*
X154762143Y-102628951D01*
X154762177Y-102647237D01*
X154762200Y-102852646D01*
X154716491Y-102868580D01*
X154684027Y-102879420D01*
X154666215Y-102884468D01*
X154665691Y-102884514D01*
X154663937Y-102870828D01*
X154662444Y-102833076D01*
X154661326Y-102776224D01*
X154660697Y-102705234D01*
X154660600Y-102662073D01*
X154660398Y-102576973D01*
X154659358Y-102515981D01*
X154656831Y-102474177D01*
X154652164Y-102446642D01*
X154644707Y-102428456D01*
X154633811Y-102414698D01*
X154627007Y-102408073D01*
X154580272Y-102381375D01*
X154529272Y-102379375D01*
X154483001Y-102401955D01*
X154474444Y-102410107D01*
X154461893Y-102425436D01*
X154453188Y-102443618D01*
X154447631Y-102469909D01*
X154444526Y-102509562D01*
X154443176Y-102567832D01*
X154442886Y-102648173D01*
X154442886Y-102852646D01*
X154397177Y-102868580D01*
X154364713Y-102879420D01*
X154346901Y-102884468D01*
X154346377Y-102884514D01*
X154345037Y-102870623D01*
X154343828Y-102831439D01*
X154342801Y-102770700D01*
X154342002Y-102692141D01*
X154341481Y-102599498D01*
X154341286Y-102496509D01*
X154341286Y-102099342D01*
X154388457Y-102079444D01*
X154435629Y-102059547D01*
X154442886Y-102181289D01*
G36*
X153235303Y-102261239D02*
X153292527Y-102299735D01*
X153336749Y-102355335D01*
X153363167Y-102426086D01*
X153368510Y-102478162D01*
X153367903Y-102499893D01*
X153362822Y-102516531D01*
X153348855Y-102531437D01*
X153321589Y-102547973D01*
X153276612Y-102569498D01*
X153209511Y-102599374D01*
X153209171Y-102599524D01*
X153147407Y-102627813D01*
X153096759Y-102652933D01*
X153062404Y-102672179D01*
X153049518Y-102682848D01*
X153049514Y-102682934D01*
X153060872Y-102706166D01*
X153087431Y-102731774D01*
X153117923Y-102750221D01*
X153133370Y-102753886D01*
X153175515Y-102741212D01*
X153211808Y-102709471D01*
X153229517Y-102674572D01*
X153246552Y-102648845D01*
X153279922Y-102619546D01*
X153319149Y-102594235D01*
X153353756Y-102580471D01*
X153360993Y-102579714D01*
X153369139Y-102592160D01*
X153369630Y-102623972D01*
X153363643Y-102666866D01*
X153352357Y-102712558D01*
X153336950Y-102752761D01*
X153336171Y-102754322D01*
X153289804Y-102819062D01*
X153229711Y-102863097D01*
X153161465Y-102884711D01*
X153090638Y-102882185D01*
X153022804Y-102853804D01*
X153019788Y-102851808D01*
X152966427Y-102803448D01*
X152931340Y-102740352D01*
X152911922Y-102657387D01*
X152909316Y-102634078D01*
X152904701Y-102524055D01*
X152910233Y-102472748D01*
X153049514Y-102472748D01*
X153051324Y-102504753D01*
X153061222Y-102514093D01*
X153085898Y-102507105D01*
X153124795Y-102490587D01*
X153168275Y-102469881D01*
X153169356Y-102469333D01*
X153206209Y-102449949D01*
X153221000Y-102437013D01*
X153217353Y-102423451D01*
X153201995Y-102405632D01*
X153162923Y-102379845D01*
X153120846Y-102377950D01*
X153083103Y-102396717D01*
X153057034Y-102432915D01*
X153049514Y-102472748D01*
X152910233Y-102472748D01*
X152914194Y-102436027D01*
X152938550Y-102366212D01*
X152972456Y-102317302D01*
X153033653Y-102267878D01*
X153101063Y-102243359D01*
X153169880Y-102241797D01*
X153235303Y-102261239D01*
X153235303Y-102261239D01*
G37*
X153235303Y-102261239D02*
X153292527Y-102299735D01*
X153336749Y-102355335D01*
X153363167Y-102426086D01*
X153368510Y-102478162D01*
X153367903Y-102499893D01*
X153362822Y-102516531D01*
X153348855Y-102531437D01*
X153321589Y-102547973D01*
X153276612Y-102569498D01*
X153209511Y-102599374D01*
X153209171Y-102599524D01*
X153147407Y-102627813D01*
X153096759Y-102652933D01*
X153062404Y-102672179D01*
X153049518Y-102682848D01*
X153049514Y-102682934D01*
X153060872Y-102706166D01*
X153087431Y-102731774D01*
X153117923Y-102750221D01*
X153133370Y-102753886D01*
X153175515Y-102741212D01*
X153211808Y-102709471D01*
X153229517Y-102674572D01*
X153246552Y-102648845D01*
X153279922Y-102619546D01*
X153319149Y-102594235D01*
X153353756Y-102580471D01*
X153360993Y-102579714D01*
X153369139Y-102592160D01*
X153369630Y-102623972D01*
X153363643Y-102666866D01*
X153352357Y-102712558D01*
X153336950Y-102752761D01*
X153336171Y-102754322D01*
X153289804Y-102819062D01*
X153229711Y-102863097D01*
X153161465Y-102884711D01*
X153090638Y-102882185D01*
X153022804Y-102853804D01*
X153019788Y-102851808D01*
X152966427Y-102803448D01*
X152931340Y-102740352D01*
X152911922Y-102657387D01*
X152909316Y-102634078D01*
X152904701Y-102524055D01*
X152910233Y-102472748D01*
X153049514Y-102472748D01*
X153051324Y-102504753D01*
X153061222Y-102514093D01*
X153085898Y-102507105D01*
X153124795Y-102490587D01*
X153168275Y-102469881D01*
X153169356Y-102469333D01*
X153206209Y-102449949D01*
X153221000Y-102437013D01*
X153217353Y-102423451D01*
X153201995Y-102405632D01*
X153162923Y-102379845D01*
X153120846Y-102377950D01*
X153083103Y-102396717D01*
X153057034Y-102432915D01*
X153049514Y-102472748D01*
X152910233Y-102472748D01*
X152914194Y-102436027D01*
X152938550Y-102366212D01*
X152972456Y-102317302D01*
X153033653Y-102267878D01*
X153101063Y-102243359D01*
X153169880Y-102241797D01*
X153235303Y-102261239D01*
G36*
X152108115Y-102251962D02*
X152176145Y-102287733D01*
X152226351Y-102345301D01*
X152244185Y-102382312D01*
X152258063Y-102437882D01*
X152265167Y-102508096D01*
X152265840Y-102584727D01*
X152260427Y-102659552D01*
X152249270Y-102724342D01*
X152232714Y-102770873D01*
X152227626Y-102778887D01*
X152167355Y-102838707D01*
X152095769Y-102874535D01*
X152018092Y-102885020D01*
X151939548Y-102868810D01*
X151917689Y-102859092D01*
X151875122Y-102829143D01*
X151837763Y-102789433D01*
X151834232Y-102784397D01*
X151819881Y-102760124D01*
X151810394Y-102734178D01*
X151804790Y-102700022D01*
X151802086Y-102651119D01*
X151801299Y-102580935D01*
X151801286Y-102565200D01*
X151801322Y-102560192D01*
X151946429Y-102560192D01*
X151947273Y-102626430D01*
X151950596Y-102670386D01*
X151957583Y-102698779D01*
X151969416Y-102718325D01*
X151975457Y-102724857D01*
X152010186Y-102749680D01*
X152043903Y-102748548D01*
X152077995Y-102727016D01*
X152098329Y-102704029D01*
X152110371Y-102670478D01*
X152117134Y-102617569D01*
X152117598Y-102611399D01*
X152118752Y-102515513D01*
X152106688Y-102444299D01*
X152081570Y-102398194D01*
X152043560Y-102377635D01*
X152029992Y-102376514D01*
X151994364Y-102382152D01*
X151969994Y-102401686D01*
X151955093Y-102439042D01*
X151947875Y-102498150D01*
X151946429Y-102560192D01*
X151801322Y-102560192D01*
X151801826Y-102490413D01*
X151804096Y-102438159D01*
X151809068Y-102401949D01*
X151817713Y-102375299D01*
X151831005Y-102351722D01*
X151833943Y-102347338D01*
X151883313Y-102288249D01*
X151937109Y-102253947D01*
X152002602Y-102240331D01*
X152024842Y-102239665D01*
X152108115Y-102251962D01*
X152108115Y-102251962D01*
G37*
X152108115Y-102251962D02*
X152176145Y-102287733D01*
X152226351Y-102345301D01*
X152244185Y-102382312D01*
X152258063Y-102437882D01*
X152265167Y-102508096D01*
X152265840Y-102584727D01*
X152260427Y-102659552D01*
X152249270Y-102724342D01*
X152232714Y-102770873D01*
X152227626Y-102778887D01*
X152167355Y-102838707D01*
X152095769Y-102874535D01*
X152018092Y-102885020D01*
X151939548Y-102868810D01*
X151917689Y-102859092D01*
X151875122Y-102829143D01*
X151837763Y-102789433D01*
X151834232Y-102784397D01*
X151819881Y-102760124D01*
X151810394Y-102734178D01*
X151804790Y-102700022D01*
X151802086Y-102651119D01*
X151801299Y-102580935D01*
X151801286Y-102565200D01*
X151801322Y-102560192D01*
X151946429Y-102560192D01*
X151947273Y-102626430D01*
X151950596Y-102670386D01*
X151957583Y-102698779D01*
X151969416Y-102718325D01*
X151975457Y-102724857D01*
X152010186Y-102749680D01*
X152043903Y-102748548D01*
X152077995Y-102727016D01*
X152098329Y-102704029D01*
X152110371Y-102670478D01*
X152117134Y-102617569D01*
X152117598Y-102611399D01*
X152118752Y-102515513D01*
X152106688Y-102444299D01*
X152081570Y-102398194D01*
X152043560Y-102377635D01*
X152029992Y-102376514D01*
X151994364Y-102382152D01*
X151969994Y-102401686D01*
X151955093Y-102439042D01*
X151947875Y-102498150D01*
X151946429Y-102560192D01*
X151801322Y-102560192D01*
X151801826Y-102490413D01*
X151804096Y-102438159D01*
X151809068Y-102401949D01*
X151817713Y-102375299D01*
X151831005Y-102351722D01*
X151833943Y-102347338D01*
X151883313Y-102288249D01*
X151937109Y-102253947D01*
X152002602Y-102240331D01*
X152024842Y-102239665D01*
X152108115Y-102251962D01*
G36*
X153783093Y-102257780D02*
X153829672Y-102284723D01*
X153862057Y-102311466D01*
X153885742Y-102339484D01*
X153902059Y-102373748D01*
X153912339Y-102419227D01*
X153917914Y-102480892D01*
X153920116Y-102563711D01*
X153920371Y-102623246D01*
X153920371Y-102842391D01*
X153858686Y-102870044D01*
X153797000Y-102897697D01*
X153789743Y-102657670D01*
X153786744Y-102568028D01*
X153783598Y-102502962D01*
X153779701Y-102458026D01*
X153774447Y-102428770D01*
X153767231Y-102410748D01*
X153757450Y-102399511D01*
X153754312Y-102397079D01*
X153706761Y-102378083D01*
X153658697Y-102385600D01*
X153630086Y-102405543D01*
X153618447Y-102419675D01*
X153610391Y-102438220D01*
X153605271Y-102466334D01*
X153602441Y-102509173D01*
X153601256Y-102571895D01*
X153601057Y-102637261D01*
X153601018Y-102719268D01*
X153599614Y-102777316D01*
X153594914Y-102816465D01*
X153584987Y-102841780D01*
X153567903Y-102858323D01*
X153541732Y-102871156D01*
X153506775Y-102884491D01*
X153468596Y-102899007D01*
X153473141Y-102641389D01*
X153474971Y-102548519D01*
X153477112Y-102479889D01*
X153480181Y-102430711D01*
X153484794Y-102396198D01*
X153491568Y-102371562D01*
X153501119Y-102352016D01*
X153512634Y-102334770D01*
X153568190Y-102279680D01*
X153635980Y-102247822D01*
X153709713Y-102240191D01*
X153783093Y-102257780D01*
X153783093Y-102257780D01*
G37*
X153783093Y-102257780D02*
X153829672Y-102284723D01*
X153862057Y-102311466D01*
X153885742Y-102339484D01*
X153902059Y-102373748D01*
X153912339Y-102419227D01*
X153917914Y-102480892D01*
X153920116Y-102563711D01*
X153920371Y-102623246D01*
X153920371Y-102842391D01*
X153858686Y-102870044D01*
X153797000Y-102897697D01*
X153789743Y-102657670D01*
X153786744Y-102568028D01*
X153783598Y-102502962D01*
X153779701Y-102458026D01*
X153774447Y-102428770D01*
X153767231Y-102410748D01*
X153757450Y-102399511D01*
X153754312Y-102397079D01*
X153706761Y-102378083D01*
X153658697Y-102385600D01*
X153630086Y-102405543D01*
X153618447Y-102419675D01*
X153610391Y-102438220D01*
X153605271Y-102466334D01*
X153602441Y-102509173D01*
X153601256Y-102571895D01*
X153601057Y-102637261D01*
X153601018Y-102719268D01*
X153599614Y-102777316D01*
X153594914Y-102816465D01*
X153584987Y-102841780D01*
X153567903Y-102858323D01*
X153541732Y-102871156D01*
X153506775Y-102884491D01*
X153468596Y-102899007D01*
X153473141Y-102641389D01*
X153474971Y-102548519D01*
X153477112Y-102479889D01*
X153480181Y-102430711D01*
X153484794Y-102396198D01*
X153491568Y-102371562D01*
X153501119Y-102352016D01*
X153512634Y-102334770D01*
X153568190Y-102279680D01*
X153635980Y-102247822D01*
X153709713Y-102240191D01*
X153783093Y-102257780D01*
G36*
X152666744Y-102249918D02*
X152722201Y-102277568D01*
X152771148Y-102328480D01*
X152784629Y-102347338D01*
X152799314Y-102372015D01*
X152808842Y-102398816D01*
X152814293Y-102434587D01*
X152816747Y-102486169D01*
X152817286Y-102554267D01*
X152814852Y-102647588D01*
X152806394Y-102717657D01*
X152790174Y-102769931D01*
X152764454Y-102809869D01*
X152727497Y-102842929D01*
X152724782Y-102844886D01*
X152688360Y-102864908D01*
X152644502Y-102874815D01*
X152588724Y-102877257D01*
X152498048Y-102877257D01*
X152498010Y-102965283D01*
X152497166Y-103014308D01*
X152492024Y-103043065D01*
X152478587Y-103060311D01*
X152452858Y-103074808D01*
X152446679Y-103077769D01*
X152417764Y-103091648D01*
X152395376Y-103100414D01*
X152378729Y-103101171D01*
X152367036Y-103091023D01*
X152359510Y-103067073D01*
X152355366Y-103026426D01*
X152353815Y-102966186D01*
X152354071Y-102883455D01*
X152355349Y-102775339D01*
X152355748Y-102743000D01*
X152357185Y-102631524D01*
X152358472Y-102558603D01*
X152497971Y-102558603D01*
X152498755Y-102620499D01*
X152502240Y-102660997D01*
X152510124Y-102687708D01*
X152524105Y-102708244D01*
X152533597Y-102718260D01*
X152572404Y-102747567D01*
X152606763Y-102749952D01*
X152642216Y-102725750D01*
X152643114Y-102724857D01*
X152657539Y-102706153D01*
X152666313Y-102680732D01*
X152670739Y-102641584D01*
X152672118Y-102581697D01*
X152672143Y-102568430D01*
X152668812Y-102485901D01*
X152657969Y-102428691D01*
X152638340Y-102393766D01*
X152608650Y-102378094D01*
X152591491Y-102376514D01*
X152550766Y-102383926D01*
X152522832Y-102408330D01*
X152506017Y-102452980D01*
X152498650Y-102521130D01*
X152497971Y-102558603D01*
X152358472Y-102558603D01*
X152358708Y-102545245D01*
X152360677Y-102480333D01*
X152363450Y-102432958D01*
X152367388Y-102399290D01*
X152372849Y-102375498D01*
X152380192Y-102357753D01*
X152389777Y-102342224D01*
X152393887Y-102336381D01*
X152448405Y-102281185D01*
X152517336Y-102249890D01*
X152597072Y-102241165D01*
X152666744Y-102249918D01*
X152666744Y-102249918D01*
G37*
X152666744Y-102249918D02*
X152722201Y-102277568D01*
X152771148Y-102328480D01*
X152784629Y-102347338D01*
X152799314Y-102372015D01*
X152808842Y-102398816D01*
X152814293Y-102434587D01*
X152816747Y-102486169D01*
X152817286Y-102554267D01*
X152814852Y-102647588D01*
X152806394Y-102717657D01*
X152790174Y-102769931D01*
X152764454Y-102809869D01*
X152727497Y-102842929D01*
X152724782Y-102844886D01*
X152688360Y-102864908D01*
X152644502Y-102874815D01*
X152588724Y-102877257D01*
X152498048Y-102877257D01*
X152498010Y-102965283D01*
X152497166Y-103014308D01*
X152492024Y-103043065D01*
X152478587Y-103060311D01*
X152452858Y-103074808D01*
X152446679Y-103077769D01*
X152417764Y-103091648D01*
X152395376Y-103100414D01*
X152378729Y-103101171D01*
X152367036Y-103091023D01*
X152359510Y-103067073D01*
X152355366Y-103026426D01*
X152353815Y-102966186D01*
X152354071Y-102883455D01*
X152355349Y-102775339D01*
X152355748Y-102743000D01*
X152357185Y-102631524D01*
X152358472Y-102558603D01*
X152497971Y-102558603D01*
X152498755Y-102620499D01*
X152502240Y-102660997D01*
X152510124Y-102687708D01*
X152524105Y-102708244D01*
X152533597Y-102718260D01*
X152572404Y-102747567D01*
X152606763Y-102749952D01*
X152642216Y-102725750D01*
X152643114Y-102724857D01*
X152657539Y-102706153D01*
X152666313Y-102680732D01*
X152670739Y-102641584D01*
X152672118Y-102581697D01*
X152672143Y-102568430D01*
X152668812Y-102485901D01*
X152657969Y-102428691D01*
X152638340Y-102393766D01*
X152608650Y-102378094D01*
X152591491Y-102376514D01*
X152550766Y-102383926D01*
X152522832Y-102408330D01*
X152506017Y-102452980D01*
X152498650Y-102521130D01*
X152497971Y-102558603D01*
X152358472Y-102558603D01*
X152358708Y-102545245D01*
X152360677Y-102480333D01*
X152363450Y-102432958D01*
X152367388Y-102399290D01*
X152372849Y-102375498D01*
X152380192Y-102357753D01*
X152389777Y-102342224D01*
X152393887Y-102336381D01*
X152448405Y-102281185D01*
X152517336Y-102249890D01*
X152597072Y-102241165D01*
X152666744Y-102249918D01*
G04 #@! TO.C,LOGO2*
G36*
X141193024Y-94486303D02*
X141325369Y-94547704D01*
X141462751Y-94626519D01*
X141583585Y-94712577D01*
X141596849Y-94723678D01*
X141763613Y-94909860D01*
X141905998Y-95150672D01*
X142009528Y-95416661D01*
X142058462Y-95663052D01*
X142065825Y-95833319D01*
X142050830Y-95922412D01*
X142015207Y-95930321D01*
X141960683Y-95857040D01*
X141888990Y-95702561D01*
X141873500Y-95663853D01*
X141664564Y-95231929D01*
X141402179Y-94865336D01*
X141227942Y-94684797D01*
X141122817Y-94581477D01*
X141051817Y-94500537D01*
X141028856Y-94458009D01*
X141029787Y-94456435D01*
X141087302Y-94452489D01*
X141193024Y-94486303D01*
X141193024Y-94486303D01*
G37*
X141193024Y-94486303D02*
X141325369Y-94547704D01*
X141462751Y-94626519D01*
X141583585Y-94712577D01*
X141596849Y-94723678D01*
X141763613Y-94909860D01*
X141905998Y-95150672D01*
X142009528Y-95416661D01*
X142058462Y-95663052D01*
X142065825Y-95833319D01*
X142050830Y-95922412D01*
X142015207Y-95930321D01*
X141960683Y-95857040D01*
X141888990Y-95702561D01*
X141873500Y-95663853D01*
X141664564Y-95231929D01*
X141402179Y-94865336D01*
X141227942Y-94684797D01*
X141122817Y-94581477D01*
X141051817Y-94500537D01*
X141028856Y-94458009D01*
X141029787Y-94456435D01*
X141087302Y-94452489D01*
X141193024Y-94486303D01*
G36*
X148204851Y-94398912D02*
X148480507Y-94425804D01*
X148671644Y-94463166D01*
X149037408Y-94591936D01*
X149341620Y-94762145D01*
X149579864Y-94969322D01*
X149747722Y-95208993D01*
X149840779Y-95476686D01*
X149859070Y-95665533D01*
X149849694Y-95838865D01*
X149811011Y-95974523D01*
X149729695Y-96103356D01*
X149613304Y-96234522D01*
X149474718Y-96357350D01*
X149316135Y-96449708D01*
X149123353Y-96515798D01*
X148882170Y-96559821D01*
X148578384Y-96585980D01*
X148399500Y-96593643D01*
X148104781Y-96599364D01*
X147858167Y-96593454D01*
X147623606Y-96573575D01*
X147365047Y-96537388D01*
X147256500Y-96519467D01*
X146979256Y-96478979D01*
X146663520Y-96443162D01*
X146353692Y-96416609D01*
X146155833Y-96405677D01*
X145903910Y-96398887D01*
X145704775Y-96401664D01*
X145526832Y-96416694D01*
X145338482Y-96446660D01*
X145108127Y-96494248D01*
X145104696Y-96494999D01*
X144885814Y-96542861D01*
X144736400Y-96574930D01*
X144643199Y-96593445D01*
X144592958Y-96600645D01*
X144572420Y-96598770D01*
X144568331Y-96590059D01*
X144568333Y-96585620D01*
X144606066Y-96565913D01*
X144708781Y-96526375D01*
X144860751Y-96472760D01*
X145044583Y-96411364D01*
X145325706Y-96329287D01*
X145598754Y-96271883D01*
X145879645Y-96238402D01*
X146184294Y-96228097D01*
X146528616Y-96240220D01*
X146928529Y-96274023D01*
X147235333Y-96308408D01*
X147748756Y-96359592D01*
X148188970Y-96379959D01*
X148561893Y-96368817D01*
X148873441Y-96325476D01*
X149129532Y-96249245D01*
X149336082Y-96139433D01*
X149445962Y-96050305D01*
X149543630Y-95947209D01*
X149591035Y-95857148D01*
X149605496Y-95742148D01*
X149606000Y-95699368D01*
X149567341Y-95446501D01*
X149456119Y-95223959D01*
X149279465Y-95033485D01*
X149044513Y-94876818D01*
X148758394Y-94755700D01*
X148428239Y-94671871D01*
X148061182Y-94627073D01*
X147664354Y-94623046D01*
X147244887Y-94661531D01*
X146809913Y-94744269D01*
X146366564Y-94873001D01*
X146306487Y-94893988D01*
X145895518Y-95068900D01*
X145488335Y-95294774D01*
X145105095Y-95557766D01*
X144765960Y-95844034D01*
X144491087Y-96139734D01*
X144489635Y-96141557D01*
X144388608Y-96262435D01*
X144332766Y-96316675D01*
X144321170Y-96308641D01*
X144352884Y-96242694D01*
X144426968Y-96123198D01*
X144524297Y-95980301D01*
X144833513Y-95610069D01*
X145211986Y-95276032D01*
X145649869Y-94984207D01*
X146137314Y-94740607D01*
X146664472Y-94551249D01*
X147007209Y-94463665D01*
X147269708Y-94421644D01*
X147573869Y-94396840D01*
X147894110Y-94389260D01*
X148204851Y-94398912D01*
X148204851Y-94398912D01*
G37*
X148204851Y-94398912D02*
X148480507Y-94425804D01*
X148671644Y-94463166D01*
X149037408Y-94591936D01*
X149341620Y-94762145D01*
X149579864Y-94969322D01*
X149747722Y-95208993D01*
X149840779Y-95476686D01*
X149859070Y-95665533D01*
X149849694Y-95838865D01*
X149811011Y-95974523D01*
X149729695Y-96103356D01*
X149613304Y-96234522D01*
X149474718Y-96357350D01*
X149316135Y-96449708D01*
X149123353Y-96515798D01*
X148882170Y-96559821D01*
X148578384Y-96585980D01*
X148399500Y-96593643D01*
X148104781Y-96599364D01*
X147858167Y-96593454D01*
X147623606Y-96573575D01*
X147365047Y-96537388D01*
X147256500Y-96519467D01*
X146979256Y-96478979D01*
X146663520Y-96443162D01*
X146353692Y-96416609D01*
X146155833Y-96405677D01*
X145903910Y-96398887D01*
X145704775Y-96401664D01*
X145526832Y-96416694D01*
X145338482Y-96446660D01*
X145108127Y-96494248D01*
X145104696Y-96494999D01*
X144885814Y-96542861D01*
X144736400Y-96574930D01*
X144643199Y-96593445D01*
X144592958Y-96600645D01*
X144572420Y-96598770D01*
X144568331Y-96590059D01*
X144568333Y-96585620D01*
X144606066Y-96565913D01*
X144708781Y-96526375D01*
X144860751Y-96472760D01*
X145044583Y-96411364D01*
X145325706Y-96329287D01*
X145598754Y-96271883D01*
X145879645Y-96238402D01*
X146184294Y-96228097D01*
X146528616Y-96240220D01*
X146928529Y-96274023D01*
X147235333Y-96308408D01*
X147748756Y-96359592D01*
X148188970Y-96379959D01*
X148561893Y-96368817D01*
X148873441Y-96325476D01*
X149129532Y-96249245D01*
X149336082Y-96139433D01*
X149445962Y-96050305D01*
X149543630Y-95947209D01*
X149591035Y-95857148D01*
X149605496Y-95742148D01*
X149606000Y-95699368D01*
X149567341Y-95446501D01*
X149456119Y-95223959D01*
X149279465Y-95033485D01*
X149044513Y-94876818D01*
X148758394Y-94755700D01*
X148428239Y-94671871D01*
X148061182Y-94627073D01*
X147664354Y-94623046D01*
X147244887Y-94661531D01*
X146809913Y-94744269D01*
X146366564Y-94873001D01*
X146306487Y-94893988D01*
X145895518Y-95068900D01*
X145488335Y-95294774D01*
X145105095Y-95557766D01*
X144765960Y-95844034D01*
X144491087Y-96139734D01*
X144489635Y-96141557D01*
X144388608Y-96262435D01*
X144332766Y-96316675D01*
X144321170Y-96308641D01*
X144352884Y-96242694D01*
X144426968Y-96123198D01*
X144524297Y-95980301D01*
X144833513Y-95610069D01*
X145211986Y-95276032D01*
X145649869Y-94984207D01*
X146137314Y-94740607D01*
X146664472Y-94551249D01*
X147007209Y-94463665D01*
X147269708Y-94421644D01*
X147573869Y-94396840D01*
X147894110Y-94389260D01*
X148204851Y-94398912D01*
G36*
X140896605Y-95185104D02*
X141043921Y-95230616D01*
X141075833Y-95244137D01*
X141220937Y-95334176D01*
X141390647Y-95476126D01*
X141565200Y-95649792D01*
X141724831Y-95834976D01*
X141849776Y-96011483D01*
X141881784Y-96067720D01*
X141997277Y-96288308D01*
X142254660Y-96160737D01*
X142387041Y-96099368D01*
X142500841Y-96061479D01*
X142624704Y-96041543D01*
X142787274Y-96034036D01*
X142915771Y-96033198D01*
X143237037Y-96052696D01*
X143498642Y-96114707D01*
X143717005Y-96224589D01*
X143863029Y-96342353D01*
X144012975Y-96529673D01*
X144103087Y-96739746D01*
X144130148Y-96954122D01*
X144090944Y-97154348D01*
X144025135Y-97272552D01*
X143988870Y-97316035D01*
X143967774Y-97318337D01*
X143957749Y-97267093D01*
X143954695Y-97149939D01*
X143954500Y-97059520D01*
X143936875Y-96823317D01*
X143876689Y-96646839D01*
X143762977Y-96511260D01*
X143584775Y-96397752D01*
X143562621Y-96386712D01*
X143335246Y-96310099D01*
X143065069Y-96272032D01*
X142785540Y-96274253D01*
X142530107Y-96318507D01*
X142490099Y-96330796D01*
X142296710Y-96423883D01*
X142114831Y-96561879D01*
X141966705Y-96723928D01*
X141874575Y-96889174D01*
X141866162Y-96915794D01*
X141841778Y-97142455D01*
X141895988Y-97347990D01*
X142024454Y-97528333D01*
X142222840Y-97679416D01*
X142486809Y-97797171D01*
X142812024Y-97877532D01*
X142906988Y-97891920D01*
X143082783Y-97919293D01*
X143185281Y-97944245D01*
X143209685Y-97965474D01*
X143199621Y-97971503D01*
X143107156Y-97988348D01*
X142957602Y-97996512D01*
X142778034Y-97996497D01*
X142595530Y-97988806D01*
X142437167Y-97973940D01*
X142340106Y-97955563D01*
X142143573Y-97869543D01*
X141949287Y-97735751D01*
X141786628Y-97577247D01*
X141702663Y-97455258D01*
X141620381Y-97211585D01*
X141614972Y-96957682D01*
X141683691Y-96712126D01*
X141823796Y-96493492D01*
X141848707Y-96466344D01*
X141960923Y-96349189D01*
X141687711Y-96071762D01*
X141415877Y-95808156D01*
X141186311Y-95614966D01*
X140994766Y-95491861D01*
X140836998Y-95438513D01*
X140708761Y-95454591D01*
X140605810Y-95539765D01*
X140523898Y-95693705D01*
X140458782Y-95916082D01*
X140446064Y-95975256D01*
X140391784Y-96241360D01*
X140342225Y-96099196D01*
X140300344Y-95889912D01*
X140311885Y-95680520D01*
X140369475Y-95487268D01*
X140465740Y-95326400D01*
X140593306Y-95214165D01*
X140744798Y-95166808D01*
X140765660Y-95166263D01*
X140896605Y-95185104D01*
X140896605Y-95185104D01*
G37*
X140896605Y-95185104D02*
X141043921Y-95230616D01*
X141075833Y-95244137D01*
X141220937Y-95334176D01*
X141390647Y-95476126D01*
X141565200Y-95649792D01*
X141724831Y-95834976D01*
X141849776Y-96011483D01*
X141881784Y-96067720D01*
X141997277Y-96288308D01*
X142254660Y-96160737D01*
X142387041Y-96099368D01*
X142500841Y-96061479D01*
X142624704Y-96041543D01*
X142787274Y-96034036D01*
X142915771Y-96033198D01*
X143237037Y-96052696D01*
X143498642Y-96114707D01*
X143717005Y-96224589D01*
X143863029Y-96342353D01*
X144012975Y-96529673D01*
X144103087Y-96739746D01*
X144130148Y-96954122D01*
X144090944Y-97154348D01*
X144025135Y-97272552D01*
X143988870Y-97316035D01*
X143967774Y-97318337D01*
X143957749Y-97267093D01*
X143954695Y-97149939D01*
X143954500Y-97059520D01*
X143936875Y-96823317D01*
X143876689Y-96646839D01*
X143762977Y-96511260D01*
X143584775Y-96397752D01*
X143562621Y-96386712D01*
X143335246Y-96310099D01*
X143065069Y-96272032D01*
X142785540Y-96274253D01*
X142530107Y-96318507D01*
X142490099Y-96330796D01*
X142296710Y-96423883D01*
X142114831Y-96561879D01*
X141966705Y-96723928D01*
X141874575Y-96889174D01*
X141866162Y-96915794D01*
X141841778Y-97142455D01*
X141895988Y-97347990D01*
X142024454Y-97528333D01*
X142222840Y-97679416D01*
X142486809Y-97797171D01*
X142812024Y-97877532D01*
X142906988Y-97891920D01*
X143082783Y-97919293D01*
X143185281Y-97944245D01*
X143209685Y-97965474D01*
X143199621Y-97971503D01*
X143107156Y-97988348D01*
X142957602Y-97996512D01*
X142778034Y-97996497D01*
X142595530Y-97988806D01*
X142437167Y-97973940D01*
X142340106Y-97955563D01*
X142143573Y-97869543D01*
X141949287Y-97735751D01*
X141786628Y-97577247D01*
X141702663Y-97455258D01*
X141620381Y-97211585D01*
X141614972Y-96957682D01*
X141683691Y-96712126D01*
X141823796Y-96493492D01*
X141848707Y-96466344D01*
X141960923Y-96349189D01*
X141687711Y-96071762D01*
X141415877Y-95808156D01*
X141186311Y-95614966D01*
X140994766Y-95491861D01*
X140836998Y-95438513D01*
X140708761Y-95454591D01*
X140605810Y-95539765D01*
X140523898Y-95693705D01*
X140458782Y-95916082D01*
X140446064Y-95975256D01*
X140391784Y-96241360D01*
X140342225Y-96099196D01*
X140300344Y-95889912D01*
X140311885Y-95680520D01*
X140369475Y-95487268D01*
X140465740Y-95326400D01*
X140593306Y-95214165D01*
X140744798Y-95166808D01*
X140765660Y-95166263D01*
X140896605Y-95185104D01*
G36*
X150114000Y-99462167D02*
X150092833Y-99483333D01*
X150071667Y-99462167D01*
X150092833Y-99441000D01*
X150114000Y-99462167D01*
X150114000Y-99462167D01*
G37*
X150114000Y-99462167D02*
X150092833Y-99483333D01*
X150071667Y-99462167D01*
X150092833Y-99441000D01*
X150114000Y-99462167D01*
G36*
X146049710Y-96771438D02*
X146496854Y-96824761D01*
X146940037Y-96920037D01*
X147396876Y-97057144D01*
X147797918Y-97213494D01*
X148172492Y-97402737D01*
X148512456Y-97617745D01*
X148809668Y-97851392D01*
X149055986Y-98096550D01*
X149243268Y-98346093D01*
X149363371Y-98592893D01*
X149407791Y-98817346D01*
X149414556Y-98905671D01*
X149436222Y-98971387D01*
X149487076Y-99031615D01*
X149581407Y-99103475D01*
X149727002Y-99199865D01*
X149863947Y-99291863D01*
X149966195Y-99366298D01*
X150018681Y-99411924D01*
X150022036Y-99420074D01*
X149976514Y-99416469D01*
X149870684Y-99391691D01*
X149724781Y-99350663D01*
X149676751Y-99336085D01*
X149348693Y-99234868D01*
X149167795Y-99415766D01*
X148922094Y-99608442D01*
X148606812Y-99769034D01*
X148232084Y-99893991D01*
X147808045Y-99979759D01*
X147452852Y-100016956D01*
X147234034Y-100036131D01*
X147089472Y-100061125D01*
X147008838Y-100093998D01*
X146993081Y-100108642D01*
X146949050Y-100151984D01*
X146922830Y-100124659D01*
X146916280Y-100108383D01*
X146872401Y-100068965D01*
X146767970Y-100039303D01*
X146591624Y-100016338D01*
X146565865Y-100013956D01*
X146396184Y-99997066D01*
X146249952Y-99979510D01*
X146155864Y-99964776D01*
X146149241Y-99963316D01*
X146069696Y-99968819D01*
X146027502Y-100037861D01*
X145997021Y-100133898D01*
X145941104Y-100027177D01*
X145886458Y-99959747D01*
X145790508Y-99905161D01*
X145633650Y-99852915D01*
X145597177Y-99842879D01*
X145406746Y-99779667D01*
X147023667Y-99779667D01*
X147288250Y-99779110D01*
X147455278Y-99769645D01*
X147666311Y-99744965D01*
X147883076Y-99709814D01*
X147943623Y-99697910D01*
X148328895Y-99597312D01*
X148646686Y-99469483D01*
X148893003Y-99316795D01*
X149063850Y-99141619D01*
X149143963Y-98985501D01*
X149168151Y-98875280D01*
X149156594Y-98766019D01*
X149116218Y-98643783D01*
X149016918Y-98461785D01*
X148855920Y-98258049D01*
X148648281Y-98046571D01*
X148409058Y-97841351D01*
X148153308Y-97656386D01*
X147896088Y-97505672D01*
X147887031Y-97501082D01*
X147713229Y-97413518D01*
X147586832Y-97548842D01*
X147397344Y-97779675D01*
X147262368Y-98017048D01*
X147191599Y-98196237D01*
X147148546Y-98360143D01*
X147107687Y-98585107D01*
X147071936Y-98847526D01*
X147044204Y-99123796D01*
X147027401Y-99390311D01*
X147023702Y-99557417D01*
X147023667Y-99779667D01*
X145406746Y-99779667D01*
X145102554Y-99678693D01*
X144660929Y-99468642D01*
X144278702Y-99217102D01*
X143962269Y-98928453D01*
X143718027Y-98607072D01*
X143670143Y-98524236D01*
X143583023Y-98334434D01*
X143506908Y-98115409D01*
X143451365Y-97899616D01*
X143425966Y-97719512D01*
X143425333Y-97693941D01*
X143435476Y-97609664D01*
X143459998Y-97598051D01*
X143490041Y-97650350D01*
X143516746Y-97757810D01*
X143521410Y-97788854D01*
X143577816Y-98006887D01*
X143685116Y-98252003D01*
X143829092Y-98497166D01*
X143995527Y-98715338D01*
X144026528Y-98749395D01*
X144139854Y-98859250D01*
X144280725Y-98980310D01*
X144431642Y-99099409D01*
X144575106Y-99203378D01*
X144693617Y-99279049D01*
X144769676Y-99313254D01*
X144776857Y-99314000D01*
X144786762Y-99274206D01*
X144793550Y-99193918D01*
X145077429Y-99193918D01*
X145084786Y-99343946D01*
X145099983Y-99437226D01*
X145112022Y-99458060D01*
X145166536Y-99479359D01*
X145281451Y-99517296D01*
X145435812Y-99565061D01*
X145503606Y-99585305D01*
X145662249Y-99632434D01*
X145784475Y-99669199D01*
X145851915Y-99690057D01*
X145859500Y-99692765D01*
X145858717Y-99653480D01*
X145856871Y-99559548D01*
X146055545Y-99559548D01*
X146060998Y-99656992D01*
X146064776Y-99672445D01*
X146105470Y-99710765D01*
X146200210Y-99738844D01*
X146358647Y-99758376D01*
X146590429Y-99771056D01*
X146634582Y-99772550D01*
X146768980Y-99769890D01*
X146831642Y-99752221D01*
X146832961Y-99737000D01*
X146817345Y-99667164D01*
X146807919Y-99530305D01*
X146804210Y-99343803D01*
X146805744Y-99125039D01*
X146812047Y-98891394D01*
X146822644Y-98660248D01*
X146837063Y-98448982D01*
X146854829Y-98274976D01*
X146875469Y-98155612D01*
X146876142Y-98153002D01*
X146959336Y-97903876D01*
X147069330Y-97673097D01*
X147193206Y-97484848D01*
X147284387Y-97388675D01*
X147400839Y-97290686D01*
X147286336Y-97244248D01*
X147174946Y-97203623D01*
X147029508Y-97156090D01*
X146971680Y-97138494D01*
X146771527Y-97079179D01*
X146627306Y-97238814D01*
X146391746Y-97561027D01*
X146224848Y-97924799D01*
X146200461Y-98001667D01*
X146176961Y-98112670D01*
X146152226Y-98281755D01*
X146127643Y-98491842D01*
X146104598Y-98725852D01*
X146084479Y-98966707D01*
X146068672Y-99197327D01*
X146058565Y-99400634D01*
X146055545Y-99559548D01*
X145856871Y-99559548D01*
X145856548Y-99543130D01*
X145853257Y-99375300D01*
X145849112Y-99163577D01*
X145845223Y-98964768D01*
X145841602Y-98650817D01*
X145845121Y-98404836D01*
X145856628Y-98210362D01*
X145876972Y-98050931D01*
X145897531Y-97948749D01*
X145960719Y-97732943D01*
X146047196Y-97511714D01*
X146145712Y-97309022D01*
X146245015Y-97148825D01*
X146307117Y-97076515D01*
X146395742Y-96993948D01*
X146275788Y-96971494D01*
X146086961Y-96936605D01*
X145959693Y-96920248D01*
X145871961Y-96927442D01*
X145801741Y-96963208D01*
X145727012Y-97032563D01*
X145650731Y-97113948D01*
X145431033Y-97409191D01*
X145262451Y-97769059D01*
X145147000Y-98189204D01*
X145142941Y-98210227D01*
X145117656Y-98379277D01*
X145098026Y-98579820D01*
X145084486Y-98794206D01*
X145077475Y-99004788D01*
X145077429Y-99193918D01*
X144793550Y-99193918D01*
X144795997Y-99164985D01*
X144803699Y-99001576D01*
X144809003Y-98799216D01*
X144810056Y-98728431D01*
X144819253Y-98435514D01*
X144838293Y-98168604D01*
X144865253Y-97950730D01*
X144882457Y-97861445D01*
X144937728Y-97663636D01*
X145010779Y-97457927D01*
X145092432Y-97265496D01*
X145173506Y-97107522D01*
X145244823Y-97005181D01*
X145259692Y-96991066D01*
X145323739Y-96924842D01*
X145319639Y-96883861D01*
X145243086Y-96866099D01*
X145089771Y-96869532D01*
X145014067Y-96875648D01*
X144825707Y-96898396D01*
X144641127Y-96929977D01*
X144506143Y-96961987D01*
X144385749Y-96993463D01*
X144336395Y-96996251D01*
X144351564Y-96975623D01*
X144424739Y-96936851D01*
X144549402Y-96885206D01*
X144642876Y-96851382D01*
X144766879Y-96811916D01*
X144884447Y-96784566D01*
X145015327Y-96767247D01*
X145179263Y-96757876D01*
X145396000Y-96754366D01*
X145563167Y-96754214D01*
X146049710Y-96771438D01*
X146049710Y-96771438D01*
G37*
X146049710Y-96771438D02*
X146496854Y-96824761D01*
X146940037Y-96920037D01*
X147396876Y-97057144D01*
X147797918Y-97213494D01*
X148172492Y-97402737D01*
X148512456Y-97617745D01*
X148809668Y-97851392D01*
X149055986Y-98096550D01*
X149243268Y-98346093D01*
X149363371Y-98592893D01*
X149407791Y-98817346D01*
X149414556Y-98905671D01*
X149436222Y-98971387D01*
X149487076Y-99031615D01*
X149581407Y-99103475D01*
X149727002Y-99199865D01*
X149863947Y-99291863D01*
X149966195Y-99366298D01*
X150018681Y-99411924D01*
X150022036Y-99420074D01*
X149976514Y-99416469D01*
X149870684Y-99391691D01*
X149724781Y-99350663D01*
X149676751Y-99336085D01*
X149348693Y-99234868D01*
X149167795Y-99415766D01*
X148922094Y-99608442D01*
X148606812Y-99769034D01*
X148232084Y-99893991D01*
X147808045Y-99979759D01*
X147452852Y-100016956D01*
X147234034Y-100036131D01*
X147089472Y-100061125D01*
X147008838Y-100093998D01*
X146993081Y-100108642D01*
X146949050Y-100151984D01*
X146922830Y-100124659D01*
X146916280Y-100108383D01*
X146872401Y-100068965D01*
X146767970Y-100039303D01*
X146591624Y-100016338D01*
X146565865Y-100013956D01*
X146396184Y-99997066D01*
X146249952Y-99979510D01*
X146155864Y-99964776D01*
X146149241Y-99963316D01*
X146069696Y-99968819D01*
X146027502Y-100037861D01*
X145997021Y-100133898D01*
X145941104Y-100027177D01*
X145886458Y-99959747D01*
X145790508Y-99905161D01*
X145633650Y-99852915D01*
X145597177Y-99842879D01*
X145406746Y-99779667D01*
X147023667Y-99779667D01*
X147288250Y-99779110D01*
X147455278Y-99769645D01*
X147666311Y-99744965D01*
X147883076Y-99709814D01*
X147943623Y-99697910D01*
X148328895Y-99597312D01*
X148646686Y-99469483D01*
X148893003Y-99316795D01*
X149063850Y-99141619D01*
X149143963Y-98985501D01*
X149168151Y-98875280D01*
X149156594Y-98766019D01*
X149116218Y-98643783D01*
X149016918Y-98461785D01*
X148855920Y-98258049D01*
X148648281Y-98046571D01*
X148409058Y-97841351D01*
X148153308Y-97656386D01*
X147896088Y-97505672D01*
X147887031Y-97501082D01*
X147713229Y-97413518D01*
X147586832Y-97548842D01*
X147397344Y-97779675D01*
X147262368Y-98017048D01*
X147191599Y-98196237D01*
X147148546Y-98360143D01*
X147107687Y-98585107D01*
X147071936Y-98847526D01*
X147044204Y-99123796D01*
X147027401Y-99390311D01*
X147023702Y-99557417D01*
X147023667Y-99779667D01*
X145406746Y-99779667D01*
X145102554Y-99678693D01*
X144660929Y-99468642D01*
X144278702Y-99217102D01*
X143962269Y-98928453D01*
X143718027Y-98607072D01*
X143670143Y-98524236D01*
X143583023Y-98334434D01*
X143506908Y-98115409D01*
X143451365Y-97899616D01*
X143425966Y-97719512D01*
X143425333Y-97693941D01*
X143435476Y-97609664D01*
X143459998Y-97598051D01*
X143490041Y-97650350D01*
X143516746Y-97757810D01*
X143521410Y-97788854D01*
X143577816Y-98006887D01*
X143685116Y-98252003D01*
X143829092Y-98497166D01*
X143995527Y-98715338D01*
X144026528Y-98749395D01*
X144139854Y-98859250D01*
X144280725Y-98980310D01*
X144431642Y-99099409D01*
X144575106Y-99203378D01*
X144693617Y-99279049D01*
X144769676Y-99313254D01*
X144776857Y-99314000D01*
X144786762Y-99274206D01*
X144793550Y-99193918D01*
X145077429Y-99193918D01*
X145084786Y-99343946D01*
X145099983Y-99437226D01*
X145112022Y-99458060D01*
X145166536Y-99479359D01*
X145281451Y-99517296D01*
X145435812Y-99565061D01*
X145503606Y-99585305D01*
X145662249Y-99632434D01*
X145784475Y-99669199D01*
X145851915Y-99690057D01*
X145859500Y-99692765D01*
X145858717Y-99653480D01*
X145856871Y-99559548D01*
X146055545Y-99559548D01*
X146060998Y-99656992D01*
X146064776Y-99672445D01*
X146105470Y-99710765D01*
X146200210Y-99738844D01*
X146358647Y-99758376D01*
X146590429Y-99771056D01*
X146634582Y-99772550D01*
X146768980Y-99769890D01*
X146831642Y-99752221D01*
X146832961Y-99737000D01*
X146817345Y-99667164D01*
X146807919Y-99530305D01*
X146804210Y-99343803D01*
X146805744Y-99125039D01*
X146812047Y-98891394D01*
X146822644Y-98660248D01*
X146837063Y-98448982D01*
X146854829Y-98274976D01*
X146875469Y-98155612D01*
X146876142Y-98153002D01*
X146959336Y-97903876D01*
X147069330Y-97673097D01*
X147193206Y-97484848D01*
X147284387Y-97388675D01*
X147400839Y-97290686D01*
X147286336Y-97244248D01*
X147174946Y-97203623D01*
X147029508Y-97156090D01*
X146971680Y-97138494D01*
X146771527Y-97079179D01*
X146627306Y-97238814D01*
X146391746Y-97561027D01*
X146224848Y-97924799D01*
X146200461Y-98001667D01*
X146176961Y-98112670D01*
X146152226Y-98281755D01*
X146127643Y-98491842D01*
X146104598Y-98725852D01*
X146084479Y-98966707D01*
X146068672Y-99197327D01*
X146058565Y-99400634D01*
X146055545Y-99559548D01*
X145856871Y-99559548D01*
X145856548Y-99543130D01*
X145853257Y-99375300D01*
X145849112Y-99163577D01*
X145845223Y-98964768D01*
X145841602Y-98650817D01*
X145845121Y-98404836D01*
X145856628Y-98210362D01*
X145876972Y-98050931D01*
X145897531Y-97948749D01*
X145960719Y-97732943D01*
X146047196Y-97511714D01*
X146145712Y-97309022D01*
X146245015Y-97148825D01*
X146307117Y-97076515D01*
X146395742Y-96993948D01*
X146275788Y-96971494D01*
X146086961Y-96936605D01*
X145959693Y-96920248D01*
X145871961Y-96927442D01*
X145801741Y-96963208D01*
X145727012Y-97032563D01*
X145650731Y-97113948D01*
X145431033Y-97409191D01*
X145262451Y-97769059D01*
X145147000Y-98189204D01*
X145142941Y-98210227D01*
X145117656Y-98379277D01*
X145098026Y-98579820D01*
X145084486Y-98794206D01*
X145077475Y-99004788D01*
X145077429Y-99193918D01*
X144793550Y-99193918D01*
X144795997Y-99164985D01*
X144803699Y-99001576D01*
X144809003Y-98799216D01*
X144810056Y-98728431D01*
X144819253Y-98435514D01*
X144838293Y-98168604D01*
X144865253Y-97950730D01*
X144882457Y-97861445D01*
X144937728Y-97663636D01*
X145010779Y-97457927D01*
X145092432Y-97265496D01*
X145173506Y-97107522D01*
X145244823Y-97005181D01*
X145259692Y-96991066D01*
X145323739Y-96924842D01*
X145319639Y-96883861D01*
X145243086Y-96866099D01*
X145089771Y-96869532D01*
X145014067Y-96875648D01*
X144825707Y-96898396D01*
X144641127Y-96929977D01*
X144506143Y-96961987D01*
X144385749Y-96993463D01*
X144336395Y-96996251D01*
X144351564Y-96975623D01*
X144424739Y-96936851D01*
X144549402Y-96885206D01*
X144642876Y-96851382D01*
X144766879Y-96811916D01*
X144884447Y-96784566D01*
X145015327Y-96767247D01*
X145179263Y-96757876D01*
X145396000Y-96754366D01*
X145563167Y-96754214D01*
X146049710Y-96771438D01*
G04 #@! TO.C,D2*
D11*
X124229904Y-110561380D02*
X124229904Y-109561380D01*
X124468000Y-109561380D01*
X124610857Y-109609000D01*
X124706095Y-109704238D01*
X124753714Y-109799476D01*
X124801333Y-109989952D01*
X124801333Y-110132809D01*
X124753714Y-110323285D01*
X124706095Y-110418523D01*
X124610857Y-110513761D01*
X124468000Y-110561380D01*
X124229904Y-110561380D01*
X125182285Y-109656619D02*
X125229904Y-109609000D01*
X125325142Y-109561380D01*
X125563238Y-109561380D01*
X125658476Y-109609000D01*
X125706095Y-109656619D01*
X125753714Y-109751857D01*
X125753714Y-109847095D01*
X125706095Y-109989952D01*
X125134666Y-110561380D01*
X125753714Y-110561380D01*
G04 #@! TO.C,BZ1*
X97925047Y-94924571D02*
X98067904Y-94972190D01*
X98115523Y-95019809D01*
X98163142Y-95115047D01*
X98163142Y-95257904D01*
X98115523Y-95353142D01*
X98067904Y-95400761D01*
X97972666Y-95448380D01*
X97591714Y-95448380D01*
X97591714Y-94448380D01*
X97925047Y-94448380D01*
X98020285Y-94496000D01*
X98067904Y-94543619D01*
X98115523Y-94638857D01*
X98115523Y-94734095D01*
X98067904Y-94829333D01*
X98020285Y-94876952D01*
X97925047Y-94924571D01*
X97591714Y-94924571D01*
X98496476Y-94448380D02*
X99163142Y-94448380D01*
X98496476Y-95448380D01*
X99163142Y-95448380D01*
X100067904Y-95448380D02*
X99496476Y-95448380D01*
X99782190Y-95448380D02*
X99782190Y-94448380D01*
X99686952Y-94591238D01*
X99591714Y-94686476D01*
X99496476Y-94734095D01*
G04 #@! TO.C,J5*
X168068666Y-85812380D02*
X168068666Y-86526666D01*
X168021047Y-86669523D01*
X167925809Y-86764761D01*
X167782952Y-86812380D01*
X167687714Y-86812380D01*
X169021047Y-85812380D02*
X168544857Y-85812380D01*
X168497238Y-86288571D01*
X168544857Y-86240952D01*
X168640095Y-86193333D01*
X168878190Y-86193333D01*
X168973428Y-86240952D01*
X169021047Y-86288571D01*
X169068666Y-86383809D01*
X169068666Y-86621904D01*
X169021047Y-86717142D01*
X168973428Y-86764761D01*
X168878190Y-86812380D01*
X168640095Y-86812380D01*
X168544857Y-86764761D01*
X168497238Y-86717142D01*
G04 #@! TO.C,J2*
X139366666Y-97242380D02*
X139366666Y-97956666D01*
X139319047Y-98099523D01*
X139223809Y-98194761D01*
X139080952Y-98242380D01*
X138985714Y-98242380D01*
X139795238Y-97337619D02*
X139842857Y-97290000D01*
X139938095Y-97242380D01*
X140176190Y-97242380D01*
X140271428Y-97290000D01*
X140319047Y-97337619D01*
X140366666Y-97432857D01*
X140366666Y-97528095D01*
X140319047Y-97670952D01*
X139747619Y-98242380D01*
X140366666Y-98242380D01*
G04 #@! TO.C,J1*
X155114666Y-81494380D02*
X155114666Y-82208666D01*
X155067047Y-82351523D01*
X154971809Y-82446761D01*
X154828952Y-82494380D01*
X154733714Y-82494380D01*
X156114666Y-82494380D02*
X155543238Y-82494380D01*
X155828952Y-82494380D02*
X155828952Y-81494380D01*
X155733714Y-81637238D01*
X155638476Y-81732476D01*
X155543238Y-81780095D01*
G04 #@! TO.C,J13*
X130643380Y-91614523D02*
X131357666Y-91614523D01*
X131500523Y-91662142D01*
X131595761Y-91757380D01*
X131643380Y-91900238D01*
X131643380Y-91995476D01*
X131643380Y-90614523D02*
X131643380Y-91185952D01*
X131643380Y-90900238D02*
X130643380Y-90900238D01*
X130786238Y-90995476D01*
X130881476Y-91090714D01*
X130929095Y-91185952D01*
X130643380Y-90281190D02*
X130643380Y-89662142D01*
X131024333Y-89995476D01*
X131024333Y-89852619D01*
X131071952Y-89757380D01*
X131119571Y-89709761D01*
X131214809Y-89662142D01*
X131452904Y-89662142D01*
X131548142Y-89709761D01*
X131595761Y-89757380D01*
X131643380Y-89852619D01*
X131643380Y-90138333D01*
X131595761Y-90233571D01*
X131548142Y-90281190D01*
G04 #@! TO.C,U1*
X153670095Y-113498380D02*
X153670095Y-114307904D01*
X153717714Y-114403142D01*
X153765333Y-114450761D01*
X153860571Y-114498380D01*
X154051047Y-114498380D01*
X154146285Y-114450761D01*
X154193904Y-114403142D01*
X154241523Y-114307904D01*
X154241523Y-113498380D01*
X155241523Y-114498380D02*
X154670095Y-114498380D01*
X154955809Y-114498380D02*
X154955809Y-113498380D01*
X154860571Y-113641238D01*
X154765333Y-113736476D01*
X154670095Y-113784095D01*
G04 #@! TO.C,R2*
X124801333Y-108783380D02*
X124468000Y-108307190D01*
X124229904Y-108783380D02*
X124229904Y-107783380D01*
X124610857Y-107783380D01*
X124706095Y-107831000D01*
X124753714Y-107878619D01*
X124801333Y-107973857D01*
X124801333Y-108116714D01*
X124753714Y-108211952D01*
X124706095Y-108259571D01*
X124610857Y-108307190D01*
X124229904Y-108307190D01*
X125182285Y-107878619D02*
X125229904Y-107831000D01*
X125325142Y-107783380D01*
X125563238Y-107783380D01*
X125658476Y-107831000D01*
X125706095Y-107878619D01*
X125753714Y-107973857D01*
X125753714Y-108069095D01*
X125706095Y-108211952D01*
X125134666Y-108783380D01*
X125753714Y-108783380D01*
G04 #@! TO.C,R3*
X130761333Y-108783380D02*
X130428000Y-108307190D01*
X130189904Y-108783380D02*
X130189904Y-107783380D01*
X130570857Y-107783380D01*
X130666095Y-107831000D01*
X130713714Y-107878619D01*
X130761333Y-107973857D01*
X130761333Y-108116714D01*
X130713714Y-108211952D01*
X130666095Y-108259571D01*
X130570857Y-108307190D01*
X130189904Y-108307190D01*
X131094666Y-107783380D02*
X131713714Y-107783380D01*
X131380380Y-108164333D01*
X131523238Y-108164333D01*
X131618476Y-108211952D01*
X131666095Y-108259571D01*
X131713714Y-108354809D01*
X131713714Y-108592904D01*
X131666095Y-108688142D01*
X131618476Y-108735761D01*
X131523238Y-108783380D01*
X131237523Y-108783380D01*
X131142285Y-108735761D01*
X131094666Y-108688142D01*
G04 #@! TO.C,D1*
X118396904Y-110688380D02*
X118396904Y-109688380D01*
X118635000Y-109688380D01*
X118777857Y-109736000D01*
X118873095Y-109831238D01*
X118920714Y-109926476D01*
X118968333Y-110116952D01*
X118968333Y-110259809D01*
X118920714Y-110450285D01*
X118873095Y-110545523D01*
X118777857Y-110640761D01*
X118635000Y-110688380D01*
X118396904Y-110688380D01*
X119920714Y-110688380D02*
X119349285Y-110688380D01*
X119635000Y-110688380D02*
X119635000Y-109688380D01*
X119539761Y-109831238D01*
X119444523Y-109926476D01*
X119349285Y-109974095D01*
G04 #@! TO.C,R1*
X118959333Y-108783380D02*
X118626000Y-108307190D01*
X118387904Y-108783380D02*
X118387904Y-107783380D01*
X118768857Y-107783380D01*
X118864095Y-107831000D01*
X118911714Y-107878619D01*
X118959333Y-107973857D01*
X118959333Y-108116714D01*
X118911714Y-108211952D01*
X118864095Y-108259571D01*
X118768857Y-108307190D01*
X118387904Y-108307190D01*
X119911714Y-108783380D02*
X119340285Y-108783380D01*
X119626000Y-108783380D02*
X119626000Y-107783380D01*
X119530761Y-107926238D01*
X119435523Y-108021476D01*
X119340285Y-108069095D01*
G04 #@! TO.C,D3*
X130071904Y-110561380D02*
X130071904Y-109561380D01*
X130310000Y-109561380D01*
X130452857Y-109609000D01*
X130548095Y-109704238D01*
X130595714Y-109799476D01*
X130643333Y-109989952D01*
X130643333Y-110132809D01*
X130595714Y-110323285D01*
X130548095Y-110418523D01*
X130452857Y-110513761D01*
X130310000Y-110561380D01*
X130071904Y-110561380D01*
X130976666Y-109561380D02*
X131595714Y-109561380D01*
X131262380Y-109942333D01*
X131405238Y-109942333D01*
X131500476Y-109989952D01*
X131548095Y-110037571D01*
X131595714Y-110132809D01*
X131595714Y-110370904D01*
X131548095Y-110466142D01*
X131500476Y-110513761D01*
X131405238Y-110561380D01*
X131119523Y-110561380D01*
X131024285Y-110513761D01*
X130976666Y-110466142D01*
G04 #@! TO.C,J4*
X113371380Y-105743333D02*
X114085666Y-105743333D01*
X114228523Y-105790952D01*
X114323761Y-105886190D01*
X114371380Y-106029047D01*
X114371380Y-106124285D01*
X113704714Y-104838571D02*
X114371380Y-104838571D01*
X113323761Y-105076666D02*
X114038047Y-105314761D01*
X114038047Y-104695714D01*
G04 #@! TO.C,J8*
X168068666Y-118197380D02*
X168068666Y-118911666D01*
X168021047Y-119054523D01*
X167925809Y-119149761D01*
X167782952Y-119197380D01*
X167687714Y-119197380D01*
X168687714Y-118625952D02*
X168592476Y-118578333D01*
X168544857Y-118530714D01*
X168497238Y-118435476D01*
X168497238Y-118387857D01*
X168544857Y-118292619D01*
X168592476Y-118245000D01*
X168687714Y-118197380D01*
X168878190Y-118197380D01*
X168973428Y-118245000D01*
X169021047Y-118292619D01*
X169068666Y-118387857D01*
X169068666Y-118435476D01*
X169021047Y-118530714D01*
X168973428Y-118578333D01*
X168878190Y-118625952D01*
X168687714Y-118625952D01*
X168592476Y-118673571D01*
X168544857Y-118721190D01*
X168497238Y-118816428D01*
X168497238Y-119006904D01*
X168544857Y-119102142D01*
X168592476Y-119149761D01*
X168687714Y-119197380D01*
X168878190Y-119197380D01*
X168973428Y-119149761D01*
X169021047Y-119102142D01*
X169068666Y-119006904D01*
X169068666Y-118816428D01*
X169021047Y-118721190D01*
X168973428Y-118673571D01*
X168878190Y-118625952D01*
G04 #@! TO.C,R4*
X138009333Y-109926380D02*
X137676000Y-109450190D01*
X137437904Y-109926380D02*
X137437904Y-108926380D01*
X137818857Y-108926380D01*
X137914095Y-108974000D01*
X137961714Y-109021619D01*
X138009333Y-109116857D01*
X138009333Y-109259714D01*
X137961714Y-109354952D01*
X137914095Y-109402571D01*
X137818857Y-109450190D01*
X137437904Y-109450190D01*
X138866476Y-109259714D02*
X138866476Y-109926380D01*
X138628380Y-108878761D02*
X138390285Y-109593047D01*
X139009333Y-109593047D01*
G04 #@! TO.C,R5*
X138009333Y-111958380D02*
X137676000Y-111482190D01*
X137437904Y-111958380D02*
X137437904Y-110958380D01*
X137818857Y-110958380D01*
X137914095Y-111006000D01*
X137961714Y-111053619D01*
X138009333Y-111148857D01*
X138009333Y-111291714D01*
X137961714Y-111386952D01*
X137914095Y-111434571D01*
X137818857Y-111482190D01*
X137437904Y-111482190D01*
X138914095Y-110958380D02*
X138437904Y-110958380D01*
X138390285Y-111434571D01*
X138437904Y-111386952D01*
X138533142Y-111339333D01*
X138771238Y-111339333D01*
X138866476Y-111386952D01*
X138914095Y-111434571D01*
X138961714Y-111529809D01*
X138961714Y-111767904D01*
X138914095Y-111863142D01*
X138866476Y-111910761D01*
X138771238Y-111958380D01*
X138533142Y-111958380D01*
X138437904Y-111910761D01*
X138390285Y-111863142D01*
G04 #@! TO.C,R6*
X138009333Y-108122980D02*
X137676000Y-107646790D01*
X137437904Y-108122980D02*
X137437904Y-107122980D01*
X137818857Y-107122980D01*
X137914095Y-107170600D01*
X137961714Y-107218219D01*
X138009333Y-107313457D01*
X138009333Y-107456314D01*
X137961714Y-107551552D01*
X137914095Y-107599171D01*
X137818857Y-107646790D01*
X137437904Y-107646790D01*
X138866476Y-107122980D02*
X138676000Y-107122980D01*
X138580761Y-107170600D01*
X138533142Y-107218219D01*
X138437904Y-107361076D01*
X138390285Y-107551552D01*
X138390285Y-107932504D01*
X138437904Y-108027742D01*
X138485523Y-108075361D01*
X138580761Y-108122980D01*
X138771238Y-108122980D01*
X138866476Y-108075361D01*
X138914095Y-108027742D01*
X138961714Y-107932504D01*
X138961714Y-107694409D01*
X138914095Y-107599171D01*
X138866476Y-107551552D01*
X138771238Y-107503933D01*
X138580761Y-107503933D01*
X138485523Y-107551552D01*
X138437904Y-107599171D01*
X138390285Y-107694409D01*
G04 #@! TO.C,SW1*
X107632666Y-112799761D02*
X107775523Y-112847380D01*
X108013619Y-112847380D01*
X108108857Y-112799761D01*
X108156476Y-112752142D01*
X108204095Y-112656904D01*
X108204095Y-112561666D01*
X108156476Y-112466428D01*
X108108857Y-112418809D01*
X108013619Y-112371190D01*
X107823142Y-112323571D01*
X107727904Y-112275952D01*
X107680285Y-112228333D01*
X107632666Y-112133095D01*
X107632666Y-112037857D01*
X107680285Y-111942619D01*
X107727904Y-111895000D01*
X107823142Y-111847380D01*
X108061238Y-111847380D01*
X108204095Y-111895000D01*
X108537428Y-111847380D02*
X108775523Y-112847380D01*
X108966000Y-112133095D01*
X109156476Y-112847380D01*
X109394571Y-111847380D01*
X110299333Y-112847380D02*
X109727904Y-112847380D01*
X110013619Y-112847380D02*
X110013619Y-111847380D01*
X109918380Y-111990238D01*
X109823142Y-112085476D01*
X109727904Y-112133095D01*
G04 #@! TO.C,SW2*
X118173666Y-112799761D02*
X118316523Y-112847380D01*
X118554619Y-112847380D01*
X118649857Y-112799761D01*
X118697476Y-112752142D01*
X118745095Y-112656904D01*
X118745095Y-112561666D01*
X118697476Y-112466428D01*
X118649857Y-112418809D01*
X118554619Y-112371190D01*
X118364142Y-112323571D01*
X118268904Y-112275952D01*
X118221285Y-112228333D01*
X118173666Y-112133095D01*
X118173666Y-112037857D01*
X118221285Y-111942619D01*
X118268904Y-111895000D01*
X118364142Y-111847380D01*
X118602238Y-111847380D01*
X118745095Y-111895000D01*
X119078428Y-111847380D02*
X119316523Y-112847380D01*
X119507000Y-112133095D01*
X119697476Y-112847380D01*
X119935571Y-111847380D01*
X120268904Y-111942619D02*
X120316523Y-111895000D01*
X120411761Y-111847380D01*
X120649857Y-111847380D01*
X120745095Y-111895000D01*
X120792714Y-111942619D01*
X120840333Y-112037857D01*
X120840333Y-112133095D01*
X120792714Y-112275952D01*
X120221285Y-112847380D01*
X120840333Y-112847380D01*
G04 #@! TO.C,SW3*
X130492666Y-112799761D02*
X130635523Y-112847380D01*
X130873619Y-112847380D01*
X130968857Y-112799761D01*
X131016476Y-112752142D01*
X131064095Y-112656904D01*
X131064095Y-112561666D01*
X131016476Y-112466428D01*
X130968857Y-112418809D01*
X130873619Y-112371190D01*
X130683142Y-112323571D01*
X130587904Y-112275952D01*
X130540285Y-112228333D01*
X130492666Y-112133095D01*
X130492666Y-112037857D01*
X130540285Y-111942619D01*
X130587904Y-111895000D01*
X130683142Y-111847380D01*
X130921238Y-111847380D01*
X131064095Y-111895000D01*
X131397428Y-111847380D02*
X131635523Y-112847380D01*
X131826000Y-112133095D01*
X132016476Y-112847380D01*
X132254571Y-111847380D01*
X132540285Y-111847380D02*
X133159333Y-111847380D01*
X132826000Y-112228333D01*
X132968857Y-112228333D01*
X133064095Y-112275952D01*
X133111714Y-112323571D01*
X133159333Y-112418809D01*
X133159333Y-112656904D01*
X133111714Y-112752142D01*
X133064095Y-112799761D01*
X132968857Y-112847380D01*
X132683142Y-112847380D01*
X132587904Y-112799761D01*
X132540285Y-112752142D01*
G04 #@! TO.C,U2*
X148844095Y-106386380D02*
X148844095Y-107195904D01*
X148891714Y-107291142D01*
X148939333Y-107338761D01*
X149034571Y-107386380D01*
X149225047Y-107386380D01*
X149320285Y-107338761D01*
X149367904Y-107291142D01*
X149415523Y-107195904D01*
X149415523Y-106386380D01*
X149844095Y-106481619D02*
X149891714Y-106434000D01*
X149986952Y-106386380D01*
X150225047Y-106386380D01*
X150320285Y-106434000D01*
X150367904Y-106481619D01*
X150415523Y-106576857D01*
X150415523Y-106672095D01*
X150367904Y-106814952D01*
X149796476Y-107386380D01*
X150415523Y-107386380D01*
G04 #@! TO.C,C2*
X146010333Y-106656142D02*
X145962714Y-106703761D01*
X145819857Y-106751380D01*
X145724619Y-106751380D01*
X145581761Y-106703761D01*
X145486523Y-106608523D01*
X145438904Y-106513285D01*
X145391285Y-106322809D01*
X145391285Y-106179952D01*
X145438904Y-105989476D01*
X145486523Y-105894238D01*
X145581761Y-105799000D01*
X145724619Y-105751380D01*
X145819857Y-105751380D01*
X145962714Y-105799000D01*
X146010333Y-105846619D01*
X146391285Y-105846619D02*
X146438904Y-105799000D01*
X146534142Y-105751380D01*
X146772238Y-105751380D01*
X146867476Y-105799000D01*
X146915095Y-105846619D01*
X146962714Y-105941857D01*
X146962714Y-106037095D01*
X146915095Y-106179952D01*
X146343666Y-106751380D01*
X146962714Y-106751380D01*
G04 #@! TO.C,C3*
X148931333Y-102084142D02*
X148883714Y-102131761D01*
X148740857Y-102179380D01*
X148645619Y-102179380D01*
X148502761Y-102131761D01*
X148407523Y-102036523D01*
X148359904Y-101941285D01*
X148312285Y-101750809D01*
X148312285Y-101607952D01*
X148359904Y-101417476D01*
X148407523Y-101322238D01*
X148502761Y-101227000D01*
X148645619Y-101179380D01*
X148740857Y-101179380D01*
X148883714Y-101227000D01*
X148931333Y-101274619D01*
X149264666Y-101179380D02*
X149883714Y-101179380D01*
X149550380Y-101560333D01*
X149693238Y-101560333D01*
X149788476Y-101607952D01*
X149836095Y-101655571D01*
X149883714Y-101750809D01*
X149883714Y-101988904D01*
X149836095Y-102084142D01*
X149788476Y-102131761D01*
X149693238Y-102179380D01*
X149407523Y-102179380D01*
X149312285Y-102131761D01*
X149264666Y-102084142D01*
G04 #@! TO.C,J3*
X123872666Y-97496380D02*
X123872666Y-98210666D01*
X123825047Y-98353523D01*
X123729809Y-98448761D01*
X123586952Y-98496380D01*
X123491714Y-98496380D01*
X124253619Y-97496380D02*
X124872666Y-97496380D01*
X124539333Y-97877333D01*
X124682190Y-97877333D01*
X124777428Y-97924952D01*
X124825047Y-97972571D01*
X124872666Y-98067809D01*
X124872666Y-98305904D01*
X124825047Y-98401142D01*
X124777428Y-98448761D01*
X124682190Y-98496380D01*
X124396476Y-98496380D01*
X124301238Y-98448761D01*
X124253619Y-98401142D01*
G04 #@! TO.C,R7*
X164425333Y-84018380D02*
X164092000Y-83542190D01*
X163853904Y-84018380D02*
X163853904Y-83018380D01*
X164234857Y-83018380D01*
X164330095Y-83066000D01*
X164377714Y-83113619D01*
X164425333Y-83208857D01*
X164425333Y-83351714D01*
X164377714Y-83446952D01*
X164330095Y-83494571D01*
X164234857Y-83542190D01*
X163853904Y-83542190D01*
X164758666Y-83018380D02*
X165425333Y-83018380D01*
X164996761Y-84018380D01*
G04 #@! TO.C,J9*
X140382666Y-105370380D02*
X140382666Y-106084666D01*
X140335047Y-106227523D01*
X140239809Y-106322761D01*
X140096952Y-106370380D01*
X140001714Y-106370380D01*
X140906476Y-106370380D02*
X141096952Y-106370380D01*
X141192190Y-106322761D01*
X141239809Y-106275142D01*
X141335047Y-106132285D01*
X141382666Y-105941809D01*
X141382666Y-105560857D01*
X141335047Y-105465619D01*
X141287428Y-105418000D01*
X141192190Y-105370380D01*
X141001714Y-105370380D01*
X140906476Y-105418000D01*
X140858857Y-105465619D01*
X140811238Y-105560857D01*
X140811238Y-105798952D01*
X140858857Y-105894190D01*
X140906476Y-105941809D01*
X141001714Y-105989428D01*
X141192190Y-105989428D01*
X141287428Y-105941809D01*
X141335047Y-105894190D01*
X141382666Y-105798952D01*
G04 #@! TO.C,J10*
X151082476Y-106894380D02*
X151082476Y-107608666D01*
X151034857Y-107751523D01*
X150939619Y-107846761D01*
X150796761Y-107894380D01*
X150701523Y-107894380D01*
X152082476Y-107894380D02*
X151511047Y-107894380D01*
X151796761Y-107894380D02*
X151796761Y-106894380D01*
X151701523Y-107037238D01*
X151606285Y-107132476D01*
X151511047Y-107180095D01*
X152701523Y-106894380D02*
X152796761Y-106894380D01*
X152892000Y-106942000D01*
X152939619Y-106989619D01*
X152987238Y-107084857D01*
X153034857Y-107275333D01*
X153034857Y-107513428D01*
X152987238Y-107703904D01*
X152939619Y-107799142D01*
X152892000Y-107846761D01*
X152796761Y-107894380D01*
X152701523Y-107894380D01*
X152606285Y-107846761D01*
X152558666Y-107799142D01*
X152511047Y-107703904D01*
X152463428Y-107513428D01*
X152463428Y-107275333D01*
X152511047Y-107084857D01*
X152558666Y-106989619D01*
X152606285Y-106942000D01*
X152701523Y-106894380D01*
G04 #@! TO.C,J11*
X152233380Y-105838523D02*
X152947666Y-105838523D01*
X153090523Y-105886142D01*
X153185761Y-105981380D01*
X153233380Y-106124238D01*
X153233380Y-106219476D01*
X153233380Y-104838523D02*
X153233380Y-105409952D01*
X153233380Y-105124238D02*
X152233380Y-105124238D01*
X152376238Y-105219476D01*
X152471476Y-105314714D01*
X152519095Y-105409952D01*
X153233380Y-103886142D02*
X153233380Y-104457571D01*
X153233380Y-104171857D02*
X152233380Y-104171857D01*
X152376238Y-104267095D01*
X152471476Y-104362333D01*
X152519095Y-104457571D01*
G04 #@! TO.C,J14*
X156043380Y-95424523D02*
X156757666Y-95424523D01*
X156900523Y-95472142D01*
X156995761Y-95567380D01*
X157043380Y-95710238D01*
X157043380Y-95805476D01*
X157043380Y-94424523D02*
X157043380Y-94995952D01*
X157043380Y-94710238D02*
X156043380Y-94710238D01*
X156186238Y-94805476D01*
X156281476Y-94900714D01*
X156329095Y-94995952D01*
X156376714Y-93567380D02*
X157043380Y-93567380D01*
X155995761Y-93805476D02*
X156710047Y-94043571D01*
X156710047Y-93424523D01*
G04 #@! TO.C,J16*
X119840476Y-89876380D02*
X119840476Y-90590666D01*
X119792857Y-90733523D01*
X119697619Y-90828761D01*
X119554761Y-90876380D01*
X119459523Y-90876380D01*
X120840476Y-90876380D02*
X120269047Y-90876380D01*
X120554761Y-90876380D02*
X120554761Y-89876380D01*
X120459523Y-90019238D01*
X120364285Y-90114476D01*
X120269047Y-90162095D01*
X121697619Y-89876380D02*
X121507142Y-89876380D01*
X121411904Y-89924000D01*
X121364285Y-89971619D01*
X121269047Y-90114476D01*
X121221428Y-90304952D01*
X121221428Y-90685904D01*
X121269047Y-90781142D01*
X121316666Y-90828761D01*
X121411904Y-90876380D01*
X121602380Y-90876380D01*
X121697619Y-90828761D01*
X121745238Y-90781142D01*
X121792857Y-90685904D01*
X121792857Y-90447809D01*
X121745238Y-90352571D01*
X121697619Y-90304952D01*
X121602380Y-90257333D01*
X121411904Y-90257333D01*
X121316666Y-90304952D01*
X121269047Y-90352571D01*
X121221428Y-90447809D01*
G04 #@! TD*
M02*
