G04 #@! TF.GenerationSoftware,KiCad,Pcbnew,5.0.2+dfsg1-1*
G04 #@! TF.CreationDate,2020-03-15T11:59:51+01:00*
G04 #@! TF.ProjectId,BEE,4245452e-6b69-4636-9164-5f7063625858,1.0*
G04 #@! TF.SameCoordinates,Original*
G04 #@! TF.FileFunction,Copper,L1,Top*
G04 #@! TF.FilePolarity,Positive*
%FSLAX46Y46*%
G04 Gerber Fmt 4.6, Leading zero omitted, Abs format (unit mm)*
G04 Created by KiCad (PCBNEW 5.0.2+dfsg1-1) date Sun 15 Mar 2020 11:59:51 AM CET*
%MOMM*%
%LPD*%
G01*
G04 APERTURE LIST*
G04 #@! TA.AperFunction,ComponentPad*
%ADD10O,1.700000X1.700000*%
G04 #@! TD*
G04 #@! TA.AperFunction,ComponentPad*
%ADD11R,1.700000X1.700000*%
G04 #@! TD*
G04 #@! TA.AperFunction,Conductor*
%ADD12C,0.100000*%
G04 #@! TD*
G04 #@! TA.AperFunction,SMDPad,CuDef*
%ADD13C,1.150000*%
G04 #@! TD*
G04 #@! TA.AperFunction,ComponentPad*
%ADD14C,1.100000*%
G04 #@! TD*
G04 #@! TA.AperFunction,SMDPad,CuDef*
%ADD15R,0.600000X1.500000*%
G04 #@! TD*
G04 #@! TA.AperFunction,SMDPad,CuDef*
%ADD16R,2.100000X1.400000*%
G04 #@! TD*
G04 #@! TA.AperFunction,SMDPad,CuDef*
%ADD17R,0.600000X1.550000*%
G04 #@! TD*
G04 #@! TA.AperFunction,BGAPad,CuDef*
%ADD18C,0.500000*%
G04 #@! TD*
G04 #@! TA.AperFunction,ViaPad*
%ADD19C,0.762000*%
G04 #@! TD*
G04 #@! TA.AperFunction,ViaPad*
%ADD20C,0.508000*%
G04 #@! TD*
G04 #@! TA.AperFunction,Conductor*
%ADD21C,0.203200*%
G04 #@! TD*
G04 #@! TA.AperFunction,Conductor*
%ADD22C,0.609600*%
G04 #@! TD*
G04 APERTURE END LIST*
D10*
G04 #@! TO.P,J1,40*
G04 #@! TO.N,/BCM21*
X105130600Y-87045800D03*
G04 #@! TO.P,J1,39*
G04 #@! TO.N,GND*
X105130600Y-84505800D03*
G04 #@! TO.P,J1,38*
G04 #@! TO.N,/BCM20*
X107670600Y-87045800D03*
G04 #@! TO.P,J1,37*
G04 #@! TO.N,/BCM26*
X107670600Y-84505800D03*
G04 #@! TO.P,J1,36*
G04 #@! TO.N,/BCM16_CTS*
X110210600Y-87045800D03*
G04 #@! TO.P,J1,35*
G04 #@! TO.N,/BCM19*
X110210600Y-84505800D03*
G04 #@! TO.P,J1,34*
G04 #@! TO.N,GND*
X112750600Y-87045800D03*
G04 #@! TO.P,J1,33*
G04 #@! TO.N,/BCM13_PWM1*
X112750600Y-84505800D03*
G04 #@! TO.P,J1,32*
G04 #@! TO.N,/BCM12_PWM0*
X115290600Y-87045800D03*
G04 #@! TO.P,J1,31*
G04 #@! TO.N,/BCM6*
X115290600Y-84505800D03*
G04 #@! TO.P,J1,30*
G04 #@! TO.N,GND*
X117830600Y-87045800D03*
G04 #@! TO.P,J1,29*
G04 #@! TO.N,/BCM5*
X117830600Y-84505800D03*
G04 #@! TO.P,J1,28*
G04 #@! TO.N,/BCM1*
X120370600Y-87045800D03*
G04 #@! TO.P,J1,27*
G04 #@! TO.N,/BCM0*
X120370600Y-84505800D03*
G04 #@! TO.P,J1,26*
G04 #@! TO.N,/BCM7_CE1*
X122910600Y-87045800D03*
G04 #@! TO.P,J1,25*
G04 #@! TO.N,GND*
X122910600Y-84505800D03*
G04 #@! TO.P,J1,24*
G04 #@! TO.N,/BCM8_CE0*
X125450600Y-87045800D03*
G04 #@! TO.P,J1,23*
G04 #@! TO.N,/BCM11_SCLK*
X125450600Y-84505800D03*
G04 #@! TO.P,J1,22*
G04 #@! TO.N,/BCM25_TCK*
X127990600Y-87045800D03*
G04 #@! TO.P,J1,21*
G04 #@! TO.N,/BCM9_MISO*
X127990600Y-84505800D03*
G04 #@! TO.P,J1,20*
G04 #@! TO.N,GND*
X130530600Y-87045800D03*
G04 #@! TO.P,J1,19*
G04 #@! TO.N,/BCM10_MOSI*
X130530600Y-84505800D03*
G04 #@! TO.P,J1,18*
G04 #@! TO.N,/BCM24_TDO*
X133070600Y-87045800D03*
G04 #@! TO.P,J1,17*
G04 #@! TO.N,N/C*
X133070600Y-84505800D03*
G04 #@! TO.P,J1,16*
G04 #@! TO.N,/BCM23_RTCK*
X135610600Y-87045800D03*
G04 #@! TO.P,J1,15*
G04 #@! TO.N,/BCM22_TRST*
X135610600Y-84505800D03*
G04 #@! TO.P,J1,14*
G04 #@! TO.N,GND*
X138150600Y-87045800D03*
G04 #@! TO.P,J1,13*
G04 #@! TO.N,/BCM27_TMS*
X138150600Y-84505800D03*
G04 #@! TO.P,J1,12*
G04 #@! TO.N,/BCM18_PWM0*
X140690600Y-87045800D03*
G04 #@! TO.P,J1,11*
G04 #@! TO.N,/BCM17_RTS*
X140690600Y-84505800D03*
G04 #@! TO.P,J1,10*
G04 #@! TO.N,/BCM15_RX*
X143230600Y-87045800D03*
G04 #@! TO.P,J1,9*
G04 #@! TO.N,GND*
X143230600Y-84505800D03*
G04 #@! TO.P,J1,8*
G04 #@! TO.N,/BCM14_TX*
X145770600Y-87045800D03*
G04 #@! TO.P,J1,7*
G04 #@! TO.N,/BCM4_TDI*
X145770600Y-84505800D03*
G04 #@! TO.P,J1,6*
G04 #@! TO.N,GND*
X148310600Y-87045800D03*
G04 #@! TO.P,J1,5*
G04 #@! TO.N,/BCM3_SCL*
X148310600Y-84505800D03*
G04 #@! TO.P,J1,4*
G04 #@! TO.N,N/C*
X150850600Y-87045800D03*
G04 #@! TO.P,J1,3*
G04 #@! TO.N,/BCM2_SDA*
X150850600Y-84505800D03*
G04 #@! TO.P,J1,2*
G04 #@! TO.N,+5V*
X153390600Y-87045800D03*
D11*
G04 #@! TO.P,J1,1*
G04 #@! TO.N,+3V3*
X153390600Y-84505800D03*
G04 #@! TD*
D12*
G04 #@! TO.N,Net-(J5-Pad2)*
G04 #@! TO.C,R7*
G36*
X168174705Y-116928604D02*
X168198973Y-116932204D01*
X168222772Y-116938165D01*
X168245871Y-116946430D01*
X168268050Y-116956920D01*
X168289093Y-116969532D01*
X168308799Y-116984147D01*
X168326977Y-117000623D01*
X168343453Y-117018801D01*
X168358068Y-117038507D01*
X168370680Y-117059550D01*
X168381170Y-117081729D01*
X168389435Y-117104828D01*
X168395396Y-117128627D01*
X168398996Y-117152895D01*
X168400200Y-117177399D01*
X168400200Y-118077401D01*
X168398996Y-118101905D01*
X168395396Y-118126173D01*
X168389435Y-118149972D01*
X168381170Y-118173071D01*
X168370680Y-118195250D01*
X168358068Y-118216293D01*
X168343453Y-118235999D01*
X168326977Y-118254177D01*
X168308799Y-118270653D01*
X168289093Y-118285268D01*
X168268050Y-118297880D01*
X168245871Y-118308370D01*
X168222772Y-118316635D01*
X168198973Y-118322596D01*
X168174705Y-118326196D01*
X168150201Y-118327400D01*
X167500199Y-118327400D01*
X167475695Y-118326196D01*
X167451427Y-118322596D01*
X167427628Y-118316635D01*
X167404529Y-118308370D01*
X167382350Y-118297880D01*
X167361307Y-118285268D01*
X167341601Y-118270653D01*
X167323423Y-118254177D01*
X167306947Y-118235999D01*
X167292332Y-118216293D01*
X167279720Y-118195250D01*
X167269230Y-118173071D01*
X167260965Y-118149972D01*
X167255004Y-118126173D01*
X167251404Y-118101905D01*
X167250200Y-118077401D01*
X167250200Y-117177399D01*
X167251404Y-117152895D01*
X167255004Y-117128627D01*
X167260965Y-117104828D01*
X167269230Y-117081729D01*
X167279720Y-117059550D01*
X167292332Y-117038507D01*
X167306947Y-117018801D01*
X167323423Y-117000623D01*
X167341601Y-116984147D01*
X167361307Y-116969532D01*
X167382350Y-116956920D01*
X167404529Y-116946430D01*
X167427628Y-116938165D01*
X167451427Y-116932204D01*
X167475695Y-116928604D01*
X167500199Y-116927400D01*
X168150201Y-116927400D01*
X168174705Y-116928604D01*
X168174705Y-116928604D01*
G37*
D13*
G04 #@! TD*
G04 #@! TO.P,R7,2*
G04 #@! TO.N,Net-(J5-Pad2)*
X167825200Y-117627400D03*
D12*
G04 #@! TO.N,+3V3*
G04 #@! TO.C,R7*
G36*
X170224705Y-116928604D02*
X170248973Y-116932204D01*
X170272772Y-116938165D01*
X170295871Y-116946430D01*
X170318050Y-116956920D01*
X170339093Y-116969532D01*
X170358799Y-116984147D01*
X170376977Y-117000623D01*
X170393453Y-117018801D01*
X170408068Y-117038507D01*
X170420680Y-117059550D01*
X170431170Y-117081729D01*
X170439435Y-117104828D01*
X170445396Y-117128627D01*
X170448996Y-117152895D01*
X170450200Y-117177399D01*
X170450200Y-118077401D01*
X170448996Y-118101905D01*
X170445396Y-118126173D01*
X170439435Y-118149972D01*
X170431170Y-118173071D01*
X170420680Y-118195250D01*
X170408068Y-118216293D01*
X170393453Y-118235999D01*
X170376977Y-118254177D01*
X170358799Y-118270653D01*
X170339093Y-118285268D01*
X170318050Y-118297880D01*
X170295871Y-118308370D01*
X170272772Y-118316635D01*
X170248973Y-118322596D01*
X170224705Y-118326196D01*
X170200201Y-118327400D01*
X169550199Y-118327400D01*
X169525695Y-118326196D01*
X169501427Y-118322596D01*
X169477628Y-118316635D01*
X169454529Y-118308370D01*
X169432350Y-118297880D01*
X169411307Y-118285268D01*
X169391601Y-118270653D01*
X169373423Y-118254177D01*
X169356947Y-118235999D01*
X169342332Y-118216293D01*
X169329720Y-118195250D01*
X169319230Y-118173071D01*
X169310965Y-118149972D01*
X169305004Y-118126173D01*
X169301404Y-118101905D01*
X169300200Y-118077401D01*
X169300200Y-117177399D01*
X169301404Y-117152895D01*
X169305004Y-117128627D01*
X169310965Y-117104828D01*
X169319230Y-117081729D01*
X169329720Y-117059550D01*
X169342332Y-117038507D01*
X169356947Y-117018801D01*
X169373423Y-117000623D01*
X169391601Y-116984147D01*
X169411307Y-116969532D01*
X169432350Y-116956920D01*
X169454529Y-116946430D01*
X169477628Y-116938165D01*
X169501427Y-116932204D01*
X169525695Y-116928604D01*
X169550199Y-116927400D01*
X170200201Y-116927400D01*
X170224705Y-116928604D01*
X170224705Y-116928604D01*
G37*
D13*
G04 #@! TD*
G04 #@! TO.P,R7,1*
G04 #@! TO.N,+3V3*
X169875200Y-117627400D03*
D10*
G04 #@! TO.P,J16,8*
G04 #@! TO.N,/BCM26*
X99466400Y-91897200D03*
G04 #@! TO.P,J16,7*
G04 #@! TO.N,/BCM21*
X102006400Y-91897200D03*
G04 #@! TO.P,J16,6*
G04 #@! TO.N,/BCM20*
X104546400Y-91897200D03*
G04 #@! TO.P,J16,5*
G04 #@! TO.N,/BCM19*
X107086400Y-91897200D03*
G04 #@! TO.P,J16,4*
G04 #@! TO.N,/BCM6*
X109626400Y-91897200D03*
G04 #@! TO.P,J16,3*
G04 #@! TO.N,/BCM5*
X112166400Y-91897200D03*
G04 #@! TO.P,J16,2*
G04 #@! TO.N,/BCM1*
X114706400Y-91897200D03*
D11*
G04 #@! TO.P,J16,1*
G04 #@! TO.N,/BCM0*
X117246400Y-91897200D03*
G04 #@! TD*
D10*
G04 #@! TO.P,J4,6*
G04 #@! TO.N,/SW1*
X129032000Y-110871000D03*
G04 #@! TO.P,J4,5*
G04 #@! TO.N,/SW2*
X126492000Y-110871000D03*
G04 #@! TO.P,J4,4*
G04 #@! TO.N,/SW3*
X123952000Y-110871000D03*
G04 #@! TO.P,J4,3*
G04 #@! TO.N,/L1*
X121412000Y-110871000D03*
G04 #@! TO.P,J4,2*
G04 #@! TO.N,/L2*
X118872000Y-110871000D03*
D11*
G04 #@! TO.P,J4,1*
G04 #@! TO.N,/L3*
X116332000Y-110871000D03*
G04 #@! TD*
D12*
G04 #@! TO.N,GND*
G04 #@! TO.C,R15*
G36*
X158116305Y-117563604D02*
X158140573Y-117567204D01*
X158164372Y-117573165D01*
X158187471Y-117581430D01*
X158209650Y-117591920D01*
X158230693Y-117604532D01*
X158250399Y-117619147D01*
X158268577Y-117635623D01*
X158285053Y-117653801D01*
X158299668Y-117673507D01*
X158312280Y-117694550D01*
X158322770Y-117716729D01*
X158331035Y-117739828D01*
X158336996Y-117763627D01*
X158340596Y-117787895D01*
X158341800Y-117812399D01*
X158341800Y-118712401D01*
X158340596Y-118736905D01*
X158336996Y-118761173D01*
X158331035Y-118784972D01*
X158322770Y-118808071D01*
X158312280Y-118830250D01*
X158299668Y-118851293D01*
X158285053Y-118870999D01*
X158268577Y-118889177D01*
X158250399Y-118905653D01*
X158230693Y-118920268D01*
X158209650Y-118932880D01*
X158187471Y-118943370D01*
X158164372Y-118951635D01*
X158140573Y-118957596D01*
X158116305Y-118961196D01*
X158091801Y-118962400D01*
X157441799Y-118962400D01*
X157417295Y-118961196D01*
X157393027Y-118957596D01*
X157369228Y-118951635D01*
X157346129Y-118943370D01*
X157323950Y-118932880D01*
X157302907Y-118920268D01*
X157283201Y-118905653D01*
X157265023Y-118889177D01*
X157248547Y-118870999D01*
X157233932Y-118851293D01*
X157221320Y-118830250D01*
X157210830Y-118808071D01*
X157202565Y-118784972D01*
X157196604Y-118761173D01*
X157193004Y-118736905D01*
X157191800Y-118712401D01*
X157191800Y-117812399D01*
X157193004Y-117787895D01*
X157196604Y-117763627D01*
X157202565Y-117739828D01*
X157210830Y-117716729D01*
X157221320Y-117694550D01*
X157233932Y-117673507D01*
X157248547Y-117653801D01*
X157265023Y-117635623D01*
X157283201Y-117619147D01*
X157302907Y-117604532D01*
X157323950Y-117591920D01*
X157346129Y-117581430D01*
X157369228Y-117573165D01*
X157393027Y-117567204D01*
X157417295Y-117563604D01*
X157441799Y-117562400D01*
X158091801Y-117562400D01*
X158116305Y-117563604D01*
X158116305Y-117563604D01*
G37*
D13*
G04 #@! TD*
G04 #@! TO.P,R15,2*
G04 #@! TO.N,GND*
X157766800Y-118262400D03*
D12*
G04 #@! TO.N,/AR6*
G04 #@! TO.C,R15*
G36*
X160166305Y-117563604D02*
X160190573Y-117567204D01*
X160214372Y-117573165D01*
X160237471Y-117581430D01*
X160259650Y-117591920D01*
X160280693Y-117604532D01*
X160300399Y-117619147D01*
X160318577Y-117635623D01*
X160335053Y-117653801D01*
X160349668Y-117673507D01*
X160362280Y-117694550D01*
X160372770Y-117716729D01*
X160381035Y-117739828D01*
X160386996Y-117763627D01*
X160390596Y-117787895D01*
X160391800Y-117812399D01*
X160391800Y-118712401D01*
X160390596Y-118736905D01*
X160386996Y-118761173D01*
X160381035Y-118784972D01*
X160372770Y-118808071D01*
X160362280Y-118830250D01*
X160349668Y-118851293D01*
X160335053Y-118870999D01*
X160318577Y-118889177D01*
X160300399Y-118905653D01*
X160280693Y-118920268D01*
X160259650Y-118932880D01*
X160237471Y-118943370D01*
X160214372Y-118951635D01*
X160190573Y-118957596D01*
X160166305Y-118961196D01*
X160141801Y-118962400D01*
X159491799Y-118962400D01*
X159467295Y-118961196D01*
X159443027Y-118957596D01*
X159419228Y-118951635D01*
X159396129Y-118943370D01*
X159373950Y-118932880D01*
X159352907Y-118920268D01*
X159333201Y-118905653D01*
X159315023Y-118889177D01*
X159298547Y-118870999D01*
X159283932Y-118851293D01*
X159271320Y-118830250D01*
X159260830Y-118808071D01*
X159252565Y-118784972D01*
X159246604Y-118761173D01*
X159243004Y-118736905D01*
X159241800Y-118712401D01*
X159241800Y-117812399D01*
X159243004Y-117787895D01*
X159246604Y-117763627D01*
X159252565Y-117739828D01*
X159260830Y-117716729D01*
X159271320Y-117694550D01*
X159283932Y-117673507D01*
X159298547Y-117653801D01*
X159315023Y-117635623D01*
X159333201Y-117619147D01*
X159352907Y-117604532D01*
X159373950Y-117591920D01*
X159396129Y-117581430D01*
X159419228Y-117573165D01*
X159443027Y-117567204D01*
X159467295Y-117563604D01*
X159491799Y-117562400D01*
X160141801Y-117562400D01*
X160166305Y-117563604D01*
X160166305Y-117563604D01*
G37*
D13*
G04 #@! TD*
G04 #@! TO.P,R15,1*
G04 #@! TO.N,/AR6*
X159816800Y-118262400D03*
D10*
G04 #@! TO.P,J8,16*
G04 #@! TO.N,Net-(J8-Pad16)*
X162661600Y-112877600D03*
G04 #@! TO.P,J8,15*
G04 #@! TO.N,/AR7*
X162661600Y-115417600D03*
G04 #@! TO.P,J8,14*
G04 #@! TO.N,Net-(J8-Pad14)*
X160121600Y-112877600D03*
G04 #@! TO.P,J8,13*
G04 #@! TO.N,/AR6*
X160121600Y-115417600D03*
G04 #@! TO.P,J8,12*
G04 #@! TO.N,Net-(J8-Pad12)*
X157581600Y-112877600D03*
G04 #@! TO.P,J8,11*
G04 #@! TO.N,/AR5*
X157581600Y-115417600D03*
G04 #@! TO.P,J8,10*
G04 #@! TO.N,Net-(J8-Pad10)*
X155041600Y-112877600D03*
G04 #@! TO.P,J8,9*
G04 #@! TO.N,/AR4*
X155041600Y-115417600D03*
G04 #@! TO.P,J8,8*
G04 #@! TO.N,Net-(J8-Pad8)*
X152501600Y-112877600D03*
G04 #@! TO.P,J8,7*
G04 #@! TO.N,/AR3*
X152501600Y-115417600D03*
G04 #@! TO.P,J8,6*
G04 #@! TO.N,Net-(J8-Pad6)*
X149961600Y-112877600D03*
G04 #@! TO.P,J8,5*
G04 #@! TO.N,/AR2*
X149961600Y-115417600D03*
G04 #@! TO.P,J8,4*
G04 #@! TO.N,Net-(J8-Pad4)*
X147421600Y-112877600D03*
G04 #@! TO.P,J8,3*
G04 #@! TO.N,/AR1*
X147421600Y-115417600D03*
G04 #@! TO.P,J8,2*
G04 #@! TO.N,Net-(J8-Pad2)*
X144881600Y-112877600D03*
D11*
G04 #@! TO.P,J8,1*
G04 #@! TO.N,/AR0*
X144881600Y-115417600D03*
G04 #@! TD*
D12*
G04 #@! TO.N,VDD*
G04 #@! TO.C,C2*
G36*
X147863705Y-101802904D02*
X147887973Y-101806504D01*
X147911772Y-101812465D01*
X147934871Y-101820730D01*
X147957050Y-101831220D01*
X147978093Y-101843832D01*
X147997799Y-101858447D01*
X148015977Y-101874923D01*
X148032453Y-101893101D01*
X148047068Y-101912807D01*
X148059680Y-101933850D01*
X148070170Y-101956029D01*
X148078435Y-101979128D01*
X148084396Y-102002927D01*
X148087996Y-102027195D01*
X148089200Y-102051699D01*
X148089200Y-102951701D01*
X148087996Y-102976205D01*
X148084396Y-103000473D01*
X148078435Y-103024272D01*
X148070170Y-103047371D01*
X148059680Y-103069550D01*
X148047068Y-103090593D01*
X148032453Y-103110299D01*
X148015977Y-103128477D01*
X147997799Y-103144953D01*
X147978093Y-103159568D01*
X147957050Y-103172180D01*
X147934871Y-103182670D01*
X147911772Y-103190935D01*
X147887973Y-103196896D01*
X147863705Y-103200496D01*
X147839201Y-103201700D01*
X147189199Y-103201700D01*
X147164695Y-103200496D01*
X147140427Y-103196896D01*
X147116628Y-103190935D01*
X147093529Y-103182670D01*
X147071350Y-103172180D01*
X147050307Y-103159568D01*
X147030601Y-103144953D01*
X147012423Y-103128477D01*
X146995947Y-103110299D01*
X146981332Y-103090593D01*
X146968720Y-103069550D01*
X146958230Y-103047371D01*
X146949965Y-103024272D01*
X146944004Y-103000473D01*
X146940404Y-102976205D01*
X146939200Y-102951701D01*
X146939200Y-102051699D01*
X146940404Y-102027195D01*
X146944004Y-102002927D01*
X146949965Y-101979128D01*
X146958230Y-101956029D01*
X146968720Y-101933850D01*
X146981332Y-101912807D01*
X146995947Y-101893101D01*
X147012423Y-101874923D01*
X147030601Y-101858447D01*
X147050307Y-101843832D01*
X147071350Y-101831220D01*
X147093529Y-101820730D01*
X147116628Y-101812465D01*
X147140427Y-101806504D01*
X147164695Y-101802904D01*
X147189199Y-101801700D01*
X147839201Y-101801700D01*
X147863705Y-101802904D01*
X147863705Y-101802904D01*
G37*
D13*
G04 #@! TD*
G04 #@! TO.P,C2,1*
G04 #@! TO.N,VDD*
X147514200Y-102501700D03*
D12*
G04 #@! TO.N,GND*
G04 #@! TO.C,C2*
G36*
X149913705Y-101802904D02*
X149937973Y-101806504D01*
X149961772Y-101812465D01*
X149984871Y-101820730D01*
X150007050Y-101831220D01*
X150028093Y-101843832D01*
X150047799Y-101858447D01*
X150065977Y-101874923D01*
X150082453Y-101893101D01*
X150097068Y-101912807D01*
X150109680Y-101933850D01*
X150120170Y-101956029D01*
X150128435Y-101979128D01*
X150134396Y-102002927D01*
X150137996Y-102027195D01*
X150139200Y-102051699D01*
X150139200Y-102951701D01*
X150137996Y-102976205D01*
X150134396Y-103000473D01*
X150128435Y-103024272D01*
X150120170Y-103047371D01*
X150109680Y-103069550D01*
X150097068Y-103090593D01*
X150082453Y-103110299D01*
X150065977Y-103128477D01*
X150047799Y-103144953D01*
X150028093Y-103159568D01*
X150007050Y-103172180D01*
X149984871Y-103182670D01*
X149961772Y-103190935D01*
X149937973Y-103196896D01*
X149913705Y-103200496D01*
X149889201Y-103201700D01*
X149239199Y-103201700D01*
X149214695Y-103200496D01*
X149190427Y-103196896D01*
X149166628Y-103190935D01*
X149143529Y-103182670D01*
X149121350Y-103172180D01*
X149100307Y-103159568D01*
X149080601Y-103144953D01*
X149062423Y-103128477D01*
X149045947Y-103110299D01*
X149031332Y-103090593D01*
X149018720Y-103069550D01*
X149008230Y-103047371D01*
X148999965Y-103024272D01*
X148994004Y-103000473D01*
X148990404Y-102976205D01*
X148989200Y-102951701D01*
X148989200Y-102051699D01*
X148990404Y-102027195D01*
X148994004Y-102002927D01*
X148999965Y-101979128D01*
X149008230Y-101956029D01*
X149018720Y-101933850D01*
X149031332Y-101912807D01*
X149045947Y-101893101D01*
X149062423Y-101874923D01*
X149080601Y-101858447D01*
X149100307Y-101843832D01*
X149121350Y-101831220D01*
X149143529Y-101820730D01*
X149166628Y-101812465D01*
X149190427Y-101806504D01*
X149214695Y-101802904D01*
X149239199Y-101801700D01*
X149889201Y-101801700D01*
X149913705Y-101802904D01*
X149913705Y-101802904D01*
G37*
D13*
G04 #@! TD*
G04 #@! TO.P,C2,2*
G04 #@! TO.N,GND*
X149564200Y-102501700D03*
D12*
G04 #@! TO.N,Net-(D2-Pad2)*
G04 #@! TO.C,D2*
G36*
X122693905Y-115252204D02*
X122718173Y-115255804D01*
X122741972Y-115261765D01*
X122765071Y-115270030D01*
X122787250Y-115280520D01*
X122808293Y-115293132D01*
X122827999Y-115307747D01*
X122846177Y-115324223D01*
X122862653Y-115342401D01*
X122877268Y-115362107D01*
X122889880Y-115383150D01*
X122900370Y-115405329D01*
X122908635Y-115428428D01*
X122914596Y-115452227D01*
X122918196Y-115476495D01*
X122919400Y-115500999D01*
X122919400Y-116401001D01*
X122918196Y-116425505D01*
X122914596Y-116449773D01*
X122908635Y-116473572D01*
X122900370Y-116496671D01*
X122889880Y-116518850D01*
X122877268Y-116539893D01*
X122862653Y-116559599D01*
X122846177Y-116577777D01*
X122827999Y-116594253D01*
X122808293Y-116608868D01*
X122787250Y-116621480D01*
X122765071Y-116631970D01*
X122741972Y-116640235D01*
X122718173Y-116646196D01*
X122693905Y-116649796D01*
X122669401Y-116651000D01*
X122019399Y-116651000D01*
X121994895Y-116649796D01*
X121970627Y-116646196D01*
X121946828Y-116640235D01*
X121923729Y-116631970D01*
X121901550Y-116621480D01*
X121880507Y-116608868D01*
X121860801Y-116594253D01*
X121842623Y-116577777D01*
X121826147Y-116559599D01*
X121811532Y-116539893D01*
X121798920Y-116518850D01*
X121788430Y-116496671D01*
X121780165Y-116473572D01*
X121774204Y-116449773D01*
X121770604Y-116425505D01*
X121769400Y-116401001D01*
X121769400Y-115500999D01*
X121770604Y-115476495D01*
X121774204Y-115452227D01*
X121780165Y-115428428D01*
X121788430Y-115405329D01*
X121798920Y-115383150D01*
X121811532Y-115362107D01*
X121826147Y-115342401D01*
X121842623Y-115324223D01*
X121860801Y-115307747D01*
X121880507Y-115293132D01*
X121901550Y-115280520D01*
X121923729Y-115270030D01*
X121946828Y-115261765D01*
X121970627Y-115255804D01*
X121994895Y-115252204D01*
X122019399Y-115251000D01*
X122669401Y-115251000D01*
X122693905Y-115252204D01*
X122693905Y-115252204D01*
G37*
D13*
G04 #@! TD*
G04 #@! TO.P,D2,2*
G04 #@! TO.N,Net-(D2-Pad2)*
X122344400Y-115951000D03*
D12*
G04 #@! TO.N,GND*
G04 #@! TO.C,D2*
G36*
X120643905Y-115252204D02*
X120668173Y-115255804D01*
X120691972Y-115261765D01*
X120715071Y-115270030D01*
X120737250Y-115280520D01*
X120758293Y-115293132D01*
X120777999Y-115307747D01*
X120796177Y-115324223D01*
X120812653Y-115342401D01*
X120827268Y-115362107D01*
X120839880Y-115383150D01*
X120850370Y-115405329D01*
X120858635Y-115428428D01*
X120864596Y-115452227D01*
X120868196Y-115476495D01*
X120869400Y-115500999D01*
X120869400Y-116401001D01*
X120868196Y-116425505D01*
X120864596Y-116449773D01*
X120858635Y-116473572D01*
X120850370Y-116496671D01*
X120839880Y-116518850D01*
X120827268Y-116539893D01*
X120812653Y-116559599D01*
X120796177Y-116577777D01*
X120777999Y-116594253D01*
X120758293Y-116608868D01*
X120737250Y-116621480D01*
X120715071Y-116631970D01*
X120691972Y-116640235D01*
X120668173Y-116646196D01*
X120643905Y-116649796D01*
X120619401Y-116651000D01*
X119969399Y-116651000D01*
X119944895Y-116649796D01*
X119920627Y-116646196D01*
X119896828Y-116640235D01*
X119873729Y-116631970D01*
X119851550Y-116621480D01*
X119830507Y-116608868D01*
X119810801Y-116594253D01*
X119792623Y-116577777D01*
X119776147Y-116559599D01*
X119761532Y-116539893D01*
X119748920Y-116518850D01*
X119738430Y-116496671D01*
X119730165Y-116473572D01*
X119724204Y-116449773D01*
X119720604Y-116425505D01*
X119719400Y-116401001D01*
X119719400Y-115500999D01*
X119720604Y-115476495D01*
X119724204Y-115452227D01*
X119730165Y-115428428D01*
X119738430Y-115405329D01*
X119748920Y-115383150D01*
X119761532Y-115362107D01*
X119776147Y-115342401D01*
X119792623Y-115324223D01*
X119810801Y-115307747D01*
X119830507Y-115293132D01*
X119851550Y-115280520D01*
X119873729Y-115270030D01*
X119896828Y-115261765D01*
X119920627Y-115255804D01*
X119944895Y-115252204D01*
X119969399Y-115251000D01*
X120619401Y-115251000D01*
X120643905Y-115252204D01*
X120643905Y-115252204D01*
G37*
D13*
G04 #@! TD*
G04 #@! TO.P,D2,1*
G04 #@! TO.N,GND*
X120294400Y-115951000D03*
D14*
G04 #@! TO.P,BZ1,2*
G04 #@! TO.N,Net-(BZ1-Pad2)*
X105727500Y-99013000D03*
G04 #@! TO.P,BZ1,1*
G04 #@! TO.N,Net-(BZ1-Pad1)*
X105727500Y-109013000D03*
G04 #@! TD*
D10*
G04 #@! TO.P,J5,20*
G04 #@! TO.N,GND*
X167868600Y-91897200D03*
G04 #@! TO.P,J5,19*
G04 #@! TO.N,N/C*
X170408600Y-91897200D03*
G04 #@! TO.P,J5,18*
G04 #@! TO.N,GND*
X167868600Y-94437200D03*
G04 #@! TO.P,J5,17*
G04 #@! TO.N,N/C*
X170408600Y-94437200D03*
G04 #@! TO.P,J5,16*
G04 #@! TO.N,GND*
X167868600Y-96977200D03*
G04 #@! TO.P,J5,15*
G04 #@! TO.N,N/C*
X170408600Y-96977200D03*
G04 #@! TO.P,J5,14*
G04 #@! TO.N,GND*
X167868600Y-99517200D03*
G04 #@! TO.P,J5,13*
G04 #@! TO.N,/BCM24_TDO*
X170408600Y-99517200D03*
G04 #@! TO.P,J5,12*
G04 #@! TO.N,GND*
X167868600Y-102057200D03*
G04 #@! TO.P,J5,11*
G04 #@! TO.N,/BCM23_RTCK*
X170408600Y-102057200D03*
G04 #@! TO.P,J5,10*
G04 #@! TO.N,GND*
X167868600Y-104597200D03*
G04 #@! TO.P,J5,9*
G04 #@! TO.N,/BCM25_TCK*
X170408600Y-104597200D03*
G04 #@! TO.P,J5,8*
G04 #@! TO.N,GND*
X167868600Y-107137200D03*
G04 #@! TO.P,J5,7*
G04 #@! TO.N,/BCM27_TMS*
X170408600Y-107137200D03*
G04 #@! TO.P,J5,6*
G04 #@! TO.N,GND*
X167868600Y-109677200D03*
G04 #@! TO.P,J5,5*
G04 #@! TO.N,/BCM4_TDI*
X170408600Y-109677200D03*
G04 #@! TO.P,J5,4*
G04 #@! TO.N,GND*
X167868600Y-112217200D03*
G04 #@! TO.P,J5,3*
G04 #@! TO.N,/BCM22_TRST*
X170408600Y-112217200D03*
G04 #@! TO.P,J5,2*
G04 #@! TO.N,Net-(J5-Pad2)*
X167868600Y-114757200D03*
D11*
G04 #@! TO.P,J5,1*
G04 #@! TO.N,+3V3*
X170408600Y-114757200D03*
G04 #@! TD*
D10*
G04 #@! TO.P,J2,10*
G04 #@! TO.N,/CE_DAC*
X125577600Y-101295200D03*
G04 #@! TO.P,J2,9*
G04 #@! TO.N,/BCM7_CE1*
X125577600Y-98755200D03*
G04 #@! TO.P,J2,8*
G04 #@! TO.N,/CE_ADC*
X128117600Y-101295200D03*
G04 #@! TO.P,J2,7*
G04 #@! TO.N,/BCM8_CE0*
X128117600Y-98755200D03*
G04 #@! TO.P,J2,6*
G04 #@! TO.N,/SCLK*
X130657600Y-101295200D03*
G04 #@! TO.P,J2,5*
G04 #@! TO.N,/BCM11_SCLK*
X130657600Y-98755200D03*
G04 #@! TO.P,J2,4*
G04 #@! TO.N,/MISO*
X133197600Y-101295200D03*
G04 #@! TO.P,J2,3*
G04 #@! TO.N,/BCM9_MISO*
X133197600Y-98755200D03*
G04 #@! TO.P,J2,2*
G04 #@! TO.N,/MOSI*
X135737600Y-101295200D03*
D11*
G04 #@! TO.P,J2,1*
G04 #@! TO.N,/BCM10_MOSI*
X135737600Y-98755200D03*
G04 #@! TD*
D10*
G04 #@! TO.P,J13,6*
G04 #@! TO.N,/BCM16_CTS*
X144399000Y-91871800D03*
G04 #@! TO.P,J13,5*
G04 #@! TO.N,/BCM14_TX*
X141859000Y-91871800D03*
G04 #@! TO.P,J13,4*
G04 #@! TO.N,/BCM15_RX*
X139319000Y-91871800D03*
G04 #@! TO.P,J13,3*
G04 #@! TO.N,N/C*
X136779000Y-91871800D03*
G04 #@! TO.P,J13,2*
G04 #@! TO.N,/BCM17_RTS*
X134239000Y-91871800D03*
D11*
G04 #@! TO.P,J13,1*
G04 #@! TO.N,GND*
X131699000Y-91871800D03*
G04 #@! TD*
D15*
G04 #@! TO.P,U1,1*
G04 #@! TO.N,Net-(J8-Pad2)*
X154711400Y-108986300D03*
G04 #@! TO.P,U1,2*
G04 #@! TO.N,Net-(J8-Pad4)*
X155981400Y-108986300D03*
G04 #@! TO.P,U1,3*
G04 #@! TO.N,Net-(J8-Pad6)*
X157251400Y-108986300D03*
G04 #@! TO.P,U1,4*
G04 #@! TO.N,Net-(J8-Pad8)*
X158521400Y-108986300D03*
G04 #@! TO.P,U1,5*
G04 #@! TO.N,Net-(J8-Pad10)*
X159791400Y-108986300D03*
G04 #@! TO.P,U1,6*
G04 #@! TO.N,Net-(J8-Pad12)*
X161061400Y-108986300D03*
G04 #@! TO.P,U1,7*
G04 #@! TO.N,Net-(J8-Pad14)*
X162331400Y-108986300D03*
G04 #@! TO.P,U1,8*
G04 #@! TO.N,Net-(J8-Pad16)*
X163601400Y-108986300D03*
G04 #@! TO.P,U1,9*
G04 #@! TO.N,GND*
X163601400Y-103586300D03*
G04 #@! TO.P,U1,10*
G04 #@! TO.N,/CE_ADC*
X162331400Y-103586300D03*
G04 #@! TO.P,U1,11*
G04 #@! TO.N,/MOSI*
X161061400Y-103586300D03*
G04 #@! TO.P,U1,12*
G04 #@! TO.N,/MISO*
X159791400Y-103586300D03*
G04 #@! TO.P,U1,13*
G04 #@! TO.N,/SCLK*
X158521400Y-103586300D03*
G04 #@! TO.P,U1,14*
G04 #@! TO.N,GND*
X157251400Y-103586300D03*
G04 #@! TO.P,U1,15*
G04 #@! TO.N,Net-(J11-Pad2)*
X155981400Y-103586300D03*
G04 #@! TO.P,U1,16*
G04 #@! TO.N,VDD*
X154711400Y-103586300D03*
G04 #@! TD*
D12*
G04 #@! TO.N,Net-(D2-Pad2)*
G04 #@! TO.C,R2*
G36*
X122693905Y-113220204D02*
X122718173Y-113223804D01*
X122741972Y-113229765D01*
X122765071Y-113238030D01*
X122787250Y-113248520D01*
X122808293Y-113261132D01*
X122827999Y-113275747D01*
X122846177Y-113292223D01*
X122862653Y-113310401D01*
X122877268Y-113330107D01*
X122889880Y-113351150D01*
X122900370Y-113373329D01*
X122908635Y-113396428D01*
X122914596Y-113420227D01*
X122918196Y-113444495D01*
X122919400Y-113468999D01*
X122919400Y-114369001D01*
X122918196Y-114393505D01*
X122914596Y-114417773D01*
X122908635Y-114441572D01*
X122900370Y-114464671D01*
X122889880Y-114486850D01*
X122877268Y-114507893D01*
X122862653Y-114527599D01*
X122846177Y-114545777D01*
X122827999Y-114562253D01*
X122808293Y-114576868D01*
X122787250Y-114589480D01*
X122765071Y-114599970D01*
X122741972Y-114608235D01*
X122718173Y-114614196D01*
X122693905Y-114617796D01*
X122669401Y-114619000D01*
X122019399Y-114619000D01*
X121994895Y-114617796D01*
X121970627Y-114614196D01*
X121946828Y-114608235D01*
X121923729Y-114599970D01*
X121901550Y-114589480D01*
X121880507Y-114576868D01*
X121860801Y-114562253D01*
X121842623Y-114545777D01*
X121826147Y-114527599D01*
X121811532Y-114507893D01*
X121798920Y-114486850D01*
X121788430Y-114464671D01*
X121780165Y-114441572D01*
X121774204Y-114417773D01*
X121770604Y-114393505D01*
X121769400Y-114369001D01*
X121769400Y-113468999D01*
X121770604Y-113444495D01*
X121774204Y-113420227D01*
X121780165Y-113396428D01*
X121788430Y-113373329D01*
X121798920Y-113351150D01*
X121811532Y-113330107D01*
X121826147Y-113310401D01*
X121842623Y-113292223D01*
X121860801Y-113275747D01*
X121880507Y-113261132D01*
X121901550Y-113248520D01*
X121923729Y-113238030D01*
X121946828Y-113229765D01*
X121970627Y-113223804D01*
X121994895Y-113220204D01*
X122019399Y-113219000D01*
X122669401Y-113219000D01*
X122693905Y-113220204D01*
X122693905Y-113220204D01*
G37*
D13*
G04 #@! TD*
G04 #@! TO.P,R2,2*
G04 #@! TO.N,Net-(D2-Pad2)*
X122344400Y-113919000D03*
D12*
G04 #@! TO.N,/L2*
G04 #@! TO.C,R2*
G36*
X120643905Y-113220204D02*
X120668173Y-113223804D01*
X120691972Y-113229765D01*
X120715071Y-113238030D01*
X120737250Y-113248520D01*
X120758293Y-113261132D01*
X120777999Y-113275747D01*
X120796177Y-113292223D01*
X120812653Y-113310401D01*
X120827268Y-113330107D01*
X120839880Y-113351150D01*
X120850370Y-113373329D01*
X120858635Y-113396428D01*
X120864596Y-113420227D01*
X120868196Y-113444495D01*
X120869400Y-113468999D01*
X120869400Y-114369001D01*
X120868196Y-114393505D01*
X120864596Y-114417773D01*
X120858635Y-114441572D01*
X120850370Y-114464671D01*
X120839880Y-114486850D01*
X120827268Y-114507893D01*
X120812653Y-114527599D01*
X120796177Y-114545777D01*
X120777999Y-114562253D01*
X120758293Y-114576868D01*
X120737250Y-114589480D01*
X120715071Y-114599970D01*
X120691972Y-114608235D01*
X120668173Y-114614196D01*
X120643905Y-114617796D01*
X120619401Y-114619000D01*
X119969399Y-114619000D01*
X119944895Y-114617796D01*
X119920627Y-114614196D01*
X119896828Y-114608235D01*
X119873729Y-114599970D01*
X119851550Y-114589480D01*
X119830507Y-114576868D01*
X119810801Y-114562253D01*
X119792623Y-114545777D01*
X119776147Y-114527599D01*
X119761532Y-114507893D01*
X119748920Y-114486850D01*
X119738430Y-114464671D01*
X119730165Y-114441572D01*
X119724204Y-114417773D01*
X119720604Y-114393505D01*
X119719400Y-114369001D01*
X119719400Y-113468999D01*
X119720604Y-113444495D01*
X119724204Y-113420227D01*
X119730165Y-113396428D01*
X119738430Y-113373329D01*
X119748920Y-113351150D01*
X119761532Y-113330107D01*
X119776147Y-113310401D01*
X119792623Y-113292223D01*
X119810801Y-113275747D01*
X119830507Y-113261132D01*
X119851550Y-113248520D01*
X119873729Y-113238030D01*
X119896828Y-113229765D01*
X119920627Y-113223804D01*
X119944895Y-113220204D01*
X119969399Y-113219000D01*
X120619401Y-113219000D01*
X120643905Y-113220204D01*
X120643905Y-113220204D01*
G37*
D13*
G04 #@! TD*
G04 #@! TO.P,R2,1*
G04 #@! TO.N,/L2*
X120294400Y-113919000D03*
D12*
G04 #@! TO.N,Net-(D3-Pad2)*
G04 #@! TO.C,R3*
G36*
X116842905Y-113220204D02*
X116867173Y-113223804D01*
X116890972Y-113229765D01*
X116914071Y-113238030D01*
X116936250Y-113248520D01*
X116957293Y-113261132D01*
X116976999Y-113275747D01*
X116995177Y-113292223D01*
X117011653Y-113310401D01*
X117026268Y-113330107D01*
X117038880Y-113351150D01*
X117049370Y-113373329D01*
X117057635Y-113396428D01*
X117063596Y-113420227D01*
X117067196Y-113444495D01*
X117068400Y-113468999D01*
X117068400Y-114369001D01*
X117067196Y-114393505D01*
X117063596Y-114417773D01*
X117057635Y-114441572D01*
X117049370Y-114464671D01*
X117038880Y-114486850D01*
X117026268Y-114507893D01*
X117011653Y-114527599D01*
X116995177Y-114545777D01*
X116976999Y-114562253D01*
X116957293Y-114576868D01*
X116936250Y-114589480D01*
X116914071Y-114599970D01*
X116890972Y-114608235D01*
X116867173Y-114614196D01*
X116842905Y-114617796D01*
X116818401Y-114619000D01*
X116168399Y-114619000D01*
X116143895Y-114617796D01*
X116119627Y-114614196D01*
X116095828Y-114608235D01*
X116072729Y-114599970D01*
X116050550Y-114589480D01*
X116029507Y-114576868D01*
X116009801Y-114562253D01*
X115991623Y-114545777D01*
X115975147Y-114527599D01*
X115960532Y-114507893D01*
X115947920Y-114486850D01*
X115937430Y-114464671D01*
X115929165Y-114441572D01*
X115923204Y-114417773D01*
X115919604Y-114393505D01*
X115918400Y-114369001D01*
X115918400Y-113468999D01*
X115919604Y-113444495D01*
X115923204Y-113420227D01*
X115929165Y-113396428D01*
X115937430Y-113373329D01*
X115947920Y-113351150D01*
X115960532Y-113330107D01*
X115975147Y-113310401D01*
X115991623Y-113292223D01*
X116009801Y-113275747D01*
X116029507Y-113261132D01*
X116050550Y-113248520D01*
X116072729Y-113238030D01*
X116095828Y-113229765D01*
X116119627Y-113223804D01*
X116143895Y-113220204D01*
X116168399Y-113219000D01*
X116818401Y-113219000D01*
X116842905Y-113220204D01*
X116842905Y-113220204D01*
G37*
D13*
G04 #@! TD*
G04 #@! TO.P,R3,2*
G04 #@! TO.N,Net-(D3-Pad2)*
X116493400Y-113919000D03*
D12*
G04 #@! TO.N,/L3*
G04 #@! TO.C,R3*
G36*
X114792905Y-113220204D02*
X114817173Y-113223804D01*
X114840972Y-113229765D01*
X114864071Y-113238030D01*
X114886250Y-113248520D01*
X114907293Y-113261132D01*
X114926999Y-113275747D01*
X114945177Y-113292223D01*
X114961653Y-113310401D01*
X114976268Y-113330107D01*
X114988880Y-113351150D01*
X114999370Y-113373329D01*
X115007635Y-113396428D01*
X115013596Y-113420227D01*
X115017196Y-113444495D01*
X115018400Y-113468999D01*
X115018400Y-114369001D01*
X115017196Y-114393505D01*
X115013596Y-114417773D01*
X115007635Y-114441572D01*
X114999370Y-114464671D01*
X114988880Y-114486850D01*
X114976268Y-114507893D01*
X114961653Y-114527599D01*
X114945177Y-114545777D01*
X114926999Y-114562253D01*
X114907293Y-114576868D01*
X114886250Y-114589480D01*
X114864071Y-114599970D01*
X114840972Y-114608235D01*
X114817173Y-114614196D01*
X114792905Y-114617796D01*
X114768401Y-114619000D01*
X114118399Y-114619000D01*
X114093895Y-114617796D01*
X114069627Y-114614196D01*
X114045828Y-114608235D01*
X114022729Y-114599970D01*
X114000550Y-114589480D01*
X113979507Y-114576868D01*
X113959801Y-114562253D01*
X113941623Y-114545777D01*
X113925147Y-114527599D01*
X113910532Y-114507893D01*
X113897920Y-114486850D01*
X113887430Y-114464671D01*
X113879165Y-114441572D01*
X113873204Y-114417773D01*
X113869604Y-114393505D01*
X113868400Y-114369001D01*
X113868400Y-113468999D01*
X113869604Y-113444495D01*
X113873204Y-113420227D01*
X113879165Y-113396428D01*
X113887430Y-113373329D01*
X113897920Y-113351150D01*
X113910532Y-113330107D01*
X113925147Y-113310401D01*
X113941623Y-113292223D01*
X113959801Y-113275747D01*
X113979507Y-113261132D01*
X114000550Y-113248520D01*
X114022729Y-113238030D01*
X114045828Y-113229765D01*
X114069627Y-113223804D01*
X114093895Y-113220204D01*
X114118399Y-113219000D01*
X114768401Y-113219000D01*
X114792905Y-113220204D01*
X114792905Y-113220204D01*
G37*
D13*
G04 #@! TD*
G04 #@! TO.P,R3,1*
G04 #@! TO.N,/L3*
X114443400Y-113919000D03*
D12*
G04 #@! TO.N,Net-(D1-Pad2)*
G04 #@! TO.C,D1*
G36*
X128526905Y-115252204D02*
X128551173Y-115255804D01*
X128574972Y-115261765D01*
X128598071Y-115270030D01*
X128620250Y-115280520D01*
X128641293Y-115293132D01*
X128660999Y-115307747D01*
X128679177Y-115324223D01*
X128695653Y-115342401D01*
X128710268Y-115362107D01*
X128722880Y-115383150D01*
X128733370Y-115405329D01*
X128741635Y-115428428D01*
X128747596Y-115452227D01*
X128751196Y-115476495D01*
X128752400Y-115500999D01*
X128752400Y-116401001D01*
X128751196Y-116425505D01*
X128747596Y-116449773D01*
X128741635Y-116473572D01*
X128733370Y-116496671D01*
X128722880Y-116518850D01*
X128710268Y-116539893D01*
X128695653Y-116559599D01*
X128679177Y-116577777D01*
X128660999Y-116594253D01*
X128641293Y-116608868D01*
X128620250Y-116621480D01*
X128598071Y-116631970D01*
X128574972Y-116640235D01*
X128551173Y-116646196D01*
X128526905Y-116649796D01*
X128502401Y-116651000D01*
X127852399Y-116651000D01*
X127827895Y-116649796D01*
X127803627Y-116646196D01*
X127779828Y-116640235D01*
X127756729Y-116631970D01*
X127734550Y-116621480D01*
X127713507Y-116608868D01*
X127693801Y-116594253D01*
X127675623Y-116577777D01*
X127659147Y-116559599D01*
X127644532Y-116539893D01*
X127631920Y-116518850D01*
X127621430Y-116496671D01*
X127613165Y-116473572D01*
X127607204Y-116449773D01*
X127603604Y-116425505D01*
X127602400Y-116401001D01*
X127602400Y-115500999D01*
X127603604Y-115476495D01*
X127607204Y-115452227D01*
X127613165Y-115428428D01*
X127621430Y-115405329D01*
X127631920Y-115383150D01*
X127644532Y-115362107D01*
X127659147Y-115342401D01*
X127675623Y-115324223D01*
X127693801Y-115307747D01*
X127713507Y-115293132D01*
X127734550Y-115280520D01*
X127756729Y-115270030D01*
X127779828Y-115261765D01*
X127803627Y-115255804D01*
X127827895Y-115252204D01*
X127852399Y-115251000D01*
X128502401Y-115251000D01*
X128526905Y-115252204D01*
X128526905Y-115252204D01*
G37*
D13*
G04 #@! TD*
G04 #@! TO.P,D1,2*
G04 #@! TO.N,Net-(D1-Pad2)*
X128177400Y-115951000D03*
D12*
G04 #@! TO.N,GND*
G04 #@! TO.C,D1*
G36*
X126476905Y-115252204D02*
X126501173Y-115255804D01*
X126524972Y-115261765D01*
X126548071Y-115270030D01*
X126570250Y-115280520D01*
X126591293Y-115293132D01*
X126610999Y-115307747D01*
X126629177Y-115324223D01*
X126645653Y-115342401D01*
X126660268Y-115362107D01*
X126672880Y-115383150D01*
X126683370Y-115405329D01*
X126691635Y-115428428D01*
X126697596Y-115452227D01*
X126701196Y-115476495D01*
X126702400Y-115500999D01*
X126702400Y-116401001D01*
X126701196Y-116425505D01*
X126697596Y-116449773D01*
X126691635Y-116473572D01*
X126683370Y-116496671D01*
X126672880Y-116518850D01*
X126660268Y-116539893D01*
X126645653Y-116559599D01*
X126629177Y-116577777D01*
X126610999Y-116594253D01*
X126591293Y-116608868D01*
X126570250Y-116621480D01*
X126548071Y-116631970D01*
X126524972Y-116640235D01*
X126501173Y-116646196D01*
X126476905Y-116649796D01*
X126452401Y-116651000D01*
X125802399Y-116651000D01*
X125777895Y-116649796D01*
X125753627Y-116646196D01*
X125729828Y-116640235D01*
X125706729Y-116631970D01*
X125684550Y-116621480D01*
X125663507Y-116608868D01*
X125643801Y-116594253D01*
X125625623Y-116577777D01*
X125609147Y-116559599D01*
X125594532Y-116539893D01*
X125581920Y-116518850D01*
X125571430Y-116496671D01*
X125563165Y-116473572D01*
X125557204Y-116449773D01*
X125553604Y-116425505D01*
X125552400Y-116401001D01*
X125552400Y-115500999D01*
X125553604Y-115476495D01*
X125557204Y-115452227D01*
X125563165Y-115428428D01*
X125571430Y-115405329D01*
X125581920Y-115383150D01*
X125594532Y-115362107D01*
X125609147Y-115342401D01*
X125625623Y-115324223D01*
X125643801Y-115307747D01*
X125663507Y-115293132D01*
X125684550Y-115280520D01*
X125706729Y-115270030D01*
X125729828Y-115261765D01*
X125753627Y-115255804D01*
X125777895Y-115252204D01*
X125802399Y-115251000D01*
X126452401Y-115251000D01*
X126476905Y-115252204D01*
X126476905Y-115252204D01*
G37*
D13*
G04 #@! TD*
G04 #@! TO.P,D1,1*
G04 #@! TO.N,GND*
X126127400Y-115951000D03*
D12*
G04 #@! TO.N,Net-(D1-Pad2)*
G04 #@! TO.C,R1*
G36*
X128517905Y-113220204D02*
X128542173Y-113223804D01*
X128565972Y-113229765D01*
X128589071Y-113238030D01*
X128611250Y-113248520D01*
X128632293Y-113261132D01*
X128651999Y-113275747D01*
X128670177Y-113292223D01*
X128686653Y-113310401D01*
X128701268Y-113330107D01*
X128713880Y-113351150D01*
X128724370Y-113373329D01*
X128732635Y-113396428D01*
X128738596Y-113420227D01*
X128742196Y-113444495D01*
X128743400Y-113468999D01*
X128743400Y-114369001D01*
X128742196Y-114393505D01*
X128738596Y-114417773D01*
X128732635Y-114441572D01*
X128724370Y-114464671D01*
X128713880Y-114486850D01*
X128701268Y-114507893D01*
X128686653Y-114527599D01*
X128670177Y-114545777D01*
X128651999Y-114562253D01*
X128632293Y-114576868D01*
X128611250Y-114589480D01*
X128589071Y-114599970D01*
X128565972Y-114608235D01*
X128542173Y-114614196D01*
X128517905Y-114617796D01*
X128493401Y-114619000D01*
X127843399Y-114619000D01*
X127818895Y-114617796D01*
X127794627Y-114614196D01*
X127770828Y-114608235D01*
X127747729Y-114599970D01*
X127725550Y-114589480D01*
X127704507Y-114576868D01*
X127684801Y-114562253D01*
X127666623Y-114545777D01*
X127650147Y-114527599D01*
X127635532Y-114507893D01*
X127622920Y-114486850D01*
X127612430Y-114464671D01*
X127604165Y-114441572D01*
X127598204Y-114417773D01*
X127594604Y-114393505D01*
X127593400Y-114369001D01*
X127593400Y-113468999D01*
X127594604Y-113444495D01*
X127598204Y-113420227D01*
X127604165Y-113396428D01*
X127612430Y-113373329D01*
X127622920Y-113351150D01*
X127635532Y-113330107D01*
X127650147Y-113310401D01*
X127666623Y-113292223D01*
X127684801Y-113275747D01*
X127704507Y-113261132D01*
X127725550Y-113248520D01*
X127747729Y-113238030D01*
X127770828Y-113229765D01*
X127794627Y-113223804D01*
X127818895Y-113220204D01*
X127843399Y-113219000D01*
X128493401Y-113219000D01*
X128517905Y-113220204D01*
X128517905Y-113220204D01*
G37*
D13*
G04 #@! TD*
G04 #@! TO.P,R1,2*
G04 #@! TO.N,Net-(D1-Pad2)*
X128168400Y-113919000D03*
D12*
G04 #@! TO.N,/L1*
G04 #@! TO.C,R1*
G36*
X126467905Y-113220204D02*
X126492173Y-113223804D01*
X126515972Y-113229765D01*
X126539071Y-113238030D01*
X126561250Y-113248520D01*
X126582293Y-113261132D01*
X126601999Y-113275747D01*
X126620177Y-113292223D01*
X126636653Y-113310401D01*
X126651268Y-113330107D01*
X126663880Y-113351150D01*
X126674370Y-113373329D01*
X126682635Y-113396428D01*
X126688596Y-113420227D01*
X126692196Y-113444495D01*
X126693400Y-113468999D01*
X126693400Y-114369001D01*
X126692196Y-114393505D01*
X126688596Y-114417773D01*
X126682635Y-114441572D01*
X126674370Y-114464671D01*
X126663880Y-114486850D01*
X126651268Y-114507893D01*
X126636653Y-114527599D01*
X126620177Y-114545777D01*
X126601999Y-114562253D01*
X126582293Y-114576868D01*
X126561250Y-114589480D01*
X126539071Y-114599970D01*
X126515972Y-114608235D01*
X126492173Y-114614196D01*
X126467905Y-114617796D01*
X126443401Y-114619000D01*
X125793399Y-114619000D01*
X125768895Y-114617796D01*
X125744627Y-114614196D01*
X125720828Y-114608235D01*
X125697729Y-114599970D01*
X125675550Y-114589480D01*
X125654507Y-114576868D01*
X125634801Y-114562253D01*
X125616623Y-114545777D01*
X125600147Y-114527599D01*
X125585532Y-114507893D01*
X125572920Y-114486850D01*
X125562430Y-114464671D01*
X125554165Y-114441572D01*
X125548204Y-114417773D01*
X125544604Y-114393505D01*
X125543400Y-114369001D01*
X125543400Y-113468999D01*
X125544604Y-113444495D01*
X125548204Y-113420227D01*
X125554165Y-113396428D01*
X125562430Y-113373329D01*
X125572920Y-113351150D01*
X125585532Y-113330107D01*
X125600147Y-113310401D01*
X125616623Y-113292223D01*
X125634801Y-113275747D01*
X125654507Y-113261132D01*
X125675550Y-113248520D01*
X125697729Y-113238030D01*
X125720828Y-113229765D01*
X125744627Y-113223804D01*
X125768895Y-113220204D01*
X125793399Y-113219000D01*
X126443401Y-113219000D01*
X126467905Y-113220204D01*
X126467905Y-113220204D01*
G37*
D13*
G04 #@! TD*
G04 #@! TO.P,R1,1*
G04 #@! TO.N,/L1*
X126118400Y-113919000D03*
D12*
G04 #@! TO.N,Net-(D3-Pad2)*
G04 #@! TO.C,D3*
G36*
X116842905Y-115252204D02*
X116867173Y-115255804D01*
X116890972Y-115261765D01*
X116914071Y-115270030D01*
X116936250Y-115280520D01*
X116957293Y-115293132D01*
X116976999Y-115307747D01*
X116995177Y-115324223D01*
X117011653Y-115342401D01*
X117026268Y-115362107D01*
X117038880Y-115383150D01*
X117049370Y-115405329D01*
X117057635Y-115428428D01*
X117063596Y-115452227D01*
X117067196Y-115476495D01*
X117068400Y-115500999D01*
X117068400Y-116401001D01*
X117067196Y-116425505D01*
X117063596Y-116449773D01*
X117057635Y-116473572D01*
X117049370Y-116496671D01*
X117038880Y-116518850D01*
X117026268Y-116539893D01*
X117011653Y-116559599D01*
X116995177Y-116577777D01*
X116976999Y-116594253D01*
X116957293Y-116608868D01*
X116936250Y-116621480D01*
X116914071Y-116631970D01*
X116890972Y-116640235D01*
X116867173Y-116646196D01*
X116842905Y-116649796D01*
X116818401Y-116651000D01*
X116168399Y-116651000D01*
X116143895Y-116649796D01*
X116119627Y-116646196D01*
X116095828Y-116640235D01*
X116072729Y-116631970D01*
X116050550Y-116621480D01*
X116029507Y-116608868D01*
X116009801Y-116594253D01*
X115991623Y-116577777D01*
X115975147Y-116559599D01*
X115960532Y-116539893D01*
X115947920Y-116518850D01*
X115937430Y-116496671D01*
X115929165Y-116473572D01*
X115923204Y-116449773D01*
X115919604Y-116425505D01*
X115918400Y-116401001D01*
X115918400Y-115500999D01*
X115919604Y-115476495D01*
X115923204Y-115452227D01*
X115929165Y-115428428D01*
X115937430Y-115405329D01*
X115947920Y-115383150D01*
X115960532Y-115362107D01*
X115975147Y-115342401D01*
X115991623Y-115324223D01*
X116009801Y-115307747D01*
X116029507Y-115293132D01*
X116050550Y-115280520D01*
X116072729Y-115270030D01*
X116095828Y-115261765D01*
X116119627Y-115255804D01*
X116143895Y-115252204D01*
X116168399Y-115251000D01*
X116818401Y-115251000D01*
X116842905Y-115252204D01*
X116842905Y-115252204D01*
G37*
D13*
G04 #@! TD*
G04 #@! TO.P,D3,2*
G04 #@! TO.N,Net-(D3-Pad2)*
X116493400Y-115951000D03*
D12*
G04 #@! TO.N,GND*
G04 #@! TO.C,D3*
G36*
X114792905Y-115252204D02*
X114817173Y-115255804D01*
X114840972Y-115261765D01*
X114864071Y-115270030D01*
X114886250Y-115280520D01*
X114907293Y-115293132D01*
X114926999Y-115307747D01*
X114945177Y-115324223D01*
X114961653Y-115342401D01*
X114976268Y-115362107D01*
X114988880Y-115383150D01*
X114999370Y-115405329D01*
X115007635Y-115428428D01*
X115013596Y-115452227D01*
X115017196Y-115476495D01*
X115018400Y-115500999D01*
X115018400Y-116401001D01*
X115017196Y-116425505D01*
X115013596Y-116449773D01*
X115007635Y-116473572D01*
X114999370Y-116496671D01*
X114988880Y-116518850D01*
X114976268Y-116539893D01*
X114961653Y-116559599D01*
X114945177Y-116577777D01*
X114926999Y-116594253D01*
X114907293Y-116608868D01*
X114886250Y-116621480D01*
X114864071Y-116631970D01*
X114840972Y-116640235D01*
X114817173Y-116646196D01*
X114792905Y-116649796D01*
X114768401Y-116651000D01*
X114118399Y-116651000D01*
X114093895Y-116649796D01*
X114069627Y-116646196D01*
X114045828Y-116640235D01*
X114022729Y-116631970D01*
X114000550Y-116621480D01*
X113979507Y-116608868D01*
X113959801Y-116594253D01*
X113941623Y-116577777D01*
X113925147Y-116559599D01*
X113910532Y-116539893D01*
X113897920Y-116518850D01*
X113887430Y-116496671D01*
X113879165Y-116473572D01*
X113873204Y-116449773D01*
X113869604Y-116425505D01*
X113868400Y-116401001D01*
X113868400Y-115500999D01*
X113869604Y-115476495D01*
X113873204Y-115452227D01*
X113879165Y-115428428D01*
X113887430Y-115405329D01*
X113897920Y-115383150D01*
X113910532Y-115362107D01*
X113925147Y-115342401D01*
X113941623Y-115324223D01*
X113959801Y-115307747D01*
X113979507Y-115293132D01*
X114000550Y-115280520D01*
X114022729Y-115270030D01*
X114045828Y-115261765D01*
X114069627Y-115255804D01*
X114093895Y-115252204D01*
X114118399Y-115251000D01*
X114768401Y-115251000D01*
X114792905Y-115252204D01*
X114792905Y-115252204D01*
G37*
D13*
G04 #@! TD*
G04 #@! TO.P,D3,1*
G04 #@! TO.N,GND*
X114443400Y-115951000D03*
D12*
G04 #@! TO.N,/SW1*
G04 #@! TO.C,R4*
G36*
X132665505Y-114934704D02*
X132689773Y-114938304D01*
X132713572Y-114944265D01*
X132736671Y-114952530D01*
X132758850Y-114963020D01*
X132779893Y-114975632D01*
X132799599Y-114990247D01*
X132817777Y-115006723D01*
X132834253Y-115024901D01*
X132848868Y-115044607D01*
X132861480Y-115065650D01*
X132871970Y-115087829D01*
X132880235Y-115110928D01*
X132886196Y-115134727D01*
X132889796Y-115158995D01*
X132891000Y-115183499D01*
X132891000Y-116083501D01*
X132889796Y-116108005D01*
X132886196Y-116132273D01*
X132880235Y-116156072D01*
X132871970Y-116179171D01*
X132861480Y-116201350D01*
X132848868Y-116222393D01*
X132834253Y-116242099D01*
X132817777Y-116260277D01*
X132799599Y-116276753D01*
X132779893Y-116291368D01*
X132758850Y-116303980D01*
X132736671Y-116314470D01*
X132713572Y-116322735D01*
X132689773Y-116328696D01*
X132665505Y-116332296D01*
X132641001Y-116333500D01*
X131990999Y-116333500D01*
X131966495Y-116332296D01*
X131942227Y-116328696D01*
X131918428Y-116322735D01*
X131895329Y-116314470D01*
X131873150Y-116303980D01*
X131852107Y-116291368D01*
X131832401Y-116276753D01*
X131814223Y-116260277D01*
X131797747Y-116242099D01*
X131783132Y-116222393D01*
X131770520Y-116201350D01*
X131760030Y-116179171D01*
X131751765Y-116156072D01*
X131745804Y-116132273D01*
X131742204Y-116108005D01*
X131741000Y-116083501D01*
X131741000Y-115183499D01*
X131742204Y-115158995D01*
X131745804Y-115134727D01*
X131751765Y-115110928D01*
X131760030Y-115087829D01*
X131770520Y-115065650D01*
X131783132Y-115044607D01*
X131797747Y-115024901D01*
X131814223Y-115006723D01*
X131832401Y-114990247D01*
X131852107Y-114975632D01*
X131873150Y-114963020D01*
X131895329Y-114952530D01*
X131918428Y-114944265D01*
X131942227Y-114938304D01*
X131966495Y-114934704D01*
X131990999Y-114933500D01*
X132641001Y-114933500D01*
X132665505Y-114934704D01*
X132665505Y-114934704D01*
G37*
D13*
G04 #@! TD*
G04 #@! TO.P,R4,2*
G04 #@! TO.N,/SW1*
X132316000Y-115633500D03*
D12*
G04 #@! TO.N,+3V3*
G04 #@! TO.C,R4*
G36*
X134715505Y-114934704D02*
X134739773Y-114938304D01*
X134763572Y-114944265D01*
X134786671Y-114952530D01*
X134808850Y-114963020D01*
X134829893Y-114975632D01*
X134849599Y-114990247D01*
X134867777Y-115006723D01*
X134884253Y-115024901D01*
X134898868Y-115044607D01*
X134911480Y-115065650D01*
X134921970Y-115087829D01*
X134930235Y-115110928D01*
X134936196Y-115134727D01*
X134939796Y-115158995D01*
X134941000Y-115183499D01*
X134941000Y-116083501D01*
X134939796Y-116108005D01*
X134936196Y-116132273D01*
X134930235Y-116156072D01*
X134921970Y-116179171D01*
X134911480Y-116201350D01*
X134898868Y-116222393D01*
X134884253Y-116242099D01*
X134867777Y-116260277D01*
X134849599Y-116276753D01*
X134829893Y-116291368D01*
X134808850Y-116303980D01*
X134786671Y-116314470D01*
X134763572Y-116322735D01*
X134739773Y-116328696D01*
X134715505Y-116332296D01*
X134691001Y-116333500D01*
X134040999Y-116333500D01*
X134016495Y-116332296D01*
X133992227Y-116328696D01*
X133968428Y-116322735D01*
X133945329Y-116314470D01*
X133923150Y-116303980D01*
X133902107Y-116291368D01*
X133882401Y-116276753D01*
X133864223Y-116260277D01*
X133847747Y-116242099D01*
X133833132Y-116222393D01*
X133820520Y-116201350D01*
X133810030Y-116179171D01*
X133801765Y-116156072D01*
X133795804Y-116132273D01*
X133792204Y-116108005D01*
X133791000Y-116083501D01*
X133791000Y-115183499D01*
X133792204Y-115158995D01*
X133795804Y-115134727D01*
X133801765Y-115110928D01*
X133810030Y-115087829D01*
X133820520Y-115065650D01*
X133833132Y-115044607D01*
X133847747Y-115024901D01*
X133864223Y-115006723D01*
X133882401Y-114990247D01*
X133902107Y-114975632D01*
X133923150Y-114963020D01*
X133945329Y-114952530D01*
X133968428Y-114944265D01*
X133992227Y-114938304D01*
X134016495Y-114934704D01*
X134040999Y-114933500D01*
X134691001Y-114933500D01*
X134715505Y-114934704D01*
X134715505Y-114934704D01*
G37*
D13*
G04 #@! TD*
G04 #@! TO.P,R4,1*
G04 #@! TO.N,+3V3*
X134366000Y-115633500D03*
D12*
G04 #@! TO.N,/SW2*
G04 #@! TO.C,R5*
G36*
X132665505Y-117030204D02*
X132689773Y-117033804D01*
X132713572Y-117039765D01*
X132736671Y-117048030D01*
X132758850Y-117058520D01*
X132779893Y-117071132D01*
X132799599Y-117085747D01*
X132817777Y-117102223D01*
X132834253Y-117120401D01*
X132848868Y-117140107D01*
X132861480Y-117161150D01*
X132871970Y-117183329D01*
X132880235Y-117206428D01*
X132886196Y-117230227D01*
X132889796Y-117254495D01*
X132891000Y-117278999D01*
X132891000Y-118179001D01*
X132889796Y-118203505D01*
X132886196Y-118227773D01*
X132880235Y-118251572D01*
X132871970Y-118274671D01*
X132861480Y-118296850D01*
X132848868Y-118317893D01*
X132834253Y-118337599D01*
X132817777Y-118355777D01*
X132799599Y-118372253D01*
X132779893Y-118386868D01*
X132758850Y-118399480D01*
X132736671Y-118409970D01*
X132713572Y-118418235D01*
X132689773Y-118424196D01*
X132665505Y-118427796D01*
X132641001Y-118429000D01*
X131990999Y-118429000D01*
X131966495Y-118427796D01*
X131942227Y-118424196D01*
X131918428Y-118418235D01*
X131895329Y-118409970D01*
X131873150Y-118399480D01*
X131852107Y-118386868D01*
X131832401Y-118372253D01*
X131814223Y-118355777D01*
X131797747Y-118337599D01*
X131783132Y-118317893D01*
X131770520Y-118296850D01*
X131760030Y-118274671D01*
X131751765Y-118251572D01*
X131745804Y-118227773D01*
X131742204Y-118203505D01*
X131741000Y-118179001D01*
X131741000Y-117278999D01*
X131742204Y-117254495D01*
X131745804Y-117230227D01*
X131751765Y-117206428D01*
X131760030Y-117183329D01*
X131770520Y-117161150D01*
X131783132Y-117140107D01*
X131797747Y-117120401D01*
X131814223Y-117102223D01*
X131832401Y-117085747D01*
X131852107Y-117071132D01*
X131873150Y-117058520D01*
X131895329Y-117048030D01*
X131918428Y-117039765D01*
X131942227Y-117033804D01*
X131966495Y-117030204D01*
X131990999Y-117029000D01*
X132641001Y-117029000D01*
X132665505Y-117030204D01*
X132665505Y-117030204D01*
G37*
D13*
G04 #@! TD*
G04 #@! TO.P,R5,2*
G04 #@! TO.N,/SW2*
X132316000Y-117729000D03*
D12*
G04 #@! TO.N,+3V3*
G04 #@! TO.C,R5*
G36*
X134715505Y-117030204D02*
X134739773Y-117033804D01*
X134763572Y-117039765D01*
X134786671Y-117048030D01*
X134808850Y-117058520D01*
X134829893Y-117071132D01*
X134849599Y-117085747D01*
X134867777Y-117102223D01*
X134884253Y-117120401D01*
X134898868Y-117140107D01*
X134911480Y-117161150D01*
X134921970Y-117183329D01*
X134930235Y-117206428D01*
X134936196Y-117230227D01*
X134939796Y-117254495D01*
X134941000Y-117278999D01*
X134941000Y-118179001D01*
X134939796Y-118203505D01*
X134936196Y-118227773D01*
X134930235Y-118251572D01*
X134921970Y-118274671D01*
X134911480Y-118296850D01*
X134898868Y-118317893D01*
X134884253Y-118337599D01*
X134867777Y-118355777D01*
X134849599Y-118372253D01*
X134829893Y-118386868D01*
X134808850Y-118399480D01*
X134786671Y-118409970D01*
X134763572Y-118418235D01*
X134739773Y-118424196D01*
X134715505Y-118427796D01*
X134691001Y-118429000D01*
X134040999Y-118429000D01*
X134016495Y-118427796D01*
X133992227Y-118424196D01*
X133968428Y-118418235D01*
X133945329Y-118409970D01*
X133923150Y-118399480D01*
X133902107Y-118386868D01*
X133882401Y-118372253D01*
X133864223Y-118355777D01*
X133847747Y-118337599D01*
X133833132Y-118317893D01*
X133820520Y-118296850D01*
X133810030Y-118274671D01*
X133801765Y-118251572D01*
X133795804Y-118227773D01*
X133792204Y-118203505D01*
X133791000Y-118179001D01*
X133791000Y-117278999D01*
X133792204Y-117254495D01*
X133795804Y-117230227D01*
X133801765Y-117206428D01*
X133810030Y-117183329D01*
X133820520Y-117161150D01*
X133833132Y-117140107D01*
X133847747Y-117120401D01*
X133864223Y-117102223D01*
X133882401Y-117085747D01*
X133902107Y-117071132D01*
X133923150Y-117058520D01*
X133945329Y-117048030D01*
X133968428Y-117039765D01*
X133992227Y-117033804D01*
X134016495Y-117030204D01*
X134040999Y-117029000D01*
X134691001Y-117029000D01*
X134715505Y-117030204D01*
X134715505Y-117030204D01*
G37*
D13*
G04 #@! TD*
G04 #@! TO.P,R5,1*
G04 #@! TO.N,+3V3*
X134366000Y-117729000D03*
D12*
G04 #@! TO.N,/SW3*
G04 #@! TO.C,R6*
G36*
X132674505Y-112839204D02*
X132698773Y-112842804D01*
X132722572Y-112848765D01*
X132745671Y-112857030D01*
X132767850Y-112867520D01*
X132788893Y-112880132D01*
X132808599Y-112894747D01*
X132826777Y-112911223D01*
X132843253Y-112929401D01*
X132857868Y-112949107D01*
X132870480Y-112970150D01*
X132880970Y-112992329D01*
X132889235Y-113015428D01*
X132895196Y-113039227D01*
X132898796Y-113063495D01*
X132900000Y-113087999D01*
X132900000Y-113988001D01*
X132898796Y-114012505D01*
X132895196Y-114036773D01*
X132889235Y-114060572D01*
X132880970Y-114083671D01*
X132870480Y-114105850D01*
X132857868Y-114126893D01*
X132843253Y-114146599D01*
X132826777Y-114164777D01*
X132808599Y-114181253D01*
X132788893Y-114195868D01*
X132767850Y-114208480D01*
X132745671Y-114218970D01*
X132722572Y-114227235D01*
X132698773Y-114233196D01*
X132674505Y-114236796D01*
X132650001Y-114238000D01*
X131999999Y-114238000D01*
X131975495Y-114236796D01*
X131951227Y-114233196D01*
X131927428Y-114227235D01*
X131904329Y-114218970D01*
X131882150Y-114208480D01*
X131861107Y-114195868D01*
X131841401Y-114181253D01*
X131823223Y-114164777D01*
X131806747Y-114146599D01*
X131792132Y-114126893D01*
X131779520Y-114105850D01*
X131769030Y-114083671D01*
X131760765Y-114060572D01*
X131754804Y-114036773D01*
X131751204Y-114012505D01*
X131750000Y-113988001D01*
X131750000Y-113087999D01*
X131751204Y-113063495D01*
X131754804Y-113039227D01*
X131760765Y-113015428D01*
X131769030Y-112992329D01*
X131779520Y-112970150D01*
X131792132Y-112949107D01*
X131806747Y-112929401D01*
X131823223Y-112911223D01*
X131841401Y-112894747D01*
X131861107Y-112880132D01*
X131882150Y-112867520D01*
X131904329Y-112857030D01*
X131927428Y-112848765D01*
X131951227Y-112842804D01*
X131975495Y-112839204D01*
X131999999Y-112838000D01*
X132650001Y-112838000D01*
X132674505Y-112839204D01*
X132674505Y-112839204D01*
G37*
D13*
G04 #@! TD*
G04 #@! TO.P,R6,2*
G04 #@! TO.N,/SW3*
X132325000Y-113538000D03*
D12*
G04 #@! TO.N,+3V3*
G04 #@! TO.C,R6*
G36*
X134724505Y-112839204D02*
X134748773Y-112842804D01*
X134772572Y-112848765D01*
X134795671Y-112857030D01*
X134817850Y-112867520D01*
X134838893Y-112880132D01*
X134858599Y-112894747D01*
X134876777Y-112911223D01*
X134893253Y-112929401D01*
X134907868Y-112949107D01*
X134920480Y-112970150D01*
X134930970Y-112992329D01*
X134939235Y-113015428D01*
X134945196Y-113039227D01*
X134948796Y-113063495D01*
X134950000Y-113087999D01*
X134950000Y-113988001D01*
X134948796Y-114012505D01*
X134945196Y-114036773D01*
X134939235Y-114060572D01*
X134930970Y-114083671D01*
X134920480Y-114105850D01*
X134907868Y-114126893D01*
X134893253Y-114146599D01*
X134876777Y-114164777D01*
X134858599Y-114181253D01*
X134838893Y-114195868D01*
X134817850Y-114208480D01*
X134795671Y-114218970D01*
X134772572Y-114227235D01*
X134748773Y-114233196D01*
X134724505Y-114236796D01*
X134700001Y-114238000D01*
X134049999Y-114238000D01*
X134025495Y-114236796D01*
X134001227Y-114233196D01*
X133977428Y-114227235D01*
X133954329Y-114218970D01*
X133932150Y-114208480D01*
X133911107Y-114195868D01*
X133891401Y-114181253D01*
X133873223Y-114164777D01*
X133856747Y-114146599D01*
X133842132Y-114126893D01*
X133829520Y-114105850D01*
X133819030Y-114083671D01*
X133810765Y-114060572D01*
X133804804Y-114036773D01*
X133801204Y-114012505D01*
X133800000Y-113988001D01*
X133800000Y-113087999D01*
X133801204Y-113063495D01*
X133804804Y-113039227D01*
X133810765Y-113015428D01*
X133819030Y-112992329D01*
X133829520Y-112970150D01*
X133842132Y-112949107D01*
X133856747Y-112929401D01*
X133873223Y-112911223D01*
X133891401Y-112894747D01*
X133911107Y-112880132D01*
X133932150Y-112867520D01*
X133954329Y-112857030D01*
X133977428Y-112848765D01*
X134001227Y-112842804D01*
X134025495Y-112839204D01*
X134049999Y-112838000D01*
X134700001Y-112838000D01*
X134724505Y-112839204D01*
X134724505Y-112839204D01*
G37*
D13*
G04 #@! TD*
G04 #@! TO.P,R6,1*
G04 #@! TO.N,+3V3*
X134375000Y-113538000D03*
D16*
G04 #@! TO.P,SW1,2*
G04 #@! TO.N,GND*
X137582500Y-124360500D03*
X128482500Y-124360500D03*
G04 #@! TO.P,SW1,1*
G04 #@! TO.N,/SW1*
X137582500Y-119860500D03*
X128482500Y-119860500D03*
G04 #@! TD*
G04 #@! TO.P,SW2,2*
G04 #@! TO.N,GND*
X125581000Y-124360500D03*
X116481000Y-124360500D03*
G04 #@! TO.P,SW2,1*
G04 #@! TO.N,/SW2*
X125581000Y-119860500D03*
X116481000Y-119860500D03*
G04 #@! TD*
G04 #@! TO.P,SW3,2*
G04 #@! TO.N,GND*
X113325500Y-124360500D03*
X104225500Y-124360500D03*
G04 #@! TO.P,SW3,1*
G04 #@! TO.N,/SW3*
X113325500Y-119860500D03*
X104225500Y-119860500D03*
G04 #@! TD*
D17*
G04 #@! TO.P,U2,1*
G04 #@! TO.N,VDD*
X145745200Y-103268800D03*
G04 #@! TO.P,U2,2*
G04 #@! TO.N,/CE_DAC*
X144475200Y-103268800D03*
G04 #@! TO.P,U2,3*
G04 #@! TO.N,/SCLK*
X143205200Y-103268800D03*
G04 #@! TO.P,U2,4*
G04 #@! TO.N,/MOSI*
X141935200Y-103268800D03*
G04 #@! TO.P,U2,5*
G04 #@! TO.N,Net-(J9-Pad2)*
X141935200Y-108668800D03*
G04 #@! TO.P,U2,6*
G04 #@! TO.N,Net-(J10-Pad1)*
X143205200Y-108668800D03*
G04 #@! TO.P,U2,7*
G04 #@! TO.N,GND*
X144475200Y-108668800D03*
G04 #@! TO.P,U2,8*
G04 #@! TO.N,Net-(J12-Pad2)*
X145745200Y-108668800D03*
G04 #@! TD*
D12*
G04 #@! TO.N,VDD*
G04 #@! TO.C,C1*
G36*
X153280905Y-102900504D02*
X153305173Y-102904104D01*
X153328972Y-102910065D01*
X153352071Y-102918330D01*
X153374250Y-102928820D01*
X153395293Y-102941432D01*
X153414999Y-102956047D01*
X153433177Y-102972523D01*
X153449653Y-102990701D01*
X153464268Y-103010407D01*
X153476880Y-103031450D01*
X153487370Y-103053629D01*
X153495635Y-103076728D01*
X153501596Y-103100527D01*
X153505196Y-103124795D01*
X153506400Y-103149299D01*
X153506400Y-103799301D01*
X153505196Y-103823805D01*
X153501596Y-103848073D01*
X153495635Y-103871872D01*
X153487370Y-103894971D01*
X153476880Y-103917150D01*
X153464268Y-103938193D01*
X153449653Y-103957899D01*
X153433177Y-103976077D01*
X153414999Y-103992553D01*
X153395293Y-104007168D01*
X153374250Y-104019780D01*
X153352071Y-104030270D01*
X153328972Y-104038535D01*
X153305173Y-104044496D01*
X153280905Y-104048096D01*
X153256401Y-104049300D01*
X152356399Y-104049300D01*
X152331895Y-104048096D01*
X152307627Y-104044496D01*
X152283828Y-104038535D01*
X152260729Y-104030270D01*
X152238550Y-104019780D01*
X152217507Y-104007168D01*
X152197801Y-103992553D01*
X152179623Y-103976077D01*
X152163147Y-103957899D01*
X152148532Y-103938193D01*
X152135920Y-103917150D01*
X152125430Y-103894971D01*
X152117165Y-103871872D01*
X152111204Y-103848073D01*
X152107604Y-103823805D01*
X152106400Y-103799301D01*
X152106400Y-103149299D01*
X152107604Y-103124795D01*
X152111204Y-103100527D01*
X152117165Y-103076728D01*
X152125430Y-103053629D01*
X152135920Y-103031450D01*
X152148532Y-103010407D01*
X152163147Y-102990701D01*
X152179623Y-102972523D01*
X152197801Y-102956047D01*
X152217507Y-102941432D01*
X152238550Y-102928820D01*
X152260729Y-102918330D01*
X152283828Y-102910065D01*
X152307627Y-102904104D01*
X152331895Y-102900504D01*
X152356399Y-102899300D01*
X153256401Y-102899300D01*
X153280905Y-102900504D01*
X153280905Y-102900504D01*
G37*
D13*
G04 #@! TD*
G04 #@! TO.P,C1,1*
G04 #@! TO.N,VDD*
X152806400Y-103474300D03*
D12*
G04 #@! TO.N,GND*
G04 #@! TO.C,C1*
G36*
X153280905Y-104950504D02*
X153305173Y-104954104D01*
X153328972Y-104960065D01*
X153352071Y-104968330D01*
X153374250Y-104978820D01*
X153395293Y-104991432D01*
X153414999Y-105006047D01*
X153433177Y-105022523D01*
X153449653Y-105040701D01*
X153464268Y-105060407D01*
X153476880Y-105081450D01*
X153487370Y-105103629D01*
X153495635Y-105126728D01*
X153501596Y-105150527D01*
X153505196Y-105174795D01*
X153506400Y-105199299D01*
X153506400Y-105849301D01*
X153505196Y-105873805D01*
X153501596Y-105898073D01*
X153495635Y-105921872D01*
X153487370Y-105944971D01*
X153476880Y-105967150D01*
X153464268Y-105988193D01*
X153449653Y-106007899D01*
X153433177Y-106026077D01*
X153414999Y-106042553D01*
X153395293Y-106057168D01*
X153374250Y-106069780D01*
X153352071Y-106080270D01*
X153328972Y-106088535D01*
X153305173Y-106094496D01*
X153280905Y-106098096D01*
X153256401Y-106099300D01*
X152356399Y-106099300D01*
X152331895Y-106098096D01*
X152307627Y-106094496D01*
X152283828Y-106088535D01*
X152260729Y-106080270D01*
X152238550Y-106069780D01*
X152217507Y-106057168D01*
X152197801Y-106042553D01*
X152179623Y-106026077D01*
X152163147Y-106007899D01*
X152148532Y-105988193D01*
X152135920Y-105967150D01*
X152125430Y-105944971D01*
X152117165Y-105921872D01*
X152111204Y-105898073D01*
X152107604Y-105873805D01*
X152106400Y-105849301D01*
X152106400Y-105199299D01*
X152107604Y-105174795D01*
X152111204Y-105150527D01*
X152117165Y-105126728D01*
X152125430Y-105103629D01*
X152135920Y-105081450D01*
X152148532Y-105060407D01*
X152163147Y-105040701D01*
X152179623Y-105022523D01*
X152197801Y-105006047D01*
X152217507Y-104991432D01*
X152238550Y-104978820D01*
X152260729Y-104968330D01*
X152283828Y-104960065D01*
X152307627Y-104954104D01*
X152331895Y-104950504D01*
X152356399Y-104949300D01*
X153256401Y-104949300D01*
X153280905Y-104950504D01*
X153280905Y-104950504D01*
G37*
D13*
G04 #@! TD*
G04 #@! TO.P,C1,2*
G04 #@! TO.N,GND*
X152806400Y-105524300D03*
D12*
G04 #@! TO.N,VDD*
G04 #@! TO.C,C3*
G36*
X147863705Y-99770904D02*
X147887973Y-99774504D01*
X147911772Y-99780465D01*
X147934871Y-99788730D01*
X147957050Y-99799220D01*
X147978093Y-99811832D01*
X147997799Y-99826447D01*
X148015977Y-99842923D01*
X148032453Y-99861101D01*
X148047068Y-99880807D01*
X148059680Y-99901850D01*
X148070170Y-99924029D01*
X148078435Y-99947128D01*
X148084396Y-99970927D01*
X148087996Y-99995195D01*
X148089200Y-100019699D01*
X148089200Y-100919701D01*
X148087996Y-100944205D01*
X148084396Y-100968473D01*
X148078435Y-100992272D01*
X148070170Y-101015371D01*
X148059680Y-101037550D01*
X148047068Y-101058593D01*
X148032453Y-101078299D01*
X148015977Y-101096477D01*
X147997799Y-101112953D01*
X147978093Y-101127568D01*
X147957050Y-101140180D01*
X147934871Y-101150670D01*
X147911772Y-101158935D01*
X147887973Y-101164896D01*
X147863705Y-101168496D01*
X147839201Y-101169700D01*
X147189199Y-101169700D01*
X147164695Y-101168496D01*
X147140427Y-101164896D01*
X147116628Y-101158935D01*
X147093529Y-101150670D01*
X147071350Y-101140180D01*
X147050307Y-101127568D01*
X147030601Y-101112953D01*
X147012423Y-101096477D01*
X146995947Y-101078299D01*
X146981332Y-101058593D01*
X146968720Y-101037550D01*
X146958230Y-101015371D01*
X146949965Y-100992272D01*
X146944004Y-100968473D01*
X146940404Y-100944205D01*
X146939200Y-100919701D01*
X146939200Y-100019699D01*
X146940404Y-99995195D01*
X146944004Y-99970927D01*
X146949965Y-99947128D01*
X146958230Y-99924029D01*
X146968720Y-99901850D01*
X146981332Y-99880807D01*
X146995947Y-99861101D01*
X147012423Y-99842923D01*
X147030601Y-99826447D01*
X147050307Y-99811832D01*
X147071350Y-99799220D01*
X147093529Y-99788730D01*
X147116628Y-99780465D01*
X147140427Y-99774504D01*
X147164695Y-99770904D01*
X147189199Y-99769700D01*
X147839201Y-99769700D01*
X147863705Y-99770904D01*
X147863705Y-99770904D01*
G37*
D13*
G04 #@! TD*
G04 #@! TO.P,C3,1*
G04 #@! TO.N,VDD*
X147514200Y-100469700D03*
D12*
G04 #@! TO.N,GND*
G04 #@! TO.C,C3*
G36*
X149913705Y-99770904D02*
X149937973Y-99774504D01*
X149961772Y-99780465D01*
X149984871Y-99788730D01*
X150007050Y-99799220D01*
X150028093Y-99811832D01*
X150047799Y-99826447D01*
X150065977Y-99842923D01*
X150082453Y-99861101D01*
X150097068Y-99880807D01*
X150109680Y-99901850D01*
X150120170Y-99924029D01*
X150128435Y-99947128D01*
X150134396Y-99970927D01*
X150137996Y-99995195D01*
X150139200Y-100019699D01*
X150139200Y-100919701D01*
X150137996Y-100944205D01*
X150134396Y-100968473D01*
X150128435Y-100992272D01*
X150120170Y-101015371D01*
X150109680Y-101037550D01*
X150097068Y-101058593D01*
X150082453Y-101078299D01*
X150065977Y-101096477D01*
X150047799Y-101112953D01*
X150028093Y-101127568D01*
X150007050Y-101140180D01*
X149984871Y-101150670D01*
X149961772Y-101158935D01*
X149937973Y-101164896D01*
X149913705Y-101168496D01*
X149889201Y-101169700D01*
X149239199Y-101169700D01*
X149214695Y-101168496D01*
X149190427Y-101164896D01*
X149166628Y-101158935D01*
X149143529Y-101150670D01*
X149121350Y-101140180D01*
X149100307Y-101127568D01*
X149080601Y-101112953D01*
X149062423Y-101096477D01*
X149045947Y-101078299D01*
X149031332Y-101058593D01*
X149018720Y-101037550D01*
X149008230Y-101015371D01*
X148999965Y-100992272D01*
X148994004Y-100968473D01*
X148990404Y-100944205D01*
X148989200Y-100919701D01*
X148989200Y-100019699D01*
X148990404Y-99995195D01*
X148994004Y-99970927D01*
X148999965Y-99947128D01*
X149008230Y-99924029D01*
X149018720Y-99901850D01*
X149031332Y-99880807D01*
X149045947Y-99861101D01*
X149062423Y-99842923D01*
X149080601Y-99826447D01*
X149100307Y-99811832D01*
X149121350Y-99799220D01*
X149143529Y-99788730D01*
X149166628Y-99780465D01*
X149190427Y-99774504D01*
X149214695Y-99770904D01*
X149239199Y-99769700D01*
X149889201Y-99769700D01*
X149913705Y-99770904D01*
X149913705Y-99770904D01*
G37*
D13*
G04 #@! TD*
G04 #@! TO.P,C3,2*
G04 #@! TO.N,GND*
X149564200Y-100469700D03*
D10*
G04 #@! TO.P,J3,6*
G04 #@! TO.N,/BCM12_PWM0*
X116433600Y-101269800D03*
G04 #@! TO.P,J3,5*
G04 #@! TO.N,/BCM13_PWM1*
X116433600Y-98729800D03*
G04 #@! TO.P,J3,4*
G04 #@! TO.N,Net-(BZ1-Pad1)*
X118973600Y-101269800D03*
G04 #@! TO.P,J3,3*
G04 #@! TO.N,Net-(BZ1-Pad2)*
X118973600Y-98729800D03*
G04 #@! TO.P,J3,2*
G04 #@! TO.N,GND*
X121513600Y-101269800D03*
D11*
G04 #@! TO.P,J3,1*
G04 #@! TO.N,/BCM18_PWM0*
X121513600Y-98729800D03*
G04 #@! TD*
G04 #@! TO.P,J9,1*
G04 #@! TO.N,GND*
X139166600Y-105359200D03*
D10*
G04 #@! TO.P,J9,2*
G04 #@! TO.N,Net-(J9-Pad2)*
X139166600Y-107899200D03*
G04 #@! TD*
D11*
G04 #@! TO.P,J10,1*
G04 #@! TO.N,Net-(J10-Pad1)*
X148475700Y-107924600D03*
D10*
G04 #@! TO.P,J10,2*
G04 #@! TO.N,VDD*
X148475700Y-105384600D03*
G04 #@! TD*
D11*
G04 #@! TO.P,J11,1*
G04 #@! TO.N,VDD*
X153631900Y-100698300D03*
D10*
G04 #@! TO.P,J11,2*
G04 #@! TO.N,Net-(J11-Pad2)*
X156171900Y-100698300D03*
G04 #@! TD*
D11*
G04 #@! TO.P,J12,1*
G04 #@! TO.N,GND*
X139141200Y-115417600D03*
D10*
G04 #@! TO.P,J12,2*
G04 #@! TO.N,Net-(J12-Pad2)*
X139141200Y-112877600D03*
G04 #@! TD*
G04 #@! TO.P,J14,3*
G04 #@! TO.N,+5V*
X158470600Y-89585800D03*
G04 #@! TO.P,J14,2*
G04 #@! TO.N,VDD*
X158470600Y-87045800D03*
D11*
G04 #@! TO.P,J14,1*
G04 #@! TO.N,+3V3*
X158470600Y-84505800D03*
G04 #@! TD*
D10*
G04 #@! TO.P,J17,3*
G04 #@! TO.N,GND*
X153339800Y-91871800D03*
G04 #@! TO.P,J17,2*
G04 #@! TO.N,/BCM2_SDA*
X150799800Y-91871800D03*
D11*
G04 #@! TO.P,J17,1*
G04 #@! TO.N,/BCM3_SCL*
X148259800Y-91871800D03*
G04 #@! TD*
D18*
G04 #@! TO.P,FID1,*
G04 #@! TO.N,*
X101000000Y-95000000D03*
G04 #@! TD*
G04 #@! TO.P,FID2,*
G04 #@! TO.N,*
X101000000Y-119000000D03*
G04 #@! TD*
G04 #@! TO.P,FID3,*
G04 #@! TO.N,*
X172640000Y-119000000D03*
G04 #@! TD*
D12*
G04 #@! TO.N,GND*
G04 #@! TO.C,R8*
G36*
X142511305Y-111320604D02*
X142535573Y-111324204D01*
X142559372Y-111330165D01*
X142582471Y-111338430D01*
X142604650Y-111348920D01*
X142625693Y-111361532D01*
X142645399Y-111376147D01*
X142663577Y-111392623D01*
X142680053Y-111410801D01*
X142694668Y-111430507D01*
X142707280Y-111451550D01*
X142717770Y-111473729D01*
X142726035Y-111496828D01*
X142731996Y-111520627D01*
X142735596Y-111544895D01*
X142736800Y-111569399D01*
X142736800Y-112219401D01*
X142735596Y-112243905D01*
X142731996Y-112268173D01*
X142726035Y-112291972D01*
X142717770Y-112315071D01*
X142707280Y-112337250D01*
X142694668Y-112358293D01*
X142680053Y-112377999D01*
X142663577Y-112396177D01*
X142645399Y-112412653D01*
X142625693Y-112427268D01*
X142604650Y-112439880D01*
X142582471Y-112450370D01*
X142559372Y-112458635D01*
X142535573Y-112464596D01*
X142511305Y-112468196D01*
X142486801Y-112469400D01*
X141586799Y-112469400D01*
X141562295Y-112468196D01*
X141538027Y-112464596D01*
X141514228Y-112458635D01*
X141491129Y-112450370D01*
X141468950Y-112439880D01*
X141447907Y-112427268D01*
X141428201Y-112412653D01*
X141410023Y-112396177D01*
X141393547Y-112377999D01*
X141378932Y-112358293D01*
X141366320Y-112337250D01*
X141355830Y-112315071D01*
X141347565Y-112291972D01*
X141341604Y-112268173D01*
X141338004Y-112243905D01*
X141336800Y-112219401D01*
X141336800Y-111569399D01*
X141338004Y-111544895D01*
X141341604Y-111520627D01*
X141347565Y-111496828D01*
X141355830Y-111473729D01*
X141366320Y-111451550D01*
X141378932Y-111430507D01*
X141393547Y-111410801D01*
X141410023Y-111392623D01*
X141428201Y-111376147D01*
X141447907Y-111361532D01*
X141468950Y-111348920D01*
X141491129Y-111338430D01*
X141514228Y-111330165D01*
X141538027Y-111324204D01*
X141562295Y-111320604D01*
X141586799Y-111319400D01*
X142486801Y-111319400D01*
X142511305Y-111320604D01*
X142511305Y-111320604D01*
G37*
D13*
G04 #@! TD*
G04 #@! TO.P,R8,2*
G04 #@! TO.N,GND*
X142036800Y-111894400D03*
D12*
G04 #@! TO.N,/AR1*
G04 #@! TO.C,R8*
G36*
X142511305Y-113370604D02*
X142535573Y-113374204D01*
X142559372Y-113380165D01*
X142582471Y-113388430D01*
X142604650Y-113398920D01*
X142625693Y-113411532D01*
X142645399Y-113426147D01*
X142663577Y-113442623D01*
X142680053Y-113460801D01*
X142694668Y-113480507D01*
X142707280Y-113501550D01*
X142717770Y-113523729D01*
X142726035Y-113546828D01*
X142731996Y-113570627D01*
X142735596Y-113594895D01*
X142736800Y-113619399D01*
X142736800Y-114269401D01*
X142735596Y-114293905D01*
X142731996Y-114318173D01*
X142726035Y-114341972D01*
X142717770Y-114365071D01*
X142707280Y-114387250D01*
X142694668Y-114408293D01*
X142680053Y-114427999D01*
X142663577Y-114446177D01*
X142645399Y-114462653D01*
X142625693Y-114477268D01*
X142604650Y-114489880D01*
X142582471Y-114500370D01*
X142559372Y-114508635D01*
X142535573Y-114514596D01*
X142511305Y-114518196D01*
X142486801Y-114519400D01*
X141586799Y-114519400D01*
X141562295Y-114518196D01*
X141538027Y-114514596D01*
X141514228Y-114508635D01*
X141491129Y-114500370D01*
X141468950Y-114489880D01*
X141447907Y-114477268D01*
X141428201Y-114462653D01*
X141410023Y-114446177D01*
X141393547Y-114427999D01*
X141378932Y-114408293D01*
X141366320Y-114387250D01*
X141355830Y-114365071D01*
X141347565Y-114341972D01*
X141341604Y-114318173D01*
X141338004Y-114293905D01*
X141336800Y-114269401D01*
X141336800Y-113619399D01*
X141338004Y-113594895D01*
X141341604Y-113570627D01*
X141347565Y-113546828D01*
X141355830Y-113523729D01*
X141366320Y-113501550D01*
X141378932Y-113480507D01*
X141393547Y-113460801D01*
X141410023Y-113442623D01*
X141428201Y-113426147D01*
X141447907Y-113411532D01*
X141468950Y-113398920D01*
X141491129Y-113388430D01*
X141514228Y-113380165D01*
X141538027Y-113374204D01*
X141562295Y-113370604D01*
X141586799Y-113369400D01*
X142486801Y-113369400D01*
X142511305Y-113370604D01*
X142511305Y-113370604D01*
G37*
D13*
G04 #@! TD*
G04 #@! TO.P,R8,1*
G04 #@! TO.N,/AR1*
X142036800Y-113944400D03*
D12*
G04 #@! TO.N,/AR3*
G04 #@! TO.C,R9*
G36*
X152546305Y-117563604D02*
X152570573Y-117567204D01*
X152594372Y-117573165D01*
X152617471Y-117581430D01*
X152639650Y-117591920D01*
X152660693Y-117604532D01*
X152680399Y-117619147D01*
X152698577Y-117635623D01*
X152715053Y-117653801D01*
X152729668Y-117673507D01*
X152742280Y-117694550D01*
X152752770Y-117716729D01*
X152761035Y-117739828D01*
X152766996Y-117763627D01*
X152770596Y-117787895D01*
X152771800Y-117812399D01*
X152771800Y-118712401D01*
X152770596Y-118736905D01*
X152766996Y-118761173D01*
X152761035Y-118784972D01*
X152752770Y-118808071D01*
X152742280Y-118830250D01*
X152729668Y-118851293D01*
X152715053Y-118870999D01*
X152698577Y-118889177D01*
X152680399Y-118905653D01*
X152660693Y-118920268D01*
X152639650Y-118932880D01*
X152617471Y-118943370D01*
X152594372Y-118951635D01*
X152570573Y-118957596D01*
X152546305Y-118961196D01*
X152521801Y-118962400D01*
X151871799Y-118962400D01*
X151847295Y-118961196D01*
X151823027Y-118957596D01*
X151799228Y-118951635D01*
X151776129Y-118943370D01*
X151753950Y-118932880D01*
X151732907Y-118920268D01*
X151713201Y-118905653D01*
X151695023Y-118889177D01*
X151678547Y-118870999D01*
X151663932Y-118851293D01*
X151651320Y-118830250D01*
X151640830Y-118808071D01*
X151632565Y-118784972D01*
X151626604Y-118761173D01*
X151623004Y-118736905D01*
X151621800Y-118712401D01*
X151621800Y-117812399D01*
X151623004Y-117787895D01*
X151626604Y-117763627D01*
X151632565Y-117739828D01*
X151640830Y-117716729D01*
X151651320Y-117694550D01*
X151663932Y-117673507D01*
X151678547Y-117653801D01*
X151695023Y-117635623D01*
X151713201Y-117619147D01*
X151732907Y-117604532D01*
X151753950Y-117591920D01*
X151776129Y-117581430D01*
X151799228Y-117573165D01*
X151823027Y-117567204D01*
X151847295Y-117563604D01*
X151871799Y-117562400D01*
X152521801Y-117562400D01*
X152546305Y-117563604D01*
X152546305Y-117563604D01*
G37*
D13*
G04 #@! TD*
G04 #@! TO.P,R9,1*
G04 #@! TO.N,/AR3*
X152196800Y-118262400D03*
D12*
G04 #@! TO.N,GND*
G04 #@! TO.C,R9*
G36*
X150496305Y-117563604D02*
X150520573Y-117567204D01*
X150544372Y-117573165D01*
X150567471Y-117581430D01*
X150589650Y-117591920D01*
X150610693Y-117604532D01*
X150630399Y-117619147D01*
X150648577Y-117635623D01*
X150665053Y-117653801D01*
X150679668Y-117673507D01*
X150692280Y-117694550D01*
X150702770Y-117716729D01*
X150711035Y-117739828D01*
X150716996Y-117763627D01*
X150720596Y-117787895D01*
X150721800Y-117812399D01*
X150721800Y-118712401D01*
X150720596Y-118736905D01*
X150716996Y-118761173D01*
X150711035Y-118784972D01*
X150702770Y-118808071D01*
X150692280Y-118830250D01*
X150679668Y-118851293D01*
X150665053Y-118870999D01*
X150648577Y-118889177D01*
X150630399Y-118905653D01*
X150610693Y-118920268D01*
X150589650Y-118932880D01*
X150567471Y-118943370D01*
X150544372Y-118951635D01*
X150520573Y-118957596D01*
X150496305Y-118961196D01*
X150471801Y-118962400D01*
X149821799Y-118962400D01*
X149797295Y-118961196D01*
X149773027Y-118957596D01*
X149749228Y-118951635D01*
X149726129Y-118943370D01*
X149703950Y-118932880D01*
X149682907Y-118920268D01*
X149663201Y-118905653D01*
X149645023Y-118889177D01*
X149628547Y-118870999D01*
X149613932Y-118851293D01*
X149601320Y-118830250D01*
X149590830Y-118808071D01*
X149582565Y-118784972D01*
X149576604Y-118761173D01*
X149573004Y-118736905D01*
X149571800Y-118712401D01*
X149571800Y-117812399D01*
X149573004Y-117787895D01*
X149576604Y-117763627D01*
X149582565Y-117739828D01*
X149590830Y-117716729D01*
X149601320Y-117694550D01*
X149613932Y-117673507D01*
X149628547Y-117653801D01*
X149645023Y-117635623D01*
X149663201Y-117619147D01*
X149682907Y-117604532D01*
X149703950Y-117591920D01*
X149726129Y-117581430D01*
X149749228Y-117573165D01*
X149773027Y-117567204D01*
X149797295Y-117563604D01*
X149821799Y-117562400D01*
X150471801Y-117562400D01*
X150496305Y-117563604D01*
X150496305Y-117563604D01*
G37*
D13*
G04 #@! TD*
G04 #@! TO.P,R9,2*
G04 #@! TO.N,GND*
X150146800Y-118262400D03*
D12*
G04 #@! TO.N,GND*
G04 #@! TO.C,R10*
G36*
X142511305Y-119060204D02*
X142535573Y-119063804D01*
X142559372Y-119069765D01*
X142582471Y-119078030D01*
X142604650Y-119088520D01*
X142625693Y-119101132D01*
X142645399Y-119115747D01*
X142663577Y-119132223D01*
X142680053Y-119150401D01*
X142694668Y-119170107D01*
X142707280Y-119191150D01*
X142717770Y-119213329D01*
X142726035Y-119236428D01*
X142731996Y-119260227D01*
X142735596Y-119284495D01*
X142736800Y-119308999D01*
X142736800Y-119959001D01*
X142735596Y-119983505D01*
X142731996Y-120007773D01*
X142726035Y-120031572D01*
X142717770Y-120054671D01*
X142707280Y-120076850D01*
X142694668Y-120097893D01*
X142680053Y-120117599D01*
X142663577Y-120135777D01*
X142645399Y-120152253D01*
X142625693Y-120166868D01*
X142604650Y-120179480D01*
X142582471Y-120189970D01*
X142559372Y-120198235D01*
X142535573Y-120204196D01*
X142511305Y-120207796D01*
X142486801Y-120209000D01*
X141586799Y-120209000D01*
X141562295Y-120207796D01*
X141538027Y-120204196D01*
X141514228Y-120198235D01*
X141491129Y-120189970D01*
X141468950Y-120179480D01*
X141447907Y-120166868D01*
X141428201Y-120152253D01*
X141410023Y-120135777D01*
X141393547Y-120117599D01*
X141378932Y-120097893D01*
X141366320Y-120076850D01*
X141355830Y-120054671D01*
X141347565Y-120031572D01*
X141341604Y-120007773D01*
X141338004Y-119983505D01*
X141336800Y-119959001D01*
X141336800Y-119308999D01*
X141338004Y-119284495D01*
X141341604Y-119260227D01*
X141347565Y-119236428D01*
X141355830Y-119213329D01*
X141366320Y-119191150D01*
X141378932Y-119170107D01*
X141393547Y-119150401D01*
X141410023Y-119132223D01*
X141428201Y-119115747D01*
X141447907Y-119101132D01*
X141468950Y-119088520D01*
X141491129Y-119078030D01*
X141514228Y-119069765D01*
X141538027Y-119063804D01*
X141562295Y-119060204D01*
X141586799Y-119059000D01*
X142486801Y-119059000D01*
X142511305Y-119060204D01*
X142511305Y-119060204D01*
G37*
D13*
G04 #@! TD*
G04 #@! TO.P,R10,2*
G04 #@! TO.N,GND*
X142036800Y-119634000D03*
D12*
G04 #@! TO.N,/AR5*
G04 #@! TO.C,R10*
G36*
X142511305Y-121110204D02*
X142535573Y-121113804D01*
X142559372Y-121119765D01*
X142582471Y-121128030D01*
X142604650Y-121138520D01*
X142625693Y-121151132D01*
X142645399Y-121165747D01*
X142663577Y-121182223D01*
X142680053Y-121200401D01*
X142694668Y-121220107D01*
X142707280Y-121241150D01*
X142717770Y-121263329D01*
X142726035Y-121286428D01*
X142731996Y-121310227D01*
X142735596Y-121334495D01*
X142736800Y-121358999D01*
X142736800Y-122009001D01*
X142735596Y-122033505D01*
X142731996Y-122057773D01*
X142726035Y-122081572D01*
X142717770Y-122104671D01*
X142707280Y-122126850D01*
X142694668Y-122147893D01*
X142680053Y-122167599D01*
X142663577Y-122185777D01*
X142645399Y-122202253D01*
X142625693Y-122216868D01*
X142604650Y-122229480D01*
X142582471Y-122239970D01*
X142559372Y-122248235D01*
X142535573Y-122254196D01*
X142511305Y-122257796D01*
X142486801Y-122259000D01*
X141586799Y-122259000D01*
X141562295Y-122257796D01*
X141538027Y-122254196D01*
X141514228Y-122248235D01*
X141491129Y-122239970D01*
X141468950Y-122229480D01*
X141447907Y-122216868D01*
X141428201Y-122202253D01*
X141410023Y-122185777D01*
X141393547Y-122167599D01*
X141378932Y-122147893D01*
X141366320Y-122126850D01*
X141355830Y-122104671D01*
X141347565Y-122081572D01*
X141341604Y-122057773D01*
X141338004Y-122033505D01*
X141336800Y-122009001D01*
X141336800Y-121358999D01*
X141338004Y-121334495D01*
X141341604Y-121310227D01*
X141347565Y-121286428D01*
X141355830Y-121263329D01*
X141366320Y-121241150D01*
X141378932Y-121220107D01*
X141393547Y-121200401D01*
X141410023Y-121182223D01*
X141428201Y-121165747D01*
X141447907Y-121151132D01*
X141468950Y-121138520D01*
X141491129Y-121128030D01*
X141514228Y-121119765D01*
X141538027Y-121113804D01*
X141562295Y-121110204D01*
X141586799Y-121109000D01*
X142486801Y-121109000D01*
X142511305Y-121110204D01*
X142511305Y-121110204D01*
G37*
D13*
G04 #@! TD*
G04 #@! TO.P,R10,1*
G04 #@! TO.N,/AR5*
X142036800Y-121684000D03*
D12*
G04 #@! TO.N,/AR7*
G04 #@! TO.C,R11*
G36*
X163943505Y-117563604D02*
X163967773Y-117567204D01*
X163991572Y-117573165D01*
X164014671Y-117581430D01*
X164036850Y-117591920D01*
X164057893Y-117604532D01*
X164077599Y-117619147D01*
X164095777Y-117635623D01*
X164112253Y-117653801D01*
X164126868Y-117673507D01*
X164139480Y-117694550D01*
X164149970Y-117716729D01*
X164158235Y-117739828D01*
X164164196Y-117763627D01*
X164167796Y-117787895D01*
X164169000Y-117812399D01*
X164169000Y-118712401D01*
X164167796Y-118736905D01*
X164164196Y-118761173D01*
X164158235Y-118784972D01*
X164149970Y-118808071D01*
X164139480Y-118830250D01*
X164126868Y-118851293D01*
X164112253Y-118870999D01*
X164095777Y-118889177D01*
X164077599Y-118905653D01*
X164057893Y-118920268D01*
X164036850Y-118932880D01*
X164014671Y-118943370D01*
X163991572Y-118951635D01*
X163967773Y-118957596D01*
X163943505Y-118961196D01*
X163919001Y-118962400D01*
X163268999Y-118962400D01*
X163244495Y-118961196D01*
X163220227Y-118957596D01*
X163196428Y-118951635D01*
X163173329Y-118943370D01*
X163151150Y-118932880D01*
X163130107Y-118920268D01*
X163110401Y-118905653D01*
X163092223Y-118889177D01*
X163075747Y-118870999D01*
X163061132Y-118851293D01*
X163048520Y-118830250D01*
X163038030Y-118808071D01*
X163029765Y-118784972D01*
X163023804Y-118761173D01*
X163020204Y-118736905D01*
X163019000Y-118712401D01*
X163019000Y-117812399D01*
X163020204Y-117787895D01*
X163023804Y-117763627D01*
X163029765Y-117739828D01*
X163038030Y-117716729D01*
X163048520Y-117694550D01*
X163061132Y-117673507D01*
X163075747Y-117653801D01*
X163092223Y-117635623D01*
X163110401Y-117619147D01*
X163130107Y-117604532D01*
X163151150Y-117591920D01*
X163173329Y-117581430D01*
X163196428Y-117573165D01*
X163220227Y-117567204D01*
X163244495Y-117563604D01*
X163268999Y-117562400D01*
X163919001Y-117562400D01*
X163943505Y-117563604D01*
X163943505Y-117563604D01*
G37*
D13*
G04 #@! TD*
G04 #@! TO.P,R11,1*
G04 #@! TO.N,/AR7*
X163594000Y-118262400D03*
D12*
G04 #@! TO.N,GND*
G04 #@! TO.C,R11*
G36*
X161893505Y-117563604D02*
X161917773Y-117567204D01*
X161941572Y-117573165D01*
X161964671Y-117581430D01*
X161986850Y-117591920D01*
X162007893Y-117604532D01*
X162027599Y-117619147D01*
X162045777Y-117635623D01*
X162062253Y-117653801D01*
X162076868Y-117673507D01*
X162089480Y-117694550D01*
X162099970Y-117716729D01*
X162108235Y-117739828D01*
X162114196Y-117763627D01*
X162117796Y-117787895D01*
X162119000Y-117812399D01*
X162119000Y-118712401D01*
X162117796Y-118736905D01*
X162114196Y-118761173D01*
X162108235Y-118784972D01*
X162099970Y-118808071D01*
X162089480Y-118830250D01*
X162076868Y-118851293D01*
X162062253Y-118870999D01*
X162045777Y-118889177D01*
X162027599Y-118905653D01*
X162007893Y-118920268D01*
X161986850Y-118932880D01*
X161964671Y-118943370D01*
X161941572Y-118951635D01*
X161917773Y-118957596D01*
X161893505Y-118961196D01*
X161869001Y-118962400D01*
X161218999Y-118962400D01*
X161194495Y-118961196D01*
X161170227Y-118957596D01*
X161146428Y-118951635D01*
X161123329Y-118943370D01*
X161101150Y-118932880D01*
X161080107Y-118920268D01*
X161060401Y-118905653D01*
X161042223Y-118889177D01*
X161025747Y-118870999D01*
X161011132Y-118851293D01*
X160998520Y-118830250D01*
X160988030Y-118808071D01*
X160979765Y-118784972D01*
X160973804Y-118761173D01*
X160970204Y-118736905D01*
X160969000Y-118712401D01*
X160969000Y-117812399D01*
X160970204Y-117787895D01*
X160973804Y-117763627D01*
X160979765Y-117739828D01*
X160988030Y-117716729D01*
X160998520Y-117694550D01*
X161011132Y-117673507D01*
X161025747Y-117653801D01*
X161042223Y-117635623D01*
X161060401Y-117619147D01*
X161080107Y-117604532D01*
X161101150Y-117591920D01*
X161123329Y-117581430D01*
X161146428Y-117573165D01*
X161170227Y-117567204D01*
X161194495Y-117563604D01*
X161218999Y-117562400D01*
X161869001Y-117562400D01*
X161893505Y-117563604D01*
X161893505Y-117563604D01*
G37*
D13*
G04 #@! TD*
G04 #@! TO.P,R11,2*
G04 #@! TO.N,GND*
X161544000Y-118262400D03*
D12*
G04 #@! TO.N,/AR0*
G04 #@! TO.C,R12*
G36*
X142511305Y-115199404D02*
X142535573Y-115203004D01*
X142559372Y-115208965D01*
X142582471Y-115217230D01*
X142604650Y-115227720D01*
X142625693Y-115240332D01*
X142645399Y-115254947D01*
X142663577Y-115271423D01*
X142680053Y-115289601D01*
X142694668Y-115309307D01*
X142707280Y-115330350D01*
X142717770Y-115352529D01*
X142726035Y-115375628D01*
X142731996Y-115399427D01*
X142735596Y-115423695D01*
X142736800Y-115448199D01*
X142736800Y-116098201D01*
X142735596Y-116122705D01*
X142731996Y-116146973D01*
X142726035Y-116170772D01*
X142717770Y-116193871D01*
X142707280Y-116216050D01*
X142694668Y-116237093D01*
X142680053Y-116256799D01*
X142663577Y-116274977D01*
X142645399Y-116291453D01*
X142625693Y-116306068D01*
X142604650Y-116318680D01*
X142582471Y-116329170D01*
X142559372Y-116337435D01*
X142535573Y-116343396D01*
X142511305Y-116346996D01*
X142486801Y-116348200D01*
X141586799Y-116348200D01*
X141562295Y-116346996D01*
X141538027Y-116343396D01*
X141514228Y-116337435D01*
X141491129Y-116329170D01*
X141468950Y-116318680D01*
X141447907Y-116306068D01*
X141428201Y-116291453D01*
X141410023Y-116274977D01*
X141393547Y-116256799D01*
X141378932Y-116237093D01*
X141366320Y-116216050D01*
X141355830Y-116193871D01*
X141347565Y-116170772D01*
X141341604Y-116146973D01*
X141338004Y-116122705D01*
X141336800Y-116098201D01*
X141336800Y-115448199D01*
X141338004Y-115423695D01*
X141341604Y-115399427D01*
X141347565Y-115375628D01*
X141355830Y-115352529D01*
X141366320Y-115330350D01*
X141378932Y-115309307D01*
X141393547Y-115289601D01*
X141410023Y-115271423D01*
X141428201Y-115254947D01*
X141447907Y-115240332D01*
X141468950Y-115227720D01*
X141491129Y-115217230D01*
X141514228Y-115208965D01*
X141538027Y-115203004D01*
X141562295Y-115199404D01*
X141586799Y-115198200D01*
X142486801Y-115198200D01*
X142511305Y-115199404D01*
X142511305Y-115199404D01*
G37*
D13*
G04 #@! TD*
G04 #@! TO.P,R12,1*
G04 #@! TO.N,/AR0*
X142036800Y-115773200D03*
D12*
G04 #@! TO.N,GND*
G04 #@! TO.C,R12*
G36*
X142511305Y-117249404D02*
X142535573Y-117253004D01*
X142559372Y-117258965D01*
X142582471Y-117267230D01*
X142604650Y-117277720D01*
X142625693Y-117290332D01*
X142645399Y-117304947D01*
X142663577Y-117321423D01*
X142680053Y-117339601D01*
X142694668Y-117359307D01*
X142707280Y-117380350D01*
X142717770Y-117402529D01*
X142726035Y-117425628D01*
X142731996Y-117449427D01*
X142735596Y-117473695D01*
X142736800Y-117498199D01*
X142736800Y-118148201D01*
X142735596Y-118172705D01*
X142731996Y-118196973D01*
X142726035Y-118220772D01*
X142717770Y-118243871D01*
X142707280Y-118266050D01*
X142694668Y-118287093D01*
X142680053Y-118306799D01*
X142663577Y-118324977D01*
X142645399Y-118341453D01*
X142625693Y-118356068D01*
X142604650Y-118368680D01*
X142582471Y-118379170D01*
X142559372Y-118387435D01*
X142535573Y-118393396D01*
X142511305Y-118396996D01*
X142486801Y-118398200D01*
X141586799Y-118398200D01*
X141562295Y-118396996D01*
X141538027Y-118393396D01*
X141514228Y-118387435D01*
X141491129Y-118379170D01*
X141468950Y-118368680D01*
X141447907Y-118356068D01*
X141428201Y-118341453D01*
X141410023Y-118324977D01*
X141393547Y-118306799D01*
X141378932Y-118287093D01*
X141366320Y-118266050D01*
X141355830Y-118243871D01*
X141347565Y-118220772D01*
X141341604Y-118196973D01*
X141338004Y-118172705D01*
X141336800Y-118148201D01*
X141336800Y-117498199D01*
X141338004Y-117473695D01*
X141341604Y-117449427D01*
X141347565Y-117425628D01*
X141355830Y-117402529D01*
X141366320Y-117380350D01*
X141378932Y-117359307D01*
X141393547Y-117339601D01*
X141410023Y-117321423D01*
X141428201Y-117304947D01*
X141447907Y-117290332D01*
X141468950Y-117277720D01*
X141491129Y-117267230D01*
X141514228Y-117258965D01*
X141538027Y-117253004D01*
X141562295Y-117249404D01*
X141586799Y-117248200D01*
X142486801Y-117248200D01*
X142511305Y-117249404D01*
X142511305Y-117249404D01*
G37*
D13*
G04 #@! TD*
G04 #@! TO.P,R12,2*
G04 #@! TO.N,GND*
X142036800Y-117823200D03*
D12*
G04 #@! TO.N,GND*
G04 #@! TO.C,R13*
G36*
X146686305Y-117563604D02*
X146710573Y-117567204D01*
X146734372Y-117573165D01*
X146757471Y-117581430D01*
X146779650Y-117591920D01*
X146800693Y-117604532D01*
X146820399Y-117619147D01*
X146838577Y-117635623D01*
X146855053Y-117653801D01*
X146869668Y-117673507D01*
X146882280Y-117694550D01*
X146892770Y-117716729D01*
X146901035Y-117739828D01*
X146906996Y-117763627D01*
X146910596Y-117787895D01*
X146911800Y-117812399D01*
X146911800Y-118712401D01*
X146910596Y-118736905D01*
X146906996Y-118761173D01*
X146901035Y-118784972D01*
X146892770Y-118808071D01*
X146882280Y-118830250D01*
X146869668Y-118851293D01*
X146855053Y-118870999D01*
X146838577Y-118889177D01*
X146820399Y-118905653D01*
X146800693Y-118920268D01*
X146779650Y-118932880D01*
X146757471Y-118943370D01*
X146734372Y-118951635D01*
X146710573Y-118957596D01*
X146686305Y-118961196D01*
X146661801Y-118962400D01*
X146011799Y-118962400D01*
X145987295Y-118961196D01*
X145963027Y-118957596D01*
X145939228Y-118951635D01*
X145916129Y-118943370D01*
X145893950Y-118932880D01*
X145872907Y-118920268D01*
X145853201Y-118905653D01*
X145835023Y-118889177D01*
X145818547Y-118870999D01*
X145803932Y-118851293D01*
X145791320Y-118830250D01*
X145780830Y-118808071D01*
X145772565Y-118784972D01*
X145766604Y-118761173D01*
X145763004Y-118736905D01*
X145761800Y-118712401D01*
X145761800Y-117812399D01*
X145763004Y-117787895D01*
X145766604Y-117763627D01*
X145772565Y-117739828D01*
X145780830Y-117716729D01*
X145791320Y-117694550D01*
X145803932Y-117673507D01*
X145818547Y-117653801D01*
X145835023Y-117635623D01*
X145853201Y-117619147D01*
X145872907Y-117604532D01*
X145893950Y-117591920D01*
X145916129Y-117581430D01*
X145939228Y-117573165D01*
X145963027Y-117567204D01*
X145987295Y-117563604D01*
X146011799Y-117562400D01*
X146661801Y-117562400D01*
X146686305Y-117563604D01*
X146686305Y-117563604D01*
G37*
D13*
G04 #@! TD*
G04 #@! TO.P,R13,2*
G04 #@! TO.N,GND*
X146336800Y-118262400D03*
D12*
G04 #@! TO.N,/AR2*
G04 #@! TO.C,R13*
G36*
X148736305Y-117563604D02*
X148760573Y-117567204D01*
X148784372Y-117573165D01*
X148807471Y-117581430D01*
X148829650Y-117591920D01*
X148850693Y-117604532D01*
X148870399Y-117619147D01*
X148888577Y-117635623D01*
X148905053Y-117653801D01*
X148919668Y-117673507D01*
X148932280Y-117694550D01*
X148942770Y-117716729D01*
X148951035Y-117739828D01*
X148956996Y-117763627D01*
X148960596Y-117787895D01*
X148961800Y-117812399D01*
X148961800Y-118712401D01*
X148960596Y-118736905D01*
X148956996Y-118761173D01*
X148951035Y-118784972D01*
X148942770Y-118808071D01*
X148932280Y-118830250D01*
X148919668Y-118851293D01*
X148905053Y-118870999D01*
X148888577Y-118889177D01*
X148870399Y-118905653D01*
X148850693Y-118920268D01*
X148829650Y-118932880D01*
X148807471Y-118943370D01*
X148784372Y-118951635D01*
X148760573Y-118957596D01*
X148736305Y-118961196D01*
X148711801Y-118962400D01*
X148061799Y-118962400D01*
X148037295Y-118961196D01*
X148013027Y-118957596D01*
X147989228Y-118951635D01*
X147966129Y-118943370D01*
X147943950Y-118932880D01*
X147922907Y-118920268D01*
X147903201Y-118905653D01*
X147885023Y-118889177D01*
X147868547Y-118870999D01*
X147853932Y-118851293D01*
X147841320Y-118830250D01*
X147830830Y-118808071D01*
X147822565Y-118784972D01*
X147816604Y-118761173D01*
X147813004Y-118736905D01*
X147811800Y-118712401D01*
X147811800Y-117812399D01*
X147813004Y-117787895D01*
X147816604Y-117763627D01*
X147822565Y-117739828D01*
X147830830Y-117716729D01*
X147841320Y-117694550D01*
X147853932Y-117673507D01*
X147868547Y-117653801D01*
X147885023Y-117635623D01*
X147903201Y-117619147D01*
X147922907Y-117604532D01*
X147943950Y-117591920D01*
X147966129Y-117581430D01*
X147989228Y-117573165D01*
X148013027Y-117567204D01*
X148037295Y-117563604D01*
X148061799Y-117562400D01*
X148711801Y-117562400D01*
X148736305Y-117563604D01*
X148736305Y-117563604D01*
G37*
D13*
G04 #@! TD*
G04 #@! TO.P,R13,1*
G04 #@! TO.N,/AR2*
X148386800Y-118262400D03*
D12*
G04 #@! TO.N,/AR4*
G04 #@! TO.C,R14*
G36*
X156356305Y-117563604D02*
X156380573Y-117567204D01*
X156404372Y-117573165D01*
X156427471Y-117581430D01*
X156449650Y-117591920D01*
X156470693Y-117604532D01*
X156490399Y-117619147D01*
X156508577Y-117635623D01*
X156525053Y-117653801D01*
X156539668Y-117673507D01*
X156552280Y-117694550D01*
X156562770Y-117716729D01*
X156571035Y-117739828D01*
X156576996Y-117763627D01*
X156580596Y-117787895D01*
X156581800Y-117812399D01*
X156581800Y-118712401D01*
X156580596Y-118736905D01*
X156576996Y-118761173D01*
X156571035Y-118784972D01*
X156562770Y-118808071D01*
X156552280Y-118830250D01*
X156539668Y-118851293D01*
X156525053Y-118870999D01*
X156508577Y-118889177D01*
X156490399Y-118905653D01*
X156470693Y-118920268D01*
X156449650Y-118932880D01*
X156427471Y-118943370D01*
X156404372Y-118951635D01*
X156380573Y-118957596D01*
X156356305Y-118961196D01*
X156331801Y-118962400D01*
X155681799Y-118962400D01*
X155657295Y-118961196D01*
X155633027Y-118957596D01*
X155609228Y-118951635D01*
X155586129Y-118943370D01*
X155563950Y-118932880D01*
X155542907Y-118920268D01*
X155523201Y-118905653D01*
X155505023Y-118889177D01*
X155488547Y-118870999D01*
X155473932Y-118851293D01*
X155461320Y-118830250D01*
X155450830Y-118808071D01*
X155442565Y-118784972D01*
X155436604Y-118761173D01*
X155433004Y-118736905D01*
X155431800Y-118712401D01*
X155431800Y-117812399D01*
X155433004Y-117787895D01*
X155436604Y-117763627D01*
X155442565Y-117739828D01*
X155450830Y-117716729D01*
X155461320Y-117694550D01*
X155473932Y-117673507D01*
X155488547Y-117653801D01*
X155505023Y-117635623D01*
X155523201Y-117619147D01*
X155542907Y-117604532D01*
X155563950Y-117591920D01*
X155586129Y-117581430D01*
X155609228Y-117573165D01*
X155633027Y-117567204D01*
X155657295Y-117563604D01*
X155681799Y-117562400D01*
X156331801Y-117562400D01*
X156356305Y-117563604D01*
X156356305Y-117563604D01*
G37*
D13*
G04 #@! TD*
G04 #@! TO.P,R14,1*
G04 #@! TO.N,/AR4*
X156006800Y-118262400D03*
D12*
G04 #@! TO.N,GND*
G04 #@! TO.C,R14*
G36*
X154306305Y-117563604D02*
X154330573Y-117567204D01*
X154354372Y-117573165D01*
X154377471Y-117581430D01*
X154399650Y-117591920D01*
X154420693Y-117604532D01*
X154440399Y-117619147D01*
X154458577Y-117635623D01*
X154475053Y-117653801D01*
X154489668Y-117673507D01*
X154502280Y-117694550D01*
X154512770Y-117716729D01*
X154521035Y-117739828D01*
X154526996Y-117763627D01*
X154530596Y-117787895D01*
X154531800Y-117812399D01*
X154531800Y-118712401D01*
X154530596Y-118736905D01*
X154526996Y-118761173D01*
X154521035Y-118784972D01*
X154512770Y-118808071D01*
X154502280Y-118830250D01*
X154489668Y-118851293D01*
X154475053Y-118870999D01*
X154458577Y-118889177D01*
X154440399Y-118905653D01*
X154420693Y-118920268D01*
X154399650Y-118932880D01*
X154377471Y-118943370D01*
X154354372Y-118951635D01*
X154330573Y-118957596D01*
X154306305Y-118961196D01*
X154281801Y-118962400D01*
X153631799Y-118962400D01*
X153607295Y-118961196D01*
X153583027Y-118957596D01*
X153559228Y-118951635D01*
X153536129Y-118943370D01*
X153513950Y-118932880D01*
X153492907Y-118920268D01*
X153473201Y-118905653D01*
X153455023Y-118889177D01*
X153438547Y-118870999D01*
X153423932Y-118851293D01*
X153411320Y-118830250D01*
X153400830Y-118808071D01*
X153392565Y-118784972D01*
X153386604Y-118761173D01*
X153383004Y-118736905D01*
X153381800Y-118712401D01*
X153381800Y-117812399D01*
X153383004Y-117787895D01*
X153386604Y-117763627D01*
X153392565Y-117739828D01*
X153400830Y-117716729D01*
X153411320Y-117694550D01*
X153423932Y-117673507D01*
X153438547Y-117653801D01*
X153455023Y-117635623D01*
X153473201Y-117619147D01*
X153492907Y-117604532D01*
X153513950Y-117591920D01*
X153536129Y-117581430D01*
X153559228Y-117573165D01*
X153583027Y-117567204D01*
X153607295Y-117563604D01*
X153631799Y-117562400D01*
X154281801Y-117562400D01*
X154306305Y-117563604D01*
X154306305Y-117563604D01*
G37*
D13*
G04 #@! TD*
G04 #@! TO.P,R14,2*
G04 #@! TO.N,GND*
X153956800Y-118262400D03*
D11*
G04 #@! TO.P,J18,1*
G04 #@! TO.N,+3V3*
X162204400Y-84505800D03*
D10*
G04 #@! TO.P,J18,2*
G04 #@! TO.N,VCC*
X162204400Y-87045800D03*
G04 #@! TO.P,J18,3*
G04 #@! TO.N,+5V*
X162204400Y-89585800D03*
G04 #@! TD*
G04 #@! TO.P,J7,16*
G04 #@! TO.N,VCC*
X162661600Y-123596400D03*
G04 #@! TO.P,J7,15*
G04 #@! TO.N,/AR7*
X162661600Y-121056400D03*
G04 #@! TO.P,J7,14*
G04 #@! TO.N,VCC*
X160121600Y-123596400D03*
G04 #@! TO.P,J7,13*
G04 #@! TO.N,/AR6*
X160121600Y-121056400D03*
G04 #@! TO.P,J7,12*
G04 #@! TO.N,VCC*
X157581600Y-123596400D03*
G04 #@! TO.P,J7,11*
G04 #@! TO.N,/AR5*
X157581600Y-121056400D03*
G04 #@! TO.P,J7,10*
G04 #@! TO.N,VCC*
X155041600Y-123596400D03*
G04 #@! TO.P,J7,9*
G04 #@! TO.N,/AR4*
X155041600Y-121056400D03*
G04 #@! TO.P,J7,8*
G04 #@! TO.N,VCC*
X152501600Y-123596400D03*
G04 #@! TO.P,J7,7*
G04 #@! TO.N,/AR3*
X152501600Y-121056400D03*
G04 #@! TO.P,J7,6*
G04 #@! TO.N,VCC*
X149961600Y-123596400D03*
G04 #@! TO.P,J7,5*
G04 #@! TO.N,/AR2*
X149961600Y-121056400D03*
G04 #@! TO.P,J7,4*
G04 #@! TO.N,VCC*
X147421600Y-123596400D03*
G04 #@! TO.P,J7,3*
G04 #@! TO.N,/AR1*
X147421600Y-121056400D03*
G04 #@! TO.P,J7,2*
G04 #@! TO.N,VCC*
X144881600Y-123596400D03*
D11*
G04 #@! TO.P,J7,1*
G04 #@! TO.N,/AR0*
X144881600Y-121056400D03*
G04 #@! TD*
D19*
G04 #@! TO.N,GND*
X163728400Y-101968300D03*
X152806400Y-106794300D03*
X106362500Y-123888500D03*
X119316500Y-124079000D03*
X130429000Y-124142500D03*
X135382000Y-123825000D03*
X143662400Y-118465600D03*
X146304000Y-119634000D03*
X150164800Y-119481600D03*
X153974800Y-119684800D03*
X157734000Y-119430800D03*
X161544000Y-119481600D03*
X143179800Y-112699800D03*
X150520400Y-99923600D03*
X114427000Y-117475000D03*
D20*
X120269000Y-117475000D03*
D19*
X126060200Y-117525800D03*
X157784800Y-101879400D03*
X143713200Y-110159800D03*
D20*
G04 #@! TO.N,/BCM24_TDO*
X141833603Y-83286599D03*
G04 #@! TO.N,/BCM10_MOSI*
X129463800Y-89204800D03*
G04 #@! TO.N,/BCM25_TCK*
X138912600Y-83210400D03*
G04 #@! TO.N,/BCM6*
X110820200Y-88366600D03*
G04 #@! TO.N,/MOSI*
X138226800Y-102463600D03*
D19*
G04 #@! TO.N,VDD*
X153644600Y-97205800D03*
D20*
G04 #@! TO.N,/BCM18_PWM0*
X137591800Y-99314000D03*
G04 #@! TO.N,/BCM16_CTS*
X137185400Y-93573600D03*
G04 #@! TD*
D21*
G04 #@! TO.N,Net-(BZ1-Pad1)*
X105727500Y-107937300D02*
X105727500Y-109013000D01*
X110032800Y-103632000D02*
X105727500Y-107937300D01*
X118973600Y-101269800D02*
X116611400Y-103632000D01*
X116611400Y-103632000D02*
X110032800Y-103632000D01*
G04 #@! TO.N,Net-(BZ1-Pad2)*
X117588401Y-101824105D02*
X116212306Y-103200200D01*
X118973600Y-98729800D02*
X117588401Y-100114999D01*
X117588401Y-100114999D02*
X117588401Y-101824105D01*
X109914700Y-103200200D02*
X105727500Y-99013000D01*
X116212306Y-103200200D02*
X109914700Y-103200200D01*
D22*
G04 #@! TO.N,GND*
X163601400Y-103586300D02*
X163601400Y-102095300D01*
X163601400Y-102095300D02*
X163728400Y-101968300D01*
X152806400Y-105524300D02*
X152806400Y-106794300D01*
X104225500Y-124360500D02*
X105890500Y-124360500D01*
X105890500Y-124360500D02*
X106362500Y-123888500D01*
X113325500Y-124360500D02*
X119035000Y-124360500D01*
X119035000Y-124360500D02*
X119316500Y-124079000D01*
X125581000Y-124360500D02*
X130211000Y-124360500D01*
X130211000Y-124360500D02*
X130429000Y-124142500D01*
X137582500Y-124360500D02*
X135917500Y-124360500D01*
X135917500Y-124360500D02*
X135382000Y-123825000D01*
X142036800Y-117823200D02*
X143020000Y-117823200D01*
X143020000Y-117823200D02*
X143662400Y-118465600D01*
X142494000Y-119634000D02*
X143662400Y-118465600D01*
X142036800Y-119634000D02*
X142494000Y-119634000D01*
X146336800Y-118262400D02*
X146336800Y-119601200D01*
X146336800Y-119601200D02*
X146304000Y-119634000D01*
X150146800Y-118262400D02*
X150146800Y-119463600D01*
X150146800Y-119463600D02*
X150164800Y-119481600D01*
X153956800Y-118262400D02*
X153956800Y-119666800D01*
X153956800Y-119666800D02*
X153974800Y-119684800D01*
X157766800Y-118262400D02*
X157766800Y-119398000D01*
X157766800Y-119398000D02*
X157734000Y-119430800D01*
X161544000Y-118262400D02*
X161544000Y-119481600D01*
X142036800Y-111894400D02*
X142374400Y-111894400D01*
X142374400Y-111894400D02*
X143179800Y-112699800D01*
X149564200Y-100469700D02*
X149974300Y-100469700D01*
X149974300Y-100469700D02*
X150520400Y-99923600D01*
X149564200Y-102501700D02*
X149564200Y-100469700D01*
X114443400Y-115951000D02*
X114443400Y-117458600D01*
X114443400Y-117458600D02*
X114427000Y-117475000D01*
X120294400Y-115951000D02*
X120294400Y-117449600D01*
X120294400Y-117449600D02*
X120269000Y-117475000D01*
X126127400Y-115951000D02*
X126127400Y-117458600D01*
X126127400Y-117458600D02*
X126060200Y-117525800D01*
X157251400Y-103586300D02*
X157251400Y-102412800D01*
X157251400Y-102412800D02*
X157784800Y-101879400D01*
X144475200Y-108668800D02*
X144475200Y-109397800D01*
X144475200Y-109397800D02*
X143713200Y-110159800D01*
D21*
G04 #@! TO.N,Net-(D1-Pad2)*
X128168400Y-115942000D02*
X128177400Y-115951000D01*
X128168400Y-113919000D02*
X128168400Y-115942000D01*
G04 #@! TO.N,Net-(D2-Pad2)*
X122344400Y-113919000D02*
X122344400Y-115951000D01*
G04 #@! TO.N,Net-(D3-Pad2)*
X116493400Y-113919000D02*
X116493400Y-115951000D01*
D22*
G04 #@! TO.N,+3V3*
X134366000Y-113547000D02*
X134375000Y-113538000D01*
X134366000Y-117729000D02*
X134366000Y-113547000D01*
X153390600Y-84505800D02*
X162204400Y-84505800D01*
X139750800Y-119272958D02*
X138206842Y-117729000D01*
X139750800Y-123772958D02*
X139750800Y-119272958D01*
X135041000Y-117729000D02*
X134366000Y-117729000D01*
X138206842Y-117729000D02*
X135041000Y-117729000D01*
X163664000Y-84505800D02*
X166395400Y-87237200D01*
X166395400Y-122783600D02*
X163957000Y-125222000D01*
X162204400Y-84505800D02*
X163664000Y-84505800D01*
X163957000Y-125222000D02*
X141199842Y-125222000D01*
X141199842Y-125222000D02*
X139750800Y-123772958D01*
X170408600Y-117094000D02*
X169875200Y-117627400D01*
X170408600Y-114757200D02*
X170408600Y-117094000D01*
X166395400Y-118116432D02*
X166395400Y-118059200D01*
X167165178Y-118886210D02*
X166395400Y-118116432D01*
X169416390Y-118886210D02*
X167165178Y-118886210D01*
X169875200Y-118427400D02*
X169416390Y-118886210D01*
X166395400Y-118059200D02*
X166395400Y-122783600D01*
X169875200Y-117627400D02*
X169875200Y-118427400D01*
X166395400Y-87237200D02*
X166395400Y-118059200D01*
G04 #@! TO.N,+5V*
X153390600Y-87045800D02*
X153492200Y-87045800D01*
X158470600Y-89585800D02*
X162204400Y-89585800D01*
D21*
G04 #@! TO.N,/BCM2_SDA*
X149949801Y-91021801D02*
X150799800Y-91871800D01*
X149695799Y-85660601D02*
X149695799Y-90767799D01*
X149695799Y-90767799D02*
X149949801Y-91021801D01*
X150850600Y-84505800D02*
X149695799Y-85660601D01*
G04 #@! TO.N,/BCM3_SCL*
X148259800Y-90818600D02*
X148259800Y-91871800D01*
X147104999Y-89663799D02*
X148259800Y-90818600D01*
X147104999Y-85711401D02*
X147104999Y-89663799D01*
X148310600Y-84505800D02*
X147104999Y-85711401D01*
G04 #@! TO.N,/BCM4_TDI*
X146290401Y-84171105D02*
X145639105Y-84822401D01*
X169253799Y-108522399D02*
X169253799Y-88761199D01*
X170408600Y-109677200D02*
X169253799Y-108522399D01*
X169253799Y-88761199D02*
X163347420Y-82854820D01*
X147421580Y-82854820D02*
X145770600Y-84505800D01*
X163347420Y-82854820D02*
X147421580Y-82854820D01*
G04 #@! TO.N,/BCM14_TX*
X141859000Y-90957400D02*
X141859000Y-91871800D01*
X145770600Y-87045800D02*
X141859000Y-90957400D01*
G04 #@! TO.N,/BCM15_RX*
X139319000Y-90957400D02*
X139319000Y-91871800D01*
X143230600Y-87045800D02*
X139319000Y-90957400D01*
G04 #@! TO.N,/BCM27_TMS*
X138099800Y-84455000D02*
X138150600Y-84505800D01*
X172782631Y-104763169D02*
X172782631Y-89892981D01*
X170408600Y-107137200D02*
X172782631Y-104763169D01*
X172782631Y-89892981D02*
X164118839Y-81229189D01*
X140030211Y-81229189D02*
X138099800Y-83159600D01*
X164118839Y-81229189D02*
X140030211Y-81229189D01*
X138099800Y-83159600D02*
X138099800Y-84455000D01*
G04 #@! TO.N,/BCM22_TRST*
X136181201Y-84822401D02*
X135825599Y-84466799D01*
X164287179Y-80822779D02*
X139293621Y-80822779D01*
X173278811Y-89814411D02*
X164287179Y-80822779D01*
X139293621Y-80822779D02*
X135610600Y-84505800D01*
X170408600Y-112217200D02*
X173278811Y-109346989D01*
X173278811Y-109346989D02*
X173278811Y-89814411D01*
G04 #@! TO.N,/BCM24_TDO*
X171563401Y-98362399D02*
X171563401Y-90461201D01*
X170408600Y-99517200D02*
X171563401Y-98362399D01*
X171563401Y-90461201D02*
X163550610Y-82448410D01*
X163550610Y-82448410D02*
X143484600Y-82448410D01*
X143484600Y-82448410D02*
X143348486Y-82448410D01*
X143484600Y-82448410D02*
X142671792Y-82448410D01*
X142671792Y-82448410D02*
X142087602Y-83032600D01*
X142087602Y-83032600D02*
X141833603Y-83286599D01*
G04 #@! TO.N,/BCM10_MOSI*
X132207000Y-96824800D02*
X129463800Y-94081600D01*
X135737600Y-97702000D02*
X134860400Y-96824800D01*
X135737600Y-98755200D02*
X135737600Y-97702000D01*
X134860400Y-96824800D02*
X132207000Y-96824800D01*
X129463800Y-89564010D02*
X129463800Y-89204800D01*
X129463800Y-94081600D02*
X129463800Y-89564010D01*
G04 #@! TO.N,/BCM9_MISO*
X128840599Y-85355799D02*
X127990600Y-84505800D01*
X129286000Y-88519000D02*
X129286000Y-85801200D01*
X129286000Y-85801200D02*
X128840599Y-85355799D01*
X128904999Y-88900001D02*
X129286000Y-88519000D01*
X133197600Y-98755200D02*
X128904999Y-94462599D01*
X128904999Y-94462599D02*
X128904999Y-88900001D01*
G04 #@! TO.N,/BCM25_TCK*
X170408600Y-104597200D02*
X172376221Y-102629579D01*
X172376221Y-102629579D02*
X172376221Y-90080221D01*
X139166599Y-82956401D02*
X138912600Y-83210400D01*
X163931600Y-81635600D02*
X140487400Y-81635600D01*
X140487400Y-81635600D02*
X139166599Y-82956401D01*
X172376221Y-90080221D02*
X163931600Y-81635600D01*
G04 #@! TO.N,/BCM11_SCLK*
X129807601Y-97905201D02*
X130657600Y-98755200D01*
X125450600Y-84963000D02*
X126720600Y-86233000D01*
X125450600Y-84505800D02*
X125450600Y-84963000D01*
X126720600Y-86233000D02*
X126720600Y-87741049D01*
X126720600Y-87741049D02*
X127457200Y-88477649D01*
X127457200Y-88477649D02*
X127457200Y-95554800D01*
X127457200Y-95554800D02*
X129807601Y-97905201D01*
G04 #@! TO.N,/BCM8_CE0*
X127050800Y-97688400D02*
X128117600Y-98755200D01*
X125450600Y-87045800D02*
X127050800Y-88646000D01*
X127050800Y-88646000D02*
X127050800Y-97688400D01*
G04 #@! TO.N,/BCM7_CE1*
X125577600Y-98755200D02*
X125145800Y-98323400D01*
X122910600Y-96088200D02*
X125577600Y-98755200D01*
X122910600Y-87045800D02*
X122910600Y-96088200D01*
G04 #@! TO.N,/BCM0*
X118299600Y-91897200D02*
X117246400Y-91897200D01*
X121539000Y-88657800D02*
X118299600Y-91897200D01*
X121539000Y-85674200D02*
X121539000Y-88657800D01*
X120370600Y-84505800D02*
X121539000Y-85674200D01*
G04 #@! TO.N,/BCM1*
X114706400Y-91897200D02*
X116459000Y-90144600D01*
X117271800Y-90144600D02*
X120370600Y-87045800D01*
X116459000Y-90144600D02*
X117271800Y-90144600D01*
G04 #@! TO.N,/BCM5*
X113016399Y-91047201D02*
X112166400Y-91897200D01*
X113956201Y-90107399D02*
X113016399Y-91047201D01*
X113956201Y-86551399D02*
X113956201Y-90107399D01*
X114616601Y-85890999D02*
X113956201Y-86551399D01*
X116999706Y-84505800D02*
X115614507Y-85890999D01*
X115614507Y-85890999D02*
X114616601Y-85890999D01*
X117830600Y-84505800D02*
X116999706Y-84505800D01*
G04 #@! TO.N,/BCM6*
X110566201Y-88620599D02*
X110820200Y-88366600D01*
X109626400Y-91897200D02*
X109626400Y-89560400D01*
X109626400Y-89560400D02*
X110566201Y-88620599D01*
G04 #@! TO.N,/BCM19*
X108825401Y-85890999D02*
X109360601Y-85355799D01*
X109360601Y-85355799D02*
X110210600Y-84505800D01*
X108825401Y-90158199D02*
X108825401Y-85890999D01*
X107086400Y-91897200D02*
X108825401Y-90158199D01*
G04 #@! TO.N,/BCM26*
X105529691Y-85890999D02*
X104278801Y-85890999D01*
X107670600Y-84505800D02*
X106914890Y-84505800D01*
X106914890Y-84505800D02*
X105529691Y-85890999D01*
X100316399Y-91047201D02*
X99466400Y-91897200D01*
X100316399Y-89853401D02*
X100316399Y-91047201D01*
X104278801Y-85890999D02*
X100316399Y-89853401D01*
G04 #@! TO.N,/BCM20*
X107670600Y-88773000D02*
X107670600Y-87045800D01*
X104546400Y-91897200D02*
X107670600Y-88773000D01*
G04 #@! TO.N,/BCM21*
X102006400Y-90170000D02*
X102006400Y-91897200D01*
X105130600Y-87045800D02*
X102006400Y-90170000D01*
G04 #@! TO.N,/L3*
X116332000Y-112030400D02*
X114443400Y-113919000D01*
X116332000Y-110871000D02*
X116332000Y-112030400D01*
G04 #@! TO.N,/L2*
X120294400Y-112293400D02*
X120294400Y-113919000D01*
X118872000Y-110871000D02*
X120294400Y-112293400D01*
G04 #@! TO.N,/L1*
X125495028Y-113295628D02*
X126118400Y-113919000D01*
X123092893Y-111720999D02*
X125290894Y-113919000D01*
X122261999Y-111720999D02*
X123092893Y-111720999D01*
X125443400Y-113919000D02*
X126118400Y-113919000D01*
X125290894Y-113919000D02*
X125443400Y-113919000D01*
X121412000Y-110871000D02*
X122261999Y-111720999D01*
G04 #@! TO.N,/SW3*
X104225500Y-119860500D02*
X113325500Y-119860500D01*
X132325000Y-112738000D02*
X132325000Y-113538000D01*
X132325000Y-112454894D02*
X132325000Y-112738000D01*
X129586305Y-109716199D02*
X132325000Y-112454894D01*
X125106801Y-109716199D02*
X129586305Y-109716199D01*
X123952000Y-110871000D02*
X125106801Y-109716199D01*
X113325500Y-111628858D02*
X113325500Y-118957300D01*
X113325500Y-118957300D02*
X113325500Y-119860500D01*
X115238159Y-109716199D02*
X113325500Y-111628858D01*
X122797199Y-109716199D02*
X115238159Y-109716199D01*
X123952000Y-110871000D02*
X122797199Y-109716199D01*
G04 #@! TO.N,/SW2*
X116481000Y-119860500D02*
X125581000Y-119860500D01*
X130937000Y-116350000D02*
X132316000Y-117729000D01*
X129692400Y-112191800D02*
X130937000Y-113436400D01*
X130937000Y-113436400D02*
X130937000Y-116350000D01*
X126492000Y-110871000D02*
X127812800Y-112191800D01*
X127812800Y-112191800D02*
X129692400Y-112191800D01*
X125894900Y-118643400D02*
X125581000Y-118957300D01*
X132316000Y-117729000D02*
X131401600Y-118643400D01*
X125581000Y-118957300D02*
X125581000Y-119860500D01*
X131401600Y-118643400D02*
X125894900Y-118643400D01*
G04 #@! TO.N,/SW1*
X136329300Y-119860500D02*
X137582500Y-119860500D01*
X134866036Y-119860500D02*
X136329300Y-119860500D01*
X133435390Y-118429854D02*
X134866036Y-119860500D01*
X133435390Y-116752890D02*
X133435390Y-118429854D01*
X132316000Y-115633500D02*
X133435390Y-116752890D01*
X132004744Y-119860500D02*
X133435390Y-118429854D01*
X128482500Y-119860500D02*
X132004744Y-119860500D01*
X131343411Y-114660911D02*
X131692628Y-115010128D01*
X131343411Y-113182411D02*
X131343411Y-114660911D01*
X129032000Y-110871000D02*
X131343411Y-113182411D01*
X131692628Y-115010128D02*
X132316000Y-115633500D01*
G04 #@! TO.N,/CE_DAC*
X144475200Y-103743800D02*
X144475200Y-103268800D01*
X143870399Y-104348601D02*
X144475200Y-103743800D01*
X141391359Y-104348601D02*
X143870399Y-104348601D01*
X140725558Y-103682800D02*
X141391359Y-104348601D01*
X127965200Y-103682800D02*
X140725558Y-103682800D01*
X125577600Y-101295200D02*
X127965200Y-103682800D01*
G04 #@! TO.N,/CE_ADC*
X162331400Y-102412800D02*
X157861001Y-97942401D01*
X162331400Y-103586300D02*
X162331400Y-102412800D01*
X128967599Y-100445201D02*
X128117600Y-101295200D01*
X129349509Y-100063291D02*
X128967599Y-100445201D01*
X157861001Y-97942401D02*
X142519399Y-97942401D01*
X142519399Y-97942401D02*
X140398509Y-100063291D01*
X140398509Y-100063291D02*
X129349509Y-100063291D01*
G04 #@! TO.N,/MISO*
X159791400Y-101346000D02*
X157200623Y-98755223D01*
X159791400Y-103586300D02*
X159791400Y-101346000D01*
X134047599Y-102145199D02*
X133197600Y-101295200D01*
X136723434Y-102488989D02*
X134391389Y-102488989D01*
X140735189Y-100876113D02*
X138336310Y-100876113D01*
X157200623Y-98755223D02*
X142856079Y-98755223D01*
X142856079Y-98755223D02*
X140735189Y-100876113D01*
X134391389Y-102488989D02*
X134047599Y-102145199D01*
X138336310Y-100876113D02*
X136723434Y-102488989D01*
G04 #@! TO.N,/MOSI*
X135737600Y-100533200D02*
X135801100Y-100469700D01*
X136939681Y-101295200D02*
X135737600Y-101295200D01*
X137765179Y-100469702D02*
X136939681Y-101295200D01*
X161061400Y-103586300D02*
X161061400Y-101828600D01*
X161061400Y-101828600D02*
X157581612Y-98348812D01*
X157581612Y-98348812D02*
X142687739Y-98348812D01*
X142687739Y-98348812D02*
X140566849Y-100469702D01*
X140566849Y-100469702D02*
X137765179Y-100469702D01*
X139032000Y-103268800D02*
X138480799Y-102717599D01*
X141935200Y-103268800D02*
X139032000Y-103268800D01*
X138480799Y-102717599D02*
X138226800Y-102463600D01*
G04 #@! TO.N,/SCLK*
X158521400Y-100660200D02*
X158521400Y-102633100D01*
X157022834Y-99161634D02*
X158521400Y-100660200D01*
X158521400Y-102633100D02*
X158521400Y-103586300D01*
X141122370Y-101282524D02*
X143243260Y-99161634D01*
X143243260Y-99161634D02*
X157022834Y-99161634D01*
X142717824Y-101282524D02*
X141122370Y-101282524D01*
X143205200Y-103268800D02*
X143205200Y-101769900D01*
X143205200Y-101769900D02*
X142717824Y-101282524D01*
X132257800Y-102895400D02*
X136891774Y-102895400D01*
X136891774Y-102895400D02*
X138504650Y-101282524D01*
X130657600Y-101295200D02*
X132257800Y-102895400D01*
X138504650Y-101282524D02*
X141122370Y-101282524D01*
G04 #@! TO.N,Net-(J8-Pad2)*
X154762200Y-108656100D02*
X154762200Y-109609300D01*
X154208200Y-108986300D02*
X154711400Y-108986300D01*
X153161700Y-110032800D02*
X154208200Y-108986300D01*
X144881600Y-112877600D02*
X147726400Y-110032800D01*
X147726400Y-110032800D02*
X153161700Y-110032800D01*
G04 #@! TO.N,Net-(J8-Pad4)*
X156032200Y-108656100D02*
X156032200Y-109609300D01*
X149860000Y-110439200D02*
X148271599Y-112027601D01*
X154978500Y-110439200D02*
X149860000Y-110439200D01*
X155981400Y-108986300D02*
X155981400Y-109436300D01*
X148271599Y-112027601D02*
X147421600Y-112877600D01*
X155981400Y-109436300D02*
X154978500Y-110439200D01*
G04 #@! TO.N,Net-(J8-Pad6)*
X157302200Y-108656100D02*
X157302200Y-109283500D01*
X157251400Y-108986300D02*
X157251400Y-109244250D01*
X157251400Y-108986300D02*
X157251400Y-109436300D01*
X151993589Y-110845611D02*
X150811599Y-112027601D01*
X155842089Y-110845611D02*
X151993589Y-110845611D01*
X157251400Y-109436300D02*
X155842089Y-110845611D01*
X150811599Y-112027601D02*
X149961600Y-112877600D01*
G04 #@! TO.N,Net-(J8-Pad8)*
X158572200Y-108656100D02*
X158572200Y-109106100D01*
X154127178Y-111252022D02*
X153351599Y-112027601D01*
X156705678Y-111252022D02*
X154127178Y-111252022D01*
X158521400Y-109436300D02*
X156705678Y-111252022D01*
X158521400Y-108986300D02*
X158521400Y-109436300D01*
X153351599Y-112027601D02*
X152501600Y-112877600D01*
D22*
G04 #@! TO.N,VDD*
X154599400Y-103093300D02*
X154762200Y-103256100D01*
X153631900Y-102506800D02*
X154711400Y-103586300D01*
X153631900Y-100698300D02*
X153631900Y-102506800D01*
X153631900Y-102648800D02*
X152806400Y-103474300D01*
X153631900Y-100698300D02*
X153631900Y-102648800D01*
X147514200Y-100469700D02*
X147514200Y-102501700D01*
X155371800Y-95478600D02*
X154025599Y-96824801D01*
X158470600Y-87045800D02*
X155371800Y-90144600D01*
X154025599Y-96824801D02*
X153644600Y-97205800D01*
X155371800Y-90144600D02*
X155371800Y-95478600D01*
X146747100Y-103268800D02*
X147514200Y-102501700D01*
X145745200Y-103268800D02*
X146747100Y-103268800D01*
X146359900Y-103268800D02*
X148475700Y-105384600D01*
X145745200Y-103268800D02*
X146359900Y-103268800D01*
X150896100Y-105384600D02*
X148475700Y-105384600D01*
X152806400Y-103474300D02*
X150896100Y-105384600D01*
D21*
G04 #@! TO.N,Net-(J9-Pad2)*
X140860800Y-108668800D02*
X141935200Y-108668800D01*
X139166600Y-107899200D02*
X139936200Y-108668800D01*
X139936200Y-108668800D02*
X140860800Y-108668800D01*
G04 #@! TO.N,Net-(J10-Pad1)*
X143860801Y-107538199D02*
X143205200Y-108193800D01*
X147036099Y-107538199D02*
X143860801Y-107538199D01*
X143205200Y-108193800D02*
X143205200Y-108668800D01*
X147422500Y-107924600D02*
X147036099Y-107538199D01*
X148475700Y-107924600D02*
X147422500Y-107924600D01*
G04 #@! TO.N,Net-(J12-Pad2)*
X139991199Y-112027601D02*
X139141200Y-112877600D01*
X141055010Y-110963790D02*
X139991199Y-112027601D01*
X144587755Y-110963790D02*
X141055010Y-110963790D01*
X145745200Y-108668800D02*
X145745200Y-109806345D01*
X145745200Y-109806345D02*
X144587755Y-110963790D01*
G04 #@! TO.N,/BCM18_PWM0*
X137933801Y-98971999D02*
X137591800Y-99314000D01*
X137933801Y-91547893D02*
X137933801Y-98971999D01*
X140690600Y-87045800D02*
X140690600Y-88791094D01*
X140690600Y-88791094D02*
X137933801Y-91547893D01*
G04 #@! TO.N,/BCM12_PWM0*
X116433600Y-100695050D02*
X116433600Y-101269800D01*
X117588401Y-98175495D02*
X117588401Y-99540249D01*
X117588401Y-99540249D02*
X116433600Y-100695050D01*
X113551599Y-94138693D02*
X117588401Y-98175495D01*
X113551599Y-91342895D02*
X113551599Y-94138693D01*
X114440601Y-90453893D02*
X113551599Y-91342895D01*
X114440601Y-87895799D02*
X114440601Y-90453893D01*
X115290600Y-87045800D02*
X114440601Y-87895799D01*
G04 #@! TO.N,/BCM13_PWM1*
X110998000Y-93294200D02*
X116433600Y-98729800D01*
X111480600Y-88620600D02*
X110998000Y-89103200D01*
X112750600Y-84505800D02*
X111480600Y-85775800D01*
X110998000Y-89103200D02*
X110998000Y-93294200D01*
X111480600Y-85775800D02*
X111480600Y-88620600D01*
G04 #@! TO.N,/BCM23_RTCK*
X136460599Y-86195801D02*
X135610600Y-87045800D01*
X136816201Y-85840199D02*
X136460599Y-86195801D01*
X138525307Y-85840199D02*
X136816201Y-85840199D01*
X139305401Y-85060105D02*
X138525307Y-85840199D01*
X171969811Y-100495989D02*
X171969811Y-90248561D01*
X141427191Y-82042009D02*
X139305401Y-84163799D01*
X170408600Y-102057200D02*
X171969811Y-100495989D01*
X171969811Y-90248561D02*
X163763259Y-82042009D01*
X163763259Y-82042009D02*
X141427191Y-82042009D01*
X139305401Y-84163799D02*
X139305401Y-85060105D01*
D22*
G04 #@! TO.N,Net-(J5-Pad2)*
X167868600Y-117584000D02*
X167825200Y-117627400D01*
X167868600Y-114757200D02*
X167868600Y-117584000D01*
D21*
G04 #@! TO.N,/BCM17_RTS*
X138238611Y-90310589D02*
X135800211Y-90310589D01*
X139535799Y-89013401D02*
X138238611Y-90310589D01*
X135088999Y-91021801D02*
X134239000Y-91871800D01*
X140690600Y-84505800D02*
X139535799Y-85660601D01*
X135800211Y-90310589D02*
X135088999Y-91021801D01*
X139535799Y-85660601D02*
X139535799Y-89013401D01*
G04 #@! TO.N,/BCM16_CTS*
X134231694Y-93573600D02*
X137185400Y-93573600D01*
X133084199Y-92426105D02*
X134231694Y-93573600D01*
X133084199Y-90916917D02*
X133084199Y-92426105D01*
X131915799Y-89748517D02*
X133084199Y-90916917D01*
X131915799Y-83884399D02*
X131915799Y-89748517D01*
X110210600Y-87045800D02*
X110210600Y-86214906D01*
X111429800Y-84995706D02*
X111429800Y-84117494D01*
X111429800Y-84117494D02*
X113149694Y-82397600D01*
X113149694Y-82397600D02*
X130429000Y-82397600D01*
X110210600Y-86214906D02*
X111429800Y-84995706D01*
X130429000Y-82397600D02*
X131915799Y-83884399D01*
G04 #@! TO.N,/AR0*
X144526000Y-115773200D02*
X144881600Y-115417600D01*
X142036800Y-115773200D02*
X144526000Y-115773200D01*
X144881600Y-120003200D02*
X144881600Y-115417600D01*
X144881600Y-121056400D02*
X144881600Y-120003200D01*
G04 #@! TO.N,/AR1*
X147421600Y-121056400D02*
X147421600Y-115417600D01*
X146571601Y-114567601D02*
X147421600Y-115417600D01*
X146266799Y-114262799D02*
X146571601Y-114567601D01*
X142836800Y-113944400D02*
X143155199Y-114262799D01*
X143155199Y-114262799D02*
X146266799Y-114262799D01*
X142036800Y-113944400D02*
X142836800Y-113944400D01*
G04 #@! TO.N,/AR2*
X149961600Y-116687600D02*
X149961600Y-115417600D01*
X148386800Y-118262400D02*
X149961600Y-116687600D01*
X148386800Y-119481600D02*
X148386800Y-118262400D01*
X149961600Y-121056400D02*
X148386800Y-119481600D01*
G04 #@! TO.N,/AR3*
X152196800Y-115722400D02*
X152501600Y-115417600D01*
X152196800Y-118262400D02*
X152196800Y-115722400D01*
X152501600Y-118567200D02*
X152196800Y-118262400D01*
X152501600Y-121056400D02*
X152501600Y-118567200D01*
G04 #@! TO.N,/AR4*
X156006800Y-116382800D02*
X155041600Y-115417600D01*
X156006800Y-118262400D02*
X156006800Y-116382800D01*
X156006800Y-120091200D02*
X156006800Y-118262400D01*
X155041600Y-121056400D02*
X156006800Y-120091200D01*
G04 #@! TO.N,/AR5*
X142105600Y-122072400D02*
X142105600Y-122233800D01*
X158431599Y-116267599D02*
X157581600Y-115417600D01*
X158697410Y-116533410D02*
X158431599Y-116267599D01*
X158697410Y-119940590D02*
X158697410Y-116533410D01*
X157581600Y-121056400D02*
X158697410Y-119940590D01*
X156731601Y-121906399D02*
X157581600Y-121056400D01*
X156426799Y-122211201D02*
X156731601Y-121906399D01*
X142564001Y-122211201D02*
X156426799Y-122211201D01*
X142036800Y-121684000D02*
X142564001Y-122211201D01*
G04 #@! TO.N,/AR6*
X159816800Y-115722400D02*
X160121600Y-115417600D01*
X159816800Y-118262400D02*
X159816800Y-115722400D01*
X160121600Y-118567200D02*
X159816800Y-118262400D01*
X160121600Y-121056400D02*
X160121600Y-118567200D01*
G04 #@! TO.N,/AR7*
X163594000Y-116350000D02*
X162661600Y-115417600D01*
X163594000Y-118262400D02*
X163594000Y-116350000D01*
X163594000Y-120124000D02*
X163594000Y-118262400D01*
X162661600Y-121056400D02*
X163594000Y-120124000D01*
D22*
G04 #@! TO.N,VCC*
X162661600Y-123596400D02*
X144881600Y-123596400D01*
X163511599Y-122746401D02*
X162661600Y-123596400D01*
X165481000Y-120777000D02*
X163511599Y-122746401D01*
X162204400Y-87045800D02*
X165481000Y-90322400D01*
X165481000Y-90322400D02*
X165481000Y-120777000D01*
D21*
G04 #@! TO.N,Net-(J11-Pad2)*
X155981400Y-100888800D02*
X156171900Y-100698300D01*
X155981400Y-103586300D02*
X155981400Y-100888800D01*
G04 #@! TO.N,Net-(J8-Pad10)*
X159842200Y-108656100D02*
X159842200Y-109609300D01*
X159791400Y-108986300D02*
X159791400Y-109715300D01*
X155891599Y-112027601D02*
X155041600Y-112877600D01*
X156196401Y-111722799D02*
X155891599Y-112027601D01*
X158008101Y-111722799D02*
X156196401Y-111722799D01*
X159791400Y-109939500D02*
X158008101Y-111722799D01*
X159791400Y-108986300D02*
X159791400Y-109939500D01*
G04 #@! TO.N,Net-(J8-Pad12)*
X161061400Y-109245400D02*
X161061400Y-108986300D01*
X157620100Y-112877600D02*
X157581600Y-112877600D01*
X161061400Y-109436300D02*
X157620100Y-112877600D01*
X161061400Y-108986300D02*
X161061400Y-109436300D01*
G04 #@! TO.N,Net-(J8-Pad14)*
X162331400Y-110667800D02*
X160121600Y-112877600D01*
X162331400Y-108986300D02*
X162331400Y-110667800D01*
G04 #@! TO.N,Net-(J8-Pad16)*
X163601400Y-109939500D02*
X163601400Y-108986300D01*
X163601400Y-110735719D02*
X163601400Y-109939500D01*
X162661600Y-111675519D02*
X163601400Y-110735719D01*
X162661600Y-112877600D02*
X162661600Y-111675519D01*
G04 #@! TD*
M02*
