G04 #@! TF.GenerationSoftware,KiCad,Pcbnew,5.0.2+dfsg1-1*
G04 #@! TF.CreationDate,2019-10-18T14:29:09+02:00*
G04 #@! TF.ProjectId,BEE,4245452e-6b69-4636-9164-5f7063625858,rev?*
G04 #@! TF.SameCoordinates,Original*
G04 #@! TF.FileFunction,Paste,Top*
G04 #@! TF.FilePolarity,Positive*
%FSLAX46Y46*%
G04 Gerber Fmt 4.6, Leading zero omitted, Abs format (unit mm)*
G04 Created by KiCad (PCBNEW 5.0.2+dfsg1-1) date Fri 18 Oct 2019 02:29:09 PM CEST*
%MOMM*%
%LPD*%
G01*
G04 APERTURE LIST*
%ADD10C,0.100000*%
%ADD11C,1.150000*%
%ADD12R,0.600000X1.500000*%
%ADD13R,2.100000X1.400000*%
%ADD14R,0.600000X1.550000*%
G04 APERTURE END LIST*
D10*
G04 #@! TO.C,D2*
G36*
X123557505Y-109791204D02*
X123581773Y-109794804D01*
X123605572Y-109800765D01*
X123628671Y-109809030D01*
X123650850Y-109819520D01*
X123671893Y-109832132D01*
X123691599Y-109846747D01*
X123709777Y-109863223D01*
X123726253Y-109881401D01*
X123740868Y-109901107D01*
X123753480Y-109922150D01*
X123763970Y-109944329D01*
X123772235Y-109967428D01*
X123778196Y-109991227D01*
X123781796Y-110015495D01*
X123783000Y-110039999D01*
X123783000Y-110940001D01*
X123781796Y-110964505D01*
X123778196Y-110988773D01*
X123772235Y-111012572D01*
X123763970Y-111035671D01*
X123753480Y-111057850D01*
X123740868Y-111078893D01*
X123726253Y-111098599D01*
X123709777Y-111116777D01*
X123691599Y-111133253D01*
X123671893Y-111147868D01*
X123650850Y-111160480D01*
X123628671Y-111170970D01*
X123605572Y-111179235D01*
X123581773Y-111185196D01*
X123557505Y-111188796D01*
X123533001Y-111190000D01*
X122882999Y-111190000D01*
X122858495Y-111188796D01*
X122834227Y-111185196D01*
X122810428Y-111179235D01*
X122787329Y-111170970D01*
X122765150Y-111160480D01*
X122744107Y-111147868D01*
X122724401Y-111133253D01*
X122706223Y-111116777D01*
X122689747Y-111098599D01*
X122675132Y-111078893D01*
X122662520Y-111057850D01*
X122652030Y-111035671D01*
X122643765Y-111012572D01*
X122637804Y-110988773D01*
X122634204Y-110964505D01*
X122633000Y-110940001D01*
X122633000Y-110039999D01*
X122634204Y-110015495D01*
X122637804Y-109991227D01*
X122643765Y-109967428D01*
X122652030Y-109944329D01*
X122662520Y-109922150D01*
X122675132Y-109901107D01*
X122689747Y-109881401D01*
X122706223Y-109863223D01*
X122724401Y-109846747D01*
X122744107Y-109832132D01*
X122765150Y-109819520D01*
X122787329Y-109809030D01*
X122810428Y-109800765D01*
X122834227Y-109794804D01*
X122858495Y-109791204D01*
X122882999Y-109790000D01*
X123533001Y-109790000D01*
X123557505Y-109791204D01*
X123557505Y-109791204D01*
G37*
D11*
X123208000Y-110490000D03*
D10*
G36*
X121507505Y-109791204D02*
X121531773Y-109794804D01*
X121555572Y-109800765D01*
X121578671Y-109809030D01*
X121600850Y-109819520D01*
X121621893Y-109832132D01*
X121641599Y-109846747D01*
X121659777Y-109863223D01*
X121676253Y-109881401D01*
X121690868Y-109901107D01*
X121703480Y-109922150D01*
X121713970Y-109944329D01*
X121722235Y-109967428D01*
X121728196Y-109991227D01*
X121731796Y-110015495D01*
X121733000Y-110039999D01*
X121733000Y-110940001D01*
X121731796Y-110964505D01*
X121728196Y-110988773D01*
X121722235Y-111012572D01*
X121713970Y-111035671D01*
X121703480Y-111057850D01*
X121690868Y-111078893D01*
X121676253Y-111098599D01*
X121659777Y-111116777D01*
X121641599Y-111133253D01*
X121621893Y-111147868D01*
X121600850Y-111160480D01*
X121578671Y-111170970D01*
X121555572Y-111179235D01*
X121531773Y-111185196D01*
X121507505Y-111188796D01*
X121483001Y-111190000D01*
X120832999Y-111190000D01*
X120808495Y-111188796D01*
X120784227Y-111185196D01*
X120760428Y-111179235D01*
X120737329Y-111170970D01*
X120715150Y-111160480D01*
X120694107Y-111147868D01*
X120674401Y-111133253D01*
X120656223Y-111116777D01*
X120639747Y-111098599D01*
X120625132Y-111078893D01*
X120612520Y-111057850D01*
X120602030Y-111035671D01*
X120593765Y-111012572D01*
X120587804Y-110988773D01*
X120584204Y-110964505D01*
X120583000Y-110940001D01*
X120583000Y-110039999D01*
X120584204Y-110015495D01*
X120587804Y-109991227D01*
X120593765Y-109967428D01*
X120602030Y-109944329D01*
X120612520Y-109922150D01*
X120625132Y-109901107D01*
X120639747Y-109881401D01*
X120656223Y-109863223D01*
X120674401Y-109846747D01*
X120694107Y-109832132D01*
X120715150Y-109819520D01*
X120737329Y-109809030D01*
X120760428Y-109800765D01*
X120784227Y-109794804D01*
X120808495Y-109791204D01*
X120832999Y-109790000D01*
X121483001Y-109790000D01*
X121507505Y-109791204D01*
X121507505Y-109791204D01*
G37*
D11*
X121158000Y-110490000D03*
G04 #@! TD*
D12*
G04 #@! TO.C,U1*
X156337000Y-108044000D03*
X157607000Y-108044000D03*
X158877000Y-108044000D03*
X160147000Y-108044000D03*
X161417000Y-108044000D03*
X162687000Y-108044000D03*
X163957000Y-108044000D03*
X165227000Y-108044000D03*
X165227000Y-113444000D03*
X163957000Y-113444000D03*
X162687000Y-113444000D03*
X161417000Y-113444000D03*
X160147000Y-113444000D03*
X158877000Y-113444000D03*
X157607000Y-113444000D03*
X156337000Y-113444000D03*
G04 #@! TD*
D10*
G04 #@! TO.C,R2*
G36*
X123557505Y-107759204D02*
X123581773Y-107762804D01*
X123605572Y-107768765D01*
X123628671Y-107777030D01*
X123650850Y-107787520D01*
X123671893Y-107800132D01*
X123691599Y-107814747D01*
X123709777Y-107831223D01*
X123726253Y-107849401D01*
X123740868Y-107869107D01*
X123753480Y-107890150D01*
X123763970Y-107912329D01*
X123772235Y-107935428D01*
X123778196Y-107959227D01*
X123781796Y-107983495D01*
X123783000Y-108007999D01*
X123783000Y-108908001D01*
X123781796Y-108932505D01*
X123778196Y-108956773D01*
X123772235Y-108980572D01*
X123763970Y-109003671D01*
X123753480Y-109025850D01*
X123740868Y-109046893D01*
X123726253Y-109066599D01*
X123709777Y-109084777D01*
X123691599Y-109101253D01*
X123671893Y-109115868D01*
X123650850Y-109128480D01*
X123628671Y-109138970D01*
X123605572Y-109147235D01*
X123581773Y-109153196D01*
X123557505Y-109156796D01*
X123533001Y-109158000D01*
X122882999Y-109158000D01*
X122858495Y-109156796D01*
X122834227Y-109153196D01*
X122810428Y-109147235D01*
X122787329Y-109138970D01*
X122765150Y-109128480D01*
X122744107Y-109115868D01*
X122724401Y-109101253D01*
X122706223Y-109084777D01*
X122689747Y-109066599D01*
X122675132Y-109046893D01*
X122662520Y-109025850D01*
X122652030Y-109003671D01*
X122643765Y-108980572D01*
X122637804Y-108956773D01*
X122634204Y-108932505D01*
X122633000Y-108908001D01*
X122633000Y-108007999D01*
X122634204Y-107983495D01*
X122637804Y-107959227D01*
X122643765Y-107935428D01*
X122652030Y-107912329D01*
X122662520Y-107890150D01*
X122675132Y-107869107D01*
X122689747Y-107849401D01*
X122706223Y-107831223D01*
X122724401Y-107814747D01*
X122744107Y-107800132D01*
X122765150Y-107787520D01*
X122787329Y-107777030D01*
X122810428Y-107768765D01*
X122834227Y-107762804D01*
X122858495Y-107759204D01*
X122882999Y-107758000D01*
X123533001Y-107758000D01*
X123557505Y-107759204D01*
X123557505Y-107759204D01*
G37*
D11*
X123208000Y-108458000D03*
D10*
G36*
X121507505Y-107759204D02*
X121531773Y-107762804D01*
X121555572Y-107768765D01*
X121578671Y-107777030D01*
X121600850Y-107787520D01*
X121621893Y-107800132D01*
X121641599Y-107814747D01*
X121659777Y-107831223D01*
X121676253Y-107849401D01*
X121690868Y-107869107D01*
X121703480Y-107890150D01*
X121713970Y-107912329D01*
X121722235Y-107935428D01*
X121728196Y-107959227D01*
X121731796Y-107983495D01*
X121733000Y-108007999D01*
X121733000Y-108908001D01*
X121731796Y-108932505D01*
X121728196Y-108956773D01*
X121722235Y-108980572D01*
X121713970Y-109003671D01*
X121703480Y-109025850D01*
X121690868Y-109046893D01*
X121676253Y-109066599D01*
X121659777Y-109084777D01*
X121641599Y-109101253D01*
X121621893Y-109115868D01*
X121600850Y-109128480D01*
X121578671Y-109138970D01*
X121555572Y-109147235D01*
X121531773Y-109153196D01*
X121507505Y-109156796D01*
X121483001Y-109158000D01*
X120832999Y-109158000D01*
X120808495Y-109156796D01*
X120784227Y-109153196D01*
X120760428Y-109147235D01*
X120737329Y-109138970D01*
X120715150Y-109128480D01*
X120694107Y-109115868D01*
X120674401Y-109101253D01*
X120656223Y-109084777D01*
X120639747Y-109066599D01*
X120625132Y-109046893D01*
X120612520Y-109025850D01*
X120602030Y-109003671D01*
X120593765Y-108980572D01*
X120587804Y-108956773D01*
X120584204Y-108932505D01*
X120583000Y-108908001D01*
X120583000Y-108007999D01*
X120584204Y-107983495D01*
X120587804Y-107959227D01*
X120593765Y-107935428D01*
X120602030Y-107912329D01*
X120612520Y-107890150D01*
X120625132Y-107869107D01*
X120639747Y-107849401D01*
X120656223Y-107831223D01*
X120674401Y-107814747D01*
X120694107Y-107800132D01*
X120715150Y-107787520D01*
X120737329Y-107777030D01*
X120760428Y-107768765D01*
X120784227Y-107762804D01*
X120808495Y-107759204D01*
X120832999Y-107758000D01*
X121483001Y-107758000D01*
X121507505Y-107759204D01*
X121507505Y-107759204D01*
G37*
D11*
X121158000Y-108458000D03*
G04 #@! TD*
D10*
G04 #@! TO.C,R3*
G36*
X129390505Y-107759204D02*
X129414773Y-107762804D01*
X129438572Y-107768765D01*
X129461671Y-107777030D01*
X129483850Y-107787520D01*
X129504893Y-107800132D01*
X129524599Y-107814747D01*
X129542777Y-107831223D01*
X129559253Y-107849401D01*
X129573868Y-107869107D01*
X129586480Y-107890150D01*
X129596970Y-107912329D01*
X129605235Y-107935428D01*
X129611196Y-107959227D01*
X129614796Y-107983495D01*
X129616000Y-108007999D01*
X129616000Y-108908001D01*
X129614796Y-108932505D01*
X129611196Y-108956773D01*
X129605235Y-108980572D01*
X129596970Y-109003671D01*
X129586480Y-109025850D01*
X129573868Y-109046893D01*
X129559253Y-109066599D01*
X129542777Y-109084777D01*
X129524599Y-109101253D01*
X129504893Y-109115868D01*
X129483850Y-109128480D01*
X129461671Y-109138970D01*
X129438572Y-109147235D01*
X129414773Y-109153196D01*
X129390505Y-109156796D01*
X129366001Y-109158000D01*
X128715999Y-109158000D01*
X128691495Y-109156796D01*
X128667227Y-109153196D01*
X128643428Y-109147235D01*
X128620329Y-109138970D01*
X128598150Y-109128480D01*
X128577107Y-109115868D01*
X128557401Y-109101253D01*
X128539223Y-109084777D01*
X128522747Y-109066599D01*
X128508132Y-109046893D01*
X128495520Y-109025850D01*
X128485030Y-109003671D01*
X128476765Y-108980572D01*
X128470804Y-108956773D01*
X128467204Y-108932505D01*
X128466000Y-108908001D01*
X128466000Y-108007999D01*
X128467204Y-107983495D01*
X128470804Y-107959227D01*
X128476765Y-107935428D01*
X128485030Y-107912329D01*
X128495520Y-107890150D01*
X128508132Y-107869107D01*
X128522747Y-107849401D01*
X128539223Y-107831223D01*
X128557401Y-107814747D01*
X128577107Y-107800132D01*
X128598150Y-107787520D01*
X128620329Y-107777030D01*
X128643428Y-107768765D01*
X128667227Y-107762804D01*
X128691495Y-107759204D01*
X128715999Y-107758000D01*
X129366001Y-107758000D01*
X129390505Y-107759204D01*
X129390505Y-107759204D01*
G37*
D11*
X129041000Y-108458000D03*
D10*
G36*
X127340505Y-107759204D02*
X127364773Y-107762804D01*
X127388572Y-107768765D01*
X127411671Y-107777030D01*
X127433850Y-107787520D01*
X127454893Y-107800132D01*
X127474599Y-107814747D01*
X127492777Y-107831223D01*
X127509253Y-107849401D01*
X127523868Y-107869107D01*
X127536480Y-107890150D01*
X127546970Y-107912329D01*
X127555235Y-107935428D01*
X127561196Y-107959227D01*
X127564796Y-107983495D01*
X127566000Y-108007999D01*
X127566000Y-108908001D01*
X127564796Y-108932505D01*
X127561196Y-108956773D01*
X127555235Y-108980572D01*
X127546970Y-109003671D01*
X127536480Y-109025850D01*
X127523868Y-109046893D01*
X127509253Y-109066599D01*
X127492777Y-109084777D01*
X127474599Y-109101253D01*
X127454893Y-109115868D01*
X127433850Y-109128480D01*
X127411671Y-109138970D01*
X127388572Y-109147235D01*
X127364773Y-109153196D01*
X127340505Y-109156796D01*
X127316001Y-109158000D01*
X126665999Y-109158000D01*
X126641495Y-109156796D01*
X126617227Y-109153196D01*
X126593428Y-109147235D01*
X126570329Y-109138970D01*
X126548150Y-109128480D01*
X126527107Y-109115868D01*
X126507401Y-109101253D01*
X126489223Y-109084777D01*
X126472747Y-109066599D01*
X126458132Y-109046893D01*
X126445520Y-109025850D01*
X126435030Y-109003671D01*
X126426765Y-108980572D01*
X126420804Y-108956773D01*
X126417204Y-108932505D01*
X126416000Y-108908001D01*
X126416000Y-108007999D01*
X126417204Y-107983495D01*
X126420804Y-107959227D01*
X126426765Y-107935428D01*
X126435030Y-107912329D01*
X126445520Y-107890150D01*
X126458132Y-107869107D01*
X126472747Y-107849401D01*
X126489223Y-107831223D01*
X126507401Y-107814747D01*
X126527107Y-107800132D01*
X126548150Y-107787520D01*
X126570329Y-107777030D01*
X126593428Y-107768765D01*
X126617227Y-107762804D01*
X126641495Y-107759204D01*
X126665999Y-107758000D01*
X127316001Y-107758000D01*
X127340505Y-107759204D01*
X127340505Y-107759204D01*
G37*
D11*
X126991000Y-108458000D03*
G04 #@! TD*
D10*
G04 #@! TO.C,D1*
G36*
X117706505Y-109791204D02*
X117730773Y-109794804D01*
X117754572Y-109800765D01*
X117777671Y-109809030D01*
X117799850Y-109819520D01*
X117820893Y-109832132D01*
X117840599Y-109846747D01*
X117858777Y-109863223D01*
X117875253Y-109881401D01*
X117889868Y-109901107D01*
X117902480Y-109922150D01*
X117912970Y-109944329D01*
X117921235Y-109967428D01*
X117927196Y-109991227D01*
X117930796Y-110015495D01*
X117932000Y-110039999D01*
X117932000Y-110940001D01*
X117930796Y-110964505D01*
X117927196Y-110988773D01*
X117921235Y-111012572D01*
X117912970Y-111035671D01*
X117902480Y-111057850D01*
X117889868Y-111078893D01*
X117875253Y-111098599D01*
X117858777Y-111116777D01*
X117840599Y-111133253D01*
X117820893Y-111147868D01*
X117799850Y-111160480D01*
X117777671Y-111170970D01*
X117754572Y-111179235D01*
X117730773Y-111185196D01*
X117706505Y-111188796D01*
X117682001Y-111190000D01*
X117031999Y-111190000D01*
X117007495Y-111188796D01*
X116983227Y-111185196D01*
X116959428Y-111179235D01*
X116936329Y-111170970D01*
X116914150Y-111160480D01*
X116893107Y-111147868D01*
X116873401Y-111133253D01*
X116855223Y-111116777D01*
X116838747Y-111098599D01*
X116824132Y-111078893D01*
X116811520Y-111057850D01*
X116801030Y-111035671D01*
X116792765Y-111012572D01*
X116786804Y-110988773D01*
X116783204Y-110964505D01*
X116782000Y-110940001D01*
X116782000Y-110039999D01*
X116783204Y-110015495D01*
X116786804Y-109991227D01*
X116792765Y-109967428D01*
X116801030Y-109944329D01*
X116811520Y-109922150D01*
X116824132Y-109901107D01*
X116838747Y-109881401D01*
X116855223Y-109863223D01*
X116873401Y-109846747D01*
X116893107Y-109832132D01*
X116914150Y-109819520D01*
X116936329Y-109809030D01*
X116959428Y-109800765D01*
X116983227Y-109794804D01*
X117007495Y-109791204D01*
X117031999Y-109790000D01*
X117682001Y-109790000D01*
X117706505Y-109791204D01*
X117706505Y-109791204D01*
G37*
D11*
X117357000Y-110490000D03*
D10*
G36*
X115656505Y-109791204D02*
X115680773Y-109794804D01*
X115704572Y-109800765D01*
X115727671Y-109809030D01*
X115749850Y-109819520D01*
X115770893Y-109832132D01*
X115790599Y-109846747D01*
X115808777Y-109863223D01*
X115825253Y-109881401D01*
X115839868Y-109901107D01*
X115852480Y-109922150D01*
X115862970Y-109944329D01*
X115871235Y-109967428D01*
X115877196Y-109991227D01*
X115880796Y-110015495D01*
X115882000Y-110039999D01*
X115882000Y-110940001D01*
X115880796Y-110964505D01*
X115877196Y-110988773D01*
X115871235Y-111012572D01*
X115862970Y-111035671D01*
X115852480Y-111057850D01*
X115839868Y-111078893D01*
X115825253Y-111098599D01*
X115808777Y-111116777D01*
X115790599Y-111133253D01*
X115770893Y-111147868D01*
X115749850Y-111160480D01*
X115727671Y-111170970D01*
X115704572Y-111179235D01*
X115680773Y-111185196D01*
X115656505Y-111188796D01*
X115632001Y-111190000D01*
X114981999Y-111190000D01*
X114957495Y-111188796D01*
X114933227Y-111185196D01*
X114909428Y-111179235D01*
X114886329Y-111170970D01*
X114864150Y-111160480D01*
X114843107Y-111147868D01*
X114823401Y-111133253D01*
X114805223Y-111116777D01*
X114788747Y-111098599D01*
X114774132Y-111078893D01*
X114761520Y-111057850D01*
X114751030Y-111035671D01*
X114742765Y-111012572D01*
X114736804Y-110988773D01*
X114733204Y-110964505D01*
X114732000Y-110940001D01*
X114732000Y-110039999D01*
X114733204Y-110015495D01*
X114736804Y-109991227D01*
X114742765Y-109967428D01*
X114751030Y-109944329D01*
X114761520Y-109922150D01*
X114774132Y-109901107D01*
X114788747Y-109881401D01*
X114805223Y-109863223D01*
X114823401Y-109846747D01*
X114843107Y-109832132D01*
X114864150Y-109819520D01*
X114886329Y-109809030D01*
X114909428Y-109800765D01*
X114933227Y-109794804D01*
X114957495Y-109791204D01*
X114981999Y-109790000D01*
X115632001Y-109790000D01*
X115656505Y-109791204D01*
X115656505Y-109791204D01*
G37*
D11*
X115307000Y-110490000D03*
G04 #@! TD*
D10*
G04 #@! TO.C,R1*
G36*
X117697505Y-107759204D02*
X117721773Y-107762804D01*
X117745572Y-107768765D01*
X117768671Y-107777030D01*
X117790850Y-107787520D01*
X117811893Y-107800132D01*
X117831599Y-107814747D01*
X117849777Y-107831223D01*
X117866253Y-107849401D01*
X117880868Y-107869107D01*
X117893480Y-107890150D01*
X117903970Y-107912329D01*
X117912235Y-107935428D01*
X117918196Y-107959227D01*
X117921796Y-107983495D01*
X117923000Y-108007999D01*
X117923000Y-108908001D01*
X117921796Y-108932505D01*
X117918196Y-108956773D01*
X117912235Y-108980572D01*
X117903970Y-109003671D01*
X117893480Y-109025850D01*
X117880868Y-109046893D01*
X117866253Y-109066599D01*
X117849777Y-109084777D01*
X117831599Y-109101253D01*
X117811893Y-109115868D01*
X117790850Y-109128480D01*
X117768671Y-109138970D01*
X117745572Y-109147235D01*
X117721773Y-109153196D01*
X117697505Y-109156796D01*
X117673001Y-109158000D01*
X117022999Y-109158000D01*
X116998495Y-109156796D01*
X116974227Y-109153196D01*
X116950428Y-109147235D01*
X116927329Y-109138970D01*
X116905150Y-109128480D01*
X116884107Y-109115868D01*
X116864401Y-109101253D01*
X116846223Y-109084777D01*
X116829747Y-109066599D01*
X116815132Y-109046893D01*
X116802520Y-109025850D01*
X116792030Y-109003671D01*
X116783765Y-108980572D01*
X116777804Y-108956773D01*
X116774204Y-108932505D01*
X116773000Y-108908001D01*
X116773000Y-108007999D01*
X116774204Y-107983495D01*
X116777804Y-107959227D01*
X116783765Y-107935428D01*
X116792030Y-107912329D01*
X116802520Y-107890150D01*
X116815132Y-107869107D01*
X116829747Y-107849401D01*
X116846223Y-107831223D01*
X116864401Y-107814747D01*
X116884107Y-107800132D01*
X116905150Y-107787520D01*
X116927329Y-107777030D01*
X116950428Y-107768765D01*
X116974227Y-107762804D01*
X116998495Y-107759204D01*
X117022999Y-107758000D01*
X117673001Y-107758000D01*
X117697505Y-107759204D01*
X117697505Y-107759204D01*
G37*
D11*
X117348000Y-108458000D03*
D10*
G36*
X115647505Y-107759204D02*
X115671773Y-107762804D01*
X115695572Y-107768765D01*
X115718671Y-107777030D01*
X115740850Y-107787520D01*
X115761893Y-107800132D01*
X115781599Y-107814747D01*
X115799777Y-107831223D01*
X115816253Y-107849401D01*
X115830868Y-107869107D01*
X115843480Y-107890150D01*
X115853970Y-107912329D01*
X115862235Y-107935428D01*
X115868196Y-107959227D01*
X115871796Y-107983495D01*
X115873000Y-108007999D01*
X115873000Y-108908001D01*
X115871796Y-108932505D01*
X115868196Y-108956773D01*
X115862235Y-108980572D01*
X115853970Y-109003671D01*
X115843480Y-109025850D01*
X115830868Y-109046893D01*
X115816253Y-109066599D01*
X115799777Y-109084777D01*
X115781599Y-109101253D01*
X115761893Y-109115868D01*
X115740850Y-109128480D01*
X115718671Y-109138970D01*
X115695572Y-109147235D01*
X115671773Y-109153196D01*
X115647505Y-109156796D01*
X115623001Y-109158000D01*
X114972999Y-109158000D01*
X114948495Y-109156796D01*
X114924227Y-109153196D01*
X114900428Y-109147235D01*
X114877329Y-109138970D01*
X114855150Y-109128480D01*
X114834107Y-109115868D01*
X114814401Y-109101253D01*
X114796223Y-109084777D01*
X114779747Y-109066599D01*
X114765132Y-109046893D01*
X114752520Y-109025850D01*
X114742030Y-109003671D01*
X114733765Y-108980572D01*
X114727804Y-108956773D01*
X114724204Y-108932505D01*
X114723000Y-108908001D01*
X114723000Y-108007999D01*
X114724204Y-107983495D01*
X114727804Y-107959227D01*
X114733765Y-107935428D01*
X114742030Y-107912329D01*
X114752520Y-107890150D01*
X114765132Y-107869107D01*
X114779747Y-107849401D01*
X114796223Y-107831223D01*
X114814401Y-107814747D01*
X114834107Y-107800132D01*
X114855150Y-107787520D01*
X114877329Y-107777030D01*
X114900428Y-107768765D01*
X114924227Y-107762804D01*
X114948495Y-107759204D01*
X114972999Y-107758000D01*
X115623001Y-107758000D01*
X115647505Y-107759204D01*
X115647505Y-107759204D01*
G37*
D11*
X115298000Y-108458000D03*
G04 #@! TD*
D10*
G04 #@! TO.C,D3*
G36*
X129390505Y-109791204D02*
X129414773Y-109794804D01*
X129438572Y-109800765D01*
X129461671Y-109809030D01*
X129483850Y-109819520D01*
X129504893Y-109832132D01*
X129524599Y-109846747D01*
X129542777Y-109863223D01*
X129559253Y-109881401D01*
X129573868Y-109901107D01*
X129586480Y-109922150D01*
X129596970Y-109944329D01*
X129605235Y-109967428D01*
X129611196Y-109991227D01*
X129614796Y-110015495D01*
X129616000Y-110039999D01*
X129616000Y-110940001D01*
X129614796Y-110964505D01*
X129611196Y-110988773D01*
X129605235Y-111012572D01*
X129596970Y-111035671D01*
X129586480Y-111057850D01*
X129573868Y-111078893D01*
X129559253Y-111098599D01*
X129542777Y-111116777D01*
X129524599Y-111133253D01*
X129504893Y-111147868D01*
X129483850Y-111160480D01*
X129461671Y-111170970D01*
X129438572Y-111179235D01*
X129414773Y-111185196D01*
X129390505Y-111188796D01*
X129366001Y-111190000D01*
X128715999Y-111190000D01*
X128691495Y-111188796D01*
X128667227Y-111185196D01*
X128643428Y-111179235D01*
X128620329Y-111170970D01*
X128598150Y-111160480D01*
X128577107Y-111147868D01*
X128557401Y-111133253D01*
X128539223Y-111116777D01*
X128522747Y-111098599D01*
X128508132Y-111078893D01*
X128495520Y-111057850D01*
X128485030Y-111035671D01*
X128476765Y-111012572D01*
X128470804Y-110988773D01*
X128467204Y-110964505D01*
X128466000Y-110940001D01*
X128466000Y-110039999D01*
X128467204Y-110015495D01*
X128470804Y-109991227D01*
X128476765Y-109967428D01*
X128485030Y-109944329D01*
X128495520Y-109922150D01*
X128508132Y-109901107D01*
X128522747Y-109881401D01*
X128539223Y-109863223D01*
X128557401Y-109846747D01*
X128577107Y-109832132D01*
X128598150Y-109819520D01*
X128620329Y-109809030D01*
X128643428Y-109800765D01*
X128667227Y-109794804D01*
X128691495Y-109791204D01*
X128715999Y-109790000D01*
X129366001Y-109790000D01*
X129390505Y-109791204D01*
X129390505Y-109791204D01*
G37*
D11*
X129041000Y-110490000D03*
D10*
G36*
X127340505Y-109791204D02*
X127364773Y-109794804D01*
X127388572Y-109800765D01*
X127411671Y-109809030D01*
X127433850Y-109819520D01*
X127454893Y-109832132D01*
X127474599Y-109846747D01*
X127492777Y-109863223D01*
X127509253Y-109881401D01*
X127523868Y-109901107D01*
X127536480Y-109922150D01*
X127546970Y-109944329D01*
X127555235Y-109967428D01*
X127561196Y-109991227D01*
X127564796Y-110015495D01*
X127566000Y-110039999D01*
X127566000Y-110940001D01*
X127564796Y-110964505D01*
X127561196Y-110988773D01*
X127555235Y-111012572D01*
X127546970Y-111035671D01*
X127536480Y-111057850D01*
X127523868Y-111078893D01*
X127509253Y-111098599D01*
X127492777Y-111116777D01*
X127474599Y-111133253D01*
X127454893Y-111147868D01*
X127433850Y-111160480D01*
X127411671Y-111170970D01*
X127388572Y-111179235D01*
X127364773Y-111185196D01*
X127340505Y-111188796D01*
X127316001Y-111190000D01*
X126665999Y-111190000D01*
X126641495Y-111188796D01*
X126617227Y-111185196D01*
X126593428Y-111179235D01*
X126570329Y-111170970D01*
X126548150Y-111160480D01*
X126527107Y-111147868D01*
X126507401Y-111133253D01*
X126489223Y-111116777D01*
X126472747Y-111098599D01*
X126458132Y-111078893D01*
X126445520Y-111057850D01*
X126435030Y-111035671D01*
X126426765Y-111012572D01*
X126420804Y-110988773D01*
X126417204Y-110964505D01*
X126416000Y-110940001D01*
X126416000Y-110039999D01*
X126417204Y-110015495D01*
X126420804Y-109991227D01*
X126426765Y-109967428D01*
X126435030Y-109944329D01*
X126445520Y-109922150D01*
X126458132Y-109901107D01*
X126472747Y-109881401D01*
X126489223Y-109863223D01*
X126507401Y-109846747D01*
X126527107Y-109832132D01*
X126548150Y-109819520D01*
X126570329Y-109809030D01*
X126593428Y-109800765D01*
X126617227Y-109794804D01*
X126641495Y-109791204D01*
X126665999Y-109790000D01*
X127316001Y-109790000D01*
X127340505Y-109791204D01*
X127340505Y-109791204D01*
G37*
D11*
X126991000Y-110490000D03*
G04 #@! TD*
D10*
G04 #@! TO.C,R4*
G36*
X134715505Y-108775204D02*
X134739773Y-108778804D01*
X134763572Y-108784765D01*
X134786671Y-108793030D01*
X134808850Y-108803520D01*
X134829893Y-108816132D01*
X134849599Y-108830747D01*
X134867777Y-108847223D01*
X134884253Y-108865401D01*
X134898868Y-108885107D01*
X134911480Y-108906150D01*
X134921970Y-108928329D01*
X134930235Y-108951428D01*
X134936196Y-108975227D01*
X134939796Y-108999495D01*
X134941000Y-109023999D01*
X134941000Y-109924001D01*
X134939796Y-109948505D01*
X134936196Y-109972773D01*
X134930235Y-109996572D01*
X134921970Y-110019671D01*
X134911480Y-110041850D01*
X134898868Y-110062893D01*
X134884253Y-110082599D01*
X134867777Y-110100777D01*
X134849599Y-110117253D01*
X134829893Y-110131868D01*
X134808850Y-110144480D01*
X134786671Y-110154970D01*
X134763572Y-110163235D01*
X134739773Y-110169196D01*
X134715505Y-110172796D01*
X134691001Y-110174000D01*
X134040999Y-110174000D01*
X134016495Y-110172796D01*
X133992227Y-110169196D01*
X133968428Y-110163235D01*
X133945329Y-110154970D01*
X133923150Y-110144480D01*
X133902107Y-110131868D01*
X133882401Y-110117253D01*
X133864223Y-110100777D01*
X133847747Y-110082599D01*
X133833132Y-110062893D01*
X133820520Y-110041850D01*
X133810030Y-110019671D01*
X133801765Y-109996572D01*
X133795804Y-109972773D01*
X133792204Y-109948505D01*
X133791000Y-109924001D01*
X133791000Y-109023999D01*
X133792204Y-108999495D01*
X133795804Y-108975227D01*
X133801765Y-108951428D01*
X133810030Y-108928329D01*
X133820520Y-108906150D01*
X133833132Y-108885107D01*
X133847747Y-108865401D01*
X133864223Y-108847223D01*
X133882401Y-108830747D01*
X133902107Y-108816132D01*
X133923150Y-108803520D01*
X133945329Y-108793030D01*
X133968428Y-108784765D01*
X133992227Y-108778804D01*
X134016495Y-108775204D01*
X134040999Y-108774000D01*
X134691001Y-108774000D01*
X134715505Y-108775204D01*
X134715505Y-108775204D01*
G37*
D11*
X134366000Y-109474000D03*
D10*
G36*
X136765505Y-108775204D02*
X136789773Y-108778804D01*
X136813572Y-108784765D01*
X136836671Y-108793030D01*
X136858850Y-108803520D01*
X136879893Y-108816132D01*
X136899599Y-108830747D01*
X136917777Y-108847223D01*
X136934253Y-108865401D01*
X136948868Y-108885107D01*
X136961480Y-108906150D01*
X136971970Y-108928329D01*
X136980235Y-108951428D01*
X136986196Y-108975227D01*
X136989796Y-108999495D01*
X136991000Y-109023999D01*
X136991000Y-109924001D01*
X136989796Y-109948505D01*
X136986196Y-109972773D01*
X136980235Y-109996572D01*
X136971970Y-110019671D01*
X136961480Y-110041850D01*
X136948868Y-110062893D01*
X136934253Y-110082599D01*
X136917777Y-110100777D01*
X136899599Y-110117253D01*
X136879893Y-110131868D01*
X136858850Y-110144480D01*
X136836671Y-110154970D01*
X136813572Y-110163235D01*
X136789773Y-110169196D01*
X136765505Y-110172796D01*
X136741001Y-110174000D01*
X136090999Y-110174000D01*
X136066495Y-110172796D01*
X136042227Y-110169196D01*
X136018428Y-110163235D01*
X135995329Y-110154970D01*
X135973150Y-110144480D01*
X135952107Y-110131868D01*
X135932401Y-110117253D01*
X135914223Y-110100777D01*
X135897747Y-110082599D01*
X135883132Y-110062893D01*
X135870520Y-110041850D01*
X135860030Y-110019671D01*
X135851765Y-109996572D01*
X135845804Y-109972773D01*
X135842204Y-109948505D01*
X135841000Y-109924001D01*
X135841000Y-109023999D01*
X135842204Y-108999495D01*
X135845804Y-108975227D01*
X135851765Y-108951428D01*
X135860030Y-108928329D01*
X135870520Y-108906150D01*
X135883132Y-108885107D01*
X135897747Y-108865401D01*
X135914223Y-108847223D01*
X135932401Y-108830747D01*
X135952107Y-108816132D01*
X135973150Y-108803520D01*
X135995329Y-108793030D01*
X136018428Y-108784765D01*
X136042227Y-108778804D01*
X136066495Y-108775204D01*
X136090999Y-108774000D01*
X136741001Y-108774000D01*
X136765505Y-108775204D01*
X136765505Y-108775204D01*
G37*
D11*
X136416000Y-109474000D03*
G04 #@! TD*
D10*
G04 #@! TO.C,R5*
G36*
X134715505Y-110807204D02*
X134739773Y-110810804D01*
X134763572Y-110816765D01*
X134786671Y-110825030D01*
X134808850Y-110835520D01*
X134829893Y-110848132D01*
X134849599Y-110862747D01*
X134867777Y-110879223D01*
X134884253Y-110897401D01*
X134898868Y-110917107D01*
X134911480Y-110938150D01*
X134921970Y-110960329D01*
X134930235Y-110983428D01*
X134936196Y-111007227D01*
X134939796Y-111031495D01*
X134941000Y-111055999D01*
X134941000Y-111956001D01*
X134939796Y-111980505D01*
X134936196Y-112004773D01*
X134930235Y-112028572D01*
X134921970Y-112051671D01*
X134911480Y-112073850D01*
X134898868Y-112094893D01*
X134884253Y-112114599D01*
X134867777Y-112132777D01*
X134849599Y-112149253D01*
X134829893Y-112163868D01*
X134808850Y-112176480D01*
X134786671Y-112186970D01*
X134763572Y-112195235D01*
X134739773Y-112201196D01*
X134715505Y-112204796D01*
X134691001Y-112206000D01*
X134040999Y-112206000D01*
X134016495Y-112204796D01*
X133992227Y-112201196D01*
X133968428Y-112195235D01*
X133945329Y-112186970D01*
X133923150Y-112176480D01*
X133902107Y-112163868D01*
X133882401Y-112149253D01*
X133864223Y-112132777D01*
X133847747Y-112114599D01*
X133833132Y-112094893D01*
X133820520Y-112073850D01*
X133810030Y-112051671D01*
X133801765Y-112028572D01*
X133795804Y-112004773D01*
X133792204Y-111980505D01*
X133791000Y-111956001D01*
X133791000Y-111055999D01*
X133792204Y-111031495D01*
X133795804Y-111007227D01*
X133801765Y-110983428D01*
X133810030Y-110960329D01*
X133820520Y-110938150D01*
X133833132Y-110917107D01*
X133847747Y-110897401D01*
X133864223Y-110879223D01*
X133882401Y-110862747D01*
X133902107Y-110848132D01*
X133923150Y-110835520D01*
X133945329Y-110825030D01*
X133968428Y-110816765D01*
X133992227Y-110810804D01*
X134016495Y-110807204D01*
X134040999Y-110806000D01*
X134691001Y-110806000D01*
X134715505Y-110807204D01*
X134715505Y-110807204D01*
G37*
D11*
X134366000Y-111506000D03*
D10*
G36*
X136765505Y-110807204D02*
X136789773Y-110810804D01*
X136813572Y-110816765D01*
X136836671Y-110825030D01*
X136858850Y-110835520D01*
X136879893Y-110848132D01*
X136899599Y-110862747D01*
X136917777Y-110879223D01*
X136934253Y-110897401D01*
X136948868Y-110917107D01*
X136961480Y-110938150D01*
X136971970Y-110960329D01*
X136980235Y-110983428D01*
X136986196Y-111007227D01*
X136989796Y-111031495D01*
X136991000Y-111055999D01*
X136991000Y-111956001D01*
X136989796Y-111980505D01*
X136986196Y-112004773D01*
X136980235Y-112028572D01*
X136971970Y-112051671D01*
X136961480Y-112073850D01*
X136948868Y-112094893D01*
X136934253Y-112114599D01*
X136917777Y-112132777D01*
X136899599Y-112149253D01*
X136879893Y-112163868D01*
X136858850Y-112176480D01*
X136836671Y-112186970D01*
X136813572Y-112195235D01*
X136789773Y-112201196D01*
X136765505Y-112204796D01*
X136741001Y-112206000D01*
X136090999Y-112206000D01*
X136066495Y-112204796D01*
X136042227Y-112201196D01*
X136018428Y-112195235D01*
X135995329Y-112186970D01*
X135973150Y-112176480D01*
X135952107Y-112163868D01*
X135932401Y-112149253D01*
X135914223Y-112132777D01*
X135897747Y-112114599D01*
X135883132Y-112094893D01*
X135870520Y-112073850D01*
X135860030Y-112051671D01*
X135851765Y-112028572D01*
X135845804Y-112004773D01*
X135842204Y-111980505D01*
X135841000Y-111956001D01*
X135841000Y-111055999D01*
X135842204Y-111031495D01*
X135845804Y-111007227D01*
X135851765Y-110983428D01*
X135860030Y-110960329D01*
X135870520Y-110938150D01*
X135883132Y-110917107D01*
X135897747Y-110897401D01*
X135914223Y-110879223D01*
X135932401Y-110862747D01*
X135952107Y-110848132D01*
X135973150Y-110835520D01*
X135995329Y-110825030D01*
X136018428Y-110816765D01*
X136042227Y-110810804D01*
X136066495Y-110807204D01*
X136090999Y-110806000D01*
X136741001Y-110806000D01*
X136765505Y-110807204D01*
X136765505Y-110807204D01*
G37*
D11*
X136416000Y-111506000D03*
G04 #@! TD*
D10*
G04 #@! TO.C,R6*
G36*
X134706505Y-106743204D02*
X134730773Y-106746804D01*
X134754572Y-106752765D01*
X134777671Y-106761030D01*
X134799850Y-106771520D01*
X134820893Y-106784132D01*
X134840599Y-106798747D01*
X134858777Y-106815223D01*
X134875253Y-106833401D01*
X134889868Y-106853107D01*
X134902480Y-106874150D01*
X134912970Y-106896329D01*
X134921235Y-106919428D01*
X134927196Y-106943227D01*
X134930796Y-106967495D01*
X134932000Y-106991999D01*
X134932000Y-107892001D01*
X134930796Y-107916505D01*
X134927196Y-107940773D01*
X134921235Y-107964572D01*
X134912970Y-107987671D01*
X134902480Y-108009850D01*
X134889868Y-108030893D01*
X134875253Y-108050599D01*
X134858777Y-108068777D01*
X134840599Y-108085253D01*
X134820893Y-108099868D01*
X134799850Y-108112480D01*
X134777671Y-108122970D01*
X134754572Y-108131235D01*
X134730773Y-108137196D01*
X134706505Y-108140796D01*
X134682001Y-108142000D01*
X134031999Y-108142000D01*
X134007495Y-108140796D01*
X133983227Y-108137196D01*
X133959428Y-108131235D01*
X133936329Y-108122970D01*
X133914150Y-108112480D01*
X133893107Y-108099868D01*
X133873401Y-108085253D01*
X133855223Y-108068777D01*
X133838747Y-108050599D01*
X133824132Y-108030893D01*
X133811520Y-108009850D01*
X133801030Y-107987671D01*
X133792765Y-107964572D01*
X133786804Y-107940773D01*
X133783204Y-107916505D01*
X133782000Y-107892001D01*
X133782000Y-106991999D01*
X133783204Y-106967495D01*
X133786804Y-106943227D01*
X133792765Y-106919428D01*
X133801030Y-106896329D01*
X133811520Y-106874150D01*
X133824132Y-106853107D01*
X133838747Y-106833401D01*
X133855223Y-106815223D01*
X133873401Y-106798747D01*
X133893107Y-106784132D01*
X133914150Y-106771520D01*
X133936329Y-106761030D01*
X133959428Y-106752765D01*
X133983227Y-106746804D01*
X134007495Y-106743204D01*
X134031999Y-106742000D01*
X134682001Y-106742000D01*
X134706505Y-106743204D01*
X134706505Y-106743204D01*
G37*
D11*
X134357000Y-107442000D03*
D10*
G36*
X136756505Y-106743204D02*
X136780773Y-106746804D01*
X136804572Y-106752765D01*
X136827671Y-106761030D01*
X136849850Y-106771520D01*
X136870893Y-106784132D01*
X136890599Y-106798747D01*
X136908777Y-106815223D01*
X136925253Y-106833401D01*
X136939868Y-106853107D01*
X136952480Y-106874150D01*
X136962970Y-106896329D01*
X136971235Y-106919428D01*
X136977196Y-106943227D01*
X136980796Y-106967495D01*
X136982000Y-106991999D01*
X136982000Y-107892001D01*
X136980796Y-107916505D01*
X136977196Y-107940773D01*
X136971235Y-107964572D01*
X136962970Y-107987671D01*
X136952480Y-108009850D01*
X136939868Y-108030893D01*
X136925253Y-108050599D01*
X136908777Y-108068777D01*
X136890599Y-108085253D01*
X136870893Y-108099868D01*
X136849850Y-108112480D01*
X136827671Y-108122970D01*
X136804572Y-108131235D01*
X136780773Y-108137196D01*
X136756505Y-108140796D01*
X136732001Y-108142000D01*
X136081999Y-108142000D01*
X136057495Y-108140796D01*
X136033227Y-108137196D01*
X136009428Y-108131235D01*
X135986329Y-108122970D01*
X135964150Y-108112480D01*
X135943107Y-108099868D01*
X135923401Y-108085253D01*
X135905223Y-108068777D01*
X135888747Y-108050599D01*
X135874132Y-108030893D01*
X135861520Y-108009850D01*
X135851030Y-107987671D01*
X135842765Y-107964572D01*
X135836804Y-107940773D01*
X135833204Y-107916505D01*
X135832000Y-107892001D01*
X135832000Y-106991999D01*
X135833204Y-106967495D01*
X135836804Y-106943227D01*
X135842765Y-106919428D01*
X135851030Y-106896329D01*
X135861520Y-106874150D01*
X135874132Y-106853107D01*
X135888747Y-106833401D01*
X135905223Y-106815223D01*
X135923401Y-106798747D01*
X135943107Y-106784132D01*
X135964150Y-106771520D01*
X135986329Y-106761030D01*
X136009428Y-106752765D01*
X136033227Y-106746804D01*
X136057495Y-106743204D01*
X136081999Y-106742000D01*
X136732001Y-106742000D01*
X136756505Y-106743204D01*
X136756505Y-106743204D01*
G37*
D11*
X136407000Y-107442000D03*
G04 #@! TD*
D13*
G04 #@! TO.C,SW1*
X113770000Y-118455000D03*
X104670000Y-118455000D03*
X113770000Y-113955000D03*
X104670000Y-113955000D03*
G04 #@! TD*
G04 #@! TO.C,SW2*
X125835000Y-118455000D03*
X116735000Y-118455000D03*
X125835000Y-113955000D03*
X116735000Y-113955000D03*
G04 #@! TD*
G04 #@! TO.C,SW3*
X137900000Y-118455000D03*
X128800000Y-118455000D03*
X137900000Y-113955000D03*
X128800000Y-113955000D03*
G04 #@! TD*
D14*
G04 #@! TO.C,U2*
X147955000Y-113190000D03*
X146685000Y-113190000D03*
X145415000Y-113190000D03*
X144145000Y-113190000D03*
X144145000Y-107790000D03*
X145415000Y-107790000D03*
X146685000Y-107790000D03*
X147955000Y-107790000D03*
G04 #@! TD*
D10*
G04 #@! TO.C,C1*
G36*
X154906505Y-109408204D02*
X154930773Y-109411804D01*
X154954572Y-109417765D01*
X154977671Y-109426030D01*
X154999850Y-109436520D01*
X155020893Y-109449132D01*
X155040599Y-109463747D01*
X155058777Y-109480223D01*
X155075253Y-109498401D01*
X155089868Y-109518107D01*
X155102480Y-109539150D01*
X155112970Y-109561329D01*
X155121235Y-109584428D01*
X155127196Y-109608227D01*
X155130796Y-109632495D01*
X155132000Y-109656999D01*
X155132000Y-110307001D01*
X155130796Y-110331505D01*
X155127196Y-110355773D01*
X155121235Y-110379572D01*
X155112970Y-110402671D01*
X155102480Y-110424850D01*
X155089868Y-110445893D01*
X155075253Y-110465599D01*
X155058777Y-110483777D01*
X155040599Y-110500253D01*
X155020893Y-110514868D01*
X154999850Y-110527480D01*
X154977671Y-110537970D01*
X154954572Y-110546235D01*
X154930773Y-110552196D01*
X154906505Y-110555796D01*
X154882001Y-110557000D01*
X153981999Y-110557000D01*
X153957495Y-110555796D01*
X153933227Y-110552196D01*
X153909428Y-110546235D01*
X153886329Y-110537970D01*
X153864150Y-110527480D01*
X153843107Y-110514868D01*
X153823401Y-110500253D01*
X153805223Y-110483777D01*
X153788747Y-110465599D01*
X153774132Y-110445893D01*
X153761520Y-110424850D01*
X153751030Y-110402671D01*
X153742765Y-110379572D01*
X153736804Y-110355773D01*
X153733204Y-110331505D01*
X153732000Y-110307001D01*
X153732000Y-109656999D01*
X153733204Y-109632495D01*
X153736804Y-109608227D01*
X153742765Y-109584428D01*
X153751030Y-109561329D01*
X153761520Y-109539150D01*
X153774132Y-109518107D01*
X153788747Y-109498401D01*
X153805223Y-109480223D01*
X153823401Y-109463747D01*
X153843107Y-109449132D01*
X153864150Y-109436520D01*
X153886329Y-109426030D01*
X153909428Y-109417765D01*
X153933227Y-109411804D01*
X153957495Y-109408204D01*
X153981999Y-109407000D01*
X154882001Y-109407000D01*
X154906505Y-109408204D01*
X154906505Y-109408204D01*
G37*
D11*
X154432000Y-109982000D03*
D10*
G36*
X154906505Y-107358204D02*
X154930773Y-107361804D01*
X154954572Y-107367765D01*
X154977671Y-107376030D01*
X154999850Y-107386520D01*
X155020893Y-107399132D01*
X155040599Y-107413747D01*
X155058777Y-107430223D01*
X155075253Y-107448401D01*
X155089868Y-107468107D01*
X155102480Y-107489150D01*
X155112970Y-107511329D01*
X155121235Y-107534428D01*
X155127196Y-107558227D01*
X155130796Y-107582495D01*
X155132000Y-107606999D01*
X155132000Y-108257001D01*
X155130796Y-108281505D01*
X155127196Y-108305773D01*
X155121235Y-108329572D01*
X155112970Y-108352671D01*
X155102480Y-108374850D01*
X155089868Y-108395893D01*
X155075253Y-108415599D01*
X155058777Y-108433777D01*
X155040599Y-108450253D01*
X155020893Y-108464868D01*
X154999850Y-108477480D01*
X154977671Y-108487970D01*
X154954572Y-108496235D01*
X154930773Y-108502196D01*
X154906505Y-108505796D01*
X154882001Y-108507000D01*
X153981999Y-108507000D01*
X153957495Y-108505796D01*
X153933227Y-108502196D01*
X153909428Y-108496235D01*
X153886329Y-108487970D01*
X153864150Y-108477480D01*
X153843107Y-108464868D01*
X153823401Y-108450253D01*
X153805223Y-108433777D01*
X153788747Y-108415599D01*
X153774132Y-108395893D01*
X153761520Y-108374850D01*
X153751030Y-108352671D01*
X153742765Y-108329572D01*
X153736804Y-108305773D01*
X153733204Y-108281505D01*
X153732000Y-108257001D01*
X153732000Y-107606999D01*
X153733204Y-107582495D01*
X153736804Y-107558227D01*
X153742765Y-107534428D01*
X153751030Y-107511329D01*
X153761520Y-107489150D01*
X153774132Y-107468107D01*
X153788747Y-107448401D01*
X153805223Y-107430223D01*
X153823401Y-107413747D01*
X153843107Y-107399132D01*
X153864150Y-107386520D01*
X153886329Y-107376030D01*
X153909428Y-107367765D01*
X153933227Y-107361804D01*
X153957495Y-107358204D01*
X153981999Y-107357000D01*
X154882001Y-107357000D01*
X154906505Y-107358204D01*
X154906505Y-107358204D01*
G37*
D11*
X154432000Y-107932000D03*
G04 #@! TD*
D10*
G04 #@! TO.C,C2*
G36*
X150354505Y-104965204D02*
X150378773Y-104968804D01*
X150402572Y-104974765D01*
X150425671Y-104983030D01*
X150447850Y-104993520D01*
X150468893Y-105006132D01*
X150488599Y-105020747D01*
X150506777Y-105037223D01*
X150523253Y-105055401D01*
X150537868Y-105075107D01*
X150550480Y-105096150D01*
X150560970Y-105118329D01*
X150569235Y-105141428D01*
X150575196Y-105165227D01*
X150578796Y-105189495D01*
X150580000Y-105213999D01*
X150580000Y-106114001D01*
X150578796Y-106138505D01*
X150575196Y-106162773D01*
X150569235Y-106186572D01*
X150560970Y-106209671D01*
X150550480Y-106231850D01*
X150537868Y-106252893D01*
X150523253Y-106272599D01*
X150506777Y-106290777D01*
X150488599Y-106307253D01*
X150468893Y-106321868D01*
X150447850Y-106334480D01*
X150425671Y-106344970D01*
X150402572Y-106353235D01*
X150378773Y-106359196D01*
X150354505Y-106362796D01*
X150330001Y-106364000D01*
X149679999Y-106364000D01*
X149655495Y-106362796D01*
X149631227Y-106359196D01*
X149607428Y-106353235D01*
X149584329Y-106344970D01*
X149562150Y-106334480D01*
X149541107Y-106321868D01*
X149521401Y-106307253D01*
X149503223Y-106290777D01*
X149486747Y-106272599D01*
X149472132Y-106252893D01*
X149459520Y-106231850D01*
X149449030Y-106209671D01*
X149440765Y-106186572D01*
X149434804Y-106162773D01*
X149431204Y-106138505D01*
X149430000Y-106114001D01*
X149430000Y-105213999D01*
X149431204Y-105189495D01*
X149434804Y-105165227D01*
X149440765Y-105141428D01*
X149449030Y-105118329D01*
X149459520Y-105096150D01*
X149472132Y-105075107D01*
X149486747Y-105055401D01*
X149503223Y-105037223D01*
X149521401Y-105020747D01*
X149541107Y-105006132D01*
X149562150Y-104993520D01*
X149584329Y-104983030D01*
X149607428Y-104974765D01*
X149631227Y-104968804D01*
X149655495Y-104965204D01*
X149679999Y-104964000D01*
X150330001Y-104964000D01*
X150354505Y-104965204D01*
X150354505Y-104965204D01*
G37*
D11*
X150005000Y-105664000D03*
D10*
G36*
X148304505Y-104965204D02*
X148328773Y-104968804D01*
X148352572Y-104974765D01*
X148375671Y-104983030D01*
X148397850Y-104993520D01*
X148418893Y-105006132D01*
X148438599Y-105020747D01*
X148456777Y-105037223D01*
X148473253Y-105055401D01*
X148487868Y-105075107D01*
X148500480Y-105096150D01*
X148510970Y-105118329D01*
X148519235Y-105141428D01*
X148525196Y-105165227D01*
X148528796Y-105189495D01*
X148530000Y-105213999D01*
X148530000Y-106114001D01*
X148528796Y-106138505D01*
X148525196Y-106162773D01*
X148519235Y-106186572D01*
X148510970Y-106209671D01*
X148500480Y-106231850D01*
X148487868Y-106252893D01*
X148473253Y-106272599D01*
X148456777Y-106290777D01*
X148438599Y-106307253D01*
X148418893Y-106321868D01*
X148397850Y-106334480D01*
X148375671Y-106344970D01*
X148352572Y-106353235D01*
X148328773Y-106359196D01*
X148304505Y-106362796D01*
X148280001Y-106364000D01*
X147629999Y-106364000D01*
X147605495Y-106362796D01*
X147581227Y-106359196D01*
X147557428Y-106353235D01*
X147534329Y-106344970D01*
X147512150Y-106334480D01*
X147491107Y-106321868D01*
X147471401Y-106307253D01*
X147453223Y-106290777D01*
X147436747Y-106272599D01*
X147422132Y-106252893D01*
X147409520Y-106231850D01*
X147399030Y-106209671D01*
X147390765Y-106186572D01*
X147384804Y-106162773D01*
X147381204Y-106138505D01*
X147380000Y-106114001D01*
X147380000Y-105213999D01*
X147381204Y-105189495D01*
X147384804Y-105165227D01*
X147390765Y-105141428D01*
X147399030Y-105118329D01*
X147409520Y-105096150D01*
X147422132Y-105075107D01*
X147436747Y-105055401D01*
X147453223Y-105037223D01*
X147471401Y-105020747D01*
X147491107Y-105006132D01*
X147512150Y-104993520D01*
X147534329Y-104983030D01*
X147557428Y-104974765D01*
X147581227Y-104968804D01*
X147605495Y-104965204D01*
X147629999Y-104964000D01*
X148280001Y-104964000D01*
X148304505Y-104965204D01*
X148304505Y-104965204D01*
G37*
D11*
X147955000Y-105664000D03*
G04 #@! TD*
D10*
G04 #@! TO.C,C3*
G36*
X150354505Y-102679204D02*
X150378773Y-102682804D01*
X150402572Y-102688765D01*
X150425671Y-102697030D01*
X150447850Y-102707520D01*
X150468893Y-102720132D01*
X150488599Y-102734747D01*
X150506777Y-102751223D01*
X150523253Y-102769401D01*
X150537868Y-102789107D01*
X150550480Y-102810150D01*
X150560970Y-102832329D01*
X150569235Y-102855428D01*
X150575196Y-102879227D01*
X150578796Y-102903495D01*
X150580000Y-102927999D01*
X150580000Y-103828001D01*
X150578796Y-103852505D01*
X150575196Y-103876773D01*
X150569235Y-103900572D01*
X150560970Y-103923671D01*
X150550480Y-103945850D01*
X150537868Y-103966893D01*
X150523253Y-103986599D01*
X150506777Y-104004777D01*
X150488599Y-104021253D01*
X150468893Y-104035868D01*
X150447850Y-104048480D01*
X150425671Y-104058970D01*
X150402572Y-104067235D01*
X150378773Y-104073196D01*
X150354505Y-104076796D01*
X150330001Y-104078000D01*
X149679999Y-104078000D01*
X149655495Y-104076796D01*
X149631227Y-104073196D01*
X149607428Y-104067235D01*
X149584329Y-104058970D01*
X149562150Y-104048480D01*
X149541107Y-104035868D01*
X149521401Y-104021253D01*
X149503223Y-104004777D01*
X149486747Y-103986599D01*
X149472132Y-103966893D01*
X149459520Y-103945850D01*
X149449030Y-103923671D01*
X149440765Y-103900572D01*
X149434804Y-103876773D01*
X149431204Y-103852505D01*
X149430000Y-103828001D01*
X149430000Y-102927999D01*
X149431204Y-102903495D01*
X149434804Y-102879227D01*
X149440765Y-102855428D01*
X149449030Y-102832329D01*
X149459520Y-102810150D01*
X149472132Y-102789107D01*
X149486747Y-102769401D01*
X149503223Y-102751223D01*
X149521401Y-102734747D01*
X149541107Y-102720132D01*
X149562150Y-102707520D01*
X149584329Y-102697030D01*
X149607428Y-102688765D01*
X149631227Y-102682804D01*
X149655495Y-102679204D01*
X149679999Y-102678000D01*
X150330001Y-102678000D01*
X150354505Y-102679204D01*
X150354505Y-102679204D01*
G37*
D11*
X150005000Y-103378000D03*
D10*
G36*
X148304505Y-102679204D02*
X148328773Y-102682804D01*
X148352572Y-102688765D01*
X148375671Y-102697030D01*
X148397850Y-102707520D01*
X148418893Y-102720132D01*
X148438599Y-102734747D01*
X148456777Y-102751223D01*
X148473253Y-102769401D01*
X148487868Y-102789107D01*
X148500480Y-102810150D01*
X148510970Y-102832329D01*
X148519235Y-102855428D01*
X148525196Y-102879227D01*
X148528796Y-102903495D01*
X148530000Y-102927999D01*
X148530000Y-103828001D01*
X148528796Y-103852505D01*
X148525196Y-103876773D01*
X148519235Y-103900572D01*
X148510970Y-103923671D01*
X148500480Y-103945850D01*
X148487868Y-103966893D01*
X148473253Y-103986599D01*
X148456777Y-104004777D01*
X148438599Y-104021253D01*
X148418893Y-104035868D01*
X148397850Y-104048480D01*
X148375671Y-104058970D01*
X148352572Y-104067235D01*
X148328773Y-104073196D01*
X148304505Y-104076796D01*
X148280001Y-104078000D01*
X147629999Y-104078000D01*
X147605495Y-104076796D01*
X147581227Y-104073196D01*
X147557428Y-104067235D01*
X147534329Y-104058970D01*
X147512150Y-104048480D01*
X147491107Y-104035868D01*
X147471401Y-104021253D01*
X147453223Y-104004777D01*
X147436747Y-103986599D01*
X147422132Y-103966893D01*
X147409520Y-103945850D01*
X147399030Y-103923671D01*
X147390765Y-103900572D01*
X147384804Y-103876773D01*
X147381204Y-103852505D01*
X147380000Y-103828001D01*
X147380000Y-102927999D01*
X147381204Y-102903495D01*
X147384804Y-102879227D01*
X147390765Y-102855428D01*
X147399030Y-102832329D01*
X147409520Y-102810150D01*
X147422132Y-102789107D01*
X147436747Y-102769401D01*
X147453223Y-102751223D01*
X147471401Y-102734747D01*
X147491107Y-102720132D01*
X147512150Y-102707520D01*
X147534329Y-102697030D01*
X147557428Y-102688765D01*
X147581227Y-102682804D01*
X147605495Y-102679204D01*
X147629999Y-102678000D01*
X148280001Y-102678000D01*
X148304505Y-102679204D01*
X148304505Y-102679204D01*
G37*
D11*
X147955000Y-103378000D03*
G04 #@! TD*
D10*
G04 #@! TO.C,R7*
G36*
X165966505Y-84391204D02*
X165990773Y-84394804D01*
X166014572Y-84400765D01*
X166037671Y-84409030D01*
X166059850Y-84419520D01*
X166080893Y-84432132D01*
X166100599Y-84446747D01*
X166118777Y-84463223D01*
X166135253Y-84481401D01*
X166149868Y-84501107D01*
X166162480Y-84522150D01*
X166172970Y-84544329D01*
X166181235Y-84567428D01*
X166187196Y-84591227D01*
X166190796Y-84615495D01*
X166192000Y-84639999D01*
X166192000Y-85540001D01*
X166190796Y-85564505D01*
X166187196Y-85588773D01*
X166181235Y-85612572D01*
X166172970Y-85635671D01*
X166162480Y-85657850D01*
X166149868Y-85678893D01*
X166135253Y-85698599D01*
X166118777Y-85716777D01*
X166100599Y-85733253D01*
X166080893Y-85747868D01*
X166059850Y-85760480D01*
X166037671Y-85770970D01*
X166014572Y-85779235D01*
X165990773Y-85785196D01*
X165966505Y-85788796D01*
X165942001Y-85790000D01*
X165291999Y-85790000D01*
X165267495Y-85788796D01*
X165243227Y-85785196D01*
X165219428Y-85779235D01*
X165196329Y-85770970D01*
X165174150Y-85760480D01*
X165153107Y-85747868D01*
X165133401Y-85733253D01*
X165115223Y-85716777D01*
X165098747Y-85698599D01*
X165084132Y-85678893D01*
X165071520Y-85657850D01*
X165061030Y-85635671D01*
X165052765Y-85612572D01*
X165046804Y-85588773D01*
X165043204Y-85564505D01*
X165042000Y-85540001D01*
X165042000Y-84639999D01*
X165043204Y-84615495D01*
X165046804Y-84591227D01*
X165052765Y-84567428D01*
X165061030Y-84544329D01*
X165071520Y-84522150D01*
X165084132Y-84501107D01*
X165098747Y-84481401D01*
X165115223Y-84463223D01*
X165133401Y-84446747D01*
X165153107Y-84432132D01*
X165174150Y-84419520D01*
X165196329Y-84409030D01*
X165219428Y-84400765D01*
X165243227Y-84394804D01*
X165267495Y-84391204D01*
X165291999Y-84390000D01*
X165942001Y-84390000D01*
X165966505Y-84391204D01*
X165966505Y-84391204D01*
G37*
D11*
X165617000Y-85090000D03*
D10*
G36*
X163916505Y-84391204D02*
X163940773Y-84394804D01*
X163964572Y-84400765D01*
X163987671Y-84409030D01*
X164009850Y-84419520D01*
X164030893Y-84432132D01*
X164050599Y-84446747D01*
X164068777Y-84463223D01*
X164085253Y-84481401D01*
X164099868Y-84501107D01*
X164112480Y-84522150D01*
X164122970Y-84544329D01*
X164131235Y-84567428D01*
X164137196Y-84591227D01*
X164140796Y-84615495D01*
X164142000Y-84639999D01*
X164142000Y-85540001D01*
X164140796Y-85564505D01*
X164137196Y-85588773D01*
X164131235Y-85612572D01*
X164122970Y-85635671D01*
X164112480Y-85657850D01*
X164099868Y-85678893D01*
X164085253Y-85698599D01*
X164068777Y-85716777D01*
X164050599Y-85733253D01*
X164030893Y-85747868D01*
X164009850Y-85760480D01*
X163987671Y-85770970D01*
X163964572Y-85779235D01*
X163940773Y-85785196D01*
X163916505Y-85788796D01*
X163892001Y-85790000D01*
X163241999Y-85790000D01*
X163217495Y-85788796D01*
X163193227Y-85785196D01*
X163169428Y-85779235D01*
X163146329Y-85770970D01*
X163124150Y-85760480D01*
X163103107Y-85747868D01*
X163083401Y-85733253D01*
X163065223Y-85716777D01*
X163048747Y-85698599D01*
X163034132Y-85678893D01*
X163021520Y-85657850D01*
X163011030Y-85635671D01*
X163002765Y-85612572D01*
X162996804Y-85588773D01*
X162993204Y-85564505D01*
X162992000Y-85540001D01*
X162992000Y-84639999D01*
X162993204Y-84615495D01*
X162996804Y-84591227D01*
X163002765Y-84567428D01*
X163011030Y-84544329D01*
X163021520Y-84522150D01*
X163034132Y-84501107D01*
X163048747Y-84481401D01*
X163065223Y-84463223D01*
X163083401Y-84446747D01*
X163103107Y-84432132D01*
X163124150Y-84419520D01*
X163146329Y-84409030D01*
X163169428Y-84400765D01*
X163193227Y-84394804D01*
X163217495Y-84391204D01*
X163241999Y-84390000D01*
X163892001Y-84390000D01*
X163916505Y-84391204D01*
X163916505Y-84391204D01*
G37*
D11*
X163567000Y-85090000D03*
G04 #@! TD*
M02*
