G04 #@! TF.GenerationSoftware,KiCad,Pcbnew,5.0.2+dfsg1-1*
G04 #@! TF.CreationDate,2019-10-18T14:29:09+02:00*
G04 #@! TF.ProjectId,BEE,4245452e-6b69-4636-9164-5f7063625858,rev?*
G04 #@! TF.SameCoordinates,Original*
G04 #@! TF.FileFunction,Copper,L1,Top*
G04 #@! TF.FilePolarity,Positive*
%FSLAX46Y46*%
G04 Gerber Fmt 4.6, Leading zero omitted, Abs format (unit mm)*
G04 Created by KiCad (PCBNEW 5.0.2+dfsg1-1) date Fri 18 Oct 2019 02:29:09 PM CEST*
%MOMM*%
%LPD*%
G01*
G04 APERTURE LIST*
G04 #@! TA.AperFunction,Conductor*
%ADD10C,0.100000*%
G04 #@! TD*
G04 #@! TA.AperFunction,SMDPad,CuDef*
%ADD11C,1.150000*%
G04 #@! TD*
G04 #@! TA.AperFunction,ComponentPad*
%ADD12C,1.100000*%
G04 #@! TD*
G04 #@! TA.AperFunction,ComponentPad*
%ADD13O,1.700000X1.700000*%
G04 #@! TD*
G04 #@! TA.AperFunction,ComponentPad*
%ADD14R,1.700000X1.700000*%
G04 #@! TD*
G04 #@! TA.AperFunction,SMDPad,CuDef*
%ADD15R,0.600000X1.500000*%
G04 #@! TD*
G04 #@! TA.AperFunction,SMDPad,CuDef*
%ADD16R,2.100000X1.400000*%
G04 #@! TD*
G04 #@! TA.AperFunction,SMDPad,CuDef*
%ADD17R,0.600000X1.550000*%
G04 #@! TD*
G04 #@! TA.AperFunction,BGAPad,CuDef*
%ADD18C,0.500000*%
G04 #@! TD*
G04 #@! TA.AperFunction,ViaPad*
%ADD19C,0.762000*%
G04 #@! TD*
G04 #@! TA.AperFunction,ViaPad*
%ADD20C,0.508000*%
G04 #@! TD*
G04 #@! TA.AperFunction,Conductor*
%ADD21C,0.203200*%
G04 #@! TD*
G04 #@! TA.AperFunction,Conductor*
%ADD22C,0.609600*%
G04 #@! TD*
G04 #@! TA.AperFunction,Conductor*
%ADD23C,0.152400*%
G04 #@! TD*
G04 APERTURE END LIST*
D10*
G04 #@! TO.N,Net-(D2-Pad2)*
G04 #@! TO.C,D2*
G36*
X123557505Y-109791204D02*
X123581773Y-109794804D01*
X123605572Y-109800765D01*
X123628671Y-109809030D01*
X123650850Y-109819520D01*
X123671893Y-109832132D01*
X123691599Y-109846747D01*
X123709777Y-109863223D01*
X123726253Y-109881401D01*
X123740868Y-109901107D01*
X123753480Y-109922150D01*
X123763970Y-109944329D01*
X123772235Y-109967428D01*
X123778196Y-109991227D01*
X123781796Y-110015495D01*
X123783000Y-110039999D01*
X123783000Y-110940001D01*
X123781796Y-110964505D01*
X123778196Y-110988773D01*
X123772235Y-111012572D01*
X123763970Y-111035671D01*
X123753480Y-111057850D01*
X123740868Y-111078893D01*
X123726253Y-111098599D01*
X123709777Y-111116777D01*
X123691599Y-111133253D01*
X123671893Y-111147868D01*
X123650850Y-111160480D01*
X123628671Y-111170970D01*
X123605572Y-111179235D01*
X123581773Y-111185196D01*
X123557505Y-111188796D01*
X123533001Y-111190000D01*
X122882999Y-111190000D01*
X122858495Y-111188796D01*
X122834227Y-111185196D01*
X122810428Y-111179235D01*
X122787329Y-111170970D01*
X122765150Y-111160480D01*
X122744107Y-111147868D01*
X122724401Y-111133253D01*
X122706223Y-111116777D01*
X122689747Y-111098599D01*
X122675132Y-111078893D01*
X122662520Y-111057850D01*
X122652030Y-111035671D01*
X122643765Y-111012572D01*
X122637804Y-110988773D01*
X122634204Y-110964505D01*
X122633000Y-110940001D01*
X122633000Y-110039999D01*
X122634204Y-110015495D01*
X122637804Y-109991227D01*
X122643765Y-109967428D01*
X122652030Y-109944329D01*
X122662520Y-109922150D01*
X122675132Y-109901107D01*
X122689747Y-109881401D01*
X122706223Y-109863223D01*
X122724401Y-109846747D01*
X122744107Y-109832132D01*
X122765150Y-109819520D01*
X122787329Y-109809030D01*
X122810428Y-109800765D01*
X122834227Y-109794804D01*
X122858495Y-109791204D01*
X122882999Y-109790000D01*
X123533001Y-109790000D01*
X123557505Y-109791204D01*
X123557505Y-109791204D01*
G37*
D11*
G04 #@! TD*
G04 #@! TO.P,D2,2*
G04 #@! TO.N,Net-(D2-Pad2)*
X123208000Y-110490000D03*
D10*
G04 #@! TO.N,GND*
G04 #@! TO.C,D2*
G36*
X121507505Y-109791204D02*
X121531773Y-109794804D01*
X121555572Y-109800765D01*
X121578671Y-109809030D01*
X121600850Y-109819520D01*
X121621893Y-109832132D01*
X121641599Y-109846747D01*
X121659777Y-109863223D01*
X121676253Y-109881401D01*
X121690868Y-109901107D01*
X121703480Y-109922150D01*
X121713970Y-109944329D01*
X121722235Y-109967428D01*
X121728196Y-109991227D01*
X121731796Y-110015495D01*
X121733000Y-110039999D01*
X121733000Y-110940001D01*
X121731796Y-110964505D01*
X121728196Y-110988773D01*
X121722235Y-111012572D01*
X121713970Y-111035671D01*
X121703480Y-111057850D01*
X121690868Y-111078893D01*
X121676253Y-111098599D01*
X121659777Y-111116777D01*
X121641599Y-111133253D01*
X121621893Y-111147868D01*
X121600850Y-111160480D01*
X121578671Y-111170970D01*
X121555572Y-111179235D01*
X121531773Y-111185196D01*
X121507505Y-111188796D01*
X121483001Y-111190000D01*
X120832999Y-111190000D01*
X120808495Y-111188796D01*
X120784227Y-111185196D01*
X120760428Y-111179235D01*
X120737329Y-111170970D01*
X120715150Y-111160480D01*
X120694107Y-111147868D01*
X120674401Y-111133253D01*
X120656223Y-111116777D01*
X120639747Y-111098599D01*
X120625132Y-111078893D01*
X120612520Y-111057850D01*
X120602030Y-111035671D01*
X120593765Y-111012572D01*
X120587804Y-110988773D01*
X120584204Y-110964505D01*
X120583000Y-110940001D01*
X120583000Y-110039999D01*
X120584204Y-110015495D01*
X120587804Y-109991227D01*
X120593765Y-109967428D01*
X120602030Y-109944329D01*
X120612520Y-109922150D01*
X120625132Y-109901107D01*
X120639747Y-109881401D01*
X120656223Y-109863223D01*
X120674401Y-109846747D01*
X120694107Y-109832132D01*
X120715150Y-109819520D01*
X120737329Y-109809030D01*
X120760428Y-109800765D01*
X120784227Y-109794804D01*
X120808495Y-109791204D01*
X120832999Y-109790000D01*
X121483001Y-109790000D01*
X121507505Y-109791204D01*
X121507505Y-109791204D01*
G37*
D11*
G04 #@! TD*
G04 #@! TO.P,D2,1*
G04 #@! TO.N,GND*
X121158000Y-110490000D03*
D12*
G04 #@! TO.P,BZ1,2*
G04 #@! TO.N,Net-(BZ1-Pad2)*
X105283000Y-97616000D03*
G04 #@! TO.P,BZ1,1*
G04 #@! TO.N,Net-(BZ1-Pad1)*
X105283000Y-107616000D03*
G04 #@! TD*
D13*
G04 #@! TO.P,J5,20*
G04 #@! TO.N,GND*
X171450000Y-111760000D03*
G04 #@! TO.P,J5,19*
G04 #@! TO.N,N/C*
X168910000Y-111760000D03*
G04 #@! TO.P,J5,18*
G04 #@! TO.N,GND*
X171450000Y-109220000D03*
G04 #@! TO.P,J5,17*
G04 #@! TO.N,N/C*
X168910000Y-109220000D03*
G04 #@! TO.P,J5,16*
G04 #@! TO.N,GND*
X171450000Y-106680000D03*
G04 #@! TO.P,J5,15*
G04 #@! TO.N,N/C*
X168910000Y-106680000D03*
G04 #@! TO.P,J5,14*
G04 #@! TO.N,GND*
X171450000Y-104140000D03*
G04 #@! TO.P,J5,13*
G04 #@! TO.N,/BCM24_TDO*
X168910000Y-104140000D03*
G04 #@! TO.P,J5,12*
G04 #@! TO.N,GND*
X171450000Y-101600000D03*
G04 #@! TO.P,J5,11*
G04 #@! TO.N,/BCM23_RTCK*
X168910000Y-101600000D03*
G04 #@! TO.P,J5,10*
G04 #@! TO.N,GND*
X171450000Y-99060000D03*
G04 #@! TO.P,J5,9*
G04 #@! TO.N,/BCM25_TCK*
X168910000Y-99060000D03*
G04 #@! TO.P,J5,8*
G04 #@! TO.N,GND*
X171450000Y-96520000D03*
G04 #@! TO.P,J5,7*
G04 #@! TO.N,/BCM27_TMS*
X168910000Y-96520000D03*
G04 #@! TO.P,J5,6*
G04 #@! TO.N,GND*
X171450000Y-93980000D03*
G04 #@! TO.P,J5,5*
G04 #@! TO.N,/BCM4_TDI*
X168910000Y-93980000D03*
G04 #@! TO.P,J5,4*
G04 #@! TO.N,GND*
X171450000Y-91440000D03*
G04 #@! TO.P,J5,3*
G04 #@! TO.N,/BCM22_TRST*
X168910000Y-91440000D03*
G04 #@! TO.P,J5,2*
G04 #@! TO.N,Net-(J5-Pad2)*
X171450000Y-88900000D03*
D14*
G04 #@! TO.P,J5,1*
G04 #@! TO.N,+3V3*
X168910000Y-88900000D03*
G04 #@! TD*
D13*
G04 #@! TO.P,J2,10*
G04 #@! TO.N,/CE_DAC*
X127000000Y-100330000D03*
G04 #@! TO.P,J2,9*
G04 #@! TO.N,/BCM7_CE1*
X127000000Y-97790000D03*
G04 #@! TO.P,J2,8*
G04 #@! TO.N,/CE_ADC*
X129540000Y-100330000D03*
G04 #@! TO.P,J2,7*
G04 #@! TO.N,/BCM8_CE0*
X129540000Y-97790000D03*
G04 #@! TO.P,J2,6*
G04 #@! TO.N,/SCLK*
X132080000Y-100330000D03*
G04 #@! TO.P,J2,5*
G04 #@! TO.N,/BCM11_SCLK*
X132080000Y-97790000D03*
G04 #@! TO.P,J2,4*
G04 #@! TO.N,/MISO*
X134620000Y-100330000D03*
G04 #@! TO.P,J2,3*
G04 #@! TO.N,/BCM9_MISO*
X134620000Y-97790000D03*
G04 #@! TO.P,J2,2*
G04 #@! TO.N,/MOSI*
X137160000Y-100330000D03*
D14*
G04 #@! TO.P,J2,1*
G04 #@! TO.N,/BCM10_MOSI*
X137160000Y-97790000D03*
G04 #@! TD*
D13*
G04 #@! TO.P,J1,40*
G04 #@! TO.N,/BCM21*
X104394000Y-85598000D03*
G04 #@! TO.P,J1,39*
G04 #@! TO.N,GND*
X104394000Y-83058000D03*
G04 #@! TO.P,J1,38*
G04 #@! TO.N,/BCM20*
X106934000Y-85598000D03*
G04 #@! TO.P,J1,37*
G04 #@! TO.N,/BCM26*
X106934000Y-83058000D03*
G04 #@! TO.P,J1,36*
G04 #@! TO.N,/BCM16_CTS*
X109474000Y-85598000D03*
G04 #@! TO.P,J1,35*
G04 #@! TO.N,/BCM19*
X109474000Y-83058000D03*
G04 #@! TO.P,J1,34*
G04 #@! TO.N,GND*
X112014000Y-85598000D03*
G04 #@! TO.P,J1,33*
G04 #@! TO.N,/BCM13_PWM1*
X112014000Y-83058000D03*
G04 #@! TO.P,J1,32*
G04 #@! TO.N,/BCM12_PWM0*
X114554000Y-85598000D03*
G04 #@! TO.P,J1,31*
G04 #@! TO.N,/BCM6*
X114554000Y-83058000D03*
G04 #@! TO.P,J1,30*
G04 #@! TO.N,GND*
X117094000Y-85598000D03*
G04 #@! TO.P,J1,29*
G04 #@! TO.N,/BCM5*
X117094000Y-83058000D03*
G04 #@! TO.P,J1,28*
G04 #@! TO.N,/BCM1*
X119634000Y-85598000D03*
G04 #@! TO.P,J1,27*
G04 #@! TO.N,/BCM0*
X119634000Y-83058000D03*
G04 #@! TO.P,J1,26*
G04 #@! TO.N,/BCM7_CE1*
X122174000Y-85598000D03*
G04 #@! TO.P,J1,25*
G04 #@! TO.N,GND*
X122174000Y-83058000D03*
G04 #@! TO.P,J1,24*
G04 #@! TO.N,/BCM8_CE0*
X124714000Y-85598000D03*
G04 #@! TO.P,J1,23*
G04 #@! TO.N,/BCM11_SCLK*
X124714000Y-83058000D03*
G04 #@! TO.P,J1,22*
G04 #@! TO.N,/BCM25_TCK*
X127254000Y-85598000D03*
G04 #@! TO.P,J1,21*
G04 #@! TO.N,/BCM9_MISO*
X127254000Y-83058000D03*
G04 #@! TO.P,J1,20*
G04 #@! TO.N,GND*
X129794000Y-85598000D03*
G04 #@! TO.P,J1,19*
G04 #@! TO.N,/BCM10_MOSI*
X129794000Y-83058000D03*
G04 #@! TO.P,J1,18*
G04 #@! TO.N,/BCM24_TDO*
X132334000Y-85598000D03*
G04 #@! TO.P,J1,17*
G04 #@! TO.N,+3V3*
X132334000Y-83058000D03*
G04 #@! TO.P,J1,16*
G04 #@! TO.N,/BCM23_RTCK*
X134874000Y-85598000D03*
G04 #@! TO.P,J1,15*
G04 #@! TO.N,/BCM22_TRST*
X134874000Y-83058000D03*
G04 #@! TO.P,J1,14*
G04 #@! TO.N,GND*
X137414000Y-85598000D03*
G04 #@! TO.P,J1,13*
G04 #@! TO.N,/BCM27_TMS*
X137414000Y-83058000D03*
G04 #@! TO.P,J1,12*
G04 #@! TO.N,/BCM18_PWM0*
X139954000Y-85598000D03*
G04 #@! TO.P,J1,11*
G04 #@! TO.N,/BCM17_RTS*
X139954000Y-83058000D03*
G04 #@! TO.P,J1,10*
G04 #@! TO.N,/BCM15_RX*
X142494000Y-85598000D03*
G04 #@! TO.P,J1,9*
G04 #@! TO.N,GND*
X142494000Y-83058000D03*
G04 #@! TO.P,J1,8*
G04 #@! TO.N,/BCM14_TX*
X145034000Y-85598000D03*
G04 #@! TO.P,J1,7*
G04 #@! TO.N,/BCM4_TDI*
X145034000Y-83058000D03*
G04 #@! TO.P,J1,6*
G04 #@! TO.N,GND*
X147574000Y-85598000D03*
G04 #@! TO.P,J1,5*
G04 #@! TO.N,/BCM3_SCL*
X147574000Y-83058000D03*
G04 #@! TO.P,J1,4*
G04 #@! TO.N,+5V*
X150114000Y-85598000D03*
G04 #@! TO.P,J1,3*
G04 #@! TO.N,/BCM2_SDA*
X150114000Y-83058000D03*
G04 #@! TO.P,J1,2*
G04 #@! TO.N,+5V*
X152654000Y-85598000D03*
D14*
G04 #@! TO.P,J1,1*
G04 #@! TO.N,+3V3*
X152654000Y-83058000D03*
G04 #@! TD*
D13*
G04 #@! TO.P,J13,6*
G04 #@! TO.N,/BCM16_CTS*
X146304000Y-90678000D03*
G04 #@! TO.P,J13,5*
G04 #@! TO.N,/BCM14_TX*
X143764000Y-90678000D03*
G04 #@! TO.P,J13,4*
G04 #@! TO.N,/BCM15_RX*
X141224000Y-90678000D03*
G04 #@! TO.P,J13,3*
G04 #@! TO.N,N/C*
X138684000Y-90678000D03*
G04 #@! TO.P,J13,2*
G04 #@! TO.N,/BCM17_RTS*
X136144000Y-90678000D03*
D14*
G04 #@! TO.P,J13,1*
G04 #@! TO.N,GND*
X133604000Y-90678000D03*
G04 #@! TD*
D15*
G04 #@! TO.P,U1,16*
G04 #@! TO.N,VDD*
X156337000Y-108044000D03*
G04 #@! TO.P,U1,15*
G04 #@! TO.N,Net-(J11-Pad1)*
X157607000Y-108044000D03*
G04 #@! TO.P,U1,14*
G04 #@! TO.N,GND*
X158877000Y-108044000D03*
G04 #@! TO.P,U1,13*
G04 #@! TO.N,/SCLK*
X160147000Y-108044000D03*
G04 #@! TO.P,U1,12*
G04 #@! TO.N,/MISO*
X161417000Y-108044000D03*
G04 #@! TO.P,U1,11*
G04 #@! TO.N,/MOSI*
X162687000Y-108044000D03*
G04 #@! TO.P,U1,10*
G04 #@! TO.N,/CE_ADC*
X163957000Y-108044000D03*
G04 #@! TO.P,U1,9*
G04 #@! TO.N,GND*
X165227000Y-108044000D03*
G04 #@! TO.P,U1,8*
G04 #@! TO.N,Net-(J8-Pad8)*
X165227000Y-113444000D03*
G04 #@! TO.P,U1,7*
G04 #@! TO.N,Net-(J8-Pad7)*
X163957000Y-113444000D03*
G04 #@! TO.P,U1,6*
G04 #@! TO.N,Net-(J8-Pad6)*
X162687000Y-113444000D03*
G04 #@! TO.P,U1,5*
G04 #@! TO.N,Net-(J8-Pad5)*
X161417000Y-113444000D03*
G04 #@! TO.P,U1,4*
G04 #@! TO.N,Net-(J8-Pad4)*
X160147000Y-113444000D03*
G04 #@! TO.P,U1,3*
G04 #@! TO.N,Net-(J8-Pad3)*
X158877000Y-113444000D03*
G04 #@! TO.P,U1,2*
G04 #@! TO.N,Net-(J8-Pad2)*
X157607000Y-113444000D03*
G04 #@! TO.P,U1,1*
G04 #@! TO.N,Net-(J8-Pad1)*
X156337000Y-113444000D03*
G04 #@! TD*
D10*
G04 #@! TO.N,Net-(D2-Pad2)*
G04 #@! TO.C,R2*
G36*
X123557505Y-107759204D02*
X123581773Y-107762804D01*
X123605572Y-107768765D01*
X123628671Y-107777030D01*
X123650850Y-107787520D01*
X123671893Y-107800132D01*
X123691599Y-107814747D01*
X123709777Y-107831223D01*
X123726253Y-107849401D01*
X123740868Y-107869107D01*
X123753480Y-107890150D01*
X123763970Y-107912329D01*
X123772235Y-107935428D01*
X123778196Y-107959227D01*
X123781796Y-107983495D01*
X123783000Y-108007999D01*
X123783000Y-108908001D01*
X123781796Y-108932505D01*
X123778196Y-108956773D01*
X123772235Y-108980572D01*
X123763970Y-109003671D01*
X123753480Y-109025850D01*
X123740868Y-109046893D01*
X123726253Y-109066599D01*
X123709777Y-109084777D01*
X123691599Y-109101253D01*
X123671893Y-109115868D01*
X123650850Y-109128480D01*
X123628671Y-109138970D01*
X123605572Y-109147235D01*
X123581773Y-109153196D01*
X123557505Y-109156796D01*
X123533001Y-109158000D01*
X122882999Y-109158000D01*
X122858495Y-109156796D01*
X122834227Y-109153196D01*
X122810428Y-109147235D01*
X122787329Y-109138970D01*
X122765150Y-109128480D01*
X122744107Y-109115868D01*
X122724401Y-109101253D01*
X122706223Y-109084777D01*
X122689747Y-109066599D01*
X122675132Y-109046893D01*
X122662520Y-109025850D01*
X122652030Y-109003671D01*
X122643765Y-108980572D01*
X122637804Y-108956773D01*
X122634204Y-108932505D01*
X122633000Y-108908001D01*
X122633000Y-108007999D01*
X122634204Y-107983495D01*
X122637804Y-107959227D01*
X122643765Y-107935428D01*
X122652030Y-107912329D01*
X122662520Y-107890150D01*
X122675132Y-107869107D01*
X122689747Y-107849401D01*
X122706223Y-107831223D01*
X122724401Y-107814747D01*
X122744107Y-107800132D01*
X122765150Y-107787520D01*
X122787329Y-107777030D01*
X122810428Y-107768765D01*
X122834227Y-107762804D01*
X122858495Y-107759204D01*
X122882999Y-107758000D01*
X123533001Y-107758000D01*
X123557505Y-107759204D01*
X123557505Y-107759204D01*
G37*
D11*
G04 #@! TD*
G04 #@! TO.P,R2,2*
G04 #@! TO.N,Net-(D2-Pad2)*
X123208000Y-108458000D03*
D10*
G04 #@! TO.N,/L2*
G04 #@! TO.C,R2*
G36*
X121507505Y-107759204D02*
X121531773Y-107762804D01*
X121555572Y-107768765D01*
X121578671Y-107777030D01*
X121600850Y-107787520D01*
X121621893Y-107800132D01*
X121641599Y-107814747D01*
X121659777Y-107831223D01*
X121676253Y-107849401D01*
X121690868Y-107869107D01*
X121703480Y-107890150D01*
X121713970Y-107912329D01*
X121722235Y-107935428D01*
X121728196Y-107959227D01*
X121731796Y-107983495D01*
X121733000Y-108007999D01*
X121733000Y-108908001D01*
X121731796Y-108932505D01*
X121728196Y-108956773D01*
X121722235Y-108980572D01*
X121713970Y-109003671D01*
X121703480Y-109025850D01*
X121690868Y-109046893D01*
X121676253Y-109066599D01*
X121659777Y-109084777D01*
X121641599Y-109101253D01*
X121621893Y-109115868D01*
X121600850Y-109128480D01*
X121578671Y-109138970D01*
X121555572Y-109147235D01*
X121531773Y-109153196D01*
X121507505Y-109156796D01*
X121483001Y-109158000D01*
X120832999Y-109158000D01*
X120808495Y-109156796D01*
X120784227Y-109153196D01*
X120760428Y-109147235D01*
X120737329Y-109138970D01*
X120715150Y-109128480D01*
X120694107Y-109115868D01*
X120674401Y-109101253D01*
X120656223Y-109084777D01*
X120639747Y-109066599D01*
X120625132Y-109046893D01*
X120612520Y-109025850D01*
X120602030Y-109003671D01*
X120593765Y-108980572D01*
X120587804Y-108956773D01*
X120584204Y-108932505D01*
X120583000Y-108908001D01*
X120583000Y-108007999D01*
X120584204Y-107983495D01*
X120587804Y-107959227D01*
X120593765Y-107935428D01*
X120602030Y-107912329D01*
X120612520Y-107890150D01*
X120625132Y-107869107D01*
X120639747Y-107849401D01*
X120656223Y-107831223D01*
X120674401Y-107814747D01*
X120694107Y-107800132D01*
X120715150Y-107787520D01*
X120737329Y-107777030D01*
X120760428Y-107768765D01*
X120784227Y-107762804D01*
X120808495Y-107759204D01*
X120832999Y-107758000D01*
X121483001Y-107758000D01*
X121507505Y-107759204D01*
X121507505Y-107759204D01*
G37*
D11*
G04 #@! TD*
G04 #@! TO.P,R2,1*
G04 #@! TO.N,/L2*
X121158000Y-108458000D03*
D10*
G04 #@! TO.N,Net-(D3-Pad2)*
G04 #@! TO.C,R3*
G36*
X129390505Y-107759204D02*
X129414773Y-107762804D01*
X129438572Y-107768765D01*
X129461671Y-107777030D01*
X129483850Y-107787520D01*
X129504893Y-107800132D01*
X129524599Y-107814747D01*
X129542777Y-107831223D01*
X129559253Y-107849401D01*
X129573868Y-107869107D01*
X129586480Y-107890150D01*
X129596970Y-107912329D01*
X129605235Y-107935428D01*
X129611196Y-107959227D01*
X129614796Y-107983495D01*
X129616000Y-108007999D01*
X129616000Y-108908001D01*
X129614796Y-108932505D01*
X129611196Y-108956773D01*
X129605235Y-108980572D01*
X129596970Y-109003671D01*
X129586480Y-109025850D01*
X129573868Y-109046893D01*
X129559253Y-109066599D01*
X129542777Y-109084777D01*
X129524599Y-109101253D01*
X129504893Y-109115868D01*
X129483850Y-109128480D01*
X129461671Y-109138970D01*
X129438572Y-109147235D01*
X129414773Y-109153196D01*
X129390505Y-109156796D01*
X129366001Y-109158000D01*
X128715999Y-109158000D01*
X128691495Y-109156796D01*
X128667227Y-109153196D01*
X128643428Y-109147235D01*
X128620329Y-109138970D01*
X128598150Y-109128480D01*
X128577107Y-109115868D01*
X128557401Y-109101253D01*
X128539223Y-109084777D01*
X128522747Y-109066599D01*
X128508132Y-109046893D01*
X128495520Y-109025850D01*
X128485030Y-109003671D01*
X128476765Y-108980572D01*
X128470804Y-108956773D01*
X128467204Y-108932505D01*
X128466000Y-108908001D01*
X128466000Y-108007999D01*
X128467204Y-107983495D01*
X128470804Y-107959227D01*
X128476765Y-107935428D01*
X128485030Y-107912329D01*
X128495520Y-107890150D01*
X128508132Y-107869107D01*
X128522747Y-107849401D01*
X128539223Y-107831223D01*
X128557401Y-107814747D01*
X128577107Y-107800132D01*
X128598150Y-107787520D01*
X128620329Y-107777030D01*
X128643428Y-107768765D01*
X128667227Y-107762804D01*
X128691495Y-107759204D01*
X128715999Y-107758000D01*
X129366001Y-107758000D01*
X129390505Y-107759204D01*
X129390505Y-107759204D01*
G37*
D11*
G04 #@! TD*
G04 #@! TO.P,R3,2*
G04 #@! TO.N,Net-(D3-Pad2)*
X129041000Y-108458000D03*
D10*
G04 #@! TO.N,/L1*
G04 #@! TO.C,R3*
G36*
X127340505Y-107759204D02*
X127364773Y-107762804D01*
X127388572Y-107768765D01*
X127411671Y-107777030D01*
X127433850Y-107787520D01*
X127454893Y-107800132D01*
X127474599Y-107814747D01*
X127492777Y-107831223D01*
X127509253Y-107849401D01*
X127523868Y-107869107D01*
X127536480Y-107890150D01*
X127546970Y-107912329D01*
X127555235Y-107935428D01*
X127561196Y-107959227D01*
X127564796Y-107983495D01*
X127566000Y-108007999D01*
X127566000Y-108908001D01*
X127564796Y-108932505D01*
X127561196Y-108956773D01*
X127555235Y-108980572D01*
X127546970Y-109003671D01*
X127536480Y-109025850D01*
X127523868Y-109046893D01*
X127509253Y-109066599D01*
X127492777Y-109084777D01*
X127474599Y-109101253D01*
X127454893Y-109115868D01*
X127433850Y-109128480D01*
X127411671Y-109138970D01*
X127388572Y-109147235D01*
X127364773Y-109153196D01*
X127340505Y-109156796D01*
X127316001Y-109158000D01*
X126665999Y-109158000D01*
X126641495Y-109156796D01*
X126617227Y-109153196D01*
X126593428Y-109147235D01*
X126570329Y-109138970D01*
X126548150Y-109128480D01*
X126527107Y-109115868D01*
X126507401Y-109101253D01*
X126489223Y-109084777D01*
X126472747Y-109066599D01*
X126458132Y-109046893D01*
X126445520Y-109025850D01*
X126435030Y-109003671D01*
X126426765Y-108980572D01*
X126420804Y-108956773D01*
X126417204Y-108932505D01*
X126416000Y-108908001D01*
X126416000Y-108007999D01*
X126417204Y-107983495D01*
X126420804Y-107959227D01*
X126426765Y-107935428D01*
X126435030Y-107912329D01*
X126445520Y-107890150D01*
X126458132Y-107869107D01*
X126472747Y-107849401D01*
X126489223Y-107831223D01*
X126507401Y-107814747D01*
X126527107Y-107800132D01*
X126548150Y-107787520D01*
X126570329Y-107777030D01*
X126593428Y-107768765D01*
X126617227Y-107762804D01*
X126641495Y-107759204D01*
X126665999Y-107758000D01*
X127316001Y-107758000D01*
X127340505Y-107759204D01*
X127340505Y-107759204D01*
G37*
D11*
G04 #@! TD*
G04 #@! TO.P,R3,1*
G04 #@! TO.N,/L1*
X126991000Y-108458000D03*
D10*
G04 #@! TO.N,Net-(D1-Pad2)*
G04 #@! TO.C,D1*
G36*
X117706505Y-109791204D02*
X117730773Y-109794804D01*
X117754572Y-109800765D01*
X117777671Y-109809030D01*
X117799850Y-109819520D01*
X117820893Y-109832132D01*
X117840599Y-109846747D01*
X117858777Y-109863223D01*
X117875253Y-109881401D01*
X117889868Y-109901107D01*
X117902480Y-109922150D01*
X117912970Y-109944329D01*
X117921235Y-109967428D01*
X117927196Y-109991227D01*
X117930796Y-110015495D01*
X117932000Y-110039999D01*
X117932000Y-110940001D01*
X117930796Y-110964505D01*
X117927196Y-110988773D01*
X117921235Y-111012572D01*
X117912970Y-111035671D01*
X117902480Y-111057850D01*
X117889868Y-111078893D01*
X117875253Y-111098599D01*
X117858777Y-111116777D01*
X117840599Y-111133253D01*
X117820893Y-111147868D01*
X117799850Y-111160480D01*
X117777671Y-111170970D01*
X117754572Y-111179235D01*
X117730773Y-111185196D01*
X117706505Y-111188796D01*
X117682001Y-111190000D01*
X117031999Y-111190000D01*
X117007495Y-111188796D01*
X116983227Y-111185196D01*
X116959428Y-111179235D01*
X116936329Y-111170970D01*
X116914150Y-111160480D01*
X116893107Y-111147868D01*
X116873401Y-111133253D01*
X116855223Y-111116777D01*
X116838747Y-111098599D01*
X116824132Y-111078893D01*
X116811520Y-111057850D01*
X116801030Y-111035671D01*
X116792765Y-111012572D01*
X116786804Y-110988773D01*
X116783204Y-110964505D01*
X116782000Y-110940001D01*
X116782000Y-110039999D01*
X116783204Y-110015495D01*
X116786804Y-109991227D01*
X116792765Y-109967428D01*
X116801030Y-109944329D01*
X116811520Y-109922150D01*
X116824132Y-109901107D01*
X116838747Y-109881401D01*
X116855223Y-109863223D01*
X116873401Y-109846747D01*
X116893107Y-109832132D01*
X116914150Y-109819520D01*
X116936329Y-109809030D01*
X116959428Y-109800765D01*
X116983227Y-109794804D01*
X117007495Y-109791204D01*
X117031999Y-109790000D01*
X117682001Y-109790000D01*
X117706505Y-109791204D01*
X117706505Y-109791204D01*
G37*
D11*
G04 #@! TD*
G04 #@! TO.P,D1,2*
G04 #@! TO.N,Net-(D1-Pad2)*
X117357000Y-110490000D03*
D10*
G04 #@! TO.N,GND*
G04 #@! TO.C,D1*
G36*
X115656505Y-109791204D02*
X115680773Y-109794804D01*
X115704572Y-109800765D01*
X115727671Y-109809030D01*
X115749850Y-109819520D01*
X115770893Y-109832132D01*
X115790599Y-109846747D01*
X115808777Y-109863223D01*
X115825253Y-109881401D01*
X115839868Y-109901107D01*
X115852480Y-109922150D01*
X115862970Y-109944329D01*
X115871235Y-109967428D01*
X115877196Y-109991227D01*
X115880796Y-110015495D01*
X115882000Y-110039999D01*
X115882000Y-110940001D01*
X115880796Y-110964505D01*
X115877196Y-110988773D01*
X115871235Y-111012572D01*
X115862970Y-111035671D01*
X115852480Y-111057850D01*
X115839868Y-111078893D01*
X115825253Y-111098599D01*
X115808777Y-111116777D01*
X115790599Y-111133253D01*
X115770893Y-111147868D01*
X115749850Y-111160480D01*
X115727671Y-111170970D01*
X115704572Y-111179235D01*
X115680773Y-111185196D01*
X115656505Y-111188796D01*
X115632001Y-111190000D01*
X114981999Y-111190000D01*
X114957495Y-111188796D01*
X114933227Y-111185196D01*
X114909428Y-111179235D01*
X114886329Y-111170970D01*
X114864150Y-111160480D01*
X114843107Y-111147868D01*
X114823401Y-111133253D01*
X114805223Y-111116777D01*
X114788747Y-111098599D01*
X114774132Y-111078893D01*
X114761520Y-111057850D01*
X114751030Y-111035671D01*
X114742765Y-111012572D01*
X114736804Y-110988773D01*
X114733204Y-110964505D01*
X114732000Y-110940001D01*
X114732000Y-110039999D01*
X114733204Y-110015495D01*
X114736804Y-109991227D01*
X114742765Y-109967428D01*
X114751030Y-109944329D01*
X114761520Y-109922150D01*
X114774132Y-109901107D01*
X114788747Y-109881401D01*
X114805223Y-109863223D01*
X114823401Y-109846747D01*
X114843107Y-109832132D01*
X114864150Y-109819520D01*
X114886329Y-109809030D01*
X114909428Y-109800765D01*
X114933227Y-109794804D01*
X114957495Y-109791204D01*
X114981999Y-109790000D01*
X115632001Y-109790000D01*
X115656505Y-109791204D01*
X115656505Y-109791204D01*
G37*
D11*
G04 #@! TD*
G04 #@! TO.P,D1,1*
G04 #@! TO.N,GND*
X115307000Y-110490000D03*
D10*
G04 #@! TO.N,Net-(D1-Pad2)*
G04 #@! TO.C,R1*
G36*
X117697505Y-107759204D02*
X117721773Y-107762804D01*
X117745572Y-107768765D01*
X117768671Y-107777030D01*
X117790850Y-107787520D01*
X117811893Y-107800132D01*
X117831599Y-107814747D01*
X117849777Y-107831223D01*
X117866253Y-107849401D01*
X117880868Y-107869107D01*
X117893480Y-107890150D01*
X117903970Y-107912329D01*
X117912235Y-107935428D01*
X117918196Y-107959227D01*
X117921796Y-107983495D01*
X117923000Y-108007999D01*
X117923000Y-108908001D01*
X117921796Y-108932505D01*
X117918196Y-108956773D01*
X117912235Y-108980572D01*
X117903970Y-109003671D01*
X117893480Y-109025850D01*
X117880868Y-109046893D01*
X117866253Y-109066599D01*
X117849777Y-109084777D01*
X117831599Y-109101253D01*
X117811893Y-109115868D01*
X117790850Y-109128480D01*
X117768671Y-109138970D01*
X117745572Y-109147235D01*
X117721773Y-109153196D01*
X117697505Y-109156796D01*
X117673001Y-109158000D01*
X117022999Y-109158000D01*
X116998495Y-109156796D01*
X116974227Y-109153196D01*
X116950428Y-109147235D01*
X116927329Y-109138970D01*
X116905150Y-109128480D01*
X116884107Y-109115868D01*
X116864401Y-109101253D01*
X116846223Y-109084777D01*
X116829747Y-109066599D01*
X116815132Y-109046893D01*
X116802520Y-109025850D01*
X116792030Y-109003671D01*
X116783765Y-108980572D01*
X116777804Y-108956773D01*
X116774204Y-108932505D01*
X116773000Y-108908001D01*
X116773000Y-108007999D01*
X116774204Y-107983495D01*
X116777804Y-107959227D01*
X116783765Y-107935428D01*
X116792030Y-107912329D01*
X116802520Y-107890150D01*
X116815132Y-107869107D01*
X116829747Y-107849401D01*
X116846223Y-107831223D01*
X116864401Y-107814747D01*
X116884107Y-107800132D01*
X116905150Y-107787520D01*
X116927329Y-107777030D01*
X116950428Y-107768765D01*
X116974227Y-107762804D01*
X116998495Y-107759204D01*
X117022999Y-107758000D01*
X117673001Y-107758000D01*
X117697505Y-107759204D01*
X117697505Y-107759204D01*
G37*
D11*
G04 #@! TD*
G04 #@! TO.P,R1,2*
G04 #@! TO.N,Net-(D1-Pad2)*
X117348000Y-108458000D03*
D10*
G04 #@! TO.N,/L3*
G04 #@! TO.C,R1*
G36*
X115647505Y-107759204D02*
X115671773Y-107762804D01*
X115695572Y-107768765D01*
X115718671Y-107777030D01*
X115740850Y-107787520D01*
X115761893Y-107800132D01*
X115781599Y-107814747D01*
X115799777Y-107831223D01*
X115816253Y-107849401D01*
X115830868Y-107869107D01*
X115843480Y-107890150D01*
X115853970Y-107912329D01*
X115862235Y-107935428D01*
X115868196Y-107959227D01*
X115871796Y-107983495D01*
X115873000Y-108007999D01*
X115873000Y-108908001D01*
X115871796Y-108932505D01*
X115868196Y-108956773D01*
X115862235Y-108980572D01*
X115853970Y-109003671D01*
X115843480Y-109025850D01*
X115830868Y-109046893D01*
X115816253Y-109066599D01*
X115799777Y-109084777D01*
X115781599Y-109101253D01*
X115761893Y-109115868D01*
X115740850Y-109128480D01*
X115718671Y-109138970D01*
X115695572Y-109147235D01*
X115671773Y-109153196D01*
X115647505Y-109156796D01*
X115623001Y-109158000D01*
X114972999Y-109158000D01*
X114948495Y-109156796D01*
X114924227Y-109153196D01*
X114900428Y-109147235D01*
X114877329Y-109138970D01*
X114855150Y-109128480D01*
X114834107Y-109115868D01*
X114814401Y-109101253D01*
X114796223Y-109084777D01*
X114779747Y-109066599D01*
X114765132Y-109046893D01*
X114752520Y-109025850D01*
X114742030Y-109003671D01*
X114733765Y-108980572D01*
X114727804Y-108956773D01*
X114724204Y-108932505D01*
X114723000Y-108908001D01*
X114723000Y-108007999D01*
X114724204Y-107983495D01*
X114727804Y-107959227D01*
X114733765Y-107935428D01*
X114742030Y-107912329D01*
X114752520Y-107890150D01*
X114765132Y-107869107D01*
X114779747Y-107849401D01*
X114796223Y-107831223D01*
X114814401Y-107814747D01*
X114834107Y-107800132D01*
X114855150Y-107787520D01*
X114877329Y-107777030D01*
X114900428Y-107768765D01*
X114924227Y-107762804D01*
X114948495Y-107759204D01*
X114972999Y-107758000D01*
X115623001Y-107758000D01*
X115647505Y-107759204D01*
X115647505Y-107759204D01*
G37*
D11*
G04 #@! TD*
G04 #@! TO.P,R1,1*
G04 #@! TO.N,/L3*
X115298000Y-108458000D03*
D10*
G04 #@! TO.N,Net-(D3-Pad2)*
G04 #@! TO.C,D3*
G36*
X129390505Y-109791204D02*
X129414773Y-109794804D01*
X129438572Y-109800765D01*
X129461671Y-109809030D01*
X129483850Y-109819520D01*
X129504893Y-109832132D01*
X129524599Y-109846747D01*
X129542777Y-109863223D01*
X129559253Y-109881401D01*
X129573868Y-109901107D01*
X129586480Y-109922150D01*
X129596970Y-109944329D01*
X129605235Y-109967428D01*
X129611196Y-109991227D01*
X129614796Y-110015495D01*
X129616000Y-110039999D01*
X129616000Y-110940001D01*
X129614796Y-110964505D01*
X129611196Y-110988773D01*
X129605235Y-111012572D01*
X129596970Y-111035671D01*
X129586480Y-111057850D01*
X129573868Y-111078893D01*
X129559253Y-111098599D01*
X129542777Y-111116777D01*
X129524599Y-111133253D01*
X129504893Y-111147868D01*
X129483850Y-111160480D01*
X129461671Y-111170970D01*
X129438572Y-111179235D01*
X129414773Y-111185196D01*
X129390505Y-111188796D01*
X129366001Y-111190000D01*
X128715999Y-111190000D01*
X128691495Y-111188796D01*
X128667227Y-111185196D01*
X128643428Y-111179235D01*
X128620329Y-111170970D01*
X128598150Y-111160480D01*
X128577107Y-111147868D01*
X128557401Y-111133253D01*
X128539223Y-111116777D01*
X128522747Y-111098599D01*
X128508132Y-111078893D01*
X128495520Y-111057850D01*
X128485030Y-111035671D01*
X128476765Y-111012572D01*
X128470804Y-110988773D01*
X128467204Y-110964505D01*
X128466000Y-110940001D01*
X128466000Y-110039999D01*
X128467204Y-110015495D01*
X128470804Y-109991227D01*
X128476765Y-109967428D01*
X128485030Y-109944329D01*
X128495520Y-109922150D01*
X128508132Y-109901107D01*
X128522747Y-109881401D01*
X128539223Y-109863223D01*
X128557401Y-109846747D01*
X128577107Y-109832132D01*
X128598150Y-109819520D01*
X128620329Y-109809030D01*
X128643428Y-109800765D01*
X128667227Y-109794804D01*
X128691495Y-109791204D01*
X128715999Y-109790000D01*
X129366001Y-109790000D01*
X129390505Y-109791204D01*
X129390505Y-109791204D01*
G37*
D11*
G04 #@! TD*
G04 #@! TO.P,D3,2*
G04 #@! TO.N,Net-(D3-Pad2)*
X129041000Y-110490000D03*
D10*
G04 #@! TO.N,GND*
G04 #@! TO.C,D3*
G36*
X127340505Y-109791204D02*
X127364773Y-109794804D01*
X127388572Y-109800765D01*
X127411671Y-109809030D01*
X127433850Y-109819520D01*
X127454893Y-109832132D01*
X127474599Y-109846747D01*
X127492777Y-109863223D01*
X127509253Y-109881401D01*
X127523868Y-109901107D01*
X127536480Y-109922150D01*
X127546970Y-109944329D01*
X127555235Y-109967428D01*
X127561196Y-109991227D01*
X127564796Y-110015495D01*
X127566000Y-110039999D01*
X127566000Y-110940001D01*
X127564796Y-110964505D01*
X127561196Y-110988773D01*
X127555235Y-111012572D01*
X127546970Y-111035671D01*
X127536480Y-111057850D01*
X127523868Y-111078893D01*
X127509253Y-111098599D01*
X127492777Y-111116777D01*
X127474599Y-111133253D01*
X127454893Y-111147868D01*
X127433850Y-111160480D01*
X127411671Y-111170970D01*
X127388572Y-111179235D01*
X127364773Y-111185196D01*
X127340505Y-111188796D01*
X127316001Y-111190000D01*
X126665999Y-111190000D01*
X126641495Y-111188796D01*
X126617227Y-111185196D01*
X126593428Y-111179235D01*
X126570329Y-111170970D01*
X126548150Y-111160480D01*
X126527107Y-111147868D01*
X126507401Y-111133253D01*
X126489223Y-111116777D01*
X126472747Y-111098599D01*
X126458132Y-111078893D01*
X126445520Y-111057850D01*
X126435030Y-111035671D01*
X126426765Y-111012572D01*
X126420804Y-110988773D01*
X126417204Y-110964505D01*
X126416000Y-110940001D01*
X126416000Y-110039999D01*
X126417204Y-110015495D01*
X126420804Y-109991227D01*
X126426765Y-109967428D01*
X126435030Y-109944329D01*
X126445520Y-109922150D01*
X126458132Y-109901107D01*
X126472747Y-109881401D01*
X126489223Y-109863223D01*
X126507401Y-109846747D01*
X126527107Y-109832132D01*
X126548150Y-109819520D01*
X126570329Y-109809030D01*
X126593428Y-109800765D01*
X126617227Y-109794804D01*
X126641495Y-109791204D01*
X126665999Y-109790000D01*
X127316001Y-109790000D01*
X127340505Y-109791204D01*
X127340505Y-109791204D01*
G37*
D11*
G04 #@! TD*
G04 #@! TO.P,D3,1*
G04 #@! TO.N,GND*
X126991000Y-110490000D03*
D13*
G04 #@! TO.P,J4,6*
G04 #@! TO.N,/SW1*
X129032000Y-105410000D03*
G04 #@! TO.P,J4,5*
G04 #@! TO.N,/SW2*
X126492000Y-105410000D03*
G04 #@! TO.P,J4,4*
G04 #@! TO.N,/SW3*
X123952000Y-105410000D03*
G04 #@! TO.P,J4,3*
G04 #@! TO.N,/L1*
X121412000Y-105410000D03*
G04 #@! TO.P,J4,2*
G04 #@! TO.N,/L2*
X118872000Y-105410000D03*
D14*
G04 #@! TO.P,J4,1*
G04 #@! TO.N,/L3*
X116332000Y-105410000D03*
G04 #@! TD*
D13*
G04 #@! TO.P,J8,8*
G04 #@! TO.N,Net-(J8-Pad8)*
X165608000Y-117602000D03*
G04 #@! TO.P,J8,7*
G04 #@! TO.N,Net-(J8-Pad7)*
X163068000Y-117602000D03*
G04 #@! TO.P,J8,6*
G04 #@! TO.N,Net-(J8-Pad6)*
X160528000Y-117602000D03*
G04 #@! TO.P,J8,5*
G04 #@! TO.N,Net-(J8-Pad5)*
X157988000Y-117602000D03*
G04 #@! TO.P,J8,4*
G04 #@! TO.N,Net-(J8-Pad4)*
X155448000Y-117602000D03*
G04 #@! TO.P,J8,3*
G04 #@! TO.N,Net-(J8-Pad3)*
X152908000Y-117602000D03*
G04 #@! TO.P,J8,2*
G04 #@! TO.N,Net-(J8-Pad2)*
X150368000Y-117602000D03*
D14*
G04 #@! TO.P,J8,1*
G04 #@! TO.N,Net-(J8-Pad1)*
X147828000Y-117602000D03*
G04 #@! TD*
D10*
G04 #@! TO.N,/SW3*
G04 #@! TO.C,R4*
G36*
X134715505Y-108775204D02*
X134739773Y-108778804D01*
X134763572Y-108784765D01*
X134786671Y-108793030D01*
X134808850Y-108803520D01*
X134829893Y-108816132D01*
X134849599Y-108830747D01*
X134867777Y-108847223D01*
X134884253Y-108865401D01*
X134898868Y-108885107D01*
X134911480Y-108906150D01*
X134921970Y-108928329D01*
X134930235Y-108951428D01*
X134936196Y-108975227D01*
X134939796Y-108999495D01*
X134941000Y-109023999D01*
X134941000Y-109924001D01*
X134939796Y-109948505D01*
X134936196Y-109972773D01*
X134930235Y-109996572D01*
X134921970Y-110019671D01*
X134911480Y-110041850D01*
X134898868Y-110062893D01*
X134884253Y-110082599D01*
X134867777Y-110100777D01*
X134849599Y-110117253D01*
X134829893Y-110131868D01*
X134808850Y-110144480D01*
X134786671Y-110154970D01*
X134763572Y-110163235D01*
X134739773Y-110169196D01*
X134715505Y-110172796D01*
X134691001Y-110174000D01*
X134040999Y-110174000D01*
X134016495Y-110172796D01*
X133992227Y-110169196D01*
X133968428Y-110163235D01*
X133945329Y-110154970D01*
X133923150Y-110144480D01*
X133902107Y-110131868D01*
X133882401Y-110117253D01*
X133864223Y-110100777D01*
X133847747Y-110082599D01*
X133833132Y-110062893D01*
X133820520Y-110041850D01*
X133810030Y-110019671D01*
X133801765Y-109996572D01*
X133795804Y-109972773D01*
X133792204Y-109948505D01*
X133791000Y-109924001D01*
X133791000Y-109023999D01*
X133792204Y-108999495D01*
X133795804Y-108975227D01*
X133801765Y-108951428D01*
X133810030Y-108928329D01*
X133820520Y-108906150D01*
X133833132Y-108885107D01*
X133847747Y-108865401D01*
X133864223Y-108847223D01*
X133882401Y-108830747D01*
X133902107Y-108816132D01*
X133923150Y-108803520D01*
X133945329Y-108793030D01*
X133968428Y-108784765D01*
X133992227Y-108778804D01*
X134016495Y-108775204D01*
X134040999Y-108774000D01*
X134691001Y-108774000D01*
X134715505Y-108775204D01*
X134715505Y-108775204D01*
G37*
D11*
G04 #@! TD*
G04 #@! TO.P,R4,2*
G04 #@! TO.N,/SW3*
X134366000Y-109474000D03*
D10*
G04 #@! TO.N,+3V3*
G04 #@! TO.C,R4*
G36*
X136765505Y-108775204D02*
X136789773Y-108778804D01*
X136813572Y-108784765D01*
X136836671Y-108793030D01*
X136858850Y-108803520D01*
X136879893Y-108816132D01*
X136899599Y-108830747D01*
X136917777Y-108847223D01*
X136934253Y-108865401D01*
X136948868Y-108885107D01*
X136961480Y-108906150D01*
X136971970Y-108928329D01*
X136980235Y-108951428D01*
X136986196Y-108975227D01*
X136989796Y-108999495D01*
X136991000Y-109023999D01*
X136991000Y-109924001D01*
X136989796Y-109948505D01*
X136986196Y-109972773D01*
X136980235Y-109996572D01*
X136971970Y-110019671D01*
X136961480Y-110041850D01*
X136948868Y-110062893D01*
X136934253Y-110082599D01*
X136917777Y-110100777D01*
X136899599Y-110117253D01*
X136879893Y-110131868D01*
X136858850Y-110144480D01*
X136836671Y-110154970D01*
X136813572Y-110163235D01*
X136789773Y-110169196D01*
X136765505Y-110172796D01*
X136741001Y-110174000D01*
X136090999Y-110174000D01*
X136066495Y-110172796D01*
X136042227Y-110169196D01*
X136018428Y-110163235D01*
X135995329Y-110154970D01*
X135973150Y-110144480D01*
X135952107Y-110131868D01*
X135932401Y-110117253D01*
X135914223Y-110100777D01*
X135897747Y-110082599D01*
X135883132Y-110062893D01*
X135870520Y-110041850D01*
X135860030Y-110019671D01*
X135851765Y-109996572D01*
X135845804Y-109972773D01*
X135842204Y-109948505D01*
X135841000Y-109924001D01*
X135841000Y-109023999D01*
X135842204Y-108999495D01*
X135845804Y-108975227D01*
X135851765Y-108951428D01*
X135860030Y-108928329D01*
X135870520Y-108906150D01*
X135883132Y-108885107D01*
X135897747Y-108865401D01*
X135914223Y-108847223D01*
X135932401Y-108830747D01*
X135952107Y-108816132D01*
X135973150Y-108803520D01*
X135995329Y-108793030D01*
X136018428Y-108784765D01*
X136042227Y-108778804D01*
X136066495Y-108775204D01*
X136090999Y-108774000D01*
X136741001Y-108774000D01*
X136765505Y-108775204D01*
X136765505Y-108775204D01*
G37*
D11*
G04 #@! TD*
G04 #@! TO.P,R4,1*
G04 #@! TO.N,+3V3*
X136416000Y-109474000D03*
D10*
G04 #@! TO.N,/SW2*
G04 #@! TO.C,R5*
G36*
X134715505Y-110807204D02*
X134739773Y-110810804D01*
X134763572Y-110816765D01*
X134786671Y-110825030D01*
X134808850Y-110835520D01*
X134829893Y-110848132D01*
X134849599Y-110862747D01*
X134867777Y-110879223D01*
X134884253Y-110897401D01*
X134898868Y-110917107D01*
X134911480Y-110938150D01*
X134921970Y-110960329D01*
X134930235Y-110983428D01*
X134936196Y-111007227D01*
X134939796Y-111031495D01*
X134941000Y-111055999D01*
X134941000Y-111956001D01*
X134939796Y-111980505D01*
X134936196Y-112004773D01*
X134930235Y-112028572D01*
X134921970Y-112051671D01*
X134911480Y-112073850D01*
X134898868Y-112094893D01*
X134884253Y-112114599D01*
X134867777Y-112132777D01*
X134849599Y-112149253D01*
X134829893Y-112163868D01*
X134808850Y-112176480D01*
X134786671Y-112186970D01*
X134763572Y-112195235D01*
X134739773Y-112201196D01*
X134715505Y-112204796D01*
X134691001Y-112206000D01*
X134040999Y-112206000D01*
X134016495Y-112204796D01*
X133992227Y-112201196D01*
X133968428Y-112195235D01*
X133945329Y-112186970D01*
X133923150Y-112176480D01*
X133902107Y-112163868D01*
X133882401Y-112149253D01*
X133864223Y-112132777D01*
X133847747Y-112114599D01*
X133833132Y-112094893D01*
X133820520Y-112073850D01*
X133810030Y-112051671D01*
X133801765Y-112028572D01*
X133795804Y-112004773D01*
X133792204Y-111980505D01*
X133791000Y-111956001D01*
X133791000Y-111055999D01*
X133792204Y-111031495D01*
X133795804Y-111007227D01*
X133801765Y-110983428D01*
X133810030Y-110960329D01*
X133820520Y-110938150D01*
X133833132Y-110917107D01*
X133847747Y-110897401D01*
X133864223Y-110879223D01*
X133882401Y-110862747D01*
X133902107Y-110848132D01*
X133923150Y-110835520D01*
X133945329Y-110825030D01*
X133968428Y-110816765D01*
X133992227Y-110810804D01*
X134016495Y-110807204D01*
X134040999Y-110806000D01*
X134691001Y-110806000D01*
X134715505Y-110807204D01*
X134715505Y-110807204D01*
G37*
D11*
G04 #@! TD*
G04 #@! TO.P,R5,2*
G04 #@! TO.N,/SW2*
X134366000Y-111506000D03*
D10*
G04 #@! TO.N,+3V3*
G04 #@! TO.C,R5*
G36*
X136765505Y-110807204D02*
X136789773Y-110810804D01*
X136813572Y-110816765D01*
X136836671Y-110825030D01*
X136858850Y-110835520D01*
X136879893Y-110848132D01*
X136899599Y-110862747D01*
X136917777Y-110879223D01*
X136934253Y-110897401D01*
X136948868Y-110917107D01*
X136961480Y-110938150D01*
X136971970Y-110960329D01*
X136980235Y-110983428D01*
X136986196Y-111007227D01*
X136989796Y-111031495D01*
X136991000Y-111055999D01*
X136991000Y-111956001D01*
X136989796Y-111980505D01*
X136986196Y-112004773D01*
X136980235Y-112028572D01*
X136971970Y-112051671D01*
X136961480Y-112073850D01*
X136948868Y-112094893D01*
X136934253Y-112114599D01*
X136917777Y-112132777D01*
X136899599Y-112149253D01*
X136879893Y-112163868D01*
X136858850Y-112176480D01*
X136836671Y-112186970D01*
X136813572Y-112195235D01*
X136789773Y-112201196D01*
X136765505Y-112204796D01*
X136741001Y-112206000D01*
X136090999Y-112206000D01*
X136066495Y-112204796D01*
X136042227Y-112201196D01*
X136018428Y-112195235D01*
X135995329Y-112186970D01*
X135973150Y-112176480D01*
X135952107Y-112163868D01*
X135932401Y-112149253D01*
X135914223Y-112132777D01*
X135897747Y-112114599D01*
X135883132Y-112094893D01*
X135870520Y-112073850D01*
X135860030Y-112051671D01*
X135851765Y-112028572D01*
X135845804Y-112004773D01*
X135842204Y-111980505D01*
X135841000Y-111956001D01*
X135841000Y-111055999D01*
X135842204Y-111031495D01*
X135845804Y-111007227D01*
X135851765Y-110983428D01*
X135860030Y-110960329D01*
X135870520Y-110938150D01*
X135883132Y-110917107D01*
X135897747Y-110897401D01*
X135914223Y-110879223D01*
X135932401Y-110862747D01*
X135952107Y-110848132D01*
X135973150Y-110835520D01*
X135995329Y-110825030D01*
X136018428Y-110816765D01*
X136042227Y-110810804D01*
X136066495Y-110807204D01*
X136090999Y-110806000D01*
X136741001Y-110806000D01*
X136765505Y-110807204D01*
X136765505Y-110807204D01*
G37*
D11*
G04 #@! TD*
G04 #@! TO.P,R5,1*
G04 #@! TO.N,+3V3*
X136416000Y-111506000D03*
D10*
G04 #@! TO.N,/SW1*
G04 #@! TO.C,R6*
G36*
X134706505Y-106743204D02*
X134730773Y-106746804D01*
X134754572Y-106752765D01*
X134777671Y-106761030D01*
X134799850Y-106771520D01*
X134820893Y-106784132D01*
X134840599Y-106798747D01*
X134858777Y-106815223D01*
X134875253Y-106833401D01*
X134889868Y-106853107D01*
X134902480Y-106874150D01*
X134912970Y-106896329D01*
X134921235Y-106919428D01*
X134927196Y-106943227D01*
X134930796Y-106967495D01*
X134932000Y-106991999D01*
X134932000Y-107892001D01*
X134930796Y-107916505D01*
X134927196Y-107940773D01*
X134921235Y-107964572D01*
X134912970Y-107987671D01*
X134902480Y-108009850D01*
X134889868Y-108030893D01*
X134875253Y-108050599D01*
X134858777Y-108068777D01*
X134840599Y-108085253D01*
X134820893Y-108099868D01*
X134799850Y-108112480D01*
X134777671Y-108122970D01*
X134754572Y-108131235D01*
X134730773Y-108137196D01*
X134706505Y-108140796D01*
X134682001Y-108142000D01*
X134031999Y-108142000D01*
X134007495Y-108140796D01*
X133983227Y-108137196D01*
X133959428Y-108131235D01*
X133936329Y-108122970D01*
X133914150Y-108112480D01*
X133893107Y-108099868D01*
X133873401Y-108085253D01*
X133855223Y-108068777D01*
X133838747Y-108050599D01*
X133824132Y-108030893D01*
X133811520Y-108009850D01*
X133801030Y-107987671D01*
X133792765Y-107964572D01*
X133786804Y-107940773D01*
X133783204Y-107916505D01*
X133782000Y-107892001D01*
X133782000Y-106991999D01*
X133783204Y-106967495D01*
X133786804Y-106943227D01*
X133792765Y-106919428D01*
X133801030Y-106896329D01*
X133811520Y-106874150D01*
X133824132Y-106853107D01*
X133838747Y-106833401D01*
X133855223Y-106815223D01*
X133873401Y-106798747D01*
X133893107Y-106784132D01*
X133914150Y-106771520D01*
X133936329Y-106761030D01*
X133959428Y-106752765D01*
X133983227Y-106746804D01*
X134007495Y-106743204D01*
X134031999Y-106742000D01*
X134682001Y-106742000D01*
X134706505Y-106743204D01*
X134706505Y-106743204D01*
G37*
D11*
G04 #@! TD*
G04 #@! TO.P,R6,2*
G04 #@! TO.N,/SW1*
X134357000Y-107442000D03*
D10*
G04 #@! TO.N,+3V3*
G04 #@! TO.C,R6*
G36*
X136756505Y-106743204D02*
X136780773Y-106746804D01*
X136804572Y-106752765D01*
X136827671Y-106761030D01*
X136849850Y-106771520D01*
X136870893Y-106784132D01*
X136890599Y-106798747D01*
X136908777Y-106815223D01*
X136925253Y-106833401D01*
X136939868Y-106853107D01*
X136952480Y-106874150D01*
X136962970Y-106896329D01*
X136971235Y-106919428D01*
X136977196Y-106943227D01*
X136980796Y-106967495D01*
X136982000Y-106991999D01*
X136982000Y-107892001D01*
X136980796Y-107916505D01*
X136977196Y-107940773D01*
X136971235Y-107964572D01*
X136962970Y-107987671D01*
X136952480Y-108009850D01*
X136939868Y-108030893D01*
X136925253Y-108050599D01*
X136908777Y-108068777D01*
X136890599Y-108085253D01*
X136870893Y-108099868D01*
X136849850Y-108112480D01*
X136827671Y-108122970D01*
X136804572Y-108131235D01*
X136780773Y-108137196D01*
X136756505Y-108140796D01*
X136732001Y-108142000D01*
X136081999Y-108142000D01*
X136057495Y-108140796D01*
X136033227Y-108137196D01*
X136009428Y-108131235D01*
X135986329Y-108122970D01*
X135964150Y-108112480D01*
X135943107Y-108099868D01*
X135923401Y-108085253D01*
X135905223Y-108068777D01*
X135888747Y-108050599D01*
X135874132Y-108030893D01*
X135861520Y-108009850D01*
X135851030Y-107987671D01*
X135842765Y-107964572D01*
X135836804Y-107940773D01*
X135833204Y-107916505D01*
X135832000Y-107892001D01*
X135832000Y-106991999D01*
X135833204Y-106967495D01*
X135836804Y-106943227D01*
X135842765Y-106919428D01*
X135851030Y-106896329D01*
X135861520Y-106874150D01*
X135874132Y-106853107D01*
X135888747Y-106833401D01*
X135905223Y-106815223D01*
X135923401Y-106798747D01*
X135943107Y-106784132D01*
X135964150Y-106771520D01*
X135986329Y-106761030D01*
X136009428Y-106752765D01*
X136033227Y-106746804D01*
X136057495Y-106743204D01*
X136081999Y-106742000D01*
X136732001Y-106742000D01*
X136756505Y-106743204D01*
X136756505Y-106743204D01*
G37*
D11*
G04 #@! TD*
G04 #@! TO.P,R6,1*
G04 #@! TO.N,+3V3*
X136407000Y-107442000D03*
D16*
G04 #@! TO.P,SW1,2*
G04 #@! TO.N,GND*
X113770000Y-118455000D03*
X104670000Y-118455000D03*
G04 #@! TO.P,SW1,1*
G04 #@! TO.N,/SW3*
X113770000Y-113955000D03*
X104670000Y-113955000D03*
G04 #@! TD*
G04 #@! TO.P,SW2,2*
G04 #@! TO.N,GND*
X125835000Y-118455000D03*
X116735000Y-118455000D03*
G04 #@! TO.P,SW2,1*
G04 #@! TO.N,/SW2*
X125835000Y-113955000D03*
X116735000Y-113955000D03*
G04 #@! TD*
G04 #@! TO.P,SW3,2*
G04 #@! TO.N,GND*
X137900000Y-118455000D03*
X128800000Y-118455000D03*
G04 #@! TO.P,SW3,1*
G04 #@! TO.N,/SW1*
X137900000Y-113955000D03*
X128800000Y-113955000D03*
G04 #@! TD*
D17*
G04 #@! TO.P,U2,8*
G04 #@! TO.N,Net-(J12-Pad2)*
X147955000Y-113190000D03*
G04 #@! TO.P,U2,7*
G04 #@! TO.N,GND*
X146685000Y-113190000D03*
G04 #@! TO.P,U2,6*
G04 #@! TO.N,Net-(J10-Pad1)*
X145415000Y-113190000D03*
G04 #@! TO.P,U2,5*
G04 #@! TO.N,Net-(J9-Pad2)*
X144145000Y-113190000D03*
G04 #@! TO.P,U2,4*
G04 #@! TO.N,/MOSI*
X144145000Y-107790000D03*
G04 #@! TO.P,U2,3*
G04 #@! TO.N,/SCLK*
X145415000Y-107790000D03*
G04 #@! TO.P,U2,2*
G04 #@! TO.N,/CE_DAC*
X146685000Y-107790000D03*
G04 #@! TO.P,U2,1*
G04 #@! TO.N,VDD*
X147955000Y-107790000D03*
G04 #@! TD*
D10*
G04 #@! TO.N,GND*
G04 #@! TO.C,C1*
G36*
X154906505Y-109408204D02*
X154930773Y-109411804D01*
X154954572Y-109417765D01*
X154977671Y-109426030D01*
X154999850Y-109436520D01*
X155020893Y-109449132D01*
X155040599Y-109463747D01*
X155058777Y-109480223D01*
X155075253Y-109498401D01*
X155089868Y-109518107D01*
X155102480Y-109539150D01*
X155112970Y-109561329D01*
X155121235Y-109584428D01*
X155127196Y-109608227D01*
X155130796Y-109632495D01*
X155132000Y-109656999D01*
X155132000Y-110307001D01*
X155130796Y-110331505D01*
X155127196Y-110355773D01*
X155121235Y-110379572D01*
X155112970Y-110402671D01*
X155102480Y-110424850D01*
X155089868Y-110445893D01*
X155075253Y-110465599D01*
X155058777Y-110483777D01*
X155040599Y-110500253D01*
X155020893Y-110514868D01*
X154999850Y-110527480D01*
X154977671Y-110537970D01*
X154954572Y-110546235D01*
X154930773Y-110552196D01*
X154906505Y-110555796D01*
X154882001Y-110557000D01*
X153981999Y-110557000D01*
X153957495Y-110555796D01*
X153933227Y-110552196D01*
X153909428Y-110546235D01*
X153886329Y-110537970D01*
X153864150Y-110527480D01*
X153843107Y-110514868D01*
X153823401Y-110500253D01*
X153805223Y-110483777D01*
X153788747Y-110465599D01*
X153774132Y-110445893D01*
X153761520Y-110424850D01*
X153751030Y-110402671D01*
X153742765Y-110379572D01*
X153736804Y-110355773D01*
X153733204Y-110331505D01*
X153732000Y-110307001D01*
X153732000Y-109656999D01*
X153733204Y-109632495D01*
X153736804Y-109608227D01*
X153742765Y-109584428D01*
X153751030Y-109561329D01*
X153761520Y-109539150D01*
X153774132Y-109518107D01*
X153788747Y-109498401D01*
X153805223Y-109480223D01*
X153823401Y-109463747D01*
X153843107Y-109449132D01*
X153864150Y-109436520D01*
X153886329Y-109426030D01*
X153909428Y-109417765D01*
X153933227Y-109411804D01*
X153957495Y-109408204D01*
X153981999Y-109407000D01*
X154882001Y-109407000D01*
X154906505Y-109408204D01*
X154906505Y-109408204D01*
G37*
D11*
G04 #@! TD*
G04 #@! TO.P,C1,2*
G04 #@! TO.N,GND*
X154432000Y-109982000D03*
D10*
G04 #@! TO.N,VDD*
G04 #@! TO.C,C1*
G36*
X154906505Y-107358204D02*
X154930773Y-107361804D01*
X154954572Y-107367765D01*
X154977671Y-107376030D01*
X154999850Y-107386520D01*
X155020893Y-107399132D01*
X155040599Y-107413747D01*
X155058777Y-107430223D01*
X155075253Y-107448401D01*
X155089868Y-107468107D01*
X155102480Y-107489150D01*
X155112970Y-107511329D01*
X155121235Y-107534428D01*
X155127196Y-107558227D01*
X155130796Y-107582495D01*
X155132000Y-107606999D01*
X155132000Y-108257001D01*
X155130796Y-108281505D01*
X155127196Y-108305773D01*
X155121235Y-108329572D01*
X155112970Y-108352671D01*
X155102480Y-108374850D01*
X155089868Y-108395893D01*
X155075253Y-108415599D01*
X155058777Y-108433777D01*
X155040599Y-108450253D01*
X155020893Y-108464868D01*
X154999850Y-108477480D01*
X154977671Y-108487970D01*
X154954572Y-108496235D01*
X154930773Y-108502196D01*
X154906505Y-108505796D01*
X154882001Y-108507000D01*
X153981999Y-108507000D01*
X153957495Y-108505796D01*
X153933227Y-108502196D01*
X153909428Y-108496235D01*
X153886329Y-108487970D01*
X153864150Y-108477480D01*
X153843107Y-108464868D01*
X153823401Y-108450253D01*
X153805223Y-108433777D01*
X153788747Y-108415599D01*
X153774132Y-108395893D01*
X153761520Y-108374850D01*
X153751030Y-108352671D01*
X153742765Y-108329572D01*
X153736804Y-108305773D01*
X153733204Y-108281505D01*
X153732000Y-108257001D01*
X153732000Y-107606999D01*
X153733204Y-107582495D01*
X153736804Y-107558227D01*
X153742765Y-107534428D01*
X153751030Y-107511329D01*
X153761520Y-107489150D01*
X153774132Y-107468107D01*
X153788747Y-107448401D01*
X153805223Y-107430223D01*
X153823401Y-107413747D01*
X153843107Y-107399132D01*
X153864150Y-107386520D01*
X153886329Y-107376030D01*
X153909428Y-107367765D01*
X153933227Y-107361804D01*
X153957495Y-107358204D01*
X153981999Y-107357000D01*
X154882001Y-107357000D01*
X154906505Y-107358204D01*
X154906505Y-107358204D01*
G37*
D11*
G04 #@! TD*
G04 #@! TO.P,C1,1*
G04 #@! TO.N,VDD*
X154432000Y-107932000D03*
D10*
G04 #@! TO.N,GND*
G04 #@! TO.C,C2*
G36*
X150354505Y-104965204D02*
X150378773Y-104968804D01*
X150402572Y-104974765D01*
X150425671Y-104983030D01*
X150447850Y-104993520D01*
X150468893Y-105006132D01*
X150488599Y-105020747D01*
X150506777Y-105037223D01*
X150523253Y-105055401D01*
X150537868Y-105075107D01*
X150550480Y-105096150D01*
X150560970Y-105118329D01*
X150569235Y-105141428D01*
X150575196Y-105165227D01*
X150578796Y-105189495D01*
X150580000Y-105213999D01*
X150580000Y-106114001D01*
X150578796Y-106138505D01*
X150575196Y-106162773D01*
X150569235Y-106186572D01*
X150560970Y-106209671D01*
X150550480Y-106231850D01*
X150537868Y-106252893D01*
X150523253Y-106272599D01*
X150506777Y-106290777D01*
X150488599Y-106307253D01*
X150468893Y-106321868D01*
X150447850Y-106334480D01*
X150425671Y-106344970D01*
X150402572Y-106353235D01*
X150378773Y-106359196D01*
X150354505Y-106362796D01*
X150330001Y-106364000D01*
X149679999Y-106364000D01*
X149655495Y-106362796D01*
X149631227Y-106359196D01*
X149607428Y-106353235D01*
X149584329Y-106344970D01*
X149562150Y-106334480D01*
X149541107Y-106321868D01*
X149521401Y-106307253D01*
X149503223Y-106290777D01*
X149486747Y-106272599D01*
X149472132Y-106252893D01*
X149459520Y-106231850D01*
X149449030Y-106209671D01*
X149440765Y-106186572D01*
X149434804Y-106162773D01*
X149431204Y-106138505D01*
X149430000Y-106114001D01*
X149430000Y-105213999D01*
X149431204Y-105189495D01*
X149434804Y-105165227D01*
X149440765Y-105141428D01*
X149449030Y-105118329D01*
X149459520Y-105096150D01*
X149472132Y-105075107D01*
X149486747Y-105055401D01*
X149503223Y-105037223D01*
X149521401Y-105020747D01*
X149541107Y-105006132D01*
X149562150Y-104993520D01*
X149584329Y-104983030D01*
X149607428Y-104974765D01*
X149631227Y-104968804D01*
X149655495Y-104965204D01*
X149679999Y-104964000D01*
X150330001Y-104964000D01*
X150354505Y-104965204D01*
X150354505Y-104965204D01*
G37*
D11*
G04 #@! TD*
G04 #@! TO.P,C2,2*
G04 #@! TO.N,GND*
X150005000Y-105664000D03*
D10*
G04 #@! TO.N,VDD*
G04 #@! TO.C,C2*
G36*
X148304505Y-104965204D02*
X148328773Y-104968804D01*
X148352572Y-104974765D01*
X148375671Y-104983030D01*
X148397850Y-104993520D01*
X148418893Y-105006132D01*
X148438599Y-105020747D01*
X148456777Y-105037223D01*
X148473253Y-105055401D01*
X148487868Y-105075107D01*
X148500480Y-105096150D01*
X148510970Y-105118329D01*
X148519235Y-105141428D01*
X148525196Y-105165227D01*
X148528796Y-105189495D01*
X148530000Y-105213999D01*
X148530000Y-106114001D01*
X148528796Y-106138505D01*
X148525196Y-106162773D01*
X148519235Y-106186572D01*
X148510970Y-106209671D01*
X148500480Y-106231850D01*
X148487868Y-106252893D01*
X148473253Y-106272599D01*
X148456777Y-106290777D01*
X148438599Y-106307253D01*
X148418893Y-106321868D01*
X148397850Y-106334480D01*
X148375671Y-106344970D01*
X148352572Y-106353235D01*
X148328773Y-106359196D01*
X148304505Y-106362796D01*
X148280001Y-106364000D01*
X147629999Y-106364000D01*
X147605495Y-106362796D01*
X147581227Y-106359196D01*
X147557428Y-106353235D01*
X147534329Y-106344970D01*
X147512150Y-106334480D01*
X147491107Y-106321868D01*
X147471401Y-106307253D01*
X147453223Y-106290777D01*
X147436747Y-106272599D01*
X147422132Y-106252893D01*
X147409520Y-106231850D01*
X147399030Y-106209671D01*
X147390765Y-106186572D01*
X147384804Y-106162773D01*
X147381204Y-106138505D01*
X147380000Y-106114001D01*
X147380000Y-105213999D01*
X147381204Y-105189495D01*
X147384804Y-105165227D01*
X147390765Y-105141428D01*
X147399030Y-105118329D01*
X147409520Y-105096150D01*
X147422132Y-105075107D01*
X147436747Y-105055401D01*
X147453223Y-105037223D01*
X147471401Y-105020747D01*
X147491107Y-105006132D01*
X147512150Y-104993520D01*
X147534329Y-104983030D01*
X147557428Y-104974765D01*
X147581227Y-104968804D01*
X147605495Y-104965204D01*
X147629999Y-104964000D01*
X148280001Y-104964000D01*
X148304505Y-104965204D01*
X148304505Y-104965204D01*
G37*
D11*
G04 #@! TD*
G04 #@! TO.P,C2,1*
G04 #@! TO.N,VDD*
X147955000Y-105664000D03*
D10*
G04 #@! TO.N,GND*
G04 #@! TO.C,C3*
G36*
X150354505Y-102679204D02*
X150378773Y-102682804D01*
X150402572Y-102688765D01*
X150425671Y-102697030D01*
X150447850Y-102707520D01*
X150468893Y-102720132D01*
X150488599Y-102734747D01*
X150506777Y-102751223D01*
X150523253Y-102769401D01*
X150537868Y-102789107D01*
X150550480Y-102810150D01*
X150560970Y-102832329D01*
X150569235Y-102855428D01*
X150575196Y-102879227D01*
X150578796Y-102903495D01*
X150580000Y-102927999D01*
X150580000Y-103828001D01*
X150578796Y-103852505D01*
X150575196Y-103876773D01*
X150569235Y-103900572D01*
X150560970Y-103923671D01*
X150550480Y-103945850D01*
X150537868Y-103966893D01*
X150523253Y-103986599D01*
X150506777Y-104004777D01*
X150488599Y-104021253D01*
X150468893Y-104035868D01*
X150447850Y-104048480D01*
X150425671Y-104058970D01*
X150402572Y-104067235D01*
X150378773Y-104073196D01*
X150354505Y-104076796D01*
X150330001Y-104078000D01*
X149679999Y-104078000D01*
X149655495Y-104076796D01*
X149631227Y-104073196D01*
X149607428Y-104067235D01*
X149584329Y-104058970D01*
X149562150Y-104048480D01*
X149541107Y-104035868D01*
X149521401Y-104021253D01*
X149503223Y-104004777D01*
X149486747Y-103986599D01*
X149472132Y-103966893D01*
X149459520Y-103945850D01*
X149449030Y-103923671D01*
X149440765Y-103900572D01*
X149434804Y-103876773D01*
X149431204Y-103852505D01*
X149430000Y-103828001D01*
X149430000Y-102927999D01*
X149431204Y-102903495D01*
X149434804Y-102879227D01*
X149440765Y-102855428D01*
X149449030Y-102832329D01*
X149459520Y-102810150D01*
X149472132Y-102789107D01*
X149486747Y-102769401D01*
X149503223Y-102751223D01*
X149521401Y-102734747D01*
X149541107Y-102720132D01*
X149562150Y-102707520D01*
X149584329Y-102697030D01*
X149607428Y-102688765D01*
X149631227Y-102682804D01*
X149655495Y-102679204D01*
X149679999Y-102678000D01*
X150330001Y-102678000D01*
X150354505Y-102679204D01*
X150354505Y-102679204D01*
G37*
D11*
G04 #@! TD*
G04 #@! TO.P,C3,2*
G04 #@! TO.N,GND*
X150005000Y-103378000D03*
D10*
G04 #@! TO.N,VDD*
G04 #@! TO.C,C3*
G36*
X148304505Y-102679204D02*
X148328773Y-102682804D01*
X148352572Y-102688765D01*
X148375671Y-102697030D01*
X148397850Y-102707520D01*
X148418893Y-102720132D01*
X148438599Y-102734747D01*
X148456777Y-102751223D01*
X148473253Y-102769401D01*
X148487868Y-102789107D01*
X148500480Y-102810150D01*
X148510970Y-102832329D01*
X148519235Y-102855428D01*
X148525196Y-102879227D01*
X148528796Y-102903495D01*
X148530000Y-102927999D01*
X148530000Y-103828001D01*
X148528796Y-103852505D01*
X148525196Y-103876773D01*
X148519235Y-103900572D01*
X148510970Y-103923671D01*
X148500480Y-103945850D01*
X148487868Y-103966893D01*
X148473253Y-103986599D01*
X148456777Y-104004777D01*
X148438599Y-104021253D01*
X148418893Y-104035868D01*
X148397850Y-104048480D01*
X148375671Y-104058970D01*
X148352572Y-104067235D01*
X148328773Y-104073196D01*
X148304505Y-104076796D01*
X148280001Y-104078000D01*
X147629999Y-104078000D01*
X147605495Y-104076796D01*
X147581227Y-104073196D01*
X147557428Y-104067235D01*
X147534329Y-104058970D01*
X147512150Y-104048480D01*
X147491107Y-104035868D01*
X147471401Y-104021253D01*
X147453223Y-104004777D01*
X147436747Y-103986599D01*
X147422132Y-103966893D01*
X147409520Y-103945850D01*
X147399030Y-103923671D01*
X147390765Y-103900572D01*
X147384804Y-103876773D01*
X147381204Y-103852505D01*
X147380000Y-103828001D01*
X147380000Y-102927999D01*
X147381204Y-102903495D01*
X147384804Y-102879227D01*
X147390765Y-102855428D01*
X147399030Y-102832329D01*
X147409520Y-102810150D01*
X147422132Y-102789107D01*
X147436747Y-102769401D01*
X147453223Y-102751223D01*
X147471401Y-102734747D01*
X147491107Y-102720132D01*
X147512150Y-102707520D01*
X147534329Y-102697030D01*
X147557428Y-102688765D01*
X147581227Y-102682804D01*
X147605495Y-102679204D01*
X147629999Y-102678000D01*
X148280001Y-102678000D01*
X148304505Y-102679204D01*
X148304505Y-102679204D01*
G37*
D11*
G04 #@! TD*
G04 #@! TO.P,C3,1*
G04 #@! TO.N,VDD*
X147955000Y-103378000D03*
D13*
G04 #@! TO.P,J3,6*
G04 #@! TO.N,Net-(BZ1-Pad2)*
X116332000Y-100330000D03*
G04 #@! TO.P,J3,5*
G04 #@! TO.N,/BCM13_PWM1*
X116332000Y-97790000D03*
G04 #@! TO.P,J3,4*
G04 #@! TO.N,Net-(BZ1-Pad1)*
X118872000Y-100330000D03*
G04 #@! TO.P,J3,3*
G04 #@! TO.N,/BCM12_PWM0*
X118872000Y-97790000D03*
G04 #@! TO.P,J3,2*
G04 #@! TO.N,GND*
X121412000Y-100330000D03*
D14*
G04 #@! TO.P,J3,1*
G04 #@! TO.N,/BCM18_PWM0*
X121412000Y-97790000D03*
G04 #@! TD*
D10*
G04 #@! TO.N,Net-(J5-Pad2)*
G04 #@! TO.C,R7*
G36*
X165966505Y-84391204D02*
X165990773Y-84394804D01*
X166014572Y-84400765D01*
X166037671Y-84409030D01*
X166059850Y-84419520D01*
X166080893Y-84432132D01*
X166100599Y-84446747D01*
X166118777Y-84463223D01*
X166135253Y-84481401D01*
X166149868Y-84501107D01*
X166162480Y-84522150D01*
X166172970Y-84544329D01*
X166181235Y-84567428D01*
X166187196Y-84591227D01*
X166190796Y-84615495D01*
X166192000Y-84639999D01*
X166192000Y-85540001D01*
X166190796Y-85564505D01*
X166187196Y-85588773D01*
X166181235Y-85612572D01*
X166172970Y-85635671D01*
X166162480Y-85657850D01*
X166149868Y-85678893D01*
X166135253Y-85698599D01*
X166118777Y-85716777D01*
X166100599Y-85733253D01*
X166080893Y-85747868D01*
X166059850Y-85760480D01*
X166037671Y-85770970D01*
X166014572Y-85779235D01*
X165990773Y-85785196D01*
X165966505Y-85788796D01*
X165942001Y-85790000D01*
X165291999Y-85790000D01*
X165267495Y-85788796D01*
X165243227Y-85785196D01*
X165219428Y-85779235D01*
X165196329Y-85770970D01*
X165174150Y-85760480D01*
X165153107Y-85747868D01*
X165133401Y-85733253D01*
X165115223Y-85716777D01*
X165098747Y-85698599D01*
X165084132Y-85678893D01*
X165071520Y-85657850D01*
X165061030Y-85635671D01*
X165052765Y-85612572D01*
X165046804Y-85588773D01*
X165043204Y-85564505D01*
X165042000Y-85540001D01*
X165042000Y-84639999D01*
X165043204Y-84615495D01*
X165046804Y-84591227D01*
X165052765Y-84567428D01*
X165061030Y-84544329D01*
X165071520Y-84522150D01*
X165084132Y-84501107D01*
X165098747Y-84481401D01*
X165115223Y-84463223D01*
X165133401Y-84446747D01*
X165153107Y-84432132D01*
X165174150Y-84419520D01*
X165196329Y-84409030D01*
X165219428Y-84400765D01*
X165243227Y-84394804D01*
X165267495Y-84391204D01*
X165291999Y-84390000D01*
X165942001Y-84390000D01*
X165966505Y-84391204D01*
X165966505Y-84391204D01*
G37*
D11*
G04 #@! TD*
G04 #@! TO.P,R7,2*
G04 #@! TO.N,Net-(J5-Pad2)*
X165617000Y-85090000D03*
D10*
G04 #@! TO.N,+3V3*
G04 #@! TO.C,R7*
G36*
X163916505Y-84391204D02*
X163940773Y-84394804D01*
X163964572Y-84400765D01*
X163987671Y-84409030D01*
X164009850Y-84419520D01*
X164030893Y-84432132D01*
X164050599Y-84446747D01*
X164068777Y-84463223D01*
X164085253Y-84481401D01*
X164099868Y-84501107D01*
X164112480Y-84522150D01*
X164122970Y-84544329D01*
X164131235Y-84567428D01*
X164137196Y-84591227D01*
X164140796Y-84615495D01*
X164142000Y-84639999D01*
X164142000Y-85540001D01*
X164140796Y-85564505D01*
X164137196Y-85588773D01*
X164131235Y-85612572D01*
X164122970Y-85635671D01*
X164112480Y-85657850D01*
X164099868Y-85678893D01*
X164085253Y-85698599D01*
X164068777Y-85716777D01*
X164050599Y-85733253D01*
X164030893Y-85747868D01*
X164009850Y-85760480D01*
X163987671Y-85770970D01*
X163964572Y-85779235D01*
X163940773Y-85785196D01*
X163916505Y-85788796D01*
X163892001Y-85790000D01*
X163241999Y-85790000D01*
X163217495Y-85788796D01*
X163193227Y-85785196D01*
X163169428Y-85779235D01*
X163146329Y-85770970D01*
X163124150Y-85760480D01*
X163103107Y-85747868D01*
X163083401Y-85733253D01*
X163065223Y-85716777D01*
X163048747Y-85698599D01*
X163034132Y-85678893D01*
X163021520Y-85657850D01*
X163011030Y-85635671D01*
X163002765Y-85612572D01*
X162996804Y-85588773D01*
X162993204Y-85564505D01*
X162992000Y-85540001D01*
X162992000Y-84639999D01*
X162993204Y-84615495D01*
X162996804Y-84591227D01*
X163002765Y-84567428D01*
X163011030Y-84544329D01*
X163021520Y-84522150D01*
X163034132Y-84501107D01*
X163048747Y-84481401D01*
X163065223Y-84463223D01*
X163083401Y-84446747D01*
X163103107Y-84432132D01*
X163124150Y-84419520D01*
X163146329Y-84409030D01*
X163169428Y-84400765D01*
X163193227Y-84394804D01*
X163217495Y-84391204D01*
X163241999Y-84390000D01*
X163892001Y-84390000D01*
X163916505Y-84391204D01*
X163916505Y-84391204D01*
G37*
D11*
G04 #@! TD*
G04 #@! TO.P,R7,1*
G04 #@! TO.N,+3V3*
X163567000Y-85090000D03*
D13*
G04 #@! TO.P,J9,2*
G04 #@! TO.N,Net-(J9-Pad2)*
X140970000Y-110998000D03*
D14*
G04 #@! TO.P,J9,1*
G04 #@! TO.N,GND*
X140970000Y-108458000D03*
G04 #@! TD*
D13*
G04 #@! TO.P,J10,2*
G04 #@! TO.N,VDD*
X151130000Y-109982000D03*
D14*
G04 #@! TO.P,J10,1*
G04 #@! TO.N,Net-(J10-Pad1)*
X151130000Y-112522000D03*
G04 #@! TD*
D13*
G04 #@! TO.P,J11,2*
G04 #@! TO.N,VDD*
X155194000Y-105156000D03*
D14*
G04 #@! TO.P,J11,1*
G04 #@! TO.N,Net-(J11-Pad1)*
X157734000Y-105156000D03*
G04 #@! TD*
D13*
G04 #@! TO.P,J12,2*
G04 #@! TO.N,Net-(J12-Pad2)*
X143764000Y-117602000D03*
D14*
G04 #@! TO.P,J12,1*
G04 #@! TO.N,GND*
X141224000Y-117602000D03*
G04 #@! TD*
D13*
G04 #@! TO.P,J14,3*
G04 #@! TO.N,+5V*
X159004000Y-94615000D03*
G04 #@! TO.P,J14,2*
G04 #@! TO.N,VDD*
X161544000Y-94615000D03*
D14*
G04 #@! TO.P,J14,1*
G04 #@! TO.N,+3V3*
X164084000Y-94615000D03*
G04 #@! TD*
D13*
G04 #@! TO.P,J15,3*
G04 #@! TO.N,GND*
X159004000Y-90678000D03*
G04 #@! TO.P,J15,2*
G04 #@! TO.N,+5V*
X161544000Y-90678000D03*
D14*
G04 #@! TO.P,J15,1*
G04 #@! TO.N,+3V3*
X164084000Y-90678000D03*
G04 #@! TD*
D13*
G04 #@! TO.P,J16,8*
G04 #@! TO.N,/BCM26*
X99822000Y-90678000D03*
G04 #@! TO.P,J16,7*
G04 #@! TO.N,/BCM21*
X102362000Y-90678000D03*
G04 #@! TO.P,J16,6*
G04 #@! TO.N,/BCM20*
X104902000Y-90678000D03*
G04 #@! TO.P,J16,5*
G04 #@! TO.N,/BCM19*
X107442000Y-90678000D03*
G04 #@! TO.P,J16,4*
G04 #@! TO.N,/BCM6*
X109982000Y-90678000D03*
G04 #@! TO.P,J16,3*
G04 #@! TO.N,/BCM5*
X112522000Y-90678000D03*
G04 #@! TO.P,J16,2*
G04 #@! TO.N,/BCM1*
X115062000Y-90678000D03*
D14*
G04 #@! TO.P,J16,1*
G04 #@! TO.N,/BCM0*
X117602000Y-90678000D03*
G04 #@! TD*
D13*
G04 #@! TO.P,J17,3*
G04 #@! TO.N,GND*
X155194000Y-90678000D03*
G04 #@! TO.P,J17,2*
G04 #@! TO.N,/BCM2_SDA*
X152654000Y-90678000D03*
D14*
G04 #@! TO.P,J17,1*
G04 #@! TO.N,/BCM3_SCL*
X150114000Y-90678000D03*
G04 #@! TD*
D18*
G04 #@! TO.P,FID1,*
G04 #@! TO.N,*
X102500000Y-93472000D03*
G04 #@! TD*
G04 #@! TO.P,FID2,*
G04 #@! TO.N,*
X102500000Y-114400000D03*
G04 #@! TD*
G04 #@! TO.P,FID3,*
G04 #@! TO.N,*
X167640000Y-114400000D03*
G04 #@! TD*
D19*
G04 #@! TO.N,GND*
X165354000Y-106426000D03*
X151130000Y-106807000D03*
X154432000Y-111252000D03*
X116078000Y-112014000D03*
X145028488Y-114594081D03*
X121920000Y-112014000D03*
X124968000Y-111252000D03*
G04 #@! TO.N,+3V3*
X152951099Y-93090979D03*
X151130004Y-94869000D03*
X139827000Y-99822000D03*
X139191992Y-104139992D03*
D20*
G04 #@! TO.N,/BCM4_TDI*
X156718000Y-84328000D03*
G04 #@! TO.N,/MOSI*
X137668000Y-103262854D03*
G04 #@! TO.N,/SCLK*
X134747000Y-102616000D03*
D19*
G04 #@! TO.N,VDD*
X155321000Y-101600000D03*
X161290000Y-98425000D03*
X161593836Y-96138966D03*
D20*
G04 #@! TO.N,/BCM18_PWM0*
X122921861Y-87390139D03*
G04 #@! TO.N,/BCM16_CTS*
X125857000Y-81661000D03*
X146304000Y-86995000D03*
G04 #@! TD*
D21*
G04 #@! TO.N,Net-(BZ1-Pad1)*
X118872000Y-100330000D02*
X118491000Y-100330000D01*
X111205000Y-107616000D02*
X106060817Y-107616000D01*
X106060817Y-107616000D02*
X105283000Y-107616000D01*
X118491000Y-100330000D02*
X111205000Y-107616000D01*
G04 #@! TO.N,Net-(BZ1-Pad2)*
X105363000Y-97028000D02*
X105283000Y-97108000D01*
X107997000Y-100330000D02*
X105283000Y-97616000D01*
X116332000Y-100330000D02*
X107997000Y-100330000D01*
D22*
G04 #@! TO.N,GND*
X158298600Y-109982000D02*
X155232000Y-109982000D01*
X158877000Y-109403600D02*
X158298600Y-109982000D01*
X155232000Y-109982000D02*
X154432000Y-109982000D01*
X158877000Y-108044000D02*
X158877000Y-109403600D01*
X165227000Y-108044000D02*
X165227000Y-106553000D01*
X165227000Y-106553000D02*
X165354000Y-106426000D01*
X150005000Y-103378000D02*
X150005000Y-105664000D01*
X150005000Y-105664000D02*
X150005000Y-105682000D01*
X150005000Y-105682000D02*
X151130000Y-106807000D01*
X154432000Y-109982000D02*
X154432000Y-111252000D01*
X115307000Y-110490000D02*
X115307000Y-111243000D01*
X115307000Y-111243000D02*
X116078000Y-112014000D01*
X146091761Y-114594081D02*
X145028488Y-114594081D01*
X146685000Y-113190000D02*
X146685000Y-114000842D01*
X146685000Y-114000842D02*
X146091761Y-114594081D01*
X121158000Y-110490000D02*
X121158000Y-111252000D01*
X121158000Y-111252000D02*
X121920000Y-112014000D01*
X126991000Y-110490000D02*
X125730000Y-110490000D01*
X125730000Y-110490000D02*
X124968000Y-111252000D01*
X141224000Y-117602000D02*
X138753000Y-117602000D01*
X138753000Y-117602000D02*
X137900000Y-118455000D01*
X104198000Y-118364000D02*
X104162000Y-118328000D01*
X137900000Y-118455000D02*
X137809000Y-118364000D01*
X137900000Y-118455000D02*
X104670000Y-118455000D01*
D21*
G04 #@! TO.N,Net-(D1-Pad2)*
X117348000Y-110481000D02*
X117357000Y-110490000D01*
X117348000Y-108458000D02*
X117348000Y-110481000D01*
G04 #@! TO.N,Net-(D2-Pad2)*
X123208000Y-108458000D02*
X123208000Y-110490000D01*
G04 #@! TO.N,Net-(D3-Pad2)*
X129041000Y-108458000D02*
X129041000Y-110490000D01*
D22*
G04 #@! TO.N,+3V3*
X133183999Y-82208001D02*
X132334000Y-83058000D01*
X133742801Y-81649199D02*
X133183999Y-82208001D01*
X151245199Y-81649199D02*
X133742801Y-81649199D01*
X152654000Y-83058000D02*
X151245199Y-81649199D01*
X161535000Y-83058000D02*
X163567000Y-85090000D01*
X152654000Y-83058000D02*
X161535000Y-83058000D01*
X164190372Y-86147972D02*
X166942400Y-88900000D01*
X166942400Y-88900000D02*
X168910000Y-88900000D01*
X163567000Y-85090000D02*
X164190372Y-85713372D01*
X164190372Y-85713372D02*
X164190372Y-86147972D01*
X156639989Y-85584389D02*
X160449989Y-85584389D01*
X154113600Y-83058000D02*
X156639989Y-85584389D01*
X164084000Y-89218400D02*
X164084000Y-90678000D01*
X160449989Y-85584389D02*
X164084000Y-89218400D01*
X152654000Y-83058000D02*
X154113600Y-83058000D01*
X136398000Y-107064855D02*
X136398000Y-111760000D01*
X137422106Y-105676855D02*
X137414000Y-105668749D01*
X136398000Y-106426000D02*
X136398000Y-106934000D01*
X137147145Y-105676855D02*
X136398000Y-106426000D01*
X137422106Y-105676855D02*
X137147145Y-105676855D01*
X164084000Y-90678000D02*
X164084000Y-94615000D01*
X153489949Y-93091014D02*
X153489914Y-93090979D01*
X164084000Y-90678000D02*
X164084000Y-92137600D01*
X163130586Y-93091014D02*
X153489949Y-93091014D01*
X164084000Y-92137600D02*
X163130586Y-93091014D01*
X153489914Y-93090979D02*
X152951099Y-93090979D01*
X142748000Y-96774000D02*
X139827000Y-99695000D01*
X139827000Y-99695000D02*
X139827000Y-99822000D01*
X151130004Y-94869000D02*
X149225004Y-96774000D01*
X149225004Y-96774000D02*
X142748000Y-96774000D01*
X137422106Y-105676855D02*
X137655129Y-105676855D01*
X138810993Y-104520991D02*
X139191992Y-104139992D01*
X137655129Y-105676855D02*
X138810993Y-104520991D01*
G04 #@! TO.N,+5V*
X150114000Y-85598000D02*
X152654000Y-85598000D01*
X160694001Y-89828001D02*
X161544000Y-90678000D01*
X157313999Y-86447999D02*
X160694001Y-89828001D01*
X153503999Y-86447999D02*
X157313999Y-86447999D01*
X152654000Y-85598000D02*
X153503999Y-86447999D01*
D21*
G04 #@! TO.N,/BCM2_SDA*
X151804001Y-89828001D02*
X152654000Y-90678000D01*
X148908399Y-86932399D02*
X151804001Y-89828001D01*
X148908399Y-84263601D02*
X148908399Y-86932399D01*
X150114000Y-83058000D02*
X148908399Y-84263601D01*
G04 #@! TO.N,/BCM3_SCL*
X150114000Y-89922290D02*
X150114000Y-90678000D01*
X146304000Y-86112290D02*
X150114000Y-89922290D01*
X147574000Y-83058000D02*
X146304000Y-84328000D01*
X146304000Y-84328000D02*
X146304000Y-86112290D01*
G04 #@! TO.N,/BCM4_TDI*
X166370000Y-91440000D02*
X168910000Y-93980000D01*
X166370000Y-90170000D02*
X166370000Y-91440000D01*
X156718000Y-84328000D02*
X160528000Y-84328000D01*
X160528000Y-84328000D02*
X166370000Y-90170000D01*
G04 #@! TO.N,/BCM14_TX*
X145034000Y-89408000D02*
X143764000Y-90678000D01*
X145034000Y-85598000D02*
X145034000Y-89408000D01*
G04 #@! TO.N,/BCM15_RX*
X141224000Y-86868000D02*
X141224000Y-90678000D01*
X142494000Y-85598000D02*
X141224000Y-86868000D01*
G04 #@! TO.N,/BCM27_TMS*
X167707919Y-96520000D02*
X168910000Y-96520000D01*
X134989199Y-89800801D02*
X134989199Y-91555199D01*
X155566382Y-96875576D02*
X167352343Y-96875576D01*
X136028801Y-88761199D02*
X134989199Y-89800801D01*
X136028801Y-84443199D02*
X136028801Y-88761199D01*
X134989199Y-91555199D02*
X136245589Y-92811589D01*
X151502395Y-92811589D02*
X155566382Y-96875576D01*
X137414000Y-83058000D02*
X136028801Y-84443199D01*
X136245589Y-92811589D02*
X151502395Y-92811589D01*
X167352343Y-96875576D02*
X167707919Y-96520000D01*
G04 #@! TO.N,/BCM22_TRST*
X170188848Y-90161152D02*
X168910000Y-91440000D01*
X171973138Y-90161152D02*
X170188848Y-90161152D01*
X172720000Y-89414290D02*
X171973138Y-90161152D01*
X169380789Y-86830789D02*
X171165079Y-86830789D01*
X163538792Y-80988792D02*
X169380789Y-86830789D01*
X133668399Y-84263601D02*
X131755311Y-84263601D01*
X134874000Y-83058000D02*
X133668399Y-84263601D01*
X131755311Y-84263601D02*
X131128399Y-83636689D01*
X131128399Y-83636689D02*
X131128399Y-82231601D01*
X171165079Y-86830789D02*
X172720000Y-88385710D01*
X131128399Y-82231601D02*
X132371208Y-80988792D01*
X172720000Y-88385710D02*
X172720000Y-89414290D01*
X132371208Y-80988792D02*
X163538792Y-80988792D01*
G04 #@! TO.N,/BCM24_TDO*
X132943590Y-93827590D02*
X151231590Y-93827590D01*
X132334000Y-85598000D02*
X131484001Y-86447999D01*
X131484001Y-92368001D02*
X132943590Y-93827590D01*
X168060001Y-103290001D02*
X168910000Y-104140000D01*
X162458398Y-97688398D02*
X168060001Y-103290001D01*
X131484001Y-86447999D02*
X131484001Y-92368001D01*
X151231590Y-93827590D02*
X155092398Y-97688398D01*
X155092398Y-97688398D02*
X162458398Y-97688398D01*
G04 #@! TO.N,/BCM10_MOSI*
X134620000Y-95250000D02*
X137160000Y-97790000D01*
X133604000Y-94234000D02*
X134620000Y-95250000D01*
X130999601Y-93153601D02*
X132080000Y-94234000D01*
X129794000Y-83058000D02*
X130999601Y-84263601D01*
X132080000Y-94234000D02*
X133604000Y-94234000D01*
X130999601Y-84263601D02*
X130999601Y-93153601D01*
G04 #@! TO.N,/BCM9_MISO*
X133770001Y-96940001D02*
X134620000Y-97790000D01*
X128408801Y-84212801D02*
X128408801Y-87768801D01*
X127254000Y-83058000D02*
X128408801Y-84212801D01*
X128408801Y-87768801D02*
X130048000Y-89408000D01*
X130048000Y-89408000D02*
X130048000Y-92776751D01*
X133770001Y-96498752D02*
X133770001Y-96940001D01*
X130048000Y-92776751D02*
X133770001Y-96498752D01*
G04 #@! TO.N,/BCM25_TCK*
X169672000Y-97790000D02*
X169251999Y-98210001D01*
X173228000Y-88318959D02*
X173228000Y-97028000D01*
X171456290Y-97790000D02*
X169672000Y-97790000D01*
X171333419Y-86424378D02*
X173228000Y-88318959D01*
X171520689Y-97725601D02*
X171456290Y-97790000D01*
X169671997Y-86424378D02*
X171333419Y-86424378D01*
X172530399Y-97725601D02*
X171520689Y-97725601D01*
X163830000Y-80582381D02*
X169671997Y-86424378D01*
X129239695Y-81903199D02*
X130560513Y-80582381D01*
X169251999Y-98210001D02*
X168402000Y-99060000D01*
X173228000Y-97028000D02*
X172530399Y-97725601D01*
X127254000Y-85598000D02*
X126099199Y-84443199D01*
X126099199Y-82503695D02*
X126699695Y-81903199D01*
X126699695Y-81903199D02*
X129239695Y-81903199D01*
X126099199Y-84443199D02*
X126099199Y-82503695D01*
X130560513Y-80582381D02*
X163830000Y-80582381D01*
G04 #@! TO.N,/BCM11_SCLK*
X132080000Y-95758000D02*
X132080000Y-97790000D01*
X129286000Y-92964000D02*
X132080000Y-95758000D01*
X125563999Y-83907999D02*
X125563999Y-84738893D01*
X124714000Y-83058000D02*
X125563999Y-83907999D01*
X129286000Y-89408000D02*
X129286000Y-92964000D01*
X125563999Y-84738893D02*
X126099199Y-85274093D01*
X126099199Y-85274093D02*
X126099199Y-86221199D01*
X126099199Y-86221199D02*
X129286000Y-89408000D01*
G04 #@! TO.N,/BCM8_CE0*
X128778000Y-97028000D02*
X129540000Y-97790000D01*
X124714000Y-85598000D02*
X128778000Y-89662000D01*
X128778000Y-89662000D02*
X128778000Y-97028000D01*
G04 #@! TO.N,/BCM7_CE1*
X127000000Y-96587919D02*
X127000000Y-97790000D01*
X122174000Y-85598000D02*
X127000000Y-90424000D01*
X127000000Y-90424000D02*
X127000000Y-96587919D01*
G04 #@! TO.N,/BCM0*
X117602000Y-90678000D02*
X117602000Y-91440000D01*
X117602000Y-89624800D02*
X117602000Y-90678000D01*
X120788801Y-86437999D02*
X117602000Y-89624800D01*
X120788801Y-84212801D02*
X120788801Y-86437999D01*
X119634000Y-83058000D02*
X120788801Y-84212801D01*
G04 #@! TO.N,/BCM1*
X115062000Y-90170000D02*
X115062000Y-91440000D01*
X115062000Y-90170000D02*
X115062000Y-90678000D01*
X119634000Y-85598000D02*
X115062000Y-90170000D01*
G04 #@! TO.N,/BCM5*
X112522000Y-90678000D02*
X112522000Y-91440000D01*
X113371999Y-89828001D02*
X112522000Y-90678000D01*
X115708801Y-84443199D02*
X115708801Y-87491199D01*
X115708801Y-87491199D02*
X113371999Y-89828001D01*
X117094000Y-83058000D02*
X115708801Y-84443199D01*
G04 #@! TO.N,/BCM6*
X109982000Y-89414290D02*
X109982000Y-90678000D01*
X113219601Y-86176689D02*
X109982000Y-89414290D01*
X114554000Y-83058000D02*
X113219601Y-84392399D01*
X113219601Y-84392399D02*
X113219601Y-86176689D01*
G04 #@! TO.N,/BCM19*
X107442000Y-89916000D02*
X107442000Y-90678000D01*
X108319199Y-89038801D02*
X107442000Y-89916000D01*
X109474000Y-83058000D02*
X108319199Y-84212801D01*
X108319199Y-84212801D02*
X108319199Y-89038801D01*
G04 #@! TO.N,/BCM26*
X99822000Y-87630000D02*
X99822000Y-90678000D01*
X103124000Y-84328000D02*
X99822000Y-87630000D01*
X104908290Y-84328000D02*
X103124000Y-84328000D01*
X106934000Y-83058000D02*
X106178290Y-83058000D01*
X106178290Y-83058000D02*
X104908290Y-84328000D01*
G04 #@! TO.N,/BCM20*
X104902000Y-87630000D02*
X104902000Y-90678000D01*
X106934000Y-85598000D02*
X104902000Y-87630000D01*
G04 #@! TO.N,/BCM21*
X102362000Y-87630000D02*
X102362000Y-90678000D01*
X104394000Y-85598000D02*
X102362000Y-87630000D01*
G04 #@! TO.N,/L3*
X116332000Y-107424000D02*
X115298000Y-108458000D01*
X116332000Y-105410000D02*
X116332000Y-107424000D01*
G04 #@! TO.N,/L2*
X121158000Y-107696000D02*
X121158000Y-108458000D01*
X118872000Y-105410000D02*
X121158000Y-107696000D01*
G04 #@! TO.N,/L1*
X126367628Y-107834628D02*
X126991000Y-108458000D01*
X125097801Y-106564801D02*
X126367628Y-107834628D01*
X122566801Y-106564801D02*
X125097801Y-106564801D01*
X121412000Y-105410000D02*
X122566801Y-106564801D01*
G04 #@! TO.N,/SW3*
X104289000Y-113955000D02*
X104162000Y-113828000D01*
X113770000Y-113955000D02*
X104670000Y-113955000D01*
X123952000Y-105410000D02*
X122797199Y-104255199D01*
X113770000Y-105723358D02*
X113770000Y-113955000D01*
X115238159Y-104255199D02*
X113770000Y-105723358D01*
X122797199Y-104255199D02*
X115238159Y-104255199D01*
X127046305Y-104255199D02*
X127877199Y-105086093D01*
X133742628Y-108850628D02*
X134366000Y-109474000D01*
X127877199Y-106033199D02*
X129297190Y-107453190D01*
X127877199Y-105086093D02*
X127877199Y-106033199D01*
X125106801Y-104255199D02*
X127046305Y-104255199D01*
X123952000Y-105410000D02*
X125106801Y-104255199D01*
X129297190Y-107453190D02*
X132345190Y-107453190D01*
X132345190Y-107453190D02*
X133742628Y-108850628D01*
G04 #@! TO.N,/SW2*
X125835000Y-113955000D02*
X116735000Y-113955000D01*
X125835000Y-113797000D02*
X125835000Y-113955000D01*
X128016000Y-106934000D02*
X128016000Y-111616000D01*
X126492000Y-105410000D02*
X128016000Y-106934000D01*
X128016000Y-111616000D02*
X125835000Y-113797000D01*
X133350000Y-112522000D02*
X134366000Y-111506000D01*
X128778000Y-112522000D02*
X133350000Y-112522000D01*
X128016000Y-111616000D02*
X128016000Y-111760000D01*
X128016000Y-111760000D02*
X128778000Y-112522000D01*
G04 #@! TO.N,/SW1*
X135476390Y-112935610D02*
X135476390Y-112911590D01*
X134584000Y-113828000D02*
X135476390Y-112935610D01*
X128927000Y-113828000D02*
X134584000Y-113828000D01*
X128800000Y-113955000D02*
X128927000Y-113828000D01*
X135476390Y-112911590D02*
X136519800Y-113955000D01*
X136519800Y-113955000D02*
X137900000Y-113955000D01*
X134357000Y-107442000D02*
X135032000Y-107442000D01*
X135032000Y-107442000D02*
X135476390Y-107886390D01*
X135476390Y-107886390D02*
X135476390Y-112911590D01*
X132325000Y-105410000D02*
X134357000Y-107442000D01*
X129032000Y-105410000D02*
X132325000Y-105410000D01*
G04 #@! TO.N,/CE_DAC*
X138409363Y-102590576D02*
X139882250Y-102590576D01*
X146685000Y-106811800D02*
X146685000Y-107790000D01*
X146685000Y-105156000D02*
X146685000Y-106811800D01*
X128727199Y-102057199D02*
X135015225Y-102057199D01*
X127000000Y-100330000D02*
X128727199Y-102057199D01*
X144145000Y-102616000D02*
X146685000Y-105156000D01*
X139882250Y-102590576D02*
X139907674Y-102616000D01*
X135255649Y-102297623D02*
X138116410Y-102297623D01*
X139907674Y-102616000D02*
X144145000Y-102616000D01*
X138116410Y-102297623D02*
X138409363Y-102590576D01*
X135015225Y-102057199D02*
X135255649Y-102297623D01*
G04 #@! TO.N,/CE_ADC*
X163957000Y-107090800D02*
X163957000Y-108044000D01*
X163291801Y-107090800D02*
X163957000Y-107090800D01*
X163291801Y-107050159D02*
X163291801Y-107090800D01*
X163230841Y-106989199D02*
X163291801Y-107050159D01*
X163093410Y-106989199D02*
X163230841Y-106989199D01*
X163093410Y-106384660D02*
X163093410Y-106989199D01*
X159070750Y-102362000D02*
X163093410Y-106384660D01*
X130708409Y-99161591D02*
X137769591Y-99161591D01*
X129540000Y-100330000D02*
X130708409Y-99161591D01*
X139319000Y-100711000D02*
X152019000Y-100711000D01*
X137769591Y-99161591D02*
X139319000Y-100711000D01*
X152019000Y-100711000D02*
X153670000Y-102362000D01*
X153670000Y-102362000D02*
X159070750Y-102362000D01*
G04 #@! TO.N,/MISO*
X161417000Y-106015608D02*
X161417000Y-107090800D01*
X153374660Y-103276411D02*
X158677803Y-103276411D01*
X138695288Y-101727000D02*
X151825249Y-101727000D01*
X161417000Y-107090800D02*
X161417000Y-108044000D01*
X158677803Y-103276411D02*
X161417000Y-106015608D01*
X151825249Y-101727000D02*
X153374660Y-103276411D01*
X135774801Y-101484801D02*
X138453089Y-101484801D01*
X138453089Y-101484801D02*
X138695288Y-101727000D01*
X134620000Y-100330000D02*
X135774801Y-101484801D01*
G04 #@! TO.N,/MOSI*
X162687000Y-107090800D02*
X162687000Y-108044000D01*
X162687000Y-106553000D02*
X162687000Y-107090800D01*
X159004000Y-102870000D02*
X162687000Y-106553000D01*
X153543000Y-102870000D02*
X159004000Y-102870000D01*
X151892000Y-101219000D02*
X153543000Y-102870000D01*
X137160000Y-99568000D02*
X138811000Y-101219000D01*
X138811000Y-101219000D02*
X151892000Y-101219000D01*
X143641800Y-106811800D02*
X142953972Y-106811800D01*
X137808538Y-103403392D02*
X137668000Y-103262854D01*
X144145000Y-107315000D02*
X143641800Y-106811800D01*
X142953972Y-106811800D02*
X139545564Y-103403392D01*
X144145000Y-107790000D02*
X144145000Y-107315000D01*
X139545564Y-103403392D02*
X137808538Y-103403392D01*
G04 #@! TO.N,/SCLK*
X139815512Y-103098589D02*
X139713910Y-102996987D01*
X134835034Y-102704034D02*
X134747000Y-102616000D01*
X139713910Y-102996987D02*
X138241002Y-102996987D01*
X145415000Y-107790000D02*
X145415000Y-107315000D01*
X158509463Y-103682822D02*
X160147000Y-105320359D01*
X140050590Y-102184165D02*
X140076014Y-102209589D01*
X132080000Y-100330000D02*
X133400788Y-101650788D01*
X138577702Y-102184165D02*
X140050590Y-102184165D01*
X138241002Y-102996987D02*
X137948049Y-102704034D01*
X133400788Y-101650788D02*
X135183565Y-101650788D01*
X151733087Y-102209589D02*
X153206320Y-103682822D01*
X138284750Y-101891212D02*
X138577702Y-102184165D01*
X135183565Y-101650788D02*
X135423989Y-101891212D01*
X141198589Y-103098589D02*
X139815512Y-103098589D01*
X140076014Y-102209589D02*
X151733087Y-102209589D01*
X153206320Y-103682822D02*
X158509463Y-103682822D01*
X145415000Y-107315000D02*
X141198589Y-103098589D01*
X160147000Y-105320359D02*
X160147000Y-107090800D01*
X160147000Y-107090800D02*
X160147000Y-108044000D01*
X137948049Y-102704034D02*
X134835034Y-102704034D01*
X135423989Y-101891212D02*
X138284750Y-101891212D01*
G04 #@! TO.N,Net-(J8-Pad1)*
X156387800Y-113113800D02*
X156387800Y-114067000D01*
X148658894Y-117602000D02*
X147828000Y-117602000D01*
X152816894Y-113444000D02*
X148658894Y-117602000D01*
X156337000Y-113444000D02*
X152816894Y-113444000D01*
G04 #@! TO.N,Net-(J8-Pad2)*
X157657800Y-113113800D02*
X157657800Y-114067000D01*
X157607000Y-114397200D02*
X157196200Y-114808000D01*
X157607000Y-113444000D02*
X157607000Y-114397200D01*
X153162000Y-114808000D02*
X150368000Y-117602000D01*
X157196200Y-114808000D02*
X153162000Y-114808000D01*
G04 #@! TO.N,Net-(J8-Pad3)*
X158927800Y-113113800D02*
X158927800Y-113741200D01*
X158877000Y-113701950D02*
X157262950Y-115316000D01*
X158877000Y-113444000D02*
X158877000Y-113701950D01*
X155194000Y-115316000D02*
X152908000Y-117602000D01*
X157262950Y-115316000D02*
X155194000Y-115316000D01*
G04 #@! TO.N,Net-(J8-Pad4)*
X160197800Y-113113800D02*
X160197800Y-113563800D01*
X160147000Y-114397200D02*
X158821790Y-115722410D01*
X160147000Y-113444000D02*
X160147000Y-114397200D01*
X157327590Y-115722410D02*
X155448000Y-117602000D01*
X158821790Y-115722410D02*
X157327590Y-115722410D01*
G04 #@! TO.N,Net-(J8-Pad5)*
X161467800Y-113113800D02*
X161467800Y-114067000D01*
X158837999Y-116752001D02*
X157988000Y-117602000D01*
X161417000Y-114173000D02*
X158837999Y-116752001D01*
X161417000Y-113444000D02*
X161417000Y-114173000D01*
G04 #@! TO.N,Net-(J8-Pad6)*
X162687000Y-113894000D02*
X161544000Y-115037000D01*
X162687000Y-113444000D02*
X162687000Y-113894000D01*
X161544000Y-116586000D02*
X160528000Y-117602000D01*
X161544000Y-115037000D02*
X161544000Y-116586000D01*
G04 #@! TO.N,Net-(J8-Pad7)*
X163957000Y-116713000D02*
X163068000Y-117602000D01*
X163957000Y-113444000D02*
X163957000Y-116713000D01*
G04 #@! TO.N,Net-(J8-Pad8)*
X165227000Y-117221000D02*
X165608000Y-117602000D01*
X165227000Y-113444000D02*
X165227000Y-117221000D01*
D22*
G04 #@! TO.N,VDD*
X156225000Y-107551000D02*
X156387800Y-107713800D01*
X155194000Y-106901000D02*
X156337000Y-108044000D01*
X155194000Y-105156000D02*
X155194000Y-106901000D01*
X155194000Y-107170000D02*
X154432000Y-107932000D01*
X155194000Y-105156000D02*
X155194000Y-107170000D01*
X156225000Y-107932000D02*
X156337000Y-108044000D01*
X154432000Y-107932000D02*
X156225000Y-107932000D01*
X154432000Y-107932000D02*
X154958000Y-107932000D01*
X154958000Y-107932000D02*
X155194000Y-107696000D01*
X148938000Y-107790000D02*
X151130000Y-109982000D01*
X147955000Y-107790000D02*
X148938000Y-107790000D01*
X152382000Y-109982000D02*
X154432000Y-107932000D01*
X151130000Y-109982000D02*
X152382000Y-109982000D01*
X147955000Y-107790000D02*
X147955000Y-103378000D01*
X160751185Y-98425000D02*
X161290000Y-98425000D01*
X158496000Y-98425000D02*
X160751185Y-98425000D01*
X161544000Y-94615000D02*
X161544000Y-96089130D01*
X161544000Y-96089130D02*
X161593836Y-96138966D01*
X155321000Y-101600000D02*
X158496000Y-98425000D01*
D21*
G04 #@! TO.N,Net-(J9-Pad2)*
X143162000Y-113190000D02*
X144145000Y-113190000D01*
X140970000Y-110998000D02*
X143162000Y-113190000D01*
G04 #@! TO.N,Net-(J11-Pad1)*
X157734000Y-107917000D02*
X157607000Y-108044000D01*
X157734000Y-105156000D02*
X157734000Y-107917000D01*
G04 #@! TO.N,Net-(J10-Pad1)*
X145567401Y-112059399D02*
X149614199Y-112059399D01*
X150076800Y-112522000D02*
X151130000Y-112522000D01*
X149614199Y-112059399D02*
X150076800Y-112522000D01*
X145415000Y-112211800D02*
X145567401Y-112059399D01*
X145415000Y-113190000D02*
X145415000Y-112211800D01*
G04 #@! TO.N,Net-(J12-Pad2)*
X147955000Y-113665000D02*
X144867999Y-116752001D01*
X144613999Y-116752001D02*
X143764000Y-117602000D01*
X144867999Y-116752001D02*
X144613999Y-116752001D01*
X147955000Y-113190000D02*
X147955000Y-113665000D01*
G04 #@! TO.N,/BCM18_PWM0*
X121412000Y-97790000D02*
X121412000Y-88900000D01*
X122667862Y-87644138D02*
X122921861Y-87390139D01*
X121412000Y-88900000D02*
X122667862Y-87644138D01*
G04 #@! TO.N,/BCM12_PWM0*
X115062000Y-93980000D02*
X118872000Y-97790000D01*
X113352894Y-93980000D02*
X115062000Y-93980000D01*
X114554000Y-85598000D02*
X111367199Y-88784801D01*
X111367199Y-91994305D02*
X113352894Y-93980000D01*
X111367199Y-88784801D02*
X111367199Y-91994305D01*
G04 #@! TO.N,/BCM13_PWM1*
X115482001Y-96940001D02*
X116332000Y-97790000D01*
X114808000Y-96266000D02*
X115482001Y-96940001D01*
X110628801Y-84443199D02*
X110628801Y-87491199D01*
X112014000Y-83058000D02*
X110628801Y-84443199D01*
X108827199Y-89292801D02*
X108827199Y-92698199D01*
X108827199Y-92698199D02*
X112395000Y-96266000D01*
X110628801Y-87491199D02*
X108827199Y-89292801D01*
X112395000Y-96266000D02*
X114808000Y-96266000D01*
G04 #@! TO.N,/BCM23_RTCK*
X133096000Y-93218000D02*
X136652000Y-93218000D01*
X164591987Y-97281987D02*
X168060001Y-100750001D01*
X134874000Y-85598000D02*
X132334000Y-88138000D01*
X132334000Y-88138000D02*
X132334000Y-92456000D01*
X151461056Y-93345000D02*
X155398043Y-97281987D01*
X132334000Y-92456000D02*
X133096000Y-93218000D01*
X136652000Y-93218000D02*
X136779000Y-93345000D01*
X136779000Y-93345000D02*
X151461056Y-93345000D01*
X155398043Y-97281987D02*
X164591987Y-97281987D01*
X168060001Y-100750001D02*
X168910000Y-101600000D01*
D22*
G04 #@! TO.N,Net-(J5-Pad2)*
X170600001Y-88050001D02*
X171450000Y-88900000D01*
X170041199Y-87491199D02*
X170600001Y-88050001D01*
X168018199Y-87491199D02*
X170041199Y-87491199D01*
X165617000Y-85090000D02*
X168018199Y-87491199D01*
D21*
G04 #@! TO.N,/BCM17_RTS*
X138619601Y-88456399D02*
X136398000Y-90678000D01*
X139954000Y-83058000D02*
X138619601Y-84392399D01*
X136398000Y-90678000D02*
X136144000Y-90678000D01*
X138619601Y-84392399D02*
X138619601Y-88456399D01*
D23*
G04 #@! TO.N,/BCM16_CTS*
X110884599Y-82282401D02*
X111506000Y-81661000D01*
X109474000Y-85598000D02*
X109474000Y-84729514D01*
X125497790Y-81661000D02*
X125857000Y-81661000D01*
X110884599Y-83318915D02*
X110884599Y-82282401D01*
X111506000Y-81661000D02*
X125497790Y-81661000D01*
X109474000Y-84729514D02*
X110884599Y-83318915D01*
X146304000Y-86995000D02*
X146304000Y-90678000D01*
G04 #@! TD*
M02*
