G04 #@! TF.GenerationSoftware,KiCad,Pcbnew,5.0.2+dfsg1-1*
G04 #@! TF.CreationDate,2020-03-15T11:59:51+01:00*
G04 #@! TF.ProjectId,BEE,4245452e-6b69-4636-9164-5f7063625858,1.0*
G04 #@! TF.SameCoordinates,Original*
G04 #@! TF.FileFunction,Soldermask,Top*
G04 #@! TF.FilePolarity,Negative*
%FSLAX46Y46*%
G04 Gerber Fmt 4.6, Leading zero omitted, Abs format (unit mm)*
G04 Created by KiCad (PCBNEW 5.0.2+dfsg1-1) date Sun 15 Mar 2020 11:59:51 AM CET*
%MOMM*%
%LPD*%
G01*
G04 APERTURE LIST*
%ADD10C,0.100000*%
G04 APERTURE END LIST*
D10*
G36*
X138683300Y-125111300D02*
X136481700Y-125111300D01*
X136481700Y-123609700D01*
X138683300Y-123609700D01*
X138683300Y-125111300D01*
X138683300Y-125111300D01*
G37*
G36*
X129583300Y-125111300D02*
X127381700Y-125111300D01*
X127381700Y-123609700D01*
X129583300Y-123609700D01*
X129583300Y-125111300D01*
X129583300Y-125111300D01*
G37*
G36*
X105326300Y-125111300D02*
X103124700Y-125111300D01*
X103124700Y-123609700D01*
X105326300Y-123609700D01*
X105326300Y-125111300D01*
X105326300Y-125111300D01*
G37*
G36*
X114426300Y-125111300D02*
X112224700Y-125111300D01*
X112224700Y-123609700D01*
X114426300Y-123609700D01*
X114426300Y-125111300D01*
X114426300Y-125111300D01*
G37*
G36*
X126681800Y-125111300D02*
X124480200Y-125111300D01*
X124480200Y-123609700D01*
X126681800Y-123609700D01*
X126681800Y-125111300D01*
X126681800Y-125111300D01*
G37*
G36*
X117581800Y-125111300D02*
X115380200Y-125111300D01*
X115380200Y-123609700D01*
X117581800Y-123609700D01*
X117581800Y-125111300D01*
X117581800Y-125111300D01*
G37*
G36*
X162838188Y-122708634D02*
X163007989Y-122760143D01*
X163164479Y-122843789D01*
X163301643Y-122956357D01*
X163414211Y-123093521D01*
X163497857Y-123250011D01*
X163549366Y-123419812D01*
X163566758Y-123596400D01*
X163549366Y-123772988D01*
X163497857Y-123942789D01*
X163414211Y-124099279D01*
X163301643Y-124236443D01*
X163164479Y-124349011D01*
X163007989Y-124432657D01*
X162838188Y-124484166D01*
X162705849Y-124497200D01*
X162617351Y-124497200D01*
X162485012Y-124484166D01*
X162315211Y-124432657D01*
X162158721Y-124349011D01*
X162021557Y-124236443D01*
X161908989Y-124099279D01*
X161825343Y-123942789D01*
X161773834Y-123772988D01*
X161756442Y-123596400D01*
X161773834Y-123419812D01*
X161825343Y-123250011D01*
X161908989Y-123093521D01*
X162021557Y-122956357D01*
X162158721Y-122843789D01*
X162315211Y-122760143D01*
X162485012Y-122708634D01*
X162617351Y-122695600D01*
X162705849Y-122695600D01*
X162838188Y-122708634D01*
X162838188Y-122708634D01*
G37*
G36*
X160298188Y-122708634D02*
X160467989Y-122760143D01*
X160624479Y-122843789D01*
X160761643Y-122956357D01*
X160874211Y-123093521D01*
X160957857Y-123250011D01*
X161009366Y-123419812D01*
X161026758Y-123596400D01*
X161009366Y-123772988D01*
X160957857Y-123942789D01*
X160874211Y-124099279D01*
X160761643Y-124236443D01*
X160624479Y-124349011D01*
X160467989Y-124432657D01*
X160298188Y-124484166D01*
X160165849Y-124497200D01*
X160077351Y-124497200D01*
X159945012Y-124484166D01*
X159775211Y-124432657D01*
X159618721Y-124349011D01*
X159481557Y-124236443D01*
X159368989Y-124099279D01*
X159285343Y-123942789D01*
X159233834Y-123772988D01*
X159216442Y-123596400D01*
X159233834Y-123419812D01*
X159285343Y-123250011D01*
X159368989Y-123093521D01*
X159481557Y-122956357D01*
X159618721Y-122843789D01*
X159775211Y-122760143D01*
X159945012Y-122708634D01*
X160077351Y-122695600D01*
X160165849Y-122695600D01*
X160298188Y-122708634D01*
X160298188Y-122708634D01*
G37*
G36*
X157758188Y-122708634D02*
X157927989Y-122760143D01*
X158084479Y-122843789D01*
X158221643Y-122956357D01*
X158334211Y-123093521D01*
X158417857Y-123250011D01*
X158469366Y-123419812D01*
X158486758Y-123596400D01*
X158469366Y-123772988D01*
X158417857Y-123942789D01*
X158334211Y-124099279D01*
X158221643Y-124236443D01*
X158084479Y-124349011D01*
X157927989Y-124432657D01*
X157758188Y-124484166D01*
X157625849Y-124497200D01*
X157537351Y-124497200D01*
X157405012Y-124484166D01*
X157235211Y-124432657D01*
X157078721Y-124349011D01*
X156941557Y-124236443D01*
X156828989Y-124099279D01*
X156745343Y-123942789D01*
X156693834Y-123772988D01*
X156676442Y-123596400D01*
X156693834Y-123419812D01*
X156745343Y-123250011D01*
X156828989Y-123093521D01*
X156941557Y-122956357D01*
X157078721Y-122843789D01*
X157235211Y-122760143D01*
X157405012Y-122708634D01*
X157537351Y-122695600D01*
X157625849Y-122695600D01*
X157758188Y-122708634D01*
X157758188Y-122708634D01*
G37*
G36*
X152678188Y-122708634D02*
X152847989Y-122760143D01*
X153004479Y-122843789D01*
X153141643Y-122956357D01*
X153254211Y-123093521D01*
X153337857Y-123250011D01*
X153389366Y-123419812D01*
X153406758Y-123596400D01*
X153389366Y-123772988D01*
X153337857Y-123942789D01*
X153254211Y-124099279D01*
X153141643Y-124236443D01*
X153004479Y-124349011D01*
X152847989Y-124432657D01*
X152678188Y-124484166D01*
X152545849Y-124497200D01*
X152457351Y-124497200D01*
X152325012Y-124484166D01*
X152155211Y-124432657D01*
X151998721Y-124349011D01*
X151861557Y-124236443D01*
X151748989Y-124099279D01*
X151665343Y-123942789D01*
X151613834Y-123772988D01*
X151596442Y-123596400D01*
X151613834Y-123419812D01*
X151665343Y-123250011D01*
X151748989Y-123093521D01*
X151861557Y-122956357D01*
X151998721Y-122843789D01*
X152155211Y-122760143D01*
X152325012Y-122708634D01*
X152457351Y-122695600D01*
X152545849Y-122695600D01*
X152678188Y-122708634D01*
X152678188Y-122708634D01*
G37*
G36*
X150138188Y-122708634D02*
X150307989Y-122760143D01*
X150464479Y-122843789D01*
X150601643Y-122956357D01*
X150714211Y-123093521D01*
X150797857Y-123250011D01*
X150849366Y-123419812D01*
X150866758Y-123596400D01*
X150849366Y-123772988D01*
X150797857Y-123942789D01*
X150714211Y-124099279D01*
X150601643Y-124236443D01*
X150464479Y-124349011D01*
X150307989Y-124432657D01*
X150138188Y-124484166D01*
X150005849Y-124497200D01*
X149917351Y-124497200D01*
X149785012Y-124484166D01*
X149615211Y-124432657D01*
X149458721Y-124349011D01*
X149321557Y-124236443D01*
X149208989Y-124099279D01*
X149125343Y-123942789D01*
X149073834Y-123772988D01*
X149056442Y-123596400D01*
X149073834Y-123419812D01*
X149125343Y-123250011D01*
X149208989Y-123093521D01*
X149321557Y-122956357D01*
X149458721Y-122843789D01*
X149615211Y-122760143D01*
X149785012Y-122708634D01*
X149917351Y-122695600D01*
X150005849Y-122695600D01*
X150138188Y-122708634D01*
X150138188Y-122708634D01*
G37*
G36*
X147598188Y-122708634D02*
X147767989Y-122760143D01*
X147924479Y-122843789D01*
X148061643Y-122956357D01*
X148174211Y-123093521D01*
X148257857Y-123250011D01*
X148309366Y-123419812D01*
X148326758Y-123596400D01*
X148309366Y-123772988D01*
X148257857Y-123942789D01*
X148174211Y-124099279D01*
X148061643Y-124236443D01*
X147924479Y-124349011D01*
X147767989Y-124432657D01*
X147598188Y-124484166D01*
X147465849Y-124497200D01*
X147377351Y-124497200D01*
X147245012Y-124484166D01*
X147075211Y-124432657D01*
X146918721Y-124349011D01*
X146781557Y-124236443D01*
X146668989Y-124099279D01*
X146585343Y-123942789D01*
X146533834Y-123772988D01*
X146516442Y-123596400D01*
X146533834Y-123419812D01*
X146585343Y-123250011D01*
X146668989Y-123093521D01*
X146781557Y-122956357D01*
X146918721Y-122843789D01*
X147075211Y-122760143D01*
X147245012Y-122708634D01*
X147377351Y-122695600D01*
X147465849Y-122695600D01*
X147598188Y-122708634D01*
X147598188Y-122708634D01*
G37*
G36*
X145058188Y-122708634D02*
X145227989Y-122760143D01*
X145384479Y-122843789D01*
X145521643Y-122956357D01*
X145634211Y-123093521D01*
X145717857Y-123250011D01*
X145769366Y-123419812D01*
X145786758Y-123596400D01*
X145769366Y-123772988D01*
X145717857Y-123942789D01*
X145634211Y-124099279D01*
X145521643Y-124236443D01*
X145384479Y-124349011D01*
X145227989Y-124432657D01*
X145058188Y-124484166D01*
X144925849Y-124497200D01*
X144837351Y-124497200D01*
X144705012Y-124484166D01*
X144535211Y-124432657D01*
X144378721Y-124349011D01*
X144241557Y-124236443D01*
X144128989Y-124099279D01*
X144045343Y-123942789D01*
X143993834Y-123772988D01*
X143976442Y-123596400D01*
X143993834Y-123419812D01*
X144045343Y-123250011D01*
X144128989Y-123093521D01*
X144241557Y-122956357D01*
X144378721Y-122843789D01*
X144535211Y-122760143D01*
X144705012Y-122708634D01*
X144837351Y-122695600D01*
X144925849Y-122695600D01*
X145058188Y-122708634D01*
X145058188Y-122708634D01*
G37*
G36*
X155218188Y-122708634D02*
X155387989Y-122760143D01*
X155544479Y-122843789D01*
X155681643Y-122956357D01*
X155794211Y-123093521D01*
X155877857Y-123250011D01*
X155929366Y-123419812D01*
X155946758Y-123596400D01*
X155929366Y-123772988D01*
X155877857Y-123942789D01*
X155794211Y-124099279D01*
X155681643Y-124236443D01*
X155544479Y-124349011D01*
X155387989Y-124432657D01*
X155218188Y-124484166D01*
X155085849Y-124497200D01*
X154997351Y-124497200D01*
X154865012Y-124484166D01*
X154695211Y-124432657D01*
X154538721Y-124349011D01*
X154401557Y-124236443D01*
X154288989Y-124099279D01*
X154205343Y-123942789D01*
X154153834Y-123772988D01*
X154136442Y-123596400D01*
X154153834Y-123419812D01*
X154205343Y-123250011D01*
X154288989Y-123093521D01*
X154401557Y-122956357D01*
X154538721Y-122843789D01*
X154695211Y-122760143D01*
X154865012Y-122708634D01*
X154997351Y-122695600D01*
X155085849Y-122695600D01*
X155218188Y-122708634D01*
X155218188Y-122708634D01*
G37*
G36*
X99976598Y-121493032D02*
X100231528Y-121598627D01*
X100460958Y-121751927D01*
X100656073Y-121947042D01*
X100809373Y-122176472D01*
X100914968Y-122431402D01*
X100968800Y-122702033D01*
X100968800Y-122977967D01*
X100914968Y-123248598D01*
X100809373Y-123503528D01*
X100656073Y-123732958D01*
X100460958Y-123928073D01*
X100231528Y-124081373D01*
X99976598Y-124186968D01*
X99705967Y-124240800D01*
X99430033Y-124240800D01*
X99159402Y-124186968D01*
X98904472Y-124081373D01*
X98675042Y-123928073D01*
X98479927Y-123732958D01*
X98326627Y-123503528D01*
X98221032Y-123248598D01*
X98167200Y-122977967D01*
X98167200Y-122702033D01*
X98221032Y-122431402D01*
X98326627Y-122176472D01*
X98479927Y-121947042D01*
X98675042Y-121751927D01*
X98904472Y-121598627D01*
X99159402Y-121493032D01*
X99430033Y-121439200D01*
X99705967Y-121439200D01*
X99976598Y-121493032D01*
X99976598Y-121493032D01*
G37*
G36*
X171350598Y-121493032D02*
X171605528Y-121598627D01*
X171834958Y-121751927D01*
X172030073Y-121947042D01*
X172183373Y-122176472D01*
X172288968Y-122431402D01*
X172342800Y-122702033D01*
X172342800Y-122977967D01*
X172288968Y-123248598D01*
X172183373Y-123503528D01*
X172030073Y-123732958D01*
X171834958Y-123928073D01*
X171605528Y-124081373D01*
X171350598Y-124186968D01*
X171079967Y-124240800D01*
X170804033Y-124240800D01*
X170533402Y-124186968D01*
X170278472Y-124081373D01*
X170049042Y-123928073D01*
X169853927Y-123732958D01*
X169700627Y-123503528D01*
X169595032Y-123248598D01*
X169541200Y-122977967D01*
X169541200Y-122702033D01*
X169595032Y-122431402D01*
X169700627Y-122176472D01*
X169853927Y-121947042D01*
X170049042Y-121751927D01*
X170278472Y-121598627D01*
X170533402Y-121493032D01*
X170804033Y-121439200D01*
X171079967Y-121439200D01*
X171350598Y-121493032D01*
X171350598Y-121493032D01*
G37*
G36*
X142591524Y-121063120D02*
X142637163Y-121076964D01*
X142679226Y-121099447D01*
X142716095Y-121129705D01*
X142746353Y-121166574D01*
X142768836Y-121208637D01*
X142782680Y-121254276D01*
X142787600Y-121304226D01*
X142787600Y-122063774D01*
X142782680Y-122113724D01*
X142768836Y-122159363D01*
X142746353Y-122201426D01*
X142716095Y-122238295D01*
X142679226Y-122268553D01*
X142637163Y-122291036D01*
X142591524Y-122304880D01*
X142541574Y-122309800D01*
X141532026Y-122309800D01*
X141482076Y-122304880D01*
X141436437Y-122291036D01*
X141394374Y-122268553D01*
X141357505Y-122238295D01*
X141327247Y-122201426D01*
X141304764Y-122159363D01*
X141290920Y-122113724D01*
X141286000Y-122063774D01*
X141286000Y-121304226D01*
X141290920Y-121254276D01*
X141304764Y-121208637D01*
X141327247Y-121166574D01*
X141357505Y-121129705D01*
X141394374Y-121099447D01*
X141436437Y-121076964D01*
X141482076Y-121063120D01*
X141532026Y-121058200D01*
X142541574Y-121058200D01*
X142591524Y-121063120D01*
X142591524Y-121063120D01*
G37*
G36*
X160298188Y-120168634D02*
X160467989Y-120220143D01*
X160624479Y-120303789D01*
X160761643Y-120416357D01*
X160874211Y-120553521D01*
X160957857Y-120710011D01*
X161009366Y-120879812D01*
X161026758Y-121056400D01*
X161009366Y-121232988D01*
X160957857Y-121402789D01*
X160874211Y-121559279D01*
X160761643Y-121696443D01*
X160624479Y-121809011D01*
X160467989Y-121892657D01*
X160298188Y-121944166D01*
X160165849Y-121957200D01*
X160077351Y-121957200D01*
X159945012Y-121944166D01*
X159775211Y-121892657D01*
X159618721Y-121809011D01*
X159481557Y-121696443D01*
X159368989Y-121559279D01*
X159285343Y-121402789D01*
X159233834Y-121232988D01*
X159216442Y-121056400D01*
X159233834Y-120879812D01*
X159285343Y-120710011D01*
X159368989Y-120553521D01*
X159481557Y-120416357D01*
X159618721Y-120303789D01*
X159775211Y-120220143D01*
X159945012Y-120168634D01*
X160077351Y-120155600D01*
X160165849Y-120155600D01*
X160298188Y-120168634D01*
X160298188Y-120168634D01*
G37*
G36*
X147598188Y-120168634D02*
X147767989Y-120220143D01*
X147924479Y-120303789D01*
X148061643Y-120416357D01*
X148174211Y-120553521D01*
X148257857Y-120710011D01*
X148309366Y-120879812D01*
X148326758Y-121056400D01*
X148309366Y-121232988D01*
X148257857Y-121402789D01*
X148174211Y-121559279D01*
X148061643Y-121696443D01*
X147924479Y-121809011D01*
X147767989Y-121892657D01*
X147598188Y-121944166D01*
X147465849Y-121957200D01*
X147377351Y-121957200D01*
X147245012Y-121944166D01*
X147075211Y-121892657D01*
X146918721Y-121809011D01*
X146781557Y-121696443D01*
X146668989Y-121559279D01*
X146585343Y-121402789D01*
X146533834Y-121232988D01*
X146516442Y-121056400D01*
X146533834Y-120879812D01*
X146585343Y-120710011D01*
X146668989Y-120553521D01*
X146781557Y-120416357D01*
X146918721Y-120303789D01*
X147075211Y-120220143D01*
X147245012Y-120168634D01*
X147377351Y-120155600D01*
X147465849Y-120155600D01*
X147598188Y-120168634D01*
X147598188Y-120168634D01*
G37*
G36*
X150138188Y-120168634D02*
X150307989Y-120220143D01*
X150464479Y-120303789D01*
X150601643Y-120416357D01*
X150714211Y-120553521D01*
X150797857Y-120710011D01*
X150849366Y-120879812D01*
X150866758Y-121056400D01*
X150849366Y-121232988D01*
X150797857Y-121402789D01*
X150714211Y-121559279D01*
X150601643Y-121696443D01*
X150464479Y-121809011D01*
X150307989Y-121892657D01*
X150138188Y-121944166D01*
X150005849Y-121957200D01*
X149917351Y-121957200D01*
X149785012Y-121944166D01*
X149615211Y-121892657D01*
X149458721Y-121809011D01*
X149321557Y-121696443D01*
X149208989Y-121559279D01*
X149125343Y-121402789D01*
X149073834Y-121232988D01*
X149056442Y-121056400D01*
X149073834Y-120879812D01*
X149125343Y-120710011D01*
X149208989Y-120553521D01*
X149321557Y-120416357D01*
X149458721Y-120303789D01*
X149615211Y-120220143D01*
X149785012Y-120168634D01*
X149917351Y-120155600D01*
X150005849Y-120155600D01*
X150138188Y-120168634D01*
X150138188Y-120168634D01*
G37*
G36*
X152678188Y-120168634D02*
X152847989Y-120220143D01*
X153004479Y-120303789D01*
X153141643Y-120416357D01*
X153254211Y-120553521D01*
X153337857Y-120710011D01*
X153389366Y-120879812D01*
X153406758Y-121056400D01*
X153389366Y-121232988D01*
X153337857Y-121402789D01*
X153254211Y-121559279D01*
X153141643Y-121696443D01*
X153004479Y-121809011D01*
X152847989Y-121892657D01*
X152678188Y-121944166D01*
X152545849Y-121957200D01*
X152457351Y-121957200D01*
X152325012Y-121944166D01*
X152155211Y-121892657D01*
X151998721Y-121809011D01*
X151861557Y-121696443D01*
X151748989Y-121559279D01*
X151665343Y-121402789D01*
X151613834Y-121232988D01*
X151596442Y-121056400D01*
X151613834Y-120879812D01*
X151665343Y-120710011D01*
X151748989Y-120553521D01*
X151861557Y-120416357D01*
X151998721Y-120303789D01*
X152155211Y-120220143D01*
X152325012Y-120168634D01*
X152457351Y-120155600D01*
X152545849Y-120155600D01*
X152678188Y-120168634D01*
X152678188Y-120168634D01*
G37*
G36*
X155218188Y-120168634D02*
X155387989Y-120220143D01*
X155544479Y-120303789D01*
X155681643Y-120416357D01*
X155794211Y-120553521D01*
X155877857Y-120710011D01*
X155929366Y-120879812D01*
X155946758Y-121056400D01*
X155929366Y-121232988D01*
X155877857Y-121402789D01*
X155794211Y-121559279D01*
X155681643Y-121696443D01*
X155544479Y-121809011D01*
X155387989Y-121892657D01*
X155218188Y-121944166D01*
X155085849Y-121957200D01*
X154997351Y-121957200D01*
X154865012Y-121944166D01*
X154695211Y-121892657D01*
X154538721Y-121809011D01*
X154401557Y-121696443D01*
X154288989Y-121559279D01*
X154205343Y-121402789D01*
X154153834Y-121232988D01*
X154136442Y-121056400D01*
X154153834Y-120879812D01*
X154205343Y-120710011D01*
X154288989Y-120553521D01*
X154401557Y-120416357D01*
X154538721Y-120303789D01*
X154695211Y-120220143D01*
X154865012Y-120168634D01*
X154997351Y-120155600D01*
X155085849Y-120155600D01*
X155218188Y-120168634D01*
X155218188Y-120168634D01*
G37*
G36*
X157758188Y-120168634D02*
X157927989Y-120220143D01*
X158084479Y-120303789D01*
X158221643Y-120416357D01*
X158334211Y-120553521D01*
X158417857Y-120710011D01*
X158469366Y-120879812D01*
X158486758Y-121056400D01*
X158469366Y-121232988D01*
X158417857Y-121402789D01*
X158334211Y-121559279D01*
X158221643Y-121696443D01*
X158084479Y-121809011D01*
X157927989Y-121892657D01*
X157758188Y-121944166D01*
X157625849Y-121957200D01*
X157537351Y-121957200D01*
X157405012Y-121944166D01*
X157235211Y-121892657D01*
X157078721Y-121809011D01*
X156941557Y-121696443D01*
X156828989Y-121559279D01*
X156745343Y-121402789D01*
X156693834Y-121232988D01*
X156676442Y-121056400D01*
X156693834Y-120879812D01*
X156745343Y-120710011D01*
X156828989Y-120553521D01*
X156941557Y-120416357D01*
X157078721Y-120303789D01*
X157235211Y-120220143D01*
X157405012Y-120168634D01*
X157537351Y-120155600D01*
X157625849Y-120155600D01*
X157758188Y-120168634D01*
X157758188Y-120168634D01*
G37*
G36*
X162838188Y-120168634D02*
X163007989Y-120220143D01*
X163164479Y-120303789D01*
X163301643Y-120416357D01*
X163414211Y-120553521D01*
X163497857Y-120710011D01*
X163549366Y-120879812D01*
X163566758Y-121056400D01*
X163549366Y-121232988D01*
X163497857Y-121402789D01*
X163414211Y-121559279D01*
X163301643Y-121696443D01*
X163164479Y-121809011D01*
X163007989Y-121892657D01*
X162838188Y-121944166D01*
X162705849Y-121957200D01*
X162617351Y-121957200D01*
X162485012Y-121944166D01*
X162315211Y-121892657D01*
X162158721Y-121809011D01*
X162021557Y-121696443D01*
X161908989Y-121559279D01*
X161825343Y-121402789D01*
X161773834Y-121232988D01*
X161756442Y-121056400D01*
X161773834Y-120879812D01*
X161825343Y-120710011D01*
X161908989Y-120553521D01*
X162021557Y-120416357D01*
X162158721Y-120303789D01*
X162315211Y-120220143D01*
X162485012Y-120168634D01*
X162617351Y-120155600D01*
X162705849Y-120155600D01*
X162838188Y-120168634D01*
X162838188Y-120168634D01*
G37*
G36*
X145782400Y-121957200D02*
X143980800Y-121957200D01*
X143980800Y-120155600D01*
X145782400Y-120155600D01*
X145782400Y-121957200D01*
X145782400Y-121957200D01*
G37*
G36*
X126681800Y-120611300D02*
X124480200Y-120611300D01*
X124480200Y-119109700D01*
X126681800Y-119109700D01*
X126681800Y-120611300D01*
X126681800Y-120611300D01*
G37*
G36*
X117581800Y-120611300D02*
X115380200Y-120611300D01*
X115380200Y-119109700D01*
X117581800Y-119109700D01*
X117581800Y-120611300D01*
X117581800Y-120611300D01*
G37*
G36*
X129583300Y-120611300D02*
X127381700Y-120611300D01*
X127381700Y-119109700D01*
X129583300Y-119109700D01*
X129583300Y-120611300D01*
X129583300Y-120611300D01*
G37*
G36*
X138683300Y-120611300D02*
X136481700Y-120611300D01*
X136481700Y-119109700D01*
X138683300Y-119109700D01*
X138683300Y-120611300D01*
X138683300Y-120611300D01*
G37*
G36*
X105326300Y-120611300D02*
X103124700Y-120611300D01*
X103124700Y-119109700D01*
X105326300Y-119109700D01*
X105326300Y-120611300D01*
X105326300Y-120611300D01*
G37*
G36*
X114426300Y-120611300D02*
X112224700Y-120611300D01*
X112224700Y-119109700D01*
X114426300Y-119109700D01*
X114426300Y-120611300D01*
X114426300Y-120611300D01*
G37*
G36*
X142591524Y-119013120D02*
X142637163Y-119026964D01*
X142679226Y-119049447D01*
X142716095Y-119079705D01*
X142746353Y-119116574D01*
X142768836Y-119158637D01*
X142782680Y-119204276D01*
X142787600Y-119254226D01*
X142787600Y-120013774D01*
X142782680Y-120063724D01*
X142768836Y-120109363D01*
X142746353Y-120151426D01*
X142716095Y-120188295D01*
X142679226Y-120218553D01*
X142637163Y-120241036D01*
X142591524Y-120254880D01*
X142541574Y-120259800D01*
X141532026Y-120259800D01*
X141482076Y-120254880D01*
X141436437Y-120241036D01*
X141394374Y-120218553D01*
X141357505Y-120188295D01*
X141327247Y-120151426D01*
X141304764Y-120109363D01*
X141290920Y-120063724D01*
X141286000Y-120013774D01*
X141286000Y-119254226D01*
X141290920Y-119204276D01*
X141304764Y-119158637D01*
X141327247Y-119116574D01*
X141357505Y-119079705D01*
X141394374Y-119049447D01*
X141436437Y-119026964D01*
X141482076Y-119013120D01*
X141532026Y-119008200D01*
X142541574Y-119008200D01*
X142591524Y-119013120D01*
X142591524Y-119013120D01*
G37*
G36*
X101145845Y-118519215D02*
X101236842Y-118556907D01*
X101318730Y-118611622D01*
X101388378Y-118681270D01*
X101443093Y-118763158D01*
X101443094Y-118763161D01*
X101480785Y-118854155D01*
X101496570Y-118933508D01*
X101500000Y-118950755D01*
X101500000Y-119049245D01*
X101480785Y-119145845D01*
X101443093Y-119236842D01*
X101388378Y-119318730D01*
X101318730Y-119388378D01*
X101236842Y-119443093D01*
X101145845Y-119480785D01*
X101049246Y-119500000D01*
X100950754Y-119500000D01*
X100854155Y-119480785D01*
X100763158Y-119443093D01*
X100681270Y-119388378D01*
X100611622Y-119318730D01*
X100556907Y-119236842D01*
X100519215Y-119145845D01*
X100500000Y-119049245D01*
X100500000Y-118950755D01*
X100503431Y-118933508D01*
X100519215Y-118854155D01*
X100556906Y-118763161D01*
X100556907Y-118763158D01*
X100611622Y-118681270D01*
X100681270Y-118611622D01*
X100763158Y-118556907D01*
X100854155Y-118519215D01*
X100950754Y-118500000D01*
X101049246Y-118500000D01*
X101145845Y-118519215D01*
X101145845Y-118519215D01*
G37*
G36*
X172785845Y-118519215D02*
X172876842Y-118556907D01*
X172958730Y-118611622D01*
X173028378Y-118681270D01*
X173083093Y-118763158D01*
X173083094Y-118763161D01*
X173120785Y-118854155D01*
X173136570Y-118933508D01*
X173140000Y-118950755D01*
X173140000Y-119049245D01*
X173120785Y-119145845D01*
X173083093Y-119236842D01*
X173028378Y-119318730D01*
X172958730Y-119388378D01*
X172876842Y-119443093D01*
X172785845Y-119480785D01*
X172689246Y-119500000D01*
X172590754Y-119500000D01*
X172494155Y-119480785D01*
X172403158Y-119443093D01*
X172321270Y-119388378D01*
X172251622Y-119318730D01*
X172196907Y-119236842D01*
X172159215Y-119145845D01*
X172140000Y-119049245D01*
X172140000Y-118950755D01*
X172143431Y-118933508D01*
X172159215Y-118854155D01*
X172196906Y-118763161D01*
X172196907Y-118763158D01*
X172251622Y-118681270D01*
X172321270Y-118611622D01*
X172403158Y-118556907D01*
X172494155Y-118519215D01*
X172590754Y-118500000D01*
X172689246Y-118500000D01*
X172785845Y-118519215D01*
X172785845Y-118519215D01*
G37*
G36*
X158196524Y-117516520D02*
X158242163Y-117530364D01*
X158284226Y-117552847D01*
X158321095Y-117583105D01*
X158351353Y-117619974D01*
X158373836Y-117662037D01*
X158387680Y-117707676D01*
X158392600Y-117757626D01*
X158392600Y-118767174D01*
X158387680Y-118817124D01*
X158373836Y-118862763D01*
X158351353Y-118904826D01*
X158321095Y-118941695D01*
X158284226Y-118971953D01*
X158242163Y-118994436D01*
X158196524Y-119008280D01*
X158146574Y-119013200D01*
X157387026Y-119013200D01*
X157337076Y-119008280D01*
X157291437Y-118994436D01*
X157249374Y-118971953D01*
X157212505Y-118941695D01*
X157182247Y-118904826D01*
X157159764Y-118862763D01*
X157145920Y-118817124D01*
X157141000Y-118767174D01*
X157141000Y-117757626D01*
X157145920Y-117707676D01*
X157159764Y-117662037D01*
X157182247Y-117619974D01*
X157212505Y-117583105D01*
X157249374Y-117552847D01*
X157291437Y-117530364D01*
X157337076Y-117516520D01*
X157387026Y-117511600D01*
X158146574Y-117511600D01*
X158196524Y-117516520D01*
X158196524Y-117516520D01*
G37*
G36*
X156436524Y-117516520D02*
X156482163Y-117530364D01*
X156524226Y-117552847D01*
X156561095Y-117583105D01*
X156591353Y-117619974D01*
X156613836Y-117662037D01*
X156627680Y-117707676D01*
X156632600Y-117757626D01*
X156632600Y-118767174D01*
X156627680Y-118817124D01*
X156613836Y-118862763D01*
X156591353Y-118904826D01*
X156561095Y-118941695D01*
X156524226Y-118971953D01*
X156482163Y-118994436D01*
X156436524Y-119008280D01*
X156386574Y-119013200D01*
X155627026Y-119013200D01*
X155577076Y-119008280D01*
X155531437Y-118994436D01*
X155489374Y-118971953D01*
X155452505Y-118941695D01*
X155422247Y-118904826D01*
X155399764Y-118862763D01*
X155385920Y-118817124D01*
X155381000Y-118767174D01*
X155381000Y-117757626D01*
X155385920Y-117707676D01*
X155399764Y-117662037D01*
X155422247Y-117619974D01*
X155452505Y-117583105D01*
X155489374Y-117552847D01*
X155531437Y-117530364D01*
X155577076Y-117516520D01*
X155627026Y-117511600D01*
X156386574Y-117511600D01*
X156436524Y-117516520D01*
X156436524Y-117516520D01*
G37*
G36*
X154386524Y-117516520D02*
X154432163Y-117530364D01*
X154474226Y-117552847D01*
X154511095Y-117583105D01*
X154541353Y-117619974D01*
X154563836Y-117662037D01*
X154577680Y-117707676D01*
X154582600Y-117757626D01*
X154582600Y-118767174D01*
X154577680Y-118817124D01*
X154563836Y-118862763D01*
X154541353Y-118904826D01*
X154511095Y-118941695D01*
X154474226Y-118971953D01*
X154432163Y-118994436D01*
X154386524Y-119008280D01*
X154336574Y-119013200D01*
X153577026Y-119013200D01*
X153527076Y-119008280D01*
X153481437Y-118994436D01*
X153439374Y-118971953D01*
X153402505Y-118941695D01*
X153372247Y-118904826D01*
X153349764Y-118862763D01*
X153335920Y-118817124D01*
X153331000Y-118767174D01*
X153331000Y-117757626D01*
X153335920Y-117707676D01*
X153349764Y-117662037D01*
X153372247Y-117619974D01*
X153402505Y-117583105D01*
X153439374Y-117552847D01*
X153481437Y-117530364D01*
X153527076Y-117516520D01*
X153577026Y-117511600D01*
X154336574Y-117511600D01*
X154386524Y-117516520D01*
X154386524Y-117516520D01*
G37*
G36*
X152626524Y-117516520D02*
X152672163Y-117530364D01*
X152714226Y-117552847D01*
X152751095Y-117583105D01*
X152781353Y-117619974D01*
X152803836Y-117662037D01*
X152817680Y-117707676D01*
X152822600Y-117757626D01*
X152822600Y-118767174D01*
X152817680Y-118817124D01*
X152803836Y-118862763D01*
X152781353Y-118904826D01*
X152751095Y-118941695D01*
X152714226Y-118971953D01*
X152672163Y-118994436D01*
X152626524Y-119008280D01*
X152576574Y-119013200D01*
X151817026Y-119013200D01*
X151767076Y-119008280D01*
X151721437Y-118994436D01*
X151679374Y-118971953D01*
X151642505Y-118941695D01*
X151612247Y-118904826D01*
X151589764Y-118862763D01*
X151575920Y-118817124D01*
X151571000Y-118767174D01*
X151571000Y-117757626D01*
X151575920Y-117707676D01*
X151589764Y-117662037D01*
X151612247Y-117619974D01*
X151642505Y-117583105D01*
X151679374Y-117552847D01*
X151721437Y-117530364D01*
X151767076Y-117516520D01*
X151817026Y-117511600D01*
X152576574Y-117511600D01*
X152626524Y-117516520D01*
X152626524Y-117516520D01*
G37*
G36*
X150576524Y-117516520D02*
X150622163Y-117530364D01*
X150664226Y-117552847D01*
X150701095Y-117583105D01*
X150731353Y-117619974D01*
X150753836Y-117662037D01*
X150767680Y-117707676D01*
X150772600Y-117757626D01*
X150772600Y-118767174D01*
X150767680Y-118817124D01*
X150753836Y-118862763D01*
X150731353Y-118904826D01*
X150701095Y-118941695D01*
X150664226Y-118971953D01*
X150622163Y-118994436D01*
X150576524Y-119008280D01*
X150526574Y-119013200D01*
X149767026Y-119013200D01*
X149717076Y-119008280D01*
X149671437Y-118994436D01*
X149629374Y-118971953D01*
X149592505Y-118941695D01*
X149562247Y-118904826D01*
X149539764Y-118862763D01*
X149525920Y-118817124D01*
X149521000Y-118767174D01*
X149521000Y-117757626D01*
X149525920Y-117707676D01*
X149539764Y-117662037D01*
X149562247Y-117619974D01*
X149592505Y-117583105D01*
X149629374Y-117552847D01*
X149671437Y-117530364D01*
X149717076Y-117516520D01*
X149767026Y-117511600D01*
X150526574Y-117511600D01*
X150576524Y-117516520D01*
X150576524Y-117516520D01*
G37*
G36*
X160246524Y-117516520D02*
X160292163Y-117530364D01*
X160334226Y-117552847D01*
X160371095Y-117583105D01*
X160401353Y-117619974D01*
X160423836Y-117662037D01*
X160437680Y-117707676D01*
X160442600Y-117757626D01*
X160442600Y-118767174D01*
X160437680Y-118817124D01*
X160423836Y-118862763D01*
X160401353Y-118904826D01*
X160371095Y-118941695D01*
X160334226Y-118971953D01*
X160292163Y-118994436D01*
X160246524Y-119008280D01*
X160196574Y-119013200D01*
X159437026Y-119013200D01*
X159387076Y-119008280D01*
X159341437Y-118994436D01*
X159299374Y-118971953D01*
X159262505Y-118941695D01*
X159232247Y-118904826D01*
X159209764Y-118862763D01*
X159195920Y-118817124D01*
X159191000Y-118767174D01*
X159191000Y-117757626D01*
X159195920Y-117707676D01*
X159209764Y-117662037D01*
X159232247Y-117619974D01*
X159262505Y-117583105D01*
X159299374Y-117552847D01*
X159341437Y-117530364D01*
X159387076Y-117516520D01*
X159437026Y-117511600D01*
X160196574Y-117511600D01*
X160246524Y-117516520D01*
X160246524Y-117516520D01*
G37*
G36*
X146766524Y-117516520D02*
X146812163Y-117530364D01*
X146854226Y-117552847D01*
X146891095Y-117583105D01*
X146921353Y-117619974D01*
X146943836Y-117662037D01*
X146957680Y-117707676D01*
X146962600Y-117757626D01*
X146962600Y-118767174D01*
X146957680Y-118817124D01*
X146943836Y-118862763D01*
X146921353Y-118904826D01*
X146891095Y-118941695D01*
X146854226Y-118971953D01*
X146812163Y-118994436D01*
X146766524Y-119008280D01*
X146716574Y-119013200D01*
X145957026Y-119013200D01*
X145907076Y-119008280D01*
X145861437Y-118994436D01*
X145819374Y-118971953D01*
X145782505Y-118941695D01*
X145752247Y-118904826D01*
X145729764Y-118862763D01*
X145715920Y-118817124D01*
X145711000Y-118767174D01*
X145711000Y-117757626D01*
X145715920Y-117707676D01*
X145729764Y-117662037D01*
X145752247Y-117619974D01*
X145782505Y-117583105D01*
X145819374Y-117552847D01*
X145861437Y-117530364D01*
X145907076Y-117516520D01*
X145957026Y-117511600D01*
X146716574Y-117511600D01*
X146766524Y-117516520D01*
X146766524Y-117516520D01*
G37*
G36*
X161973724Y-117516520D02*
X162019363Y-117530364D01*
X162061426Y-117552847D01*
X162098295Y-117583105D01*
X162128553Y-117619974D01*
X162151036Y-117662037D01*
X162164880Y-117707676D01*
X162169800Y-117757626D01*
X162169800Y-118767174D01*
X162164880Y-118817124D01*
X162151036Y-118862763D01*
X162128553Y-118904826D01*
X162098295Y-118941695D01*
X162061426Y-118971953D01*
X162019363Y-118994436D01*
X161973724Y-119008280D01*
X161923774Y-119013200D01*
X161164226Y-119013200D01*
X161114276Y-119008280D01*
X161068637Y-118994436D01*
X161026574Y-118971953D01*
X160989705Y-118941695D01*
X160959447Y-118904826D01*
X160936964Y-118862763D01*
X160923120Y-118817124D01*
X160918200Y-118767174D01*
X160918200Y-117757626D01*
X160923120Y-117707676D01*
X160936964Y-117662037D01*
X160959447Y-117619974D01*
X160989705Y-117583105D01*
X161026574Y-117552847D01*
X161068637Y-117530364D01*
X161114276Y-117516520D01*
X161164226Y-117511600D01*
X161923774Y-117511600D01*
X161973724Y-117516520D01*
X161973724Y-117516520D01*
G37*
G36*
X164023724Y-117516520D02*
X164069363Y-117530364D01*
X164111426Y-117552847D01*
X164148295Y-117583105D01*
X164178553Y-117619974D01*
X164201036Y-117662037D01*
X164214880Y-117707676D01*
X164219800Y-117757626D01*
X164219800Y-118767174D01*
X164214880Y-118817124D01*
X164201036Y-118862763D01*
X164178553Y-118904826D01*
X164148295Y-118941695D01*
X164111426Y-118971953D01*
X164069363Y-118994436D01*
X164023724Y-119008280D01*
X163973774Y-119013200D01*
X163214226Y-119013200D01*
X163164276Y-119008280D01*
X163118637Y-118994436D01*
X163076574Y-118971953D01*
X163039705Y-118941695D01*
X163009447Y-118904826D01*
X162986964Y-118862763D01*
X162973120Y-118817124D01*
X162968200Y-118767174D01*
X162968200Y-117757626D01*
X162973120Y-117707676D01*
X162986964Y-117662037D01*
X163009447Y-117619974D01*
X163039705Y-117583105D01*
X163076574Y-117552847D01*
X163118637Y-117530364D01*
X163164276Y-117516520D01*
X163214226Y-117511600D01*
X163973774Y-117511600D01*
X164023724Y-117516520D01*
X164023724Y-117516520D01*
G37*
G36*
X148816524Y-117516520D02*
X148862163Y-117530364D01*
X148904226Y-117552847D01*
X148941095Y-117583105D01*
X148971353Y-117619974D01*
X148993836Y-117662037D01*
X149007680Y-117707676D01*
X149012600Y-117757626D01*
X149012600Y-118767174D01*
X149007680Y-118817124D01*
X148993836Y-118862763D01*
X148971353Y-118904826D01*
X148941095Y-118941695D01*
X148904226Y-118971953D01*
X148862163Y-118994436D01*
X148816524Y-119008280D01*
X148766574Y-119013200D01*
X148007026Y-119013200D01*
X147957076Y-119008280D01*
X147911437Y-118994436D01*
X147869374Y-118971953D01*
X147832505Y-118941695D01*
X147802247Y-118904826D01*
X147779764Y-118862763D01*
X147765920Y-118817124D01*
X147761000Y-118767174D01*
X147761000Y-117757626D01*
X147765920Y-117707676D01*
X147779764Y-117662037D01*
X147802247Y-117619974D01*
X147832505Y-117583105D01*
X147869374Y-117552847D01*
X147911437Y-117530364D01*
X147957076Y-117516520D01*
X148007026Y-117511600D01*
X148766574Y-117511600D01*
X148816524Y-117516520D01*
X148816524Y-117516520D01*
G37*
G36*
X134795724Y-116983120D02*
X134841363Y-116996964D01*
X134883426Y-117019447D01*
X134920295Y-117049705D01*
X134950553Y-117086574D01*
X134973036Y-117128637D01*
X134986880Y-117174276D01*
X134991800Y-117224226D01*
X134991800Y-118233774D01*
X134986880Y-118283724D01*
X134973036Y-118329363D01*
X134950553Y-118371426D01*
X134920295Y-118408295D01*
X134883426Y-118438553D01*
X134841363Y-118461036D01*
X134795724Y-118474880D01*
X134745774Y-118479800D01*
X133986226Y-118479800D01*
X133936276Y-118474880D01*
X133890637Y-118461036D01*
X133848574Y-118438553D01*
X133811705Y-118408295D01*
X133781447Y-118371426D01*
X133758964Y-118329363D01*
X133745120Y-118283724D01*
X133740200Y-118233774D01*
X133740200Y-117224226D01*
X133745120Y-117174276D01*
X133758964Y-117128637D01*
X133781447Y-117086574D01*
X133811705Y-117049705D01*
X133848574Y-117019447D01*
X133890637Y-116996964D01*
X133936276Y-116983120D01*
X133986226Y-116978200D01*
X134745774Y-116978200D01*
X134795724Y-116983120D01*
X134795724Y-116983120D01*
G37*
G36*
X132745724Y-116983120D02*
X132791363Y-116996964D01*
X132833426Y-117019447D01*
X132870295Y-117049705D01*
X132900553Y-117086574D01*
X132923036Y-117128637D01*
X132936880Y-117174276D01*
X132941800Y-117224226D01*
X132941800Y-118233774D01*
X132936880Y-118283724D01*
X132923036Y-118329363D01*
X132900553Y-118371426D01*
X132870295Y-118408295D01*
X132833426Y-118438553D01*
X132791363Y-118461036D01*
X132745724Y-118474880D01*
X132695774Y-118479800D01*
X131936226Y-118479800D01*
X131886276Y-118474880D01*
X131840637Y-118461036D01*
X131798574Y-118438553D01*
X131761705Y-118408295D01*
X131731447Y-118371426D01*
X131708964Y-118329363D01*
X131695120Y-118283724D01*
X131690200Y-118233774D01*
X131690200Y-117224226D01*
X131695120Y-117174276D01*
X131708964Y-117128637D01*
X131731447Y-117086574D01*
X131761705Y-117049705D01*
X131798574Y-117019447D01*
X131840637Y-116996964D01*
X131886276Y-116983120D01*
X131936226Y-116978200D01*
X132695774Y-116978200D01*
X132745724Y-116983120D01*
X132745724Y-116983120D01*
G37*
G36*
X142591524Y-117202320D02*
X142637163Y-117216164D01*
X142679226Y-117238647D01*
X142716095Y-117268905D01*
X142746353Y-117305774D01*
X142768836Y-117347837D01*
X142782680Y-117393476D01*
X142787600Y-117443426D01*
X142787600Y-118202974D01*
X142782680Y-118252924D01*
X142768836Y-118298563D01*
X142746353Y-118340626D01*
X142716095Y-118377495D01*
X142679226Y-118407753D01*
X142637163Y-118430236D01*
X142591524Y-118444080D01*
X142541574Y-118449000D01*
X141532026Y-118449000D01*
X141482076Y-118444080D01*
X141436437Y-118430236D01*
X141394374Y-118407753D01*
X141357505Y-118377495D01*
X141327247Y-118340626D01*
X141304764Y-118298563D01*
X141290920Y-118252924D01*
X141286000Y-118202974D01*
X141286000Y-117443426D01*
X141290920Y-117393476D01*
X141304764Y-117347837D01*
X141327247Y-117305774D01*
X141357505Y-117268905D01*
X141394374Y-117238647D01*
X141436437Y-117216164D01*
X141482076Y-117202320D01*
X141532026Y-117197400D01*
X142541574Y-117197400D01*
X142591524Y-117202320D01*
X142591524Y-117202320D01*
G37*
G36*
X170304924Y-116881520D02*
X170350563Y-116895364D01*
X170392626Y-116917847D01*
X170429495Y-116948105D01*
X170459753Y-116984974D01*
X170482236Y-117027037D01*
X170496080Y-117072676D01*
X170501000Y-117122626D01*
X170501000Y-118132174D01*
X170496080Y-118182124D01*
X170482236Y-118227763D01*
X170459753Y-118269826D01*
X170429495Y-118306695D01*
X170392626Y-118336953D01*
X170350563Y-118359436D01*
X170304924Y-118373280D01*
X170254974Y-118378200D01*
X169495426Y-118378200D01*
X169445476Y-118373280D01*
X169399837Y-118359436D01*
X169357774Y-118336953D01*
X169320905Y-118306695D01*
X169290647Y-118269826D01*
X169268164Y-118227763D01*
X169254320Y-118182124D01*
X169249400Y-118132174D01*
X169249400Y-117122626D01*
X169254320Y-117072676D01*
X169268164Y-117027037D01*
X169290647Y-116984974D01*
X169320905Y-116948105D01*
X169357774Y-116917847D01*
X169399837Y-116895364D01*
X169445476Y-116881520D01*
X169495426Y-116876600D01*
X170254974Y-116876600D01*
X170304924Y-116881520D01*
X170304924Y-116881520D01*
G37*
G36*
X168254924Y-116881520D02*
X168300563Y-116895364D01*
X168342626Y-116917847D01*
X168379495Y-116948105D01*
X168409753Y-116984974D01*
X168432236Y-117027037D01*
X168446080Y-117072676D01*
X168451000Y-117122626D01*
X168451000Y-118132174D01*
X168446080Y-118182124D01*
X168432236Y-118227763D01*
X168409753Y-118269826D01*
X168379495Y-118306695D01*
X168342626Y-118336953D01*
X168300563Y-118359436D01*
X168254924Y-118373280D01*
X168204974Y-118378200D01*
X167445426Y-118378200D01*
X167395476Y-118373280D01*
X167349837Y-118359436D01*
X167307774Y-118336953D01*
X167270905Y-118306695D01*
X167240647Y-118269826D01*
X167218164Y-118227763D01*
X167204320Y-118182124D01*
X167199400Y-118132174D01*
X167199400Y-117122626D01*
X167204320Y-117072676D01*
X167218164Y-117027037D01*
X167240647Y-116984974D01*
X167270905Y-116948105D01*
X167307774Y-116917847D01*
X167349837Y-116895364D01*
X167395476Y-116881520D01*
X167445426Y-116876600D01*
X168204974Y-116876600D01*
X168254924Y-116881520D01*
X168254924Y-116881520D01*
G37*
G36*
X126557124Y-115205120D02*
X126602763Y-115218964D01*
X126644826Y-115241447D01*
X126681695Y-115271705D01*
X126711953Y-115308574D01*
X126734436Y-115350637D01*
X126748280Y-115396276D01*
X126753200Y-115446226D01*
X126753200Y-116455774D01*
X126748280Y-116505724D01*
X126734436Y-116551363D01*
X126711953Y-116593426D01*
X126681695Y-116630295D01*
X126644826Y-116660553D01*
X126602763Y-116683036D01*
X126557124Y-116696880D01*
X126507174Y-116701800D01*
X125747626Y-116701800D01*
X125697676Y-116696880D01*
X125652037Y-116683036D01*
X125609974Y-116660553D01*
X125573105Y-116630295D01*
X125542847Y-116593426D01*
X125520364Y-116551363D01*
X125506520Y-116505724D01*
X125501600Y-116455774D01*
X125501600Y-115446226D01*
X125506520Y-115396276D01*
X125520364Y-115350637D01*
X125542847Y-115308574D01*
X125573105Y-115271705D01*
X125609974Y-115241447D01*
X125652037Y-115218964D01*
X125697676Y-115205120D01*
X125747626Y-115200200D01*
X126507174Y-115200200D01*
X126557124Y-115205120D01*
X126557124Y-115205120D01*
G37*
G36*
X120724124Y-115205120D02*
X120769763Y-115218964D01*
X120811826Y-115241447D01*
X120848695Y-115271705D01*
X120878953Y-115308574D01*
X120901436Y-115350637D01*
X120915280Y-115396276D01*
X120920200Y-115446226D01*
X120920200Y-116455774D01*
X120915280Y-116505724D01*
X120901436Y-116551363D01*
X120878953Y-116593426D01*
X120848695Y-116630295D01*
X120811826Y-116660553D01*
X120769763Y-116683036D01*
X120724124Y-116696880D01*
X120674174Y-116701800D01*
X119914626Y-116701800D01*
X119864676Y-116696880D01*
X119819037Y-116683036D01*
X119776974Y-116660553D01*
X119740105Y-116630295D01*
X119709847Y-116593426D01*
X119687364Y-116551363D01*
X119673520Y-116505724D01*
X119668600Y-116455774D01*
X119668600Y-115446226D01*
X119673520Y-115396276D01*
X119687364Y-115350637D01*
X119709847Y-115308574D01*
X119740105Y-115271705D01*
X119776974Y-115241447D01*
X119819037Y-115218964D01*
X119864676Y-115205120D01*
X119914626Y-115200200D01*
X120674174Y-115200200D01*
X120724124Y-115205120D01*
X120724124Y-115205120D01*
G37*
G36*
X122774124Y-115205120D02*
X122819763Y-115218964D01*
X122861826Y-115241447D01*
X122898695Y-115271705D01*
X122928953Y-115308574D01*
X122951436Y-115350637D01*
X122965280Y-115396276D01*
X122970200Y-115446226D01*
X122970200Y-116455774D01*
X122965280Y-116505724D01*
X122951436Y-116551363D01*
X122928953Y-116593426D01*
X122898695Y-116630295D01*
X122861826Y-116660553D01*
X122819763Y-116683036D01*
X122774124Y-116696880D01*
X122724174Y-116701800D01*
X121964626Y-116701800D01*
X121914676Y-116696880D01*
X121869037Y-116683036D01*
X121826974Y-116660553D01*
X121790105Y-116630295D01*
X121759847Y-116593426D01*
X121737364Y-116551363D01*
X121723520Y-116505724D01*
X121718600Y-116455774D01*
X121718600Y-115446226D01*
X121723520Y-115396276D01*
X121737364Y-115350637D01*
X121759847Y-115308574D01*
X121790105Y-115271705D01*
X121826974Y-115241447D01*
X121869037Y-115218964D01*
X121914676Y-115205120D01*
X121964626Y-115200200D01*
X122724174Y-115200200D01*
X122774124Y-115205120D01*
X122774124Y-115205120D01*
G37*
G36*
X128607124Y-115205120D02*
X128652763Y-115218964D01*
X128694826Y-115241447D01*
X128731695Y-115271705D01*
X128761953Y-115308574D01*
X128784436Y-115350637D01*
X128798280Y-115396276D01*
X128803200Y-115446226D01*
X128803200Y-116455774D01*
X128798280Y-116505724D01*
X128784436Y-116551363D01*
X128761953Y-116593426D01*
X128731695Y-116630295D01*
X128694826Y-116660553D01*
X128652763Y-116683036D01*
X128607124Y-116696880D01*
X128557174Y-116701800D01*
X127797626Y-116701800D01*
X127747676Y-116696880D01*
X127702037Y-116683036D01*
X127659974Y-116660553D01*
X127623105Y-116630295D01*
X127592847Y-116593426D01*
X127570364Y-116551363D01*
X127556520Y-116505724D01*
X127551600Y-116455774D01*
X127551600Y-115446226D01*
X127556520Y-115396276D01*
X127570364Y-115350637D01*
X127592847Y-115308574D01*
X127623105Y-115271705D01*
X127659974Y-115241447D01*
X127702037Y-115218964D01*
X127747676Y-115205120D01*
X127797626Y-115200200D01*
X128557174Y-115200200D01*
X128607124Y-115205120D01*
X128607124Y-115205120D01*
G37*
G36*
X114873124Y-115205120D02*
X114918763Y-115218964D01*
X114960826Y-115241447D01*
X114997695Y-115271705D01*
X115027953Y-115308574D01*
X115050436Y-115350637D01*
X115064280Y-115396276D01*
X115069200Y-115446226D01*
X115069200Y-116455774D01*
X115064280Y-116505724D01*
X115050436Y-116551363D01*
X115027953Y-116593426D01*
X114997695Y-116630295D01*
X114960826Y-116660553D01*
X114918763Y-116683036D01*
X114873124Y-116696880D01*
X114823174Y-116701800D01*
X114063626Y-116701800D01*
X114013676Y-116696880D01*
X113968037Y-116683036D01*
X113925974Y-116660553D01*
X113889105Y-116630295D01*
X113858847Y-116593426D01*
X113836364Y-116551363D01*
X113822520Y-116505724D01*
X113817600Y-116455774D01*
X113817600Y-115446226D01*
X113822520Y-115396276D01*
X113836364Y-115350637D01*
X113858847Y-115308574D01*
X113889105Y-115271705D01*
X113925974Y-115241447D01*
X113968037Y-115218964D01*
X114013676Y-115205120D01*
X114063626Y-115200200D01*
X114823174Y-115200200D01*
X114873124Y-115205120D01*
X114873124Y-115205120D01*
G37*
G36*
X116923124Y-115205120D02*
X116968763Y-115218964D01*
X117010826Y-115241447D01*
X117047695Y-115271705D01*
X117077953Y-115308574D01*
X117100436Y-115350637D01*
X117114280Y-115396276D01*
X117119200Y-115446226D01*
X117119200Y-116455774D01*
X117114280Y-116505724D01*
X117100436Y-116551363D01*
X117077953Y-116593426D01*
X117047695Y-116630295D01*
X117010826Y-116660553D01*
X116968763Y-116683036D01*
X116923124Y-116696880D01*
X116873174Y-116701800D01*
X116113626Y-116701800D01*
X116063676Y-116696880D01*
X116018037Y-116683036D01*
X115975974Y-116660553D01*
X115939105Y-116630295D01*
X115908847Y-116593426D01*
X115886364Y-116551363D01*
X115872520Y-116505724D01*
X115867600Y-116455774D01*
X115867600Y-115446226D01*
X115872520Y-115396276D01*
X115886364Y-115350637D01*
X115908847Y-115308574D01*
X115939105Y-115271705D01*
X115975974Y-115241447D01*
X116018037Y-115218964D01*
X116063676Y-115205120D01*
X116113626Y-115200200D01*
X116873174Y-115200200D01*
X116923124Y-115205120D01*
X116923124Y-115205120D01*
G37*
G36*
X142591524Y-115152320D02*
X142637163Y-115166164D01*
X142679226Y-115188647D01*
X142716095Y-115218905D01*
X142746353Y-115255774D01*
X142768836Y-115297837D01*
X142782680Y-115343476D01*
X142787600Y-115393426D01*
X142787600Y-116152974D01*
X142782680Y-116202924D01*
X142768836Y-116248563D01*
X142746353Y-116290626D01*
X142716095Y-116327495D01*
X142679226Y-116357753D01*
X142637163Y-116380236D01*
X142591524Y-116394080D01*
X142541574Y-116399000D01*
X141532026Y-116399000D01*
X141482076Y-116394080D01*
X141436437Y-116380236D01*
X141394374Y-116357753D01*
X141357505Y-116327495D01*
X141327247Y-116290626D01*
X141304764Y-116248563D01*
X141290920Y-116202924D01*
X141286000Y-116152974D01*
X141286000Y-115393426D01*
X141290920Y-115343476D01*
X141304764Y-115297837D01*
X141327247Y-115255774D01*
X141357505Y-115218905D01*
X141394374Y-115188647D01*
X141436437Y-115166164D01*
X141482076Y-115152320D01*
X141532026Y-115147400D01*
X142541574Y-115147400D01*
X142591524Y-115152320D01*
X142591524Y-115152320D01*
G37*
G36*
X132745724Y-114887620D02*
X132791363Y-114901464D01*
X132833426Y-114923947D01*
X132870295Y-114954205D01*
X132900553Y-114991074D01*
X132923036Y-115033137D01*
X132936880Y-115078776D01*
X132941800Y-115128726D01*
X132941800Y-116138274D01*
X132936880Y-116188224D01*
X132923036Y-116233863D01*
X132900553Y-116275926D01*
X132870295Y-116312795D01*
X132833426Y-116343053D01*
X132791363Y-116365536D01*
X132745724Y-116379380D01*
X132695774Y-116384300D01*
X131936226Y-116384300D01*
X131886276Y-116379380D01*
X131840637Y-116365536D01*
X131798574Y-116343053D01*
X131761705Y-116312795D01*
X131731447Y-116275926D01*
X131708964Y-116233863D01*
X131695120Y-116188224D01*
X131690200Y-116138274D01*
X131690200Y-115128726D01*
X131695120Y-115078776D01*
X131708964Y-115033137D01*
X131731447Y-114991074D01*
X131761705Y-114954205D01*
X131798574Y-114923947D01*
X131840637Y-114901464D01*
X131886276Y-114887620D01*
X131936226Y-114882700D01*
X132695774Y-114882700D01*
X132745724Y-114887620D01*
X132745724Y-114887620D01*
G37*
G36*
X134795724Y-114887620D02*
X134841363Y-114901464D01*
X134883426Y-114923947D01*
X134920295Y-114954205D01*
X134950553Y-114991074D01*
X134973036Y-115033137D01*
X134986880Y-115078776D01*
X134991800Y-115128726D01*
X134991800Y-116138274D01*
X134986880Y-116188224D01*
X134973036Y-116233863D01*
X134950553Y-116275926D01*
X134920295Y-116312795D01*
X134883426Y-116343053D01*
X134841363Y-116365536D01*
X134795724Y-116379380D01*
X134745774Y-116384300D01*
X133986226Y-116384300D01*
X133936276Y-116379380D01*
X133890637Y-116365536D01*
X133848574Y-116343053D01*
X133811705Y-116312795D01*
X133781447Y-116275926D01*
X133758964Y-116233863D01*
X133745120Y-116188224D01*
X133740200Y-116138274D01*
X133740200Y-115128726D01*
X133745120Y-115078776D01*
X133758964Y-115033137D01*
X133781447Y-114991074D01*
X133811705Y-114954205D01*
X133848574Y-114923947D01*
X133890637Y-114901464D01*
X133936276Y-114887620D01*
X133986226Y-114882700D01*
X134745774Y-114882700D01*
X134795724Y-114887620D01*
X134795724Y-114887620D01*
G37*
G36*
X150138188Y-114529834D02*
X150307989Y-114581343D01*
X150464479Y-114664989D01*
X150601643Y-114777557D01*
X150714211Y-114914721D01*
X150797857Y-115071211D01*
X150849366Y-115241012D01*
X150866758Y-115417600D01*
X150849366Y-115594188D01*
X150797857Y-115763989D01*
X150714211Y-115920479D01*
X150601643Y-116057643D01*
X150464479Y-116170211D01*
X150307989Y-116253857D01*
X150138188Y-116305366D01*
X150005849Y-116318400D01*
X149917351Y-116318400D01*
X149785012Y-116305366D01*
X149615211Y-116253857D01*
X149458721Y-116170211D01*
X149321557Y-116057643D01*
X149208989Y-115920479D01*
X149125343Y-115763989D01*
X149073834Y-115594188D01*
X149056442Y-115417600D01*
X149073834Y-115241012D01*
X149125343Y-115071211D01*
X149208989Y-114914721D01*
X149321557Y-114777557D01*
X149458721Y-114664989D01*
X149615211Y-114581343D01*
X149785012Y-114529834D01*
X149917351Y-114516800D01*
X150005849Y-114516800D01*
X150138188Y-114529834D01*
X150138188Y-114529834D01*
G37*
G36*
X140042000Y-116318400D02*
X138240400Y-116318400D01*
X138240400Y-114516800D01*
X140042000Y-114516800D01*
X140042000Y-116318400D01*
X140042000Y-116318400D01*
G37*
G36*
X160298188Y-114529834D02*
X160467989Y-114581343D01*
X160624479Y-114664989D01*
X160761643Y-114777557D01*
X160874211Y-114914721D01*
X160957857Y-115071211D01*
X161009366Y-115241012D01*
X161026758Y-115417600D01*
X161009366Y-115594188D01*
X160957857Y-115763989D01*
X160874211Y-115920479D01*
X160761643Y-116057643D01*
X160624479Y-116170211D01*
X160467989Y-116253857D01*
X160298188Y-116305366D01*
X160165849Y-116318400D01*
X160077351Y-116318400D01*
X159945012Y-116305366D01*
X159775211Y-116253857D01*
X159618721Y-116170211D01*
X159481557Y-116057643D01*
X159368989Y-115920479D01*
X159285343Y-115763989D01*
X159233834Y-115594188D01*
X159216442Y-115417600D01*
X159233834Y-115241012D01*
X159285343Y-115071211D01*
X159368989Y-114914721D01*
X159481557Y-114777557D01*
X159618721Y-114664989D01*
X159775211Y-114581343D01*
X159945012Y-114529834D01*
X160077351Y-114516800D01*
X160165849Y-114516800D01*
X160298188Y-114529834D01*
X160298188Y-114529834D01*
G37*
G36*
X157758188Y-114529834D02*
X157927989Y-114581343D01*
X158084479Y-114664989D01*
X158221643Y-114777557D01*
X158334211Y-114914721D01*
X158417857Y-115071211D01*
X158469366Y-115241012D01*
X158486758Y-115417600D01*
X158469366Y-115594188D01*
X158417857Y-115763989D01*
X158334211Y-115920479D01*
X158221643Y-116057643D01*
X158084479Y-116170211D01*
X157927989Y-116253857D01*
X157758188Y-116305366D01*
X157625849Y-116318400D01*
X157537351Y-116318400D01*
X157405012Y-116305366D01*
X157235211Y-116253857D01*
X157078721Y-116170211D01*
X156941557Y-116057643D01*
X156828989Y-115920479D01*
X156745343Y-115763989D01*
X156693834Y-115594188D01*
X156676442Y-115417600D01*
X156693834Y-115241012D01*
X156745343Y-115071211D01*
X156828989Y-114914721D01*
X156941557Y-114777557D01*
X157078721Y-114664989D01*
X157235211Y-114581343D01*
X157405012Y-114529834D01*
X157537351Y-114516800D01*
X157625849Y-114516800D01*
X157758188Y-114529834D01*
X157758188Y-114529834D01*
G37*
G36*
X152678188Y-114529834D02*
X152847989Y-114581343D01*
X153004479Y-114664989D01*
X153141643Y-114777557D01*
X153254211Y-114914721D01*
X153337857Y-115071211D01*
X153389366Y-115241012D01*
X153406758Y-115417600D01*
X153389366Y-115594188D01*
X153337857Y-115763989D01*
X153254211Y-115920479D01*
X153141643Y-116057643D01*
X153004479Y-116170211D01*
X152847989Y-116253857D01*
X152678188Y-116305366D01*
X152545849Y-116318400D01*
X152457351Y-116318400D01*
X152325012Y-116305366D01*
X152155211Y-116253857D01*
X151998721Y-116170211D01*
X151861557Y-116057643D01*
X151748989Y-115920479D01*
X151665343Y-115763989D01*
X151613834Y-115594188D01*
X151596442Y-115417600D01*
X151613834Y-115241012D01*
X151665343Y-115071211D01*
X151748989Y-114914721D01*
X151861557Y-114777557D01*
X151998721Y-114664989D01*
X152155211Y-114581343D01*
X152325012Y-114529834D01*
X152457351Y-114516800D01*
X152545849Y-114516800D01*
X152678188Y-114529834D01*
X152678188Y-114529834D01*
G37*
G36*
X145782400Y-116318400D02*
X143980800Y-116318400D01*
X143980800Y-114516800D01*
X145782400Y-114516800D01*
X145782400Y-116318400D01*
X145782400Y-116318400D01*
G37*
G36*
X155218188Y-114529834D02*
X155387989Y-114581343D01*
X155544479Y-114664989D01*
X155681643Y-114777557D01*
X155794211Y-114914721D01*
X155877857Y-115071211D01*
X155929366Y-115241012D01*
X155946758Y-115417600D01*
X155929366Y-115594188D01*
X155877857Y-115763989D01*
X155794211Y-115920479D01*
X155681643Y-116057643D01*
X155544479Y-116170211D01*
X155387989Y-116253857D01*
X155218188Y-116305366D01*
X155085849Y-116318400D01*
X154997351Y-116318400D01*
X154865012Y-116305366D01*
X154695211Y-116253857D01*
X154538721Y-116170211D01*
X154401557Y-116057643D01*
X154288989Y-115920479D01*
X154205343Y-115763989D01*
X154153834Y-115594188D01*
X154136442Y-115417600D01*
X154153834Y-115241012D01*
X154205343Y-115071211D01*
X154288989Y-114914721D01*
X154401557Y-114777557D01*
X154538721Y-114664989D01*
X154695211Y-114581343D01*
X154865012Y-114529834D01*
X154997351Y-114516800D01*
X155085849Y-114516800D01*
X155218188Y-114529834D01*
X155218188Y-114529834D01*
G37*
G36*
X162838188Y-114529834D02*
X163007989Y-114581343D01*
X163164479Y-114664989D01*
X163301643Y-114777557D01*
X163414211Y-114914721D01*
X163497857Y-115071211D01*
X163549366Y-115241012D01*
X163566758Y-115417600D01*
X163549366Y-115594188D01*
X163497857Y-115763989D01*
X163414211Y-115920479D01*
X163301643Y-116057643D01*
X163164479Y-116170211D01*
X163007989Y-116253857D01*
X162838188Y-116305366D01*
X162705849Y-116318400D01*
X162617351Y-116318400D01*
X162485012Y-116305366D01*
X162315211Y-116253857D01*
X162158721Y-116170211D01*
X162021557Y-116057643D01*
X161908989Y-115920479D01*
X161825343Y-115763989D01*
X161773834Y-115594188D01*
X161756442Y-115417600D01*
X161773834Y-115241012D01*
X161825343Y-115071211D01*
X161908989Y-114914721D01*
X162021557Y-114777557D01*
X162158721Y-114664989D01*
X162315211Y-114581343D01*
X162485012Y-114529834D01*
X162617351Y-114516800D01*
X162705849Y-114516800D01*
X162838188Y-114529834D01*
X162838188Y-114529834D01*
G37*
G36*
X147598188Y-114529834D02*
X147767989Y-114581343D01*
X147924479Y-114664989D01*
X148061643Y-114777557D01*
X148174211Y-114914721D01*
X148257857Y-115071211D01*
X148309366Y-115241012D01*
X148326758Y-115417600D01*
X148309366Y-115594188D01*
X148257857Y-115763989D01*
X148174211Y-115920479D01*
X148061643Y-116057643D01*
X147924479Y-116170211D01*
X147767989Y-116253857D01*
X147598188Y-116305366D01*
X147465849Y-116318400D01*
X147377351Y-116318400D01*
X147245012Y-116305366D01*
X147075211Y-116253857D01*
X146918721Y-116170211D01*
X146781557Y-116057643D01*
X146668989Y-115920479D01*
X146585343Y-115763989D01*
X146533834Y-115594188D01*
X146516442Y-115417600D01*
X146533834Y-115241012D01*
X146585343Y-115071211D01*
X146668989Y-114914721D01*
X146781557Y-114777557D01*
X146918721Y-114664989D01*
X147075211Y-114581343D01*
X147245012Y-114529834D01*
X147377351Y-114516800D01*
X147465849Y-114516800D01*
X147598188Y-114529834D01*
X147598188Y-114529834D01*
G37*
G36*
X168045188Y-113869434D02*
X168214989Y-113920943D01*
X168371479Y-114004589D01*
X168508643Y-114117157D01*
X168621211Y-114254321D01*
X168704857Y-114410811D01*
X168756366Y-114580612D01*
X168773758Y-114757200D01*
X168756366Y-114933788D01*
X168704857Y-115103589D01*
X168621211Y-115260079D01*
X168508643Y-115397243D01*
X168371479Y-115509811D01*
X168214989Y-115593457D01*
X168045188Y-115644966D01*
X167912849Y-115658000D01*
X167824351Y-115658000D01*
X167692012Y-115644966D01*
X167522211Y-115593457D01*
X167365721Y-115509811D01*
X167228557Y-115397243D01*
X167115989Y-115260079D01*
X167032343Y-115103589D01*
X166980834Y-114933788D01*
X166963442Y-114757200D01*
X166980834Y-114580612D01*
X167032343Y-114410811D01*
X167115989Y-114254321D01*
X167228557Y-114117157D01*
X167365721Y-114004589D01*
X167522211Y-113920943D01*
X167692012Y-113869434D01*
X167824351Y-113856400D01*
X167912849Y-113856400D01*
X168045188Y-113869434D01*
X168045188Y-113869434D01*
G37*
G36*
X171309400Y-115658000D02*
X169507800Y-115658000D01*
X169507800Y-113856400D01*
X171309400Y-113856400D01*
X171309400Y-115658000D01*
X171309400Y-115658000D01*
G37*
G36*
X128598124Y-113173120D02*
X128643763Y-113186964D01*
X128685826Y-113209447D01*
X128722695Y-113239705D01*
X128752953Y-113276574D01*
X128775436Y-113318637D01*
X128789280Y-113364276D01*
X128794200Y-113414226D01*
X128794200Y-114423774D01*
X128789280Y-114473724D01*
X128775436Y-114519363D01*
X128752953Y-114561426D01*
X128722695Y-114598295D01*
X128685826Y-114628553D01*
X128643763Y-114651036D01*
X128598124Y-114664880D01*
X128548174Y-114669800D01*
X127788626Y-114669800D01*
X127738676Y-114664880D01*
X127693037Y-114651036D01*
X127650974Y-114628553D01*
X127614105Y-114598295D01*
X127583847Y-114561426D01*
X127561364Y-114519363D01*
X127547520Y-114473724D01*
X127542600Y-114423774D01*
X127542600Y-113414226D01*
X127547520Y-113364276D01*
X127561364Y-113318637D01*
X127583847Y-113276574D01*
X127614105Y-113239705D01*
X127650974Y-113209447D01*
X127693037Y-113186964D01*
X127738676Y-113173120D01*
X127788626Y-113168200D01*
X128548174Y-113168200D01*
X128598124Y-113173120D01*
X128598124Y-113173120D01*
G37*
G36*
X126548124Y-113173120D02*
X126593763Y-113186964D01*
X126635826Y-113209447D01*
X126672695Y-113239705D01*
X126702953Y-113276574D01*
X126725436Y-113318637D01*
X126739280Y-113364276D01*
X126744200Y-113414226D01*
X126744200Y-114423774D01*
X126739280Y-114473724D01*
X126725436Y-114519363D01*
X126702953Y-114561426D01*
X126672695Y-114598295D01*
X126635826Y-114628553D01*
X126593763Y-114651036D01*
X126548124Y-114664880D01*
X126498174Y-114669800D01*
X125738626Y-114669800D01*
X125688676Y-114664880D01*
X125643037Y-114651036D01*
X125600974Y-114628553D01*
X125564105Y-114598295D01*
X125533847Y-114561426D01*
X125511364Y-114519363D01*
X125497520Y-114473724D01*
X125492600Y-114423774D01*
X125492600Y-113414226D01*
X125497520Y-113364276D01*
X125511364Y-113318637D01*
X125533847Y-113276574D01*
X125564105Y-113239705D01*
X125600974Y-113209447D01*
X125643037Y-113186964D01*
X125688676Y-113173120D01*
X125738626Y-113168200D01*
X126498174Y-113168200D01*
X126548124Y-113173120D01*
X126548124Y-113173120D01*
G37*
G36*
X116923124Y-113173120D02*
X116968763Y-113186964D01*
X117010826Y-113209447D01*
X117047695Y-113239705D01*
X117077953Y-113276574D01*
X117100436Y-113318637D01*
X117114280Y-113364276D01*
X117119200Y-113414226D01*
X117119200Y-114423774D01*
X117114280Y-114473724D01*
X117100436Y-114519363D01*
X117077953Y-114561426D01*
X117047695Y-114598295D01*
X117010826Y-114628553D01*
X116968763Y-114651036D01*
X116923124Y-114664880D01*
X116873174Y-114669800D01*
X116113626Y-114669800D01*
X116063676Y-114664880D01*
X116018037Y-114651036D01*
X115975974Y-114628553D01*
X115939105Y-114598295D01*
X115908847Y-114561426D01*
X115886364Y-114519363D01*
X115872520Y-114473724D01*
X115867600Y-114423774D01*
X115867600Y-113414226D01*
X115872520Y-113364276D01*
X115886364Y-113318637D01*
X115908847Y-113276574D01*
X115939105Y-113239705D01*
X115975974Y-113209447D01*
X116018037Y-113186964D01*
X116063676Y-113173120D01*
X116113626Y-113168200D01*
X116873174Y-113168200D01*
X116923124Y-113173120D01*
X116923124Y-113173120D01*
G37*
G36*
X120724124Y-113173120D02*
X120769763Y-113186964D01*
X120811826Y-113209447D01*
X120848695Y-113239705D01*
X120878953Y-113276574D01*
X120901436Y-113318637D01*
X120915280Y-113364276D01*
X120920200Y-113414226D01*
X120920200Y-114423774D01*
X120915280Y-114473724D01*
X120901436Y-114519363D01*
X120878953Y-114561426D01*
X120848695Y-114598295D01*
X120811826Y-114628553D01*
X120769763Y-114651036D01*
X120724124Y-114664880D01*
X120674174Y-114669800D01*
X119914626Y-114669800D01*
X119864676Y-114664880D01*
X119819037Y-114651036D01*
X119776974Y-114628553D01*
X119740105Y-114598295D01*
X119709847Y-114561426D01*
X119687364Y-114519363D01*
X119673520Y-114473724D01*
X119668600Y-114423774D01*
X119668600Y-113414226D01*
X119673520Y-113364276D01*
X119687364Y-113318637D01*
X119709847Y-113276574D01*
X119740105Y-113239705D01*
X119776974Y-113209447D01*
X119819037Y-113186964D01*
X119864676Y-113173120D01*
X119914626Y-113168200D01*
X120674174Y-113168200D01*
X120724124Y-113173120D01*
X120724124Y-113173120D01*
G37*
G36*
X122774124Y-113173120D02*
X122819763Y-113186964D01*
X122861826Y-113209447D01*
X122898695Y-113239705D01*
X122928953Y-113276574D01*
X122951436Y-113318637D01*
X122965280Y-113364276D01*
X122970200Y-113414226D01*
X122970200Y-114423774D01*
X122965280Y-114473724D01*
X122951436Y-114519363D01*
X122928953Y-114561426D01*
X122898695Y-114598295D01*
X122861826Y-114628553D01*
X122819763Y-114651036D01*
X122774124Y-114664880D01*
X122724174Y-114669800D01*
X121964626Y-114669800D01*
X121914676Y-114664880D01*
X121869037Y-114651036D01*
X121826974Y-114628553D01*
X121790105Y-114598295D01*
X121759847Y-114561426D01*
X121737364Y-114519363D01*
X121723520Y-114473724D01*
X121718600Y-114423774D01*
X121718600Y-113414226D01*
X121723520Y-113364276D01*
X121737364Y-113318637D01*
X121759847Y-113276574D01*
X121790105Y-113239705D01*
X121826974Y-113209447D01*
X121869037Y-113186964D01*
X121914676Y-113173120D01*
X121964626Y-113168200D01*
X122724174Y-113168200D01*
X122774124Y-113173120D01*
X122774124Y-113173120D01*
G37*
G36*
X114873124Y-113173120D02*
X114918763Y-113186964D01*
X114960826Y-113209447D01*
X114997695Y-113239705D01*
X115027953Y-113276574D01*
X115050436Y-113318637D01*
X115064280Y-113364276D01*
X115069200Y-113414226D01*
X115069200Y-114423774D01*
X115064280Y-114473724D01*
X115050436Y-114519363D01*
X115027953Y-114561426D01*
X114997695Y-114598295D01*
X114960826Y-114628553D01*
X114918763Y-114651036D01*
X114873124Y-114664880D01*
X114823174Y-114669800D01*
X114063626Y-114669800D01*
X114013676Y-114664880D01*
X113968037Y-114651036D01*
X113925974Y-114628553D01*
X113889105Y-114598295D01*
X113858847Y-114561426D01*
X113836364Y-114519363D01*
X113822520Y-114473724D01*
X113817600Y-114423774D01*
X113817600Y-113414226D01*
X113822520Y-113364276D01*
X113836364Y-113318637D01*
X113858847Y-113276574D01*
X113889105Y-113239705D01*
X113925974Y-113209447D01*
X113968037Y-113186964D01*
X114013676Y-113173120D01*
X114063626Y-113168200D01*
X114823174Y-113168200D01*
X114873124Y-113173120D01*
X114873124Y-113173120D01*
G37*
G36*
X142591524Y-113323520D02*
X142637163Y-113337364D01*
X142679226Y-113359847D01*
X142716095Y-113390105D01*
X142746353Y-113426974D01*
X142768836Y-113469037D01*
X142782680Y-113514676D01*
X142787600Y-113564626D01*
X142787600Y-114324174D01*
X142782680Y-114374124D01*
X142768836Y-114419763D01*
X142746353Y-114461826D01*
X142716095Y-114498695D01*
X142679226Y-114528953D01*
X142637163Y-114551436D01*
X142591524Y-114565280D01*
X142541574Y-114570200D01*
X141532026Y-114570200D01*
X141482076Y-114565280D01*
X141436437Y-114551436D01*
X141394374Y-114528953D01*
X141357505Y-114498695D01*
X141327247Y-114461826D01*
X141304764Y-114419763D01*
X141290920Y-114374124D01*
X141286000Y-114324174D01*
X141286000Y-113564626D01*
X141290920Y-113514676D01*
X141304764Y-113469037D01*
X141327247Y-113426974D01*
X141357505Y-113390105D01*
X141394374Y-113359847D01*
X141436437Y-113337364D01*
X141482076Y-113323520D01*
X141532026Y-113318600D01*
X142541574Y-113318600D01*
X142591524Y-113323520D01*
X142591524Y-113323520D01*
G37*
G36*
X132754724Y-112792120D02*
X132800363Y-112805964D01*
X132842426Y-112828447D01*
X132879295Y-112858705D01*
X132909553Y-112895574D01*
X132932036Y-112937637D01*
X132945880Y-112983276D01*
X132950800Y-113033226D01*
X132950800Y-114042774D01*
X132945880Y-114092724D01*
X132932036Y-114138363D01*
X132909553Y-114180426D01*
X132879295Y-114217295D01*
X132842426Y-114247553D01*
X132800363Y-114270036D01*
X132754724Y-114283880D01*
X132704774Y-114288800D01*
X131945226Y-114288800D01*
X131895276Y-114283880D01*
X131849637Y-114270036D01*
X131807574Y-114247553D01*
X131770705Y-114217295D01*
X131740447Y-114180426D01*
X131717964Y-114138363D01*
X131704120Y-114092724D01*
X131699200Y-114042774D01*
X131699200Y-113033226D01*
X131704120Y-112983276D01*
X131717964Y-112937637D01*
X131740447Y-112895574D01*
X131770705Y-112858705D01*
X131807574Y-112828447D01*
X131849637Y-112805964D01*
X131895276Y-112792120D01*
X131945226Y-112787200D01*
X132704774Y-112787200D01*
X132754724Y-112792120D01*
X132754724Y-112792120D01*
G37*
G36*
X134804724Y-112792120D02*
X134850363Y-112805964D01*
X134892426Y-112828447D01*
X134929295Y-112858705D01*
X134959553Y-112895574D01*
X134982036Y-112937637D01*
X134995880Y-112983276D01*
X135000800Y-113033226D01*
X135000800Y-114042774D01*
X134995880Y-114092724D01*
X134982036Y-114138363D01*
X134959553Y-114180426D01*
X134929295Y-114217295D01*
X134892426Y-114247553D01*
X134850363Y-114270036D01*
X134804724Y-114283880D01*
X134754774Y-114288800D01*
X133995226Y-114288800D01*
X133945276Y-114283880D01*
X133899637Y-114270036D01*
X133857574Y-114247553D01*
X133820705Y-114217295D01*
X133790447Y-114180426D01*
X133767964Y-114138363D01*
X133754120Y-114092724D01*
X133749200Y-114042774D01*
X133749200Y-113033226D01*
X133754120Y-112983276D01*
X133767964Y-112937637D01*
X133790447Y-112895574D01*
X133820705Y-112858705D01*
X133857574Y-112828447D01*
X133899637Y-112805964D01*
X133945276Y-112792120D01*
X133995226Y-112787200D01*
X134754774Y-112787200D01*
X134804724Y-112792120D01*
X134804724Y-112792120D01*
G37*
G36*
X152678188Y-111989834D02*
X152847989Y-112041343D01*
X153004479Y-112124989D01*
X153141643Y-112237557D01*
X153254211Y-112374721D01*
X153337857Y-112531211D01*
X153389366Y-112701012D01*
X153406758Y-112877600D01*
X153389366Y-113054188D01*
X153337857Y-113223989D01*
X153254211Y-113380479D01*
X153141643Y-113517643D01*
X153004479Y-113630211D01*
X152847989Y-113713857D01*
X152678188Y-113765366D01*
X152545849Y-113778400D01*
X152457351Y-113778400D01*
X152325012Y-113765366D01*
X152155211Y-113713857D01*
X151998721Y-113630211D01*
X151861557Y-113517643D01*
X151748989Y-113380479D01*
X151665343Y-113223989D01*
X151613834Y-113054188D01*
X151596442Y-112877600D01*
X151613834Y-112701012D01*
X151665343Y-112531211D01*
X151748989Y-112374721D01*
X151861557Y-112237557D01*
X151998721Y-112124989D01*
X152155211Y-112041343D01*
X152325012Y-111989834D01*
X152457351Y-111976800D01*
X152545849Y-111976800D01*
X152678188Y-111989834D01*
X152678188Y-111989834D01*
G37*
G36*
X147598188Y-111989834D02*
X147767989Y-112041343D01*
X147924479Y-112124989D01*
X148061643Y-112237557D01*
X148174211Y-112374721D01*
X148257857Y-112531211D01*
X148309366Y-112701012D01*
X148326758Y-112877600D01*
X148309366Y-113054188D01*
X148257857Y-113223989D01*
X148174211Y-113380479D01*
X148061643Y-113517643D01*
X147924479Y-113630211D01*
X147767989Y-113713857D01*
X147598188Y-113765366D01*
X147465849Y-113778400D01*
X147377351Y-113778400D01*
X147245012Y-113765366D01*
X147075211Y-113713857D01*
X146918721Y-113630211D01*
X146781557Y-113517643D01*
X146668989Y-113380479D01*
X146585343Y-113223989D01*
X146533834Y-113054188D01*
X146516442Y-112877600D01*
X146533834Y-112701012D01*
X146585343Y-112531211D01*
X146668989Y-112374721D01*
X146781557Y-112237557D01*
X146918721Y-112124989D01*
X147075211Y-112041343D01*
X147245012Y-111989834D01*
X147377351Y-111976800D01*
X147465849Y-111976800D01*
X147598188Y-111989834D01*
X147598188Y-111989834D01*
G37*
G36*
X150138188Y-111989834D02*
X150307989Y-112041343D01*
X150464479Y-112124989D01*
X150601643Y-112237557D01*
X150714211Y-112374721D01*
X150797857Y-112531211D01*
X150849366Y-112701012D01*
X150866758Y-112877600D01*
X150849366Y-113054188D01*
X150797857Y-113223989D01*
X150714211Y-113380479D01*
X150601643Y-113517643D01*
X150464479Y-113630211D01*
X150307989Y-113713857D01*
X150138188Y-113765366D01*
X150005849Y-113778400D01*
X149917351Y-113778400D01*
X149785012Y-113765366D01*
X149615211Y-113713857D01*
X149458721Y-113630211D01*
X149321557Y-113517643D01*
X149208989Y-113380479D01*
X149125343Y-113223989D01*
X149073834Y-113054188D01*
X149056442Y-112877600D01*
X149073834Y-112701012D01*
X149125343Y-112531211D01*
X149208989Y-112374721D01*
X149321557Y-112237557D01*
X149458721Y-112124989D01*
X149615211Y-112041343D01*
X149785012Y-111989834D01*
X149917351Y-111976800D01*
X150005849Y-111976800D01*
X150138188Y-111989834D01*
X150138188Y-111989834D01*
G37*
G36*
X155218188Y-111989834D02*
X155387989Y-112041343D01*
X155544479Y-112124989D01*
X155681643Y-112237557D01*
X155794211Y-112374721D01*
X155877857Y-112531211D01*
X155929366Y-112701012D01*
X155946758Y-112877600D01*
X155929366Y-113054188D01*
X155877857Y-113223989D01*
X155794211Y-113380479D01*
X155681643Y-113517643D01*
X155544479Y-113630211D01*
X155387989Y-113713857D01*
X155218188Y-113765366D01*
X155085849Y-113778400D01*
X154997351Y-113778400D01*
X154865012Y-113765366D01*
X154695211Y-113713857D01*
X154538721Y-113630211D01*
X154401557Y-113517643D01*
X154288989Y-113380479D01*
X154205343Y-113223989D01*
X154153834Y-113054188D01*
X154136442Y-112877600D01*
X154153834Y-112701012D01*
X154205343Y-112531211D01*
X154288989Y-112374721D01*
X154401557Y-112237557D01*
X154538721Y-112124989D01*
X154695211Y-112041343D01*
X154865012Y-111989834D01*
X154997351Y-111976800D01*
X155085849Y-111976800D01*
X155218188Y-111989834D01*
X155218188Y-111989834D01*
G37*
G36*
X157758188Y-111989834D02*
X157927989Y-112041343D01*
X158084479Y-112124989D01*
X158221643Y-112237557D01*
X158334211Y-112374721D01*
X158417857Y-112531211D01*
X158469366Y-112701012D01*
X158486758Y-112877600D01*
X158469366Y-113054188D01*
X158417857Y-113223989D01*
X158334211Y-113380479D01*
X158221643Y-113517643D01*
X158084479Y-113630211D01*
X157927989Y-113713857D01*
X157758188Y-113765366D01*
X157625849Y-113778400D01*
X157537351Y-113778400D01*
X157405012Y-113765366D01*
X157235211Y-113713857D01*
X157078721Y-113630211D01*
X156941557Y-113517643D01*
X156828989Y-113380479D01*
X156745343Y-113223989D01*
X156693834Y-113054188D01*
X156676442Y-112877600D01*
X156693834Y-112701012D01*
X156745343Y-112531211D01*
X156828989Y-112374721D01*
X156941557Y-112237557D01*
X157078721Y-112124989D01*
X157235211Y-112041343D01*
X157405012Y-111989834D01*
X157537351Y-111976800D01*
X157625849Y-111976800D01*
X157758188Y-111989834D01*
X157758188Y-111989834D01*
G37*
G36*
X160298188Y-111989834D02*
X160467989Y-112041343D01*
X160624479Y-112124989D01*
X160761643Y-112237557D01*
X160874211Y-112374721D01*
X160957857Y-112531211D01*
X161009366Y-112701012D01*
X161026758Y-112877600D01*
X161009366Y-113054188D01*
X160957857Y-113223989D01*
X160874211Y-113380479D01*
X160761643Y-113517643D01*
X160624479Y-113630211D01*
X160467989Y-113713857D01*
X160298188Y-113765366D01*
X160165849Y-113778400D01*
X160077351Y-113778400D01*
X159945012Y-113765366D01*
X159775211Y-113713857D01*
X159618721Y-113630211D01*
X159481557Y-113517643D01*
X159368989Y-113380479D01*
X159285343Y-113223989D01*
X159233834Y-113054188D01*
X159216442Y-112877600D01*
X159233834Y-112701012D01*
X159285343Y-112531211D01*
X159368989Y-112374721D01*
X159481557Y-112237557D01*
X159618721Y-112124989D01*
X159775211Y-112041343D01*
X159945012Y-111989834D01*
X160077351Y-111976800D01*
X160165849Y-111976800D01*
X160298188Y-111989834D01*
X160298188Y-111989834D01*
G37*
G36*
X162838188Y-111989834D02*
X163007989Y-112041343D01*
X163164479Y-112124989D01*
X163301643Y-112237557D01*
X163414211Y-112374721D01*
X163497857Y-112531211D01*
X163549366Y-112701012D01*
X163566758Y-112877600D01*
X163549366Y-113054188D01*
X163497857Y-113223989D01*
X163414211Y-113380479D01*
X163301643Y-113517643D01*
X163164479Y-113630211D01*
X163007989Y-113713857D01*
X162838188Y-113765366D01*
X162705849Y-113778400D01*
X162617351Y-113778400D01*
X162485012Y-113765366D01*
X162315211Y-113713857D01*
X162158721Y-113630211D01*
X162021557Y-113517643D01*
X161908989Y-113380479D01*
X161825343Y-113223989D01*
X161773834Y-113054188D01*
X161756442Y-112877600D01*
X161773834Y-112701012D01*
X161825343Y-112531211D01*
X161908989Y-112374721D01*
X162021557Y-112237557D01*
X162158721Y-112124989D01*
X162315211Y-112041343D01*
X162485012Y-111989834D01*
X162617351Y-111976800D01*
X162705849Y-111976800D01*
X162838188Y-111989834D01*
X162838188Y-111989834D01*
G37*
G36*
X145058188Y-111989834D02*
X145227989Y-112041343D01*
X145384479Y-112124989D01*
X145521643Y-112237557D01*
X145634211Y-112374721D01*
X145717857Y-112531211D01*
X145769366Y-112701012D01*
X145786758Y-112877600D01*
X145769366Y-113054188D01*
X145717857Y-113223989D01*
X145634211Y-113380479D01*
X145521643Y-113517643D01*
X145384479Y-113630211D01*
X145227989Y-113713857D01*
X145058188Y-113765366D01*
X144925849Y-113778400D01*
X144837351Y-113778400D01*
X144705012Y-113765366D01*
X144535211Y-113713857D01*
X144378721Y-113630211D01*
X144241557Y-113517643D01*
X144128989Y-113380479D01*
X144045343Y-113223989D01*
X143993834Y-113054188D01*
X143976442Y-112877600D01*
X143993834Y-112701012D01*
X144045343Y-112531211D01*
X144128989Y-112374721D01*
X144241557Y-112237557D01*
X144378721Y-112124989D01*
X144535211Y-112041343D01*
X144705012Y-111989834D01*
X144837351Y-111976800D01*
X144925849Y-111976800D01*
X145058188Y-111989834D01*
X145058188Y-111989834D01*
G37*
G36*
X139317788Y-111989834D02*
X139487589Y-112041343D01*
X139644079Y-112124989D01*
X139781243Y-112237557D01*
X139893811Y-112374721D01*
X139977457Y-112531211D01*
X140028966Y-112701012D01*
X140046358Y-112877600D01*
X140028966Y-113054188D01*
X139977457Y-113223989D01*
X139893811Y-113380479D01*
X139781243Y-113517643D01*
X139644079Y-113630211D01*
X139487589Y-113713857D01*
X139317788Y-113765366D01*
X139185449Y-113778400D01*
X139096951Y-113778400D01*
X138964612Y-113765366D01*
X138794811Y-113713857D01*
X138638321Y-113630211D01*
X138501157Y-113517643D01*
X138388589Y-113380479D01*
X138304943Y-113223989D01*
X138253434Y-113054188D01*
X138236042Y-112877600D01*
X138253434Y-112701012D01*
X138304943Y-112531211D01*
X138388589Y-112374721D01*
X138501157Y-112237557D01*
X138638321Y-112124989D01*
X138794811Y-112041343D01*
X138964612Y-111989834D01*
X139096951Y-111976800D01*
X139185449Y-111976800D01*
X139317788Y-111989834D01*
X139317788Y-111989834D01*
G37*
G36*
X168045188Y-111329434D02*
X168214989Y-111380943D01*
X168371479Y-111464589D01*
X168508643Y-111577157D01*
X168621211Y-111714321D01*
X168704857Y-111870811D01*
X168756366Y-112040612D01*
X168773758Y-112217200D01*
X168756366Y-112393788D01*
X168704857Y-112563589D01*
X168621211Y-112720079D01*
X168508643Y-112857243D01*
X168371479Y-112969811D01*
X168214989Y-113053457D01*
X168045188Y-113104966D01*
X167912849Y-113118000D01*
X167824351Y-113118000D01*
X167692012Y-113104966D01*
X167522211Y-113053457D01*
X167365721Y-112969811D01*
X167228557Y-112857243D01*
X167115989Y-112720079D01*
X167032343Y-112563589D01*
X166980834Y-112393788D01*
X166963442Y-112217200D01*
X166980834Y-112040612D01*
X167032343Y-111870811D01*
X167115989Y-111714321D01*
X167228557Y-111577157D01*
X167365721Y-111464589D01*
X167522211Y-111380943D01*
X167692012Y-111329434D01*
X167824351Y-111316400D01*
X167912849Y-111316400D01*
X168045188Y-111329434D01*
X168045188Y-111329434D01*
G37*
G36*
X170585188Y-111329434D02*
X170754989Y-111380943D01*
X170911479Y-111464589D01*
X171048643Y-111577157D01*
X171161211Y-111714321D01*
X171244857Y-111870811D01*
X171296366Y-112040612D01*
X171313758Y-112217200D01*
X171296366Y-112393788D01*
X171244857Y-112563589D01*
X171161211Y-112720079D01*
X171048643Y-112857243D01*
X170911479Y-112969811D01*
X170754989Y-113053457D01*
X170585188Y-113104966D01*
X170452849Y-113118000D01*
X170364351Y-113118000D01*
X170232012Y-113104966D01*
X170062211Y-113053457D01*
X169905721Y-112969811D01*
X169768557Y-112857243D01*
X169655989Y-112720079D01*
X169572343Y-112563589D01*
X169520834Y-112393788D01*
X169503442Y-112217200D01*
X169520834Y-112040612D01*
X169572343Y-111870811D01*
X169655989Y-111714321D01*
X169768557Y-111577157D01*
X169905721Y-111464589D01*
X170062211Y-111380943D01*
X170232012Y-111329434D01*
X170364351Y-111316400D01*
X170452849Y-111316400D01*
X170585188Y-111329434D01*
X170585188Y-111329434D01*
G37*
G36*
X142591524Y-111273520D02*
X142637163Y-111287364D01*
X142679226Y-111309847D01*
X142716095Y-111340105D01*
X142746353Y-111376974D01*
X142768836Y-111419037D01*
X142782680Y-111464676D01*
X142787600Y-111514626D01*
X142787600Y-112274174D01*
X142782680Y-112324124D01*
X142768836Y-112369763D01*
X142746353Y-112411826D01*
X142716095Y-112448695D01*
X142679226Y-112478953D01*
X142637163Y-112501436D01*
X142591524Y-112515280D01*
X142541574Y-112520200D01*
X141532026Y-112520200D01*
X141482076Y-112515280D01*
X141436437Y-112501436D01*
X141394374Y-112478953D01*
X141357505Y-112448695D01*
X141327247Y-112411826D01*
X141304764Y-112369763D01*
X141290920Y-112324124D01*
X141286000Y-112274174D01*
X141286000Y-111514626D01*
X141290920Y-111464676D01*
X141304764Y-111419037D01*
X141327247Y-111376974D01*
X141357505Y-111340105D01*
X141394374Y-111309847D01*
X141436437Y-111287364D01*
X141482076Y-111273520D01*
X141532026Y-111268600D01*
X142541574Y-111268600D01*
X142591524Y-111273520D01*
X142591524Y-111273520D01*
G37*
G36*
X129208588Y-109983234D02*
X129378389Y-110034743D01*
X129534879Y-110118389D01*
X129672043Y-110230957D01*
X129784611Y-110368121D01*
X129868257Y-110524611D01*
X129919766Y-110694412D01*
X129937158Y-110871000D01*
X129919766Y-111047588D01*
X129868257Y-111217389D01*
X129784611Y-111373879D01*
X129672043Y-111511043D01*
X129534879Y-111623611D01*
X129378389Y-111707257D01*
X129208588Y-111758766D01*
X129076249Y-111771800D01*
X128987751Y-111771800D01*
X128855412Y-111758766D01*
X128685611Y-111707257D01*
X128529121Y-111623611D01*
X128391957Y-111511043D01*
X128279389Y-111373879D01*
X128195743Y-111217389D01*
X128144234Y-111047588D01*
X128126842Y-110871000D01*
X128144234Y-110694412D01*
X128195743Y-110524611D01*
X128279389Y-110368121D01*
X128391957Y-110230957D01*
X128529121Y-110118389D01*
X128685611Y-110034743D01*
X128855412Y-109983234D01*
X128987751Y-109970200D01*
X129076249Y-109970200D01*
X129208588Y-109983234D01*
X129208588Y-109983234D01*
G37*
G36*
X117232800Y-111771800D02*
X115431200Y-111771800D01*
X115431200Y-109970200D01*
X117232800Y-109970200D01*
X117232800Y-111771800D01*
X117232800Y-111771800D01*
G37*
G36*
X119048588Y-109983234D02*
X119218389Y-110034743D01*
X119374879Y-110118389D01*
X119512043Y-110230957D01*
X119624611Y-110368121D01*
X119708257Y-110524611D01*
X119759766Y-110694412D01*
X119777158Y-110871000D01*
X119759766Y-111047588D01*
X119708257Y-111217389D01*
X119624611Y-111373879D01*
X119512043Y-111511043D01*
X119374879Y-111623611D01*
X119218389Y-111707257D01*
X119048588Y-111758766D01*
X118916249Y-111771800D01*
X118827751Y-111771800D01*
X118695412Y-111758766D01*
X118525611Y-111707257D01*
X118369121Y-111623611D01*
X118231957Y-111511043D01*
X118119389Y-111373879D01*
X118035743Y-111217389D01*
X117984234Y-111047588D01*
X117966842Y-110871000D01*
X117984234Y-110694412D01*
X118035743Y-110524611D01*
X118119389Y-110368121D01*
X118231957Y-110230957D01*
X118369121Y-110118389D01*
X118525611Y-110034743D01*
X118695412Y-109983234D01*
X118827751Y-109970200D01*
X118916249Y-109970200D01*
X119048588Y-109983234D01*
X119048588Y-109983234D01*
G37*
G36*
X124128588Y-109983234D02*
X124298389Y-110034743D01*
X124454879Y-110118389D01*
X124592043Y-110230957D01*
X124704611Y-110368121D01*
X124788257Y-110524611D01*
X124839766Y-110694412D01*
X124857158Y-110871000D01*
X124839766Y-111047588D01*
X124788257Y-111217389D01*
X124704611Y-111373879D01*
X124592043Y-111511043D01*
X124454879Y-111623611D01*
X124298389Y-111707257D01*
X124128588Y-111758766D01*
X123996249Y-111771800D01*
X123907751Y-111771800D01*
X123775412Y-111758766D01*
X123605611Y-111707257D01*
X123449121Y-111623611D01*
X123311957Y-111511043D01*
X123199389Y-111373879D01*
X123115743Y-111217389D01*
X123064234Y-111047588D01*
X123046842Y-110871000D01*
X123064234Y-110694412D01*
X123115743Y-110524611D01*
X123199389Y-110368121D01*
X123311957Y-110230957D01*
X123449121Y-110118389D01*
X123605611Y-110034743D01*
X123775412Y-109983234D01*
X123907751Y-109970200D01*
X123996249Y-109970200D01*
X124128588Y-109983234D01*
X124128588Y-109983234D01*
G37*
G36*
X126668588Y-109983234D02*
X126838389Y-110034743D01*
X126994879Y-110118389D01*
X127132043Y-110230957D01*
X127244611Y-110368121D01*
X127328257Y-110524611D01*
X127379766Y-110694412D01*
X127397158Y-110871000D01*
X127379766Y-111047588D01*
X127328257Y-111217389D01*
X127244611Y-111373879D01*
X127132043Y-111511043D01*
X126994879Y-111623611D01*
X126838389Y-111707257D01*
X126668588Y-111758766D01*
X126536249Y-111771800D01*
X126447751Y-111771800D01*
X126315412Y-111758766D01*
X126145611Y-111707257D01*
X125989121Y-111623611D01*
X125851957Y-111511043D01*
X125739389Y-111373879D01*
X125655743Y-111217389D01*
X125604234Y-111047588D01*
X125586842Y-110871000D01*
X125604234Y-110694412D01*
X125655743Y-110524611D01*
X125739389Y-110368121D01*
X125851957Y-110230957D01*
X125989121Y-110118389D01*
X126145611Y-110034743D01*
X126315412Y-109983234D01*
X126447751Y-109970200D01*
X126536249Y-109970200D01*
X126668588Y-109983234D01*
X126668588Y-109983234D01*
G37*
G36*
X121588588Y-109983234D02*
X121758389Y-110034743D01*
X121914879Y-110118389D01*
X122052043Y-110230957D01*
X122164611Y-110368121D01*
X122248257Y-110524611D01*
X122299766Y-110694412D01*
X122317158Y-110871000D01*
X122299766Y-111047588D01*
X122248257Y-111217389D01*
X122164611Y-111373879D01*
X122052043Y-111511043D01*
X121914879Y-111623611D01*
X121758389Y-111707257D01*
X121588588Y-111758766D01*
X121456249Y-111771800D01*
X121367751Y-111771800D01*
X121235412Y-111758766D01*
X121065611Y-111707257D01*
X120909121Y-111623611D01*
X120771957Y-111511043D01*
X120659389Y-111373879D01*
X120575743Y-111217389D01*
X120524234Y-111047588D01*
X120506842Y-110871000D01*
X120524234Y-110694412D01*
X120575743Y-110524611D01*
X120659389Y-110368121D01*
X120771957Y-110230957D01*
X120909121Y-110118389D01*
X121065611Y-110034743D01*
X121235412Y-109983234D01*
X121367751Y-109970200D01*
X121456249Y-109970200D01*
X121588588Y-109983234D01*
X121588588Y-109983234D01*
G37*
G36*
X168045188Y-108789434D02*
X168214989Y-108840943D01*
X168371479Y-108924589D01*
X168508643Y-109037157D01*
X168621211Y-109174321D01*
X168704857Y-109330811D01*
X168756366Y-109500612D01*
X168773758Y-109677200D01*
X168756366Y-109853788D01*
X168704857Y-110023589D01*
X168621211Y-110180079D01*
X168508643Y-110317243D01*
X168371479Y-110429811D01*
X168214989Y-110513457D01*
X168045188Y-110564966D01*
X167912849Y-110578000D01*
X167824351Y-110578000D01*
X167692012Y-110564966D01*
X167522211Y-110513457D01*
X167365721Y-110429811D01*
X167228557Y-110317243D01*
X167115989Y-110180079D01*
X167032343Y-110023589D01*
X166980834Y-109853788D01*
X166963442Y-109677200D01*
X166980834Y-109500612D01*
X167032343Y-109330811D01*
X167115989Y-109174321D01*
X167228557Y-109037157D01*
X167365721Y-108924589D01*
X167522211Y-108840943D01*
X167692012Y-108789434D01*
X167824351Y-108776400D01*
X167912849Y-108776400D01*
X168045188Y-108789434D01*
X168045188Y-108789434D01*
G37*
G36*
X170585188Y-108789434D02*
X170754989Y-108840943D01*
X170911479Y-108924589D01*
X171048643Y-109037157D01*
X171161211Y-109174321D01*
X171244857Y-109330811D01*
X171296366Y-109500612D01*
X171313758Y-109677200D01*
X171296366Y-109853788D01*
X171244857Y-110023589D01*
X171161211Y-110180079D01*
X171048643Y-110317243D01*
X170911479Y-110429811D01*
X170754989Y-110513457D01*
X170585188Y-110564966D01*
X170452849Y-110578000D01*
X170364351Y-110578000D01*
X170232012Y-110564966D01*
X170062211Y-110513457D01*
X169905721Y-110429811D01*
X169768557Y-110317243D01*
X169655989Y-110180079D01*
X169572343Y-110023589D01*
X169520834Y-109853788D01*
X169503442Y-109677200D01*
X169520834Y-109500612D01*
X169572343Y-109330811D01*
X169655989Y-109174321D01*
X169768557Y-109037157D01*
X169905721Y-108924589D01*
X170062211Y-108840943D01*
X170232012Y-108789434D01*
X170364351Y-108776400D01*
X170452849Y-108776400D01*
X170585188Y-108789434D01*
X170585188Y-108789434D01*
G37*
G36*
X162682200Y-109787100D02*
X161980600Y-109787100D01*
X161980600Y-108185500D01*
X162682200Y-108185500D01*
X162682200Y-109787100D01*
X162682200Y-109787100D01*
G37*
G36*
X163952200Y-109787100D02*
X163250600Y-109787100D01*
X163250600Y-108185500D01*
X163952200Y-108185500D01*
X163952200Y-109787100D01*
X163952200Y-109787100D01*
G37*
G36*
X161412200Y-109787100D02*
X160710600Y-109787100D01*
X160710600Y-108185500D01*
X161412200Y-108185500D01*
X161412200Y-109787100D01*
X161412200Y-109787100D01*
G37*
G36*
X158872200Y-109787100D02*
X158170600Y-109787100D01*
X158170600Y-108185500D01*
X158872200Y-108185500D01*
X158872200Y-109787100D01*
X158872200Y-109787100D01*
G37*
G36*
X157602200Y-109787100D02*
X156900600Y-109787100D01*
X156900600Y-108185500D01*
X157602200Y-108185500D01*
X157602200Y-109787100D01*
X157602200Y-109787100D01*
G37*
G36*
X156332200Y-109787100D02*
X155630600Y-109787100D01*
X155630600Y-108185500D01*
X156332200Y-108185500D01*
X156332200Y-109787100D01*
X156332200Y-109787100D01*
G37*
G36*
X155062200Y-109787100D02*
X154360600Y-109787100D01*
X154360600Y-108185500D01*
X155062200Y-108185500D01*
X155062200Y-109787100D01*
X155062200Y-109787100D01*
G37*
G36*
X160142200Y-109787100D02*
X159440600Y-109787100D01*
X159440600Y-108185500D01*
X160142200Y-108185500D01*
X160142200Y-109787100D01*
X160142200Y-109787100D01*
G37*
G36*
X105902747Y-108435288D02*
X106012086Y-108480578D01*
X106110488Y-108546328D01*
X106194172Y-108630012D01*
X106259922Y-108728414D01*
X106305212Y-108837753D01*
X106328300Y-108953826D01*
X106328300Y-109072174D01*
X106305212Y-109188247D01*
X106259922Y-109297586D01*
X106194172Y-109395988D01*
X106110488Y-109479672D01*
X106012086Y-109545422D01*
X105902747Y-109590712D01*
X105786674Y-109613800D01*
X105668326Y-109613800D01*
X105552253Y-109590712D01*
X105442914Y-109545422D01*
X105344512Y-109479672D01*
X105260828Y-109395988D01*
X105195078Y-109297586D01*
X105149788Y-109188247D01*
X105126700Y-109072174D01*
X105126700Y-108953826D01*
X105149788Y-108837753D01*
X105195078Y-108728414D01*
X105260828Y-108630012D01*
X105344512Y-108546328D01*
X105442914Y-108480578D01*
X105552253Y-108435288D01*
X105668326Y-108412200D01*
X105786674Y-108412200D01*
X105902747Y-108435288D01*
X105902747Y-108435288D01*
G37*
G36*
X146096000Y-109494600D02*
X145394400Y-109494600D01*
X145394400Y-107843000D01*
X146096000Y-107843000D01*
X146096000Y-109494600D01*
X146096000Y-109494600D01*
G37*
G36*
X144826000Y-109494600D02*
X144124400Y-109494600D01*
X144124400Y-107843000D01*
X144826000Y-107843000D01*
X144826000Y-109494600D01*
X144826000Y-109494600D01*
G37*
G36*
X143556000Y-109494600D02*
X142854400Y-109494600D01*
X142854400Y-107843000D01*
X143556000Y-107843000D01*
X143556000Y-109494600D01*
X143556000Y-109494600D01*
G37*
G36*
X142286000Y-109494600D02*
X141584400Y-109494600D01*
X141584400Y-107843000D01*
X142286000Y-107843000D01*
X142286000Y-109494600D01*
X142286000Y-109494600D01*
G37*
G36*
X149376500Y-108825400D02*
X147574900Y-108825400D01*
X147574900Y-107023800D01*
X149376500Y-107023800D01*
X149376500Y-108825400D01*
X149376500Y-108825400D01*
G37*
G36*
X139343188Y-107011434D02*
X139512989Y-107062943D01*
X139669479Y-107146589D01*
X139806643Y-107259157D01*
X139919211Y-107396321D01*
X140002857Y-107552811D01*
X140054366Y-107722612D01*
X140071758Y-107899200D01*
X140054366Y-108075788D01*
X140002857Y-108245589D01*
X139919211Y-108402079D01*
X139806643Y-108539243D01*
X139669479Y-108651811D01*
X139512989Y-108735457D01*
X139343188Y-108786966D01*
X139210849Y-108800000D01*
X139122351Y-108800000D01*
X138990012Y-108786966D01*
X138820211Y-108735457D01*
X138663721Y-108651811D01*
X138526557Y-108539243D01*
X138413989Y-108402079D01*
X138330343Y-108245589D01*
X138278834Y-108075788D01*
X138261442Y-107899200D01*
X138278834Y-107722612D01*
X138330343Y-107552811D01*
X138413989Y-107396321D01*
X138526557Y-107259157D01*
X138663721Y-107146589D01*
X138820211Y-107062943D01*
X138990012Y-107011434D01*
X139122351Y-106998400D01*
X139210849Y-106998400D01*
X139343188Y-107011434D01*
X139343188Y-107011434D01*
G37*
G36*
X168045188Y-106249434D02*
X168214989Y-106300943D01*
X168371479Y-106384589D01*
X168508643Y-106497157D01*
X168621211Y-106634321D01*
X168704857Y-106790811D01*
X168756366Y-106960612D01*
X168773758Y-107137200D01*
X168756366Y-107313788D01*
X168704857Y-107483589D01*
X168621211Y-107640079D01*
X168508643Y-107777243D01*
X168371479Y-107889811D01*
X168214989Y-107973457D01*
X168045188Y-108024966D01*
X167912849Y-108038000D01*
X167824351Y-108038000D01*
X167692012Y-108024966D01*
X167522211Y-107973457D01*
X167365721Y-107889811D01*
X167228557Y-107777243D01*
X167115989Y-107640079D01*
X167032343Y-107483589D01*
X166980834Y-107313788D01*
X166963442Y-107137200D01*
X166980834Y-106960612D01*
X167032343Y-106790811D01*
X167115989Y-106634321D01*
X167228557Y-106497157D01*
X167365721Y-106384589D01*
X167522211Y-106300943D01*
X167692012Y-106249434D01*
X167824351Y-106236400D01*
X167912849Y-106236400D01*
X168045188Y-106249434D01*
X168045188Y-106249434D01*
G37*
G36*
X170585188Y-106249434D02*
X170754989Y-106300943D01*
X170911479Y-106384589D01*
X171048643Y-106497157D01*
X171161211Y-106634321D01*
X171244857Y-106790811D01*
X171296366Y-106960612D01*
X171313758Y-107137200D01*
X171296366Y-107313788D01*
X171244857Y-107483589D01*
X171161211Y-107640079D01*
X171048643Y-107777243D01*
X170911479Y-107889811D01*
X170754989Y-107973457D01*
X170585188Y-108024966D01*
X170452849Y-108038000D01*
X170364351Y-108038000D01*
X170232012Y-108024966D01*
X170062211Y-107973457D01*
X169905721Y-107889811D01*
X169768557Y-107777243D01*
X169655989Y-107640079D01*
X169572343Y-107483589D01*
X169520834Y-107313788D01*
X169503442Y-107137200D01*
X169520834Y-106960612D01*
X169572343Y-106790811D01*
X169655989Y-106634321D01*
X169768557Y-106497157D01*
X169905721Y-106384589D01*
X170062211Y-106300943D01*
X170232012Y-106249434D01*
X170364351Y-106236400D01*
X170452849Y-106236400D01*
X170585188Y-106249434D01*
X170585188Y-106249434D01*
G37*
G36*
X148652288Y-104496834D02*
X148822089Y-104548343D01*
X148978579Y-104631989D01*
X149115743Y-104744557D01*
X149228311Y-104881721D01*
X149311957Y-105038211D01*
X149363466Y-105208012D01*
X149380858Y-105384600D01*
X149363466Y-105561188D01*
X149311957Y-105730989D01*
X149228311Y-105887479D01*
X149115743Y-106024643D01*
X148978579Y-106137211D01*
X148822089Y-106220857D01*
X148652288Y-106272366D01*
X148519949Y-106285400D01*
X148431451Y-106285400D01*
X148299112Y-106272366D01*
X148129311Y-106220857D01*
X147972821Y-106137211D01*
X147835657Y-106024643D01*
X147723089Y-105887479D01*
X147639443Y-105730989D01*
X147587934Y-105561188D01*
X147570542Y-105384600D01*
X147587934Y-105208012D01*
X147639443Y-105038211D01*
X147723089Y-104881721D01*
X147835657Y-104744557D01*
X147972821Y-104631989D01*
X148129311Y-104548343D01*
X148299112Y-104496834D01*
X148431451Y-104483800D01*
X148519949Y-104483800D01*
X148652288Y-104496834D01*
X148652288Y-104496834D01*
G37*
G36*
X140067400Y-106260000D02*
X138265800Y-106260000D01*
X138265800Y-104458400D01*
X140067400Y-104458400D01*
X140067400Y-106260000D01*
X140067400Y-106260000D01*
G37*
G36*
X153361124Y-104903420D02*
X153406763Y-104917264D01*
X153448826Y-104939747D01*
X153485695Y-104970005D01*
X153515953Y-105006874D01*
X153538436Y-105048937D01*
X153552280Y-105094576D01*
X153557200Y-105144526D01*
X153557200Y-105904074D01*
X153552280Y-105954024D01*
X153538436Y-105999663D01*
X153515953Y-106041726D01*
X153485695Y-106078595D01*
X153448826Y-106108853D01*
X153406763Y-106131336D01*
X153361124Y-106145180D01*
X153311174Y-106150100D01*
X152301626Y-106150100D01*
X152251676Y-106145180D01*
X152206037Y-106131336D01*
X152163974Y-106108853D01*
X152127105Y-106078595D01*
X152096847Y-106041726D01*
X152074364Y-105999663D01*
X152060520Y-105954024D01*
X152055600Y-105904074D01*
X152055600Y-105144526D01*
X152060520Y-105094576D01*
X152074364Y-105048937D01*
X152096847Y-105006874D01*
X152127105Y-104970005D01*
X152163974Y-104939747D01*
X152206037Y-104917264D01*
X152251676Y-104903420D01*
X152301626Y-104898500D01*
X153311174Y-104898500D01*
X153361124Y-104903420D01*
X153361124Y-104903420D01*
G37*
G36*
X170585188Y-103709434D02*
X170754989Y-103760943D01*
X170911479Y-103844589D01*
X171048643Y-103957157D01*
X171161211Y-104094321D01*
X171244857Y-104250811D01*
X171296366Y-104420612D01*
X171313758Y-104597200D01*
X171296366Y-104773788D01*
X171244857Y-104943589D01*
X171161211Y-105100079D01*
X171048643Y-105237243D01*
X170911479Y-105349811D01*
X170754989Y-105433457D01*
X170585188Y-105484966D01*
X170452849Y-105498000D01*
X170364351Y-105498000D01*
X170232012Y-105484966D01*
X170062211Y-105433457D01*
X169905721Y-105349811D01*
X169768557Y-105237243D01*
X169655989Y-105100079D01*
X169572343Y-104943589D01*
X169520834Y-104773788D01*
X169503442Y-104597200D01*
X169520834Y-104420612D01*
X169572343Y-104250811D01*
X169655989Y-104094321D01*
X169768557Y-103957157D01*
X169905721Y-103844589D01*
X170062211Y-103760943D01*
X170232012Y-103709434D01*
X170364351Y-103696400D01*
X170452849Y-103696400D01*
X170585188Y-103709434D01*
X170585188Y-103709434D01*
G37*
G36*
X168045188Y-103709434D02*
X168214989Y-103760943D01*
X168371479Y-103844589D01*
X168508643Y-103957157D01*
X168621211Y-104094321D01*
X168704857Y-104250811D01*
X168756366Y-104420612D01*
X168773758Y-104597200D01*
X168756366Y-104773788D01*
X168704857Y-104943589D01*
X168621211Y-105100079D01*
X168508643Y-105237243D01*
X168371479Y-105349811D01*
X168214989Y-105433457D01*
X168045188Y-105484966D01*
X167912849Y-105498000D01*
X167824351Y-105498000D01*
X167692012Y-105484966D01*
X167522211Y-105433457D01*
X167365721Y-105349811D01*
X167228557Y-105237243D01*
X167115989Y-105100079D01*
X167032343Y-104943589D01*
X166980834Y-104773788D01*
X166963442Y-104597200D01*
X166980834Y-104420612D01*
X167032343Y-104250811D01*
X167115989Y-104094321D01*
X167228557Y-103957157D01*
X167365721Y-103844589D01*
X167522211Y-103760943D01*
X167692012Y-103709434D01*
X167824351Y-103696400D01*
X167912849Y-103696400D01*
X168045188Y-103709434D01*
X168045188Y-103709434D01*
G37*
G36*
X157602200Y-104387100D02*
X156900600Y-104387100D01*
X156900600Y-102785500D01*
X157602200Y-102785500D01*
X157602200Y-104387100D01*
X157602200Y-104387100D01*
G37*
G36*
X163952200Y-104387100D02*
X163250600Y-104387100D01*
X163250600Y-102785500D01*
X163952200Y-102785500D01*
X163952200Y-104387100D01*
X163952200Y-104387100D01*
G37*
G36*
X162682200Y-104387100D02*
X161980600Y-104387100D01*
X161980600Y-102785500D01*
X162682200Y-102785500D01*
X162682200Y-104387100D01*
X162682200Y-104387100D01*
G37*
G36*
X161412200Y-104387100D02*
X160710600Y-104387100D01*
X160710600Y-102785500D01*
X161412200Y-102785500D01*
X161412200Y-104387100D01*
X161412200Y-104387100D01*
G37*
G36*
X160142200Y-104387100D02*
X159440600Y-104387100D01*
X159440600Y-102785500D01*
X160142200Y-102785500D01*
X160142200Y-104387100D01*
X160142200Y-104387100D01*
G37*
G36*
X158872200Y-104387100D02*
X158170600Y-104387100D01*
X158170600Y-102785500D01*
X158872200Y-102785500D01*
X158872200Y-104387100D01*
X158872200Y-104387100D01*
G37*
G36*
X156332200Y-104387100D02*
X155630600Y-104387100D01*
X155630600Y-102785500D01*
X156332200Y-102785500D01*
X156332200Y-104387100D01*
X156332200Y-104387100D01*
G37*
G36*
X155062200Y-104387100D02*
X154360600Y-104387100D01*
X154360600Y-102785500D01*
X155062200Y-102785500D01*
X155062200Y-104387100D01*
X155062200Y-104387100D01*
G37*
G36*
X153361124Y-102853420D02*
X153406763Y-102867264D01*
X153448826Y-102889747D01*
X153485695Y-102920005D01*
X153515953Y-102956874D01*
X153538436Y-102998937D01*
X153552280Y-103044576D01*
X153557200Y-103094526D01*
X153557200Y-103854074D01*
X153552280Y-103904024D01*
X153538436Y-103949663D01*
X153515953Y-103991726D01*
X153485695Y-104028595D01*
X153448826Y-104058853D01*
X153406763Y-104081336D01*
X153361124Y-104095180D01*
X153311174Y-104100100D01*
X152301626Y-104100100D01*
X152251676Y-104095180D01*
X152206037Y-104081336D01*
X152163974Y-104058853D01*
X152127105Y-104028595D01*
X152096847Y-103991726D01*
X152074364Y-103949663D01*
X152060520Y-103904024D01*
X152055600Y-103854074D01*
X152055600Y-103094526D01*
X152060520Y-103044576D01*
X152074364Y-102998937D01*
X152096847Y-102956874D01*
X152127105Y-102920005D01*
X152163974Y-102889747D01*
X152206037Y-102867264D01*
X152251676Y-102853420D01*
X152301626Y-102848500D01*
X153311174Y-102848500D01*
X153361124Y-102853420D01*
X153361124Y-102853420D01*
G37*
G36*
X142286000Y-104094600D02*
X141584400Y-104094600D01*
X141584400Y-102443000D01*
X142286000Y-102443000D01*
X142286000Y-104094600D01*
X142286000Y-104094600D01*
G37*
G36*
X146096000Y-104094600D02*
X145394400Y-104094600D01*
X145394400Y-102443000D01*
X146096000Y-102443000D01*
X146096000Y-104094600D01*
X146096000Y-104094600D01*
G37*
G36*
X144826000Y-104094600D02*
X144124400Y-104094600D01*
X144124400Y-102443000D01*
X144826000Y-102443000D01*
X144826000Y-104094600D01*
X144826000Y-104094600D01*
G37*
G36*
X143556000Y-104094600D02*
X142854400Y-104094600D01*
X142854400Y-102443000D01*
X143556000Y-102443000D01*
X143556000Y-104094600D01*
X143556000Y-104094600D01*
G37*
G36*
X149993924Y-101755820D02*
X150039563Y-101769664D01*
X150081626Y-101792147D01*
X150118495Y-101822405D01*
X150148753Y-101859274D01*
X150171236Y-101901337D01*
X150185080Y-101946976D01*
X150190000Y-101996926D01*
X150190000Y-103006474D01*
X150185080Y-103056424D01*
X150171236Y-103102063D01*
X150148753Y-103144126D01*
X150118495Y-103180995D01*
X150081626Y-103211253D01*
X150039563Y-103233736D01*
X149993924Y-103247580D01*
X149943974Y-103252500D01*
X149184426Y-103252500D01*
X149134476Y-103247580D01*
X149088837Y-103233736D01*
X149046774Y-103211253D01*
X149009905Y-103180995D01*
X148979647Y-103144126D01*
X148957164Y-103102063D01*
X148943320Y-103056424D01*
X148938400Y-103006474D01*
X148938400Y-101996926D01*
X148943320Y-101946976D01*
X148957164Y-101901337D01*
X148979647Y-101859274D01*
X149009905Y-101822405D01*
X149046774Y-101792147D01*
X149088837Y-101769664D01*
X149134476Y-101755820D01*
X149184426Y-101750900D01*
X149943974Y-101750900D01*
X149993924Y-101755820D01*
X149993924Y-101755820D01*
G37*
G36*
X147943924Y-101755820D02*
X147989563Y-101769664D01*
X148031626Y-101792147D01*
X148068495Y-101822405D01*
X148098753Y-101859274D01*
X148121236Y-101901337D01*
X148135080Y-101946976D01*
X148140000Y-101996926D01*
X148140000Y-103006474D01*
X148135080Y-103056424D01*
X148121236Y-103102063D01*
X148098753Y-103144126D01*
X148068495Y-103180995D01*
X148031626Y-103211253D01*
X147989563Y-103233736D01*
X147943924Y-103247580D01*
X147893974Y-103252500D01*
X147134426Y-103252500D01*
X147084476Y-103247580D01*
X147038837Y-103233736D01*
X146996774Y-103211253D01*
X146959905Y-103180995D01*
X146929647Y-103144126D01*
X146907164Y-103102063D01*
X146893320Y-103056424D01*
X146888400Y-103006474D01*
X146888400Y-101996926D01*
X146893320Y-101946976D01*
X146907164Y-101901337D01*
X146929647Y-101859274D01*
X146959905Y-101822405D01*
X146996774Y-101792147D01*
X147038837Y-101769664D01*
X147084476Y-101755820D01*
X147134426Y-101750900D01*
X147893974Y-101750900D01*
X147943924Y-101755820D01*
X147943924Y-101755820D01*
G37*
G36*
X168045188Y-101169434D02*
X168214989Y-101220943D01*
X168371479Y-101304589D01*
X168508643Y-101417157D01*
X168621211Y-101554321D01*
X168704857Y-101710811D01*
X168756366Y-101880612D01*
X168773758Y-102057200D01*
X168756366Y-102233788D01*
X168704857Y-102403589D01*
X168621211Y-102560079D01*
X168508643Y-102697243D01*
X168371479Y-102809811D01*
X168214989Y-102893457D01*
X168045188Y-102944966D01*
X167912849Y-102958000D01*
X167824351Y-102958000D01*
X167692012Y-102944966D01*
X167522211Y-102893457D01*
X167365721Y-102809811D01*
X167228557Y-102697243D01*
X167115989Y-102560079D01*
X167032343Y-102403589D01*
X166980834Y-102233788D01*
X166963442Y-102057200D01*
X166980834Y-101880612D01*
X167032343Y-101710811D01*
X167115989Y-101554321D01*
X167228557Y-101417157D01*
X167365721Y-101304589D01*
X167522211Y-101220943D01*
X167692012Y-101169434D01*
X167824351Y-101156400D01*
X167912849Y-101156400D01*
X168045188Y-101169434D01*
X168045188Y-101169434D01*
G37*
G36*
X170585188Y-101169434D02*
X170754989Y-101220943D01*
X170911479Y-101304589D01*
X171048643Y-101417157D01*
X171161211Y-101554321D01*
X171244857Y-101710811D01*
X171296366Y-101880612D01*
X171313758Y-102057200D01*
X171296366Y-102233788D01*
X171244857Y-102403589D01*
X171161211Y-102560079D01*
X171048643Y-102697243D01*
X170911479Y-102809811D01*
X170754989Y-102893457D01*
X170585188Y-102944966D01*
X170452849Y-102958000D01*
X170364351Y-102958000D01*
X170232012Y-102944966D01*
X170062211Y-102893457D01*
X169905721Y-102809811D01*
X169768557Y-102697243D01*
X169655989Y-102560079D01*
X169572343Y-102403589D01*
X169520834Y-102233788D01*
X169503442Y-102057200D01*
X169520834Y-101880612D01*
X169572343Y-101710811D01*
X169655989Y-101554321D01*
X169768557Y-101417157D01*
X169905721Y-101304589D01*
X170062211Y-101220943D01*
X170232012Y-101169434D01*
X170364351Y-101156400D01*
X170452849Y-101156400D01*
X170585188Y-101169434D01*
X170585188Y-101169434D01*
G37*
G36*
X133374188Y-100407434D02*
X133543989Y-100458943D01*
X133700479Y-100542589D01*
X133837643Y-100655157D01*
X133950211Y-100792321D01*
X134033857Y-100948811D01*
X134085366Y-101118612D01*
X134102758Y-101295200D01*
X134085366Y-101471788D01*
X134033857Y-101641589D01*
X133950211Y-101798079D01*
X133837643Y-101935243D01*
X133700479Y-102047811D01*
X133543989Y-102131457D01*
X133374188Y-102182966D01*
X133241849Y-102196000D01*
X133153351Y-102196000D01*
X133021012Y-102182966D01*
X132851211Y-102131457D01*
X132694721Y-102047811D01*
X132557557Y-101935243D01*
X132444989Y-101798079D01*
X132361343Y-101641589D01*
X132309834Y-101471788D01*
X132292442Y-101295200D01*
X132309834Y-101118612D01*
X132361343Y-100948811D01*
X132444989Y-100792321D01*
X132557557Y-100655157D01*
X132694721Y-100542589D01*
X132851211Y-100458943D01*
X133021012Y-100407434D01*
X133153351Y-100394400D01*
X133241849Y-100394400D01*
X133374188Y-100407434D01*
X133374188Y-100407434D01*
G37*
G36*
X125754188Y-100407434D02*
X125923989Y-100458943D01*
X126080479Y-100542589D01*
X126217643Y-100655157D01*
X126330211Y-100792321D01*
X126413857Y-100948811D01*
X126465366Y-101118612D01*
X126482758Y-101295200D01*
X126465366Y-101471788D01*
X126413857Y-101641589D01*
X126330211Y-101798079D01*
X126217643Y-101935243D01*
X126080479Y-102047811D01*
X125923989Y-102131457D01*
X125754188Y-102182966D01*
X125621849Y-102196000D01*
X125533351Y-102196000D01*
X125401012Y-102182966D01*
X125231211Y-102131457D01*
X125074721Y-102047811D01*
X124937557Y-101935243D01*
X124824989Y-101798079D01*
X124741343Y-101641589D01*
X124689834Y-101471788D01*
X124672442Y-101295200D01*
X124689834Y-101118612D01*
X124741343Y-100948811D01*
X124824989Y-100792321D01*
X124937557Y-100655157D01*
X125074721Y-100542589D01*
X125231211Y-100458943D01*
X125401012Y-100407434D01*
X125533351Y-100394400D01*
X125621849Y-100394400D01*
X125754188Y-100407434D01*
X125754188Y-100407434D01*
G37*
G36*
X128294188Y-100407434D02*
X128463989Y-100458943D01*
X128620479Y-100542589D01*
X128757643Y-100655157D01*
X128870211Y-100792321D01*
X128953857Y-100948811D01*
X129005366Y-101118612D01*
X129022758Y-101295200D01*
X129005366Y-101471788D01*
X128953857Y-101641589D01*
X128870211Y-101798079D01*
X128757643Y-101935243D01*
X128620479Y-102047811D01*
X128463989Y-102131457D01*
X128294188Y-102182966D01*
X128161849Y-102196000D01*
X128073351Y-102196000D01*
X127941012Y-102182966D01*
X127771211Y-102131457D01*
X127614721Y-102047811D01*
X127477557Y-101935243D01*
X127364989Y-101798079D01*
X127281343Y-101641589D01*
X127229834Y-101471788D01*
X127212442Y-101295200D01*
X127229834Y-101118612D01*
X127281343Y-100948811D01*
X127364989Y-100792321D01*
X127477557Y-100655157D01*
X127614721Y-100542589D01*
X127771211Y-100458943D01*
X127941012Y-100407434D01*
X128073351Y-100394400D01*
X128161849Y-100394400D01*
X128294188Y-100407434D01*
X128294188Y-100407434D01*
G37*
G36*
X130834188Y-100407434D02*
X131003989Y-100458943D01*
X131160479Y-100542589D01*
X131297643Y-100655157D01*
X131410211Y-100792321D01*
X131493857Y-100948811D01*
X131545366Y-101118612D01*
X131562758Y-101295200D01*
X131545366Y-101471788D01*
X131493857Y-101641589D01*
X131410211Y-101798079D01*
X131297643Y-101935243D01*
X131160479Y-102047811D01*
X131003989Y-102131457D01*
X130834188Y-102182966D01*
X130701849Y-102196000D01*
X130613351Y-102196000D01*
X130481012Y-102182966D01*
X130311211Y-102131457D01*
X130154721Y-102047811D01*
X130017557Y-101935243D01*
X129904989Y-101798079D01*
X129821343Y-101641589D01*
X129769834Y-101471788D01*
X129752442Y-101295200D01*
X129769834Y-101118612D01*
X129821343Y-100948811D01*
X129904989Y-100792321D01*
X130017557Y-100655157D01*
X130154721Y-100542589D01*
X130311211Y-100458943D01*
X130481012Y-100407434D01*
X130613351Y-100394400D01*
X130701849Y-100394400D01*
X130834188Y-100407434D01*
X130834188Y-100407434D01*
G37*
G36*
X135914188Y-100407434D02*
X136083989Y-100458943D01*
X136240479Y-100542589D01*
X136377643Y-100655157D01*
X136490211Y-100792321D01*
X136573857Y-100948811D01*
X136625366Y-101118612D01*
X136642758Y-101295200D01*
X136625366Y-101471788D01*
X136573857Y-101641589D01*
X136490211Y-101798079D01*
X136377643Y-101935243D01*
X136240479Y-102047811D01*
X136083989Y-102131457D01*
X135914188Y-102182966D01*
X135781849Y-102196000D01*
X135693351Y-102196000D01*
X135561012Y-102182966D01*
X135391211Y-102131457D01*
X135234721Y-102047811D01*
X135097557Y-101935243D01*
X134984989Y-101798079D01*
X134901343Y-101641589D01*
X134849834Y-101471788D01*
X134832442Y-101295200D01*
X134849834Y-101118612D01*
X134901343Y-100948811D01*
X134984989Y-100792321D01*
X135097557Y-100655157D01*
X135234721Y-100542589D01*
X135391211Y-100458943D01*
X135561012Y-100407434D01*
X135693351Y-100394400D01*
X135781849Y-100394400D01*
X135914188Y-100407434D01*
X135914188Y-100407434D01*
G37*
G36*
X119150188Y-100382034D02*
X119319989Y-100433543D01*
X119476479Y-100517189D01*
X119613643Y-100629757D01*
X119726211Y-100766921D01*
X119809857Y-100923411D01*
X119861366Y-101093212D01*
X119878758Y-101269800D01*
X119861366Y-101446388D01*
X119809857Y-101616189D01*
X119726211Y-101772679D01*
X119613643Y-101909843D01*
X119476479Y-102022411D01*
X119319989Y-102106057D01*
X119150188Y-102157566D01*
X119017849Y-102170600D01*
X118929351Y-102170600D01*
X118797012Y-102157566D01*
X118627211Y-102106057D01*
X118470721Y-102022411D01*
X118333557Y-101909843D01*
X118220989Y-101772679D01*
X118137343Y-101616189D01*
X118085834Y-101446388D01*
X118068442Y-101269800D01*
X118085834Y-101093212D01*
X118137343Y-100923411D01*
X118220989Y-100766921D01*
X118333557Y-100629757D01*
X118470721Y-100517189D01*
X118627211Y-100433543D01*
X118797012Y-100382034D01*
X118929351Y-100369000D01*
X119017849Y-100369000D01*
X119150188Y-100382034D01*
X119150188Y-100382034D01*
G37*
G36*
X116610188Y-100382034D02*
X116779989Y-100433543D01*
X116936479Y-100517189D01*
X117073643Y-100629757D01*
X117186211Y-100766921D01*
X117269857Y-100923411D01*
X117321366Y-101093212D01*
X117338758Y-101269800D01*
X117321366Y-101446388D01*
X117269857Y-101616189D01*
X117186211Y-101772679D01*
X117073643Y-101909843D01*
X116936479Y-102022411D01*
X116779989Y-102106057D01*
X116610188Y-102157566D01*
X116477849Y-102170600D01*
X116389351Y-102170600D01*
X116257012Y-102157566D01*
X116087211Y-102106057D01*
X115930721Y-102022411D01*
X115793557Y-101909843D01*
X115680989Y-101772679D01*
X115597343Y-101616189D01*
X115545834Y-101446388D01*
X115528442Y-101269800D01*
X115545834Y-101093212D01*
X115597343Y-100923411D01*
X115680989Y-100766921D01*
X115793557Y-100629757D01*
X115930721Y-100517189D01*
X116087211Y-100433543D01*
X116257012Y-100382034D01*
X116389351Y-100369000D01*
X116477849Y-100369000D01*
X116610188Y-100382034D01*
X116610188Y-100382034D01*
G37*
G36*
X121690188Y-100382034D02*
X121859989Y-100433543D01*
X122016479Y-100517189D01*
X122153643Y-100629757D01*
X122266211Y-100766921D01*
X122349857Y-100923411D01*
X122401366Y-101093212D01*
X122418758Y-101269800D01*
X122401366Y-101446388D01*
X122349857Y-101616189D01*
X122266211Y-101772679D01*
X122153643Y-101909843D01*
X122016479Y-102022411D01*
X121859989Y-102106057D01*
X121690188Y-102157566D01*
X121557849Y-102170600D01*
X121469351Y-102170600D01*
X121337012Y-102157566D01*
X121167211Y-102106057D01*
X121010721Y-102022411D01*
X120873557Y-101909843D01*
X120760989Y-101772679D01*
X120677343Y-101616189D01*
X120625834Y-101446388D01*
X120608442Y-101269800D01*
X120625834Y-101093212D01*
X120677343Y-100923411D01*
X120760989Y-100766921D01*
X120873557Y-100629757D01*
X121010721Y-100517189D01*
X121167211Y-100433543D01*
X121337012Y-100382034D01*
X121469351Y-100369000D01*
X121557849Y-100369000D01*
X121690188Y-100382034D01*
X121690188Y-100382034D01*
G37*
G36*
X156348488Y-99810534D02*
X156518289Y-99862043D01*
X156674779Y-99945689D01*
X156811943Y-100058257D01*
X156924511Y-100195421D01*
X157008157Y-100351911D01*
X157059666Y-100521712D01*
X157077058Y-100698300D01*
X157059666Y-100874888D01*
X157008157Y-101044689D01*
X156924511Y-101201179D01*
X156811943Y-101338343D01*
X156674779Y-101450911D01*
X156518289Y-101534557D01*
X156348488Y-101586066D01*
X156216149Y-101599100D01*
X156127651Y-101599100D01*
X155995312Y-101586066D01*
X155825511Y-101534557D01*
X155669021Y-101450911D01*
X155531857Y-101338343D01*
X155419289Y-101201179D01*
X155335643Y-101044689D01*
X155284134Y-100874888D01*
X155266742Y-100698300D01*
X155284134Y-100521712D01*
X155335643Y-100351911D01*
X155419289Y-100195421D01*
X155531857Y-100058257D01*
X155669021Y-99945689D01*
X155825511Y-99862043D01*
X155995312Y-99810534D01*
X156127651Y-99797500D01*
X156216149Y-99797500D01*
X156348488Y-99810534D01*
X156348488Y-99810534D01*
G37*
G36*
X154532700Y-101599100D02*
X152731100Y-101599100D01*
X152731100Y-99797500D01*
X154532700Y-99797500D01*
X154532700Y-101599100D01*
X154532700Y-101599100D01*
G37*
G36*
X149993924Y-99723820D02*
X150039563Y-99737664D01*
X150081626Y-99760147D01*
X150118495Y-99790405D01*
X150148753Y-99827274D01*
X150171236Y-99869337D01*
X150185080Y-99914976D01*
X150190000Y-99964926D01*
X150190000Y-100974474D01*
X150185080Y-101024424D01*
X150171236Y-101070063D01*
X150148753Y-101112126D01*
X150118495Y-101148995D01*
X150081626Y-101179253D01*
X150039563Y-101201736D01*
X149993924Y-101215580D01*
X149943974Y-101220500D01*
X149184426Y-101220500D01*
X149134476Y-101215580D01*
X149088837Y-101201736D01*
X149046774Y-101179253D01*
X149009905Y-101148995D01*
X148979647Y-101112126D01*
X148957164Y-101070063D01*
X148943320Y-101024424D01*
X148938400Y-100974474D01*
X148938400Y-99964926D01*
X148943320Y-99914976D01*
X148957164Y-99869337D01*
X148979647Y-99827274D01*
X149009905Y-99790405D01*
X149046774Y-99760147D01*
X149088837Y-99737664D01*
X149134476Y-99723820D01*
X149184426Y-99718900D01*
X149943974Y-99718900D01*
X149993924Y-99723820D01*
X149993924Y-99723820D01*
G37*
G36*
X147943924Y-99723820D02*
X147989563Y-99737664D01*
X148031626Y-99760147D01*
X148068495Y-99790405D01*
X148098753Y-99827274D01*
X148121236Y-99869337D01*
X148135080Y-99914976D01*
X148140000Y-99964926D01*
X148140000Y-100974474D01*
X148135080Y-101024424D01*
X148121236Y-101070063D01*
X148098753Y-101112126D01*
X148068495Y-101148995D01*
X148031626Y-101179253D01*
X147989563Y-101201736D01*
X147943924Y-101215580D01*
X147893974Y-101220500D01*
X147134426Y-101220500D01*
X147084476Y-101215580D01*
X147038837Y-101201736D01*
X146996774Y-101179253D01*
X146959905Y-101148995D01*
X146929647Y-101112126D01*
X146907164Y-101070063D01*
X146893320Y-101024424D01*
X146888400Y-100974474D01*
X146888400Y-99964926D01*
X146893320Y-99914976D01*
X146907164Y-99869337D01*
X146929647Y-99827274D01*
X146959905Y-99790405D01*
X146996774Y-99760147D01*
X147038837Y-99737664D01*
X147084476Y-99723820D01*
X147134426Y-99718900D01*
X147893974Y-99718900D01*
X147943924Y-99723820D01*
X147943924Y-99723820D01*
G37*
G36*
X170585188Y-98629434D02*
X170754989Y-98680943D01*
X170911479Y-98764589D01*
X171048643Y-98877157D01*
X171161211Y-99014321D01*
X171244857Y-99170811D01*
X171296366Y-99340612D01*
X171313758Y-99517200D01*
X171296366Y-99693788D01*
X171244857Y-99863589D01*
X171161211Y-100020079D01*
X171048643Y-100157243D01*
X170911479Y-100269811D01*
X170754989Y-100353457D01*
X170585188Y-100404966D01*
X170452849Y-100418000D01*
X170364351Y-100418000D01*
X170232012Y-100404966D01*
X170062211Y-100353457D01*
X169905721Y-100269811D01*
X169768557Y-100157243D01*
X169655989Y-100020079D01*
X169572343Y-99863589D01*
X169520834Y-99693788D01*
X169503442Y-99517200D01*
X169520834Y-99340612D01*
X169572343Y-99170811D01*
X169655989Y-99014321D01*
X169768557Y-98877157D01*
X169905721Y-98764589D01*
X170062211Y-98680943D01*
X170232012Y-98629434D01*
X170364351Y-98616400D01*
X170452849Y-98616400D01*
X170585188Y-98629434D01*
X170585188Y-98629434D01*
G37*
G36*
X168045188Y-98629434D02*
X168214989Y-98680943D01*
X168371479Y-98764589D01*
X168508643Y-98877157D01*
X168621211Y-99014321D01*
X168704857Y-99170811D01*
X168756366Y-99340612D01*
X168773758Y-99517200D01*
X168756366Y-99693788D01*
X168704857Y-99863589D01*
X168621211Y-100020079D01*
X168508643Y-100157243D01*
X168371479Y-100269811D01*
X168214989Y-100353457D01*
X168045188Y-100404966D01*
X167912849Y-100418000D01*
X167824351Y-100418000D01*
X167692012Y-100404966D01*
X167522211Y-100353457D01*
X167365721Y-100269811D01*
X167228557Y-100157243D01*
X167115989Y-100020079D01*
X167032343Y-99863589D01*
X166980834Y-99693788D01*
X166963442Y-99517200D01*
X166980834Y-99340612D01*
X167032343Y-99170811D01*
X167115989Y-99014321D01*
X167228557Y-98877157D01*
X167365721Y-98764589D01*
X167522211Y-98680943D01*
X167692012Y-98629434D01*
X167824351Y-98616400D01*
X167912849Y-98616400D01*
X168045188Y-98629434D01*
X168045188Y-98629434D01*
G37*
G36*
X130834188Y-97867434D02*
X131003989Y-97918943D01*
X131160479Y-98002589D01*
X131297643Y-98115157D01*
X131410211Y-98252321D01*
X131493857Y-98408811D01*
X131545366Y-98578612D01*
X131562758Y-98755200D01*
X131545366Y-98931788D01*
X131493857Y-99101589D01*
X131410211Y-99258079D01*
X131297643Y-99395243D01*
X131160479Y-99507811D01*
X131003989Y-99591457D01*
X130834188Y-99642966D01*
X130701849Y-99656000D01*
X130613351Y-99656000D01*
X130481012Y-99642966D01*
X130311211Y-99591457D01*
X130154721Y-99507811D01*
X130017557Y-99395243D01*
X129904989Y-99258079D01*
X129821343Y-99101589D01*
X129769834Y-98931788D01*
X129752442Y-98755200D01*
X129769834Y-98578612D01*
X129821343Y-98408811D01*
X129904989Y-98252321D01*
X130017557Y-98115157D01*
X130154721Y-98002589D01*
X130311211Y-97918943D01*
X130481012Y-97867434D01*
X130613351Y-97854400D01*
X130701849Y-97854400D01*
X130834188Y-97867434D01*
X130834188Y-97867434D01*
G37*
G36*
X133374188Y-97867434D02*
X133543989Y-97918943D01*
X133700479Y-98002589D01*
X133837643Y-98115157D01*
X133950211Y-98252321D01*
X134033857Y-98408811D01*
X134085366Y-98578612D01*
X134102758Y-98755200D01*
X134085366Y-98931788D01*
X134033857Y-99101589D01*
X133950211Y-99258079D01*
X133837643Y-99395243D01*
X133700479Y-99507811D01*
X133543989Y-99591457D01*
X133374188Y-99642966D01*
X133241849Y-99656000D01*
X133153351Y-99656000D01*
X133021012Y-99642966D01*
X132851211Y-99591457D01*
X132694721Y-99507811D01*
X132557557Y-99395243D01*
X132444989Y-99258079D01*
X132361343Y-99101589D01*
X132309834Y-98931788D01*
X132292442Y-98755200D01*
X132309834Y-98578612D01*
X132361343Y-98408811D01*
X132444989Y-98252321D01*
X132557557Y-98115157D01*
X132694721Y-98002589D01*
X132851211Y-97918943D01*
X133021012Y-97867434D01*
X133153351Y-97854400D01*
X133241849Y-97854400D01*
X133374188Y-97867434D01*
X133374188Y-97867434D01*
G37*
G36*
X128294188Y-97867434D02*
X128463989Y-97918943D01*
X128620479Y-98002589D01*
X128757643Y-98115157D01*
X128870211Y-98252321D01*
X128953857Y-98408811D01*
X129005366Y-98578612D01*
X129022758Y-98755200D01*
X129005366Y-98931788D01*
X128953857Y-99101589D01*
X128870211Y-99258079D01*
X128757643Y-99395243D01*
X128620479Y-99507811D01*
X128463989Y-99591457D01*
X128294188Y-99642966D01*
X128161849Y-99656000D01*
X128073351Y-99656000D01*
X127941012Y-99642966D01*
X127771211Y-99591457D01*
X127614721Y-99507811D01*
X127477557Y-99395243D01*
X127364989Y-99258079D01*
X127281343Y-99101589D01*
X127229834Y-98931788D01*
X127212442Y-98755200D01*
X127229834Y-98578612D01*
X127281343Y-98408811D01*
X127364989Y-98252321D01*
X127477557Y-98115157D01*
X127614721Y-98002589D01*
X127771211Y-97918943D01*
X127941012Y-97867434D01*
X128073351Y-97854400D01*
X128161849Y-97854400D01*
X128294188Y-97867434D01*
X128294188Y-97867434D01*
G37*
G36*
X136638400Y-99656000D02*
X134836800Y-99656000D01*
X134836800Y-97854400D01*
X136638400Y-97854400D01*
X136638400Y-99656000D01*
X136638400Y-99656000D01*
G37*
G36*
X125754188Y-97867434D02*
X125923989Y-97918943D01*
X126080479Y-98002589D01*
X126217643Y-98115157D01*
X126330211Y-98252321D01*
X126413857Y-98408811D01*
X126465366Y-98578612D01*
X126482758Y-98755200D01*
X126465366Y-98931788D01*
X126413857Y-99101589D01*
X126330211Y-99258079D01*
X126217643Y-99395243D01*
X126080479Y-99507811D01*
X125923989Y-99591457D01*
X125754188Y-99642966D01*
X125621849Y-99656000D01*
X125533351Y-99656000D01*
X125401012Y-99642966D01*
X125231211Y-99591457D01*
X125074721Y-99507811D01*
X124937557Y-99395243D01*
X124824989Y-99258079D01*
X124741343Y-99101589D01*
X124689834Y-98931788D01*
X124672442Y-98755200D01*
X124689834Y-98578612D01*
X124741343Y-98408811D01*
X124824989Y-98252321D01*
X124937557Y-98115157D01*
X125074721Y-98002589D01*
X125231211Y-97918943D01*
X125401012Y-97867434D01*
X125533351Y-97854400D01*
X125621849Y-97854400D01*
X125754188Y-97867434D01*
X125754188Y-97867434D01*
G37*
G36*
X119150188Y-97842034D02*
X119319989Y-97893543D01*
X119476479Y-97977189D01*
X119613643Y-98089757D01*
X119726211Y-98226921D01*
X119809857Y-98383411D01*
X119861366Y-98553212D01*
X119878758Y-98729800D01*
X119861366Y-98906388D01*
X119809857Y-99076189D01*
X119726211Y-99232679D01*
X119613643Y-99369843D01*
X119476479Y-99482411D01*
X119319989Y-99566057D01*
X119150188Y-99617566D01*
X119017849Y-99630600D01*
X118929351Y-99630600D01*
X118797012Y-99617566D01*
X118627211Y-99566057D01*
X118470721Y-99482411D01*
X118333557Y-99369843D01*
X118220989Y-99232679D01*
X118137343Y-99076189D01*
X118085834Y-98906388D01*
X118068442Y-98729800D01*
X118085834Y-98553212D01*
X118137343Y-98383411D01*
X118220989Y-98226921D01*
X118333557Y-98089757D01*
X118470721Y-97977189D01*
X118627211Y-97893543D01*
X118797012Y-97842034D01*
X118929351Y-97829000D01*
X119017849Y-97829000D01*
X119150188Y-97842034D01*
X119150188Y-97842034D01*
G37*
G36*
X116610188Y-97842034D02*
X116779989Y-97893543D01*
X116936479Y-97977189D01*
X117073643Y-98089757D01*
X117186211Y-98226921D01*
X117269857Y-98383411D01*
X117321366Y-98553212D01*
X117338758Y-98729800D01*
X117321366Y-98906388D01*
X117269857Y-99076189D01*
X117186211Y-99232679D01*
X117073643Y-99369843D01*
X116936479Y-99482411D01*
X116779989Y-99566057D01*
X116610188Y-99617566D01*
X116477849Y-99630600D01*
X116389351Y-99630600D01*
X116257012Y-99617566D01*
X116087211Y-99566057D01*
X115930721Y-99482411D01*
X115793557Y-99369843D01*
X115680989Y-99232679D01*
X115597343Y-99076189D01*
X115545834Y-98906388D01*
X115528442Y-98729800D01*
X115545834Y-98553212D01*
X115597343Y-98383411D01*
X115680989Y-98226921D01*
X115793557Y-98089757D01*
X115930721Y-97977189D01*
X116087211Y-97893543D01*
X116257012Y-97842034D01*
X116389351Y-97829000D01*
X116477849Y-97829000D01*
X116610188Y-97842034D01*
X116610188Y-97842034D01*
G37*
G36*
X122414400Y-99630600D02*
X120612800Y-99630600D01*
X120612800Y-97829000D01*
X122414400Y-97829000D01*
X122414400Y-99630600D01*
X122414400Y-99630600D01*
G37*
G36*
X105902747Y-98435288D02*
X106012086Y-98480578D01*
X106110488Y-98546328D01*
X106194172Y-98630012D01*
X106259922Y-98728414D01*
X106305212Y-98837753D01*
X106328300Y-98953826D01*
X106328300Y-99072174D01*
X106305212Y-99188247D01*
X106259922Y-99297586D01*
X106194172Y-99395988D01*
X106110488Y-99479672D01*
X106012086Y-99545422D01*
X105902747Y-99590712D01*
X105786674Y-99613800D01*
X105668326Y-99613800D01*
X105552253Y-99590712D01*
X105442914Y-99545422D01*
X105344512Y-99479672D01*
X105260828Y-99395988D01*
X105195078Y-99297586D01*
X105149788Y-99188247D01*
X105126700Y-99072174D01*
X105126700Y-98953826D01*
X105149788Y-98837753D01*
X105195078Y-98728414D01*
X105260828Y-98630012D01*
X105344512Y-98546328D01*
X105442914Y-98480578D01*
X105552253Y-98435288D01*
X105668326Y-98412200D01*
X105786674Y-98412200D01*
X105902747Y-98435288D01*
X105902747Y-98435288D01*
G37*
G36*
X170585188Y-96089434D02*
X170754989Y-96140943D01*
X170911479Y-96224589D01*
X171048643Y-96337157D01*
X171161211Y-96474321D01*
X171244857Y-96630811D01*
X171296366Y-96800612D01*
X171313758Y-96977200D01*
X171296366Y-97153788D01*
X171244857Y-97323589D01*
X171161211Y-97480079D01*
X171048643Y-97617243D01*
X170911479Y-97729811D01*
X170754989Y-97813457D01*
X170585188Y-97864966D01*
X170452849Y-97878000D01*
X170364351Y-97878000D01*
X170232012Y-97864966D01*
X170062211Y-97813457D01*
X169905721Y-97729811D01*
X169768557Y-97617243D01*
X169655989Y-97480079D01*
X169572343Y-97323589D01*
X169520834Y-97153788D01*
X169503442Y-96977200D01*
X169520834Y-96800612D01*
X169572343Y-96630811D01*
X169655989Y-96474321D01*
X169768557Y-96337157D01*
X169905721Y-96224589D01*
X170062211Y-96140943D01*
X170232012Y-96089434D01*
X170364351Y-96076400D01*
X170452849Y-96076400D01*
X170585188Y-96089434D01*
X170585188Y-96089434D01*
G37*
G36*
X168045188Y-96089434D02*
X168214989Y-96140943D01*
X168371479Y-96224589D01*
X168508643Y-96337157D01*
X168621211Y-96474321D01*
X168704857Y-96630811D01*
X168756366Y-96800612D01*
X168773758Y-96977200D01*
X168756366Y-97153788D01*
X168704857Y-97323589D01*
X168621211Y-97480079D01*
X168508643Y-97617243D01*
X168371479Y-97729811D01*
X168214989Y-97813457D01*
X168045188Y-97864966D01*
X167912849Y-97878000D01*
X167824351Y-97878000D01*
X167692012Y-97864966D01*
X167522211Y-97813457D01*
X167365721Y-97729811D01*
X167228557Y-97617243D01*
X167115989Y-97480079D01*
X167032343Y-97323589D01*
X166980834Y-97153788D01*
X166963442Y-96977200D01*
X166980834Y-96800612D01*
X167032343Y-96630811D01*
X167115989Y-96474321D01*
X167228557Y-96337157D01*
X167365721Y-96224589D01*
X167522211Y-96140943D01*
X167692012Y-96089434D01*
X167824351Y-96076400D01*
X167912849Y-96076400D01*
X168045188Y-96089434D01*
X168045188Y-96089434D01*
G37*
G36*
X101145845Y-94519215D02*
X101236842Y-94556907D01*
X101318730Y-94611622D01*
X101388378Y-94681270D01*
X101443093Y-94763158D01*
X101443094Y-94763161D01*
X101480785Y-94854155D01*
X101497877Y-94940079D01*
X101500000Y-94950755D01*
X101500000Y-95049245D01*
X101480785Y-95145845D01*
X101443093Y-95236842D01*
X101388378Y-95318730D01*
X101318730Y-95388378D01*
X101236842Y-95443093D01*
X101145845Y-95480785D01*
X101049246Y-95500000D01*
X100950754Y-95500000D01*
X100854155Y-95480785D01*
X100763158Y-95443093D01*
X100681270Y-95388378D01*
X100611622Y-95318730D01*
X100556907Y-95236842D01*
X100519215Y-95145845D01*
X100500000Y-95049245D01*
X100500000Y-94950755D01*
X100502124Y-94940079D01*
X100519215Y-94854155D01*
X100556906Y-94763161D01*
X100556907Y-94763158D01*
X100611622Y-94681270D01*
X100681270Y-94611622D01*
X100763158Y-94556907D01*
X100854155Y-94519215D01*
X100950754Y-94500000D01*
X101049246Y-94500000D01*
X101145845Y-94519215D01*
X101145845Y-94519215D01*
G37*
G36*
X170585188Y-93549434D02*
X170754989Y-93600943D01*
X170911479Y-93684589D01*
X171048643Y-93797157D01*
X171161211Y-93934321D01*
X171244857Y-94090811D01*
X171296366Y-94260612D01*
X171313758Y-94437200D01*
X171296366Y-94613788D01*
X171244857Y-94783589D01*
X171161211Y-94940079D01*
X171048643Y-95077243D01*
X170911479Y-95189811D01*
X170754989Y-95273457D01*
X170585188Y-95324966D01*
X170452849Y-95338000D01*
X170364351Y-95338000D01*
X170232012Y-95324966D01*
X170062211Y-95273457D01*
X169905721Y-95189811D01*
X169768557Y-95077243D01*
X169655989Y-94940079D01*
X169572343Y-94783589D01*
X169520834Y-94613788D01*
X169503442Y-94437200D01*
X169520834Y-94260612D01*
X169572343Y-94090811D01*
X169655989Y-93934321D01*
X169768557Y-93797157D01*
X169905721Y-93684589D01*
X170062211Y-93600943D01*
X170232012Y-93549434D01*
X170364351Y-93536400D01*
X170452849Y-93536400D01*
X170585188Y-93549434D01*
X170585188Y-93549434D01*
G37*
G36*
X168045188Y-93549434D02*
X168214989Y-93600943D01*
X168371479Y-93684589D01*
X168508643Y-93797157D01*
X168621211Y-93934321D01*
X168704857Y-94090811D01*
X168756366Y-94260612D01*
X168773758Y-94437200D01*
X168756366Y-94613788D01*
X168704857Y-94783589D01*
X168621211Y-94940079D01*
X168508643Y-95077243D01*
X168371479Y-95189811D01*
X168214989Y-95273457D01*
X168045188Y-95324966D01*
X167912849Y-95338000D01*
X167824351Y-95338000D01*
X167692012Y-95324966D01*
X167522211Y-95273457D01*
X167365721Y-95189811D01*
X167228557Y-95077243D01*
X167115989Y-94940079D01*
X167032343Y-94783589D01*
X166980834Y-94613788D01*
X166963442Y-94437200D01*
X166980834Y-94260612D01*
X167032343Y-94090811D01*
X167115989Y-93934321D01*
X167228557Y-93797157D01*
X167365721Y-93684589D01*
X167522211Y-93600943D01*
X167692012Y-93549434D01*
X167824351Y-93536400D01*
X167912849Y-93536400D01*
X168045188Y-93549434D01*
X168045188Y-93549434D01*
G37*
G36*
X99642988Y-91009434D02*
X99812789Y-91060943D01*
X99969279Y-91144589D01*
X100106443Y-91257157D01*
X100219011Y-91394321D01*
X100302657Y-91550811D01*
X100354166Y-91720612D01*
X100371558Y-91897200D01*
X100354166Y-92073788D01*
X100302657Y-92243589D01*
X100219011Y-92400079D01*
X100106443Y-92537243D01*
X99969279Y-92649811D01*
X99812789Y-92733457D01*
X99642988Y-92784966D01*
X99510649Y-92798000D01*
X99422151Y-92798000D01*
X99289812Y-92784966D01*
X99120011Y-92733457D01*
X98963521Y-92649811D01*
X98826357Y-92537243D01*
X98713789Y-92400079D01*
X98630143Y-92243589D01*
X98578634Y-92073788D01*
X98561242Y-91897200D01*
X98578634Y-91720612D01*
X98630143Y-91550811D01*
X98713789Y-91394321D01*
X98826357Y-91257157D01*
X98963521Y-91144589D01*
X99120011Y-91060943D01*
X99289812Y-91009434D01*
X99422151Y-90996400D01*
X99510649Y-90996400D01*
X99642988Y-91009434D01*
X99642988Y-91009434D01*
G37*
G36*
X104722988Y-91009434D02*
X104892789Y-91060943D01*
X105049279Y-91144589D01*
X105186443Y-91257157D01*
X105299011Y-91394321D01*
X105382657Y-91550811D01*
X105434166Y-91720612D01*
X105451558Y-91897200D01*
X105434166Y-92073788D01*
X105382657Y-92243589D01*
X105299011Y-92400079D01*
X105186443Y-92537243D01*
X105049279Y-92649811D01*
X104892789Y-92733457D01*
X104722988Y-92784966D01*
X104590649Y-92798000D01*
X104502151Y-92798000D01*
X104369812Y-92784966D01*
X104200011Y-92733457D01*
X104043521Y-92649811D01*
X103906357Y-92537243D01*
X103793789Y-92400079D01*
X103710143Y-92243589D01*
X103658634Y-92073788D01*
X103641242Y-91897200D01*
X103658634Y-91720612D01*
X103710143Y-91550811D01*
X103793789Y-91394321D01*
X103906357Y-91257157D01*
X104043521Y-91144589D01*
X104200011Y-91060943D01*
X104369812Y-91009434D01*
X104502151Y-90996400D01*
X104590649Y-90996400D01*
X104722988Y-91009434D01*
X104722988Y-91009434D01*
G37*
G36*
X107262988Y-91009434D02*
X107432789Y-91060943D01*
X107589279Y-91144589D01*
X107726443Y-91257157D01*
X107839011Y-91394321D01*
X107922657Y-91550811D01*
X107974166Y-91720612D01*
X107991558Y-91897200D01*
X107974166Y-92073788D01*
X107922657Y-92243589D01*
X107839011Y-92400079D01*
X107726443Y-92537243D01*
X107589279Y-92649811D01*
X107432789Y-92733457D01*
X107262988Y-92784966D01*
X107130649Y-92798000D01*
X107042151Y-92798000D01*
X106909812Y-92784966D01*
X106740011Y-92733457D01*
X106583521Y-92649811D01*
X106446357Y-92537243D01*
X106333789Y-92400079D01*
X106250143Y-92243589D01*
X106198634Y-92073788D01*
X106181242Y-91897200D01*
X106198634Y-91720612D01*
X106250143Y-91550811D01*
X106333789Y-91394321D01*
X106446357Y-91257157D01*
X106583521Y-91144589D01*
X106740011Y-91060943D01*
X106909812Y-91009434D01*
X107042151Y-90996400D01*
X107130649Y-90996400D01*
X107262988Y-91009434D01*
X107262988Y-91009434D01*
G37*
G36*
X109802988Y-91009434D02*
X109972789Y-91060943D01*
X110129279Y-91144589D01*
X110266443Y-91257157D01*
X110379011Y-91394321D01*
X110462657Y-91550811D01*
X110514166Y-91720612D01*
X110531558Y-91897200D01*
X110514166Y-92073788D01*
X110462657Y-92243589D01*
X110379011Y-92400079D01*
X110266443Y-92537243D01*
X110129279Y-92649811D01*
X109972789Y-92733457D01*
X109802988Y-92784966D01*
X109670649Y-92798000D01*
X109582151Y-92798000D01*
X109449812Y-92784966D01*
X109280011Y-92733457D01*
X109123521Y-92649811D01*
X108986357Y-92537243D01*
X108873789Y-92400079D01*
X108790143Y-92243589D01*
X108738634Y-92073788D01*
X108721242Y-91897200D01*
X108738634Y-91720612D01*
X108790143Y-91550811D01*
X108873789Y-91394321D01*
X108986357Y-91257157D01*
X109123521Y-91144589D01*
X109280011Y-91060943D01*
X109449812Y-91009434D01*
X109582151Y-90996400D01*
X109670649Y-90996400D01*
X109802988Y-91009434D01*
X109802988Y-91009434D01*
G37*
G36*
X112342988Y-91009434D02*
X112512789Y-91060943D01*
X112669279Y-91144589D01*
X112806443Y-91257157D01*
X112919011Y-91394321D01*
X113002657Y-91550811D01*
X113054166Y-91720612D01*
X113071558Y-91897200D01*
X113054166Y-92073788D01*
X113002657Y-92243589D01*
X112919011Y-92400079D01*
X112806443Y-92537243D01*
X112669279Y-92649811D01*
X112512789Y-92733457D01*
X112342988Y-92784966D01*
X112210649Y-92798000D01*
X112122151Y-92798000D01*
X111989812Y-92784966D01*
X111820011Y-92733457D01*
X111663521Y-92649811D01*
X111526357Y-92537243D01*
X111413789Y-92400079D01*
X111330143Y-92243589D01*
X111278634Y-92073788D01*
X111261242Y-91897200D01*
X111278634Y-91720612D01*
X111330143Y-91550811D01*
X111413789Y-91394321D01*
X111526357Y-91257157D01*
X111663521Y-91144589D01*
X111820011Y-91060943D01*
X111989812Y-91009434D01*
X112122151Y-90996400D01*
X112210649Y-90996400D01*
X112342988Y-91009434D01*
X112342988Y-91009434D01*
G37*
G36*
X168045188Y-91009434D02*
X168214989Y-91060943D01*
X168371479Y-91144589D01*
X168508643Y-91257157D01*
X168621211Y-91394321D01*
X168704857Y-91550811D01*
X168756366Y-91720612D01*
X168773758Y-91897200D01*
X168756366Y-92073788D01*
X168704857Y-92243589D01*
X168621211Y-92400079D01*
X168508643Y-92537243D01*
X168371479Y-92649811D01*
X168214989Y-92733457D01*
X168045188Y-92784966D01*
X167912849Y-92798000D01*
X167824351Y-92798000D01*
X167692012Y-92784966D01*
X167522211Y-92733457D01*
X167365721Y-92649811D01*
X167228557Y-92537243D01*
X167115989Y-92400079D01*
X167032343Y-92243589D01*
X166980834Y-92073788D01*
X166963442Y-91897200D01*
X166980834Y-91720612D01*
X167032343Y-91550811D01*
X167115989Y-91394321D01*
X167228557Y-91257157D01*
X167365721Y-91144589D01*
X167522211Y-91060943D01*
X167692012Y-91009434D01*
X167824351Y-90996400D01*
X167912849Y-90996400D01*
X168045188Y-91009434D01*
X168045188Y-91009434D01*
G37*
G36*
X170585188Y-91009434D02*
X170754989Y-91060943D01*
X170911479Y-91144589D01*
X171048643Y-91257157D01*
X171161211Y-91394321D01*
X171244857Y-91550811D01*
X171296366Y-91720612D01*
X171313758Y-91897200D01*
X171296366Y-92073788D01*
X171244857Y-92243589D01*
X171161211Y-92400079D01*
X171048643Y-92537243D01*
X170911479Y-92649811D01*
X170754989Y-92733457D01*
X170585188Y-92784966D01*
X170452849Y-92798000D01*
X170364351Y-92798000D01*
X170232012Y-92784966D01*
X170062211Y-92733457D01*
X169905721Y-92649811D01*
X169768557Y-92537243D01*
X169655989Y-92400079D01*
X169572343Y-92243589D01*
X169520834Y-92073788D01*
X169503442Y-91897200D01*
X169520834Y-91720612D01*
X169572343Y-91550811D01*
X169655989Y-91394321D01*
X169768557Y-91257157D01*
X169905721Y-91144589D01*
X170062211Y-91060943D01*
X170232012Y-91009434D01*
X170364351Y-90996400D01*
X170452849Y-90996400D01*
X170585188Y-91009434D01*
X170585188Y-91009434D01*
G37*
G36*
X118147200Y-92798000D02*
X116345600Y-92798000D01*
X116345600Y-90996400D01*
X118147200Y-90996400D01*
X118147200Y-92798000D01*
X118147200Y-92798000D01*
G37*
G36*
X102182988Y-91009434D02*
X102352789Y-91060943D01*
X102509279Y-91144589D01*
X102646443Y-91257157D01*
X102759011Y-91394321D01*
X102842657Y-91550811D01*
X102894166Y-91720612D01*
X102911558Y-91897200D01*
X102894166Y-92073788D01*
X102842657Y-92243589D01*
X102759011Y-92400079D01*
X102646443Y-92537243D01*
X102509279Y-92649811D01*
X102352789Y-92733457D01*
X102182988Y-92784966D01*
X102050649Y-92798000D01*
X101962151Y-92798000D01*
X101829812Y-92784966D01*
X101660011Y-92733457D01*
X101503521Y-92649811D01*
X101366357Y-92537243D01*
X101253789Y-92400079D01*
X101170143Y-92243589D01*
X101118634Y-92073788D01*
X101101242Y-91897200D01*
X101118634Y-91720612D01*
X101170143Y-91550811D01*
X101253789Y-91394321D01*
X101366357Y-91257157D01*
X101503521Y-91144589D01*
X101660011Y-91060943D01*
X101829812Y-91009434D01*
X101962151Y-90996400D01*
X102050649Y-90996400D01*
X102182988Y-91009434D01*
X102182988Y-91009434D01*
G37*
G36*
X114882988Y-91009434D02*
X115052789Y-91060943D01*
X115209279Y-91144589D01*
X115346443Y-91257157D01*
X115459011Y-91394321D01*
X115542657Y-91550811D01*
X115594166Y-91720612D01*
X115611558Y-91897200D01*
X115594166Y-92073788D01*
X115542657Y-92243589D01*
X115459011Y-92400079D01*
X115346443Y-92537243D01*
X115209279Y-92649811D01*
X115052789Y-92733457D01*
X114882988Y-92784966D01*
X114750649Y-92798000D01*
X114662151Y-92798000D01*
X114529812Y-92784966D01*
X114360011Y-92733457D01*
X114203521Y-92649811D01*
X114066357Y-92537243D01*
X113953789Y-92400079D01*
X113870143Y-92243589D01*
X113818634Y-92073788D01*
X113801242Y-91897200D01*
X113818634Y-91720612D01*
X113870143Y-91550811D01*
X113953789Y-91394321D01*
X114066357Y-91257157D01*
X114203521Y-91144589D01*
X114360011Y-91060943D01*
X114529812Y-91009434D01*
X114662151Y-90996400D01*
X114750649Y-90996400D01*
X114882988Y-91009434D01*
X114882988Y-91009434D01*
G37*
G36*
X142035588Y-90984034D02*
X142205389Y-91035543D01*
X142361879Y-91119189D01*
X142499043Y-91231757D01*
X142611611Y-91368921D01*
X142695257Y-91525411D01*
X142746766Y-91695212D01*
X142764158Y-91871800D01*
X142746766Y-92048388D01*
X142695257Y-92218189D01*
X142611611Y-92374679D01*
X142499043Y-92511843D01*
X142361879Y-92624411D01*
X142205389Y-92708057D01*
X142035588Y-92759566D01*
X141903249Y-92772600D01*
X141814751Y-92772600D01*
X141682412Y-92759566D01*
X141512611Y-92708057D01*
X141356121Y-92624411D01*
X141218957Y-92511843D01*
X141106389Y-92374679D01*
X141022743Y-92218189D01*
X140971234Y-92048388D01*
X140953842Y-91871800D01*
X140971234Y-91695212D01*
X141022743Y-91525411D01*
X141106389Y-91368921D01*
X141218957Y-91231757D01*
X141356121Y-91119189D01*
X141512611Y-91035543D01*
X141682412Y-90984034D01*
X141814751Y-90971000D01*
X141903249Y-90971000D01*
X142035588Y-90984034D01*
X142035588Y-90984034D01*
G37*
G36*
X139495588Y-90984034D02*
X139665389Y-91035543D01*
X139821879Y-91119189D01*
X139959043Y-91231757D01*
X140071611Y-91368921D01*
X140155257Y-91525411D01*
X140206766Y-91695212D01*
X140224158Y-91871800D01*
X140206766Y-92048388D01*
X140155257Y-92218189D01*
X140071611Y-92374679D01*
X139959043Y-92511843D01*
X139821879Y-92624411D01*
X139665389Y-92708057D01*
X139495588Y-92759566D01*
X139363249Y-92772600D01*
X139274751Y-92772600D01*
X139142412Y-92759566D01*
X138972611Y-92708057D01*
X138816121Y-92624411D01*
X138678957Y-92511843D01*
X138566389Y-92374679D01*
X138482743Y-92218189D01*
X138431234Y-92048388D01*
X138413842Y-91871800D01*
X138431234Y-91695212D01*
X138482743Y-91525411D01*
X138566389Y-91368921D01*
X138678957Y-91231757D01*
X138816121Y-91119189D01*
X138972611Y-91035543D01*
X139142412Y-90984034D01*
X139274751Y-90971000D01*
X139363249Y-90971000D01*
X139495588Y-90984034D01*
X139495588Y-90984034D01*
G37*
G36*
X136955588Y-90984034D02*
X137125389Y-91035543D01*
X137281879Y-91119189D01*
X137419043Y-91231757D01*
X137531611Y-91368921D01*
X137615257Y-91525411D01*
X137666766Y-91695212D01*
X137684158Y-91871800D01*
X137666766Y-92048388D01*
X137615257Y-92218189D01*
X137531611Y-92374679D01*
X137419043Y-92511843D01*
X137281879Y-92624411D01*
X137125389Y-92708057D01*
X136955588Y-92759566D01*
X136823249Y-92772600D01*
X136734751Y-92772600D01*
X136602412Y-92759566D01*
X136432611Y-92708057D01*
X136276121Y-92624411D01*
X136138957Y-92511843D01*
X136026389Y-92374679D01*
X135942743Y-92218189D01*
X135891234Y-92048388D01*
X135873842Y-91871800D01*
X135891234Y-91695212D01*
X135942743Y-91525411D01*
X136026389Y-91368921D01*
X136138957Y-91231757D01*
X136276121Y-91119189D01*
X136432611Y-91035543D01*
X136602412Y-90984034D01*
X136734751Y-90971000D01*
X136823249Y-90971000D01*
X136955588Y-90984034D01*
X136955588Y-90984034D01*
G37*
G36*
X132599800Y-92772600D02*
X130798200Y-92772600D01*
X130798200Y-90971000D01*
X132599800Y-90971000D01*
X132599800Y-92772600D01*
X132599800Y-92772600D01*
G37*
G36*
X149160600Y-92772600D02*
X147359000Y-92772600D01*
X147359000Y-90971000D01*
X149160600Y-90971000D01*
X149160600Y-92772600D01*
X149160600Y-92772600D01*
G37*
G36*
X150976388Y-90984034D02*
X151146189Y-91035543D01*
X151302679Y-91119189D01*
X151439843Y-91231757D01*
X151552411Y-91368921D01*
X151636057Y-91525411D01*
X151687566Y-91695212D01*
X151704958Y-91871800D01*
X151687566Y-92048388D01*
X151636057Y-92218189D01*
X151552411Y-92374679D01*
X151439843Y-92511843D01*
X151302679Y-92624411D01*
X151146189Y-92708057D01*
X150976388Y-92759566D01*
X150844049Y-92772600D01*
X150755551Y-92772600D01*
X150623212Y-92759566D01*
X150453411Y-92708057D01*
X150296921Y-92624411D01*
X150159757Y-92511843D01*
X150047189Y-92374679D01*
X149963543Y-92218189D01*
X149912034Y-92048388D01*
X149894642Y-91871800D01*
X149912034Y-91695212D01*
X149963543Y-91525411D01*
X150047189Y-91368921D01*
X150159757Y-91231757D01*
X150296921Y-91119189D01*
X150453411Y-91035543D01*
X150623212Y-90984034D01*
X150755551Y-90971000D01*
X150844049Y-90971000D01*
X150976388Y-90984034D01*
X150976388Y-90984034D01*
G37*
G36*
X153516388Y-90984034D02*
X153686189Y-91035543D01*
X153842679Y-91119189D01*
X153979843Y-91231757D01*
X154092411Y-91368921D01*
X154176057Y-91525411D01*
X154227566Y-91695212D01*
X154244958Y-91871800D01*
X154227566Y-92048388D01*
X154176057Y-92218189D01*
X154092411Y-92374679D01*
X153979843Y-92511843D01*
X153842679Y-92624411D01*
X153686189Y-92708057D01*
X153516388Y-92759566D01*
X153384049Y-92772600D01*
X153295551Y-92772600D01*
X153163212Y-92759566D01*
X152993411Y-92708057D01*
X152836921Y-92624411D01*
X152699757Y-92511843D01*
X152587189Y-92374679D01*
X152503543Y-92218189D01*
X152452034Y-92048388D01*
X152434642Y-91871800D01*
X152452034Y-91695212D01*
X152503543Y-91525411D01*
X152587189Y-91368921D01*
X152699757Y-91231757D01*
X152836921Y-91119189D01*
X152993411Y-91035543D01*
X153163212Y-90984034D01*
X153295551Y-90971000D01*
X153384049Y-90971000D01*
X153516388Y-90984034D01*
X153516388Y-90984034D01*
G37*
G36*
X134415588Y-90984034D02*
X134585389Y-91035543D01*
X134741879Y-91119189D01*
X134879043Y-91231757D01*
X134991611Y-91368921D01*
X135075257Y-91525411D01*
X135126766Y-91695212D01*
X135144158Y-91871800D01*
X135126766Y-92048388D01*
X135075257Y-92218189D01*
X134991611Y-92374679D01*
X134879043Y-92511843D01*
X134741879Y-92624411D01*
X134585389Y-92708057D01*
X134415588Y-92759566D01*
X134283249Y-92772600D01*
X134194751Y-92772600D01*
X134062412Y-92759566D01*
X133892611Y-92708057D01*
X133736121Y-92624411D01*
X133598957Y-92511843D01*
X133486389Y-92374679D01*
X133402743Y-92218189D01*
X133351234Y-92048388D01*
X133333842Y-91871800D01*
X133351234Y-91695212D01*
X133402743Y-91525411D01*
X133486389Y-91368921D01*
X133598957Y-91231757D01*
X133736121Y-91119189D01*
X133892611Y-91035543D01*
X134062412Y-90984034D01*
X134194751Y-90971000D01*
X134283249Y-90971000D01*
X134415588Y-90984034D01*
X134415588Y-90984034D01*
G37*
G36*
X144575588Y-90984034D02*
X144745389Y-91035543D01*
X144901879Y-91119189D01*
X145039043Y-91231757D01*
X145151611Y-91368921D01*
X145235257Y-91525411D01*
X145286766Y-91695212D01*
X145304158Y-91871800D01*
X145286766Y-92048388D01*
X145235257Y-92218189D01*
X145151611Y-92374679D01*
X145039043Y-92511843D01*
X144901879Y-92624411D01*
X144745389Y-92708057D01*
X144575588Y-92759566D01*
X144443249Y-92772600D01*
X144354751Y-92772600D01*
X144222412Y-92759566D01*
X144052611Y-92708057D01*
X143896121Y-92624411D01*
X143758957Y-92511843D01*
X143646389Y-92374679D01*
X143562743Y-92218189D01*
X143511234Y-92048388D01*
X143493842Y-91871800D01*
X143511234Y-91695212D01*
X143562743Y-91525411D01*
X143646389Y-91368921D01*
X143758957Y-91231757D01*
X143896121Y-91119189D01*
X144052611Y-91035543D01*
X144222412Y-90984034D01*
X144354751Y-90971000D01*
X144443249Y-90971000D01*
X144575588Y-90984034D01*
X144575588Y-90984034D01*
G37*
G36*
X158647188Y-88698034D02*
X158816989Y-88749543D01*
X158973479Y-88833189D01*
X159110643Y-88945757D01*
X159223211Y-89082921D01*
X159306857Y-89239411D01*
X159358366Y-89409212D01*
X159375758Y-89585800D01*
X159358366Y-89762388D01*
X159306857Y-89932189D01*
X159223211Y-90088679D01*
X159110643Y-90225843D01*
X158973479Y-90338411D01*
X158816989Y-90422057D01*
X158647188Y-90473566D01*
X158514849Y-90486600D01*
X158426351Y-90486600D01*
X158294012Y-90473566D01*
X158124211Y-90422057D01*
X157967721Y-90338411D01*
X157830557Y-90225843D01*
X157717989Y-90088679D01*
X157634343Y-89932189D01*
X157582834Y-89762388D01*
X157565442Y-89585800D01*
X157582834Y-89409212D01*
X157634343Y-89239411D01*
X157717989Y-89082921D01*
X157830557Y-88945757D01*
X157967721Y-88833189D01*
X158124211Y-88749543D01*
X158294012Y-88698034D01*
X158426351Y-88685000D01*
X158514849Y-88685000D01*
X158647188Y-88698034D01*
X158647188Y-88698034D01*
G37*
G36*
X162380988Y-88698034D02*
X162550789Y-88749543D01*
X162707279Y-88833189D01*
X162844443Y-88945757D01*
X162957011Y-89082921D01*
X163040657Y-89239411D01*
X163092166Y-89409212D01*
X163109558Y-89585800D01*
X163092166Y-89762388D01*
X163040657Y-89932189D01*
X162957011Y-90088679D01*
X162844443Y-90225843D01*
X162707279Y-90338411D01*
X162550789Y-90422057D01*
X162380988Y-90473566D01*
X162248649Y-90486600D01*
X162160151Y-90486600D01*
X162027812Y-90473566D01*
X161858011Y-90422057D01*
X161701521Y-90338411D01*
X161564357Y-90225843D01*
X161451789Y-90088679D01*
X161368143Y-89932189D01*
X161316634Y-89762388D01*
X161299242Y-89585800D01*
X161316634Y-89409212D01*
X161368143Y-89239411D01*
X161451789Y-89082921D01*
X161564357Y-88945757D01*
X161701521Y-88833189D01*
X161858011Y-88749543D01*
X162027812Y-88698034D01*
X162160151Y-88685000D01*
X162248649Y-88685000D01*
X162380988Y-88698034D01*
X162380988Y-88698034D01*
G37*
G36*
X153567188Y-86158034D02*
X153736989Y-86209543D01*
X153893479Y-86293189D01*
X154030643Y-86405757D01*
X154143211Y-86542921D01*
X154226857Y-86699411D01*
X154278366Y-86869212D01*
X154295758Y-87045800D01*
X154278366Y-87222388D01*
X154226857Y-87392189D01*
X154143211Y-87548679D01*
X154030643Y-87685843D01*
X153893479Y-87798411D01*
X153736989Y-87882057D01*
X153567188Y-87933566D01*
X153434849Y-87946600D01*
X153346351Y-87946600D01*
X153214012Y-87933566D01*
X153044211Y-87882057D01*
X152887721Y-87798411D01*
X152750557Y-87685843D01*
X152637989Y-87548679D01*
X152554343Y-87392189D01*
X152502834Y-87222388D01*
X152485442Y-87045800D01*
X152502834Y-86869212D01*
X152554343Y-86699411D01*
X152637989Y-86542921D01*
X152750557Y-86405757D01*
X152887721Y-86293189D01*
X153044211Y-86209543D01*
X153214012Y-86158034D01*
X153346351Y-86145000D01*
X153434849Y-86145000D01*
X153567188Y-86158034D01*
X153567188Y-86158034D01*
G37*
G36*
X105307188Y-86158034D02*
X105476989Y-86209543D01*
X105633479Y-86293189D01*
X105770643Y-86405757D01*
X105883211Y-86542921D01*
X105966857Y-86699411D01*
X106018366Y-86869212D01*
X106035758Y-87045800D01*
X106018366Y-87222388D01*
X105966857Y-87392189D01*
X105883211Y-87548679D01*
X105770643Y-87685843D01*
X105633479Y-87798411D01*
X105476989Y-87882057D01*
X105307188Y-87933566D01*
X105174849Y-87946600D01*
X105086351Y-87946600D01*
X104954012Y-87933566D01*
X104784211Y-87882057D01*
X104627721Y-87798411D01*
X104490557Y-87685843D01*
X104377989Y-87548679D01*
X104294343Y-87392189D01*
X104242834Y-87222388D01*
X104225442Y-87045800D01*
X104242834Y-86869212D01*
X104294343Y-86699411D01*
X104377989Y-86542921D01*
X104490557Y-86405757D01*
X104627721Y-86293189D01*
X104784211Y-86209543D01*
X104954012Y-86158034D01*
X105086351Y-86145000D01*
X105174849Y-86145000D01*
X105307188Y-86158034D01*
X105307188Y-86158034D01*
G37*
G36*
X145947188Y-86158034D02*
X146116989Y-86209543D01*
X146273479Y-86293189D01*
X146410643Y-86405757D01*
X146523211Y-86542921D01*
X146606857Y-86699411D01*
X146658366Y-86869212D01*
X146675758Y-87045800D01*
X146658366Y-87222388D01*
X146606857Y-87392189D01*
X146523211Y-87548679D01*
X146410643Y-87685843D01*
X146273479Y-87798411D01*
X146116989Y-87882057D01*
X145947188Y-87933566D01*
X145814849Y-87946600D01*
X145726351Y-87946600D01*
X145594012Y-87933566D01*
X145424211Y-87882057D01*
X145267721Y-87798411D01*
X145130557Y-87685843D01*
X145017989Y-87548679D01*
X144934343Y-87392189D01*
X144882834Y-87222388D01*
X144865442Y-87045800D01*
X144882834Y-86869212D01*
X144934343Y-86699411D01*
X145017989Y-86542921D01*
X145130557Y-86405757D01*
X145267721Y-86293189D01*
X145424211Y-86209543D01*
X145594012Y-86158034D01*
X145726351Y-86145000D01*
X145814849Y-86145000D01*
X145947188Y-86158034D01*
X145947188Y-86158034D01*
G37*
G36*
X143407188Y-86158034D02*
X143576989Y-86209543D01*
X143733479Y-86293189D01*
X143870643Y-86405757D01*
X143983211Y-86542921D01*
X144066857Y-86699411D01*
X144118366Y-86869212D01*
X144135758Y-87045800D01*
X144118366Y-87222388D01*
X144066857Y-87392189D01*
X143983211Y-87548679D01*
X143870643Y-87685843D01*
X143733479Y-87798411D01*
X143576989Y-87882057D01*
X143407188Y-87933566D01*
X143274849Y-87946600D01*
X143186351Y-87946600D01*
X143054012Y-87933566D01*
X142884211Y-87882057D01*
X142727721Y-87798411D01*
X142590557Y-87685843D01*
X142477989Y-87548679D01*
X142394343Y-87392189D01*
X142342834Y-87222388D01*
X142325442Y-87045800D01*
X142342834Y-86869212D01*
X142394343Y-86699411D01*
X142477989Y-86542921D01*
X142590557Y-86405757D01*
X142727721Y-86293189D01*
X142884211Y-86209543D01*
X143054012Y-86158034D01*
X143186351Y-86145000D01*
X143274849Y-86145000D01*
X143407188Y-86158034D01*
X143407188Y-86158034D01*
G37*
G36*
X140867188Y-86158034D02*
X141036989Y-86209543D01*
X141193479Y-86293189D01*
X141330643Y-86405757D01*
X141443211Y-86542921D01*
X141526857Y-86699411D01*
X141578366Y-86869212D01*
X141595758Y-87045800D01*
X141578366Y-87222388D01*
X141526857Y-87392189D01*
X141443211Y-87548679D01*
X141330643Y-87685843D01*
X141193479Y-87798411D01*
X141036989Y-87882057D01*
X140867188Y-87933566D01*
X140734849Y-87946600D01*
X140646351Y-87946600D01*
X140514012Y-87933566D01*
X140344211Y-87882057D01*
X140187721Y-87798411D01*
X140050557Y-87685843D01*
X139937989Y-87548679D01*
X139854343Y-87392189D01*
X139802834Y-87222388D01*
X139785442Y-87045800D01*
X139802834Y-86869212D01*
X139854343Y-86699411D01*
X139937989Y-86542921D01*
X140050557Y-86405757D01*
X140187721Y-86293189D01*
X140344211Y-86209543D01*
X140514012Y-86158034D01*
X140646351Y-86145000D01*
X140734849Y-86145000D01*
X140867188Y-86158034D01*
X140867188Y-86158034D01*
G37*
G36*
X135787188Y-86158034D02*
X135956989Y-86209543D01*
X136113479Y-86293189D01*
X136250643Y-86405757D01*
X136363211Y-86542921D01*
X136446857Y-86699411D01*
X136498366Y-86869212D01*
X136515758Y-87045800D01*
X136498366Y-87222388D01*
X136446857Y-87392189D01*
X136363211Y-87548679D01*
X136250643Y-87685843D01*
X136113479Y-87798411D01*
X135956989Y-87882057D01*
X135787188Y-87933566D01*
X135654849Y-87946600D01*
X135566351Y-87946600D01*
X135434012Y-87933566D01*
X135264211Y-87882057D01*
X135107721Y-87798411D01*
X134970557Y-87685843D01*
X134857989Y-87548679D01*
X134774343Y-87392189D01*
X134722834Y-87222388D01*
X134705442Y-87045800D01*
X134722834Y-86869212D01*
X134774343Y-86699411D01*
X134857989Y-86542921D01*
X134970557Y-86405757D01*
X135107721Y-86293189D01*
X135264211Y-86209543D01*
X135434012Y-86158034D01*
X135566351Y-86145000D01*
X135654849Y-86145000D01*
X135787188Y-86158034D01*
X135787188Y-86158034D01*
G37*
G36*
X162380988Y-86158034D02*
X162550789Y-86209543D01*
X162707279Y-86293189D01*
X162844443Y-86405757D01*
X162957011Y-86542921D01*
X163040657Y-86699411D01*
X163092166Y-86869212D01*
X163109558Y-87045800D01*
X163092166Y-87222388D01*
X163040657Y-87392189D01*
X162957011Y-87548679D01*
X162844443Y-87685843D01*
X162707279Y-87798411D01*
X162550789Y-87882057D01*
X162380988Y-87933566D01*
X162248649Y-87946600D01*
X162160151Y-87946600D01*
X162027812Y-87933566D01*
X161858011Y-87882057D01*
X161701521Y-87798411D01*
X161564357Y-87685843D01*
X161451789Y-87548679D01*
X161368143Y-87392189D01*
X161316634Y-87222388D01*
X161299242Y-87045800D01*
X161316634Y-86869212D01*
X161368143Y-86699411D01*
X161451789Y-86542921D01*
X161564357Y-86405757D01*
X161701521Y-86293189D01*
X161858011Y-86209543D01*
X162027812Y-86158034D01*
X162160151Y-86145000D01*
X162248649Y-86145000D01*
X162380988Y-86158034D01*
X162380988Y-86158034D01*
G37*
G36*
X151027188Y-86158034D02*
X151196989Y-86209543D01*
X151353479Y-86293189D01*
X151490643Y-86405757D01*
X151603211Y-86542921D01*
X151686857Y-86699411D01*
X151738366Y-86869212D01*
X151755758Y-87045800D01*
X151738366Y-87222388D01*
X151686857Y-87392189D01*
X151603211Y-87548679D01*
X151490643Y-87685843D01*
X151353479Y-87798411D01*
X151196989Y-87882057D01*
X151027188Y-87933566D01*
X150894849Y-87946600D01*
X150806351Y-87946600D01*
X150674012Y-87933566D01*
X150504211Y-87882057D01*
X150347721Y-87798411D01*
X150210557Y-87685843D01*
X150097989Y-87548679D01*
X150014343Y-87392189D01*
X149962834Y-87222388D01*
X149945442Y-87045800D01*
X149962834Y-86869212D01*
X150014343Y-86699411D01*
X150097989Y-86542921D01*
X150210557Y-86405757D01*
X150347721Y-86293189D01*
X150504211Y-86209543D01*
X150674012Y-86158034D01*
X150806351Y-86145000D01*
X150894849Y-86145000D01*
X151027188Y-86158034D01*
X151027188Y-86158034D01*
G37*
G36*
X148487188Y-86158034D02*
X148656989Y-86209543D01*
X148813479Y-86293189D01*
X148950643Y-86405757D01*
X149063211Y-86542921D01*
X149146857Y-86699411D01*
X149198366Y-86869212D01*
X149215758Y-87045800D01*
X149198366Y-87222388D01*
X149146857Y-87392189D01*
X149063211Y-87548679D01*
X148950643Y-87685843D01*
X148813479Y-87798411D01*
X148656989Y-87882057D01*
X148487188Y-87933566D01*
X148354849Y-87946600D01*
X148266351Y-87946600D01*
X148134012Y-87933566D01*
X147964211Y-87882057D01*
X147807721Y-87798411D01*
X147670557Y-87685843D01*
X147557989Y-87548679D01*
X147474343Y-87392189D01*
X147422834Y-87222388D01*
X147405442Y-87045800D01*
X147422834Y-86869212D01*
X147474343Y-86699411D01*
X147557989Y-86542921D01*
X147670557Y-86405757D01*
X147807721Y-86293189D01*
X147964211Y-86209543D01*
X148134012Y-86158034D01*
X148266351Y-86145000D01*
X148354849Y-86145000D01*
X148487188Y-86158034D01*
X148487188Y-86158034D01*
G37*
G36*
X133247188Y-86158034D02*
X133416989Y-86209543D01*
X133573479Y-86293189D01*
X133710643Y-86405757D01*
X133823211Y-86542921D01*
X133906857Y-86699411D01*
X133958366Y-86869212D01*
X133975758Y-87045800D01*
X133958366Y-87222388D01*
X133906857Y-87392189D01*
X133823211Y-87548679D01*
X133710643Y-87685843D01*
X133573479Y-87798411D01*
X133416989Y-87882057D01*
X133247188Y-87933566D01*
X133114849Y-87946600D01*
X133026351Y-87946600D01*
X132894012Y-87933566D01*
X132724211Y-87882057D01*
X132567721Y-87798411D01*
X132430557Y-87685843D01*
X132317989Y-87548679D01*
X132234343Y-87392189D01*
X132182834Y-87222388D01*
X132165442Y-87045800D01*
X132182834Y-86869212D01*
X132234343Y-86699411D01*
X132317989Y-86542921D01*
X132430557Y-86405757D01*
X132567721Y-86293189D01*
X132724211Y-86209543D01*
X132894012Y-86158034D01*
X133026351Y-86145000D01*
X133114849Y-86145000D01*
X133247188Y-86158034D01*
X133247188Y-86158034D01*
G37*
G36*
X158647188Y-86158034D02*
X158816989Y-86209543D01*
X158973479Y-86293189D01*
X159110643Y-86405757D01*
X159223211Y-86542921D01*
X159306857Y-86699411D01*
X159358366Y-86869212D01*
X159375758Y-87045800D01*
X159358366Y-87222388D01*
X159306857Y-87392189D01*
X159223211Y-87548679D01*
X159110643Y-87685843D01*
X158973479Y-87798411D01*
X158816989Y-87882057D01*
X158647188Y-87933566D01*
X158514849Y-87946600D01*
X158426351Y-87946600D01*
X158294012Y-87933566D01*
X158124211Y-87882057D01*
X157967721Y-87798411D01*
X157830557Y-87685843D01*
X157717989Y-87548679D01*
X157634343Y-87392189D01*
X157582834Y-87222388D01*
X157565442Y-87045800D01*
X157582834Y-86869212D01*
X157634343Y-86699411D01*
X157717989Y-86542921D01*
X157830557Y-86405757D01*
X157967721Y-86293189D01*
X158124211Y-86209543D01*
X158294012Y-86158034D01*
X158426351Y-86145000D01*
X158514849Y-86145000D01*
X158647188Y-86158034D01*
X158647188Y-86158034D01*
G37*
G36*
X110387188Y-86158034D02*
X110556989Y-86209543D01*
X110713479Y-86293189D01*
X110850643Y-86405757D01*
X110963211Y-86542921D01*
X111046857Y-86699411D01*
X111098366Y-86869212D01*
X111115758Y-87045800D01*
X111098366Y-87222388D01*
X111046857Y-87392189D01*
X110963211Y-87548679D01*
X110850643Y-87685843D01*
X110713479Y-87798411D01*
X110556989Y-87882057D01*
X110387188Y-87933566D01*
X110254849Y-87946600D01*
X110166351Y-87946600D01*
X110034012Y-87933566D01*
X109864211Y-87882057D01*
X109707721Y-87798411D01*
X109570557Y-87685843D01*
X109457989Y-87548679D01*
X109374343Y-87392189D01*
X109322834Y-87222388D01*
X109305442Y-87045800D01*
X109322834Y-86869212D01*
X109374343Y-86699411D01*
X109457989Y-86542921D01*
X109570557Y-86405757D01*
X109707721Y-86293189D01*
X109864211Y-86209543D01*
X110034012Y-86158034D01*
X110166351Y-86145000D01*
X110254849Y-86145000D01*
X110387188Y-86158034D01*
X110387188Y-86158034D01*
G37*
G36*
X112927188Y-86158034D02*
X113096989Y-86209543D01*
X113253479Y-86293189D01*
X113390643Y-86405757D01*
X113503211Y-86542921D01*
X113586857Y-86699411D01*
X113638366Y-86869212D01*
X113655758Y-87045800D01*
X113638366Y-87222388D01*
X113586857Y-87392189D01*
X113503211Y-87548679D01*
X113390643Y-87685843D01*
X113253479Y-87798411D01*
X113096989Y-87882057D01*
X112927188Y-87933566D01*
X112794849Y-87946600D01*
X112706351Y-87946600D01*
X112574012Y-87933566D01*
X112404211Y-87882057D01*
X112247721Y-87798411D01*
X112110557Y-87685843D01*
X111997989Y-87548679D01*
X111914343Y-87392189D01*
X111862834Y-87222388D01*
X111845442Y-87045800D01*
X111862834Y-86869212D01*
X111914343Y-86699411D01*
X111997989Y-86542921D01*
X112110557Y-86405757D01*
X112247721Y-86293189D01*
X112404211Y-86209543D01*
X112574012Y-86158034D01*
X112706351Y-86145000D01*
X112794849Y-86145000D01*
X112927188Y-86158034D01*
X112927188Y-86158034D01*
G37*
G36*
X128167188Y-86158034D02*
X128336989Y-86209543D01*
X128493479Y-86293189D01*
X128630643Y-86405757D01*
X128743211Y-86542921D01*
X128826857Y-86699411D01*
X128878366Y-86869212D01*
X128895758Y-87045800D01*
X128878366Y-87222388D01*
X128826857Y-87392189D01*
X128743211Y-87548679D01*
X128630643Y-87685843D01*
X128493479Y-87798411D01*
X128336989Y-87882057D01*
X128167188Y-87933566D01*
X128034849Y-87946600D01*
X127946351Y-87946600D01*
X127814012Y-87933566D01*
X127644211Y-87882057D01*
X127487721Y-87798411D01*
X127350557Y-87685843D01*
X127237989Y-87548679D01*
X127154343Y-87392189D01*
X127102834Y-87222388D01*
X127085442Y-87045800D01*
X127102834Y-86869212D01*
X127154343Y-86699411D01*
X127237989Y-86542921D01*
X127350557Y-86405757D01*
X127487721Y-86293189D01*
X127644211Y-86209543D01*
X127814012Y-86158034D01*
X127946351Y-86145000D01*
X128034849Y-86145000D01*
X128167188Y-86158034D01*
X128167188Y-86158034D01*
G37*
G36*
X125627188Y-86158034D02*
X125796989Y-86209543D01*
X125953479Y-86293189D01*
X126090643Y-86405757D01*
X126203211Y-86542921D01*
X126286857Y-86699411D01*
X126338366Y-86869212D01*
X126355758Y-87045800D01*
X126338366Y-87222388D01*
X126286857Y-87392189D01*
X126203211Y-87548679D01*
X126090643Y-87685843D01*
X125953479Y-87798411D01*
X125796989Y-87882057D01*
X125627188Y-87933566D01*
X125494849Y-87946600D01*
X125406351Y-87946600D01*
X125274012Y-87933566D01*
X125104211Y-87882057D01*
X124947721Y-87798411D01*
X124810557Y-87685843D01*
X124697989Y-87548679D01*
X124614343Y-87392189D01*
X124562834Y-87222388D01*
X124545442Y-87045800D01*
X124562834Y-86869212D01*
X124614343Y-86699411D01*
X124697989Y-86542921D01*
X124810557Y-86405757D01*
X124947721Y-86293189D01*
X125104211Y-86209543D01*
X125274012Y-86158034D01*
X125406351Y-86145000D01*
X125494849Y-86145000D01*
X125627188Y-86158034D01*
X125627188Y-86158034D01*
G37*
G36*
X123087188Y-86158034D02*
X123256989Y-86209543D01*
X123413479Y-86293189D01*
X123550643Y-86405757D01*
X123663211Y-86542921D01*
X123746857Y-86699411D01*
X123798366Y-86869212D01*
X123815758Y-87045800D01*
X123798366Y-87222388D01*
X123746857Y-87392189D01*
X123663211Y-87548679D01*
X123550643Y-87685843D01*
X123413479Y-87798411D01*
X123256989Y-87882057D01*
X123087188Y-87933566D01*
X122954849Y-87946600D01*
X122866351Y-87946600D01*
X122734012Y-87933566D01*
X122564211Y-87882057D01*
X122407721Y-87798411D01*
X122270557Y-87685843D01*
X122157989Y-87548679D01*
X122074343Y-87392189D01*
X122022834Y-87222388D01*
X122005442Y-87045800D01*
X122022834Y-86869212D01*
X122074343Y-86699411D01*
X122157989Y-86542921D01*
X122270557Y-86405757D01*
X122407721Y-86293189D01*
X122564211Y-86209543D01*
X122734012Y-86158034D01*
X122866351Y-86145000D01*
X122954849Y-86145000D01*
X123087188Y-86158034D01*
X123087188Y-86158034D01*
G37*
G36*
X120547188Y-86158034D02*
X120716989Y-86209543D01*
X120873479Y-86293189D01*
X121010643Y-86405757D01*
X121123211Y-86542921D01*
X121206857Y-86699411D01*
X121258366Y-86869212D01*
X121275758Y-87045800D01*
X121258366Y-87222388D01*
X121206857Y-87392189D01*
X121123211Y-87548679D01*
X121010643Y-87685843D01*
X120873479Y-87798411D01*
X120716989Y-87882057D01*
X120547188Y-87933566D01*
X120414849Y-87946600D01*
X120326351Y-87946600D01*
X120194012Y-87933566D01*
X120024211Y-87882057D01*
X119867721Y-87798411D01*
X119730557Y-87685843D01*
X119617989Y-87548679D01*
X119534343Y-87392189D01*
X119482834Y-87222388D01*
X119465442Y-87045800D01*
X119482834Y-86869212D01*
X119534343Y-86699411D01*
X119617989Y-86542921D01*
X119730557Y-86405757D01*
X119867721Y-86293189D01*
X120024211Y-86209543D01*
X120194012Y-86158034D01*
X120326351Y-86145000D01*
X120414849Y-86145000D01*
X120547188Y-86158034D01*
X120547188Y-86158034D01*
G37*
G36*
X130707188Y-86158034D02*
X130876989Y-86209543D01*
X131033479Y-86293189D01*
X131170643Y-86405757D01*
X131283211Y-86542921D01*
X131366857Y-86699411D01*
X131418366Y-86869212D01*
X131435758Y-87045800D01*
X131418366Y-87222388D01*
X131366857Y-87392189D01*
X131283211Y-87548679D01*
X131170643Y-87685843D01*
X131033479Y-87798411D01*
X130876989Y-87882057D01*
X130707188Y-87933566D01*
X130574849Y-87946600D01*
X130486351Y-87946600D01*
X130354012Y-87933566D01*
X130184211Y-87882057D01*
X130027721Y-87798411D01*
X129890557Y-87685843D01*
X129777989Y-87548679D01*
X129694343Y-87392189D01*
X129642834Y-87222388D01*
X129625442Y-87045800D01*
X129642834Y-86869212D01*
X129694343Y-86699411D01*
X129777989Y-86542921D01*
X129890557Y-86405757D01*
X130027721Y-86293189D01*
X130184211Y-86209543D01*
X130354012Y-86158034D01*
X130486351Y-86145000D01*
X130574849Y-86145000D01*
X130707188Y-86158034D01*
X130707188Y-86158034D01*
G37*
G36*
X138327188Y-86158034D02*
X138496989Y-86209543D01*
X138653479Y-86293189D01*
X138790643Y-86405757D01*
X138903211Y-86542921D01*
X138986857Y-86699411D01*
X139038366Y-86869212D01*
X139055758Y-87045800D01*
X139038366Y-87222388D01*
X138986857Y-87392189D01*
X138903211Y-87548679D01*
X138790643Y-87685843D01*
X138653479Y-87798411D01*
X138496989Y-87882057D01*
X138327188Y-87933566D01*
X138194849Y-87946600D01*
X138106351Y-87946600D01*
X137974012Y-87933566D01*
X137804211Y-87882057D01*
X137647721Y-87798411D01*
X137510557Y-87685843D01*
X137397989Y-87548679D01*
X137314343Y-87392189D01*
X137262834Y-87222388D01*
X137245442Y-87045800D01*
X137262834Y-86869212D01*
X137314343Y-86699411D01*
X137397989Y-86542921D01*
X137510557Y-86405757D01*
X137647721Y-86293189D01*
X137804211Y-86209543D01*
X137974012Y-86158034D01*
X138106351Y-86145000D01*
X138194849Y-86145000D01*
X138327188Y-86158034D01*
X138327188Y-86158034D01*
G37*
G36*
X118007188Y-86158034D02*
X118176989Y-86209543D01*
X118333479Y-86293189D01*
X118470643Y-86405757D01*
X118583211Y-86542921D01*
X118666857Y-86699411D01*
X118718366Y-86869212D01*
X118735758Y-87045800D01*
X118718366Y-87222388D01*
X118666857Y-87392189D01*
X118583211Y-87548679D01*
X118470643Y-87685843D01*
X118333479Y-87798411D01*
X118176989Y-87882057D01*
X118007188Y-87933566D01*
X117874849Y-87946600D01*
X117786351Y-87946600D01*
X117654012Y-87933566D01*
X117484211Y-87882057D01*
X117327721Y-87798411D01*
X117190557Y-87685843D01*
X117077989Y-87548679D01*
X116994343Y-87392189D01*
X116942834Y-87222388D01*
X116925442Y-87045800D01*
X116942834Y-86869212D01*
X116994343Y-86699411D01*
X117077989Y-86542921D01*
X117190557Y-86405757D01*
X117327721Y-86293189D01*
X117484211Y-86209543D01*
X117654012Y-86158034D01*
X117786351Y-86145000D01*
X117874849Y-86145000D01*
X118007188Y-86158034D01*
X118007188Y-86158034D01*
G37*
G36*
X115467188Y-86158034D02*
X115636989Y-86209543D01*
X115793479Y-86293189D01*
X115930643Y-86405757D01*
X116043211Y-86542921D01*
X116126857Y-86699411D01*
X116178366Y-86869212D01*
X116195758Y-87045800D01*
X116178366Y-87222388D01*
X116126857Y-87392189D01*
X116043211Y-87548679D01*
X115930643Y-87685843D01*
X115793479Y-87798411D01*
X115636989Y-87882057D01*
X115467188Y-87933566D01*
X115334849Y-87946600D01*
X115246351Y-87946600D01*
X115114012Y-87933566D01*
X114944211Y-87882057D01*
X114787721Y-87798411D01*
X114650557Y-87685843D01*
X114537989Y-87548679D01*
X114454343Y-87392189D01*
X114402834Y-87222388D01*
X114385442Y-87045800D01*
X114402834Y-86869212D01*
X114454343Y-86699411D01*
X114537989Y-86542921D01*
X114650557Y-86405757D01*
X114787721Y-86293189D01*
X114944211Y-86209543D01*
X115114012Y-86158034D01*
X115246351Y-86145000D01*
X115334849Y-86145000D01*
X115467188Y-86158034D01*
X115467188Y-86158034D01*
G37*
G36*
X107847188Y-86158034D02*
X108016989Y-86209543D01*
X108173479Y-86293189D01*
X108310643Y-86405757D01*
X108423211Y-86542921D01*
X108506857Y-86699411D01*
X108558366Y-86869212D01*
X108575758Y-87045800D01*
X108558366Y-87222388D01*
X108506857Y-87392189D01*
X108423211Y-87548679D01*
X108310643Y-87685843D01*
X108173479Y-87798411D01*
X108016989Y-87882057D01*
X107847188Y-87933566D01*
X107714849Y-87946600D01*
X107626351Y-87946600D01*
X107494012Y-87933566D01*
X107324211Y-87882057D01*
X107167721Y-87798411D01*
X107030557Y-87685843D01*
X106917989Y-87548679D01*
X106834343Y-87392189D01*
X106782834Y-87222388D01*
X106765442Y-87045800D01*
X106782834Y-86869212D01*
X106834343Y-86699411D01*
X106917989Y-86542921D01*
X107030557Y-86405757D01*
X107167721Y-86293189D01*
X107324211Y-86209543D01*
X107494012Y-86158034D01*
X107626351Y-86145000D01*
X107714849Y-86145000D01*
X107847188Y-86158034D01*
X107847188Y-86158034D01*
G37*
G36*
X120547188Y-83618034D02*
X120716989Y-83669543D01*
X120873479Y-83753189D01*
X121010643Y-83865757D01*
X121123211Y-84002921D01*
X121206857Y-84159411D01*
X121258366Y-84329212D01*
X121275758Y-84505800D01*
X121258366Y-84682388D01*
X121206857Y-84852189D01*
X121123211Y-85008679D01*
X121010643Y-85145843D01*
X120873479Y-85258411D01*
X120716989Y-85342057D01*
X120547188Y-85393566D01*
X120414849Y-85406600D01*
X120326351Y-85406600D01*
X120194012Y-85393566D01*
X120024211Y-85342057D01*
X119867721Y-85258411D01*
X119730557Y-85145843D01*
X119617989Y-85008679D01*
X119534343Y-84852189D01*
X119482834Y-84682388D01*
X119465442Y-84505800D01*
X119482834Y-84329212D01*
X119534343Y-84159411D01*
X119617989Y-84002921D01*
X119730557Y-83865757D01*
X119867721Y-83753189D01*
X120024211Y-83669543D01*
X120194012Y-83618034D01*
X120326351Y-83605000D01*
X120414849Y-83605000D01*
X120547188Y-83618034D01*
X120547188Y-83618034D01*
G37*
G36*
X107847188Y-83618034D02*
X108016989Y-83669543D01*
X108173479Y-83753189D01*
X108310643Y-83865757D01*
X108423211Y-84002921D01*
X108506857Y-84159411D01*
X108558366Y-84329212D01*
X108575758Y-84505800D01*
X108558366Y-84682388D01*
X108506857Y-84852189D01*
X108423211Y-85008679D01*
X108310643Y-85145843D01*
X108173479Y-85258411D01*
X108016989Y-85342057D01*
X107847188Y-85393566D01*
X107714849Y-85406600D01*
X107626351Y-85406600D01*
X107494012Y-85393566D01*
X107324211Y-85342057D01*
X107167721Y-85258411D01*
X107030557Y-85145843D01*
X106917989Y-85008679D01*
X106834343Y-84852189D01*
X106782834Y-84682388D01*
X106765442Y-84505800D01*
X106782834Y-84329212D01*
X106834343Y-84159411D01*
X106917989Y-84002921D01*
X107030557Y-83865757D01*
X107167721Y-83753189D01*
X107324211Y-83669543D01*
X107494012Y-83618034D01*
X107626351Y-83605000D01*
X107714849Y-83605000D01*
X107847188Y-83618034D01*
X107847188Y-83618034D01*
G37*
G36*
X125627188Y-83618034D02*
X125796989Y-83669543D01*
X125953479Y-83753189D01*
X126090643Y-83865757D01*
X126203211Y-84002921D01*
X126286857Y-84159411D01*
X126338366Y-84329212D01*
X126355758Y-84505800D01*
X126338366Y-84682388D01*
X126286857Y-84852189D01*
X126203211Y-85008679D01*
X126090643Y-85145843D01*
X125953479Y-85258411D01*
X125796989Y-85342057D01*
X125627188Y-85393566D01*
X125494849Y-85406600D01*
X125406351Y-85406600D01*
X125274012Y-85393566D01*
X125104211Y-85342057D01*
X124947721Y-85258411D01*
X124810557Y-85145843D01*
X124697989Y-85008679D01*
X124614343Y-84852189D01*
X124562834Y-84682388D01*
X124545442Y-84505800D01*
X124562834Y-84329212D01*
X124614343Y-84159411D01*
X124697989Y-84002921D01*
X124810557Y-83865757D01*
X124947721Y-83753189D01*
X125104211Y-83669543D01*
X125274012Y-83618034D01*
X125406351Y-83605000D01*
X125494849Y-83605000D01*
X125627188Y-83618034D01*
X125627188Y-83618034D01*
G37*
G36*
X128167188Y-83618034D02*
X128336989Y-83669543D01*
X128493479Y-83753189D01*
X128630643Y-83865757D01*
X128743211Y-84002921D01*
X128826857Y-84159411D01*
X128878366Y-84329212D01*
X128895758Y-84505800D01*
X128878366Y-84682388D01*
X128826857Y-84852189D01*
X128743211Y-85008679D01*
X128630643Y-85145843D01*
X128493479Y-85258411D01*
X128336989Y-85342057D01*
X128167188Y-85393566D01*
X128034849Y-85406600D01*
X127946351Y-85406600D01*
X127814012Y-85393566D01*
X127644211Y-85342057D01*
X127487721Y-85258411D01*
X127350557Y-85145843D01*
X127237989Y-85008679D01*
X127154343Y-84852189D01*
X127102834Y-84682388D01*
X127085442Y-84505800D01*
X127102834Y-84329212D01*
X127154343Y-84159411D01*
X127237989Y-84002921D01*
X127350557Y-83865757D01*
X127487721Y-83753189D01*
X127644211Y-83669543D01*
X127814012Y-83618034D01*
X127946351Y-83605000D01*
X128034849Y-83605000D01*
X128167188Y-83618034D01*
X128167188Y-83618034D01*
G37*
G36*
X130707188Y-83618034D02*
X130876989Y-83669543D01*
X131033479Y-83753189D01*
X131170643Y-83865757D01*
X131283211Y-84002921D01*
X131366857Y-84159411D01*
X131418366Y-84329212D01*
X131435758Y-84505800D01*
X131418366Y-84682388D01*
X131366857Y-84852189D01*
X131283211Y-85008679D01*
X131170643Y-85145843D01*
X131033479Y-85258411D01*
X130876989Y-85342057D01*
X130707188Y-85393566D01*
X130574849Y-85406600D01*
X130486351Y-85406600D01*
X130354012Y-85393566D01*
X130184211Y-85342057D01*
X130027721Y-85258411D01*
X129890557Y-85145843D01*
X129777989Y-85008679D01*
X129694343Y-84852189D01*
X129642834Y-84682388D01*
X129625442Y-84505800D01*
X129642834Y-84329212D01*
X129694343Y-84159411D01*
X129777989Y-84002921D01*
X129890557Y-83865757D01*
X130027721Y-83753189D01*
X130184211Y-83669543D01*
X130354012Y-83618034D01*
X130486351Y-83605000D01*
X130574849Y-83605000D01*
X130707188Y-83618034D01*
X130707188Y-83618034D01*
G37*
G36*
X133247188Y-83618034D02*
X133416989Y-83669543D01*
X133573479Y-83753189D01*
X133710643Y-83865757D01*
X133823211Y-84002921D01*
X133906857Y-84159411D01*
X133958366Y-84329212D01*
X133975758Y-84505800D01*
X133958366Y-84682388D01*
X133906857Y-84852189D01*
X133823211Y-85008679D01*
X133710643Y-85145843D01*
X133573479Y-85258411D01*
X133416989Y-85342057D01*
X133247188Y-85393566D01*
X133114849Y-85406600D01*
X133026351Y-85406600D01*
X132894012Y-85393566D01*
X132724211Y-85342057D01*
X132567721Y-85258411D01*
X132430557Y-85145843D01*
X132317989Y-85008679D01*
X132234343Y-84852189D01*
X132182834Y-84682388D01*
X132165442Y-84505800D01*
X132182834Y-84329212D01*
X132234343Y-84159411D01*
X132317989Y-84002921D01*
X132430557Y-83865757D01*
X132567721Y-83753189D01*
X132724211Y-83669543D01*
X132894012Y-83618034D01*
X133026351Y-83605000D01*
X133114849Y-83605000D01*
X133247188Y-83618034D01*
X133247188Y-83618034D01*
G37*
G36*
X135787188Y-83618034D02*
X135956989Y-83669543D01*
X136113479Y-83753189D01*
X136250643Y-83865757D01*
X136363211Y-84002921D01*
X136446857Y-84159411D01*
X136498366Y-84329212D01*
X136515758Y-84505800D01*
X136498366Y-84682388D01*
X136446857Y-84852189D01*
X136363211Y-85008679D01*
X136250643Y-85145843D01*
X136113479Y-85258411D01*
X135956989Y-85342057D01*
X135787188Y-85393566D01*
X135654849Y-85406600D01*
X135566351Y-85406600D01*
X135434012Y-85393566D01*
X135264211Y-85342057D01*
X135107721Y-85258411D01*
X134970557Y-85145843D01*
X134857989Y-85008679D01*
X134774343Y-84852189D01*
X134722834Y-84682388D01*
X134705442Y-84505800D01*
X134722834Y-84329212D01*
X134774343Y-84159411D01*
X134857989Y-84002921D01*
X134970557Y-83865757D01*
X135107721Y-83753189D01*
X135264211Y-83669543D01*
X135434012Y-83618034D01*
X135566351Y-83605000D01*
X135654849Y-83605000D01*
X135787188Y-83618034D01*
X135787188Y-83618034D01*
G37*
G36*
X145947188Y-83618034D02*
X146116989Y-83669543D01*
X146273479Y-83753189D01*
X146410643Y-83865757D01*
X146523211Y-84002921D01*
X146606857Y-84159411D01*
X146658366Y-84329212D01*
X146675758Y-84505800D01*
X146658366Y-84682388D01*
X146606857Y-84852189D01*
X146523211Y-85008679D01*
X146410643Y-85145843D01*
X146273479Y-85258411D01*
X146116989Y-85342057D01*
X145947188Y-85393566D01*
X145814849Y-85406600D01*
X145726351Y-85406600D01*
X145594012Y-85393566D01*
X145424211Y-85342057D01*
X145267721Y-85258411D01*
X145130557Y-85145843D01*
X145017989Y-85008679D01*
X144934343Y-84852189D01*
X144882834Y-84682388D01*
X144865442Y-84505800D01*
X144882834Y-84329212D01*
X144934343Y-84159411D01*
X145017989Y-84002921D01*
X145130557Y-83865757D01*
X145267721Y-83753189D01*
X145424211Y-83669543D01*
X145594012Y-83618034D01*
X145726351Y-83605000D01*
X145814849Y-83605000D01*
X145947188Y-83618034D01*
X145947188Y-83618034D01*
G37*
G36*
X143407188Y-83618034D02*
X143576989Y-83669543D01*
X143733479Y-83753189D01*
X143870643Y-83865757D01*
X143983211Y-84002921D01*
X144066857Y-84159411D01*
X144118366Y-84329212D01*
X144135758Y-84505800D01*
X144118366Y-84682388D01*
X144066857Y-84852189D01*
X143983211Y-85008679D01*
X143870643Y-85145843D01*
X143733479Y-85258411D01*
X143576989Y-85342057D01*
X143407188Y-85393566D01*
X143274849Y-85406600D01*
X143186351Y-85406600D01*
X143054012Y-85393566D01*
X142884211Y-85342057D01*
X142727721Y-85258411D01*
X142590557Y-85145843D01*
X142477989Y-85008679D01*
X142394343Y-84852189D01*
X142342834Y-84682388D01*
X142325442Y-84505800D01*
X142342834Y-84329212D01*
X142394343Y-84159411D01*
X142477989Y-84002921D01*
X142590557Y-83865757D01*
X142727721Y-83753189D01*
X142884211Y-83669543D01*
X143054012Y-83618034D01*
X143186351Y-83605000D01*
X143274849Y-83605000D01*
X143407188Y-83618034D01*
X143407188Y-83618034D01*
G37*
G36*
X140867188Y-83618034D02*
X141036989Y-83669543D01*
X141193479Y-83753189D01*
X141330643Y-83865757D01*
X141443211Y-84002921D01*
X141526857Y-84159411D01*
X141578366Y-84329212D01*
X141595758Y-84505800D01*
X141578366Y-84682388D01*
X141526857Y-84852189D01*
X141443211Y-85008679D01*
X141330643Y-85145843D01*
X141193479Y-85258411D01*
X141036989Y-85342057D01*
X140867188Y-85393566D01*
X140734849Y-85406600D01*
X140646351Y-85406600D01*
X140514012Y-85393566D01*
X140344211Y-85342057D01*
X140187721Y-85258411D01*
X140050557Y-85145843D01*
X139937989Y-85008679D01*
X139854343Y-84852189D01*
X139802834Y-84682388D01*
X139785442Y-84505800D01*
X139802834Y-84329212D01*
X139854343Y-84159411D01*
X139937989Y-84002921D01*
X140050557Y-83865757D01*
X140187721Y-83753189D01*
X140344211Y-83669543D01*
X140514012Y-83618034D01*
X140646351Y-83605000D01*
X140734849Y-83605000D01*
X140867188Y-83618034D01*
X140867188Y-83618034D01*
G37*
G36*
X138327188Y-83618034D02*
X138496989Y-83669543D01*
X138653479Y-83753189D01*
X138790643Y-83865757D01*
X138903211Y-84002921D01*
X138986857Y-84159411D01*
X139038366Y-84329212D01*
X139055758Y-84505800D01*
X139038366Y-84682388D01*
X138986857Y-84852189D01*
X138903211Y-85008679D01*
X138790643Y-85145843D01*
X138653479Y-85258411D01*
X138496989Y-85342057D01*
X138327188Y-85393566D01*
X138194849Y-85406600D01*
X138106351Y-85406600D01*
X137974012Y-85393566D01*
X137804211Y-85342057D01*
X137647721Y-85258411D01*
X137510557Y-85145843D01*
X137397989Y-85008679D01*
X137314343Y-84852189D01*
X137262834Y-84682388D01*
X137245442Y-84505800D01*
X137262834Y-84329212D01*
X137314343Y-84159411D01*
X137397989Y-84002921D01*
X137510557Y-83865757D01*
X137647721Y-83753189D01*
X137804211Y-83669543D01*
X137974012Y-83618034D01*
X138106351Y-83605000D01*
X138194849Y-83605000D01*
X138327188Y-83618034D01*
X138327188Y-83618034D01*
G37*
G36*
X118007188Y-83618034D02*
X118176989Y-83669543D01*
X118333479Y-83753189D01*
X118470643Y-83865757D01*
X118583211Y-84002921D01*
X118666857Y-84159411D01*
X118718366Y-84329212D01*
X118735758Y-84505800D01*
X118718366Y-84682388D01*
X118666857Y-84852189D01*
X118583211Y-85008679D01*
X118470643Y-85145843D01*
X118333479Y-85258411D01*
X118176989Y-85342057D01*
X118007188Y-85393566D01*
X117874849Y-85406600D01*
X117786351Y-85406600D01*
X117654012Y-85393566D01*
X117484211Y-85342057D01*
X117327721Y-85258411D01*
X117190557Y-85145843D01*
X117077989Y-85008679D01*
X116994343Y-84852189D01*
X116942834Y-84682388D01*
X116925442Y-84505800D01*
X116942834Y-84329212D01*
X116994343Y-84159411D01*
X117077989Y-84002921D01*
X117190557Y-83865757D01*
X117327721Y-83753189D01*
X117484211Y-83669543D01*
X117654012Y-83618034D01*
X117786351Y-83605000D01*
X117874849Y-83605000D01*
X118007188Y-83618034D01*
X118007188Y-83618034D01*
G37*
G36*
X148487188Y-83618034D02*
X148656989Y-83669543D01*
X148813479Y-83753189D01*
X148950643Y-83865757D01*
X149063211Y-84002921D01*
X149146857Y-84159411D01*
X149198366Y-84329212D01*
X149215758Y-84505800D01*
X149198366Y-84682388D01*
X149146857Y-84852189D01*
X149063211Y-85008679D01*
X148950643Y-85145843D01*
X148813479Y-85258411D01*
X148656989Y-85342057D01*
X148487188Y-85393566D01*
X148354849Y-85406600D01*
X148266351Y-85406600D01*
X148134012Y-85393566D01*
X147964211Y-85342057D01*
X147807721Y-85258411D01*
X147670557Y-85145843D01*
X147557989Y-85008679D01*
X147474343Y-84852189D01*
X147422834Y-84682388D01*
X147405442Y-84505800D01*
X147422834Y-84329212D01*
X147474343Y-84159411D01*
X147557989Y-84002921D01*
X147670557Y-83865757D01*
X147807721Y-83753189D01*
X147964211Y-83669543D01*
X148134012Y-83618034D01*
X148266351Y-83605000D01*
X148354849Y-83605000D01*
X148487188Y-83618034D01*
X148487188Y-83618034D01*
G37*
G36*
X115467188Y-83618034D02*
X115636989Y-83669543D01*
X115793479Y-83753189D01*
X115930643Y-83865757D01*
X116043211Y-84002921D01*
X116126857Y-84159411D01*
X116178366Y-84329212D01*
X116195758Y-84505800D01*
X116178366Y-84682388D01*
X116126857Y-84852189D01*
X116043211Y-85008679D01*
X115930643Y-85145843D01*
X115793479Y-85258411D01*
X115636989Y-85342057D01*
X115467188Y-85393566D01*
X115334849Y-85406600D01*
X115246351Y-85406600D01*
X115114012Y-85393566D01*
X114944211Y-85342057D01*
X114787721Y-85258411D01*
X114650557Y-85145843D01*
X114537989Y-85008679D01*
X114454343Y-84852189D01*
X114402834Y-84682388D01*
X114385442Y-84505800D01*
X114402834Y-84329212D01*
X114454343Y-84159411D01*
X114537989Y-84002921D01*
X114650557Y-83865757D01*
X114787721Y-83753189D01*
X114944211Y-83669543D01*
X115114012Y-83618034D01*
X115246351Y-83605000D01*
X115334849Y-83605000D01*
X115467188Y-83618034D01*
X115467188Y-83618034D01*
G37*
G36*
X112927188Y-83618034D02*
X113096989Y-83669543D01*
X113253479Y-83753189D01*
X113390643Y-83865757D01*
X113503211Y-84002921D01*
X113586857Y-84159411D01*
X113638366Y-84329212D01*
X113655758Y-84505800D01*
X113638366Y-84682388D01*
X113586857Y-84852189D01*
X113503211Y-85008679D01*
X113390643Y-85145843D01*
X113253479Y-85258411D01*
X113096989Y-85342057D01*
X112927188Y-85393566D01*
X112794849Y-85406600D01*
X112706351Y-85406600D01*
X112574012Y-85393566D01*
X112404211Y-85342057D01*
X112247721Y-85258411D01*
X112110557Y-85145843D01*
X111997989Y-85008679D01*
X111914343Y-84852189D01*
X111862834Y-84682388D01*
X111845442Y-84505800D01*
X111862834Y-84329212D01*
X111914343Y-84159411D01*
X111997989Y-84002921D01*
X112110557Y-83865757D01*
X112247721Y-83753189D01*
X112404211Y-83669543D01*
X112574012Y-83618034D01*
X112706351Y-83605000D01*
X112794849Y-83605000D01*
X112927188Y-83618034D01*
X112927188Y-83618034D01*
G37*
G36*
X110387188Y-83618034D02*
X110556989Y-83669543D01*
X110713479Y-83753189D01*
X110850643Y-83865757D01*
X110963211Y-84002921D01*
X111046857Y-84159411D01*
X111098366Y-84329212D01*
X111115758Y-84505800D01*
X111098366Y-84682388D01*
X111046857Y-84852189D01*
X110963211Y-85008679D01*
X110850643Y-85145843D01*
X110713479Y-85258411D01*
X110556989Y-85342057D01*
X110387188Y-85393566D01*
X110254849Y-85406600D01*
X110166351Y-85406600D01*
X110034012Y-85393566D01*
X109864211Y-85342057D01*
X109707721Y-85258411D01*
X109570557Y-85145843D01*
X109457989Y-85008679D01*
X109374343Y-84852189D01*
X109322834Y-84682388D01*
X109305442Y-84505800D01*
X109322834Y-84329212D01*
X109374343Y-84159411D01*
X109457989Y-84002921D01*
X109570557Y-83865757D01*
X109707721Y-83753189D01*
X109864211Y-83669543D01*
X110034012Y-83618034D01*
X110166351Y-83605000D01*
X110254849Y-83605000D01*
X110387188Y-83618034D01*
X110387188Y-83618034D01*
G37*
G36*
X105307188Y-83618034D02*
X105476989Y-83669543D01*
X105633479Y-83753189D01*
X105770643Y-83865757D01*
X105883211Y-84002921D01*
X105966857Y-84159411D01*
X106018366Y-84329212D01*
X106035758Y-84505800D01*
X106018366Y-84682388D01*
X105966857Y-84852189D01*
X105883211Y-85008679D01*
X105770643Y-85145843D01*
X105633479Y-85258411D01*
X105476989Y-85342057D01*
X105307188Y-85393566D01*
X105174849Y-85406600D01*
X105086351Y-85406600D01*
X104954012Y-85393566D01*
X104784211Y-85342057D01*
X104627721Y-85258411D01*
X104490557Y-85145843D01*
X104377989Y-85008679D01*
X104294343Y-84852189D01*
X104242834Y-84682388D01*
X104225442Y-84505800D01*
X104242834Y-84329212D01*
X104294343Y-84159411D01*
X104377989Y-84002921D01*
X104490557Y-83865757D01*
X104627721Y-83753189D01*
X104784211Y-83669543D01*
X104954012Y-83618034D01*
X105086351Y-83605000D01*
X105174849Y-83605000D01*
X105307188Y-83618034D01*
X105307188Y-83618034D01*
G37*
G36*
X159371400Y-85406600D02*
X157569800Y-85406600D01*
X157569800Y-83605000D01*
X159371400Y-83605000D01*
X159371400Y-85406600D01*
X159371400Y-85406600D01*
G37*
G36*
X154291400Y-85406600D02*
X152489800Y-85406600D01*
X152489800Y-83605000D01*
X154291400Y-83605000D01*
X154291400Y-85406600D01*
X154291400Y-85406600D01*
G37*
G36*
X151027188Y-83618034D02*
X151196989Y-83669543D01*
X151353479Y-83753189D01*
X151490643Y-83865757D01*
X151603211Y-84002921D01*
X151686857Y-84159411D01*
X151738366Y-84329212D01*
X151755758Y-84505800D01*
X151738366Y-84682388D01*
X151686857Y-84852189D01*
X151603211Y-85008679D01*
X151490643Y-85145843D01*
X151353479Y-85258411D01*
X151196989Y-85342057D01*
X151027188Y-85393566D01*
X150894849Y-85406600D01*
X150806351Y-85406600D01*
X150674012Y-85393566D01*
X150504211Y-85342057D01*
X150347721Y-85258411D01*
X150210557Y-85145843D01*
X150097989Y-85008679D01*
X150014343Y-84852189D01*
X149962834Y-84682388D01*
X149945442Y-84505800D01*
X149962834Y-84329212D01*
X150014343Y-84159411D01*
X150097989Y-84002921D01*
X150210557Y-83865757D01*
X150347721Y-83753189D01*
X150504211Y-83669543D01*
X150674012Y-83618034D01*
X150806351Y-83605000D01*
X150894849Y-83605000D01*
X151027188Y-83618034D01*
X151027188Y-83618034D01*
G37*
G36*
X163105200Y-85406600D02*
X161303600Y-85406600D01*
X161303600Y-83605000D01*
X163105200Y-83605000D01*
X163105200Y-85406600D01*
X163105200Y-85406600D01*
G37*
G36*
X123087188Y-83618034D02*
X123256989Y-83669543D01*
X123413479Y-83753189D01*
X123550643Y-83865757D01*
X123663211Y-84002921D01*
X123746857Y-84159411D01*
X123798366Y-84329212D01*
X123815758Y-84505800D01*
X123798366Y-84682388D01*
X123746857Y-84852189D01*
X123663211Y-85008679D01*
X123550643Y-85145843D01*
X123413479Y-85258411D01*
X123256989Y-85342057D01*
X123087188Y-85393566D01*
X122954849Y-85406600D01*
X122866351Y-85406600D01*
X122734012Y-85393566D01*
X122564211Y-85342057D01*
X122407721Y-85258411D01*
X122270557Y-85145843D01*
X122157989Y-85008679D01*
X122074343Y-84852189D01*
X122022834Y-84682388D01*
X122005442Y-84505800D01*
X122022834Y-84329212D01*
X122074343Y-84159411D01*
X122157989Y-84002921D01*
X122270557Y-83865757D01*
X122407721Y-83753189D01*
X122564211Y-83669543D01*
X122734012Y-83618034D01*
X122866351Y-83605000D01*
X122954849Y-83605000D01*
X123087188Y-83618034D01*
X123087188Y-83618034D01*
G37*
G36*
X171350598Y-81711032D02*
X171605528Y-81816627D01*
X171834958Y-81969927D01*
X172030073Y-82165042D01*
X172183373Y-82394472D01*
X172288968Y-82649402D01*
X172342800Y-82920033D01*
X172342800Y-83195967D01*
X172288968Y-83466598D01*
X172183373Y-83721528D01*
X172030073Y-83950958D01*
X171834958Y-84146073D01*
X171605528Y-84299373D01*
X171350598Y-84404968D01*
X171079967Y-84458800D01*
X170804033Y-84458800D01*
X170533402Y-84404968D01*
X170278472Y-84299373D01*
X170049042Y-84146073D01*
X169853927Y-83950958D01*
X169700627Y-83721528D01*
X169595032Y-83466598D01*
X169541200Y-83195967D01*
X169541200Y-82920033D01*
X169595032Y-82649402D01*
X169700627Y-82394472D01*
X169853927Y-82165042D01*
X170049042Y-81969927D01*
X170278472Y-81816627D01*
X170533402Y-81711032D01*
X170804033Y-81657200D01*
X171079967Y-81657200D01*
X171350598Y-81711032D01*
X171350598Y-81711032D01*
G37*
G36*
X99976598Y-81711032D02*
X100231528Y-81816627D01*
X100460958Y-81969927D01*
X100656073Y-82165042D01*
X100809373Y-82394472D01*
X100914968Y-82649402D01*
X100968800Y-82920033D01*
X100968800Y-83195967D01*
X100914968Y-83466598D01*
X100809373Y-83721528D01*
X100656073Y-83950958D01*
X100460958Y-84146073D01*
X100231528Y-84299373D01*
X99976598Y-84404968D01*
X99705967Y-84458800D01*
X99430033Y-84458800D01*
X99159402Y-84404968D01*
X98904472Y-84299373D01*
X98675042Y-84146073D01*
X98479927Y-83950958D01*
X98326627Y-83721528D01*
X98221032Y-83466598D01*
X98167200Y-83195967D01*
X98167200Y-82920033D01*
X98221032Y-82649402D01*
X98326627Y-82394472D01*
X98479927Y-82165042D01*
X98675042Y-81969927D01*
X98904472Y-81816627D01*
X99159402Y-81711032D01*
X99430033Y-81657200D01*
X99705967Y-81657200D01*
X99976598Y-81711032D01*
X99976598Y-81711032D01*
G37*
M02*
