G04 #@! TF.GenerationSoftware,KiCad,Pcbnew,5.0.2+dfsg1-1*
G04 #@! TF.CreationDate,2019-10-10T10:00:05+02:00*
G04 #@! TF.ProjectId,BEE,4245452e-6b69-4636-9164-5f7063625858,rev?*
G04 #@! TF.SameCoordinates,Original*
G04 #@! TF.FileFunction,Copper,L2,Bot*
G04 #@! TF.FilePolarity,Positive*
%FSLAX46Y46*%
G04 Gerber Fmt 4.6, Leading zero omitted, Abs format (unit mm)*
G04 Created by KiCad (PCBNEW 5.0.2+dfsg1-1) date Thu 10 Oct 2019 10:00:05 AM CEST*
%MOMM*%
%LPD*%
G01*
G04 APERTURE LIST*
G04 #@! TA.AperFunction,ComponentPad*
%ADD10C,1.100000*%
G04 #@! TD*
G04 #@! TA.AperFunction,ComponentPad*
%ADD11R,1.700000X1.700000*%
G04 #@! TD*
G04 #@! TA.AperFunction,ComponentPad*
%ADD12O,1.700000X1.700000*%
G04 #@! TD*
G04 #@! TA.AperFunction,ViaPad*
%ADD13C,0.762000*%
G04 #@! TD*
G04 #@! TA.AperFunction,ViaPad*
%ADD14C,0.508000*%
G04 #@! TD*
G04 #@! TA.AperFunction,Conductor*
%ADD15C,0.609600*%
G04 #@! TD*
G04 #@! TA.AperFunction,Conductor*
%ADD16C,0.203200*%
G04 #@! TD*
G04 #@! TA.AperFunction,Conductor*
%ADD17C,0.152400*%
G04 #@! TD*
G04 #@! TA.AperFunction,Conductor*
%ADD18C,0.254000*%
G04 #@! TD*
G04 APERTURE END LIST*
D10*
G04 #@! TO.P,BZ1,2*
G04 #@! TO.N,Net-(BZ1-Pad2)*
X105283000Y-97616000D03*
G04 #@! TO.P,BZ1,1*
G04 #@! TO.N,Net-(BZ1-Pad1)*
X105283000Y-107616000D03*
G04 #@! TD*
D11*
G04 #@! TO.P,J5,1*
G04 #@! TO.N,+3V3*
X168910000Y-88900000D03*
D12*
G04 #@! TO.P,J5,2*
G04 #@! TO.N,Net-(J5-Pad2)*
X171450000Y-88900000D03*
G04 #@! TO.P,J5,3*
G04 #@! TO.N,/BCM22_TRST*
X168910000Y-91440000D03*
G04 #@! TO.P,J5,4*
G04 #@! TO.N,GND*
X171450000Y-91440000D03*
G04 #@! TO.P,J5,5*
G04 #@! TO.N,/BCM4_TDI*
X168910000Y-93980000D03*
G04 #@! TO.P,J5,6*
G04 #@! TO.N,GND*
X171450000Y-93980000D03*
G04 #@! TO.P,J5,7*
G04 #@! TO.N,/BCM27_TMS*
X168910000Y-96520000D03*
G04 #@! TO.P,J5,8*
G04 #@! TO.N,GND*
X171450000Y-96520000D03*
G04 #@! TO.P,J5,9*
G04 #@! TO.N,/BCM25_TCK*
X168910000Y-99060000D03*
G04 #@! TO.P,J5,10*
G04 #@! TO.N,GND*
X171450000Y-99060000D03*
G04 #@! TO.P,J5,11*
G04 #@! TO.N,/BCM23_RTCK*
X168910000Y-101600000D03*
G04 #@! TO.P,J5,12*
G04 #@! TO.N,GND*
X171450000Y-101600000D03*
G04 #@! TO.P,J5,13*
G04 #@! TO.N,/BCM24_TDO*
X168910000Y-104140000D03*
G04 #@! TO.P,J5,14*
G04 #@! TO.N,GND*
X171450000Y-104140000D03*
G04 #@! TO.P,J5,15*
G04 #@! TO.N,N/C*
X168910000Y-106680000D03*
G04 #@! TO.P,J5,16*
G04 #@! TO.N,GND*
X171450000Y-106680000D03*
G04 #@! TO.P,J5,17*
G04 #@! TO.N,N/C*
X168910000Y-109220000D03*
G04 #@! TO.P,J5,18*
G04 #@! TO.N,GND*
X171450000Y-109220000D03*
G04 #@! TO.P,J5,19*
G04 #@! TO.N,N/C*
X168910000Y-111760000D03*
G04 #@! TO.P,J5,20*
G04 #@! TO.N,GND*
X171450000Y-111760000D03*
G04 #@! TD*
D11*
G04 #@! TO.P,J2,1*
G04 #@! TO.N,/BCM10_MOSI*
X137160000Y-97790000D03*
D12*
G04 #@! TO.P,J2,2*
G04 #@! TO.N,/MOSI*
X137160000Y-100330000D03*
G04 #@! TO.P,J2,3*
G04 #@! TO.N,/BCM9_MISO*
X134620000Y-97790000D03*
G04 #@! TO.P,J2,4*
G04 #@! TO.N,/MISO*
X134620000Y-100330000D03*
G04 #@! TO.P,J2,5*
G04 #@! TO.N,/BCM11_SCLK*
X132080000Y-97790000D03*
G04 #@! TO.P,J2,6*
G04 #@! TO.N,/SCLK*
X132080000Y-100330000D03*
G04 #@! TO.P,J2,7*
G04 #@! TO.N,/BCM8_CE0*
X129540000Y-97790000D03*
G04 #@! TO.P,J2,8*
G04 #@! TO.N,/CE_ADC*
X129540000Y-100330000D03*
G04 #@! TO.P,J2,9*
G04 #@! TO.N,/BCM7_CE1*
X127000000Y-97790000D03*
G04 #@! TO.P,J2,10*
G04 #@! TO.N,/CE_DAC*
X127000000Y-100330000D03*
G04 #@! TD*
D11*
G04 #@! TO.P,J1,1*
G04 #@! TO.N,+3V3*
X152654000Y-83058000D03*
D12*
G04 #@! TO.P,J1,2*
G04 #@! TO.N,+5V*
X152654000Y-85598000D03*
G04 #@! TO.P,J1,3*
G04 #@! TO.N,/BCM2_SDA*
X150114000Y-83058000D03*
G04 #@! TO.P,J1,4*
G04 #@! TO.N,+5V*
X150114000Y-85598000D03*
G04 #@! TO.P,J1,5*
G04 #@! TO.N,/BCM3_SCL*
X147574000Y-83058000D03*
G04 #@! TO.P,J1,6*
G04 #@! TO.N,GND*
X147574000Y-85598000D03*
G04 #@! TO.P,J1,7*
G04 #@! TO.N,/BCM4_TDI*
X145034000Y-83058000D03*
G04 #@! TO.P,J1,8*
G04 #@! TO.N,/BCM14_TX*
X145034000Y-85598000D03*
G04 #@! TO.P,J1,9*
G04 #@! TO.N,GND*
X142494000Y-83058000D03*
G04 #@! TO.P,J1,10*
G04 #@! TO.N,/BCM15_RX*
X142494000Y-85598000D03*
G04 #@! TO.P,J1,11*
G04 #@! TO.N,/BCM17_RTS*
X139954000Y-83058000D03*
G04 #@! TO.P,J1,12*
G04 #@! TO.N,/BCM18_PWM0*
X139954000Y-85598000D03*
G04 #@! TO.P,J1,13*
G04 #@! TO.N,/BCM27_TMS*
X137414000Y-83058000D03*
G04 #@! TO.P,J1,14*
G04 #@! TO.N,GND*
X137414000Y-85598000D03*
G04 #@! TO.P,J1,15*
G04 #@! TO.N,/BCM22_TRST*
X134874000Y-83058000D03*
G04 #@! TO.P,J1,16*
G04 #@! TO.N,/BCM23_RTCK*
X134874000Y-85598000D03*
G04 #@! TO.P,J1,17*
G04 #@! TO.N,+3V3*
X132334000Y-83058000D03*
G04 #@! TO.P,J1,18*
G04 #@! TO.N,/BCM24_TDO*
X132334000Y-85598000D03*
G04 #@! TO.P,J1,19*
G04 #@! TO.N,/BCM10_MOSI*
X129794000Y-83058000D03*
G04 #@! TO.P,J1,20*
G04 #@! TO.N,GND*
X129794000Y-85598000D03*
G04 #@! TO.P,J1,21*
G04 #@! TO.N,/BCM9_MISO*
X127254000Y-83058000D03*
G04 #@! TO.P,J1,22*
G04 #@! TO.N,/BCM25_TCK*
X127254000Y-85598000D03*
G04 #@! TO.P,J1,23*
G04 #@! TO.N,/BCM11_SCLK*
X124714000Y-83058000D03*
G04 #@! TO.P,J1,24*
G04 #@! TO.N,/BCM8_CE0*
X124714000Y-85598000D03*
G04 #@! TO.P,J1,25*
G04 #@! TO.N,GND*
X122174000Y-83058000D03*
G04 #@! TO.P,J1,26*
G04 #@! TO.N,/BCM7_CE1*
X122174000Y-85598000D03*
G04 #@! TO.P,J1,27*
G04 #@! TO.N,/BCM0*
X119634000Y-83058000D03*
G04 #@! TO.P,J1,28*
G04 #@! TO.N,/BCM1*
X119634000Y-85598000D03*
G04 #@! TO.P,J1,29*
G04 #@! TO.N,/BCM5*
X117094000Y-83058000D03*
G04 #@! TO.P,J1,30*
G04 #@! TO.N,GND*
X117094000Y-85598000D03*
G04 #@! TO.P,J1,31*
G04 #@! TO.N,/BCM6*
X114554000Y-83058000D03*
G04 #@! TO.P,J1,32*
G04 #@! TO.N,/BCM12_PWM0*
X114554000Y-85598000D03*
G04 #@! TO.P,J1,33*
G04 #@! TO.N,/BCM13_PWM1*
X112014000Y-83058000D03*
G04 #@! TO.P,J1,34*
G04 #@! TO.N,GND*
X112014000Y-85598000D03*
G04 #@! TO.P,J1,35*
G04 #@! TO.N,/BCM19*
X109474000Y-83058000D03*
G04 #@! TO.P,J1,36*
G04 #@! TO.N,/BCM16_CTS*
X109474000Y-85598000D03*
G04 #@! TO.P,J1,37*
G04 #@! TO.N,/BCM26*
X106934000Y-83058000D03*
G04 #@! TO.P,J1,38*
G04 #@! TO.N,/BCM20*
X106934000Y-85598000D03*
G04 #@! TO.P,J1,39*
G04 #@! TO.N,GND*
X104394000Y-83058000D03*
G04 #@! TO.P,J1,40*
G04 #@! TO.N,/BCM21*
X104394000Y-85598000D03*
G04 #@! TD*
D11*
G04 #@! TO.P,J13,1*
G04 #@! TO.N,GND*
X133604000Y-90678000D03*
D12*
G04 #@! TO.P,J13,2*
G04 #@! TO.N,/BCM17_RTS*
X136144000Y-90678000D03*
G04 #@! TO.P,J13,3*
G04 #@! TO.N,N/C*
X138684000Y-90678000D03*
G04 #@! TO.P,J13,4*
G04 #@! TO.N,/BCM15_RX*
X141224000Y-90678000D03*
G04 #@! TO.P,J13,5*
G04 #@! TO.N,/BCM14_TX*
X143764000Y-90678000D03*
G04 #@! TO.P,J13,6*
G04 #@! TO.N,/BCM16_CTS*
X146304000Y-90678000D03*
G04 #@! TD*
D11*
G04 #@! TO.P,J4,1*
G04 #@! TO.N,/L3*
X116332000Y-105410000D03*
D12*
G04 #@! TO.P,J4,2*
G04 #@! TO.N,/L2*
X118872000Y-105410000D03*
G04 #@! TO.P,J4,3*
G04 #@! TO.N,/L1*
X121412000Y-105410000D03*
G04 #@! TO.P,J4,4*
G04 #@! TO.N,/SW3*
X123952000Y-105410000D03*
G04 #@! TO.P,J4,5*
G04 #@! TO.N,/SW2*
X126492000Y-105410000D03*
G04 #@! TO.P,J4,6*
G04 #@! TO.N,/SW1*
X129032000Y-105410000D03*
G04 #@! TD*
D11*
G04 #@! TO.P,J8,1*
G04 #@! TO.N,Net-(J8-Pad1)*
X147828000Y-117602000D03*
D12*
G04 #@! TO.P,J8,2*
G04 #@! TO.N,Net-(J8-Pad2)*
X150368000Y-117602000D03*
G04 #@! TO.P,J8,3*
G04 #@! TO.N,Net-(J8-Pad3)*
X152908000Y-117602000D03*
G04 #@! TO.P,J8,4*
G04 #@! TO.N,Net-(J8-Pad4)*
X155448000Y-117602000D03*
G04 #@! TO.P,J8,5*
G04 #@! TO.N,Net-(J8-Pad5)*
X157988000Y-117602000D03*
G04 #@! TO.P,J8,6*
G04 #@! TO.N,Net-(J8-Pad6)*
X160528000Y-117602000D03*
G04 #@! TO.P,J8,7*
G04 #@! TO.N,Net-(J8-Pad7)*
X163068000Y-117602000D03*
G04 #@! TO.P,J8,8*
G04 #@! TO.N,Net-(J8-Pad8)*
X165608000Y-117602000D03*
G04 #@! TD*
D11*
G04 #@! TO.P,J3,1*
G04 #@! TO.N,/BCM18_PWM0*
X121412000Y-97790000D03*
D12*
G04 #@! TO.P,J3,2*
G04 #@! TO.N,GND*
X121412000Y-100330000D03*
G04 #@! TO.P,J3,3*
G04 #@! TO.N,/BCM12_PWM0*
X118872000Y-97790000D03*
G04 #@! TO.P,J3,4*
G04 #@! TO.N,Net-(BZ1-Pad1)*
X118872000Y-100330000D03*
G04 #@! TO.P,J3,5*
G04 #@! TO.N,/BCM13_PWM1*
X116332000Y-97790000D03*
G04 #@! TO.P,J3,6*
G04 #@! TO.N,Net-(BZ1-Pad2)*
X116332000Y-100330000D03*
G04 #@! TD*
D11*
G04 #@! TO.P,J9,1*
G04 #@! TO.N,GND*
X140970000Y-108458000D03*
D12*
G04 #@! TO.P,J9,2*
G04 #@! TO.N,Net-(J9-Pad2)*
X140970000Y-110998000D03*
G04 #@! TD*
D11*
G04 #@! TO.P,J10,1*
G04 #@! TO.N,Net-(J10-Pad1)*
X151130000Y-112522000D03*
D12*
G04 #@! TO.P,J10,2*
G04 #@! TO.N,VDD*
X151130000Y-109982000D03*
G04 #@! TD*
G04 #@! TO.P,J11,2*
G04 #@! TO.N,VDD*
X155194000Y-105156000D03*
D11*
G04 #@! TO.P,J11,1*
G04 #@! TO.N,Net-(J11-Pad1)*
X157734000Y-105156000D03*
G04 #@! TD*
D12*
G04 #@! TO.P,J12,2*
G04 #@! TO.N,Net-(J12-Pad2)*
X143764000Y-117602000D03*
D11*
G04 #@! TO.P,J12,1*
G04 #@! TO.N,GND*
X141224000Y-117602000D03*
G04 #@! TD*
G04 #@! TO.P,J14,1*
G04 #@! TO.N,+3V3*
X164084000Y-94615000D03*
D12*
G04 #@! TO.P,J14,2*
G04 #@! TO.N,VDD*
X161544000Y-94615000D03*
G04 #@! TO.P,J14,3*
G04 #@! TO.N,+5V*
X159004000Y-94615000D03*
G04 #@! TD*
G04 #@! TO.P,J15,3*
G04 #@! TO.N,GND*
X159004000Y-90678000D03*
G04 #@! TO.P,J15,2*
G04 #@! TO.N,+5V*
X161544000Y-90678000D03*
D11*
G04 #@! TO.P,J15,1*
G04 #@! TO.N,+3V3*
X164084000Y-90678000D03*
G04 #@! TD*
G04 #@! TO.P,J16,1*
G04 #@! TO.N,/BCM0*
X117602000Y-90678000D03*
D12*
G04 #@! TO.P,J16,2*
G04 #@! TO.N,/BCM1*
X115062000Y-90678000D03*
G04 #@! TO.P,J16,3*
G04 #@! TO.N,/BCM5*
X112522000Y-90678000D03*
G04 #@! TO.P,J16,4*
G04 #@! TO.N,/BCM6*
X109982000Y-90678000D03*
G04 #@! TO.P,J16,5*
G04 #@! TO.N,/BCM19*
X107442000Y-90678000D03*
G04 #@! TO.P,J16,6*
G04 #@! TO.N,/BCM20*
X104902000Y-90678000D03*
G04 #@! TO.P,J16,7*
G04 #@! TO.N,/BCM21*
X102362000Y-90678000D03*
G04 #@! TO.P,J16,8*
G04 #@! TO.N,/BCM26*
X99822000Y-90678000D03*
G04 #@! TD*
D11*
G04 #@! TO.P,J17,1*
G04 #@! TO.N,/BCM3_SCL*
X150114000Y-90678000D03*
D12*
G04 #@! TO.P,J17,2*
G04 #@! TO.N,/BCM2_SDA*
X152654000Y-90678000D03*
G04 #@! TO.P,J17,3*
G04 #@! TO.N,GND*
X155194000Y-90678000D03*
G04 #@! TD*
D13*
G04 #@! TO.N,GND*
X165354000Y-106426000D03*
X151130000Y-106172000D03*
X154432000Y-111252000D03*
X116078000Y-112014000D03*
X145028488Y-114594081D03*
X121920000Y-112014000D03*
X124968000Y-111252000D03*
G04 #@! TO.N,+3V3*
X140449145Y-105676855D03*
X148209000Y-97891592D03*
D14*
G04 #@! TO.N,/BCM4_TDI*
X156718000Y-84328000D03*
G04 #@! TO.N,/MOSI*
X137667994Y-103886000D03*
G04 #@! TO.N,/SCLK*
X135890000Y-103124004D03*
G04 #@! TO.N,/BCM18_PWM0*
X122921861Y-87390139D03*
G04 #@! TO.N,/BCM16_CTS*
X127762000Y-91313000D03*
G04 #@! TD*
D15*
G04 #@! TO.N,+3V3*
X164084000Y-90678000D02*
X164084000Y-90932000D01*
X148209000Y-97891592D02*
X140449145Y-105676855D01*
D16*
G04 #@! TO.N,/BCM4_TDI*
X147134894Y-84328000D02*
X156718000Y-84328000D01*
X145034000Y-83058000D02*
X146304000Y-84328000D01*
X146304000Y-84328000D02*
X147134894Y-84328000D01*
G04 #@! TO.N,/MOSI*
X137160000Y-100330000D02*
X137160000Y-103378006D01*
X137413995Y-103632001D02*
X137667994Y-103886000D01*
X137160000Y-103378006D02*
X137413995Y-103632001D01*
G04 #@! TO.N,/SCLK*
X132080000Y-100330000D02*
X134874004Y-103124004D01*
X134874004Y-103124004D02*
X135530790Y-103124004D01*
X135530790Y-103124004D02*
X135890000Y-103124004D01*
D15*
G04 #@! TO.N,VDD*
X161544000Y-98806000D02*
X155194000Y-105156000D01*
X161544000Y-94615000D02*
X161544000Y-98806000D01*
D16*
G04 #@! TO.N,/BCM18_PWM0*
X123444000Y-86868000D02*
X123175860Y-87136140D01*
X139954000Y-85598000D02*
X138748399Y-84392399D01*
X123444000Y-85158894D02*
X123444000Y-86868000D01*
X123175860Y-87136140D02*
X122921861Y-87390139D01*
X124210495Y-84392399D02*
X123444000Y-85158894D01*
X138748399Y-84392399D02*
X124210495Y-84392399D01*
D17*
G04 #@! TO.N,/BCM16_CTS*
X127762000Y-91672210D02*
X128037790Y-91948000D01*
X127762000Y-91313000D02*
X127762000Y-91672210D01*
X145034000Y-91948000D02*
X146304000Y-90678000D01*
X128037790Y-91948000D02*
X145034000Y-91948000D01*
G04 #@! TD*
D18*
G04 #@! TO.N,GND*
G36*
X173290001Y-119290000D02*
X97210000Y-119290000D01*
X97210000Y-116465050D01*
X97683000Y-116465050D01*
X97683000Y-117214950D01*
X97969974Y-117907767D01*
X98500233Y-118438026D01*
X99193050Y-118725000D01*
X99942950Y-118725000D01*
X100635767Y-118438026D01*
X101166026Y-117907767D01*
X101174317Y-117887750D01*
X139739000Y-117887750D01*
X139739000Y-118578309D01*
X139835673Y-118811698D01*
X140014301Y-118990327D01*
X140247690Y-119087000D01*
X140938250Y-119087000D01*
X141097000Y-118928250D01*
X141097000Y-117729000D01*
X139897750Y-117729000D01*
X139739000Y-117887750D01*
X101174317Y-117887750D01*
X101453000Y-117214950D01*
X101453000Y-116625691D01*
X139739000Y-116625691D01*
X139739000Y-117316250D01*
X139897750Y-117475000D01*
X141097000Y-117475000D01*
X141097000Y-116275750D01*
X141351000Y-116275750D01*
X141351000Y-117475000D01*
X141371000Y-117475000D01*
X141371000Y-117729000D01*
X141351000Y-117729000D01*
X141351000Y-118928250D01*
X141509750Y-119087000D01*
X142200310Y-119087000D01*
X142433699Y-118990327D01*
X142612327Y-118811698D01*
X142678904Y-118650967D01*
X142693375Y-118672625D01*
X143184582Y-119000839D01*
X143617744Y-119087000D01*
X143910256Y-119087000D01*
X144343418Y-119000839D01*
X144834625Y-118672625D01*
X145162839Y-118181418D01*
X145278092Y-117602000D01*
X145162839Y-117022582D01*
X144982042Y-116752000D01*
X146330560Y-116752000D01*
X146330560Y-118452000D01*
X146379843Y-118699765D01*
X146520191Y-118909809D01*
X146730235Y-119050157D01*
X146978000Y-119099440D01*
X148678000Y-119099440D01*
X148925765Y-119050157D01*
X149135809Y-118909809D01*
X149276157Y-118699765D01*
X149285184Y-118654381D01*
X149297375Y-118672625D01*
X149788582Y-119000839D01*
X150221744Y-119087000D01*
X150514256Y-119087000D01*
X150947418Y-119000839D01*
X151438625Y-118672625D01*
X151638000Y-118374239D01*
X151837375Y-118672625D01*
X152328582Y-119000839D01*
X152761744Y-119087000D01*
X153054256Y-119087000D01*
X153487418Y-119000839D01*
X153978625Y-118672625D01*
X154178000Y-118374239D01*
X154377375Y-118672625D01*
X154868582Y-119000839D01*
X155301744Y-119087000D01*
X155594256Y-119087000D01*
X156027418Y-119000839D01*
X156518625Y-118672625D01*
X156718000Y-118374239D01*
X156917375Y-118672625D01*
X157408582Y-119000839D01*
X157841744Y-119087000D01*
X158134256Y-119087000D01*
X158567418Y-119000839D01*
X159058625Y-118672625D01*
X159258000Y-118374239D01*
X159457375Y-118672625D01*
X159948582Y-119000839D01*
X160381744Y-119087000D01*
X160674256Y-119087000D01*
X161107418Y-119000839D01*
X161598625Y-118672625D01*
X161798000Y-118374239D01*
X161997375Y-118672625D01*
X162488582Y-119000839D01*
X162921744Y-119087000D01*
X163214256Y-119087000D01*
X163647418Y-119000839D01*
X164138625Y-118672625D01*
X164338000Y-118374239D01*
X164537375Y-118672625D01*
X165028582Y-119000839D01*
X165461744Y-119087000D01*
X165754256Y-119087000D01*
X166187418Y-119000839D01*
X166678625Y-118672625D01*
X167006839Y-118181418D01*
X167122092Y-117602000D01*
X167006839Y-117022582D01*
X166678625Y-116531375D01*
X166579363Y-116465050D01*
X169057000Y-116465050D01*
X169057000Y-117214950D01*
X169343974Y-117907767D01*
X169874233Y-118438026D01*
X170567050Y-118725000D01*
X171316950Y-118725000D01*
X172009767Y-118438026D01*
X172540026Y-117907767D01*
X172827000Y-117214950D01*
X172827000Y-116465050D01*
X172540026Y-115772233D01*
X172009767Y-115241974D01*
X171316950Y-114955000D01*
X170567050Y-114955000D01*
X169874233Y-115241974D01*
X169343974Y-115772233D01*
X169057000Y-116465050D01*
X166579363Y-116465050D01*
X166187418Y-116203161D01*
X165754256Y-116117000D01*
X165461744Y-116117000D01*
X165028582Y-116203161D01*
X164537375Y-116531375D01*
X164338000Y-116829761D01*
X164138625Y-116531375D01*
X163647418Y-116203161D01*
X163214256Y-116117000D01*
X162921744Y-116117000D01*
X162488582Y-116203161D01*
X161997375Y-116531375D01*
X161798000Y-116829761D01*
X161598625Y-116531375D01*
X161107418Y-116203161D01*
X160674256Y-116117000D01*
X160381744Y-116117000D01*
X159948582Y-116203161D01*
X159457375Y-116531375D01*
X159258000Y-116829761D01*
X159058625Y-116531375D01*
X158567418Y-116203161D01*
X158134256Y-116117000D01*
X157841744Y-116117000D01*
X157408582Y-116203161D01*
X156917375Y-116531375D01*
X156718000Y-116829761D01*
X156518625Y-116531375D01*
X156027418Y-116203161D01*
X155594256Y-116117000D01*
X155301744Y-116117000D01*
X154868582Y-116203161D01*
X154377375Y-116531375D01*
X154178000Y-116829761D01*
X153978625Y-116531375D01*
X153487418Y-116203161D01*
X153054256Y-116117000D01*
X152761744Y-116117000D01*
X152328582Y-116203161D01*
X151837375Y-116531375D01*
X151638000Y-116829761D01*
X151438625Y-116531375D01*
X150947418Y-116203161D01*
X150514256Y-116117000D01*
X150221744Y-116117000D01*
X149788582Y-116203161D01*
X149297375Y-116531375D01*
X149285184Y-116549619D01*
X149276157Y-116504235D01*
X149135809Y-116294191D01*
X148925765Y-116153843D01*
X148678000Y-116104560D01*
X146978000Y-116104560D01*
X146730235Y-116153843D01*
X146520191Y-116294191D01*
X146379843Y-116504235D01*
X146330560Y-116752000D01*
X144982042Y-116752000D01*
X144834625Y-116531375D01*
X144343418Y-116203161D01*
X143910256Y-116117000D01*
X143617744Y-116117000D01*
X143184582Y-116203161D01*
X142693375Y-116531375D01*
X142678904Y-116553033D01*
X142612327Y-116392302D01*
X142433699Y-116213673D01*
X142200310Y-116117000D01*
X141509750Y-116117000D01*
X141351000Y-116275750D01*
X141097000Y-116275750D01*
X140938250Y-116117000D01*
X140247690Y-116117000D01*
X140014301Y-116213673D01*
X139835673Y-116392302D01*
X139739000Y-116625691D01*
X101453000Y-116625691D01*
X101453000Y-116465050D01*
X101166026Y-115772233D01*
X100635767Y-115241974D01*
X99942950Y-114955000D01*
X99193050Y-114955000D01*
X98500233Y-115241974D01*
X97969974Y-115772233D01*
X97683000Y-116465050D01*
X97210000Y-116465050D01*
X97210000Y-110998000D01*
X139455908Y-110998000D01*
X139571161Y-111577418D01*
X139899375Y-112068625D01*
X140390582Y-112396839D01*
X140823744Y-112483000D01*
X141116256Y-112483000D01*
X141549418Y-112396839D01*
X142040625Y-112068625D01*
X142368839Y-111577418D01*
X142484092Y-110998000D01*
X142368839Y-110418582D01*
X142077125Y-109982000D01*
X149615908Y-109982000D01*
X149731161Y-110561418D01*
X150059375Y-111052625D01*
X150077619Y-111064816D01*
X150032235Y-111073843D01*
X149822191Y-111214191D01*
X149681843Y-111424235D01*
X149632560Y-111672000D01*
X149632560Y-113372000D01*
X149681843Y-113619765D01*
X149822191Y-113829809D01*
X150032235Y-113970157D01*
X150280000Y-114019440D01*
X151980000Y-114019440D01*
X152227765Y-113970157D01*
X152437809Y-113829809D01*
X152578157Y-113619765D01*
X152627440Y-113372000D01*
X152627440Y-111672000D01*
X152578157Y-111424235D01*
X152437809Y-111214191D01*
X152227765Y-111073843D01*
X152182381Y-111064816D01*
X152200625Y-111052625D01*
X152528839Y-110561418D01*
X152644092Y-109982000D01*
X152528839Y-109402582D01*
X152200625Y-108911375D01*
X151709418Y-108583161D01*
X151276256Y-108497000D01*
X150983744Y-108497000D01*
X150550582Y-108583161D01*
X150059375Y-108911375D01*
X149731161Y-109402582D01*
X149615908Y-109982000D01*
X142077125Y-109982000D01*
X142040625Y-109927375D01*
X142018967Y-109912904D01*
X142179698Y-109846327D01*
X142358327Y-109667699D01*
X142455000Y-109434310D01*
X142455000Y-108743750D01*
X142296250Y-108585000D01*
X141097000Y-108585000D01*
X141097000Y-108605000D01*
X140843000Y-108605000D01*
X140843000Y-108585000D01*
X139643750Y-108585000D01*
X139485000Y-108743750D01*
X139485000Y-109434310D01*
X139581673Y-109667699D01*
X139760302Y-109846327D01*
X139921033Y-109912904D01*
X139899375Y-109927375D01*
X139571161Y-110418582D01*
X139455908Y-110998000D01*
X97210000Y-110998000D01*
X97210000Y-107380289D01*
X104098000Y-107380289D01*
X104098000Y-107851711D01*
X104278405Y-108287249D01*
X104611751Y-108620595D01*
X105047289Y-108801000D01*
X105518711Y-108801000D01*
X105954249Y-108620595D01*
X106287595Y-108287249D01*
X106468000Y-107851711D01*
X106468000Y-107481690D01*
X139485000Y-107481690D01*
X139485000Y-108172250D01*
X139643750Y-108331000D01*
X140843000Y-108331000D01*
X140843000Y-107131750D01*
X141097000Y-107131750D01*
X141097000Y-108331000D01*
X142296250Y-108331000D01*
X142455000Y-108172250D01*
X142455000Y-107481690D01*
X142358327Y-107248301D01*
X142179698Y-107069673D01*
X141946309Y-106973000D01*
X141255750Y-106973000D01*
X141097000Y-107131750D01*
X140843000Y-107131750D01*
X140684250Y-106973000D01*
X139993691Y-106973000D01*
X139760302Y-107069673D01*
X139581673Y-107248301D01*
X139485000Y-107481690D01*
X106468000Y-107481690D01*
X106468000Y-107380289D01*
X106287595Y-106944751D01*
X105954249Y-106611405D01*
X105518711Y-106431000D01*
X105047289Y-106431000D01*
X104611751Y-106611405D01*
X104278405Y-106944751D01*
X104098000Y-107380289D01*
X97210000Y-107380289D01*
X97210000Y-104560000D01*
X114834560Y-104560000D01*
X114834560Y-106260000D01*
X114883843Y-106507765D01*
X115024191Y-106717809D01*
X115234235Y-106858157D01*
X115482000Y-106907440D01*
X117182000Y-106907440D01*
X117429765Y-106858157D01*
X117639809Y-106717809D01*
X117780157Y-106507765D01*
X117789184Y-106462381D01*
X117801375Y-106480625D01*
X118292582Y-106808839D01*
X118725744Y-106895000D01*
X119018256Y-106895000D01*
X119451418Y-106808839D01*
X119942625Y-106480625D01*
X120142000Y-106182239D01*
X120341375Y-106480625D01*
X120832582Y-106808839D01*
X121265744Y-106895000D01*
X121558256Y-106895000D01*
X121991418Y-106808839D01*
X122482625Y-106480625D01*
X122682000Y-106182239D01*
X122881375Y-106480625D01*
X123372582Y-106808839D01*
X123805744Y-106895000D01*
X124098256Y-106895000D01*
X124531418Y-106808839D01*
X125022625Y-106480625D01*
X125222000Y-106182239D01*
X125421375Y-106480625D01*
X125912582Y-106808839D01*
X126345744Y-106895000D01*
X126638256Y-106895000D01*
X127071418Y-106808839D01*
X127562625Y-106480625D01*
X127762000Y-106182239D01*
X127961375Y-106480625D01*
X128452582Y-106808839D01*
X128885744Y-106895000D01*
X129178256Y-106895000D01*
X129611418Y-106808839D01*
X130102625Y-106480625D01*
X130430839Y-105989418D01*
X130533210Y-105474760D01*
X139433145Y-105474760D01*
X139433145Y-105878950D01*
X139587821Y-106252373D01*
X139873627Y-106538179D01*
X140247050Y-106692855D01*
X140651240Y-106692855D01*
X141024663Y-106538179D01*
X141310469Y-106252373D01*
X141387302Y-106066881D01*
X142295210Y-105156000D01*
X153679908Y-105156000D01*
X153795161Y-105735418D01*
X154123375Y-106226625D01*
X154614582Y-106554839D01*
X155047744Y-106641000D01*
X155340256Y-106641000D01*
X155773418Y-106554839D01*
X156264625Y-106226625D01*
X156276816Y-106208381D01*
X156285843Y-106253765D01*
X156426191Y-106463809D01*
X156636235Y-106604157D01*
X156884000Y-106653440D01*
X158584000Y-106653440D01*
X158831765Y-106604157D01*
X159041809Y-106463809D01*
X159182157Y-106253765D01*
X159231440Y-106006000D01*
X159231440Y-104306000D01*
X159182157Y-104058235D01*
X159041809Y-103848191D01*
X158831765Y-103707843D01*
X158584000Y-103658560D01*
X158020517Y-103658560D01*
X162143089Y-99535988D01*
X162221557Y-99483557D01*
X162429272Y-99172691D01*
X162483800Y-98898559D01*
X162483800Y-98898555D01*
X162502210Y-98806001D01*
X162483800Y-98713447D01*
X162483800Y-95773039D01*
X162614625Y-95685625D01*
X162626816Y-95667381D01*
X162635843Y-95712765D01*
X162776191Y-95922809D01*
X162986235Y-96063157D01*
X163234000Y-96112440D01*
X164934000Y-96112440D01*
X165181765Y-96063157D01*
X165391809Y-95922809D01*
X165532157Y-95712765D01*
X165581440Y-95465000D01*
X165581440Y-93765000D01*
X165532157Y-93517235D01*
X165391809Y-93307191D01*
X165181765Y-93166843D01*
X164934000Y-93117560D01*
X163234000Y-93117560D01*
X162986235Y-93166843D01*
X162776191Y-93307191D01*
X162635843Y-93517235D01*
X162626816Y-93562619D01*
X162614625Y-93544375D01*
X162123418Y-93216161D01*
X161690256Y-93130000D01*
X161397744Y-93130000D01*
X160964582Y-93216161D01*
X160473375Y-93544375D01*
X160274000Y-93842761D01*
X160074625Y-93544375D01*
X159583418Y-93216161D01*
X159150256Y-93130000D01*
X158857744Y-93130000D01*
X158424582Y-93216161D01*
X157933375Y-93544375D01*
X157605161Y-94035582D01*
X157489908Y-94615000D01*
X157605161Y-95194418D01*
X157933375Y-95685625D01*
X158424582Y-96013839D01*
X158857744Y-96100000D01*
X159150256Y-96100000D01*
X159583418Y-96013839D01*
X160074625Y-95685625D01*
X160274000Y-95387239D01*
X160473375Y-95685625D01*
X160604200Y-95773040D01*
X160604201Y-98416722D01*
X155348319Y-103672604D01*
X155340256Y-103671000D01*
X155047744Y-103671000D01*
X154614582Y-103757161D01*
X154123375Y-104085375D01*
X153795161Y-104576582D01*
X153679908Y-105156000D01*
X142295210Y-105156000D01*
X148602074Y-98828486D01*
X148784518Y-98752916D01*
X149070324Y-98467110D01*
X149225000Y-98093687D01*
X149225000Y-97689497D01*
X149070324Y-97316074D01*
X148784518Y-97030268D01*
X148411095Y-96875592D01*
X148006905Y-96875592D01*
X147633482Y-97030268D01*
X147347676Y-97316074D01*
X147270844Y-97501565D01*
X140056073Y-104739960D01*
X139873627Y-104815531D01*
X139587821Y-105101337D01*
X139433145Y-105474760D01*
X130533210Y-105474760D01*
X130546092Y-105410000D01*
X130430839Y-104830582D01*
X130102625Y-104339375D01*
X129611418Y-104011161D01*
X129178256Y-103925000D01*
X128885744Y-103925000D01*
X128452582Y-104011161D01*
X127961375Y-104339375D01*
X127762000Y-104637761D01*
X127562625Y-104339375D01*
X127071418Y-104011161D01*
X126638256Y-103925000D01*
X126345744Y-103925000D01*
X125912582Y-104011161D01*
X125421375Y-104339375D01*
X125222000Y-104637761D01*
X125022625Y-104339375D01*
X124531418Y-104011161D01*
X124098256Y-103925000D01*
X123805744Y-103925000D01*
X123372582Y-104011161D01*
X122881375Y-104339375D01*
X122682000Y-104637761D01*
X122482625Y-104339375D01*
X121991418Y-104011161D01*
X121558256Y-103925000D01*
X121265744Y-103925000D01*
X120832582Y-104011161D01*
X120341375Y-104339375D01*
X120142000Y-104637761D01*
X119942625Y-104339375D01*
X119451418Y-104011161D01*
X119018256Y-103925000D01*
X118725744Y-103925000D01*
X118292582Y-104011161D01*
X117801375Y-104339375D01*
X117789184Y-104357619D01*
X117780157Y-104312235D01*
X117639809Y-104102191D01*
X117429765Y-103961843D01*
X117182000Y-103912560D01*
X115482000Y-103912560D01*
X115234235Y-103961843D01*
X115024191Y-104102191D01*
X114883843Y-104312235D01*
X114834560Y-104560000D01*
X97210000Y-104560000D01*
X97210000Y-97380289D01*
X104098000Y-97380289D01*
X104098000Y-97851711D01*
X104278405Y-98287249D01*
X104611751Y-98620595D01*
X105047289Y-98801000D01*
X105518711Y-98801000D01*
X105954249Y-98620595D01*
X106287595Y-98287249D01*
X106468000Y-97851711D01*
X106468000Y-97790000D01*
X114817908Y-97790000D01*
X114933161Y-98369418D01*
X115261375Y-98860625D01*
X115559761Y-99060000D01*
X115261375Y-99259375D01*
X114933161Y-99750582D01*
X114817908Y-100330000D01*
X114933161Y-100909418D01*
X115261375Y-101400625D01*
X115752582Y-101728839D01*
X116185744Y-101815000D01*
X116478256Y-101815000D01*
X116911418Y-101728839D01*
X117402625Y-101400625D01*
X117602000Y-101102239D01*
X117801375Y-101400625D01*
X118292582Y-101728839D01*
X118725744Y-101815000D01*
X119018256Y-101815000D01*
X119451418Y-101728839D01*
X119942625Y-101400625D01*
X120155843Y-101081522D01*
X120216817Y-101211358D01*
X120645076Y-101601645D01*
X121055110Y-101771476D01*
X121285000Y-101650155D01*
X121285000Y-100457000D01*
X121539000Y-100457000D01*
X121539000Y-101650155D01*
X121768890Y-101771476D01*
X122178924Y-101601645D01*
X122607183Y-101211358D01*
X122853486Y-100686892D01*
X122732819Y-100457000D01*
X121539000Y-100457000D01*
X121285000Y-100457000D01*
X121265000Y-100457000D01*
X121265000Y-100203000D01*
X121285000Y-100203000D01*
X121285000Y-100183000D01*
X121539000Y-100183000D01*
X121539000Y-100203000D01*
X122732819Y-100203000D01*
X122853486Y-99973108D01*
X122607183Y-99448642D01*
X122400145Y-99259961D01*
X122509765Y-99238157D01*
X122719809Y-99097809D01*
X122860157Y-98887765D01*
X122909440Y-98640000D01*
X122909440Y-97790000D01*
X125485908Y-97790000D01*
X125601161Y-98369418D01*
X125929375Y-98860625D01*
X126227761Y-99060000D01*
X125929375Y-99259375D01*
X125601161Y-99750582D01*
X125485908Y-100330000D01*
X125601161Y-100909418D01*
X125929375Y-101400625D01*
X126420582Y-101728839D01*
X126853744Y-101815000D01*
X127146256Y-101815000D01*
X127579418Y-101728839D01*
X128070625Y-101400625D01*
X128270000Y-101102239D01*
X128469375Y-101400625D01*
X128960582Y-101728839D01*
X129393744Y-101815000D01*
X129686256Y-101815000D01*
X130119418Y-101728839D01*
X130610625Y-101400625D01*
X130810000Y-101102239D01*
X131009375Y-101400625D01*
X131500582Y-101728839D01*
X131933744Y-101815000D01*
X132226256Y-101815000D01*
X132474010Y-101765719D01*
X134301853Y-103593562D01*
X134342946Y-103655062D01*
X134586597Y-103817865D01*
X134801460Y-103860604D01*
X134801463Y-103860604D01*
X134874003Y-103875033D01*
X134946544Y-103860604D01*
X135369364Y-103860604D01*
X135386422Y-103877662D01*
X135713167Y-104013004D01*
X136066833Y-104013004D01*
X136393578Y-103877662D01*
X136522091Y-103749149D01*
X136587849Y-103847564D01*
X136587852Y-103847567D01*
X136628943Y-103909064D01*
X136690440Y-103950155D01*
X136778994Y-104038709D01*
X136778994Y-104062833D01*
X136914336Y-104389578D01*
X137164416Y-104639658D01*
X137491161Y-104775000D01*
X137844827Y-104775000D01*
X138171572Y-104639658D01*
X138421652Y-104389578D01*
X138556994Y-104062833D01*
X138556994Y-103709167D01*
X138421652Y-103382422D01*
X138171572Y-103132342D01*
X137896600Y-103018445D01*
X137896600Y-101623813D01*
X138230625Y-101400625D01*
X138558839Y-100909418D01*
X138674092Y-100330000D01*
X138558839Y-99750582D01*
X138230625Y-99259375D01*
X138212381Y-99247184D01*
X138257765Y-99238157D01*
X138467809Y-99097809D01*
X138608157Y-98887765D01*
X138657440Y-98640000D01*
X138657440Y-96940000D01*
X138608157Y-96692235D01*
X138467809Y-96482191D01*
X138257765Y-96341843D01*
X138010000Y-96292560D01*
X136310000Y-96292560D01*
X136062235Y-96341843D01*
X135852191Y-96482191D01*
X135711843Y-96692235D01*
X135702816Y-96737619D01*
X135690625Y-96719375D01*
X135199418Y-96391161D01*
X134766256Y-96305000D01*
X134473744Y-96305000D01*
X134040582Y-96391161D01*
X133549375Y-96719375D01*
X133350000Y-97017761D01*
X133150625Y-96719375D01*
X132659418Y-96391161D01*
X132226256Y-96305000D01*
X131933744Y-96305000D01*
X131500582Y-96391161D01*
X131009375Y-96719375D01*
X130810000Y-97017761D01*
X130610625Y-96719375D01*
X130119418Y-96391161D01*
X129686256Y-96305000D01*
X129393744Y-96305000D01*
X128960582Y-96391161D01*
X128469375Y-96719375D01*
X128270000Y-97017761D01*
X128070625Y-96719375D01*
X127579418Y-96391161D01*
X127146256Y-96305000D01*
X126853744Y-96305000D01*
X126420582Y-96391161D01*
X125929375Y-96719375D01*
X125601161Y-97210582D01*
X125485908Y-97790000D01*
X122909440Y-97790000D01*
X122909440Y-96940000D01*
X122860157Y-96692235D01*
X122719809Y-96482191D01*
X122509765Y-96341843D01*
X122262000Y-96292560D01*
X120562000Y-96292560D01*
X120314235Y-96341843D01*
X120104191Y-96482191D01*
X119963843Y-96692235D01*
X119954816Y-96737619D01*
X119942625Y-96719375D01*
X119451418Y-96391161D01*
X119018256Y-96305000D01*
X118725744Y-96305000D01*
X118292582Y-96391161D01*
X117801375Y-96719375D01*
X117602000Y-97017761D01*
X117402625Y-96719375D01*
X116911418Y-96391161D01*
X116478256Y-96305000D01*
X116185744Y-96305000D01*
X115752582Y-96391161D01*
X115261375Y-96719375D01*
X114933161Y-97210582D01*
X114817908Y-97790000D01*
X106468000Y-97790000D01*
X106468000Y-97380289D01*
X106287595Y-96944751D01*
X105954249Y-96611405D01*
X105518711Y-96431000D01*
X105047289Y-96431000D01*
X104611751Y-96611405D01*
X104278405Y-96944751D01*
X104098000Y-97380289D01*
X97210000Y-97380289D01*
X97210000Y-90678000D01*
X98307908Y-90678000D01*
X98423161Y-91257418D01*
X98751375Y-91748625D01*
X99242582Y-92076839D01*
X99675744Y-92163000D01*
X99968256Y-92163000D01*
X100401418Y-92076839D01*
X100892625Y-91748625D01*
X101092000Y-91450239D01*
X101291375Y-91748625D01*
X101782582Y-92076839D01*
X102215744Y-92163000D01*
X102508256Y-92163000D01*
X102941418Y-92076839D01*
X103432625Y-91748625D01*
X103632000Y-91450239D01*
X103831375Y-91748625D01*
X104322582Y-92076839D01*
X104755744Y-92163000D01*
X105048256Y-92163000D01*
X105481418Y-92076839D01*
X105972625Y-91748625D01*
X106172000Y-91450239D01*
X106371375Y-91748625D01*
X106862582Y-92076839D01*
X107295744Y-92163000D01*
X107588256Y-92163000D01*
X108021418Y-92076839D01*
X108512625Y-91748625D01*
X108712000Y-91450239D01*
X108911375Y-91748625D01*
X109402582Y-92076839D01*
X109835744Y-92163000D01*
X110128256Y-92163000D01*
X110561418Y-92076839D01*
X111052625Y-91748625D01*
X111252000Y-91450239D01*
X111451375Y-91748625D01*
X111942582Y-92076839D01*
X112375744Y-92163000D01*
X112668256Y-92163000D01*
X113101418Y-92076839D01*
X113592625Y-91748625D01*
X113792000Y-91450239D01*
X113991375Y-91748625D01*
X114482582Y-92076839D01*
X114915744Y-92163000D01*
X115208256Y-92163000D01*
X115641418Y-92076839D01*
X116132625Y-91748625D01*
X116144816Y-91730381D01*
X116153843Y-91775765D01*
X116294191Y-91985809D01*
X116504235Y-92126157D01*
X116752000Y-92175440D01*
X118452000Y-92175440D01*
X118699765Y-92126157D01*
X118909809Y-91985809D01*
X119050157Y-91775765D01*
X119099440Y-91528000D01*
X119099440Y-91136167D01*
X126873000Y-91136167D01*
X126873000Y-91489833D01*
X127008342Y-91816578D01*
X127079796Y-91888032D01*
X127092064Y-91949706D01*
X127128510Y-92004250D01*
X127209576Y-92125574D01*
X127209578Y-92125576D01*
X127249255Y-92184956D01*
X127308634Y-92224632D01*
X127485366Y-92401364D01*
X127525044Y-92460746D01*
X127760294Y-92617936D01*
X127967744Y-92659200D01*
X127967749Y-92659200D01*
X128037790Y-92673132D01*
X128107832Y-92659200D01*
X144963959Y-92659200D01*
X145034000Y-92673132D01*
X145104041Y-92659200D01*
X145104046Y-92659200D01*
X145311496Y-92617936D01*
X145546746Y-92460746D01*
X145586424Y-92401364D01*
X145880029Y-92107759D01*
X146157744Y-92163000D01*
X146450256Y-92163000D01*
X146883418Y-92076839D01*
X147374625Y-91748625D01*
X147702839Y-91257418D01*
X147818092Y-90678000D01*
X147702839Y-90098582D01*
X147522042Y-89828000D01*
X148616560Y-89828000D01*
X148616560Y-91528000D01*
X148665843Y-91775765D01*
X148806191Y-91985809D01*
X149016235Y-92126157D01*
X149264000Y-92175440D01*
X150964000Y-92175440D01*
X151211765Y-92126157D01*
X151421809Y-91985809D01*
X151562157Y-91775765D01*
X151571184Y-91730381D01*
X151583375Y-91748625D01*
X152074582Y-92076839D01*
X152507744Y-92163000D01*
X152800256Y-92163000D01*
X153233418Y-92076839D01*
X153724625Y-91748625D01*
X153937843Y-91429522D01*
X153998817Y-91559358D01*
X154427076Y-91949645D01*
X154837110Y-92119476D01*
X155067000Y-91998155D01*
X155067000Y-90805000D01*
X155321000Y-90805000D01*
X155321000Y-91998155D01*
X155550890Y-92119476D01*
X155960924Y-91949645D01*
X156389183Y-91559358D01*
X156635486Y-91034892D01*
X157562514Y-91034892D01*
X157808817Y-91559358D01*
X158237076Y-91949645D01*
X158647110Y-92119476D01*
X158877000Y-91998155D01*
X158877000Y-90805000D01*
X157683181Y-90805000D01*
X157562514Y-91034892D01*
X156635486Y-91034892D01*
X156514819Y-90805000D01*
X155321000Y-90805000D01*
X155067000Y-90805000D01*
X155047000Y-90805000D01*
X155047000Y-90551000D01*
X155067000Y-90551000D01*
X155067000Y-89357845D01*
X155321000Y-89357845D01*
X155321000Y-90551000D01*
X156514819Y-90551000D01*
X156635486Y-90321108D01*
X157562514Y-90321108D01*
X157683181Y-90551000D01*
X158877000Y-90551000D01*
X158877000Y-89357845D01*
X159131000Y-89357845D01*
X159131000Y-90551000D01*
X159151000Y-90551000D01*
X159151000Y-90805000D01*
X159131000Y-90805000D01*
X159131000Y-91998155D01*
X159360890Y-92119476D01*
X159770924Y-91949645D01*
X160199183Y-91559358D01*
X160260157Y-91429522D01*
X160473375Y-91748625D01*
X160964582Y-92076839D01*
X161397744Y-92163000D01*
X161690256Y-92163000D01*
X162123418Y-92076839D01*
X162614625Y-91748625D01*
X162626816Y-91730381D01*
X162635843Y-91775765D01*
X162776191Y-91985809D01*
X162986235Y-92126157D01*
X163234000Y-92175440D01*
X164934000Y-92175440D01*
X165181765Y-92126157D01*
X165391809Y-91985809D01*
X165532157Y-91775765D01*
X165581440Y-91528000D01*
X165581440Y-91440000D01*
X167395908Y-91440000D01*
X167511161Y-92019418D01*
X167839375Y-92510625D01*
X168137761Y-92710000D01*
X167839375Y-92909375D01*
X167511161Y-93400582D01*
X167395908Y-93980000D01*
X167511161Y-94559418D01*
X167839375Y-95050625D01*
X168137761Y-95250000D01*
X167839375Y-95449375D01*
X167511161Y-95940582D01*
X167395908Y-96520000D01*
X167511161Y-97099418D01*
X167839375Y-97590625D01*
X168137761Y-97790000D01*
X167839375Y-97989375D01*
X167511161Y-98480582D01*
X167395908Y-99060000D01*
X167511161Y-99639418D01*
X167839375Y-100130625D01*
X168137761Y-100330000D01*
X167839375Y-100529375D01*
X167511161Y-101020582D01*
X167395908Y-101600000D01*
X167511161Y-102179418D01*
X167839375Y-102670625D01*
X168137761Y-102870000D01*
X167839375Y-103069375D01*
X167511161Y-103560582D01*
X167395908Y-104140000D01*
X167511161Y-104719418D01*
X167839375Y-105210625D01*
X168137761Y-105410000D01*
X167839375Y-105609375D01*
X167511161Y-106100582D01*
X167395908Y-106680000D01*
X167511161Y-107259418D01*
X167839375Y-107750625D01*
X168137761Y-107950000D01*
X167839375Y-108149375D01*
X167511161Y-108640582D01*
X167395908Y-109220000D01*
X167511161Y-109799418D01*
X167839375Y-110290625D01*
X168137761Y-110490000D01*
X167839375Y-110689375D01*
X167511161Y-111180582D01*
X167395908Y-111760000D01*
X167511161Y-112339418D01*
X167839375Y-112830625D01*
X168330582Y-113158839D01*
X168763744Y-113245000D01*
X169056256Y-113245000D01*
X169489418Y-113158839D01*
X169980625Y-112830625D01*
X170181353Y-112530214D01*
X170568642Y-112955183D01*
X171093108Y-113201486D01*
X171323000Y-113080819D01*
X171323000Y-111887000D01*
X171577000Y-111887000D01*
X171577000Y-113080819D01*
X171806892Y-113201486D01*
X172331358Y-112955183D01*
X172721645Y-112526924D01*
X172891476Y-112116890D01*
X172770155Y-111887000D01*
X171577000Y-111887000D01*
X171323000Y-111887000D01*
X171303000Y-111887000D01*
X171303000Y-111633000D01*
X171323000Y-111633000D01*
X171323000Y-109347000D01*
X171577000Y-109347000D01*
X171577000Y-111633000D01*
X172770155Y-111633000D01*
X172891476Y-111403110D01*
X172721645Y-110993076D01*
X172331358Y-110564817D01*
X172172046Y-110490000D01*
X172331358Y-110415183D01*
X172721645Y-109986924D01*
X172891476Y-109576890D01*
X172770155Y-109347000D01*
X171577000Y-109347000D01*
X171323000Y-109347000D01*
X171303000Y-109347000D01*
X171303000Y-109093000D01*
X171323000Y-109093000D01*
X171323000Y-106807000D01*
X171577000Y-106807000D01*
X171577000Y-109093000D01*
X172770155Y-109093000D01*
X172891476Y-108863110D01*
X172721645Y-108453076D01*
X172331358Y-108024817D01*
X172172046Y-107950000D01*
X172331358Y-107875183D01*
X172721645Y-107446924D01*
X172891476Y-107036890D01*
X172770155Y-106807000D01*
X171577000Y-106807000D01*
X171323000Y-106807000D01*
X171303000Y-106807000D01*
X171303000Y-106553000D01*
X171323000Y-106553000D01*
X171323000Y-104267000D01*
X171577000Y-104267000D01*
X171577000Y-106553000D01*
X172770155Y-106553000D01*
X172891476Y-106323110D01*
X172721645Y-105913076D01*
X172331358Y-105484817D01*
X172172046Y-105410000D01*
X172331358Y-105335183D01*
X172721645Y-104906924D01*
X172891476Y-104496890D01*
X172770155Y-104267000D01*
X171577000Y-104267000D01*
X171323000Y-104267000D01*
X171303000Y-104267000D01*
X171303000Y-104013000D01*
X171323000Y-104013000D01*
X171323000Y-101727000D01*
X171577000Y-101727000D01*
X171577000Y-104013000D01*
X172770155Y-104013000D01*
X172891476Y-103783110D01*
X172721645Y-103373076D01*
X172331358Y-102944817D01*
X172172046Y-102870000D01*
X172331358Y-102795183D01*
X172721645Y-102366924D01*
X172891476Y-101956890D01*
X172770155Y-101727000D01*
X171577000Y-101727000D01*
X171323000Y-101727000D01*
X171303000Y-101727000D01*
X171303000Y-101473000D01*
X171323000Y-101473000D01*
X171323000Y-99187000D01*
X171577000Y-99187000D01*
X171577000Y-101473000D01*
X172770155Y-101473000D01*
X172891476Y-101243110D01*
X172721645Y-100833076D01*
X172331358Y-100404817D01*
X172172046Y-100330000D01*
X172331358Y-100255183D01*
X172721645Y-99826924D01*
X172891476Y-99416890D01*
X172770155Y-99187000D01*
X171577000Y-99187000D01*
X171323000Y-99187000D01*
X171303000Y-99187000D01*
X171303000Y-98933000D01*
X171323000Y-98933000D01*
X171323000Y-96647000D01*
X171577000Y-96647000D01*
X171577000Y-98933000D01*
X172770155Y-98933000D01*
X172891476Y-98703110D01*
X172721645Y-98293076D01*
X172331358Y-97864817D01*
X172172046Y-97790000D01*
X172331358Y-97715183D01*
X172721645Y-97286924D01*
X172891476Y-96876890D01*
X172770155Y-96647000D01*
X171577000Y-96647000D01*
X171323000Y-96647000D01*
X171303000Y-96647000D01*
X171303000Y-96393000D01*
X171323000Y-96393000D01*
X171323000Y-94107000D01*
X171577000Y-94107000D01*
X171577000Y-96393000D01*
X172770155Y-96393000D01*
X172891476Y-96163110D01*
X172721645Y-95753076D01*
X172331358Y-95324817D01*
X172172046Y-95250000D01*
X172331358Y-95175183D01*
X172721645Y-94746924D01*
X172891476Y-94336890D01*
X172770155Y-94107000D01*
X171577000Y-94107000D01*
X171323000Y-94107000D01*
X171303000Y-94107000D01*
X171303000Y-93853000D01*
X171323000Y-93853000D01*
X171323000Y-91567000D01*
X171577000Y-91567000D01*
X171577000Y-93853000D01*
X172770155Y-93853000D01*
X172891476Y-93623110D01*
X172721645Y-93213076D01*
X172331358Y-92784817D01*
X172172046Y-92710000D01*
X172331358Y-92635183D01*
X172721645Y-92206924D01*
X172891476Y-91796890D01*
X172770155Y-91567000D01*
X171577000Y-91567000D01*
X171323000Y-91567000D01*
X171303000Y-91567000D01*
X171303000Y-91313000D01*
X171323000Y-91313000D01*
X171323000Y-91293000D01*
X171577000Y-91293000D01*
X171577000Y-91313000D01*
X172770155Y-91313000D01*
X172891476Y-91083110D01*
X172721645Y-90673076D01*
X172331358Y-90244817D01*
X172201522Y-90183843D01*
X172520625Y-89970625D01*
X172848839Y-89479418D01*
X172964092Y-88900000D01*
X172848839Y-88320582D01*
X172520625Y-87829375D01*
X172029418Y-87501161D01*
X171596256Y-87415000D01*
X171303744Y-87415000D01*
X170870582Y-87501161D01*
X170379375Y-87829375D01*
X170367184Y-87847619D01*
X170358157Y-87802235D01*
X170217809Y-87592191D01*
X170007765Y-87451843D01*
X169760000Y-87402560D01*
X168060000Y-87402560D01*
X167812235Y-87451843D01*
X167602191Y-87592191D01*
X167461843Y-87802235D01*
X167412560Y-88050000D01*
X167412560Y-89750000D01*
X167461843Y-89997765D01*
X167602191Y-90207809D01*
X167812235Y-90348157D01*
X167857619Y-90357184D01*
X167839375Y-90369375D01*
X167511161Y-90860582D01*
X167395908Y-91440000D01*
X165581440Y-91440000D01*
X165581440Y-89828000D01*
X165532157Y-89580235D01*
X165391809Y-89370191D01*
X165181765Y-89229843D01*
X164934000Y-89180560D01*
X163234000Y-89180560D01*
X162986235Y-89229843D01*
X162776191Y-89370191D01*
X162635843Y-89580235D01*
X162626816Y-89625619D01*
X162614625Y-89607375D01*
X162123418Y-89279161D01*
X161690256Y-89193000D01*
X161397744Y-89193000D01*
X160964582Y-89279161D01*
X160473375Y-89607375D01*
X160260157Y-89926478D01*
X160199183Y-89796642D01*
X159770924Y-89406355D01*
X159360890Y-89236524D01*
X159131000Y-89357845D01*
X158877000Y-89357845D01*
X158647110Y-89236524D01*
X158237076Y-89406355D01*
X157808817Y-89796642D01*
X157562514Y-90321108D01*
X156635486Y-90321108D01*
X156389183Y-89796642D01*
X155960924Y-89406355D01*
X155550890Y-89236524D01*
X155321000Y-89357845D01*
X155067000Y-89357845D01*
X154837110Y-89236524D01*
X154427076Y-89406355D01*
X153998817Y-89796642D01*
X153937843Y-89926478D01*
X153724625Y-89607375D01*
X153233418Y-89279161D01*
X152800256Y-89193000D01*
X152507744Y-89193000D01*
X152074582Y-89279161D01*
X151583375Y-89607375D01*
X151571184Y-89625619D01*
X151562157Y-89580235D01*
X151421809Y-89370191D01*
X151211765Y-89229843D01*
X150964000Y-89180560D01*
X149264000Y-89180560D01*
X149016235Y-89229843D01*
X148806191Y-89370191D01*
X148665843Y-89580235D01*
X148616560Y-89828000D01*
X147522042Y-89828000D01*
X147374625Y-89607375D01*
X146883418Y-89279161D01*
X146450256Y-89193000D01*
X146157744Y-89193000D01*
X145724582Y-89279161D01*
X145233375Y-89607375D01*
X145034000Y-89905761D01*
X144834625Y-89607375D01*
X144343418Y-89279161D01*
X143910256Y-89193000D01*
X143617744Y-89193000D01*
X143184582Y-89279161D01*
X142693375Y-89607375D01*
X142494000Y-89905761D01*
X142294625Y-89607375D01*
X141803418Y-89279161D01*
X141370256Y-89193000D01*
X141077744Y-89193000D01*
X140644582Y-89279161D01*
X140153375Y-89607375D01*
X139954000Y-89905761D01*
X139754625Y-89607375D01*
X139263418Y-89279161D01*
X138830256Y-89193000D01*
X138537744Y-89193000D01*
X138104582Y-89279161D01*
X137613375Y-89607375D01*
X137414000Y-89905761D01*
X137214625Y-89607375D01*
X136723418Y-89279161D01*
X136290256Y-89193000D01*
X135997744Y-89193000D01*
X135564582Y-89279161D01*
X135073375Y-89607375D01*
X135058904Y-89629033D01*
X134992327Y-89468302D01*
X134813699Y-89289673D01*
X134580310Y-89193000D01*
X133889750Y-89193000D01*
X133731000Y-89351750D01*
X133731000Y-90551000D01*
X133751000Y-90551000D01*
X133751000Y-90805000D01*
X133731000Y-90805000D01*
X133731000Y-90825000D01*
X133477000Y-90825000D01*
X133477000Y-90805000D01*
X132277750Y-90805000D01*
X132119000Y-90963750D01*
X132119000Y-91236800D01*
X128651000Y-91236800D01*
X128651000Y-91136167D01*
X128515658Y-90809422D01*
X128265578Y-90559342D01*
X127938833Y-90424000D01*
X127585167Y-90424000D01*
X127258422Y-90559342D01*
X127008342Y-90809422D01*
X126873000Y-91136167D01*
X119099440Y-91136167D01*
X119099440Y-89828000D01*
X119074316Y-89701691D01*
X132119000Y-89701691D01*
X132119000Y-90392250D01*
X132277750Y-90551000D01*
X133477000Y-90551000D01*
X133477000Y-89351750D01*
X133318250Y-89193000D01*
X132627690Y-89193000D01*
X132394301Y-89289673D01*
X132215673Y-89468302D01*
X132119000Y-89701691D01*
X119074316Y-89701691D01*
X119050157Y-89580235D01*
X118909809Y-89370191D01*
X118699765Y-89229843D01*
X118452000Y-89180560D01*
X116752000Y-89180560D01*
X116504235Y-89229843D01*
X116294191Y-89370191D01*
X116153843Y-89580235D01*
X116144816Y-89625619D01*
X116132625Y-89607375D01*
X115641418Y-89279161D01*
X115208256Y-89193000D01*
X114915744Y-89193000D01*
X114482582Y-89279161D01*
X113991375Y-89607375D01*
X113792000Y-89905761D01*
X113592625Y-89607375D01*
X113101418Y-89279161D01*
X112668256Y-89193000D01*
X112375744Y-89193000D01*
X111942582Y-89279161D01*
X111451375Y-89607375D01*
X111252000Y-89905761D01*
X111052625Y-89607375D01*
X110561418Y-89279161D01*
X110128256Y-89193000D01*
X109835744Y-89193000D01*
X109402582Y-89279161D01*
X108911375Y-89607375D01*
X108712000Y-89905761D01*
X108512625Y-89607375D01*
X108021418Y-89279161D01*
X107588256Y-89193000D01*
X107295744Y-89193000D01*
X106862582Y-89279161D01*
X106371375Y-89607375D01*
X106172000Y-89905761D01*
X105972625Y-89607375D01*
X105481418Y-89279161D01*
X105048256Y-89193000D01*
X104755744Y-89193000D01*
X104322582Y-89279161D01*
X103831375Y-89607375D01*
X103632000Y-89905761D01*
X103432625Y-89607375D01*
X102941418Y-89279161D01*
X102508256Y-89193000D01*
X102215744Y-89193000D01*
X101782582Y-89279161D01*
X101291375Y-89607375D01*
X101092000Y-89905761D01*
X100892625Y-89607375D01*
X100401418Y-89279161D01*
X99968256Y-89193000D01*
X99675744Y-89193000D01*
X99242582Y-89279161D01*
X98751375Y-89607375D01*
X98423161Y-90098582D01*
X98307908Y-90678000D01*
X97210000Y-90678000D01*
X97210000Y-85598000D01*
X102879908Y-85598000D01*
X102995161Y-86177418D01*
X103323375Y-86668625D01*
X103814582Y-86996839D01*
X104247744Y-87083000D01*
X104540256Y-87083000D01*
X104973418Y-86996839D01*
X105464625Y-86668625D01*
X105664000Y-86370239D01*
X105863375Y-86668625D01*
X106354582Y-86996839D01*
X106787744Y-87083000D01*
X107080256Y-87083000D01*
X107513418Y-86996839D01*
X108004625Y-86668625D01*
X108204000Y-86370239D01*
X108403375Y-86668625D01*
X108894582Y-86996839D01*
X109327744Y-87083000D01*
X109620256Y-87083000D01*
X110053418Y-86996839D01*
X110544625Y-86668625D01*
X110757843Y-86349522D01*
X110818817Y-86479358D01*
X111247076Y-86869645D01*
X111657110Y-87039476D01*
X111887000Y-86918155D01*
X111887000Y-85725000D01*
X111867000Y-85725000D01*
X111867000Y-85471000D01*
X111887000Y-85471000D01*
X111887000Y-85451000D01*
X112141000Y-85451000D01*
X112141000Y-85471000D01*
X112161000Y-85471000D01*
X112161000Y-85725000D01*
X112141000Y-85725000D01*
X112141000Y-86918155D01*
X112370890Y-87039476D01*
X112780924Y-86869645D01*
X113209183Y-86479358D01*
X113270157Y-86349522D01*
X113483375Y-86668625D01*
X113974582Y-86996839D01*
X114407744Y-87083000D01*
X114700256Y-87083000D01*
X115133418Y-86996839D01*
X115624625Y-86668625D01*
X115837843Y-86349522D01*
X115898817Y-86479358D01*
X116327076Y-86869645D01*
X116737110Y-87039476D01*
X116967000Y-86918155D01*
X116967000Y-85725000D01*
X116947000Y-85725000D01*
X116947000Y-85471000D01*
X116967000Y-85471000D01*
X116967000Y-85451000D01*
X117221000Y-85451000D01*
X117221000Y-85471000D01*
X117241000Y-85471000D01*
X117241000Y-85725000D01*
X117221000Y-85725000D01*
X117221000Y-86918155D01*
X117450890Y-87039476D01*
X117860924Y-86869645D01*
X118289183Y-86479358D01*
X118350157Y-86349522D01*
X118563375Y-86668625D01*
X119054582Y-86996839D01*
X119487744Y-87083000D01*
X119780256Y-87083000D01*
X120213418Y-86996839D01*
X120704625Y-86668625D01*
X120904000Y-86370239D01*
X121103375Y-86668625D01*
X121594582Y-86996839D01*
X122027744Y-87083000D01*
X122086835Y-87083000D01*
X122032861Y-87213306D01*
X122032861Y-87566972D01*
X122168203Y-87893717D01*
X122418283Y-88143797D01*
X122745028Y-88279139D01*
X123098694Y-88279139D01*
X123425439Y-88143797D01*
X123675519Y-87893717D01*
X123810861Y-87566972D01*
X123810861Y-87542848D01*
X123913558Y-87440151D01*
X123975058Y-87399058D01*
X124137861Y-87155407D01*
X124168077Y-87003502D01*
X124567744Y-87083000D01*
X124860256Y-87083000D01*
X125293418Y-86996839D01*
X125784625Y-86668625D01*
X125984000Y-86370239D01*
X126183375Y-86668625D01*
X126674582Y-86996839D01*
X127107744Y-87083000D01*
X127400256Y-87083000D01*
X127833418Y-86996839D01*
X128324625Y-86668625D01*
X128537843Y-86349522D01*
X128598817Y-86479358D01*
X129027076Y-86869645D01*
X129437110Y-87039476D01*
X129667000Y-86918155D01*
X129667000Y-85725000D01*
X129647000Y-85725000D01*
X129647000Y-85471000D01*
X129667000Y-85471000D01*
X129667000Y-85451000D01*
X129921000Y-85451000D01*
X129921000Y-85471000D01*
X129941000Y-85471000D01*
X129941000Y-85725000D01*
X129921000Y-85725000D01*
X129921000Y-86918155D01*
X130150890Y-87039476D01*
X130560924Y-86869645D01*
X130989183Y-86479358D01*
X131050157Y-86349522D01*
X131263375Y-86668625D01*
X131754582Y-86996839D01*
X132187744Y-87083000D01*
X132480256Y-87083000D01*
X132913418Y-86996839D01*
X133404625Y-86668625D01*
X133604000Y-86370239D01*
X133803375Y-86668625D01*
X134294582Y-86996839D01*
X134727744Y-87083000D01*
X135020256Y-87083000D01*
X135453418Y-86996839D01*
X135944625Y-86668625D01*
X136157843Y-86349522D01*
X136218817Y-86479358D01*
X136647076Y-86869645D01*
X137057110Y-87039476D01*
X137287000Y-86918155D01*
X137287000Y-85725000D01*
X137267000Y-85725000D01*
X137267000Y-85471000D01*
X137287000Y-85471000D01*
X137287000Y-85451000D01*
X137541000Y-85451000D01*
X137541000Y-85471000D01*
X137561000Y-85471000D01*
X137561000Y-85725000D01*
X137541000Y-85725000D01*
X137541000Y-86918155D01*
X137770890Y-87039476D01*
X138180924Y-86869645D01*
X138609183Y-86479358D01*
X138670157Y-86349522D01*
X138883375Y-86668625D01*
X139374582Y-86996839D01*
X139807744Y-87083000D01*
X140100256Y-87083000D01*
X140533418Y-86996839D01*
X141024625Y-86668625D01*
X141224000Y-86370239D01*
X141423375Y-86668625D01*
X141914582Y-86996839D01*
X142347744Y-87083000D01*
X142640256Y-87083000D01*
X143073418Y-86996839D01*
X143564625Y-86668625D01*
X143764000Y-86370239D01*
X143963375Y-86668625D01*
X144454582Y-86996839D01*
X144887744Y-87083000D01*
X145180256Y-87083000D01*
X145613418Y-86996839D01*
X146104625Y-86668625D01*
X146317843Y-86349522D01*
X146378817Y-86479358D01*
X146807076Y-86869645D01*
X147217110Y-87039476D01*
X147447000Y-86918155D01*
X147447000Y-85725000D01*
X147427000Y-85725000D01*
X147427000Y-85471000D01*
X147447000Y-85471000D01*
X147447000Y-85451000D01*
X147701000Y-85451000D01*
X147701000Y-85471000D01*
X147721000Y-85471000D01*
X147721000Y-85725000D01*
X147701000Y-85725000D01*
X147701000Y-86918155D01*
X147930890Y-87039476D01*
X148340924Y-86869645D01*
X148769183Y-86479358D01*
X148830157Y-86349522D01*
X149043375Y-86668625D01*
X149534582Y-86996839D01*
X149967744Y-87083000D01*
X150260256Y-87083000D01*
X150693418Y-86996839D01*
X151184625Y-86668625D01*
X151384000Y-86370239D01*
X151583375Y-86668625D01*
X152074582Y-86996839D01*
X152507744Y-87083000D01*
X152800256Y-87083000D01*
X153233418Y-86996839D01*
X153724625Y-86668625D01*
X154052839Y-86177418D01*
X154168092Y-85598000D01*
X154061993Y-85064600D01*
X156197364Y-85064600D01*
X156214422Y-85081658D01*
X156541167Y-85217000D01*
X156894833Y-85217000D01*
X157221578Y-85081658D01*
X157471658Y-84831578D01*
X157607000Y-84504833D01*
X157607000Y-84151167D01*
X157471658Y-83824422D01*
X157221578Y-83574342D01*
X156894833Y-83439000D01*
X156541167Y-83439000D01*
X156214422Y-83574342D01*
X156197364Y-83591400D01*
X154151440Y-83591400D01*
X154151440Y-82683050D01*
X169057000Y-82683050D01*
X169057000Y-83432950D01*
X169343974Y-84125767D01*
X169874233Y-84656026D01*
X170567050Y-84943000D01*
X171316950Y-84943000D01*
X172009767Y-84656026D01*
X172540026Y-84125767D01*
X172827000Y-83432950D01*
X172827000Y-82683050D01*
X172540026Y-81990233D01*
X172009767Y-81459974D01*
X171316950Y-81173000D01*
X170567050Y-81173000D01*
X169874233Y-81459974D01*
X169343974Y-81990233D01*
X169057000Y-82683050D01*
X154151440Y-82683050D01*
X154151440Y-82208000D01*
X154102157Y-81960235D01*
X153961809Y-81750191D01*
X153751765Y-81609843D01*
X153504000Y-81560560D01*
X151804000Y-81560560D01*
X151556235Y-81609843D01*
X151346191Y-81750191D01*
X151205843Y-81960235D01*
X151196816Y-82005619D01*
X151184625Y-81987375D01*
X150693418Y-81659161D01*
X150260256Y-81573000D01*
X149967744Y-81573000D01*
X149534582Y-81659161D01*
X149043375Y-81987375D01*
X148844000Y-82285761D01*
X148644625Y-81987375D01*
X148153418Y-81659161D01*
X147720256Y-81573000D01*
X147427744Y-81573000D01*
X146994582Y-81659161D01*
X146503375Y-81987375D01*
X146304000Y-82285761D01*
X146104625Y-81987375D01*
X145613418Y-81659161D01*
X145180256Y-81573000D01*
X144887744Y-81573000D01*
X144454582Y-81659161D01*
X143963375Y-81987375D01*
X143750157Y-82306478D01*
X143689183Y-82176642D01*
X143260924Y-81786355D01*
X142850890Y-81616524D01*
X142621000Y-81737845D01*
X142621000Y-82931000D01*
X142641000Y-82931000D01*
X142641000Y-83185000D01*
X142621000Y-83185000D01*
X142621000Y-83205000D01*
X142367000Y-83205000D01*
X142367000Y-83185000D01*
X142347000Y-83185000D01*
X142347000Y-82931000D01*
X142367000Y-82931000D01*
X142367000Y-81737845D01*
X142137110Y-81616524D01*
X141727076Y-81786355D01*
X141298817Y-82176642D01*
X141237843Y-82306478D01*
X141024625Y-81987375D01*
X140533418Y-81659161D01*
X140100256Y-81573000D01*
X139807744Y-81573000D01*
X139374582Y-81659161D01*
X138883375Y-81987375D01*
X138684000Y-82285761D01*
X138484625Y-81987375D01*
X137993418Y-81659161D01*
X137560256Y-81573000D01*
X137267744Y-81573000D01*
X136834582Y-81659161D01*
X136343375Y-81987375D01*
X136144000Y-82285761D01*
X135944625Y-81987375D01*
X135453418Y-81659161D01*
X135020256Y-81573000D01*
X134727744Y-81573000D01*
X134294582Y-81659161D01*
X133803375Y-81987375D01*
X133604000Y-82285761D01*
X133404625Y-81987375D01*
X132913418Y-81659161D01*
X132480256Y-81573000D01*
X132187744Y-81573000D01*
X131754582Y-81659161D01*
X131263375Y-81987375D01*
X131064000Y-82285761D01*
X130864625Y-81987375D01*
X130373418Y-81659161D01*
X129940256Y-81573000D01*
X129647744Y-81573000D01*
X129214582Y-81659161D01*
X128723375Y-81987375D01*
X128524000Y-82285761D01*
X128324625Y-81987375D01*
X127833418Y-81659161D01*
X127400256Y-81573000D01*
X127107744Y-81573000D01*
X126674582Y-81659161D01*
X126183375Y-81987375D01*
X125984000Y-82285761D01*
X125784625Y-81987375D01*
X125293418Y-81659161D01*
X124860256Y-81573000D01*
X124567744Y-81573000D01*
X124134582Y-81659161D01*
X123643375Y-81987375D01*
X123430157Y-82306478D01*
X123369183Y-82176642D01*
X122940924Y-81786355D01*
X122530890Y-81616524D01*
X122301000Y-81737845D01*
X122301000Y-82931000D01*
X122321000Y-82931000D01*
X122321000Y-83185000D01*
X122301000Y-83185000D01*
X122301000Y-83205000D01*
X122047000Y-83205000D01*
X122047000Y-83185000D01*
X122027000Y-83185000D01*
X122027000Y-82931000D01*
X122047000Y-82931000D01*
X122047000Y-81737845D01*
X121817110Y-81616524D01*
X121407076Y-81786355D01*
X120978817Y-82176642D01*
X120917843Y-82306478D01*
X120704625Y-81987375D01*
X120213418Y-81659161D01*
X119780256Y-81573000D01*
X119487744Y-81573000D01*
X119054582Y-81659161D01*
X118563375Y-81987375D01*
X118364000Y-82285761D01*
X118164625Y-81987375D01*
X117673418Y-81659161D01*
X117240256Y-81573000D01*
X116947744Y-81573000D01*
X116514582Y-81659161D01*
X116023375Y-81987375D01*
X115824000Y-82285761D01*
X115624625Y-81987375D01*
X115133418Y-81659161D01*
X114700256Y-81573000D01*
X114407744Y-81573000D01*
X113974582Y-81659161D01*
X113483375Y-81987375D01*
X113284000Y-82285761D01*
X113084625Y-81987375D01*
X112593418Y-81659161D01*
X112160256Y-81573000D01*
X111867744Y-81573000D01*
X111434582Y-81659161D01*
X110943375Y-81987375D01*
X110744000Y-82285761D01*
X110544625Y-81987375D01*
X110053418Y-81659161D01*
X109620256Y-81573000D01*
X109327744Y-81573000D01*
X108894582Y-81659161D01*
X108403375Y-81987375D01*
X108204000Y-82285761D01*
X108004625Y-81987375D01*
X107513418Y-81659161D01*
X107080256Y-81573000D01*
X106787744Y-81573000D01*
X106354582Y-81659161D01*
X105863375Y-81987375D01*
X105650157Y-82306478D01*
X105589183Y-82176642D01*
X105160924Y-81786355D01*
X104750890Y-81616524D01*
X104521000Y-81737845D01*
X104521000Y-82931000D01*
X104541000Y-82931000D01*
X104541000Y-83185000D01*
X104521000Y-83185000D01*
X104521000Y-83205000D01*
X104267000Y-83205000D01*
X104267000Y-83185000D01*
X103073181Y-83185000D01*
X102952514Y-83414892D01*
X103198817Y-83939358D01*
X103623786Y-84326647D01*
X103323375Y-84527375D01*
X102995161Y-85018582D01*
X102879908Y-85598000D01*
X97210000Y-85598000D01*
X97210000Y-82683050D01*
X97683000Y-82683050D01*
X97683000Y-83432950D01*
X97969974Y-84125767D01*
X98500233Y-84656026D01*
X99193050Y-84943000D01*
X99942950Y-84943000D01*
X100635767Y-84656026D01*
X101166026Y-84125767D01*
X101453000Y-83432950D01*
X101453000Y-82701108D01*
X102952514Y-82701108D01*
X103073181Y-82931000D01*
X104267000Y-82931000D01*
X104267000Y-81737845D01*
X104037110Y-81616524D01*
X103627076Y-81786355D01*
X103198817Y-82176642D01*
X102952514Y-82701108D01*
X101453000Y-82701108D01*
X101453000Y-82683050D01*
X101166026Y-81990233D01*
X100635767Y-81459974D01*
X99942950Y-81173000D01*
X99193050Y-81173000D01*
X98500233Y-81459974D01*
X97969974Y-81990233D01*
X97683000Y-82683050D01*
X97210000Y-82683050D01*
X97210000Y-80710000D01*
X173290000Y-80710000D01*
X173290001Y-119290000D01*
X173290001Y-119290000D01*
G37*
X173290001Y-119290000D02*
X97210000Y-119290000D01*
X97210000Y-116465050D01*
X97683000Y-116465050D01*
X97683000Y-117214950D01*
X97969974Y-117907767D01*
X98500233Y-118438026D01*
X99193050Y-118725000D01*
X99942950Y-118725000D01*
X100635767Y-118438026D01*
X101166026Y-117907767D01*
X101174317Y-117887750D01*
X139739000Y-117887750D01*
X139739000Y-118578309D01*
X139835673Y-118811698D01*
X140014301Y-118990327D01*
X140247690Y-119087000D01*
X140938250Y-119087000D01*
X141097000Y-118928250D01*
X141097000Y-117729000D01*
X139897750Y-117729000D01*
X139739000Y-117887750D01*
X101174317Y-117887750D01*
X101453000Y-117214950D01*
X101453000Y-116625691D01*
X139739000Y-116625691D01*
X139739000Y-117316250D01*
X139897750Y-117475000D01*
X141097000Y-117475000D01*
X141097000Y-116275750D01*
X141351000Y-116275750D01*
X141351000Y-117475000D01*
X141371000Y-117475000D01*
X141371000Y-117729000D01*
X141351000Y-117729000D01*
X141351000Y-118928250D01*
X141509750Y-119087000D01*
X142200310Y-119087000D01*
X142433699Y-118990327D01*
X142612327Y-118811698D01*
X142678904Y-118650967D01*
X142693375Y-118672625D01*
X143184582Y-119000839D01*
X143617744Y-119087000D01*
X143910256Y-119087000D01*
X144343418Y-119000839D01*
X144834625Y-118672625D01*
X145162839Y-118181418D01*
X145278092Y-117602000D01*
X145162839Y-117022582D01*
X144982042Y-116752000D01*
X146330560Y-116752000D01*
X146330560Y-118452000D01*
X146379843Y-118699765D01*
X146520191Y-118909809D01*
X146730235Y-119050157D01*
X146978000Y-119099440D01*
X148678000Y-119099440D01*
X148925765Y-119050157D01*
X149135809Y-118909809D01*
X149276157Y-118699765D01*
X149285184Y-118654381D01*
X149297375Y-118672625D01*
X149788582Y-119000839D01*
X150221744Y-119087000D01*
X150514256Y-119087000D01*
X150947418Y-119000839D01*
X151438625Y-118672625D01*
X151638000Y-118374239D01*
X151837375Y-118672625D01*
X152328582Y-119000839D01*
X152761744Y-119087000D01*
X153054256Y-119087000D01*
X153487418Y-119000839D01*
X153978625Y-118672625D01*
X154178000Y-118374239D01*
X154377375Y-118672625D01*
X154868582Y-119000839D01*
X155301744Y-119087000D01*
X155594256Y-119087000D01*
X156027418Y-119000839D01*
X156518625Y-118672625D01*
X156718000Y-118374239D01*
X156917375Y-118672625D01*
X157408582Y-119000839D01*
X157841744Y-119087000D01*
X158134256Y-119087000D01*
X158567418Y-119000839D01*
X159058625Y-118672625D01*
X159258000Y-118374239D01*
X159457375Y-118672625D01*
X159948582Y-119000839D01*
X160381744Y-119087000D01*
X160674256Y-119087000D01*
X161107418Y-119000839D01*
X161598625Y-118672625D01*
X161798000Y-118374239D01*
X161997375Y-118672625D01*
X162488582Y-119000839D01*
X162921744Y-119087000D01*
X163214256Y-119087000D01*
X163647418Y-119000839D01*
X164138625Y-118672625D01*
X164338000Y-118374239D01*
X164537375Y-118672625D01*
X165028582Y-119000839D01*
X165461744Y-119087000D01*
X165754256Y-119087000D01*
X166187418Y-119000839D01*
X166678625Y-118672625D01*
X167006839Y-118181418D01*
X167122092Y-117602000D01*
X167006839Y-117022582D01*
X166678625Y-116531375D01*
X166579363Y-116465050D01*
X169057000Y-116465050D01*
X169057000Y-117214950D01*
X169343974Y-117907767D01*
X169874233Y-118438026D01*
X170567050Y-118725000D01*
X171316950Y-118725000D01*
X172009767Y-118438026D01*
X172540026Y-117907767D01*
X172827000Y-117214950D01*
X172827000Y-116465050D01*
X172540026Y-115772233D01*
X172009767Y-115241974D01*
X171316950Y-114955000D01*
X170567050Y-114955000D01*
X169874233Y-115241974D01*
X169343974Y-115772233D01*
X169057000Y-116465050D01*
X166579363Y-116465050D01*
X166187418Y-116203161D01*
X165754256Y-116117000D01*
X165461744Y-116117000D01*
X165028582Y-116203161D01*
X164537375Y-116531375D01*
X164338000Y-116829761D01*
X164138625Y-116531375D01*
X163647418Y-116203161D01*
X163214256Y-116117000D01*
X162921744Y-116117000D01*
X162488582Y-116203161D01*
X161997375Y-116531375D01*
X161798000Y-116829761D01*
X161598625Y-116531375D01*
X161107418Y-116203161D01*
X160674256Y-116117000D01*
X160381744Y-116117000D01*
X159948582Y-116203161D01*
X159457375Y-116531375D01*
X159258000Y-116829761D01*
X159058625Y-116531375D01*
X158567418Y-116203161D01*
X158134256Y-116117000D01*
X157841744Y-116117000D01*
X157408582Y-116203161D01*
X156917375Y-116531375D01*
X156718000Y-116829761D01*
X156518625Y-116531375D01*
X156027418Y-116203161D01*
X155594256Y-116117000D01*
X155301744Y-116117000D01*
X154868582Y-116203161D01*
X154377375Y-116531375D01*
X154178000Y-116829761D01*
X153978625Y-116531375D01*
X153487418Y-116203161D01*
X153054256Y-116117000D01*
X152761744Y-116117000D01*
X152328582Y-116203161D01*
X151837375Y-116531375D01*
X151638000Y-116829761D01*
X151438625Y-116531375D01*
X150947418Y-116203161D01*
X150514256Y-116117000D01*
X150221744Y-116117000D01*
X149788582Y-116203161D01*
X149297375Y-116531375D01*
X149285184Y-116549619D01*
X149276157Y-116504235D01*
X149135809Y-116294191D01*
X148925765Y-116153843D01*
X148678000Y-116104560D01*
X146978000Y-116104560D01*
X146730235Y-116153843D01*
X146520191Y-116294191D01*
X146379843Y-116504235D01*
X146330560Y-116752000D01*
X144982042Y-116752000D01*
X144834625Y-116531375D01*
X144343418Y-116203161D01*
X143910256Y-116117000D01*
X143617744Y-116117000D01*
X143184582Y-116203161D01*
X142693375Y-116531375D01*
X142678904Y-116553033D01*
X142612327Y-116392302D01*
X142433699Y-116213673D01*
X142200310Y-116117000D01*
X141509750Y-116117000D01*
X141351000Y-116275750D01*
X141097000Y-116275750D01*
X140938250Y-116117000D01*
X140247690Y-116117000D01*
X140014301Y-116213673D01*
X139835673Y-116392302D01*
X139739000Y-116625691D01*
X101453000Y-116625691D01*
X101453000Y-116465050D01*
X101166026Y-115772233D01*
X100635767Y-115241974D01*
X99942950Y-114955000D01*
X99193050Y-114955000D01*
X98500233Y-115241974D01*
X97969974Y-115772233D01*
X97683000Y-116465050D01*
X97210000Y-116465050D01*
X97210000Y-110998000D01*
X139455908Y-110998000D01*
X139571161Y-111577418D01*
X139899375Y-112068625D01*
X140390582Y-112396839D01*
X140823744Y-112483000D01*
X141116256Y-112483000D01*
X141549418Y-112396839D01*
X142040625Y-112068625D01*
X142368839Y-111577418D01*
X142484092Y-110998000D01*
X142368839Y-110418582D01*
X142077125Y-109982000D01*
X149615908Y-109982000D01*
X149731161Y-110561418D01*
X150059375Y-111052625D01*
X150077619Y-111064816D01*
X150032235Y-111073843D01*
X149822191Y-111214191D01*
X149681843Y-111424235D01*
X149632560Y-111672000D01*
X149632560Y-113372000D01*
X149681843Y-113619765D01*
X149822191Y-113829809D01*
X150032235Y-113970157D01*
X150280000Y-114019440D01*
X151980000Y-114019440D01*
X152227765Y-113970157D01*
X152437809Y-113829809D01*
X152578157Y-113619765D01*
X152627440Y-113372000D01*
X152627440Y-111672000D01*
X152578157Y-111424235D01*
X152437809Y-111214191D01*
X152227765Y-111073843D01*
X152182381Y-111064816D01*
X152200625Y-111052625D01*
X152528839Y-110561418D01*
X152644092Y-109982000D01*
X152528839Y-109402582D01*
X152200625Y-108911375D01*
X151709418Y-108583161D01*
X151276256Y-108497000D01*
X150983744Y-108497000D01*
X150550582Y-108583161D01*
X150059375Y-108911375D01*
X149731161Y-109402582D01*
X149615908Y-109982000D01*
X142077125Y-109982000D01*
X142040625Y-109927375D01*
X142018967Y-109912904D01*
X142179698Y-109846327D01*
X142358327Y-109667699D01*
X142455000Y-109434310D01*
X142455000Y-108743750D01*
X142296250Y-108585000D01*
X141097000Y-108585000D01*
X141097000Y-108605000D01*
X140843000Y-108605000D01*
X140843000Y-108585000D01*
X139643750Y-108585000D01*
X139485000Y-108743750D01*
X139485000Y-109434310D01*
X139581673Y-109667699D01*
X139760302Y-109846327D01*
X139921033Y-109912904D01*
X139899375Y-109927375D01*
X139571161Y-110418582D01*
X139455908Y-110998000D01*
X97210000Y-110998000D01*
X97210000Y-107380289D01*
X104098000Y-107380289D01*
X104098000Y-107851711D01*
X104278405Y-108287249D01*
X104611751Y-108620595D01*
X105047289Y-108801000D01*
X105518711Y-108801000D01*
X105954249Y-108620595D01*
X106287595Y-108287249D01*
X106468000Y-107851711D01*
X106468000Y-107481690D01*
X139485000Y-107481690D01*
X139485000Y-108172250D01*
X139643750Y-108331000D01*
X140843000Y-108331000D01*
X140843000Y-107131750D01*
X141097000Y-107131750D01*
X141097000Y-108331000D01*
X142296250Y-108331000D01*
X142455000Y-108172250D01*
X142455000Y-107481690D01*
X142358327Y-107248301D01*
X142179698Y-107069673D01*
X141946309Y-106973000D01*
X141255750Y-106973000D01*
X141097000Y-107131750D01*
X140843000Y-107131750D01*
X140684250Y-106973000D01*
X139993691Y-106973000D01*
X139760302Y-107069673D01*
X139581673Y-107248301D01*
X139485000Y-107481690D01*
X106468000Y-107481690D01*
X106468000Y-107380289D01*
X106287595Y-106944751D01*
X105954249Y-106611405D01*
X105518711Y-106431000D01*
X105047289Y-106431000D01*
X104611751Y-106611405D01*
X104278405Y-106944751D01*
X104098000Y-107380289D01*
X97210000Y-107380289D01*
X97210000Y-104560000D01*
X114834560Y-104560000D01*
X114834560Y-106260000D01*
X114883843Y-106507765D01*
X115024191Y-106717809D01*
X115234235Y-106858157D01*
X115482000Y-106907440D01*
X117182000Y-106907440D01*
X117429765Y-106858157D01*
X117639809Y-106717809D01*
X117780157Y-106507765D01*
X117789184Y-106462381D01*
X117801375Y-106480625D01*
X118292582Y-106808839D01*
X118725744Y-106895000D01*
X119018256Y-106895000D01*
X119451418Y-106808839D01*
X119942625Y-106480625D01*
X120142000Y-106182239D01*
X120341375Y-106480625D01*
X120832582Y-106808839D01*
X121265744Y-106895000D01*
X121558256Y-106895000D01*
X121991418Y-106808839D01*
X122482625Y-106480625D01*
X122682000Y-106182239D01*
X122881375Y-106480625D01*
X123372582Y-106808839D01*
X123805744Y-106895000D01*
X124098256Y-106895000D01*
X124531418Y-106808839D01*
X125022625Y-106480625D01*
X125222000Y-106182239D01*
X125421375Y-106480625D01*
X125912582Y-106808839D01*
X126345744Y-106895000D01*
X126638256Y-106895000D01*
X127071418Y-106808839D01*
X127562625Y-106480625D01*
X127762000Y-106182239D01*
X127961375Y-106480625D01*
X128452582Y-106808839D01*
X128885744Y-106895000D01*
X129178256Y-106895000D01*
X129611418Y-106808839D01*
X130102625Y-106480625D01*
X130430839Y-105989418D01*
X130533210Y-105474760D01*
X139433145Y-105474760D01*
X139433145Y-105878950D01*
X139587821Y-106252373D01*
X139873627Y-106538179D01*
X140247050Y-106692855D01*
X140651240Y-106692855D01*
X141024663Y-106538179D01*
X141310469Y-106252373D01*
X141387302Y-106066881D01*
X142295210Y-105156000D01*
X153679908Y-105156000D01*
X153795161Y-105735418D01*
X154123375Y-106226625D01*
X154614582Y-106554839D01*
X155047744Y-106641000D01*
X155340256Y-106641000D01*
X155773418Y-106554839D01*
X156264625Y-106226625D01*
X156276816Y-106208381D01*
X156285843Y-106253765D01*
X156426191Y-106463809D01*
X156636235Y-106604157D01*
X156884000Y-106653440D01*
X158584000Y-106653440D01*
X158831765Y-106604157D01*
X159041809Y-106463809D01*
X159182157Y-106253765D01*
X159231440Y-106006000D01*
X159231440Y-104306000D01*
X159182157Y-104058235D01*
X159041809Y-103848191D01*
X158831765Y-103707843D01*
X158584000Y-103658560D01*
X158020517Y-103658560D01*
X162143089Y-99535988D01*
X162221557Y-99483557D01*
X162429272Y-99172691D01*
X162483800Y-98898559D01*
X162483800Y-98898555D01*
X162502210Y-98806001D01*
X162483800Y-98713447D01*
X162483800Y-95773039D01*
X162614625Y-95685625D01*
X162626816Y-95667381D01*
X162635843Y-95712765D01*
X162776191Y-95922809D01*
X162986235Y-96063157D01*
X163234000Y-96112440D01*
X164934000Y-96112440D01*
X165181765Y-96063157D01*
X165391809Y-95922809D01*
X165532157Y-95712765D01*
X165581440Y-95465000D01*
X165581440Y-93765000D01*
X165532157Y-93517235D01*
X165391809Y-93307191D01*
X165181765Y-93166843D01*
X164934000Y-93117560D01*
X163234000Y-93117560D01*
X162986235Y-93166843D01*
X162776191Y-93307191D01*
X162635843Y-93517235D01*
X162626816Y-93562619D01*
X162614625Y-93544375D01*
X162123418Y-93216161D01*
X161690256Y-93130000D01*
X161397744Y-93130000D01*
X160964582Y-93216161D01*
X160473375Y-93544375D01*
X160274000Y-93842761D01*
X160074625Y-93544375D01*
X159583418Y-93216161D01*
X159150256Y-93130000D01*
X158857744Y-93130000D01*
X158424582Y-93216161D01*
X157933375Y-93544375D01*
X157605161Y-94035582D01*
X157489908Y-94615000D01*
X157605161Y-95194418D01*
X157933375Y-95685625D01*
X158424582Y-96013839D01*
X158857744Y-96100000D01*
X159150256Y-96100000D01*
X159583418Y-96013839D01*
X160074625Y-95685625D01*
X160274000Y-95387239D01*
X160473375Y-95685625D01*
X160604200Y-95773040D01*
X160604201Y-98416722D01*
X155348319Y-103672604D01*
X155340256Y-103671000D01*
X155047744Y-103671000D01*
X154614582Y-103757161D01*
X154123375Y-104085375D01*
X153795161Y-104576582D01*
X153679908Y-105156000D01*
X142295210Y-105156000D01*
X148602074Y-98828486D01*
X148784518Y-98752916D01*
X149070324Y-98467110D01*
X149225000Y-98093687D01*
X149225000Y-97689497D01*
X149070324Y-97316074D01*
X148784518Y-97030268D01*
X148411095Y-96875592D01*
X148006905Y-96875592D01*
X147633482Y-97030268D01*
X147347676Y-97316074D01*
X147270844Y-97501565D01*
X140056073Y-104739960D01*
X139873627Y-104815531D01*
X139587821Y-105101337D01*
X139433145Y-105474760D01*
X130533210Y-105474760D01*
X130546092Y-105410000D01*
X130430839Y-104830582D01*
X130102625Y-104339375D01*
X129611418Y-104011161D01*
X129178256Y-103925000D01*
X128885744Y-103925000D01*
X128452582Y-104011161D01*
X127961375Y-104339375D01*
X127762000Y-104637761D01*
X127562625Y-104339375D01*
X127071418Y-104011161D01*
X126638256Y-103925000D01*
X126345744Y-103925000D01*
X125912582Y-104011161D01*
X125421375Y-104339375D01*
X125222000Y-104637761D01*
X125022625Y-104339375D01*
X124531418Y-104011161D01*
X124098256Y-103925000D01*
X123805744Y-103925000D01*
X123372582Y-104011161D01*
X122881375Y-104339375D01*
X122682000Y-104637761D01*
X122482625Y-104339375D01*
X121991418Y-104011161D01*
X121558256Y-103925000D01*
X121265744Y-103925000D01*
X120832582Y-104011161D01*
X120341375Y-104339375D01*
X120142000Y-104637761D01*
X119942625Y-104339375D01*
X119451418Y-104011161D01*
X119018256Y-103925000D01*
X118725744Y-103925000D01*
X118292582Y-104011161D01*
X117801375Y-104339375D01*
X117789184Y-104357619D01*
X117780157Y-104312235D01*
X117639809Y-104102191D01*
X117429765Y-103961843D01*
X117182000Y-103912560D01*
X115482000Y-103912560D01*
X115234235Y-103961843D01*
X115024191Y-104102191D01*
X114883843Y-104312235D01*
X114834560Y-104560000D01*
X97210000Y-104560000D01*
X97210000Y-97380289D01*
X104098000Y-97380289D01*
X104098000Y-97851711D01*
X104278405Y-98287249D01*
X104611751Y-98620595D01*
X105047289Y-98801000D01*
X105518711Y-98801000D01*
X105954249Y-98620595D01*
X106287595Y-98287249D01*
X106468000Y-97851711D01*
X106468000Y-97790000D01*
X114817908Y-97790000D01*
X114933161Y-98369418D01*
X115261375Y-98860625D01*
X115559761Y-99060000D01*
X115261375Y-99259375D01*
X114933161Y-99750582D01*
X114817908Y-100330000D01*
X114933161Y-100909418D01*
X115261375Y-101400625D01*
X115752582Y-101728839D01*
X116185744Y-101815000D01*
X116478256Y-101815000D01*
X116911418Y-101728839D01*
X117402625Y-101400625D01*
X117602000Y-101102239D01*
X117801375Y-101400625D01*
X118292582Y-101728839D01*
X118725744Y-101815000D01*
X119018256Y-101815000D01*
X119451418Y-101728839D01*
X119942625Y-101400625D01*
X120155843Y-101081522D01*
X120216817Y-101211358D01*
X120645076Y-101601645D01*
X121055110Y-101771476D01*
X121285000Y-101650155D01*
X121285000Y-100457000D01*
X121539000Y-100457000D01*
X121539000Y-101650155D01*
X121768890Y-101771476D01*
X122178924Y-101601645D01*
X122607183Y-101211358D01*
X122853486Y-100686892D01*
X122732819Y-100457000D01*
X121539000Y-100457000D01*
X121285000Y-100457000D01*
X121265000Y-100457000D01*
X121265000Y-100203000D01*
X121285000Y-100203000D01*
X121285000Y-100183000D01*
X121539000Y-100183000D01*
X121539000Y-100203000D01*
X122732819Y-100203000D01*
X122853486Y-99973108D01*
X122607183Y-99448642D01*
X122400145Y-99259961D01*
X122509765Y-99238157D01*
X122719809Y-99097809D01*
X122860157Y-98887765D01*
X122909440Y-98640000D01*
X122909440Y-97790000D01*
X125485908Y-97790000D01*
X125601161Y-98369418D01*
X125929375Y-98860625D01*
X126227761Y-99060000D01*
X125929375Y-99259375D01*
X125601161Y-99750582D01*
X125485908Y-100330000D01*
X125601161Y-100909418D01*
X125929375Y-101400625D01*
X126420582Y-101728839D01*
X126853744Y-101815000D01*
X127146256Y-101815000D01*
X127579418Y-101728839D01*
X128070625Y-101400625D01*
X128270000Y-101102239D01*
X128469375Y-101400625D01*
X128960582Y-101728839D01*
X129393744Y-101815000D01*
X129686256Y-101815000D01*
X130119418Y-101728839D01*
X130610625Y-101400625D01*
X130810000Y-101102239D01*
X131009375Y-101400625D01*
X131500582Y-101728839D01*
X131933744Y-101815000D01*
X132226256Y-101815000D01*
X132474010Y-101765719D01*
X134301853Y-103593562D01*
X134342946Y-103655062D01*
X134586597Y-103817865D01*
X134801460Y-103860604D01*
X134801463Y-103860604D01*
X134874003Y-103875033D01*
X134946544Y-103860604D01*
X135369364Y-103860604D01*
X135386422Y-103877662D01*
X135713167Y-104013004D01*
X136066833Y-104013004D01*
X136393578Y-103877662D01*
X136522091Y-103749149D01*
X136587849Y-103847564D01*
X136587852Y-103847567D01*
X136628943Y-103909064D01*
X136690440Y-103950155D01*
X136778994Y-104038709D01*
X136778994Y-104062833D01*
X136914336Y-104389578D01*
X137164416Y-104639658D01*
X137491161Y-104775000D01*
X137844827Y-104775000D01*
X138171572Y-104639658D01*
X138421652Y-104389578D01*
X138556994Y-104062833D01*
X138556994Y-103709167D01*
X138421652Y-103382422D01*
X138171572Y-103132342D01*
X137896600Y-103018445D01*
X137896600Y-101623813D01*
X138230625Y-101400625D01*
X138558839Y-100909418D01*
X138674092Y-100330000D01*
X138558839Y-99750582D01*
X138230625Y-99259375D01*
X138212381Y-99247184D01*
X138257765Y-99238157D01*
X138467809Y-99097809D01*
X138608157Y-98887765D01*
X138657440Y-98640000D01*
X138657440Y-96940000D01*
X138608157Y-96692235D01*
X138467809Y-96482191D01*
X138257765Y-96341843D01*
X138010000Y-96292560D01*
X136310000Y-96292560D01*
X136062235Y-96341843D01*
X135852191Y-96482191D01*
X135711843Y-96692235D01*
X135702816Y-96737619D01*
X135690625Y-96719375D01*
X135199418Y-96391161D01*
X134766256Y-96305000D01*
X134473744Y-96305000D01*
X134040582Y-96391161D01*
X133549375Y-96719375D01*
X133350000Y-97017761D01*
X133150625Y-96719375D01*
X132659418Y-96391161D01*
X132226256Y-96305000D01*
X131933744Y-96305000D01*
X131500582Y-96391161D01*
X131009375Y-96719375D01*
X130810000Y-97017761D01*
X130610625Y-96719375D01*
X130119418Y-96391161D01*
X129686256Y-96305000D01*
X129393744Y-96305000D01*
X128960582Y-96391161D01*
X128469375Y-96719375D01*
X128270000Y-97017761D01*
X128070625Y-96719375D01*
X127579418Y-96391161D01*
X127146256Y-96305000D01*
X126853744Y-96305000D01*
X126420582Y-96391161D01*
X125929375Y-96719375D01*
X125601161Y-97210582D01*
X125485908Y-97790000D01*
X122909440Y-97790000D01*
X122909440Y-96940000D01*
X122860157Y-96692235D01*
X122719809Y-96482191D01*
X122509765Y-96341843D01*
X122262000Y-96292560D01*
X120562000Y-96292560D01*
X120314235Y-96341843D01*
X120104191Y-96482191D01*
X119963843Y-96692235D01*
X119954816Y-96737619D01*
X119942625Y-96719375D01*
X119451418Y-96391161D01*
X119018256Y-96305000D01*
X118725744Y-96305000D01*
X118292582Y-96391161D01*
X117801375Y-96719375D01*
X117602000Y-97017761D01*
X117402625Y-96719375D01*
X116911418Y-96391161D01*
X116478256Y-96305000D01*
X116185744Y-96305000D01*
X115752582Y-96391161D01*
X115261375Y-96719375D01*
X114933161Y-97210582D01*
X114817908Y-97790000D01*
X106468000Y-97790000D01*
X106468000Y-97380289D01*
X106287595Y-96944751D01*
X105954249Y-96611405D01*
X105518711Y-96431000D01*
X105047289Y-96431000D01*
X104611751Y-96611405D01*
X104278405Y-96944751D01*
X104098000Y-97380289D01*
X97210000Y-97380289D01*
X97210000Y-90678000D01*
X98307908Y-90678000D01*
X98423161Y-91257418D01*
X98751375Y-91748625D01*
X99242582Y-92076839D01*
X99675744Y-92163000D01*
X99968256Y-92163000D01*
X100401418Y-92076839D01*
X100892625Y-91748625D01*
X101092000Y-91450239D01*
X101291375Y-91748625D01*
X101782582Y-92076839D01*
X102215744Y-92163000D01*
X102508256Y-92163000D01*
X102941418Y-92076839D01*
X103432625Y-91748625D01*
X103632000Y-91450239D01*
X103831375Y-91748625D01*
X104322582Y-92076839D01*
X104755744Y-92163000D01*
X105048256Y-92163000D01*
X105481418Y-92076839D01*
X105972625Y-91748625D01*
X106172000Y-91450239D01*
X106371375Y-91748625D01*
X106862582Y-92076839D01*
X107295744Y-92163000D01*
X107588256Y-92163000D01*
X108021418Y-92076839D01*
X108512625Y-91748625D01*
X108712000Y-91450239D01*
X108911375Y-91748625D01*
X109402582Y-92076839D01*
X109835744Y-92163000D01*
X110128256Y-92163000D01*
X110561418Y-92076839D01*
X111052625Y-91748625D01*
X111252000Y-91450239D01*
X111451375Y-91748625D01*
X111942582Y-92076839D01*
X112375744Y-92163000D01*
X112668256Y-92163000D01*
X113101418Y-92076839D01*
X113592625Y-91748625D01*
X113792000Y-91450239D01*
X113991375Y-91748625D01*
X114482582Y-92076839D01*
X114915744Y-92163000D01*
X115208256Y-92163000D01*
X115641418Y-92076839D01*
X116132625Y-91748625D01*
X116144816Y-91730381D01*
X116153843Y-91775765D01*
X116294191Y-91985809D01*
X116504235Y-92126157D01*
X116752000Y-92175440D01*
X118452000Y-92175440D01*
X118699765Y-92126157D01*
X118909809Y-91985809D01*
X119050157Y-91775765D01*
X119099440Y-91528000D01*
X119099440Y-91136167D01*
X126873000Y-91136167D01*
X126873000Y-91489833D01*
X127008342Y-91816578D01*
X127079796Y-91888032D01*
X127092064Y-91949706D01*
X127128510Y-92004250D01*
X127209576Y-92125574D01*
X127209578Y-92125576D01*
X127249255Y-92184956D01*
X127308634Y-92224632D01*
X127485366Y-92401364D01*
X127525044Y-92460746D01*
X127760294Y-92617936D01*
X127967744Y-92659200D01*
X127967749Y-92659200D01*
X128037790Y-92673132D01*
X128107832Y-92659200D01*
X144963959Y-92659200D01*
X145034000Y-92673132D01*
X145104041Y-92659200D01*
X145104046Y-92659200D01*
X145311496Y-92617936D01*
X145546746Y-92460746D01*
X145586424Y-92401364D01*
X145880029Y-92107759D01*
X146157744Y-92163000D01*
X146450256Y-92163000D01*
X146883418Y-92076839D01*
X147374625Y-91748625D01*
X147702839Y-91257418D01*
X147818092Y-90678000D01*
X147702839Y-90098582D01*
X147522042Y-89828000D01*
X148616560Y-89828000D01*
X148616560Y-91528000D01*
X148665843Y-91775765D01*
X148806191Y-91985809D01*
X149016235Y-92126157D01*
X149264000Y-92175440D01*
X150964000Y-92175440D01*
X151211765Y-92126157D01*
X151421809Y-91985809D01*
X151562157Y-91775765D01*
X151571184Y-91730381D01*
X151583375Y-91748625D01*
X152074582Y-92076839D01*
X152507744Y-92163000D01*
X152800256Y-92163000D01*
X153233418Y-92076839D01*
X153724625Y-91748625D01*
X153937843Y-91429522D01*
X153998817Y-91559358D01*
X154427076Y-91949645D01*
X154837110Y-92119476D01*
X155067000Y-91998155D01*
X155067000Y-90805000D01*
X155321000Y-90805000D01*
X155321000Y-91998155D01*
X155550890Y-92119476D01*
X155960924Y-91949645D01*
X156389183Y-91559358D01*
X156635486Y-91034892D01*
X157562514Y-91034892D01*
X157808817Y-91559358D01*
X158237076Y-91949645D01*
X158647110Y-92119476D01*
X158877000Y-91998155D01*
X158877000Y-90805000D01*
X157683181Y-90805000D01*
X157562514Y-91034892D01*
X156635486Y-91034892D01*
X156514819Y-90805000D01*
X155321000Y-90805000D01*
X155067000Y-90805000D01*
X155047000Y-90805000D01*
X155047000Y-90551000D01*
X155067000Y-90551000D01*
X155067000Y-89357845D01*
X155321000Y-89357845D01*
X155321000Y-90551000D01*
X156514819Y-90551000D01*
X156635486Y-90321108D01*
X157562514Y-90321108D01*
X157683181Y-90551000D01*
X158877000Y-90551000D01*
X158877000Y-89357845D01*
X159131000Y-89357845D01*
X159131000Y-90551000D01*
X159151000Y-90551000D01*
X159151000Y-90805000D01*
X159131000Y-90805000D01*
X159131000Y-91998155D01*
X159360890Y-92119476D01*
X159770924Y-91949645D01*
X160199183Y-91559358D01*
X160260157Y-91429522D01*
X160473375Y-91748625D01*
X160964582Y-92076839D01*
X161397744Y-92163000D01*
X161690256Y-92163000D01*
X162123418Y-92076839D01*
X162614625Y-91748625D01*
X162626816Y-91730381D01*
X162635843Y-91775765D01*
X162776191Y-91985809D01*
X162986235Y-92126157D01*
X163234000Y-92175440D01*
X164934000Y-92175440D01*
X165181765Y-92126157D01*
X165391809Y-91985809D01*
X165532157Y-91775765D01*
X165581440Y-91528000D01*
X165581440Y-91440000D01*
X167395908Y-91440000D01*
X167511161Y-92019418D01*
X167839375Y-92510625D01*
X168137761Y-92710000D01*
X167839375Y-92909375D01*
X167511161Y-93400582D01*
X167395908Y-93980000D01*
X167511161Y-94559418D01*
X167839375Y-95050625D01*
X168137761Y-95250000D01*
X167839375Y-95449375D01*
X167511161Y-95940582D01*
X167395908Y-96520000D01*
X167511161Y-97099418D01*
X167839375Y-97590625D01*
X168137761Y-97790000D01*
X167839375Y-97989375D01*
X167511161Y-98480582D01*
X167395908Y-99060000D01*
X167511161Y-99639418D01*
X167839375Y-100130625D01*
X168137761Y-100330000D01*
X167839375Y-100529375D01*
X167511161Y-101020582D01*
X167395908Y-101600000D01*
X167511161Y-102179418D01*
X167839375Y-102670625D01*
X168137761Y-102870000D01*
X167839375Y-103069375D01*
X167511161Y-103560582D01*
X167395908Y-104140000D01*
X167511161Y-104719418D01*
X167839375Y-105210625D01*
X168137761Y-105410000D01*
X167839375Y-105609375D01*
X167511161Y-106100582D01*
X167395908Y-106680000D01*
X167511161Y-107259418D01*
X167839375Y-107750625D01*
X168137761Y-107950000D01*
X167839375Y-108149375D01*
X167511161Y-108640582D01*
X167395908Y-109220000D01*
X167511161Y-109799418D01*
X167839375Y-110290625D01*
X168137761Y-110490000D01*
X167839375Y-110689375D01*
X167511161Y-111180582D01*
X167395908Y-111760000D01*
X167511161Y-112339418D01*
X167839375Y-112830625D01*
X168330582Y-113158839D01*
X168763744Y-113245000D01*
X169056256Y-113245000D01*
X169489418Y-113158839D01*
X169980625Y-112830625D01*
X170181353Y-112530214D01*
X170568642Y-112955183D01*
X171093108Y-113201486D01*
X171323000Y-113080819D01*
X171323000Y-111887000D01*
X171577000Y-111887000D01*
X171577000Y-113080819D01*
X171806892Y-113201486D01*
X172331358Y-112955183D01*
X172721645Y-112526924D01*
X172891476Y-112116890D01*
X172770155Y-111887000D01*
X171577000Y-111887000D01*
X171323000Y-111887000D01*
X171303000Y-111887000D01*
X171303000Y-111633000D01*
X171323000Y-111633000D01*
X171323000Y-109347000D01*
X171577000Y-109347000D01*
X171577000Y-111633000D01*
X172770155Y-111633000D01*
X172891476Y-111403110D01*
X172721645Y-110993076D01*
X172331358Y-110564817D01*
X172172046Y-110490000D01*
X172331358Y-110415183D01*
X172721645Y-109986924D01*
X172891476Y-109576890D01*
X172770155Y-109347000D01*
X171577000Y-109347000D01*
X171323000Y-109347000D01*
X171303000Y-109347000D01*
X171303000Y-109093000D01*
X171323000Y-109093000D01*
X171323000Y-106807000D01*
X171577000Y-106807000D01*
X171577000Y-109093000D01*
X172770155Y-109093000D01*
X172891476Y-108863110D01*
X172721645Y-108453076D01*
X172331358Y-108024817D01*
X172172046Y-107950000D01*
X172331358Y-107875183D01*
X172721645Y-107446924D01*
X172891476Y-107036890D01*
X172770155Y-106807000D01*
X171577000Y-106807000D01*
X171323000Y-106807000D01*
X171303000Y-106807000D01*
X171303000Y-106553000D01*
X171323000Y-106553000D01*
X171323000Y-104267000D01*
X171577000Y-104267000D01*
X171577000Y-106553000D01*
X172770155Y-106553000D01*
X172891476Y-106323110D01*
X172721645Y-105913076D01*
X172331358Y-105484817D01*
X172172046Y-105410000D01*
X172331358Y-105335183D01*
X172721645Y-104906924D01*
X172891476Y-104496890D01*
X172770155Y-104267000D01*
X171577000Y-104267000D01*
X171323000Y-104267000D01*
X171303000Y-104267000D01*
X171303000Y-104013000D01*
X171323000Y-104013000D01*
X171323000Y-101727000D01*
X171577000Y-101727000D01*
X171577000Y-104013000D01*
X172770155Y-104013000D01*
X172891476Y-103783110D01*
X172721645Y-103373076D01*
X172331358Y-102944817D01*
X172172046Y-102870000D01*
X172331358Y-102795183D01*
X172721645Y-102366924D01*
X172891476Y-101956890D01*
X172770155Y-101727000D01*
X171577000Y-101727000D01*
X171323000Y-101727000D01*
X171303000Y-101727000D01*
X171303000Y-101473000D01*
X171323000Y-101473000D01*
X171323000Y-99187000D01*
X171577000Y-99187000D01*
X171577000Y-101473000D01*
X172770155Y-101473000D01*
X172891476Y-101243110D01*
X172721645Y-100833076D01*
X172331358Y-100404817D01*
X172172046Y-100330000D01*
X172331358Y-100255183D01*
X172721645Y-99826924D01*
X172891476Y-99416890D01*
X172770155Y-99187000D01*
X171577000Y-99187000D01*
X171323000Y-99187000D01*
X171303000Y-99187000D01*
X171303000Y-98933000D01*
X171323000Y-98933000D01*
X171323000Y-96647000D01*
X171577000Y-96647000D01*
X171577000Y-98933000D01*
X172770155Y-98933000D01*
X172891476Y-98703110D01*
X172721645Y-98293076D01*
X172331358Y-97864817D01*
X172172046Y-97790000D01*
X172331358Y-97715183D01*
X172721645Y-97286924D01*
X172891476Y-96876890D01*
X172770155Y-96647000D01*
X171577000Y-96647000D01*
X171323000Y-96647000D01*
X171303000Y-96647000D01*
X171303000Y-96393000D01*
X171323000Y-96393000D01*
X171323000Y-94107000D01*
X171577000Y-94107000D01*
X171577000Y-96393000D01*
X172770155Y-96393000D01*
X172891476Y-96163110D01*
X172721645Y-95753076D01*
X172331358Y-95324817D01*
X172172046Y-95250000D01*
X172331358Y-95175183D01*
X172721645Y-94746924D01*
X172891476Y-94336890D01*
X172770155Y-94107000D01*
X171577000Y-94107000D01*
X171323000Y-94107000D01*
X171303000Y-94107000D01*
X171303000Y-93853000D01*
X171323000Y-93853000D01*
X171323000Y-91567000D01*
X171577000Y-91567000D01*
X171577000Y-93853000D01*
X172770155Y-93853000D01*
X172891476Y-93623110D01*
X172721645Y-93213076D01*
X172331358Y-92784817D01*
X172172046Y-92710000D01*
X172331358Y-92635183D01*
X172721645Y-92206924D01*
X172891476Y-91796890D01*
X172770155Y-91567000D01*
X171577000Y-91567000D01*
X171323000Y-91567000D01*
X171303000Y-91567000D01*
X171303000Y-91313000D01*
X171323000Y-91313000D01*
X171323000Y-91293000D01*
X171577000Y-91293000D01*
X171577000Y-91313000D01*
X172770155Y-91313000D01*
X172891476Y-91083110D01*
X172721645Y-90673076D01*
X172331358Y-90244817D01*
X172201522Y-90183843D01*
X172520625Y-89970625D01*
X172848839Y-89479418D01*
X172964092Y-88900000D01*
X172848839Y-88320582D01*
X172520625Y-87829375D01*
X172029418Y-87501161D01*
X171596256Y-87415000D01*
X171303744Y-87415000D01*
X170870582Y-87501161D01*
X170379375Y-87829375D01*
X170367184Y-87847619D01*
X170358157Y-87802235D01*
X170217809Y-87592191D01*
X170007765Y-87451843D01*
X169760000Y-87402560D01*
X168060000Y-87402560D01*
X167812235Y-87451843D01*
X167602191Y-87592191D01*
X167461843Y-87802235D01*
X167412560Y-88050000D01*
X167412560Y-89750000D01*
X167461843Y-89997765D01*
X167602191Y-90207809D01*
X167812235Y-90348157D01*
X167857619Y-90357184D01*
X167839375Y-90369375D01*
X167511161Y-90860582D01*
X167395908Y-91440000D01*
X165581440Y-91440000D01*
X165581440Y-89828000D01*
X165532157Y-89580235D01*
X165391809Y-89370191D01*
X165181765Y-89229843D01*
X164934000Y-89180560D01*
X163234000Y-89180560D01*
X162986235Y-89229843D01*
X162776191Y-89370191D01*
X162635843Y-89580235D01*
X162626816Y-89625619D01*
X162614625Y-89607375D01*
X162123418Y-89279161D01*
X161690256Y-89193000D01*
X161397744Y-89193000D01*
X160964582Y-89279161D01*
X160473375Y-89607375D01*
X160260157Y-89926478D01*
X160199183Y-89796642D01*
X159770924Y-89406355D01*
X159360890Y-89236524D01*
X159131000Y-89357845D01*
X158877000Y-89357845D01*
X158647110Y-89236524D01*
X158237076Y-89406355D01*
X157808817Y-89796642D01*
X157562514Y-90321108D01*
X156635486Y-90321108D01*
X156389183Y-89796642D01*
X155960924Y-89406355D01*
X155550890Y-89236524D01*
X155321000Y-89357845D01*
X155067000Y-89357845D01*
X154837110Y-89236524D01*
X154427076Y-89406355D01*
X153998817Y-89796642D01*
X153937843Y-89926478D01*
X153724625Y-89607375D01*
X153233418Y-89279161D01*
X152800256Y-89193000D01*
X152507744Y-89193000D01*
X152074582Y-89279161D01*
X151583375Y-89607375D01*
X151571184Y-89625619D01*
X151562157Y-89580235D01*
X151421809Y-89370191D01*
X151211765Y-89229843D01*
X150964000Y-89180560D01*
X149264000Y-89180560D01*
X149016235Y-89229843D01*
X148806191Y-89370191D01*
X148665843Y-89580235D01*
X148616560Y-89828000D01*
X147522042Y-89828000D01*
X147374625Y-89607375D01*
X146883418Y-89279161D01*
X146450256Y-89193000D01*
X146157744Y-89193000D01*
X145724582Y-89279161D01*
X145233375Y-89607375D01*
X145034000Y-89905761D01*
X144834625Y-89607375D01*
X144343418Y-89279161D01*
X143910256Y-89193000D01*
X143617744Y-89193000D01*
X143184582Y-89279161D01*
X142693375Y-89607375D01*
X142494000Y-89905761D01*
X142294625Y-89607375D01*
X141803418Y-89279161D01*
X141370256Y-89193000D01*
X141077744Y-89193000D01*
X140644582Y-89279161D01*
X140153375Y-89607375D01*
X139954000Y-89905761D01*
X139754625Y-89607375D01*
X139263418Y-89279161D01*
X138830256Y-89193000D01*
X138537744Y-89193000D01*
X138104582Y-89279161D01*
X137613375Y-89607375D01*
X137414000Y-89905761D01*
X137214625Y-89607375D01*
X136723418Y-89279161D01*
X136290256Y-89193000D01*
X135997744Y-89193000D01*
X135564582Y-89279161D01*
X135073375Y-89607375D01*
X135058904Y-89629033D01*
X134992327Y-89468302D01*
X134813699Y-89289673D01*
X134580310Y-89193000D01*
X133889750Y-89193000D01*
X133731000Y-89351750D01*
X133731000Y-90551000D01*
X133751000Y-90551000D01*
X133751000Y-90805000D01*
X133731000Y-90805000D01*
X133731000Y-90825000D01*
X133477000Y-90825000D01*
X133477000Y-90805000D01*
X132277750Y-90805000D01*
X132119000Y-90963750D01*
X132119000Y-91236800D01*
X128651000Y-91236800D01*
X128651000Y-91136167D01*
X128515658Y-90809422D01*
X128265578Y-90559342D01*
X127938833Y-90424000D01*
X127585167Y-90424000D01*
X127258422Y-90559342D01*
X127008342Y-90809422D01*
X126873000Y-91136167D01*
X119099440Y-91136167D01*
X119099440Y-89828000D01*
X119074316Y-89701691D01*
X132119000Y-89701691D01*
X132119000Y-90392250D01*
X132277750Y-90551000D01*
X133477000Y-90551000D01*
X133477000Y-89351750D01*
X133318250Y-89193000D01*
X132627690Y-89193000D01*
X132394301Y-89289673D01*
X132215673Y-89468302D01*
X132119000Y-89701691D01*
X119074316Y-89701691D01*
X119050157Y-89580235D01*
X118909809Y-89370191D01*
X118699765Y-89229843D01*
X118452000Y-89180560D01*
X116752000Y-89180560D01*
X116504235Y-89229843D01*
X116294191Y-89370191D01*
X116153843Y-89580235D01*
X116144816Y-89625619D01*
X116132625Y-89607375D01*
X115641418Y-89279161D01*
X115208256Y-89193000D01*
X114915744Y-89193000D01*
X114482582Y-89279161D01*
X113991375Y-89607375D01*
X113792000Y-89905761D01*
X113592625Y-89607375D01*
X113101418Y-89279161D01*
X112668256Y-89193000D01*
X112375744Y-89193000D01*
X111942582Y-89279161D01*
X111451375Y-89607375D01*
X111252000Y-89905761D01*
X111052625Y-89607375D01*
X110561418Y-89279161D01*
X110128256Y-89193000D01*
X109835744Y-89193000D01*
X109402582Y-89279161D01*
X108911375Y-89607375D01*
X108712000Y-89905761D01*
X108512625Y-89607375D01*
X108021418Y-89279161D01*
X107588256Y-89193000D01*
X107295744Y-89193000D01*
X106862582Y-89279161D01*
X106371375Y-89607375D01*
X106172000Y-89905761D01*
X105972625Y-89607375D01*
X105481418Y-89279161D01*
X105048256Y-89193000D01*
X104755744Y-89193000D01*
X104322582Y-89279161D01*
X103831375Y-89607375D01*
X103632000Y-89905761D01*
X103432625Y-89607375D01*
X102941418Y-89279161D01*
X102508256Y-89193000D01*
X102215744Y-89193000D01*
X101782582Y-89279161D01*
X101291375Y-89607375D01*
X101092000Y-89905761D01*
X100892625Y-89607375D01*
X100401418Y-89279161D01*
X99968256Y-89193000D01*
X99675744Y-89193000D01*
X99242582Y-89279161D01*
X98751375Y-89607375D01*
X98423161Y-90098582D01*
X98307908Y-90678000D01*
X97210000Y-90678000D01*
X97210000Y-85598000D01*
X102879908Y-85598000D01*
X102995161Y-86177418D01*
X103323375Y-86668625D01*
X103814582Y-86996839D01*
X104247744Y-87083000D01*
X104540256Y-87083000D01*
X104973418Y-86996839D01*
X105464625Y-86668625D01*
X105664000Y-86370239D01*
X105863375Y-86668625D01*
X106354582Y-86996839D01*
X106787744Y-87083000D01*
X107080256Y-87083000D01*
X107513418Y-86996839D01*
X108004625Y-86668625D01*
X108204000Y-86370239D01*
X108403375Y-86668625D01*
X108894582Y-86996839D01*
X109327744Y-87083000D01*
X109620256Y-87083000D01*
X110053418Y-86996839D01*
X110544625Y-86668625D01*
X110757843Y-86349522D01*
X110818817Y-86479358D01*
X111247076Y-86869645D01*
X111657110Y-87039476D01*
X111887000Y-86918155D01*
X111887000Y-85725000D01*
X111867000Y-85725000D01*
X111867000Y-85471000D01*
X111887000Y-85471000D01*
X111887000Y-85451000D01*
X112141000Y-85451000D01*
X112141000Y-85471000D01*
X112161000Y-85471000D01*
X112161000Y-85725000D01*
X112141000Y-85725000D01*
X112141000Y-86918155D01*
X112370890Y-87039476D01*
X112780924Y-86869645D01*
X113209183Y-86479358D01*
X113270157Y-86349522D01*
X113483375Y-86668625D01*
X113974582Y-86996839D01*
X114407744Y-87083000D01*
X114700256Y-87083000D01*
X115133418Y-86996839D01*
X115624625Y-86668625D01*
X115837843Y-86349522D01*
X115898817Y-86479358D01*
X116327076Y-86869645D01*
X116737110Y-87039476D01*
X116967000Y-86918155D01*
X116967000Y-85725000D01*
X116947000Y-85725000D01*
X116947000Y-85471000D01*
X116967000Y-85471000D01*
X116967000Y-85451000D01*
X117221000Y-85451000D01*
X117221000Y-85471000D01*
X117241000Y-85471000D01*
X117241000Y-85725000D01*
X117221000Y-85725000D01*
X117221000Y-86918155D01*
X117450890Y-87039476D01*
X117860924Y-86869645D01*
X118289183Y-86479358D01*
X118350157Y-86349522D01*
X118563375Y-86668625D01*
X119054582Y-86996839D01*
X119487744Y-87083000D01*
X119780256Y-87083000D01*
X120213418Y-86996839D01*
X120704625Y-86668625D01*
X120904000Y-86370239D01*
X121103375Y-86668625D01*
X121594582Y-86996839D01*
X122027744Y-87083000D01*
X122086835Y-87083000D01*
X122032861Y-87213306D01*
X122032861Y-87566972D01*
X122168203Y-87893717D01*
X122418283Y-88143797D01*
X122745028Y-88279139D01*
X123098694Y-88279139D01*
X123425439Y-88143797D01*
X123675519Y-87893717D01*
X123810861Y-87566972D01*
X123810861Y-87542848D01*
X123913558Y-87440151D01*
X123975058Y-87399058D01*
X124137861Y-87155407D01*
X124168077Y-87003502D01*
X124567744Y-87083000D01*
X124860256Y-87083000D01*
X125293418Y-86996839D01*
X125784625Y-86668625D01*
X125984000Y-86370239D01*
X126183375Y-86668625D01*
X126674582Y-86996839D01*
X127107744Y-87083000D01*
X127400256Y-87083000D01*
X127833418Y-86996839D01*
X128324625Y-86668625D01*
X128537843Y-86349522D01*
X128598817Y-86479358D01*
X129027076Y-86869645D01*
X129437110Y-87039476D01*
X129667000Y-86918155D01*
X129667000Y-85725000D01*
X129647000Y-85725000D01*
X129647000Y-85471000D01*
X129667000Y-85471000D01*
X129667000Y-85451000D01*
X129921000Y-85451000D01*
X129921000Y-85471000D01*
X129941000Y-85471000D01*
X129941000Y-85725000D01*
X129921000Y-85725000D01*
X129921000Y-86918155D01*
X130150890Y-87039476D01*
X130560924Y-86869645D01*
X130989183Y-86479358D01*
X131050157Y-86349522D01*
X131263375Y-86668625D01*
X131754582Y-86996839D01*
X132187744Y-87083000D01*
X132480256Y-87083000D01*
X132913418Y-86996839D01*
X133404625Y-86668625D01*
X133604000Y-86370239D01*
X133803375Y-86668625D01*
X134294582Y-86996839D01*
X134727744Y-87083000D01*
X135020256Y-87083000D01*
X135453418Y-86996839D01*
X135944625Y-86668625D01*
X136157843Y-86349522D01*
X136218817Y-86479358D01*
X136647076Y-86869645D01*
X137057110Y-87039476D01*
X137287000Y-86918155D01*
X137287000Y-85725000D01*
X137267000Y-85725000D01*
X137267000Y-85471000D01*
X137287000Y-85471000D01*
X137287000Y-85451000D01*
X137541000Y-85451000D01*
X137541000Y-85471000D01*
X137561000Y-85471000D01*
X137561000Y-85725000D01*
X137541000Y-85725000D01*
X137541000Y-86918155D01*
X137770890Y-87039476D01*
X138180924Y-86869645D01*
X138609183Y-86479358D01*
X138670157Y-86349522D01*
X138883375Y-86668625D01*
X139374582Y-86996839D01*
X139807744Y-87083000D01*
X140100256Y-87083000D01*
X140533418Y-86996839D01*
X141024625Y-86668625D01*
X141224000Y-86370239D01*
X141423375Y-86668625D01*
X141914582Y-86996839D01*
X142347744Y-87083000D01*
X142640256Y-87083000D01*
X143073418Y-86996839D01*
X143564625Y-86668625D01*
X143764000Y-86370239D01*
X143963375Y-86668625D01*
X144454582Y-86996839D01*
X144887744Y-87083000D01*
X145180256Y-87083000D01*
X145613418Y-86996839D01*
X146104625Y-86668625D01*
X146317843Y-86349522D01*
X146378817Y-86479358D01*
X146807076Y-86869645D01*
X147217110Y-87039476D01*
X147447000Y-86918155D01*
X147447000Y-85725000D01*
X147427000Y-85725000D01*
X147427000Y-85471000D01*
X147447000Y-85471000D01*
X147447000Y-85451000D01*
X147701000Y-85451000D01*
X147701000Y-85471000D01*
X147721000Y-85471000D01*
X147721000Y-85725000D01*
X147701000Y-85725000D01*
X147701000Y-86918155D01*
X147930890Y-87039476D01*
X148340924Y-86869645D01*
X148769183Y-86479358D01*
X148830157Y-86349522D01*
X149043375Y-86668625D01*
X149534582Y-86996839D01*
X149967744Y-87083000D01*
X150260256Y-87083000D01*
X150693418Y-86996839D01*
X151184625Y-86668625D01*
X151384000Y-86370239D01*
X151583375Y-86668625D01*
X152074582Y-86996839D01*
X152507744Y-87083000D01*
X152800256Y-87083000D01*
X153233418Y-86996839D01*
X153724625Y-86668625D01*
X154052839Y-86177418D01*
X154168092Y-85598000D01*
X154061993Y-85064600D01*
X156197364Y-85064600D01*
X156214422Y-85081658D01*
X156541167Y-85217000D01*
X156894833Y-85217000D01*
X157221578Y-85081658D01*
X157471658Y-84831578D01*
X157607000Y-84504833D01*
X157607000Y-84151167D01*
X157471658Y-83824422D01*
X157221578Y-83574342D01*
X156894833Y-83439000D01*
X156541167Y-83439000D01*
X156214422Y-83574342D01*
X156197364Y-83591400D01*
X154151440Y-83591400D01*
X154151440Y-82683050D01*
X169057000Y-82683050D01*
X169057000Y-83432950D01*
X169343974Y-84125767D01*
X169874233Y-84656026D01*
X170567050Y-84943000D01*
X171316950Y-84943000D01*
X172009767Y-84656026D01*
X172540026Y-84125767D01*
X172827000Y-83432950D01*
X172827000Y-82683050D01*
X172540026Y-81990233D01*
X172009767Y-81459974D01*
X171316950Y-81173000D01*
X170567050Y-81173000D01*
X169874233Y-81459974D01*
X169343974Y-81990233D01*
X169057000Y-82683050D01*
X154151440Y-82683050D01*
X154151440Y-82208000D01*
X154102157Y-81960235D01*
X153961809Y-81750191D01*
X153751765Y-81609843D01*
X153504000Y-81560560D01*
X151804000Y-81560560D01*
X151556235Y-81609843D01*
X151346191Y-81750191D01*
X151205843Y-81960235D01*
X151196816Y-82005619D01*
X151184625Y-81987375D01*
X150693418Y-81659161D01*
X150260256Y-81573000D01*
X149967744Y-81573000D01*
X149534582Y-81659161D01*
X149043375Y-81987375D01*
X148844000Y-82285761D01*
X148644625Y-81987375D01*
X148153418Y-81659161D01*
X147720256Y-81573000D01*
X147427744Y-81573000D01*
X146994582Y-81659161D01*
X146503375Y-81987375D01*
X146304000Y-82285761D01*
X146104625Y-81987375D01*
X145613418Y-81659161D01*
X145180256Y-81573000D01*
X144887744Y-81573000D01*
X144454582Y-81659161D01*
X143963375Y-81987375D01*
X143750157Y-82306478D01*
X143689183Y-82176642D01*
X143260924Y-81786355D01*
X142850890Y-81616524D01*
X142621000Y-81737845D01*
X142621000Y-82931000D01*
X142641000Y-82931000D01*
X142641000Y-83185000D01*
X142621000Y-83185000D01*
X142621000Y-83205000D01*
X142367000Y-83205000D01*
X142367000Y-83185000D01*
X142347000Y-83185000D01*
X142347000Y-82931000D01*
X142367000Y-82931000D01*
X142367000Y-81737845D01*
X142137110Y-81616524D01*
X141727076Y-81786355D01*
X141298817Y-82176642D01*
X141237843Y-82306478D01*
X141024625Y-81987375D01*
X140533418Y-81659161D01*
X140100256Y-81573000D01*
X139807744Y-81573000D01*
X139374582Y-81659161D01*
X138883375Y-81987375D01*
X138684000Y-82285761D01*
X138484625Y-81987375D01*
X137993418Y-81659161D01*
X137560256Y-81573000D01*
X137267744Y-81573000D01*
X136834582Y-81659161D01*
X136343375Y-81987375D01*
X136144000Y-82285761D01*
X135944625Y-81987375D01*
X135453418Y-81659161D01*
X135020256Y-81573000D01*
X134727744Y-81573000D01*
X134294582Y-81659161D01*
X133803375Y-81987375D01*
X133604000Y-82285761D01*
X133404625Y-81987375D01*
X132913418Y-81659161D01*
X132480256Y-81573000D01*
X132187744Y-81573000D01*
X131754582Y-81659161D01*
X131263375Y-81987375D01*
X131064000Y-82285761D01*
X130864625Y-81987375D01*
X130373418Y-81659161D01*
X129940256Y-81573000D01*
X129647744Y-81573000D01*
X129214582Y-81659161D01*
X128723375Y-81987375D01*
X128524000Y-82285761D01*
X128324625Y-81987375D01*
X127833418Y-81659161D01*
X127400256Y-81573000D01*
X127107744Y-81573000D01*
X126674582Y-81659161D01*
X126183375Y-81987375D01*
X125984000Y-82285761D01*
X125784625Y-81987375D01*
X125293418Y-81659161D01*
X124860256Y-81573000D01*
X124567744Y-81573000D01*
X124134582Y-81659161D01*
X123643375Y-81987375D01*
X123430157Y-82306478D01*
X123369183Y-82176642D01*
X122940924Y-81786355D01*
X122530890Y-81616524D01*
X122301000Y-81737845D01*
X122301000Y-82931000D01*
X122321000Y-82931000D01*
X122321000Y-83185000D01*
X122301000Y-83185000D01*
X122301000Y-83205000D01*
X122047000Y-83205000D01*
X122047000Y-83185000D01*
X122027000Y-83185000D01*
X122027000Y-82931000D01*
X122047000Y-82931000D01*
X122047000Y-81737845D01*
X121817110Y-81616524D01*
X121407076Y-81786355D01*
X120978817Y-82176642D01*
X120917843Y-82306478D01*
X120704625Y-81987375D01*
X120213418Y-81659161D01*
X119780256Y-81573000D01*
X119487744Y-81573000D01*
X119054582Y-81659161D01*
X118563375Y-81987375D01*
X118364000Y-82285761D01*
X118164625Y-81987375D01*
X117673418Y-81659161D01*
X117240256Y-81573000D01*
X116947744Y-81573000D01*
X116514582Y-81659161D01*
X116023375Y-81987375D01*
X115824000Y-82285761D01*
X115624625Y-81987375D01*
X115133418Y-81659161D01*
X114700256Y-81573000D01*
X114407744Y-81573000D01*
X113974582Y-81659161D01*
X113483375Y-81987375D01*
X113284000Y-82285761D01*
X113084625Y-81987375D01*
X112593418Y-81659161D01*
X112160256Y-81573000D01*
X111867744Y-81573000D01*
X111434582Y-81659161D01*
X110943375Y-81987375D01*
X110744000Y-82285761D01*
X110544625Y-81987375D01*
X110053418Y-81659161D01*
X109620256Y-81573000D01*
X109327744Y-81573000D01*
X108894582Y-81659161D01*
X108403375Y-81987375D01*
X108204000Y-82285761D01*
X108004625Y-81987375D01*
X107513418Y-81659161D01*
X107080256Y-81573000D01*
X106787744Y-81573000D01*
X106354582Y-81659161D01*
X105863375Y-81987375D01*
X105650157Y-82306478D01*
X105589183Y-82176642D01*
X105160924Y-81786355D01*
X104750890Y-81616524D01*
X104521000Y-81737845D01*
X104521000Y-82931000D01*
X104541000Y-82931000D01*
X104541000Y-83185000D01*
X104521000Y-83185000D01*
X104521000Y-83205000D01*
X104267000Y-83205000D01*
X104267000Y-83185000D01*
X103073181Y-83185000D01*
X102952514Y-83414892D01*
X103198817Y-83939358D01*
X103623786Y-84326647D01*
X103323375Y-84527375D01*
X102995161Y-85018582D01*
X102879908Y-85598000D01*
X97210000Y-85598000D01*
X97210000Y-82683050D01*
X97683000Y-82683050D01*
X97683000Y-83432950D01*
X97969974Y-84125767D01*
X98500233Y-84656026D01*
X99193050Y-84943000D01*
X99942950Y-84943000D01*
X100635767Y-84656026D01*
X101166026Y-84125767D01*
X101453000Y-83432950D01*
X101453000Y-82701108D01*
X102952514Y-82701108D01*
X103073181Y-82931000D01*
X104267000Y-82931000D01*
X104267000Y-81737845D01*
X104037110Y-81616524D01*
X103627076Y-81786355D01*
X103198817Y-82176642D01*
X102952514Y-82701108D01*
X101453000Y-82701108D01*
X101453000Y-82683050D01*
X101166026Y-81990233D01*
X100635767Y-81459974D01*
X99942950Y-81173000D01*
X99193050Y-81173000D01*
X98500233Y-81459974D01*
X97969974Y-81990233D01*
X97683000Y-82683050D01*
X97210000Y-82683050D01*
X97210000Y-80710000D01*
X173290000Y-80710000D01*
X173290001Y-119290000D01*
G04 #@! TD*
M02*
