G04 #@! TF.GenerationSoftware,KiCad,Pcbnew,5.0.2+dfsg1-1*
G04 #@! TF.CreationDate,2020-03-15T11:59:51+01:00*
G04 #@! TF.ProjectId,BEE,4245452e-6b69-4636-9164-5f7063625858,1.0*
G04 #@! TF.SameCoordinates,Original*
G04 #@! TF.FileFunction,Copper,L2,Bot*
G04 #@! TF.FilePolarity,Positive*
%FSLAX46Y46*%
G04 Gerber Fmt 4.6, Leading zero omitted, Abs format (unit mm)*
G04 Created by KiCad (PCBNEW 5.0.2+dfsg1-1) date Sun 15 Mar 2020 11:59:51 AM CET*
%MOMM*%
%LPD*%
G01*
G04 APERTURE LIST*
G04 #@! TA.AperFunction,ComponentPad*
%ADD10O,1.700000X1.700000*%
G04 #@! TD*
G04 #@! TA.AperFunction,ComponentPad*
%ADD11R,1.700000X1.700000*%
G04 #@! TD*
G04 #@! TA.AperFunction,ComponentPad*
%ADD12C,1.100000*%
G04 #@! TD*
G04 #@! TA.AperFunction,ViaPad*
%ADD13C,0.762000*%
G04 #@! TD*
G04 #@! TA.AperFunction,ViaPad*
%ADD14C,0.508000*%
G04 #@! TD*
G04 #@! TA.AperFunction,Conductor*
%ADD15C,0.609600*%
G04 #@! TD*
G04 #@! TA.AperFunction,Conductor*
%ADD16C,0.203200*%
G04 #@! TD*
G04 #@! TA.AperFunction,Conductor*
%ADD17C,0.254000*%
G04 #@! TD*
G04 APERTURE END LIST*
D10*
G04 #@! TO.P,J1,40*
G04 #@! TO.N,/BCM21*
X105130600Y-87045800D03*
G04 #@! TO.P,J1,39*
G04 #@! TO.N,GND*
X105130600Y-84505800D03*
G04 #@! TO.P,J1,38*
G04 #@! TO.N,/BCM20*
X107670600Y-87045800D03*
G04 #@! TO.P,J1,37*
G04 #@! TO.N,/BCM26*
X107670600Y-84505800D03*
G04 #@! TO.P,J1,36*
G04 #@! TO.N,/BCM16_CTS*
X110210600Y-87045800D03*
G04 #@! TO.P,J1,35*
G04 #@! TO.N,/BCM19*
X110210600Y-84505800D03*
G04 #@! TO.P,J1,34*
G04 #@! TO.N,GND*
X112750600Y-87045800D03*
G04 #@! TO.P,J1,33*
G04 #@! TO.N,/BCM13_PWM1*
X112750600Y-84505800D03*
G04 #@! TO.P,J1,32*
G04 #@! TO.N,/BCM12_PWM0*
X115290600Y-87045800D03*
G04 #@! TO.P,J1,31*
G04 #@! TO.N,/BCM6*
X115290600Y-84505800D03*
G04 #@! TO.P,J1,30*
G04 #@! TO.N,GND*
X117830600Y-87045800D03*
G04 #@! TO.P,J1,29*
G04 #@! TO.N,/BCM5*
X117830600Y-84505800D03*
G04 #@! TO.P,J1,28*
G04 #@! TO.N,/BCM1*
X120370600Y-87045800D03*
G04 #@! TO.P,J1,27*
G04 #@! TO.N,/BCM0*
X120370600Y-84505800D03*
G04 #@! TO.P,J1,26*
G04 #@! TO.N,/BCM7_CE1*
X122910600Y-87045800D03*
G04 #@! TO.P,J1,25*
G04 #@! TO.N,GND*
X122910600Y-84505800D03*
G04 #@! TO.P,J1,24*
G04 #@! TO.N,/BCM8_CE0*
X125450600Y-87045800D03*
G04 #@! TO.P,J1,23*
G04 #@! TO.N,/BCM11_SCLK*
X125450600Y-84505800D03*
G04 #@! TO.P,J1,22*
G04 #@! TO.N,/BCM25_TCK*
X127990600Y-87045800D03*
G04 #@! TO.P,J1,21*
G04 #@! TO.N,/BCM9_MISO*
X127990600Y-84505800D03*
G04 #@! TO.P,J1,20*
G04 #@! TO.N,GND*
X130530600Y-87045800D03*
G04 #@! TO.P,J1,19*
G04 #@! TO.N,/BCM10_MOSI*
X130530600Y-84505800D03*
G04 #@! TO.P,J1,18*
G04 #@! TO.N,/BCM24_TDO*
X133070600Y-87045800D03*
G04 #@! TO.P,J1,17*
G04 #@! TO.N,N/C*
X133070600Y-84505800D03*
G04 #@! TO.P,J1,16*
G04 #@! TO.N,/BCM23_RTCK*
X135610600Y-87045800D03*
G04 #@! TO.P,J1,15*
G04 #@! TO.N,/BCM22_TRST*
X135610600Y-84505800D03*
G04 #@! TO.P,J1,14*
G04 #@! TO.N,GND*
X138150600Y-87045800D03*
G04 #@! TO.P,J1,13*
G04 #@! TO.N,/BCM27_TMS*
X138150600Y-84505800D03*
G04 #@! TO.P,J1,12*
G04 #@! TO.N,/BCM18_PWM0*
X140690600Y-87045800D03*
G04 #@! TO.P,J1,11*
G04 #@! TO.N,/BCM17_RTS*
X140690600Y-84505800D03*
G04 #@! TO.P,J1,10*
G04 #@! TO.N,/BCM15_RX*
X143230600Y-87045800D03*
G04 #@! TO.P,J1,9*
G04 #@! TO.N,GND*
X143230600Y-84505800D03*
G04 #@! TO.P,J1,8*
G04 #@! TO.N,/BCM14_TX*
X145770600Y-87045800D03*
G04 #@! TO.P,J1,7*
G04 #@! TO.N,/BCM4_TDI*
X145770600Y-84505800D03*
G04 #@! TO.P,J1,6*
G04 #@! TO.N,GND*
X148310600Y-87045800D03*
G04 #@! TO.P,J1,5*
G04 #@! TO.N,/BCM3_SCL*
X148310600Y-84505800D03*
G04 #@! TO.P,J1,4*
G04 #@! TO.N,N/C*
X150850600Y-87045800D03*
G04 #@! TO.P,J1,3*
G04 #@! TO.N,/BCM2_SDA*
X150850600Y-84505800D03*
G04 #@! TO.P,J1,2*
G04 #@! TO.N,+5V*
X153390600Y-87045800D03*
D11*
G04 #@! TO.P,J1,1*
G04 #@! TO.N,+3V3*
X153390600Y-84505800D03*
G04 #@! TD*
D10*
G04 #@! TO.P,J16,8*
G04 #@! TO.N,/BCM26*
X99466400Y-91897200D03*
G04 #@! TO.P,J16,7*
G04 #@! TO.N,/BCM21*
X102006400Y-91897200D03*
G04 #@! TO.P,J16,6*
G04 #@! TO.N,/BCM20*
X104546400Y-91897200D03*
G04 #@! TO.P,J16,5*
G04 #@! TO.N,/BCM19*
X107086400Y-91897200D03*
G04 #@! TO.P,J16,4*
G04 #@! TO.N,/BCM6*
X109626400Y-91897200D03*
G04 #@! TO.P,J16,3*
G04 #@! TO.N,/BCM5*
X112166400Y-91897200D03*
G04 #@! TO.P,J16,2*
G04 #@! TO.N,/BCM1*
X114706400Y-91897200D03*
D11*
G04 #@! TO.P,J16,1*
G04 #@! TO.N,/BCM0*
X117246400Y-91897200D03*
G04 #@! TD*
D10*
G04 #@! TO.P,J4,6*
G04 #@! TO.N,/SW1*
X129032000Y-110871000D03*
G04 #@! TO.P,J4,5*
G04 #@! TO.N,/SW2*
X126492000Y-110871000D03*
G04 #@! TO.P,J4,4*
G04 #@! TO.N,/SW3*
X123952000Y-110871000D03*
G04 #@! TO.P,J4,3*
G04 #@! TO.N,/L1*
X121412000Y-110871000D03*
G04 #@! TO.P,J4,2*
G04 #@! TO.N,/L2*
X118872000Y-110871000D03*
D11*
G04 #@! TO.P,J4,1*
G04 #@! TO.N,/L3*
X116332000Y-110871000D03*
G04 #@! TD*
D10*
G04 #@! TO.P,J8,16*
G04 #@! TO.N,Net-(J8-Pad16)*
X162661600Y-112877600D03*
G04 #@! TO.P,J8,15*
G04 #@! TO.N,/AR7*
X162661600Y-115417600D03*
G04 #@! TO.P,J8,14*
G04 #@! TO.N,Net-(J8-Pad14)*
X160121600Y-112877600D03*
G04 #@! TO.P,J8,13*
G04 #@! TO.N,/AR6*
X160121600Y-115417600D03*
G04 #@! TO.P,J8,12*
G04 #@! TO.N,Net-(J8-Pad12)*
X157581600Y-112877600D03*
G04 #@! TO.P,J8,11*
G04 #@! TO.N,/AR5*
X157581600Y-115417600D03*
G04 #@! TO.P,J8,10*
G04 #@! TO.N,Net-(J8-Pad10)*
X155041600Y-112877600D03*
G04 #@! TO.P,J8,9*
G04 #@! TO.N,/AR4*
X155041600Y-115417600D03*
G04 #@! TO.P,J8,8*
G04 #@! TO.N,Net-(J8-Pad8)*
X152501600Y-112877600D03*
G04 #@! TO.P,J8,7*
G04 #@! TO.N,/AR3*
X152501600Y-115417600D03*
G04 #@! TO.P,J8,6*
G04 #@! TO.N,Net-(J8-Pad6)*
X149961600Y-112877600D03*
G04 #@! TO.P,J8,5*
G04 #@! TO.N,/AR2*
X149961600Y-115417600D03*
G04 #@! TO.P,J8,4*
G04 #@! TO.N,Net-(J8-Pad4)*
X147421600Y-112877600D03*
G04 #@! TO.P,J8,3*
G04 #@! TO.N,/AR1*
X147421600Y-115417600D03*
G04 #@! TO.P,J8,2*
G04 #@! TO.N,Net-(J8-Pad2)*
X144881600Y-112877600D03*
D11*
G04 #@! TO.P,J8,1*
G04 #@! TO.N,/AR0*
X144881600Y-115417600D03*
G04 #@! TD*
D12*
G04 #@! TO.P,BZ1,2*
G04 #@! TO.N,Net-(BZ1-Pad2)*
X105727500Y-99013000D03*
G04 #@! TO.P,BZ1,1*
G04 #@! TO.N,Net-(BZ1-Pad1)*
X105727500Y-109013000D03*
G04 #@! TD*
D10*
G04 #@! TO.P,J5,20*
G04 #@! TO.N,GND*
X167868600Y-91897200D03*
G04 #@! TO.P,J5,19*
G04 #@! TO.N,N/C*
X170408600Y-91897200D03*
G04 #@! TO.P,J5,18*
G04 #@! TO.N,GND*
X167868600Y-94437200D03*
G04 #@! TO.P,J5,17*
G04 #@! TO.N,N/C*
X170408600Y-94437200D03*
G04 #@! TO.P,J5,16*
G04 #@! TO.N,GND*
X167868600Y-96977200D03*
G04 #@! TO.P,J5,15*
G04 #@! TO.N,N/C*
X170408600Y-96977200D03*
G04 #@! TO.P,J5,14*
G04 #@! TO.N,GND*
X167868600Y-99517200D03*
G04 #@! TO.P,J5,13*
G04 #@! TO.N,/BCM24_TDO*
X170408600Y-99517200D03*
G04 #@! TO.P,J5,12*
G04 #@! TO.N,GND*
X167868600Y-102057200D03*
G04 #@! TO.P,J5,11*
G04 #@! TO.N,/BCM23_RTCK*
X170408600Y-102057200D03*
G04 #@! TO.P,J5,10*
G04 #@! TO.N,GND*
X167868600Y-104597200D03*
G04 #@! TO.P,J5,9*
G04 #@! TO.N,/BCM25_TCK*
X170408600Y-104597200D03*
G04 #@! TO.P,J5,8*
G04 #@! TO.N,GND*
X167868600Y-107137200D03*
G04 #@! TO.P,J5,7*
G04 #@! TO.N,/BCM27_TMS*
X170408600Y-107137200D03*
G04 #@! TO.P,J5,6*
G04 #@! TO.N,GND*
X167868600Y-109677200D03*
G04 #@! TO.P,J5,5*
G04 #@! TO.N,/BCM4_TDI*
X170408600Y-109677200D03*
G04 #@! TO.P,J5,4*
G04 #@! TO.N,GND*
X167868600Y-112217200D03*
G04 #@! TO.P,J5,3*
G04 #@! TO.N,/BCM22_TRST*
X170408600Y-112217200D03*
G04 #@! TO.P,J5,2*
G04 #@! TO.N,Net-(J5-Pad2)*
X167868600Y-114757200D03*
D11*
G04 #@! TO.P,J5,1*
G04 #@! TO.N,+3V3*
X170408600Y-114757200D03*
G04 #@! TD*
D10*
G04 #@! TO.P,J2,10*
G04 #@! TO.N,/CE_DAC*
X125577600Y-101295200D03*
G04 #@! TO.P,J2,9*
G04 #@! TO.N,/BCM7_CE1*
X125577600Y-98755200D03*
G04 #@! TO.P,J2,8*
G04 #@! TO.N,/CE_ADC*
X128117600Y-101295200D03*
G04 #@! TO.P,J2,7*
G04 #@! TO.N,/BCM8_CE0*
X128117600Y-98755200D03*
G04 #@! TO.P,J2,6*
G04 #@! TO.N,/SCLK*
X130657600Y-101295200D03*
G04 #@! TO.P,J2,5*
G04 #@! TO.N,/BCM11_SCLK*
X130657600Y-98755200D03*
G04 #@! TO.P,J2,4*
G04 #@! TO.N,/MISO*
X133197600Y-101295200D03*
G04 #@! TO.P,J2,3*
G04 #@! TO.N,/BCM9_MISO*
X133197600Y-98755200D03*
G04 #@! TO.P,J2,2*
G04 #@! TO.N,/MOSI*
X135737600Y-101295200D03*
D11*
G04 #@! TO.P,J2,1*
G04 #@! TO.N,/BCM10_MOSI*
X135737600Y-98755200D03*
G04 #@! TD*
D10*
G04 #@! TO.P,J13,6*
G04 #@! TO.N,/BCM16_CTS*
X144399000Y-91871800D03*
G04 #@! TO.P,J13,5*
G04 #@! TO.N,/BCM14_TX*
X141859000Y-91871800D03*
G04 #@! TO.P,J13,4*
G04 #@! TO.N,/BCM15_RX*
X139319000Y-91871800D03*
G04 #@! TO.P,J13,3*
G04 #@! TO.N,N/C*
X136779000Y-91871800D03*
G04 #@! TO.P,J13,2*
G04 #@! TO.N,/BCM17_RTS*
X134239000Y-91871800D03*
D11*
G04 #@! TO.P,J13,1*
G04 #@! TO.N,GND*
X131699000Y-91871800D03*
G04 #@! TD*
D10*
G04 #@! TO.P,J3,6*
G04 #@! TO.N,/BCM12_PWM0*
X116433600Y-101269800D03*
G04 #@! TO.P,J3,5*
G04 #@! TO.N,/BCM13_PWM1*
X116433600Y-98729800D03*
G04 #@! TO.P,J3,4*
G04 #@! TO.N,Net-(BZ1-Pad1)*
X118973600Y-101269800D03*
G04 #@! TO.P,J3,3*
G04 #@! TO.N,Net-(BZ1-Pad2)*
X118973600Y-98729800D03*
G04 #@! TO.P,J3,2*
G04 #@! TO.N,GND*
X121513600Y-101269800D03*
D11*
G04 #@! TO.P,J3,1*
G04 #@! TO.N,/BCM18_PWM0*
X121513600Y-98729800D03*
G04 #@! TD*
G04 #@! TO.P,J9,1*
G04 #@! TO.N,GND*
X139166600Y-105359200D03*
D10*
G04 #@! TO.P,J9,2*
G04 #@! TO.N,Net-(J9-Pad2)*
X139166600Y-107899200D03*
G04 #@! TD*
D11*
G04 #@! TO.P,J10,1*
G04 #@! TO.N,Net-(J10-Pad1)*
X148475700Y-107924600D03*
D10*
G04 #@! TO.P,J10,2*
G04 #@! TO.N,VDD*
X148475700Y-105384600D03*
G04 #@! TD*
D11*
G04 #@! TO.P,J11,1*
G04 #@! TO.N,VDD*
X153631900Y-100698300D03*
D10*
G04 #@! TO.P,J11,2*
G04 #@! TO.N,Net-(J11-Pad2)*
X156171900Y-100698300D03*
G04 #@! TD*
D11*
G04 #@! TO.P,J12,1*
G04 #@! TO.N,GND*
X139141200Y-115417600D03*
D10*
G04 #@! TO.P,J12,2*
G04 #@! TO.N,Net-(J12-Pad2)*
X139141200Y-112877600D03*
G04 #@! TD*
G04 #@! TO.P,J14,3*
G04 #@! TO.N,+5V*
X158470600Y-89585800D03*
G04 #@! TO.P,J14,2*
G04 #@! TO.N,VDD*
X158470600Y-87045800D03*
D11*
G04 #@! TO.P,J14,1*
G04 #@! TO.N,+3V3*
X158470600Y-84505800D03*
G04 #@! TD*
D10*
G04 #@! TO.P,J17,3*
G04 #@! TO.N,GND*
X153339800Y-91871800D03*
G04 #@! TO.P,J17,2*
G04 #@! TO.N,/BCM2_SDA*
X150799800Y-91871800D03*
D11*
G04 #@! TO.P,J17,1*
G04 #@! TO.N,/BCM3_SCL*
X148259800Y-91871800D03*
G04 #@! TD*
G04 #@! TO.P,J18,1*
G04 #@! TO.N,+3V3*
X162204400Y-84505800D03*
D10*
G04 #@! TO.P,J18,2*
G04 #@! TO.N,VCC*
X162204400Y-87045800D03*
G04 #@! TO.P,J18,3*
G04 #@! TO.N,+5V*
X162204400Y-89585800D03*
G04 #@! TD*
G04 #@! TO.P,J7,16*
G04 #@! TO.N,VCC*
X162661600Y-123596400D03*
G04 #@! TO.P,J7,15*
G04 #@! TO.N,/AR7*
X162661600Y-121056400D03*
G04 #@! TO.P,J7,14*
G04 #@! TO.N,VCC*
X160121600Y-123596400D03*
G04 #@! TO.P,J7,13*
G04 #@! TO.N,/AR6*
X160121600Y-121056400D03*
G04 #@! TO.P,J7,12*
G04 #@! TO.N,VCC*
X157581600Y-123596400D03*
G04 #@! TO.P,J7,11*
G04 #@! TO.N,/AR5*
X157581600Y-121056400D03*
G04 #@! TO.P,J7,10*
G04 #@! TO.N,VCC*
X155041600Y-123596400D03*
G04 #@! TO.P,J7,9*
G04 #@! TO.N,/AR4*
X155041600Y-121056400D03*
G04 #@! TO.P,J7,8*
G04 #@! TO.N,VCC*
X152501600Y-123596400D03*
G04 #@! TO.P,J7,7*
G04 #@! TO.N,/AR3*
X152501600Y-121056400D03*
G04 #@! TO.P,J7,6*
G04 #@! TO.N,VCC*
X149961600Y-123596400D03*
G04 #@! TO.P,J7,5*
G04 #@! TO.N,/AR2*
X149961600Y-121056400D03*
G04 #@! TO.P,J7,4*
G04 #@! TO.N,VCC*
X147421600Y-123596400D03*
G04 #@! TO.P,J7,3*
G04 #@! TO.N,/AR1*
X147421600Y-121056400D03*
G04 #@! TO.P,J7,2*
G04 #@! TO.N,VCC*
X144881600Y-123596400D03*
D11*
G04 #@! TO.P,J7,1*
G04 #@! TO.N,/AR0*
X144881600Y-121056400D03*
G04 #@! TD*
D13*
G04 #@! TO.N,GND*
X163728400Y-101968300D03*
X152806400Y-106794300D03*
X106362500Y-123888500D03*
X119316500Y-124079000D03*
X130429000Y-124142500D03*
X135382000Y-123825000D03*
X143662400Y-118465600D03*
X146304000Y-119634000D03*
X150164800Y-119481600D03*
X153974800Y-119684800D03*
X157734000Y-119430800D03*
X161544000Y-119481600D03*
X143179800Y-112699800D03*
X150520400Y-99923600D03*
X114427000Y-117475000D03*
D14*
X120269000Y-117475000D03*
D13*
X126060200Y-117525800D03*
X157784800Y-101879400D03*
X143713200Y-110159800D03*
D14*
G04 #@! TO.N,/BCM24_TDO*
X141833603Y-83286599D03*
G04 #@! TO.N,/BCM10_MOSI*
X129463800Y-89204800D03*
G04 #@! TO.N,/BCM25_TCK*
X138912600Y-83210400D03*
G04 #@! TO.N,/BCM6*
X110820200Y-88366600D03*
G04 #@! TO.N,/MOSI*
X138226800Y-102463600D03*
D13*
G04 #@! TO.N,VDD*
X153644600Y-97205800D03*
D14*
G04 #@! TO.N,/BCM18_PWM0*
X137591800Y-99314000D03*
G04 #@! TO.N,/BCM16_CTS*
X137185400Y-93573600D03*
G04 #@! TD*
D15*
G04 #@! TO.N,+5V*
X155930600Y-87045800D02*
X158470600Y-89585800D01*
X153390600Y-87045800D02*
X155930600Y-87045800D01*
D16*
G04 #@! TO.N,/BCM24_TDO*
X133070600Y-87045800D02*
X134276201Y-85840199D01*
X140182601Y-83286599D02*
X141474393Y-83286599D01*
X141474393Y-83286599D02*
X141833603Y-83286599D01*
X139305401Y-84163799D02*
X140182601Y-83286599D01*
X139305401Y-85060105D02*
X139305401Y-84163799D01*
X134276201Y-85840199D02*
X138525307Y-85840199D01*
X138525307Y-85840199D02*
X139305401Y-85060105D01*
G04 #@! TO.N,/BCM10_MOSI*
X129260600Y-89001600D02*
X129463800Y-89204800D01*
X129336800Y-86455310D02*
X129260600Y-86531510D01*
X129260600Y-86531510D02*
X129260600Y-89001600D01*
X129336800Y-86410800D02*
X129336800Y-86455310D01*
X130530600Y-84505800D02*
X130530600Y-85217000D01*
X130530600Y-85217000D02*
X129336800Y-86410800D01*
G04 #@! TO.N,/BCM25_TCK*
X138553390Y-83210400D02*
X138912600Y-83210400D01*
X127990600Y-86563200D02*
X126771400Y-85344000D01*
X126771400Y-85344000D02*
X126771400Y-83896200D01*
X127990600Y-87045800D02*
X127990600Y-86563200D01*
X126771400Y-83896200D02*
X127330200Y-83337400D01*
X127330200Y-83337400D02*
X138426390Y-83337400D01*
X138426390Y-83337400D02*
X138553390Y-83210400D01*
G04 #@! TO.N,/BCM6*
X115290600Y-84505800D02*
X114135799Y-85660601D01*
X114135799Y-85660601D02*
X112076365Y-85660601D01*
X111074199Y-88112601D02*
X110820200Y-88366600D01*
X111531399Y-87655401D02*
X111074199Y-88112601D01*
X111531399Y-86205567D02*
X111531399Y-87655401D01*
X112076365Y-85660601D02*
X111531399Y-86205567D01*
G04 #@! TO.N,/MOSI*
X137058400Y-101295200D02*
X137972801Y-102209601D01*
X137972801Y-102209601D02*
X138226800Y-102463600D01*
X135737600Y-101295200D02*
X137058400Y-101295200D01*
D15*
G04 #@! TO.N,VDD*
X153631900Y-97218500D02*
X153644600Y-97205800D01*
X153631900Y-100698300D02*
X153631900Y-97218500D01*
D16*
G04 #@! TO.N,/BCM18_PWM0*
X122566800Y-98729800D02*
X121513600Y-98729800D01*
X123747001Y-99910001D02*
X122566800Y-98729800D01*
X136995799Y-99910001D02*
X123747001Y-99910001D01*
X137591800Y-99314000D02*
X136995799Y-99910001D01*
G04 #@! TO.N,/BCM16_CTS*
X142697200Y-93573600D02*
X144399000Y-91871800D01*
X137185400Y-93573600D02*
X142697200Y-93573600D01*
G04 #@! TD*
D17*
G04 #@! TO.N,GND*
G36*
X173290001Y-125290000D02*
X97210000Y-125290000D01*
X97210000Y-122445159D01*
X97583000Y-122445159D01*
X97583000Y-123234841D01*
X97885199Y-123964412D01*
X98443588Y-124522801D01*
X99173159Y-124825000D01*
X99962841Y-124825000D01*
X100692412Y-124522801D01*
X101250801Y-123964412D01*
X101403236Y-123596400D01*
X143367508Y-123596400D01*
X143482761Y-124175818D01*
X143810975Y-124667025D01*
X144302182Y-124995239D01*
X144735344Y-125081400D01*
X145027856Y-125081400D01*
X145461018Y-124995239D01*
X145952225Y-124667025D01*
X146151600Y-124368639D01*
X146350975Y-124667025D01*
X146842182Y-124995239D01*
X147275344Y-125081400D01*
X147567856Y-125081400D01*
X148001018Y-124995239D01*
X148492225Y-124667025D01*
X148691600Y-124368639D01*
X148890975Y-124667025D01*
X149382182Y-124995239D01*
X149815344Y-125081400D01*
X150107856Y-125081400D01*
X150541018Y-124995239D01*
X151032225Y-124667025D01*
X151231600Y-124368639D01*
X151430975Y-124667025D01*
X151922182Y-124995239D01*
X152355344Y-125081400D01*
X152647856Y-125081400D01*
X153081018Y-124995239D01*
X153572225Y-124667025D01*
X153771600Y-124368639D01*
X153970975Y-124667025D01*
X154462182Y-124995239D01*
X154895344Y-125081400D01*
X155187856Y-125081400D01*
X155621018Y-124995239D01*
X156112225Y-124667025D01*
X156311600Y-124368639D01*
X156510975Y-124667025D01*
X157002182Y-124995239D01*
X157435344Y-125081400D01*
X157727856Y-125081400D01*
X158161018Y-124995239D01*
X158652225Y-124667025D01*
X158851600Y-124368639D01*
X159050975Y-124667025D01*
X159542182Y-124995239D01*
X159975344Y-125081400D01*
X160267856Y-125081400D01*
X160701018Y-124995239D01*
X161192225Y-124667025D01*
X161391600Y-124368639D01*
X161590975Y-124667025D01*
X162082182Y-124995239D01*
X162515344Y-125081400D01*
X162807856Y-125081400D01*
X163241018Y-124995239D01*
X163732225Y-124667025D01*
X164060439Y-124175818D01*
X164175692Y-123596400D01*
X164060439Y-123016982D01*
X163732225Y-122525775D01*
X163611575Y-122445159D01*
X168957000Y-122445159D01*
X168957000Y-123234841D01*
X169259199Y-123964412D01*
X169817588Y-124522801D01*
X170547159Y-124825000D01*
X171336841Y-124825000D01*
X172066412Y-124522801D01*
X172624801Y-123964412D01*
X172927000Y-123234841D01*
X172927000Y-122445159D01*
X172624801Y-121715588D01*
X172066412Y-121157199D01*
X171336841Y-120855000D01*
X170547159Y-120855000D01*
X169817588Y-121157199D01*
X169259199Y-121715588D01*
X168957000Y-122445159D01*
X163611575Y-122445159D01*
X163433839Y-122326400D01*
X163732225Y-122127025D01*
X164060439Y-121635818D01*
X164175692Y-121056400D01*
X164060439Y-120476982D01*
X163732225Y-119985775D01*
X163241018Y-119657561D01*
X162807856Y-119571400D01*
X162515344Y-119571400D01*
X162082182Y-119657561D01*
X161590975Y-119985775D01*
X161391600Y-120284161D01*
X161192225Y-119985775D01*
X160701018Y-119657561D01*
X160267856Y-119571400D01*
X159975344Y-119571400D01*
X159542182Y-119657561D01*
X159050975Y-119985775D01*
X158851600Y-120284161D01*
X158652225Y-119985775D01*
X158161018Y-119657561D01*
X157727856Y-119571400D01*
X157435344Y-119571400D01*
X157002182Y-119657561D01*
X156510975Y-119985775D01*
X156311600Y-120284161D01*
X156112225Y-119985775D01*
X155621018Y-119657561D01*
X155187856Y-119571400D01*
X154895344Y-119571400D01*
X154462182Y-119657561D01*
X153970975Y-119985775D01*
X153771600Y-120284161D01*
X153572225Y-119985775D01*
X153081018Y-119657561D01*
X152647856Y-119571400D01*
X152355344Y-119571400D01*
X151922182Y-119657561D01*
X151430975Y-119985775D01*
X151231600Y-120284161D01*
X151032225Y-119985775D01*
X150541018Y-119657561D01*
X150107856Y-119571400D01*
X149815344Y-119571400D01*
X149382182Y-119657561D01*
X148890975Y-119985775D01*
X148691600Y-120284161D01*
X148492225Y-119985775D01*
X148001018Y-119657561D01*
X147567856Y-119571400D01*
X147275344Y-119571400D01*
X146842182Y-119657561D01*
X146350975Y-119985775D01*
X146338784Y-120004019D01*
X146329757Y-119958635D01*
X146189409Y-119748591D01*
X145979365Y-119608243D01*
X145731600Y-119558960D01*
X144031600Y-119558960D01*
X143783835Y-119608243D01*
X143573791Y-119748591D01*
X143433443Y-119958635D01*
X143384160Y-120206400D01*
X143384160Y-121906400D01*
X143433443Y-122154165D01*
X143573791Y-122364209D01*
X143783835Y-122504557D01*
X143829219Y-122513584D01*
X143810975Y-122525775D01*
X143482761Y-123016982D01*
X143367508Y-123596400D01*
X101403236Y-123596400D01*
X101553000Y-123234841D01*
X101553000Y-122445159D01*
X101250801Y-121715588D01*
X100692412Y-121157199D01*
X99962841Y-120855000D01*
X99173159Y-120855000D01*
X98443588Y-121157199D01*
X97885199Y-121715588D01*
X97583000Y-122445159D01*
X97210000Y-122445159D01*
X97210000Y-115703350D01*
X137656200Y-115703350D01*
X137656200Y-116393910D01*
X137752873Y-116627299D01*
X137931502Y-116805927D01*
X138164891Y-116902600D01*
X138855450Y-116902600D01*
X139014200Y-116743850D01*
X139014200Y-115544600D01*
X139268200Y-115544600D01*
X139268200Y-116743850D01*
X139426950Y-116902600D01*
X140117509Y-116902600D01*
X140350898Y-116805927D01*
X140529527Y-116627299D01*
X140626200Y-116393910D01*
X140626200Y-115703350D01*
X140467450Y-115544600D01*
X139268200Y-115544600D01*
X139014200Y-115544600D01*
X137814950Y-115544600D01*
X137656200Y-115703350D01*
X97210000Y-115703350D01*
X97210000Y-112877600D01*
X137627108Y-112877600D01*
X137742361Y-113457018D01*
X138070575Y-113948225D01*
X138092233Y-113962696D01*
X137931502Y-114029273D01*
X137752873Y-114207901D01*
X137656200Y-114441290D01*
X137656200Y-115131850D01*
X137814950Y-115290600D01*
X139014200Y-115290600D01*
X139014200Y-115270600D01*
X139268200Y-115270600D01*
X139268200Y-115290600D01*
X140467450Y-115290600D01*
X140626200Y-115131850D01*
X140626200Y-114441290D01*
X140529527Y-114207901D01*
X140350898Y-114029273D01*
X140190167Y-113962696D01*
X140211825Y-113948225D01*
X140540039Y-113457018D01*
X140655292Y-112877600D01*
X143367508Y-112877600D01*
X143482761Y-113457018D01*
X143810975Y-113948225D01*
X143829219Y-113960416D01*
X143783835Y-113969443D01*
X143573791Y-114109791D01*
X143433443Y-114319835D01*
X143384160Y-114567600D01*
X143384160Y-116267600D01*
X143433443Y-116515365D01*
X143573791Y-116725409D01*
X143783835Y-116865757D01*
X144031600Y-116915040D01*
X145731600Y-116915040D01*
X145979365Y-116865757D01*
X146189409Y-116725409D01*
X146329757Y-116515365D01*
X146338784Y-116469981D01*
X146350975Y-116488225D01*
X146842182Y-116816439D01*
X147275344Y-116902600D01*
X147567856Y-116902600D01*
X148001018Y-116816439D01*
X148492225Y-116488225D01*
X148691600Y-116189839D01*
X148890975Y-116488225D01*
X149382182Y-116816439D01*
X149815344Y-116902600D01*
X150107856Y-116902600D01*
X150541018Y-116816439D01*
X151032225Y-116488225D01*
X151231600Y-116189839D01*
X151430975Y-116488225D01*
X151922182Y-116816439D01*
X152355344Y-116902600D01*
X152647856Y-116902600D01*
X153081018Y-116816439D01*
X153572225Y-116488225D01*
X153771600Y-116189839D01*
X153970975Y-116488225D01*
X154462182Y-116816439D01*
X154895344Y-116902600D01*
X155187856Y-116902600D01*
X155621018Y-116816439D01*
X156112225Y-116488225D01*
X156311600Y-116189839D01*
X156510975Y-116488225D01*
X157002182Y-116816439D01*
X157435344Y-116902600D01*
X157727856Y-116902600D01*
X158161018Y-116816439D01*
X158652225Y-116488225D01*
X158851600Y-116189839D01*
X159050975Y-116488225D01*
X159542182Y-116816439D01*
X159975344Y-116902600D01*
X160267856Y-116902600D01*
X160701018Y-116816439D01*
X161192225Y-116488225D01*
X161391600Y-116189839D01*
X161590975Y-116488225D01*
X162082182Y-116816439D01*
X162515344Y-116902600D01*
X162807856Y-116902600D01*
X163241018Y-116816439D01*
X163732225Y-116488225D01*
X164060439Y-115997018D01*
X164175692Y-115417600D01*
X164060439Y-114838182D01*
X164006329Y-114757200D01*
X166354508Y-114757200D01*
X166469761Y-115336618D01*
X166797975Y-115827825D01*
X167289182Y-116156039D01*
X167722344Y-116242200D01*
X168014856Y-116242200D01*
X168448018Y-116156039D01*
X168939225Y-115827825D01*
X168951416Y-115809581D01*
X168960443Y-115854965D01*
X169100791Y-116065009D01*
X169310835Y-116205357D01*
X169558600Y-116254640D01*
X171258600Y-116254640D01*
X171506365Y-116205357D01*
X171716409Y-116065009D01*
X171856757Y-115854965D01*
X171906040Y-115607200D01*
X171906040Y-113907200D01*
X171856757Y-113659435D01*
X171716409Y-113449391D01*
X171506365Y-113309043D01*
X171460981Y-113300016D01*
X171479225Y-113287825D01*
X171807439Y-112796618D01*
X171922692Y-112217200D01*
X171807439Y-111637782D01*
X171479225Y-111146575D01*
X171180839Y-110947200D01*
X171479225Y-110747825D01*
X171807439Y-110256618D01*
X171922692Y-109677200D01*
X171807439Y-109097782D01*
X171479225Y-108606575D01*
X171180839Y-108407200D01*
X171479225Y-108207825D01*
X171807439Y-107716618D01*
X171922692Y-107137200D01*
X171807439Y-106557782D01*
X171479225Y-106066575D01*
X171180839Y-105867200D01*
X171479225Y-105667825D01*
X171807439Y-105176618D01*
X171922692Y-104597200D01*
X171807439Y-104017782D01*
X171479225Y-103526575D01*
X171180839Y-103327200D01*
X171479225Y-103127825D01*
X171807439Y-102636618D01*
X171922692Y-102057200D01*
X171807439Y-101477782D01*
X171479225Y-100986575D01*
X171180839Y-100787200D01*
X171479225Y-100587825D01*
X171807439Y-100096618D01*
X171922692Y-99517200D01*
X171807439Y-98937782D01*
X171479225Y-98446575D01*
X171180839Y-98247200D01*
X171479225Y-98047825D01*
X171807439Y-97556618D01*
X171922692Y-96977200D01*
X171807439Y-96397782D01*
X171479225Y-95906575D01*
X171180839Y-95707200D01*
X171479225Y-95507825D01*
X171807439Y-95016618D01*
X171922692Y-94437200D01*
X171807439Y-93857782D01*
X171479225Y-93366575D01*
X171180839Y-93167200D01*
X171479225Y-92967825D01*
X171807439Y-92476618D01*
X171922692Y-91897200D01*
X171807439Y-91317782D01*
X171479225Y-90826575D01*
X170988018Y-90498361D01*
X170554856Y-90412200D01*
X170262344Y-90412200D01*
X169829182Y-90498361D01*
X169337975Y-90826575D01*
X169137247Y-91126986D01*
X168749958Y-90702017D01*
X168225492Y-90455714D01*
X167995600Y-90576381D01*
X167995600Y-91770200D01*
X168015600Y-91770200D01*
X168015600Y-92024200D01*
X167995600Y-92024200D01*
X167995600Y-94310200D01*
X168015600Y-94310200D01*
X168015600Y-94564200D01*
X167995600Y-94564200D01*
X167995600Y-96850200D01*
X168015600Y-96850200D01*
X168015600Y-97104200D01*
X167995600Y-97104200D01*
X167995600Y-99390200D01*
X168015600Y-99390200D01*
X168015600Y-99644200D01*
X167995600Y-99644200D01*
X167995600Y-101930200D01*
X168015600Y-101930200D01*
X168015600Y-102184200D01*
X167995600Y-102184200D01*
X167995600Y-104470200D01*
X168015600Y-104470200D01*
X168015600Y-104724200D01*
X167995600Y-104724200D01*
X167995600Y-107010200D01*
X168015600Y-107010200D01*
X168015600Y-107264200D01*
X167995600Y-107264200D01*
X167995600Y-109550200D01*
X168015600Y-109550200D01*
X168015600Y-109804200D01*
X167995600Y-109804200D01*
X167995600Y-112090200D01*
X168015600Y-112090200D01*
X168015600Y-112344200D01*
X167995600Y-112344200D01*
X167995600Y-112364200D01*
X167741600Y-112364200D01*
X167741600Y-112344200D01*
X166548445Y-112344200D01*
X166427124Y-112574090D01*
X166596955Y-112984124D01*
X166987242Y-113412383D01*
X167117078Y-113473357D01*
X166797975Y-113686575D01*
X166469761Y-114177782D01*
X166354508Y-114757200D01*
X164006329Y-114757200D01*
X163732225Y-114346975D01*
X163433839Y-114147600D01*
X163732225Y-113948225D01*
X164060439Y-113457018D01*
X164175692Y-112877600D01*
X164060439Y-112298182D01*
X163732225Y-111806975D01*
X163241018Y-111478761D01*
X162807856Y-111392600D01*
X162515344Y-111392600D01*
X162082182Y-111478761D01*
X161590975Y-111806975D01*
X161391600Y-112105361D01*
X161192225Y-111806975D01*
X160701018Y-111478761D01*
X160267856Y-111392600D01*
X159975344Y-111392600D01*
X159542182Y-111478761D01*
X159050975Y-111806975D01*
X158851600Y-112105361D01*
X158652225Y-111806975D01*
X158161018Y-111478761D01*
X157727856Y-111392600D01*
X157435344Y-111392600D01*
X157002182Y-111478761D01*
X156510975Y-111806975D01*
X156311600Y-112105361D01*
X156112225Y-111806975D01*
X155621018Y-111478761D01*
X155187856Y-111392600D01*
X154895344Y-111392600D01*
X154462182Y-111478761D01*
X153970975Y-111806975D01*
X153771600Y-112105361D01*
X153572225Y-111806975D01*
X153081018Y-111478761D01*
X152647856Y-111392600D01*
X152355344Y-111392600D01*
X151922182Y-111478761D01*
X151430975Y-111806975D01*
X151231600Y-112105361D01*
X151032225Y-111806975D01*
X150541018Y-111478761D01*
X150107856Y-111392600D01*
X149815344Y-111392600D01*
X149382182Y-111478761D01*
X148890975Y-111806975D01*
X148691600Y-112105361D01*
X148492225Y-111806975D01*
X148001018Y-111478761D01*
X147567856Y-111392600D01*
X147275344Y-111392600D01*
X146842182Y-111478761D01*
X146350975Y-111806975D01*
X146151600Y-112105361D01*
X145952225Y-111806975D01*
X145461018Y-111478761D01*
X145027856Y-111392600D01*
X144735344Y-111392600D01*
X144302182Y-111478761D01*
X143810975Y-111806975D01*
X143482761Y-112298182D01*
X143367508Y-112877600D01*
X140655292Y-112877600D01*
X140540039Y-112298182D01*
X140211825Y-111806975D01*
X139720618Y-111478761D01*
X139287456Y-111392600D01*
X138994944Y-111392600D01*
X138561782Y-111478761D01*
X138070575Y-111806975D01*
X137742361Y-112298182D01*
X137627108Y-112877600D01*
X97210000Y-112877600D01*
X97210000Y-108777289D01*
X104542500Y-108777289D01*
X104542500Y-109248711D01*
X104722905Y-109684249D01*
X105056251Y-110017595D01*
X105491789Y-110198000D01*
X105963211Y-110198000D01*
X106390528Y-110021000D01*
X114834560Y-110021000D01*
X114834560Y-111721000D01*
X114883843Y-111968765D01*
X115024191Y-112178809D01*
X115234235Y-112319157D01*
X115482000Y-112368440D01*
X117182000Y-112368440D01*
X117429765Y-112319157D01*
X117639809Y-112178809D01*
X117780157Y-111968765D01*
X117789184Y-111923381D01*
X117801375Y-111941625D01*
X118292582Y-112269839D01*
X118725744Y-112356000D01*
X119018256Y-112356000D01*
X119451418Y-112269839D01*
X119942625Y-111941625D01*
X120142000Y-111643239D01*
X120341375Y-111941625D01*
X120832582Y-112269839D01*
X121265744Y-112356000D01*
X121558256Y-112356000D01*
X121991418Y-112269839D01*
X122482625Y-111941625D01*
X122682000Y-111643239D01*
X122881375Y-111941625D01*
X123372582Y-112269839D01*
X123805744Y-112356000D01*
X124098256Y-112356000D01*
X124531418Y-112269839D01*
X125022625Y-111941625D01*
X125222000Y-111643239D01*
X125421375Y-111941625D01*
X125912582Y-112269839D01*
X126345744Y-112356000D01*
X126638256Y-112356000D01*
X127071418Y-112269839D01*
X127562625Y-111941625D01*
X127762000Y-111643239D01*
X127961375Y-111941625D01*
X128452582Y-112269839D01*
X128885744Y-112356000D01*
X129178256Y-112356000D01*
X129611418Y-112269839D01*
X130102625Y-111941625D01*
X130430839Y-111450418D01*
X130546092Y-110871000D01*
X130430839Y-110291582D01*
X130258789Y-110034090D01*
X166427124Y-110034090D01*
X166596955Y-110444124D01*
X166987242Y-110872383D01*
X167146554Y-110947200D01*
X166987242Y-111022017D01*
X166596955Y-111450276D01*
X166427124Y-111860310D01*
X166548445Y-112090200D01*
X167741600Y-112090200D01*
X167741600Y-109804200D01*
X166548445Y-109804200D01*
X166427124Y-110034090D01*
X130258789Y-110034090D01*
X130102625Y-109800375D01*
X129611418Y-109472161D01*
X129178256Y-109386000D01*
X128885744Y-109386000D01*
X128452582Y-109472161D01*
X127961375Y-109800375D01*
X127762000Y-110098761D01*
X127562625Y-109800375D01*
X127071418Y-109472161D01*
X126638256Y-109386000D01*
X126345744Y-109386000D01*
X125912582Y-109472161D01*
X125421375Y-109800375D01*
X125222000Y-110098761D01*
X125022625Y-109800375D01*
X124531418Y-109472161D01*
X124098256Y-109386000D01*
X123805744Y-109386000D01*
X123372582Y-109472161D01*
X122881375Y-109800375D01*
X122682000Y-110098761D01*
X122482625Y-109800375D01*
X121991418Y-109472161D01*
X121558256Y-109386000D01*
X121265744Y-109386000D01*
X120832582Y-109472161D01*
X120341375Y-109800375D01*
X120142000Y-110098761D01*
X119942625Y-109800375D01*
X119451418Y-109472161D01*
X119018256Y-109386000D01*
X118725744Y-109386000D01*
X118292582Y-109472161D01*
X117801375Y-109800375D01*
X117789184Y-109818619D01*
X117780157Y-109773235D01*
X117639809Y-109563191D01*
X117429765Y-109422843D01*
X117182000Y-109373560D01*
X115482000Y-109373560D01*
X115234235Y-109422843D01*
X115024191Y-109563191D01*
X114883843Y-109773235D01*
X114834560Y-110021000D01*
X106390528Y-110021000D01*
X106398749Y-110017595D01*
X106732095Y-109684249D01*
X106912500Y-109248711D01*
X106912500Y-108777289D01*
X106732095Y-108341751D01*
X106398749Y-108008405D01*
X106135104Y-107899200D01*
X137652508Y-107899200D01*
X137767761Y-108478618D01*
X138095975Y-108969825D01*
X138587182Y-109298039D01*
X139020344Y-109384200D01*
X139312856Y-109384200D01*
X139746018Y-109298039D01*
X140237225Y-108969825D01*
X140565439Y-108478618D01*
X140680692Y-107899200D01*
X140565439Y-107319782D01*
X140237225Y-106828575D01*
X140215567Y-106814104D01*
X140376298Y-106747527D01*
X140554927Y-106568899D01*
X140651600Y-106335510D01*
X140651600Y-105644950D01*
X140492850Y-105486200D01*
X139293600Y-105486200D01*
X139293600Y-105506200D01*
X139039600Y-105506200D01*
X139039600Y-105486200D01*
X137840350Y-105486200D01*
X137681600Y-105644950D01*
X137681600Y-106335510D01*
X137778273Y-106568899D01*
X137956902Y-106747527D01*
X138117633Y-106814104D01*
X138095975Y-106828575D01*
X137767761Y-107319782D01*
X137652508Y-107899200D01*
X106135104Y-107899200D01*
X105963211Y-107828000D01*
X105491789Y-107828000D01*
X105056251Y-108008405D01*
X104722905Y-108341751D01*
X104542500Y-108777289D01*
X97210000Y-108777289D01*
X97210000Y-105384600D01*
X146961608Y-105384600D01*
X147076861Y-105964018D01*
X147405075Y-106455225D01*
X147423319Y-106467416D01*
X147377935Y-106476443D01*
X147167891Y-106616791D01*
X147027543Y-106826835D01*
X146978260Y-107074600D01*
X146978260Y-108774600D01*
X147027543Y-109022365D01*
X147167891Y-109232409D01*
X147377935Y-109372757D01*
X147625700Y-109422040D01*
X149325700Y-109422040D01*
X149573465Y-109372757D01*
X149783509Y-109232409D01*
X149923857Y-109022365D01*
X149973140Y-108774600D01*
X149973140Y-107494090D01*
X166427124Y-107494090D01*
X166596955Y-107904124D01*
X166987242Y-108332383D01*
X167146554Y-108407200D01*
X166987242Y-108482017D01*
X166596955Y-108910276D01*
X166427124Y-109320310D01*
X166548445Y-109550200D01*
X167741600Y-109550200D01*
X167741600Y-107264200D01*
X166548445Y-107264200D01*
X166427124Y-107494090D01*
X149973140Y-107494090D01*
X149973140Y-107074600D01*
X149923857Y-106826835D01*
X149783509Y-106616791D01*
X149573465Y-106476443D01*
X149528081Y-106467416D01*
X149546325Y-106455225D01*
X149874539Y-105964018D01*
X149989792Y-105384600D01*
X149904159Y-104954090D01*
X166427124Y-104954090D01*
X166596955Y-105364124D01*
X166987242Y-105792383D01*
X167146554Y-105867200D01*
X166987242Y-105942017D01*
X166596955Y-106370276D01*
X166427124Y-106780310D01*
X166548445Y-107010200D01*
X167741600Y-107010200D01*
X167741600Y-104724200D01*
X166548445Y-104724200D01*
X166427124Y-104954090D01*
X149904159Y-104954090D01*
X149874539Y-104805182D01*
X149546325Y-104313975D01*
X149055118Y-103985761D01*
X148621956Y-103899600D01*
X148329444Y-103899600D01*
X147896282Y-103985761D01*
X147405075Y-104313975D01*
X147076861Y-104805182D01*
X146961608Y-105384600D01*
X97210000Y-105384600D01*
X97210000Y-104382890D01*
X137681600Y-104382890D01*
X137681600Y-105073450D01*
X137840350Y-105232200D01*
X139039600Y-105232200D01*
X139039600Y-104032950D01*
X139293600Y-104032950D01*
X139293600Y-105232200D01*
X140492850Y-105232200D01*
X140651600Y-105073450D01*
X140651600Y-104382890D01*
X140554927Y-104149501D01*
X140376298Y-103970873D01*
X140142909Y-103874200D01*
X139452350Y-103874200D01*
X139293600Y-104032950D01*
X139039600Y-104032950D01*
X138880850Y-103874200D01*
X138190291Y-103874200D01*
X137956902Y-103970873D01*
X137778273Y-104149501D01*
X137681600Y-104382890D01*
X97210000Y-104382890D01*
X97210000Y-98777289D01*
X104542500Y-98777289D01*
X104542500Y-99248711D01*
X104722905Y-99684249D01*
X105056251Y-100017595D01*
X105491789Y-100198000D01*
X105963211Y-100198000D01*
X106398749Y-100017595D01*
X106732095Y-99684249D01*
X106912500Y-99248711D01*
X106912500Y-98777289D01*
X106892830Y-98729800D01*
X114919508Y-98729800D01*
X115034761Y-99309218D01*
X115362975Y-99800425D01*
X115661361Y-99999800D01*
X115362975Y-100199175D01*
X115034761Y-100690382D01*
X114919508Y-101269800D01*
X115034761Y-101849218D01*
X115362975Y-102340425D01*
X115854182Y-102668639D01*
X116287344Y-102754800D01*
X116579856Y-102754800D01*
X117013018Y-102668639D01*
X117504225Y-102340425D01*
X117703600Y-102042039D01*
X117902975Y-102340425D01*
X118394182Y-102668639D01*
X118827344Y-102754800D01*
X119119856Y-102754800D01*
X119553018Y-102668639D01*
X120044225Y-102340425D01*
X120257443Y-102021322D01*
X120318417Y-102151158D01*
X120746676Y-102541445D01*
X121156710Y-102711276D01*
X121386600Y-102589955D01*
X121386600Y-101396800D01*
X121640600Y-101396800D01*
X121640600Y-102589955D01*
X121870490Y-102711276D01*
X122280524Y-102541445D01*
X122708783Y-102151158D01*
X122955086Y-101626692D01*
X122834419Y-101396800D01*
X121640600Y-101396800D01*
X121386600Y-101396800D01*
X121366600Y-101396800D01*
X121366600Y-101142800D01*
X121386600Y-101142800D01*
X121386600Y-101122800D01*
X121640600Y-101122800D01*
X121640600Y-101142800D01*
X122834419Y-101142800D01*
X122955086Y-100912908D01*
X122708783Y-100388442D01*
X122501745Y-100199761D01*
X122611365Y-100177957D01*
X122821409Y-100037609D01*
X122826011Y-100030721D01*
X123174851Y-100379561D01*
X123215943Y-100441059D01*
X123277440Y-100482150D01*
X123277442Y-100482152D01*
X123435593Y-100587825D01*
X123459594Y-100603862D01*
X123674457Y-100646601D01*
X123674460Y-100646601D01*
X123747000Y-100661030D01*
X123819541Y-100646601D01*
X124224986Y-100646601D01*
X124178761Y-100715782D01*
X124063508Y-101295200D01*
X124178761Y-101874618D01*
X124506975Y-102365825D01*
X124998182Y-102694039D01*
X125431344Y-102780200D01*
X125723856Y-102780200D01*
X126157018Y-102694039D01*
X126648225Y-102365825D01*
X126847600Y-102067439D01*
X127046975Y-102365825D01*
X127538182Y-102694039D01*
X127971344Y-102780200D01*
X128263856Y-102780200D01*
X128697018Y-102694039D01*
X129188225Y-102365825D01*
X129387600Y-102067439D01*
X129586975Y-102365825D01*
X130078182Y-102694039D01*
X130511344Y-102780200D01*
X130803856Y-102780200D01*
X131237018Y-102694039D01*
X131728225Y-102365825D01*
X131927600Y-102067439D01*
X132126975Y-102365825D01*
X132618182Y-102694039D01*
X133051344Y-102780200D01*
X133343856Y-102780200D01*
X133777018Y-102694039D01*
X134268225Y-102365825D01*
X134467600Y-102067439D01*
X134666975Y-102365825D01*
X135158182Y-102694039D01*
X135591344Y-102780200D01*
X135883856Y-102780200D01*
X136317018Y-102694039D01*
X136808225Y-102365825D01*
X136920013Y-102198522D01*
X137337800Y-102616310D01*
X137337800Y-102640433D01*
X137473142Y-102967178D01*
X137723222Y-103217258D01*
X138049967Y-103352600D01*
X138403633Y-103352600D01*
X138730378Y-103217258D01*
X138980458Y-102967178D01*
X139115800Y-102640433D01*
X139115800Y-102414090D01*
X166427124Y-102414090D01*
X166596955Y-102824124D01*
X166987242Y-103252383D01*
X167146554Y-103327200D01*
X166987242Y-103402017D01*
X166596955Y-103830276D01*
X166427124Y-104240310D01*
X166548445Y-104470200D01*
X167741600Y-104470200D01*
X167741600Y-102184200D01*
X166548445Y-102184200D01*
X166427124Y-102414090D01*
X139115800Y-102414090D01*
X139115800Y-102286767D01*
X138980458Y-101960022D01*
X138730378Y-101709942D01*
X138403633Y-101574600D01*
X138379510Y-101574600D01*
X137630551Y-100825642D01*
X137589458Y-100764142D01*
X137345807Y-100601339D01*
X137300476Y-100592322D01*
X137526857Y-100441059D01*
X137567950Y-100379559D01*
X137744509Y-100203000D01*
X137768633Y-100203000D01*
X138095378Y-100067658D01*
X138314736Y-99848300D01*
X152134460Y-99848300D01*
X152134460Y-101548300D01*
X152183743Y-101796065D01*
X152324091Y-102006109D01*
X152534135Y-102146457D01*
X152781900Y-102195740D01*
X154481900Y-102195740D01*
X154729665Y-102146457D01*
X154939709Y-102006109D01*
X155080057Y-101796065D01*
X155089084Y-101750681D01*
X155101275Y-101768925D01*
X155592482Y-102097139D01*
X156025644Y-102183300D01*
X156318156Y-102183300D01*
X156751318Y-102097139D01*
X157242525Y-101768925D01*
X157570739Y-101277718D01*
X157685992Y-100698300D01*
X157570739Y-100118882D01*
X157407175Y-99874090D01*
X166427124Y-99874090D01*
X166596955Y-100284124D01*
X166987242Y-100712383D01*
X167146554Y-100787200D01*
X166987242Y-100862017D01*
X166596955Y-101290276D01*
X166427124Y-101700310D01*
X166548445Y-101930200D01*
X167741600Y-101930200D01*
X167741600Y-99644200D01*
X166548445Y-99644200D01*
X166427124Y-99874090D01*
X157407175Y-99874090D01*
X157242525Y-99627675D01*
X156751318Y-99299461D01*
X156318156Y-99213300D01*
X156025644Y-99213300D01*
X155592482Y-99299461D01*
X155101275Y-99627675D01*
X155089084Y-99645919D01*
X155080057Y-99600535D01*
X154939709Y-99390491D01*
X154729665Y-99250143D01*
X154571700Y-99218722D01*
X154571700Y-97622520D01*
X154660600Y-97407895D01*
X154660600Y-97334090D01*
X166427124Y-97334090D01*
X166596955Y-97744124D01*
X166987242Y-98172383D01*
X167146554Y-98247200D01*
X166987242Y-98322017D01*
X166596955Y-98750276D01*
X166427124Y-99160310D01*
X166548445Y-99390200D01*
X167741600Y-99390200D01*
X167741600Y-97104200D01*
X166548445Y-97104200D01*
X166427124Y-97334090D01*
X154660600Y-97334090D01*
X154660600Y-97003705D01*
X154505924Y-96630282D01*
X154220118Y-96344476D01*
X153846695Y-96189800D01*
X153442505Y-96189800D01*
X153069082Y-96344476D01*
X152783276Y-96630282D01*
X152628600Y-97003705D01*
X152628600Y-97407895D01*
X152692101Y-97561201D01*
X152692100Y-99218722D01*
X152534135Y-99250143D01*
X152324091Y-99390491D01*
X152183743Y-99600535D01*
X152134460Y-99848300D01*
X138314736Y-99848300D01*
X138345458Y-99817578D01*
X138480800Y-99490833D01*
X138480800Y-99137167D01*
X138345458Y-98810422D01*
X138095378Y-98560342D01*
X137768633Y-98425000D01*
X137414967Y-98425000D01*
X137235040Y-98499528D01*
X137235040Y-97905200D01*
X137185757Y-97657435D01*
X137045409Y-97447391D01*
X136835365Y-97307043D01*
X136587600Y-97257760D01*
X134887600Y-97257760D01*
X134639835Y-97307043D01*
X134429791Y-97447391D01*
X134289443Y-97657435D01*
X134280416Y-97702819D01*
X134268225Y-97684575D01*
X133777018Y-97356361D01*
X133343856Y-97270200D01*
X133051344Y-97270200D01*
X132618182Y-97356361D01*
X132126975Y-97684575D01*
X131927600Y-97982961D01*
X131728225Y-97684575D01*
X131237018Y-97356361D01*
X130803856Y-97270200D01*
X130511344Y-97270200D01*
X130078182Y-97356361D01*
X129586975Y-97684575D01*
X129387600Y-97982961D01*
X129188225Y-97684575D01*
X128697018Y-97356361D01*
X128263856Y-97270200D01*
X127971344Y-97270200D01*
X127538182Y-97356361D01*
X127046975Y-97684575D01*
X126847600Y-97982961D01*
X126648225Y-97684575D01*
X126157018Y-97356361D01*
X125723856Y-97270200D01*
X125431344Y-97270200D01*
X124998182Y-97356361D01*
X124506975Y-97684575D01*
X124178761Y-98175782D01*
X124063508Y-98755200D01*
X124146693Y-99173401D01*
X124052111Y-99173401D01*
X123138951Y-98260242D01*
X123097858Y-98198742D01*
X123011040Y-98140732D01*
X123011040Y-97879800D01*
X122961757Y-97632035D01*
X122821409Y-97421991D01*
X122611365Y-97281643D01*
X122363600Y-97232360D01*
X120663600Y-97232360D01*
X120415835Y-97281643D01*
X120205791Y-97421991D01*
X120065443Y-97632035D01*
X120056416Y-97677419D01*
X120044225Y-97659175D01*
X119553018Y-97330961D01*
X119119856Y-97244800D01*
X118827344Y-97244800D01*
X118394182Y-97330961D01*
X117902975Y-97659175D01*
X117703600Y-97957561D01*
X117504225Y-97659175D01*
X117013018Y-97330961D01*
X116579856Y-97244800D01*
X116287344Y-97244800D01*
X115854182Y-97330961D01*
X115362975Y-97659175D01*
X115034761Y-98150382D01*
X114919508Y-98729800D01*
X106892830Y-98729800D01*
X106732095Y-98341751D01*
X106398749Y-98008405D01*
X105963211Y-97828000D01*
X105491789Y-97828000D01*
X105056251Y-98008405D01*
X104722905Y-98341751D01*
X104542500Y-98777289D01*
X97210000Y-98777289D01*
X97210000Y-94794090D01*
X166427124Y-94794090D01*
X166596955Y-95204124D01*
X166987242Y-95632383D01*
X167146554Y-95707200D01*
X166987242Y-95782017D01*
X166596955Y-96210276D01*
X166427124Y-96620310D01*
X166548445Y-96850200D01*
X167741600Y-96850200D01*
X167741600Y-94564200D01*
X166548445Y-94564200D01*
X166427124Y-94794090D01*
X97210000Y-94794090D01*
X97210000Y-91897200D01*
X97952308Y-91897200D01*
X98067561Y-92476618D01*
X98395775Y-92967825D01*
X98886982Y-93296039D01*
X99320144Y-93382200D01*
X99612656Y-93382200D01*
X100045818Y-93296039D01*
X100537025Y-92967825D01*
X100736400Y-92669439D01*
X100935775Y-92967825D01*
X101426982Y-93296039D01*
X101860144Y-93382200D01*
X102152656Y-93382200D01*
X102585818Y-93296039D01*
X103077025Y-92967825D01*
X103276400Y-92669439D01*
X103475775Y-92967825D01*
X103966982Y-93296039D01*
X104400144Y-93382200D01*
X104692656Y-93382200D01*
X105125818Y-93296039D01*
X105617025Y-92967825D01*
X105816400Y-92669439D01*
X106015775Y-92967825D01*
X106506982Y-93296039D01*
X106940144Y-93382200D01*
X107232656Y-93382200D01*
X107665818Y-93296039D01*
X108157025Y-92967825D01*
X108356400Y-92669439D01*
X108555775Y-92967825D01*
X109046982Y-93296039D01*
X109480144Y-93382200D01*
X109772656Y-93382200D01*
X110205818Y-93296039D01*
X110697025Y-92967825D01*
X110896400Y-92669439D01*
X111095775Y-92967825D01*
X111586982Y-93296039D01*
X112020144Y-93382200D01*
X112312656Y-93382200D01*
X112745818Y-93296039D01*
X113237025Y-92967825D01*
X113436400Y-92669439D01*
X113635775Y-92967825D01*
X114126982Y-93296039D01*
X114560144Y-93382200D01*
X114852656Y-93382200D01*
X115285818Y-93296039D01*
X115777025Y-92967825D01*
X115789216Y-92949581D01*
X115798243Y-92994965D01*
X115938591Y-93205009D01*
X116148635Y-93345357D01*
X116396400Y-93394640D01*
X118096400Y-93394640D01*
X118344165Y-93345357D01*
X118554209Y-93205009D01*
X118694557Y-92994965D01*
X118743840Y-92747200D01*
X118743840Y-92157550D01*
X130214000Y-92157550D01*
X130214000Y-92848109D01*
X130310673Y-93081498D01*
X130489301Y-93260127D01*
X130722690Y-93356800D01*
X131413250Y-93356800D01*
X131572000Y-93198050D01*
X131572000Y-91998800D01*
X130372750Y-91998800D01*
X130214000Y-92157550D01*
X118743840Y-92157550D01*
X118743840Y-91047200D01*
X118713664Y-90895491D01*
X130214000Y-90895491D01*
X130214000Y-91586050D01*
X130372750Y-91744800D01*
X131572000Y-91744800D01*
X131572000Y-90545550D01*
X131826000Y-90545550D01*
X131826000Y-91744800D01*
X131846000Y-91744800D01*
X131846000Y-91998800D01*
X131826000Y-91998800D01*
X131826000Y-93198050D01*
X131984750Y-93356800D01*
X132675310Y-93356800D01*
X132908699Y-93260127D01*
X133087327Y-93081498D01*
X133153904Y-92920767D01*
X133168375Y-92942425D01*
X133659582Y-93270639D01*
X134092744Y-93356800D01*
X134385256Y-93356800D01*
X134818418Y-93270639D01*
X135309625Y-92942425D01*
X135509000Y-92644039D01*
X135708375Y-92942425D01*
X136199582Y-93270639D01*
X136337297Y-93298032D01*
X136296400Y-93396767D01*
X136296400Y-93750433D01*
X136431742Y-94077178D01*
X136681822Y-94327258D01*
X137008567Y-94462600D01*
X137362233Y-94462600D01*
X137688978Y-94327258D01*
X137706036Y-94310200D01*
X142624660Y-94310200D01*
X142697200Y-94324629D01*
X142769740Y-94310200D01*
X142769744Y-94310200D01*
X142984607Y-94267461D01*
X143228258Y-94104658D01*
X143269351Y-94043158D01*
X144004991Y-93307519D01*
X144252744Y-93356800D01*
X144545256Y-93356800D01*
X144978418Y-93270639D01*
X145469625Y-92942425D01*
X145797839Y-92451218D01*
X145913092Y-91871800D01*
X145797839Y-91292382D01*
X145617042Y-91021800D01*
X146762360Y-91021800D01*
X146762360Y-92721800D01*
X146811643Y-92969565D01*
X146951991Y-93179609D01*
X147162035Y-93319957D01*
X147409800Y-93369240D01*
X149109800Y-93369240D01*
X149357565Y-93319957D01*
X149567609Y-93179609D01*
X149707957Y-92969565D01*
X149716984Y-92924181D01*
X149729175Y-92942425D01*
X150220382Y-93270639D01*
X150653544Y-93356800D01*
X150946056Y-93356800D01*
X151379218Y-93270639D01*
X151870425Y-92942425D01*
X152083643Y-92623322D01*
X152144617Y-92753158D01*
X152572876Y-93143445D01*
X152982910Y-93313276D01*
X153212800Y-93191955D01*
X153212800Y-91998800D01*
X153466800Y-91998800D01*
X153466800Y-93191955D01*
X153696690Y-93313276D01*
X154106724Y-93143445D01*
X154534983Y-92753158D01*
X154769358Y-92254090D01*
X166427124Y-92254090D01*
X166596955Y-92664124D01*
X166987242Y-93092383D01*
X167146554Y-93167200D01*
X166987242Y-93242017D01*
X166596955Y-93670276D01*
X166427124Y-94080310D01*
X166548445Y-94310200D01*
X167741600Y-94310200D01*
X167741600Y-92024200D01*
X166548445Y-92024200D01*
X166427124Y-92254090D01*
X154769358Y-92254090D01*
X154781286Y-92228692D01*
X154660619Y-91998800D01*
X153466800Y-91998800D01*
X153212800Y-91998800D01*
X153192800Y-91998800D01*
X153192800Y-91744800D01*
X153212800Y-91744800D01*
X153212800Y-90551645D01*
X153466800Y-90551645D01*
X153466800Y-91744800D01*
X154660619Y-91744800D01*
X154767952Y-91540310D01*
X166427124Y-91540310D01*
X166548445Y-91770200D01*
X167741600Y-91770200D01*
X167741600Y-90576381D01*
X167511708Y-90455714D01*
X166987242Y-90702017D01*
X166596955Y-91130276D01*
X166427124Y-91540310D01*
X154767952Y-91540310D01*
X154781286Y-91514908D01*
X154534983Y-90990442D01*
X154106724Y-90600155D01*
X153696690Y-90430324D01*
X153466800Y-90551645D01*
X153212800Y-90551645D01*
X152982910Y-90430324D01*
X152572876Y-90600155D01*
X152144617Y-90990442D01*
X152083643Y-91120278D01*
X151870425Y-90801175D01*
X151379218Y-90472961D01*
X150946056Y-90386800D01*
X150653544Y-90386800D01*
X150220382Y-90472961D01*
X149729175Y-90801175D01*
X149716984Y-90819419D01*
X149707957Y-90774035D01*
X149567609Y-90563991D01*
X149357565Y-90423643D01*
X149109800Y-90374360D01*
X147409800Y-90374360D01*
X147162035Y-90423643D01*
X146951991Y-90563991D01*
X146811643Y-90774035D01*
X146762360Y-91021800D01*
X145617042Y-91021800D01*
X145469625Y-90801175D01*
X144978418Y-90472961D01*
X144545256Y-90386800D01*
X144252744Y-90386800D01*
X143819582Y-90472961D01*
X143328375Y-90801175D01*
X143129000Y-91099561D01*
X142929625Y-90801175D01*
X142438418Y-90472961D01*
X142005256Y-90386800D01*
X141712744Y-90386800D01*
X141279582Y-90472961D01*
X140788375Y-90801175D01*
X140589000Y-91099561D01*
X140389625Y-90801175D01*
X139898418Y-90472961D01*
X139465256Y-90386800D01*
X139172744Y-90386800D01*
X138739582Y-90472961D01*
X138248375Y-90801175D01*
X138049000Y-91099561D01*
X137849625Y-90801175D01*
X137358418Y-90472961D01*
X136925256Y-90386800D01*
X136632744Y-90386800D01*
X136199582Y-90472961D01*
X135708375Y-90801175D01*
X135509000Y-91099561D01*
X135309625Y-90801175D01*
X134818418Y-90472961D01*
X134385256Y-90386800D01*
X134092744Y-90386800D01*
X133659582Y-90472961D01*
X133168375Y-90801175D01*
X133153904Y-90822833D01*
X133087327Y-90662102D01*
X132908699Y-90483473D01*
X132675310Y-90386800D01*
X131984750Y-90386800D01*
X131826000Y-90545550D01*
X131572000Y-90545550D01*
X131413250Y-90386800D01*
X130722690Y-90386800D01*
X130489301Y-90483473D01*
X130310673Y-90662102D01*
X130214000Y-90895491D01*
X118713664Y-90895491D01*
X118694557Y-90799435D01*
X118554209Y-90589391D01*
X118344165Y-90449043D01*
X118096400Y-90399760D01*
X116396400Y-90399760D01*
X116148635Y-90449043D01*
X115938591Y-90589391D01*
X115798243Y-90799435D01*
X115789216Y-90844819D01*
X115777025Y-90826575D01*
X115285818Y-90498361D01*
X114852656Y-90412200D01*
X114560144Y-90412200D01*
X114126982Y-90498361D01*
X113635775Y-90826575D01*
X113436400Y-91124961D01*
X113237025Y-90826575D01*
X112745818Y-90498361D01*
X112312656Y-90412200D01*
X112020144Y-90412200D01*
X111586982Y-90498361D01*
X111095775Y-90826575D01*
X110896400Y-91124961D01*
X110697025Y-90826575D01*
X110205818Y-90498361D01*
X109772656Y-90412200D01*
X109480144Y-90412200D01*
X109046982Y-90498361D01*
X108555775Y-90826575D01*
X108356400Y-91124961D01*
X108157025Y-90826575D01*
X107665818Y-90498361D01*
X107232656Y-90412200D01*
X106940144Y-90412200D01*
X106506982Y-90498361D01*
X106015775Y-90826575D01*
X105816400Y-91124961D01*
X105617025Y-90826575D01*
X105125818Y-90498361D01*
X104692656Y-90412200D01*
X104400144Y-90412200D01*
X103966982Y-90498361D01*
X103475775Y-90826575D01*
X103276400Y-91124961D01*
X103077025Y-90826575D01*
X102585818Y-90498361D01*
X102152656Y-90412200D01*
X101860144Y-90412200D01*
X101426982Y-90498361D01*
X100935775Y-90826575D01*
X100736400Y-91124961D01*
X100537025Y-90826575D01*
X100045818Y-90498361D01*
X99612656Y-90412200D01*
X99320144Y-90412200D01*
X98886982Y-90498361D01*
X98395775Y-90826575D01*
X98067561Y-91317782D01*
X97952308Y-91897200D01*
X97210000Y-91897200D01*
X97210000Y-87045800D01*
X103616508Y-87045800D01*
X103731761Y-87625218D01*
X104059975Y-88116425D01*
X104551182Y-88444639D01*
X104984344Y-88530800D01*
X105276856Y-88530800D01*
X105710018Y-88444639D01*
X106201225Y-88116425D01*
X106400600Y-87818039D01*
X106599975Y-88116425D01*
X107091182Y-88444639D01*
X107524344Y-88530800D01*
X107816856Y-88530800D01*
X108250018Y-88444639D01*
X108741225Y-88116425D01*
X108940600Y-87818039D01*
X109139975Y-88116425D01*
X109631182Y-88444639D01*
X109931200Y-88504316D01*
X109931200Y-88543433D01*
X110066542Y-88870178D01*
X110316622Y-89120258D01*
X110643367Y-89255600D01*
X110997033Y-89255600D01*
X111323778Y-89120258D01*
X111573858Y-88870178D01*
X111709200Y-88543433D01*
X111709200Y-88519309D01*
X111945685Y-88282823D01*
X111983676Y-88317445D01*
X112393710Y-88487276D01*
X112623600Y-88365955D01*
X112623600Y-87172800D01*
X112603600Y-87172800D01*
X112603600Y-86918800D01*
X112623600Y-86918800D01*
X112623600Y-86898800D01*
X112877600Y-86898800D01*
X112877600Y-86918800D01*
X112897600Y-86918800D01*
X112897600Y-87172800D01*
X112877600Y-87172800D01*
X112877600Y-88365955D01*
X113107490Y-88487276D01*
X113517524Y-88317445D01*
X113945783Y-87927158D01*
X114006757Y-87797322D01*
X114219975Y-88116425D01*
X114711182Y-88444639D01*
X115144344Y-88530800D01*
X115436856Y-88530800D01*
X115870018Y-88444639D01*
X116361225Y-88116425D01*
X116574443Y-87797322D01*
X116635417Y-87927158D01*
X117063676Y-88317445D01*
X117473710Y-88487276D01*
X117703600Y-88365955D01*
X117703600Y-87172800D01*
X117683600Y-87172800D01*
X117683600Y-86918800D01*
X117703600Y-86918800D01*
X117703600Y-86898800D01*
X117957600Y-86898800D01*
X117957600Y-86918800D01*
X117977600Y-86918800D01*
X117977600Y-87172800D01*
X117957600Y-87172800D01*
X117957600Y-88365955D01*
X118187490Y-88487276D01*
X118597524Y-88317445D01*
X119025783Y-87927158D01*
X119086757Y-87797322D01*
X119299975Y-88116425D01*
X119791182Y-88444639D01*
X120224344Y-88530800D01*
X120516856Y-88530800D01*
X120950018Y-88444639D01*
X121441225Y-88116425D01*
X121640600Y-87818039D01*
X121839975Y-88116425D01*
X122331182Y-88444639D01*
X122764344Y-88530800D01*
X123056856Y-88530800D01*
X123490018Y-88444639D01*
X123981225Y-88116425D01*
X124180600Y-87818039D01*
X124379975Y-88116425D01*
X124871182Y-88444639D01*
X125304344Y-88530800D01*
X125596856Y-88530800D01*
X126030018Y-88444639D01*
X126521225Y-88116425D01*
X126720600Y-87818039D01*
X126919975Y-88116425D01*
X127411182Y-88444639D01*
X127844344Y-88530800D01*
X128136856Y-88530800D01*
X128524001Y-88453792D01*
X128524001Y-88929055D01*
X128509571Y-89001600D01*
X128566739Y-89289006D01*
X128574800Y-89301070D01*
X128574800Y-89381633D01*
X128710142Y-89708378D01*
X128960222Y-89958458D01*
X129286967Y-90093800D01*
X129640633Y-90093800D01*
X129967378Y-89958458D01*
X130217458Y-89708378D01*
X130352800Y-89381633D01*
X130352800Y-89027967D01*
X130217458Y-88701222D01*
X129997200Y-88480964D01*
X129997200Y-88414168D01*
X130173710Y-88487276D01*
X130403600Y-88365955D01*
X130403600Y-87172800D01*
X130383600Y-87172800D01*
X130383600Y-86918800D01*
X130403600Y-86918800D01*
X130403600Y-86898800D01*
X130657600Y-86898800D01*
X130657600Y-86918800D01*
X130677600Y-86918800D01*
X130677600Y-87172800D01*
X130657600Y-87172800D01*
X130657600Y-88365955D01*
X130887490Y-88487276D01*
X131297524Y-88317445D01*
X131725783Y-87927158D01*
X131786757Y-87797322D01*
X131999975Y-88116425D01*
X132491182Y-88444639D01*
X132924344Y-88530800D01*
X133216856Y-88530800D01*
X133650018Y-88444639D01*
X134141225Y-88116425D01*
X134340600Y-87818039D01*
X134539975Y-88116425D01*
X135031182Y-88444639D01*
X135464344Y-88530800D01*
X135756856Y-88530800D01*
X136190018Y-88444639D01*
X136681225Y-88116425D01*
X136894443Y-87797322D01*
X136955417Y-87927158D01*
X137383676Y-88317445D01*
X137793710Y-88487276D01*
X138023600Y-88365955D01*
X138023600Y-87172800D01*
X138003600Y-87172800D01*
X138003600Y-86918800D01*
X138023600Y-86918800D01*
X138023600Y-86898800D01*
X138277600Y-86898800D01*
X138277600Y-86918800D01*
X138297600Y-86918800D01*
X138297600Y-87172800D01*
X138277600Y-87172800D01*
X138277600Y-88365955D01*
X138507490Y-88487276D01*
X138917524Y-88317445D01*
X139345783Y-87927158D01*
X139406757Y-87797322D01*
X139619975Y-88116425D01*
X140111182Y-88444639D01*
X140544344Y-88530800D01*
X140836856Y-88530800D01*
X141270018Y-88444639D01*
X141761225Y-88116425D01*
X141960600Y-87818039D01*
X142159975Y-88116425D01*
X142651182Y-88444639D01*
X143084344Y-88530800D01*
X143376856Y-88530800D01*
X143810018Y-88444639D01*
X144301225Y-88116425D01*
X144500600Y-87818039D01*
X144699975Y-88116425D01*
X145191182Y-88444639D01*
X145624344Y-88530800D01*
X145916856Y-88530800D01*
X146350018Y-88444639D01*
X146841225Y-88116425D01*
X147054443Y-87797322D01*
X147115417Y-87927158D01*
X147543676Y-88317445D01*
X147953710Y-88487276D01*
X148183600Y-88365955D01*
X148183600Y-87172800D01*
X148163600Y-87172800D01*
X148163600Y-86918800D01*
X148183600Y-86918800D01*
X148183600Y-86898800D01*
X148437600Y-86898800D01*
X148437600Y-86918800D01*
X148457600Y-86918800D01*
X148457600Y-87172800D01*
X148437600Y-87172800D01*
X148437600Y-88365955D01*
X148667490Y-88487276D01*
X149077524Y-88317445D01*
X149505783Y-87927158D01*
X149566757Y-87797322D01*
X149779975Y-88116425D01*
X150271182Y-88444639D01*
X150704344Y-88530800D01*
X150996856Y-88530800D01*
X151430018Y-88444639D01*
X151921225Y-88116425D01*
X152120600Y-87818039D01*
X152319975Y-88116425D01*
X152811182Y-88444639D01*
X153244344Y-88530800D01*
X153536856Y-88530800D01*
X153970018Y-88444639D01*
X154461225Y-88116425D01*
X154548639Y-87985600D01*
X155541323Y-87985600D01*
X156987204Y-89431481D01*
X156956508Y-89585800D01*
X157071761Y-90165218D01*
X157399975Y-90656425D01*
X157891182Y-90984639D01*
X158324344Y-91070800D01*
X158616856Y-91070800D01*
X159050018Y-90984639D01*
X159541225Y-90656425D01*
X159869439Y-90165218D01*
X159984692Y-89585800D01*
X159869439Y-89006382D01*
X159541225Y-88515175D01*
X159242839Y-88315800D01*
X159541225Y-88116425D01*
X159869439Y-87625218D01*
X159984692Y-87045800D01*
X160690308Y-87045800D01*
X160805561Y-87625218D01*
X161133775Y-88116425D01*
X161432161Y-88315800D01*
X161133775Y-88515175D01*
X160805561Y-89006382D01*
X160690308Y-89585800D01*
X160805561Y-90165218D01*
X161133775Y-90656425D01*
X161624982Y-90984639D01*
X162058144Y-91070800D01*
X162350656Y-91070800D01*
X162783818Y-90984639D01*
X163275025Y-90656425D01*
X163603239Y-90165218D01*
X163718492Y-89585800D01*
X163603239Y-89006382D01*
X163275025Y-88515175D01*
X162976639Y-88315800D01*
X163275025Y-88116425D01*
X163603239Y-87625218D01*
X163718492Y-87045800D01*
X163603239Y-86466382D01*
X163275025Y-85975175D01*
X163256781Y-85962984D01*
X163302165Y-85953957D01*
X163512209Y-85813609D01*
X163652557Y-85603565D01*
X163701840Y-85355800D01*
X163701840Y-83655800D01*
X163652557Y-83408035D01*
X163512209Y-83197991D01*
X163302165Y-83057643D01*
X163054400Y-83008360D01*
X161354400Y-83008360D01*
X161106635Y-83057643D01*
X160896591Y-83197991D01*
X160756243Y-83408035D01*
X160706960Y-83655800D01*
X160706960Y-85355800D01*
X160756243Y-85603565D01*
X160896591Y-85813609D01*
X161106635Y-85953957D01*
X161152019Y-85962984D01*
X161133775Y-85975175D01*
X160805561Y-86466382D01*
X160690308Y-87045800D01*
X159984692Y-87045800D01*
X159869439Y-86466382D01*
X159541225Y-85975175D01*
X159522981Y-85962984D01*
X159568365Y-85953957D01*
X159778409Y-85813609D01*
X159918757Y-85603565D01*
X159968040Y-85355800D01*
X159968040Y-83655800D01*
X159918757Y-83408035D01*
X159778409Y-83197991D01*
X159568365Y-83057643D01*
X159320600Y-83008360D01*
X157620600Y-83008360D01*
X157372835Y-83057643D01*
X157162791Y-83197991D01*
X157022443Y-83408035D01*
X156973160Y-83655800D01*
X156973160Y-85355800D01*
X157022443Y-85603565D01*
X157162791Y-85813609D01*
X157372835Y-85953957D01*
X157418219Y-85962984D01*
X157399975Y-85975175D01*
X157071761Y-86466382D01*
X157006807Y-86792930D01*
X156660588Y-86446711D01*
X156608157Y-86368243D01*
X156520629Y-86309758D01*
X156364696Y-86205567D01*
X156297291Y-86160528D01*
X156023159Y-86106000D01*
X156023154Y-86106000D01*
X155930600Y-86087590D01*
X155838046Y-86106000D01*
X154548639Y-86106000D01*
X154461225Y-85975175D01*
X154442981Y-85962984D01*
X154488365Y-85953957D01*
X154698409Y-85813609D01*
X154838757Y-85603565D01*
X154888040Y-85355800D01*
X154888040Y-83655800D01*
X154838757Y-83408035D01*
X154698409Y-83197991D01*
X154488365Y-83057643D01*
X154240600Y-83008360D01*
X152540600Y-83008360D01*
X152292835Y-83057643D01*
X152082791Y-83197991D01*
X151942443Y-83408035D01*
X151933416Y-83453419D01*
X151921225Y-83435175D01*
X151430018Y-83106961D01*
X150996856Y-83020800D01*
X150704344Y-83020800D01*
X150271182Y-83106961D01*
X149779975Y-83435175D01*
X149580600Y-83733561D01*
X149381225Y-83435175D01*
X148890018Y-83106961D01*
X148456856Y-83020800D01*
X148164344Y-83020800D01*
X147731182Y-83106961D01*
X147239975Y-83435175D01*
X147040600Y-83733561D01*
X146841225Y-83435175D01*
X146350018Y-83106961D01*
X145916856Y-83020800D01*
X145624344Y-83020800D01*
X145191182Y-83106961D01*
X144699975Y-83435175D01*
X144486757Y-83754278D01*
X144425783Y-83624442D01*
X143997524Y-83234155D01*
X143587490Y-83064324D01*
X143357600Y-83185645D01*
X143357600Y-84378800D01*
X143377600Y-84378800D01*
X143377600Y-84632800D01*
X143357600Y-84632800D01*
X143357600Y-84652800D01*
X143103600Y-84652800D01*
X143103600Y-84632800D01*
X143083600Y-84632800D01*
X143083600Y-84378800D01*
X143103600Y-84378800D01*
X143103600Y-83185645D01*
X142873710Y-83064324D01*
X142722603Y-83126911D01*
X142722603Y-83109766D01*
X142587261Y-82783021D01*
X142467399Y-82663159D01*
X168957000Y-82663159D01*
X168957000Y-83452841D01*
X169259199Y-84182412D01*
X169817588Y-84740801D01*
X170547159Y-85043000D01*
X171336841Y-85043000D01*
X172066412Y-84740801D01*
X172624801Y-84182412D01*
X172927000Y-83452841D01*
X172927000Y-82663159D01*
X172624801Y-81933588D01*
X172066412Y-81375199D01*
X171336841Y-81073000D01*
X170547159Y-81073000D01*
X169817588Y-81375199D01*
X169259199Y-81933588D01*
X168957000Y-82663159D01*
X142467399Y-82663159D01*
X142337181Y-82532941D01*
X142010436Y-82397599D01*
X141656770Y-82397599D01*
X141330025Y-82532941D01*
X141312967Y-82549999D01*
X140255141Y-82549999D01*
X140182600Y-82535570D01*
X140110060Y-82549999D01*
X140110057Y-82549999D01*
X139927203Y-82586371D01*
X139895194Y-82592738D01*
X139713042Y-82714448D01*
X139713040Y-82714450D01*
X139678874Y-82737279D01*
X139666258Y-82706822D01*
X139416178Y-82456742D01*
X139089433Y-82321400D01*
X138735767Y-82321400D01*
X138409022Y-82456742D01*
X138369894Y-82495870D01*
X138265983Y-82516539D01*
X138139878Y-82600800D01*
X127402740Y-82600800D01*
X127330200Y-82586371D01*
X127257659Y-82600800D01*
X127257656Y-82600800D01*
X127069388Y-82638249D01*
X127042793Y-82643539D01*
X126860641Y-82765249D01*
X126860639Y-82765251D01*
X126799142Y-82806342D01*
X126758050Y-82867840D01*
X126323099Y-83302792D01*
X126030018Y-83106961D01*
X125596856Y-83020800D01*
X125304344Y-83020800D01*
X124871182Y-83106961D01*
X124379975Y-83435175D01*
X124166757Y-83754278D01*
X124105783Y-83624442D01*
X123677524Y-83234155D01*
X123267490Y-83064324D01*
X123037600Y-83185645D01*
X123037600Y-84378800D01*
X123057600Y-84378800D01*
X123057600Y-84632800D01*
X123037600Y-84632800D01*
X123037600Y-84652800D01*
X122783600Y-84652800D01*
X122783600Y-84632800D01*
X122763600Y-84632800D01*
X122763600Y-84378800D01*
X122783600Y-84378800D01*
X122783600Y-83185645D01*
X122553710Y-83064324D01*
X122143676Y-83234155D01*
X121715417Y-83624442D01*
X121654443Y-83754278D01*
X121441225Y-83435175D01*
X120950018Y-83106961D01*
X120516856Y-83020800D01*
X120224344Y-83020800D01*
X119791182Y-83106961D01*
X119299975Y-83435175D01*
X119100600Y-83733561D01*
X118901225Y-83435175D01*
X118410018Y-83106961D01*
X117976856Y-83020800D01*
X117684344Y-83020800D01*
X117251182Y-83106961D01*
X116759975Y-83435175D01*
X116560600Y-83733561D01*
X116361225Y-83435175D01*
X115870018Y-83106961D01*
X115436856Y-83020800D01*
X115144344Y-83020800D01*
X114711182Y-83106961D01*
X114219975Y-83435175D01*
X114020600Y-83733561D01*
X113821225Y-83435175D01*
X113330018Y-83106961D01*
X112896856Y-83020800D01*
X112604344Y-83020800D01*
X112171182Y-83106961D01*
X111679975Y-83435175D01*
X111480600Y-83733561D01*
X111281225Y-83435175D01*
X110790018Y-83106961D01*
X110356856Y-83020800D01*
X110064344Y-83020800D01*
X109631182Y-83106961D01*
X109139975Y-83435175D01*
X108940600Y-83733561D01*
X108741225Y-83435175D01*
X108250018Y-83106961D01*
X107816856Y-83020800D01*
X107524344Y-83020800D01*
X107091182Y-83106961D01*
X106599975Y-83435175D01*
X106386757Y-83754278D01*
X106325783Y-83624442D01*
X105897524Y-83234155D01*
X105487490Y-83064324D01*
X105257600Y-83185645D01*
X105257600Y-84378800D01*
X105277600Y-84378800D01*
X105277600Y-84632800D01*
X105257600Y-84632800D01*
X105257600Y-84652800D01*
X105003600Y-84652800D01*
X105003600Y-84632800D01*
X103809781Y-84632800D01*
X103689114Y-84862692D01*
X103935417Y-85387158D01*
X104360386Y-85774447D01*
X104059975Y-85975175D01*
X103731761Y-86466382D01*
X103616508Y-87045800D01*
X97210000Y-87045800D01*
X97210000Y-82663159D01*
X97583000Y-82663159D01*
X97583000Y-83452841D01*
X97885199Y-84182412D01*
X98443588Y-84740801D01*
X99173159Y-85043000D01*
X99962841Y-85043000D01*
X100692412Y-84740801D01*
X101250801Y-84182412D01*
X101264678Y-84148908D01*
X103689114Y-84148908D01*
X103809781Y-84378800D01*
X105003600Y-84378800D01*
X105003600Y-83185645D01*
X104773710Y-83064324D01*
X104363676Y-83234155D01*
X103935417Y-83624442D01*
X103689114Y-84148908D01*
X101264678Y-84148908D01*
X101553000Y-83452841D01*
X101553000Y-82663159D01*
X101250801Y-81933588D01*
X100692412Y-81375199D01*
X99962841Y-81073000D01*
X99173159Y-81073000D01*
X98443588Y-81375199D01*
X97885199Y-81933588D01*
X97583000Y-82663159D01*
X97210000Y-82663159D01*
X97210000Y-80710000D01*
X173290000Y-80710000D01*
X173290001Y-125290000D01*
X173290001Y-125290000D01*
G37*
X173290001Y-125290000D02*
X97210000Y-125290000D01*
X97210000Y-122445159D01*
X97583000Y-122445159D01*
X97583000Y-123234841D01*
X97885199Y-123964412D01*
X98443588Y-124522801D01*
X99173159Y-124825000D01*
X99962841Y-124825000D01*
X100692412Y-124522801D01*
X101250801Y-123964412D01*
X101403236Y-123596400D01*
X143367508Y-123596400D01*
X143482761Y-124175818D01*
X143810975Y-124667025D01*
X144302182Y-124995239D01*
X144735344Y-125081400D01*
X145027856Y-125081400D01*
X145461018Y-124995239D01*
X145952225Y-124667025D01*
X146151600Y-124368639D01*
X146350975Y-124667025D01*
X146842182Y-124995239D01*
X147275344Y-125081400D01*
X147567856Y-125081400D01*
X148001018Y-124995239D01*
X148492225Y-124667025D01*
X148691600Y-124368639D01*
X148890975Y-124667025D01*
X149382182Y-124995239D01*
X149815344Y-125081400D01*
X150107856Y-125081400D01*
X150541018Y-124995239D01*
X151032225Y-124667025D01*
X151231600Y-124368639D01*
X151430975Y-124667025D01*
X151922182Y-124995239D01*
X152355344Y-125081400D01*
X152647856Y-125081400D01*
X153081018Y-124995239D01*
X153572225Y-124667025D01*
X153771600Y-124368639D01*
X153970975Y-124667025D01*
X154462182Y-124995239D01*
X154895344Y-125081400D01*
X155187856Y-125081400D01*
X155621018Y-124995239D01*
X156112225Y-124667025D01*
X156311600Y-124368639D01*
X156510975Y-124667025D01*
X157002182Y-124995239D01*
X157435344Y-125081400D01*
X157727856Y-125081400D01*
X158161018Y-124995239D01*
X158652225Y-124667025D01*
X158851600Y-124368639D01*
X159050975Y-124667025D01*
X159542182Y-124995239D01*
X159975344Y-125081400D01*
X160267856Y-125081400D01*
X160701018Y-124995239D01*
X161192225Y-124667025D01*
X161391600Y-124368639D01*
X161590975Y-124667025D01*
X162082182Y-124995239D01*
X162515344Y-125081400D01*
X162807856Y-125081400D01*
X163241018Y-124995239D01*
X163732225Y-124667025D01*
X164060439Y-124175818D01*
X164175692Y-123596400D01*
X164060439Y-123016982D01*
X163732225Y-122525775D01*
X163611575Y-122445159D01*
X168957000Y-122445159D01*
X168957000Y-123234841D01*
X169259199Y-123964412D01*
X169817588Y-124522801D01*
X170547159Y-124825000D01*
X171336841Y-124825000D01*
X172066412Y-124522801D01*
X172624801Y-123964412D01*
X172927000Y-123234841D01*
X172927000Y-122445159D01*
X172624801Y-121715588D01*
X172066412Y-121157199D01*
X171336841Y-120855000D01*
X170547159Y-120855000D01*
X169817588Y-121157199D01*
X169259199Y-121715588D01*
X168957000Y-122445159D01*
X163611575Y-122445159D01*
X163433839Y-122326400D01*
X163732225Y-122127025D01*
X164060439Y-121635818D01*
X164175692Y-121056400D01*
X164060439Y-120476982D01*
X163732225Y-119985775D01*
X163241018Y-119657561D01*
X162807856Y-119571400D01*
X162515344Y-119571400D01*
X162082182Y-119657561D01*
X161590975Y-119985775D01*
X161391600Y-120284161D01*
X161192225Y-119985775D01*
X160701018Y-119657561D01*
X160267856Y-119571400D01*
X159975344Y-119571400D01*
X159542182Y-119657561D01*
X159050975Y-119985775D01*
X158851600Y-120284161D01*
X158652225Y-119985775D01*
X158161018Y-119657561D01*
X157727856Y-119571400D01*
X157435344Y-119571400D01*
X157002182Y-119657561D01*
X156510975Y-119985775D01*
X156311600Y-120284161D01*
X156112225Y-119985775D01*
X155621018Y-119657561D01*
X155187856Y-119571400D01*
X154895344Y-119571400D01*
X154462182Y-119657561D01*
X153970975Y-119985775D01*
X153771600Y-120284161D01*
X153572225Y-119985775D01*
X153081018Y-119657561D01*
X152647856Y-119571400D01*
X152355344Y-119571400D01*
X151922182Y-119657561D01*
X151430975Y-119985775D01*
X151231600Y-120284161D01*
X151032225Y-119985775D01*
X150541018Y-119657561D01*
X150107856Y-119571400D01*
X149815344Y-119571400D01*
X149382182Y-119657561D01*
X148890975Y-119985775D01*
X148691600Y-120284161D01*
X148492225Y-119985775D01*
X148001018Y-119657561D01*
X147567856Y-119571400D01*
X147275344Y-119571400D01*
X146842182Y-119657561D01*
X146350975Y-119985775D01*
X146338784Y-120004019D01*
X146329757Y-119958635D01*
X146189409Y-119748591D01*
X145979365Y-119608243D01*
X145731600Y-119558960D01*
X144031600Y-119558960D01*
X143783835Y-119608243D01*
X143573791Y-119748591D01*
X143433443Y-119958635D01*
X143384160Y-120206400D01*
X143384160Y-121906400D01*
X143433443Y-122154165D01*
X143573791Y-122364209D01*
X143783835Y-122504557D01*
X143829219Y-122513584D01*
X143810975Y-122525775D01*
X143482761Y-123016982D01*
X143367508Y-123596400D01*
X101403236Y-123596400D01*
X101553000Y-123234841D01*
X101553000Y-122445159D01*
X101250801Y-121715588D01*
X100692412Y-121157199D01*
X99962841Y-120855000D01*
X99173159Y-120855000D01*
X98443588Y-121157199D01*
X97885199Y-121715588D01*
X97583000Y-122445159D01*
X97210000Y-122445159D01*
X97210000Y-115703350D01*
X137656200Y-115703350D01*
X137656200Y-116393910D01*
X137752873Y-116627299D01*
X137931502Y-116805927D01*
X138164891Y-116902600D01*
X138855450Y-116902600D01*
X139014200Y-116743850D01*
X139014200Y-115544600D01*
X139268200Y-115544600D01*
X139268200Y-116743850D01*
X139426950Y-116902600D01*
X140117509Y-116902600D01*
X140350898Y-116805927D01*
X140529527Y-116627299D01*
X140626200Y-116393910D01*
X140626200Y-115703350D01*
X140467450Y-115544600D01*
X139268200Y-115544600D01*
X139014200Y-115544600D01*
X137814950Y-115544600D01*
X137656200Y-115703350D01*
X97210000Y-115703350D01*
X97210000Y-112877600D01*
X137627108Y-112877600D01*
X137742361Y-113457018D01*
X138070575Y-113948225D01*
X138092233Y-113962696D01*
X137931502Y-114029273D01*
X137752873Y-114207901D01*
X137656200Y-114441290D01*
X137656200Y-115131850D01*
X137814950Y-115290600D01*
X139014200Y-115290600D01*
X139014200Y-115270600D01*
X139268200Y-115270600D01*
X139268200Y-115290600D01*
X140467450Y-115290600D01*
X140626200Y-115131850D01*
X140626200Y-114441290D01*
X140529527Y-114207901D01*
X140350898Y-114029273D01*
X140190167Y-113962696D01*
X140211825Y-113948225D01*
X140540039Y-113457018D01*
X140655292Y-112877600D01*
X143367508Y-112877600D01*
X143482761Y-113457018D01*
X143810975Y-113948225D01*
X143829219Y-113960416D01*
X143783835Y-113969443D01*
X143573791Y-114109791D01*
X143433443Y-114319835D01*
X143384160Y-114567600D01*
X143384160Y-116267600D01*
X143433443Y-116515365D01*
X143573791Y-116725409D01*
X143783835Y-116865757D01*
X144031600Y-116915040D01*
X145731600Y-116915040D01*
X145979365Y-116865757D01*
X146189409Y-116725409D01*
X146329757Y-116515365D01*
X146338784Y-116469981D01*
X146350975Y-116488225D01*
X146842182Y-116816439D01*
X147275344Y-116902600D01*
X147567856Y-116902600D01*
X148001018Y-116816439D01*
X148492225Y-116488225D01*
X148691600Y-116189839D01*
X148890975Y-116488225D01*
X149382182Y-116816439D01*
X149815344Y-116902600D01*
X150107856Y-116902600D01*
X150541018Y-116816439D01*
X151032225Y-116488225D01*
X151231600Y-116189839D01*
X151430975Y-116488225D01*
X151922182Y-116816439D01*
X152355344Y-116902600D01*
X152647856Y-116902600D01*
X153081018Y-116816439D01*
X153572225Y-116488225D01*
X153771600Y-116189839D01*
X153970975Y-116488225D01*
X154462182Y-116816439D01*
X154895344Y-116902600D01*
X155187856Y-116902600D01*
X155621018Y-116816439D01*
X156112225Y-116488225D01*
X156311600Y-116189839D01*
X156510975Y-116488225D01*
X157002182Y-116816439D01*
X157435344Y-116902600D01*
X157727856Y-116902600D01*
X158161018Y-116816439D01*
X158652225Y-116488225D01*
X158851600Y-116189839D01*
X159050975Y-116488225D01*
X159542182Y-116816439D01*
X159975344Y-116902600D01*
X160267856Y-116902600D01*
X160701018Y-116816439D01*
X161192225Y-116488225D01*
X161391600Y-116189839D01*
X161590975Y-116488225D01*
X162082182Y-116816439D01*
X162515344Y-116902600D01*
X162807856Y-116902600D01*
X163241018Y-116816439D01*
X163732225Y-116488225D01*
X164060439Y-115997018D01*
X164175692Y-115417600D01*
X164060439Y-114838182D01*
X164006329Y-114757200D01*
X166354508Y-114757200D01*
X166469761Y-115336618D01*
X166797975Y-115827825D01*
X167289182Y-116156039D01*
X167722344Y-116242200D01*
X168014856Y-116242200D01*
X168448018Y-116156039D01*
X168939225Y-115827825D01*
X168951416Y-115809581D01*
X168960443Y-115854965D01*
X169100791Y-116065009D01*
X169310835Y-116205357D01*
X169558600Y-116254640D01*
X171258600Y-116254640D01*
X171506365Y-116205357D01*
X171716409Y-116065009D01*
X171856757Y-115854965D01*
X171906040Y-115607200D01*
X171906040Y-113907200D01*
X171856757Y-113659435D01*
X171716409Y-113449391D01*
X171506365Y-113309043D01*
X171460981Y-113300016D01*
X171479225Y-113287825D01*
X171807439Y-112796618D01*
X171922692Y-112217200D01*
X171807439Y-111637782D01*
X171479225Y-111146575D01*
X171180839Y-110947200D01*
X171479225Y-110747825D01*
X171807439Y-110256618D01*
X171922692Y-109677200D01*
X171807439Y-109097782D01*
X171479225Y-108606575D01*
X171180839Y-108407200D01*
X171479225Y-108207825D01*
X171807439Y-107716618D01*
X171922692Y-107137200D01*
X171807439Y-106557782D01*
X171479225Y-106066575D01*
X171180839Y-105867200D01*
X171479225Y-105667825D01*
X171807439Y-105176618D01*
X171922692Y-104597200D01*
X171807439Y-104017782D01*
X171479225Y-103526575D01*
X171180839Y-103327200D01*
X171479225Y-103127825D01*
X171807439Y-102636618D01*
X171922692Y-102057200D01*
X171807439Y-101477782D01*
X171479225Y-100986575D01*
X171180839Y-100787200D01*
X171479225Y-100587825D01*
X171807439Y-100096618D01*
X171922692Y-99517200D01*
X171807439Y-98937782D01*
X171479225Y-98446575D01*
X171180839Y-98247200D01*
X171479225Y-98047825D01*
X171807439Y-97556618D01*
X171922692Y-96977200D01*
X171807439Y-96397782D01*
X171479225Y-95906575D01*
X171180839Y-95707200D01*
X171479225Y-95507825D01*
X171807439Y-95016618D01*
X171922692Y-94437200D01*
X171807439Y-93857782D01*
X171479225Y-93366575D01*
X171180839Y-93167200D01*
X171479225Y-92967825D01*
X171807439Y-92476618D01*
X171922692Y-91897200D01*
X171807439Y-91317782D01*
X171479225Y-90826575D01*
X170988018Y-90498361D01*
X170554856Y-90412200D01*
X170262344Y-90412200D01*
X169829182Y-90498361D01*
X169337975Y-90826575D01*
X169137247Y-91126986D01*
X168749958Y-90702017D01*
X168225492Y-90455714D01*
X167995600Y-90576381D01*
X167995600Y-91770200D01*
X168015600Y-91770200D01*
X168015600Y-92024200D01*
X167995600Y-92024200D01*
X167995600Y-94310200D01*
X168015600Y-94310200D01*
X168015600Y-94564200D01*
X167995600Y-94564200D01*
X167995600Y-96850200D01*
X168015600Y-96850200D01*
X168015600Y-97104200D01*
X167995600Y-97104200D01*
X167995600Y-99390200D01*
X168015600Y-99390200D01*
X168015600Y-99644200D01*
X167995600Y-99644200D01*
X167995600Y-101930200D01*
X168015600Y-101930200D01*
X168015600Y-102184200D01*
X167995600Y-102184200D01*
X167995600Y-104470200D01*
X168015600Y-104470200D01*
X168015600Y-104724200D01*
X167995600Y-104724200D01*
X167995600Y-107010200D01*
X168015600Y-107010200D01*
X168015600Y-107264200D01*
X167995600Y-107264200D01*
X167995600Y-109550200D01*
X168015600Y-109550200D01*
X168015600Y-109804200D01*
X167995600Y-109804200D01*
X167995600Y-112090200D01*
X168015600Y-112090200D01*
X168015600Y-112344200D01*
X167995600Y-112344200D01*
X167995600Y-112364200D01*
X167741600Y-112364200D01*
X167741600Y-112344200D01*
X166548445Y-112344200D01*
X166427124Y-112574090D01*
X166596955Y-112984124D01*
X166987242Y-113412383D01*
X167117078Y-113473357D01*
X166797975Y-113686575D01*
X166469761Y-114177782D01*
X166354508Y-114757200D01*
X164006329Y-114757200D01*
X163732225Y-114346975D01*
X163433839Y-114147600D01*
X163732225Y-113948225D01*
X164060439Y-113457018D01*
X164175692Y-112877600D01*
X164060439Y-112298182D01*
X163732225Y-111806975D01*
X163241018Y-111478761D01*
X162807856Y-111392600D01*
X162515344Y-111392600D01*
X162082182Y-111478761D01*
X161590975Y-111806975D01*
X161391600Y-112105361D01*
X161192225Y-111806975D01*
X160701018Y-111478761D01*
X160267856Y-111392600D01*
X159975344Y-111392600D01*
X159542182Y-111478761D01*
X159050975Y-111806975D01*
X158851600Y-112105361D01*
X158652225Y-111806975D01*
X158161018Y-111478761D01*
X157727856Y-111392600D01*
X157435344Y-111392600D01*
X157002182Y-111478761D01*
X156510975Y-111806975D01*
X156311600Y-112105361D01*
X156112225Y-111806975D01*
X155621018Y-111478761D01*
X155187856Y-111392600D01*
X154895344Y-111392600D01*
X154462182Y-111478761D01*
X153970975Y-111806975D01*
X153771600Y-112105361D01*
X153572225Y-111806975D01*
X153081018Y-111478761D01*
X152647856Y-111392600D01*
X152355344Y-111392600D01*
X151922182Y-111478761D01*
X151430975Y-111806975D01*
X151231600Y-112105361D01*
X151032225Y-111806975D01*
X150541018Y-111478761D01*
X150107856Y-111392600D01*
X149815344Y-111392600D01*
X149382182Y-111478761D01*
X148890975Y-111806975D01*
X148691600Y-112105361D01*
X148492225Y-111806975D01*
X148001018Y-111478761D01*
X147567856Y-111392600D01*
X147275344Y-111392600D01*
X146842182Y-111478761D01*
X146350975Y-111806975D01*
X146151600Y-112105361D01*
X145952225Y-111806975D01*
X145461018Y-111478761D01*
X145027856Y-111392600D01*
X144735344Y-111392600D01*
X144302182Y-111478761D01*
X143810975Y-111806975D01*
X143482761Y-112298182D01*
X143367508Y-112877600D01*
X140655292Y-112877600D01*
X140540039Y-112298182D01*
X140211825Y-111806975D01*
X139720618Y-111478761D01*
X139287456Y-111392600D01*
X138994944Y-111392600D01*
X138561782Y-111478761D01*
X138070575Y-111806975D01*
X137742361Y-112298182D01*
X137627108Y-112877600D01*
X97210000Y-112877600D01*
X97210000Y-108777289D01*
X104542500Y-108777289D01*
X104542500Y-109248711D01*
X104722905Y-109684249D01*
X105056251Y-110017595D01*
X105491789Y-110198000D01*
X105963211Y-110198000D01*
X106390528Y-110021000D01*
X114834560Y-110021000D01*
X114834560Y-111721000D01*
X114883843Y-111968765D01*
X115024191Y-112178809D01*
X115234235Y-112319157D01*
X115482000Y-112368440D01*
X117182000Y-112368440D01*
X117429765Y-112319157D01*
X117639809Y-112178809D01*
X117780157Y-111968765D01*
X117789184Y-111923381D01*
X117801375Y-111941625D01*
X118292582Y-112269839D01*
X118725744Y-112356000D01*
X119018256Y-112356000D01*
X119451418Y-112269839D01*
X119942625Y-111941625D01*
X120142000Y-111643239D01*
X120341375Y-111941625D01*
X120832582Y-112269839D01*
X121265744Y-112356000D01*
X121558256Y-112356000D01*
X121991418Y-112269839D01*
X122482625Y-111941625D01*
X122682000Y-111643239D01*
X122881375Y-111941625D01*
X123372582Y-112269839D01*
X123805744Y-112356000D01*
X124098256Y-112356000D01*
X124531418Y-112269839D01*
X125022625Y-111941625D01*
X125222000Y-111643239D01*
X125421375Y-111941625D01*
X125912582Y-112269839D01*
X126345744Y-112356000D01*
X126638256Y-112356000D01*
X127071418Y-112269839D01*
X127562625Y-111941625D01*
X127762000Y-111643239D01*
X127961375Y-111941625D01*
X128452582Y-112269839D01*
X128885744Y-112356000D01*
X129178256Y-112356000D01*
X129611418Y-112269839D01*
X130102625Y-111941625D01*
X130430839Y-111450418D01*
X130546092Y-110871000D01*
X130430839Y-110291582D01*
X130258789Y-110034090D01*
X166427124Y-110034090D01*
X166596955Y-110444124D01*
X166987242Y-110872383D01*
X167146554Y-110947200D01*
X166987242Y-111022017D01*
X166596955Y-111450276D01*
X166427124Y-111860310D01*
X166548445Y-112090200D01*
X167741600Y-112090200D01*
X167741600Y-109804200D01*
X166548445Y-109804200D01*
X166427124Y-110034090D01*
X130258789Y-110034090D01*
X130102625Y-109800375D01*
X129611418Y-109472161D01*
X129178256Y-109386000D01*
X128885744Y-109386000D01*
X128452582Y-109472161D01*
X127961375Y-109800375D01*
X127762000Y-110098761D01*
X127562625Y-109800375D01*
X127071418Y-109472161D01*
X126638256Y-109386000D01*
X126345744Y-109386000D01*
X125912582Y-109472161D01*
X125421375Y-109800375D01*
X125222000Y-110098761D01*
X125022625Y-109800375D01*
X124531418Y-109472161D01*
X124098256Y-109386000D01*
X123805744Y-109386000D01*
X123372582Y-109472161D01*
X122881375Y-109800375D01*
X122682000Y-110098761D01*
X122482625Y-109800375D01*
X121991418Y-109472161D01*
X121558256Y-109386000D01*
X121265744Y-109386000D01*
X120832582Y-109472161D01*
X120341375Y-109800375D01*
X120142000Y-110098761D01*
X119942625Y-109800375D01*
X119451418Y-109472161D01*
X119018256Y-109386000D01*
X118725744Y-109386000D01*
X118292582Y-109472161D01*
X117801375Y-109800375D01*
X117789184Y-109818619D01*
X117780157Y-109773235D01*
X117639809Y-109563191D01*
X117429765Y-109422843D01*
X117182000Y-109373560D01*
X115482000Y-109373560D01*
X115234235Y-109422843D01*
X115024191Y-109563191D01*
X114883843Y-109773235D01*
X114834560Y-110021000D01*
X106390528Y-110021000D01*
X106398749Y-110017595D01*
X106732095Y-109684249D01*
X106912500Y-109248711D01*
X106912500Y-108777289D01*
X106732095Y-108341751D01*
X106398749Y-108008405D01*
X106135104Y-107899200D01*
X137652508Y-107899200D01*
X137767761Y-108478618D01*
X138095975Y-108969825D01*
X138587182Y-109298039D01*
X139020344Y-109384200D01*
X139312856Y-109384200D01*
X139746018Y-109298039D01*
X140237225Y-108969825D01*
X140565439Y-108478618D01*
X140680692Y-107899200D01*
X140565439Y-107319782D01*
X140237225Y-106828575D01*
X140215567Y-106814104D01*
X140376298Y-106747527D01*
X140554927Y-106568899D01*
X140651600Y-106335510D01*
X140651600Y-105644950D01*
X140492850Y-105486200D01*
X139293600Y-105486200D01*
X139293600Y-105506200D01*
X139039600Y-105506200D01*
X139039600Y-105486200D01*
X137840350Y-105486200D01*
X137681600Y-105644950D01*
X137681600Y-106335510D01*
X137778273Y-106568899D01*
X137956902Y-106747527D01*
X138117633Y-106814104D01*
X138095975Y-106828575D01*
X137767761Y-107319782D01*
X137652508Y-107899200D01*
X106135104Y-107899200D01*
X105963211Y-107828000D01*
X105491789Y-107828000D01*
X105056251Y-108008405D01*
X104722905Y-108341751D01*
X104542500Y-108777289D01*
X97210000Y-108777289D01*
X97210000Y-105384600D01*
X146961608Y-105384600D01*
X147076861Y-105964018D01*
X147405075Y-106455225D01*
X147423319Y-106467416D01*
X147377935Y-106476443D01*
X147167891Y-106616791D01*
X147027543Y-106826835D01*
X146978260Y-107074600D01*
X146978260Y-108774600D01*
X147027543Y-109022365D01*
X147167891Y-109232409D01*
X147377935Y-109372757D01*
X147625700Y-109422040D01*
X149325700Y-109422040D01*
X149573465Y-109372757D01*
X149783509Y-109232409D01*
X149923857Y-109022365D01*
X149973140Y-108774600D01*
X149973140Y-107494090D01*
X166427124Y-107494090D01*
X166596955Y-107904124D01*
X166987242Y-108332383D01*
X167146554Y-108407200D01*
X166987242Y-108482017D01*
X166596955Y-108910276D01*
X166427124Y-109320310D01*
X166548445Y-109550200D01*
X167741600Y-109550200D01*
X167741600Y-107264200D01*
X166548445Y-107264200D01*
X166427124Y-107494090D01*
X149973140Y-107494090D01*
X149973140Y-107074600D01*
X149923857Y-106826835D01*
X149783509Y-106616791D01*
X149573465Y-106476443D01*
X149528081Y-106467416D01*
X149546325Y-106455225D01*
X149874539Y-105964018D01*
X149989792Y-105384600D01*
X149904159Y-104954090D01*
X166427124Y-104954090D01*
X166596955Y-105364124D01*
X166987242Y-105792383D01*
X167146554Y-105867200D01*
X166987242Y-105942017D01*
X166596955Y-106370276D01*
X166427124Y-106780310D01*
X166548445Y-107010200D01*
X167741600Y-107010200D01*
X167741600Y-104724200D01*
X166548445Y-104724200D01*
X166427124Y-104954090D01*
X149904159Y-104954090D01*
X149874539Y-104805182D01*
X149546325Y-104313975D01*
X149055118Y-103985761D01*
X148621956Y-103899600D01*
X148329444Y-103899600D01*
X147896282Y-103985761D01*
X147405075Y-104313975D01*
X147076861Y-104805182D01*
X146961608Y-105384600D01*
X97210000Y-105384600D01*
X97210000Y-104382890D01*
X137681600Y-104382890D01*
X137681600Y-105073450D01*
X137840350Y-105232200D01*
X139039600Y-105232200D01*
X139039600Y-104032950D01*
X139293600Y-104032950D01*
X139293600Y-105232200D01*
X140492850Y-105232200D01*
X140651600Y-105073450D01*
X140651600Y-104382890D01*
X140554927Y-104149501D01*
X140376298Y-103970873D01*
X140142909Y-103874200D01*
X139452350Y-103874200D01*
X139293600Y-104032950D01*
X139039600Y-104032950D01*
X138880850Y-103874200D01*
X138190291Y-103874200D01*
X137956902Y-103970873D01*
X137778273Y-104149501D01*
X137681600Y-104382890D01*
X97210000Y-104382890D01*
X97210000Y-98777289D01*
X104542500Y-98777289D01*
X104542500Y-99248711D01*
X104722905Y-99684249D01*
X105056251Y-100017595D01*
X105491789Y-100198000D01*
X105963211Y-100198000D01*
X106398749Y-100017595D01*
X106732095Y-99684249D01*
X106912500Y-99248711D01*
X106912500Y-98777289D01*
X106892830Y-98729800D01*
X114919508Y-98729800D01*
X115034761Y-99309218D01*
X115362975Y-99800425D01*
X115661361Y-99999800D01*
X115362975Y-100199175D01*
X115034761Y-100690382D01*
X114919508Y-101269800D01*
X115034761Y-101849218D01*
X115362975Y-102340425D01*
X115854182Y-102668639D01*
X116287344Y-102754800D01*
X116579856Y-102754800D01*
X117013018Y-102668639D01*
X117504225Y-102340425D01*
X117703600Y-102042039D01*
X117902975Y-102340425D01*
X118394182Y-102668639D01*
X118827344Y-102754800D01*
X119119856Y-102754800D01*
X119553018Y-102668639D01*
X120044225Y-102340425D01*
X120257443Y-102021322D01*
X120318417Y-102151158D01*
X120746676Y-102541445D01*
X121156710Y-102711276D01*
X121386600Y-102589955D01*
X121386600Y-101396800D01*
X121640600Y-101396800D01*
X121640600Y-102589955D01*
X121870490Y-102711276D01*
X122280524Y-102541445D01*
X122708783Y-102151158D01*
X122955086Y-101626692D01*
X122834419Y-101396800D01*
X121640600Y-101396800D01*
X121386600Y-101396800D01*
X121366600Y-101396800D01*
X121366600Y-101142800D01*
X121386600Y-101142800D01*
X121386600Y-101122800D01*
X121640600Y-101122800D01*
X121640600Y-101142800D01*
X122834419Y-101142800D01*
X122955086Y-100912908D01*
X122708783Y-100388442D01*
X122501745Y-100199761D01*
X122611365Y-100177957D01*
X122821409Y-100037609D01*
X122826011Y-100030721D01*
X123174851Y-100379561D01*
X123215943Y-100441059D01*
X123277440Y-100482150D01*
X123277442Y-100482152D01*
X123435593Y-100587825D01*
X123459594Y-100603862D01*
X123674457Y-100646601D01*
X123674460Y-100646601D01*
X123747000Y-100661030D01*
X123819541Y-100646601D01*
X124224986Y-100646601D01*
X124178761Y-100715782D01*
X124063508Y-101295200D01*
X124178761Y-101874618D01*
X124506975Y-102365825D01*
X124998182Y-102694039D01*
X125431344Y-102780200D01*
X125723856Y-102780200D01*
X126157018Y-102694039D01*
X126648225Y-102365825D01*
X126847600Y-102067439D01*
X127046975Y-102365825D01*
X127538182Y-102694039D01*
X127971344Y-102780200D01*
X128263856Y-102780200D01*
X128697018Y-102694039D01*
X129188225Y-102365825D01*
X129387600Y-102067439D01*
X129586975Y-102365825D01*
X130078182Y-102694039D01*
X130511344Y-102780200D01*
X130803856Y-102780200D01*
X131237018Y-102694039D01*
X131728225Y-102365825D01*
X131927600Y-102067439D01*
X132126975Y-102365825D01*
X132618182Y-102694039D01*
X133051344Y-102780200D01*
X133343856Y-102780200D01*
X133777018Y-102694039D01*
X134268225Y-102365825D01*
X134467600Y-102067439D01*
X134666975Y-102365825D01*
X135158182Y-102694039D01*
X135591344Y-102780200D01*
X135883856Y-102780200D01*
X136317018Y-102694039D01*
X136808225Y-102365825D01*
X136920013Y-102198522D01*
X137337800Y-102616310D01*
X137337800Y-102640433D01*
X137473142Y-102967178D01*
X137723222Y-103217258D01*
X138049967Y-103352600D01*
X138403633Y-103352600D01*
X138730378Y-103217258D01*
X138980458Y-102967178D01*
X139115800Y-102640433D01*
X139115800Y-102414090D01*
X166427124Y-102414090D01*
X166596955Y-102824124D01*
X166987242Y-103252383D01*
X167146554Y-103327200D01*
X166987242Y-103402017D01*
X166596955Y-103830276D01*
X166427124Y-104240310D01*
X166548445Y-104470200D01*
X167741600Y-104470200D01*
X167741600Y-102184200D01*
X166548445Y-102184200D01*
X166427124Y-102414090D01*
X139115800Y-102414090D01*
X139115800Y-102286767D01*
X138980458Y-101960022D01*
X138730378Y-101709942D01*
X138403633Y-101574600D01*
X138379510Y-101574600D01*
X137630551Y-100825642D01*
X137589458Y-100764142D01*
X137345807Y-100601339D01*
X137300476Y-100592322D01*
X137526857Y-100441059D01*
X137567950Y-100379559D01*
X137744509Y-100203000D01*
X137768633Y-100203000D01*
X138095378Y-100067658D01*
X138314736Y-99848300D01*
X152134460Y-99848300D01*
X152134460Y-101548300D01*
X152183743Y-101796065D01*
X152324091Y-102006109D01*
X152534135Y-102146457D01*
X152781900Y-102195740D01*
X154481900Y-102195740D01*
X154729665Y-102146457D01*
X154939709Y-102006109D01*
X155080057Y-101796065D01*
X155089084Y-101750681D01*
X155101275Y-101768925D01*
X155592482Y-102097139D01*
X156025644Y-102183300D01*
X156318156Y-102183300D01*
X156751318Y-102097139D01*
X157242525Y-101768925D01*
X157570739Y-101277718D01*
X157685992Y-100698300D01*
X157570739Y-100118882D01*
X157407175Y-99874090D01*
X166427124Y-99874090D01*
X166596955Y-100284124D01*
X166987242Y-100712383D01*
X167146554Y-100787200D01*
X166987242Y-100862017D01*
X166596955Y-101290276D01*
X166427124Y-101700310D01*
X166548445Y-101930200D01*
X167741600Y-101930200D01*
X167741600Y-99644200D01*
X166548445Y-99644200D01*
X166427124Y-99874090D01*
X157407175Y-99874090D01*
X157242525Y-99627675D01*
X156751318Y-99299461D01*
X156318156Y-99213300D01*
X156025644Y-99213300D01*
X155592482Y-99299461D01*
X155101275Y-99627675D01*
X155089084Y-99645919D01*
X155080057Y-99600535D01*
X154939709Y-99390491D01*
X154729665Y-99250143D01*
X154571700Y-99218722D01*
X154571700Y-97622520D01*
X154660600Y-97407895D01*
X154660600Y-97334090D01*
X166427124Y-97334090D01*
X166596955Y-97744124D01*
X166987242Y-98172383D01*
X167146554Y-98247200D01*
X166987242Y-98322017D01*
X166596955Y-98750276D01*
X166427124Y-99160310D01*
X166548445Y-99390200D01*
X167741600Y-99390200D01*
X167741600Y-97104200D01*
X166548445Y-97104200D01*
X166427124Y-97334090D01*
X154660600Y-97334090D01*
X154660600Y-97003705D01*
X154505924Y-96630282D01*
X154220118Y-96344476D01*
X153846695Y-96189800D01*
X153442505Y-96189800D01*
X153069082Y-96344476D01*
X152783276Y-96630282D01*
X152628600Y-97003705D01*
X152628600Y-97407895D01*
X152692101Y-97561201D01*
X152692100Y-99218722D01*
X152534135Y-99250143D01*
X152324091Y-99390491D01*
X152183743Y-99600535D01*
X152134460Y-99848300D01*
X138314736Y-99848300D01*
X138345458Y-99817578D01*
X138480800Y-99490833D01*
X138480800Y-99137167D01*
X138345458Y-98810422D01*
X138095378Y-98560342D01*
X137768633Y-98425000D01*
X137414967Y-98425000D01*
X137235040Y-98499528D01*
X137235040Y-97905200D01*
X137185757Y-97657435D01*
X137045409Y-97447391D01*
X136835365Y-97307043D01*
X136587600Y-97257760D01*
X134887600Y-97257760D01*
X134639835Y-97307043D01*
X134429791Y-97447391D01*
X134289443Y-97657435D01*
X134280416Y-97702819D01*
X134268225Y-97684575D01*
X133777018Y-97356361D01*
X133343856Y-97270200D01*
X133051344Y-97270200D01*
X132618182Y-97356361D01*
X132126975Y-97684575D01*
X131927600Y-97982961D01*
X131728225Y-97684575D01*
X131237018Y-97356361D01*
X130803856Y-97270200D01*
X130511344Y-97270200D01*
X130078182Y-97356361D01*
X129586975Y-97684575D01*
X129387600Y-97982961D01*
X129188225Y-97684575D01*
X128697018Y-97356361D01*
X128263856Y-97270200D01*
X127971344Y-97270200D01*
X127538182Y-97356361D01*
X127046975Y-97684575D01*
X126847600Y-97982961D01*
X126648225Y-97684575D01*
X126157018Y-97356361D01*
X125723856Y-97270200D01*
X125431344Y-97270200D01*
X124998182Y-97356361D01*
X124506975Y-97684575D01*
X124178761Y-98175782D01*
X124063508Y-98755200D01*
X124146693Y-99173401D01*
X124052111Y-99173401D01*
X123138951Y-98260242D01*
X123097858Y-98198742D01*
X123011040Y-98140732D01*
X123011040Y-97879800D01*
X122961757Y-97632035D01*
X122821409Y-97421991D01*
X122611365Y-97281643D01*
X122363600Y-97232360D01*
X120663600Y-97232360D01*
X120415835Y-97281643D01*
X120205791Y-97421991D01*
X120065443Y-97632035D01*
X120056416Y-97677419D01*
X120044225Y-97659175D01*
X119553018Y-97330961D01*
X119119856Y-97244800D01*
X118827344Y-97244800D01*
X118394182Y-97330961D01*
X117902975Y-97659175D01*
X117703600Y-97957561D01*
X117504225Y-97659175D01*
X117013018Y-97330961D01*
X116579856Y-97244800D01*
X116287344Y-97244800D01*
X115854182Y-97330961D01*
X115362975Y-97659175D01*
X115034761Y-98150382D01*
X114919508Y-98729800D01*
X106892830Y-98729800D01*
X106732095Y-98341751D01*
X106398749Y-98008405D01*
X105963211Y-97828000D01*
X105491789Y-97828000D01*
X105056251Y-98008405D01*
X104722905Y-98341751D01*
X104542500Y-98777289D01*
X97210000Y-98777289D01*
X97210000Y-94794090D01*
X166427124Y-94794090D01*
X166596955Y-95204124D01*
X166987242Y-95632383D01*
X167146554Y-95707200D01*
X166987242Y-95782017D01*
X166596955Y-96210276D01*
X166427124Y-96620310D01*
X166548445Y-96850200D01*
X167741600Y-96850200D01*
X167741600Y-94564200D01*
X166548445Y-94564200D01*
X166427124Y-94794090D01*
X97210000Y-94794090D01*
X97210000Y-91897200D01*
X97952308Y-91897200D01*
X98067561Y-92476618D01*
X98395775Y-92967825D01*
X98886982Y-93296039D01*
X99320144Y-93382200D01*
X99612656Y-93382200D01*
X100045818Y-93296039D01*
X100537025Y-92967825D01*
X100736400Y-92669439D01*
X100935775Y-92967825D01*
X101426982Y-93296039D01*
X101860144Y-93382200D01*
X102152656Y-93382200D01*
X102585818Y-93296039D01*
X103077025Y-92967825D01*
X103276400Y-92669439D01*
X103475775Y-92967825D01*
X103966982Y-93296039D01*
X104400144Y-93382200D01*
X104692656Y-93382200D01*
X105125818Y-93296039D01*
X105617025Y-92967825D01*
X105816400Y-92669439D01*
X106015775Y-92967825D01*
X106506982Y-93296039D01*
X106940144Y-93382200D01*
X107232656Y-93382200D01*
X107665818Y-93296039D01*
X108157025Y-92967825D01*
X108356400Y-92669439D01*
X108555775Y-92967825D01*
X109046982Y-93296039D01*
X109480144Y-93382200D01*
X109772656Y-93382200D01*
X110205818Y-93296039D01*
X110697025Y-92967825D01*
X110896400Y-92669439D01*
X111095775Y-92967825D01*
X111586982Y-93296039D01*
X112020144Y-93382200D01*
X112312656Y-93382200D01*
X112745818Y-93296039D01*
X113237025Y-92967825D01*
X113436400Y-92669439D01*
X113635775Y-92967825D01*
X114126982Y-93296039D01*
X114560144Y-93382200D01*
X114852656Y-93382200D01*
X115285818Y-93296039D01*
X115777025Y-92967825D01*
X115789216Y-92949581D01*
X115798243Y-92994965D01*
X115938591Y-93205009D01*
X116148635Y-93345357D01*
X116396400Y-93394640D01*
X118096400Y-93394640D01*
X118344165Y-93345357D01*
X118554209Y-93205009D01*
X118694557Y-92994965D01*
X118743840Y-92747200D01*
X118743840Y-92157550D01*
X130214000Y-92157550D01*
X130214000Y-92848109D01*
X130310673Y-93081498D01*
X130489301Y-93260127D01*
X130722690Y-93356800D01*
X131413250Y-93356800D01*
X131572000Y-93198050D01*
X131572000Y-91998800D01*
X130372750Y-91998800D01*
X130214000Y-92157550D01*
X118743840Y-92157550D01*
X118743840Y-91047200D01*
X118713664Y-90895491D01*
X130214000Y-90895491D01*
X130214000Y-91586050D01*
X130372750Y-91744800D01*
X131572000Y-91744800D01*
X131572000Y-90545550D01*
X131826000Y-90545550D01*
X131826000Y-91744800D01*
X131846000Y-91744800D01*
X131846000Y-91998800D01*
X131826000Y-91998800D01*
X131826000Y-93198050D01*
X131984750Y-93356800D01*
X132675310Y-93356800D01*
X132908699Y-93260127D01*
X133087327Y-93081498D01*
X133153904Y-92920767D01*
X133168375Y-92942425D01*
X133659582Y-93270639D01*
X134092744Y-93356800D01*
X134385256Y-93356800D01*
X134818418Y-93270639D01*
X135309625Y-92942425D01*
X135509000Y-92644039D01*
X135708375Y-92942425D01*
X136199582Y-93270639D01*
X136337297Y-93298032D01*
X136296400Y-93396767D01*
X136296400Y-93750433D01*
X136431742Y-94077178D01*
X136681822Y-94327258D01*
X137008567Y-94462600D01*
X137362233Y-94462600D01*
X137688978Y-94327258D01*
X137706036Y-94310200D01*
X142624660Y-94310200D01*
X142697200Y-94324629D01*
X142769740Y-94310200D01*
X142769744Y-94310200D01*
X142984607Y-94267461D01*
X143228258Y-94104658D01*
X143269351Y-94043158D01*
X144004991Y-93307519D01*
X144252744Y-93356800D01*
X144545256Y-93356800D01*
X144978418Y-93270639D01*
X145469625Y-92942425D01*
X145797839Y-92451218D01*
X145913092Y-91871800D01*
X145797839Y-91292382D01*
X145617042Y-91021800D01*
X146762360Y-91021800D01*
X146762360Y-92721800D01*
X146811643Y-92969565D01*
X146951991Y-93179609D01*
X147162035Y-93319957D01*
X147409800Y-93369240D01*
X149109800Y-93369240D01*
X149357565Y-93319957D01*
X149567609Y-93179609D01*
X149707957Y-92969565D01*
X149716984Y-92924181D01*
X149729175Y-92942425D01*
X150220382Y-93270639D01*
X150653544Y-93356800D01*
X150946056Y-93356800D01*
X151379218Y-93270639D01*
X151870425Y-92942425D01*
X152083643Y-92623322D01*
X152144617Y-92753158D01*
X152572876Y-93143445D01*
X152982910Y-93313276D01*
X153212800Y-93191955D01*
X153212800Y-91998800D01*
X153466800Y-91998800D01*
X153466800Y-93191955D01*
X153696690Y-93313276D01*
X154106724Y-93143445D01*
X154534983Y-92753158D01*
X154769358Y-92254090D01*
X166427124Y-92254090D01*
X166596955Y-92664124D01*
X166987242Y-93092383D01*
X167146554Y-93167200D01*
X166987242Y-93242017D01*
X166596955Y-93670276D01*
X166427124Y-94080310D01*
X166548445Y-94310200D01*
X167741600Y-94310200D01*
X167741600Y-92024200D01*
X166548445Y-92024200D01*
X166427124Y-92254090D01*
X154769358Y-92254090D01*
X154781286Y-92228692D01*
X154660619Y-91998800D01*
X153466800Y-91998800D01*
X153212800Y-91998800D01*
X153192800Y-91998800D01*
X153192800Y-91744800D01*
X153212800Y-91744800D01*
X153212800Y-90551645D01*
X153466800Y-90551645D01*
X153466800Y-91744800D01*
X154660619Y-91744800D01*
X154767952Y-91540310D01*
X166427124Y-91540310D01*
X166548445Y-91770200D01*
X167741600Y-91770200D01*
X167741600Y-90576381D01*
X167511708Y-90455714D01*
X166987242Y-90702017D01*
X166596955Y-91130276D01*
X166427124Y-91540310D01*
X154767952Y-91540310D01*
X154781286Y-91514908D01*
X154534983Y-90990442D01*
X154106724Y-90600155D01*
X153696690Y-90430324D01*
X153466800Y-90551645D01*
X153212800Y-90551645D01*
X152982910Y-90430324D01*
X152572876Y-90600155D01*
X152144617Y-90990442D01*
X152083643Y-91120278D01*
X151870425Y-90801175D01*
X151379218Y-90472961D01*
X150946056Y-90386800D01*
X150653544Y-90386800D01*
X150220382Y-90472961D01*
X149729175Y-90801175D01*
X149716984Y-90819419D01*
X149707957Y-90774035D01*
X149567609Y-90563991D01*
X149357565Y-90423643D01*
X149109800Y-90374360D01*
X147409800Y-90374360D01*
X147162035Y-90423643D01*
X146951991Y-90563991D01*
X146811643Y-90774035D01*
X146762360Y-91021800D01*
X145617042Y-91021800D01*
X145469625Y-90801175D01*
X144978418Y-90472961D01*
X144545256Y-90386800D01*
X144252744Y-90386800D01*
X143819582Y-90472961D01*
X143328375Y-90801175D01*
X143129000Y-91099561D01*
X142929625Y-90801175D01*
X142438418Y-90472961D01*
X142005256Y-90386800D01*
X141712744Y-90386800D01*
X141279582Y-90472961D01*
X140788375Y-90801175D01*
X140589000Y-91099561D01*
X140389625Y-90801175D01*
X139898418Y-90472961D01*
X139465256Y-90386800D01*
X139172744Y-90386800D01*
X138739582Y-90472961D01*
X138248375Y-90801175D01*
X138049000Y-91099561D01*
X137849625Y-90801175D01*
X137358418Y-90472961D01*
X136925256Y-90386800D01*
X136632744Y-90386800D01*
X136199582Y-90472961D01*
X135708375Y-90801175D01*
X135509000Y-91099561D01*
X135309625Y-90801175D01*
X134818418Y-90472961D01*
X134385256Y-90386800D01*
X134092744Y-90386800D01*
X133659582Y-90472961D01*
X133168375Y-90801175D01*
X133153904Y-90822833D01*
X133087327Y-90662102D01*
X132908699Y-90483473D01*
X132675310Y-90386800D01*
X131984750Y-90386800D01*
X131826000Y-90545550D01*
X131572000Y-90545550D01*
X131413250Y-90386800D01*
X130722690Y-90386800D01*
X130489301Y-90483473D01*
X130310673Y-90662102D01*
X130214000Y-90895491D01*
X118713664Y-90895491D01*
X118694557Y-90799435D01*
X118554209Y-90589391D01*
X118344165Y-90449043D01*
X118096400Y-90399760D01*
X116396400Y-90399760D01*
X116148635Y-90449043D01*
X115938591Y-90589391D01*
X115798243Y-90799435D01*
X115789216Y-90844819D01*
X115777025Y-90826575D01*
X115285818Y-90498361D01*
X114852656Y-90412200D01*
X114560144Y-90412200D01*
X114126982Y-90498361D01*
X113635775Y-90826575D01*
X113436400Y-91124961D01*
X113237025Y-90826575D01*
X112745818Y-90498361D01*
X112312656Y-90412200D01*
X112020144Y-90412200D01*
X111586982Y-90498361D01*
X111095775Y-90826575D01*
X110896400Y-91124961D01*
X110697025Y-90826575D01*
X110205818Y-90498361D01*
X109772656Y-90412200D01*
X109480144Y-90412200D01*
X109046982Y-90498361D01*
X108555775Y-90826575D01*
X108356400Y-91124961D01*
X108157025Y-90826575D01*
X107665818Y-90498361D01*
X107232656Y-90412200D01*
X106940144Y-90412200D01*
X106506982Y-90498361D01*
X106015775Y-90826575D01*
X105816400Y-91124961D01*
X105617025Y-90826575D01*
X105125818Y-90498361D01*
X104692656Y-90412200D01*
X104400144Y-90412200D01*
X103966982Y-90498361D01*
X103475775Y-90826575D01*
X103276400Y-91124961D01*
X103077025Y-90826575D01*
X102585818Y-90498361D01*
X102152656Y-90412200D01*
X101860144Y-90412200D01*
X101426982Y-90498361D01*
X100935775Y-90826575D01*
X100736400Y-91124961D01*
X100537025Y-90826575D01*
X100045818Y-90498361D01*
X99612656Y-90412200D01*
X99320144Y-90412200D01*
X98886982Y-90498361D01*
X98395775Y-90826575D01*
X98067561Y-91317782D01*
X97952308Y-91897200D01*
X97210000Y-91897200D01*
X97210000Y-87045800D01*
X103616508Y-87045800D01*
X103731761Y-87625218D01*
X104059975Y-88116425D01*
X104551182Y-88444639D01*
X104984344Y-88530800D01*
X105276856Y-88530800D01*
X105710018Y-88444639D01*
X106201225Y-88116425D01*
X106400600Y-87818039D01*
X106599975Y-88116425D01*
X107091182Y-88444639D01*
X107524344Y-88530800D01*
X107816856Y-88530800D01*
X108250018Y-88444639D01*
X108741225Y-88116425D01*
X108940600Y-87818039D01*
X109139975Y-88116425D01*
X109631182Y-88444639D01*
X109931200Y-88504316D01*
X109931200Y-88543433D01*
X110066542Y-88870178D01*
X110316622Y-89120258D01*
X110643367Y-89255600D01*
X110997033Y-89255600D01*
X111323778Y-89120258D01*
X111573858Y-88870178D01*
X111709200Y-88543433D01*
X111709200Y-88519309D01*
X111945685Y-88282823D01*
X111983676Y-88317445D01*
X112393710Y-88487276D01*
X112623600Y-88365955D01*
X112623600Y-87172800D01*
X112603600Y-87172800D01*
X112603600Y-86918800D01*
X112623600Y-86918800D01*
X112623600Y-86898800D01*
X112877600Y-86898800D01*
X112877600Y-86918800D01*
X112897600Y-86918800D01*
X112897600Y-87172800D01*
X112877600Y-87172800D01*
X112877600Y-88365955D01*
X113107490Y-88487276D01*
X113517524Y-88317445D01*
X113945783Y-87927158D01*
X114006757Y-87797322D01*
X114219975Y-88116425D01*
X114711182Y-88444639D01*
X115144344Y-88530800D01*
X115436856Y-88530800D01*
X115870018Y-88444639D01*
X116361225Y-88116425D01*
X116574443Y-87797322D01*
X116635417Y-87927158D01*
X117063676Y-88317445D01*
X117473710Y-88487276D01*
X117703600Y-88365955D01*
X117703600Y-87172800D01*
X117683600Y-87172800D01*
X117683600Y-86918800D01*
X117703600Y-86918800D01*
X117703600Y-86898800D01*
X117957600Y-86898800D01*
X117957600Y-86918800D01*
X117977600Y-86918800D01*
X117977600Y-87172800D01*
X117957600Y-87172800D01*
X117957600Y-88365955D01*
X118187490Y-88487276D01*
X118597524Y-88317445D01*
X119025783Y-87927158D01*
X119086757Y-87797322D01*
X119299975Y-88116425D01*
X119791182Y-88444639D01*
X120224344Y-88530800D01*
X120516856Y-88530800D01*
X120950018Y-88444639D01*
X121441225Y-88116425D01*
X121640600Y-87818039D01*
X121839975Y-88116425D01*
X122331182Y-88444639D01*
X122764344Y-88530800D01*
X123056856Y-88530800D01*
X123490018Y-88444639D01*
X123981225Y-88116425D01*
X124180600Y-87818039D01*
X124379975Y-88116425D01*
X124871182Y-88444639D01*
X125304344Y-88530800D01*
X125596856Y-88530800D01*
X126030018Y-88444639D01*
X126521225Y-88116425D01*
X126720600Y-87818039D01*
X126919975Y-88116425D01*
X127411182Y-88444639D01*
X127844344Y-88530800D01*
X128136856Y-88530800D01*
X128524001Y-88453792D01*
X128524001Y-88929055D01*
X128509571Y-89001600D01*
X128566739Y-89289006D01*
X128574800Y-89301070D01*
X128574800Y-89381633D01*
X128710142Y-89708378D01*
X128960222Y-89958458D01*
X129286967Y-90093800D01*
X129640633Y-90093800D01*
X129967378Y-89958458D01*
X130217458Y-89708378D01*
X130352800Y-89381633D01*
X130352800Y-89027967D01*
X130217458Y-88701222D01*
X129997200Y-88480964D01*
X129997200Y-88414168D01*
X130173710Y-88487276D01*
X130403600Y-88365955D01*
X130403600Y-87172800D01*
X130383600Y-87172800D01*
X130383600Y-86918800D01*
X130403600Y-86918800D01*
X130403600Y-86898800D01*
X130657600Y-86898800D01*
X130657600Y-86918800D01*
X130677600Y-86918800D01*
X130677600Y-87172800D01*
X130657600Y-87172800D01*
X130657600Y-88365955D01*
X130887490Y-88487276D01*
X131297524Y-88317445D01*
X131725783Y-87927158D01*
X131786757Y-87797322D01*
X131999975Y-88116425D01*
X132491182Y-88444639D01*
X132924344Y-88530800D01*
X133216856Y-88530800D01*
X133650018Y-88444639D01*
X134141225Y-88116425D01*
X134340600Y-87818039D01*
X134539975Y-88116425D01*
X135031182Y-88444639D01*
X135464344Y-88530800D01*
X135756856Y-88530800D01*
X136190018Y-88444639D01*
X136681225Y-88116425D01*
X136894443Y-87797322D01*
X136955417Y-87927158D01*
X137383676Y-88317445D01*
X137793710Y-88487276D01*
X138023600Y-88365955D01*
X138023600Y-87172800D01*
X138003600Y-87172800D01*
X138003600Y-86918800D01*
X138023600Y-86918800D01*
X138023600Y-86898800D01*
X138277600Y-86898800D01*
X138277600Y-86918800D01*
X138297600Y-86918800D01*
X138297600Y-87172800D01*
X138277600Y-87172800D01*
X138277600Y-88365955D01*
X138507490Y-88487276D01*
X138917524Y-88317445D01*
X139345783Y-87927158D01*
X139406757Y-87797322D01*
X139619975Y-88116425D01*
X140111182Y-88444639D01*
X140544344Y-88530800D01*
X140836856Y-88530800D01*
X141270018Y-88444639D01*
X141761225Y-88116425D01*
X141960600Y-87818039D01*
X142159975Y-88116425D01*
X142651182Y-88444639D01*
X143084344Y-88530800D01*
X143376856Y-88530800D01*
X143810018Y-88444639D01*
X144301225Y-88116425D01*
X144500600Y-87818039D01*
X144699975Y-88116425D01*
X145191182Y-88444639D01*
X145624344Y-88530800D01*
X145916856Y-88530800D01*
X146350018Y-88444639D01*
X146841225Y-88116425D01*
X147054443Y-87797322D01*
X147115417Y-87927158D01*
X147543676Y-88317445D01*
X147953710Y-88487276D01*
X148183600Y-88365955D01*
X148183600Y-87172800D01*
X148163600Y-87172800D01*
X148163600Y-86918800D01*
X148183600Y-86918800D01*
X148183600Y-86898800D01*
X148437600Y-86898800D01*
X148437600Y-86918800D01*
X148457600Y-86918800D01*
X148457600Y-87172800D01*
X148437600Y-87172800D01*
X148437600Y-88365955D01*
X148667490Y-88487276D01*
X149077524Y-88317445D01*
X149505783Y-87927158D01*
X149566757Y-87797322D01*
X149779975Y-88116425D01*
X150271182Y-88444639D01*
X150704344Y-88530800D01*
X150996856Y-88530800D01*
X151430018Y-88444639D01*
X151921225Y-88116425D01*
X152120600Y-87818039D01*
X152319975Y-88116425D01*
X152811182Y-88444639D01*
X153244344Y-88530800D01*
X153536856Y-88530800D01*
X153970018Y-88444639D01*
X154461225Y-88116425D01*
X154548639Y-87985600D01*
X155541323Y-87985600D01*
X156987204Y-89431481D01*
X156956508Y-89585800D01*
X157071761Y-90165218D01*
X157399975Y-90656425D01*
X157891182Y-90984639D01*
X158324344Y-91070800D01*
X158616856Y-91070800D01*
X159050018Y-90984639D01*
X159541225Y-90656425D01*
X159869439Y-90165218D01*
X159984692Y-89585800D01*
X159869439Y-89006382D01*
X159541225Y-88515175D01*
X159242839Y-88315800D01*
X159541225Y-88116425D01*
X159869439Y-87625218D01*
X159984692Y-87045800D01*
X160690308Y-87045800D01*
X160805561Y-87625218D01*
X161133775Y-88116425D01*
X161432161Y-88315800D01*
X161133775Y-88515175D01*
X160805561Y-89006382D01*
X160690308Y-89585800D01*
X160805561Y-90165218D01*
X161133775Y-90656425D01*
X161624982Y-90984639D01*
X162058144Y-91070800D01*
X162350656Y-91070800D01*
X162783818Y-90984639D01*
X163275025Y-90656425D01*
X163603239Y-90165218D01*
X163718492Y-89585800D01*
X163603239Y-89006382D01*
X163275025Y-88515175D01*
X162976639Y-88315800D01*
X163275025Y-88116425D01*
X163603239Y-87625218D01*
X163718492Y-87045800D01*
X163603239Y-86466382D01*
X163275025Y-85975175D01*
X163256781Y-85962984D01*
X163302165Y-85953957D01*
X163512209Y-85813609D01*
X163652557Y-85603565D01*
X163701840Y-85355800D01*
X163701840Y-83655800D01*
X163652557Y-83408035D01*
X163512209Y-83197991D01*
X163302165Y-83057643D01*
X163054400Y-83008360D01*
X161354400Y-83008360D01*
X161106635Y-83057643D01*
X160896591Y-83197991D01*
X160756243Y-83408035D01*
X160706960Y-83655800D01*
X160706960Y-85355800D01*
X160756243Y-85603565D01*
X160896591Y-85813609D01*
X161106635Y-85953957D01*
X161152019Y-85962984D01*
X161133775Y-85975175D01*
X160805561Y-86466382D01*
X160690308Y-87045800D01*
X159984692Y-87045800D01*
X159869439Y-86466382D01*
X159541225Y-85975175D01*
X159522981Y-85962984D01*
X159568365Y-85953957D01*
X159778409Y-85813609D01*
X159918757Y-85603565D01*
X159968040Y-85355800D01*
X159968040Y-83655800D01*
X159918757Y-83408035D01*
X159778409Y-83197991D01*
X159568365Y-83057643D01*
X159320600Y-83008360D01*
X157620600Y-83008360D01*
X157372835Y-83057643D01*
X157162791Y-83197991D01*
X157022443Y-83408035D01*
X156973160Y-83655800D01*
X156973160Y-85355800D01*
X157022443Y-85603565D01*
X157162791Y-85813609D01*
X157372835Y-85953957D01*
X157418219Y-85962984D01*
X157399975Y-85975175D01*
X157071761Y-86466382D01*
X157006807Y-86792930D01*
X156660588Y-86446711D01*
X156608157Y-86368243D01*
X156520629Y-86309758D01*
X156364696Y-86205567D01*
X156297291Y-86160528D01*
X156023159Y-86106000D01*
X156023154Y-86106000D01*
X155930600Y-86087590D01*
X155838046Y-86106000D01*
X154548639Y-86106000D01*
X154461225Y-85975175D01*
X154442981Y-85962984D01*
X154488365Y-85953957D01*
X154698409Y-85813609D01*
X154838757Y-85603565D01*
X154888040Y-85355800D01*
X154888040Y-83655800D01*
X154838757Y-83408035D01*
X154698409Y-83197991D01*
X154488365Y-83057643D01*
X154240600Y-83008360D01*
X152540600Y-83008360D01*
X152292835Y-83057643D01*
X152082791Y-83197991D01*
X151942443Y-83408035D01*
X151933416Y-83453419D01*
X151921225Y-83435175D01*
X151430018Y-83106961D01*
X150996856Y-83020800D01*
X150704344Y-83020800D01*
X150271182Y-83106961D01*
X149779975Y-83435175D01*
X149580600Y-83733561D01*
X149381225Y-83435175D01*
X148890018Y-83106961D01*
X148456856Y-83020800D01*
X148164344Y-83020800D01*
X147731182Y-83106961D01*
X147239975Y-83435175D01*
X147040600Y-83733561D01*
X146841225Y-83435175D01*
X146350018Y-83106961D01*
X145916856Y-83020800D01*
X145624344Y-83020800D01*
X145191182Y-83106961D01*
X144699975Y-83435175D01*
X144486757Y-83754278D01*
X144425783Y-83624442D01*
X143997524Y-83234155D01*
X143587490Y-83064324D01*
X143357600Y-83185645D01*
X143357600Y-84378800D01*
X143377600Y-84378800D01*
X143377600Y-84632800D01*
X143357600Y-84632800D01*
X143357600Y-84652800D01*
X143103600Y-84652800D01*
X143103600Y-84632800D01*
X143083600Y-84632800D01*
X143083600Y-84378800D01*
X143103600Y-84378800D01*
X143103600Y-83185645D01*
X142873710Y-83064324D01*
X142722603Y-83126911D01*
X142722603Y-83109766D01*
X142587261Y-82783021D01*
X142467399Y-82663159D01*
X168957000Y-82663159D01*
X168957000Y-83452841D01*
X169259199Y-84182412D01*
X169817588Y-84740801D01*
X170547159Y-85043000D01*
X171336841Y-85043000D01*
X172066412Y-84740801D01*
X172624801Y-84182412D01*
X172927000Y-83452841D01*
X172927000Y-82663159D01*
X172624801Y-81933588D01*
X172066412Y-81375199D01*
X171336841Y-81073000D01*
X170547159Y-81073000D01*
X169817588Y-81375199D01*
X169259199Y-81933588D01*
X168957000Y-82663159D01*
X142467399Y-82663159D01*
X142337181Y-82532941D01*
X142010436Y-82397599D01*
X141656770Y-82397599D01*
X141330025Y-82532941D01*
X141312967Y-82549999D01*
X140255141Y-82549999D01*
X140182600Y-82535570D01*
X140110060Y-82549999D01*
X140110057Y-82549999D01*
X139927203Y-82586371D01*
X139895194Y-82592738D01*
X139713042Y-82714448D01*
X139713040Y-82714450D01*
X139678874Y-82737279D01*
X139666258Y-82706822D01*
X139416178Y-82456742D01*
X139089433Y-82321400D01*
X138735767Y-82321400D01*
X138409022Y-82456742D01*
X138369894Y-82495870D01*
X138265983Y-82516539D01*
X138139878Y-82600800D01*
X127402740Y-82600800D01*
X127330200Y-82586371D01*
X127257659Y-82600800D01*
X127257656Y-82600800D01*
X127069388Y-82638249D01*
X127042793Y-82643539D01*
X126860641Y-82765249D01*
X126860639Y-82765251D01*
X126799142Y-82806342D01*
X126758050Y-82867840D01*
X126323099Y-83302792D01*
X126030018Y-83106961D01*
X125596856Y-83020800D01*
X125304344Y-83020800D01*
X124871182Y-83106961D01*
X124379975Y-83435175D01*
X124166757Y-83754278D01*
X124105783Y-83624442D01*
X123677524Y-83234155D01*
X123267490Y-83064324D01*
X123037600Y-83185645D01*
X123037600Y-84378800D01*
X123057600Y-84378800D01*
X123057600Y-84632800D01*
X123037600Y-84632800D01*
X123037600Y-84652800D01*
X122783600Y-84652800D01*
X122783600Y-84632800D01*
X122763600Y-84632800D01*
X122763600Y-84378800D01*
X122783600Y-84378800D01*
X122783600Y-83185645D01*
X122553710Y-83064324D01*
X122143676Y-83234155D01*
X121715417Y-83624442D01*
X121654443Y-83754278D01*
X121441225Y-83435175D01*
X120950018Y-83106961D01*
X120516856Y-83020800D01*
X120224344Y-83020800D01*
X119791182Y-83106961D01*
X119299975Y-83435175D01*
X119100600Y-83733561D01*
X118901225Y-83435175D01*
X118410018Y-83106961D01*
X117976856Y-83020800D01*
X117684344Y-83020800D01*
X117251182Y-83106961D01*
X116759975Y-83435175D01*
X116560600Y-83733561D01*
X116361225Y-83435175D01*
X115870018Y-83106961D01*
X115436856Y-83020800D01*
X115144344Y-83020800D01*
X114711182Y-83106961D01*
X114219975Y-83435175D01*
X114020600Y-83733561D01*
X113821225Y-83435175D01*
X113330018Y-83106961D01*
X112896856Y-83020800D01*
X112604344Y-83020800D01*
X112171182Y-83106961D01*
X111679975Y-83435175D01*
X111480600Y-83733561D01*
X111281225Y-83435175D01*
X110790018Y-83106961D01*
X110356856Y-83020800D01*
X110064344Y-83020800D01*
X109631182Y-83106961D01*
X109139975Y-83435175D01*
X108940600Y-83733561D01*
X108741225Y-83435175D01*
X108250018Y-83106961D01*
X107816856Y-83020800D01*
X107524344Y-83020800D01*
X107091182Y-83106961D01*
X106599975Y-83435175D01*
X106386757Y-83754278D01*
X106325783Y-83624442D01*
X105897524Y-83234155D01*
X105487490Y-83064324D01*
X105257600Y-83185645D01*
X105257600Y-84378800D01*
X105277600Y-84378800D01*
X105277600Y-84632800D01*
X105257600Y-84632800D01*
X105257600Y-84652800D01*
X105003600Y-84652800D01*
X105003600Y-84632800D01*
X103809781Y-84632800D01*
X103689114Y-84862692D01*
X103935417Y-85387158D01*
X104360386Y-85774447D01*
X104059975Y-85975175D01*
X103731761Y-86466382D01*
X103616508Y-87045800D01*
X97210000Y-87045800D01*
X97210000Y-82663159D01*
X97583000Y-82663159D01*
X97583000Y-83452841D01*
X97885199Y-84182412D01*
X98443588Y-84740801D01*
X99173159Y-85043000D01*
X99962841Y-85043000D01*
X100692412Y-84740801D01*
X101250801Y-84182412D01*
X101264678Y-84148908D01*
X103689114Y-84148908D01*
X103809781Y-84378800D01*
X105003600Y-84378800D01*
X105003600Y-83185645D01*
X104773710Y-83064324D01*
X104363676Y-83234155D01*
X103935417Y-83624442D01*
X103689114Y-84148908D01*
X101264678Y-84148908D01*
X101553000Y-83452841D01*
X101553000Y-82663159D01*
X101250801Y-81933588D01*
X100692412Y-81375199D01*
X99962841Y-81073000D01*
X99173159Y-81073000D01*
X98443588Y-81375199D01*
X97885199Y-81933588D01*
X97583000Y-82663159D01*
X97210000Y-82663159D01*
X97210000Y-80710000D01*
X173290000Y-80710000D01*
X173290001Y-125290000D01*
G04 #@! TD*
M02*
