M48
;DRILL file {KiCad 5.0.2+dfsg1-1} date Fri 18 Oct 2019 02:29:15 PM CEST
;FORMAT={-:-/ absolute / metric / decimal}
FMAT,2
METRIC,TZ
T1C0.254
T2C0.381
T3C0.700
T4C1.000
T5C2.700
%
G90
G05
T1
X122.922Y-87.39
X125.857Y-81.661
X134.747Y-102.616
X137.668Y-103.263
X146.304Y-86.995
X156.718Y-84.328
T2
X116.078Y-112.014
X121.92Y-112.014
X124.968Y-111.252
X139.192Y-104.14
X139.827Y-99.822
X145.028Y-114.594
X151.13Y-106.807
X151.13Y-94.869
X152.951Y-93.091
X154.432Y-111.252
X155.321Y-101.6
X161.29Y-98.425
X161.594Y-96.139
X165.354Y-106.426
T3
X105.283Y-97.616
X105.283Y-107.616
T4
X151.13Y-109.982
X151.13Y-112.522
X141.224Y-117.602
X143.764Y-117.602
X116.332Y-97.79
X116.332Y-100.33
X118.872Y-97.79
X118.872Y-100.33
X121.412Y-97.79
X121.412Y-100.33
X159.004Y-94.615
X161.544Y-94.615
X164.084Y-94.615
X159.004Y-90.678
X161.544Y-90.678
X164.084Y-90.678
X168.91Y-88.9
X168.91Y-91.44
X168.91Y-93.98
X168.91Y-96.52
X168.91Y-99.06
X168.91Y-101.6
X168.91Y-104.14
X168.91Y-106.68
X168.91Y-109.22
X168.91Y-111.76
X171.45Y-88.9
X171.45Y-91.44
X171.45Y-93.98
X171.45Y-96.52
X171.45Y-99.06
X171.45Y-101.6
X171.45Y-104.14
X171.45Y-106.68
X171.45Y-109.22
X171.45Y-111.76
X150.114Y-90.678
X152.654Y-90.678
X155.194Y-90.678
X99.822Y-90.678
X102.362Y-90.678
X104.902Y-90.678
X107.442Y-90.678
X109.982Y-90.678
X112.522Y-90.678
X115.062Y-90.678
X117.602Y-90.678
X104.394Y-83.058
X104.394Y-85.598
X106.934Y-83.058
X106.934Y-85.598
X109.474Y-83.058
X109.474Y-85.598
X112.014Y-83.058
X112.014Y-85.598
X114.554Y-83.058
X114.554Y-85.598
X117.094Y-83.058
X117.094Y-85.598
X119.634Y-83.058
X119.634Y-85.598
X122.174Y-83.058
X122.174Y-85.598
X124.714Y-83.058
X124.714Y-85.598
X127.254Y-83.058
X127.254Y-85.598
X129.794Y-83.058
X129.794Y-85.598
X132.334Y-83.058
X132.334Y-85.598
X134.874Y-83.058
X134.874Y-85.598
X137.414Y-83.058
X137.414Y-85.598
X139.954Y-83.058
X139.954Y-85.598
X142.494Y-83.058
X142.494Y-85.598
X145.034Y-83.058
X145.034Y-85.598
X147.574Y-83.058
X147.574Y-85.598
X150.114Y-83.058
X150.114Y-85.598
X152.654Y-83.058
X152.654Y-85.598
X116.332Y-105.41
X118.872Y-105.41
X121.412Y-105.41
X123.952Y-105.41
X126.492Y-105.41
X129.032Y-105.41
X147.828Y-117.602
X150.368Y-117.602
X152.908Y-117.602
X155.448Y-117.602
X157.988Y-117.602
X160.528Y-117.602
X163.068Y-117.602
X165.608Y-117.602
X127.Y-97.79
X127.Y-100.33
X129.54Y-97.79
X129.54Y-100.33
X132.08Y-97.79
X132.08Y-100.33
X134.62Y-97.79
X134.62Y-100.33
X137.16Y-97.79
X137.16Y-100.33
X133.604Y-90.678
X136.144Y-90.678
X138.684Y-90.678
X141.224Y-90.678
X143.764Y-90.678
X146.304Y-90.678
X140.97Y-108.458
X140.97Y-110.998
X155.194Y-105.156
X157.734Y-105.156
T5
X170.942Y-116.84
X170.942Y-83.058
X99.568Y-83.058
X99.568Y-116.84
T0
M30
