M48
;DRILL file {KiCad 5.0.2+dfsg1-1} date Wed 13 Nov 2019 06:45:02 PM CET
;FORMAT={-:-/ absolute / inch / decimal}
FMAT,2
INCH,TZ
T1C0.0100
T2C0.0150
T3C0.0276
T4C0.0394
T5C0.1063
%
G90
G05
T1
X4.8394Y-3.4406
X4.955Y-3.215
X5.305Y-4.04
X5.42Y-4.0655
X5.76Y-3.425
X6.17Y-3.32
T2
X4.57Y-4.41
X4.8Y-4.41
X4.92Y-4.38
X5.48Y-4.1
X5.505Y-3.93
X5.7098Y-4.5116
X5.95Y-4.205
X5.95Y-3.735
X6.0217Y-3.665
X6.08Y-4.38
X6.115Y-4.
X6.35Y-3.875
X6.362Y-3.785
X6.51Y-4.19
T3
X4.14Y-3.8981
X4.14Y-4.2919
T4
X3.93Y-3.57
X4.03Y-3.57
X4.13Y-3.57
X4.23Y-3.57
X4.33Y-3.57
X4.43Y-3.57
X4.53Y-3.57
X4.63Y-3.57
X5.26Y-3.57
X5.36Y-3.57
X5.46Y-3.57
X5.56Y-3.57
X5.66Y-3.57
X5.76Y-3.57
X6.65Y-3.5
X6.65Y-3.6
X6.65Y-3.7
X6.65Y-3.8
X6.65Y-3.9
X6.65Y-4.
X6.65Y-4.1
X6.65Y-4.2
X6.65Y-4.3
X6.65Y-4.4
X6.75Y-3.5
X6.75Y-3.6
X6.75Y-3.7
X6.75Y-3.8
X6.75Y-3.9
X6.75Y-4.
X6.75Y-4.1
X6.75Y-4.2
X6.75Y-4.3
X6.75Y-4.4
X5.Y-3.85
X5.Y-3.95
X5.1Y-3.85
X5.1Y-3.95
X5.2Y-3.85
X5.2Y-3.95
X5.3Y-3.85
X5.3Y-3.95
X5.4Y-3.85
X5.4Y-3.95
X6.26Y-3.725
X6.36Y-3.725
X6.46Y-3.725
X6.11Y-4.14
X6.21Y-4.14
X4.11Y-3.27
X4.11Y-3.37
X4.21Y-3.27
X4.21Y-3.37
X4.31Y-3.27
X4.31Y-3.37
X4.41Y-3.27
X4.41Y-3.37
X4.51Y-3.27
X4.51Y-3.37
X4.61Y-3.27
X4.61Y-3.37
X4.71Y-3.27
X4.71Y-3.37
X4.81Y-3.27
X4.81Y-3.37
X4.91Y-3.27
X4.91Y-3.37
X5.01Y-3.27
X5.01Y-3.37
X5.11Y-3.27
X5.11Y-3.37
X5.21Y-3.27
X5.21Y-3.37
X5.31Y-3.27
X5.31Y-3.37
X5.41Y-3.27
X5.41Y-3.37
X5.51Y-3.27
X5.51Y-3.37
X5.61Y-3.27
X5.61Y-3.37
X5.71Y-3.27
X5.71Y-3.37
X5.81Y-3.27
X5.81Y-3.37
X5.91Y-3.27
X5.91Y-3.37
X6.01Y-3.27
X6.01Y-3.37
X5.56Y-4.63
X5.66Y-4.63
X5.91Y-3.57
X6.01Y-3.57
X6.11Y-3.57
X4.58Y-3.85
X4.58Y-3.95
X4.68Y-3.85
X4.68Y-3.95
X4.78Y-3.85
X4.78Y-3.95
X5.95Y-4.33
X5.95Y-4.43
X4.58Y-4.15
X4.68Y-4.15
X4.78Y-4.15
X4.88Y-4.15
X4.98Y-4.15
X5.08Y-4.15
X5.82Y-4.63
X5.92Y-4.63
X6.02Y-4.63
X6.12Y-4.63
X6.22Y-4.63
X6.32Y-4.63
X6.42Y-4.63
X6.52Y-4.63
X6.26Y-3.57
X6.36Y-3.57
X6.46Y-3.57
X5.55Y-4.27
X5.55Y-4.37
T5
X3.92Y-3.27
X3.92Y-4.6
X6.73Y-4.6
X6.73Y-3.27
T0
M30
