M48
;DRILL file {KiCad 5.0.2+dfsg1-1} date Sun 15 Mar 2020 12:00:01 PM CET
;FORMAT={-:-/ absolute / inch / decimal}
FMAT,2
INCH,TZ
T1C0.0100
T2C0.0150
T3C0.0276
T4C0.0394
T5C0.1063
%
G90
G05
T1
X4.363Y-3.479
X4.735Y-4.625
X5.097Y-3.512
X5.401Y-3.684
X5.417Y-3.91
X5.442Y-4.034
X5.469Y-3.276
X5.584Y-3.279
T2
X4.1875Y-4.8775
X4.505Y-4.625
X4.6975Y-4.885
X4.963Y-4.627
X5.135Y-4.8875
X5.33Y-4.875
X5.637Y-4.437
X5.656Y-4.664
X5.658Y-4.337
X5.76Y-4.71
X5.912Y-4.704
X5.926Y-3.934
X6.016Y-4.2045
X6.049Y-3.827
X6.062Y-4.712
X6.21Y-4.702
X6.212Y-4.011
X6.36Y-4.704
X6.446Y-4.0145
T3
X4.1625Y-3.8981
X4.1625Y-4.2919
T4
X6.239Y-3.327
X6.239Y-3.427
X6.239Y-3.527
X5.185Y-3.617
X5.285Y-3.617
X5.385Y-3.617
X5.485Y-3.617
X5.585Y-3.617
X5.685Y-3.617
X6.609Y-3.618
X6.609Y-3.718
X6.609Y-3.818
X6.609Y-3.918
X6.609Y-4.018
X6.609Y-4.118
X6.609Y-4.218
X6.609Y-4.318
X6.609Y-4.418
X6.609Y-4.518
X6.709Y-3.618
X6.709Y-3.718
X6.709Y-3.818
X6.709Y-3.918
X6.709Y-4.018
X6.709Y-4.118
X6.709Y-4.218
X6.709Y-4.318
X6.709Y-4.418
X6.709Y-4.518
X4.139Y-3.327
X4.139Y-3.427
X4.239Y-3.327
X4.239Y-3.427
X4.339Y-3.327
X4.339Y-3.427
X4.439Y-3.327
X4.439Y-3.427
X4.539Y-3.327
X4.539Y-3.427
X4.639Y-3.327
X4.639Y-3.427
X4.739Y-3.327
X4.739Y-3.427
X4.839Y-3.327
X4.839Y-3.427
X4.939Y-3.327
X4.939Y-3.427
X5.039Y-3.327
X5.039Y-3.427
X5.139Y-3.327
X5.139Y-3.427
X5.239Y-3.327
X5.239Y-3.427
X5.339Y-3.327
X5.339Y-3.427
X5.439Y-3.327
X5.439Y-3.427
X5.539Y-3.327
X5.539Y-3.427
X5.639Y-3.327
X5.639Y-3.427
X5.739Y-3.327
X5.739Y-3.427
X5.839Y-3.327
X5.839Y-3.427
X5.939Y-3.327
X5.939Y-3.427
X6.039Y-3.327
X6.039Y-3.427
X5.8455Y-4.149
X5.8455Y-4.249
X5.479Y-4.148
X5.479Y-4.248
X4.58Y-4.365
X4.68Y-4.365
X4.78Y-4.365
X4.88Y-4.365
X4.98Y-4.365
X5.08Y-4.365
X3.916Y-3.618
X4.016Y-3.618
X4.116Y-3.618
X4.216Y-3.618
X4.316Y-3.618
X4.416Y-3.618
X4.516Y-3.618
X4.616Y-3.618
X5.704Y-4.766
X5.704Y-4.866
X5.804Y-4.766
X5.804Y-4.866
X5.904Y-4.766
X5.904Y-4.866
X6.004Y-4.766
X6.004Y-4.866
X6.104Y-4.766
X6.104Y-4.866
X6.204Y-4.766
X6.204Y-4.866
X6.304Y-4.766
X6.304Y-4.866
X6.404Y-4.766
X6.404Y-4.866
X5.837Y-3.617
X5.937Y-3.617
X6.037Y-3.617
X4.944Y-3.888
X4.944Y-3.988
X5.044Y-3.888
X5.044Y-3.988
X5.144Y-3.888
X5.144Y-3.988
X5.244Y-3.888
X5.244Y-3.988
X5.344Y-3.888
X5.344Y-3.988
X4.584Y-3.887
X4.584Y-3.987
X4.684Y-3.887
X4.684Y-3.987
X4.784Y-3.887
X4.784Y-3.987
X5.478Y-4.444
X5.478Y-4.544
X6.386Y-3.327
X6.386Y-3.427
X6.386Y-3.527
X5.704Y-4.444
X5.704Y-4.544
X5.804Y-4.444
X5.804Y-4.544
X5.904Y-4.444
X5.904Y-4.544
X6.004Y-4.444
X6.004Y-4.544
X6.104Y-4.444
X6.104Y-4.544
X6.204Y-4.444
X6.204Y-4.544
X6.304Y-4.444
X6.304Y-4.544
X6.404Y-4.444
X6.404Y-4.544
X6.0485Y-3.9645
X6.1485Y-3.9645
T5
X3.92Y-4.8362
X3.92Y-3.27
X6.73Y-3.27
X6.73Y-4.8362
T0
M30
